<?xml version="1.0" encoding="UTF-8"?>
<svg xmlns="http://www.w3.org/2000/svg" xmlns:xlink="http://www.w3.org/1999/xlink"
     width="1279.62" height="903.01" viewBox="0 0 1279.62 903.01">
<defs>
</defs>
<rect x="0" y="0" width="1279.62" height="903.01" fill="white" stroke="#cccccc" stroke-width="5.0" />
<circle cx="1229.62" cy="853.01" r="10" fill="black" />
<text x="1229.62" y="853.01" font-size="30" fill="black">Transition(R-CH)</text>
<circle cx="959.31" cy="541.6600000000001" r="10" fill="black" />
<text x="959.31" y="541.6600000000001" font-size="30" fill="black">Tunnel(RavineEast)</text>
<path d="M959.31,541.6600000000001 L1229.62,853.01" stroke-width="5.0" stroke="#55b395" stroke-dasharray="" />
<circle cx="795.48" cy="426.94000000000005" r="10" fill="black" />
<text x="795.48" y="426.94000000000005" font-size="30" fill="black">Tunnel(RavineWest)</text>
<path d="M795.48,426.94000000000005 L959.31,541.6600000000001" stroke-width="5.0" stroke="#55b395" stroke-dasharray="" />
<circle cx="508.78" cy="226.19000000000005" r="10" fill="black" />
<text x="508.78" y="226.19000000000005" font-size="30" fill="black">Cave(EastRavine)</text>
<path d="M508.78,226.19000000000005 L795.48,426.94000000000005" stroke-width="5.0" stroke="#55b395" stroke-dasharray="" />
<circle cx="410.4599999999999" cy="279.43000000000006" r="10" fill="black" />
<text x="410.4599999999999" y="279.43000000000006" font-size="30" fill="black">TrainCar(Ravine)</text>
<path d="M410.4599999999999,279.43000000000006 L508.78,226.19000000000005" stroke-width="5.0" stroke="#16524f" stroke-dasharray="2,4" />
<circle cx="50.0" cy="271.19000000000005" r="10" fill="black" />
<text x="50.0" y="271.19000000000005" font-size="30" fill="black">Cave(WestRavine)</text>
<path d="M50.0,271.19000000000005 L410.4599999999999,279.43000000000006" stroke-width="5.0" stroke="#16524f" stroke-dasharray="2,4" />
<circle cx="95.08000000000001" cy="119.64000000000004" r="10" fill="black" />
<text x="95.08000000000001" y="119.64000000000004" font-size="30" fill="black">Transition(R-ML)</text>
<path d="M95.08000000000001,119.64000000000004 L50.0,271.19000000000005" stroke-width="5.0" stroke="#1e0c2a" stroke-dasharray="2,1" />
<circle cx="422.74" cy="349.07000000000005" r="10" fill="black" />
<text x="422.74" y="349.07000000000005" font-size="30" fill="black">POI(TreeBridge)</text>
<path d="M422.74,349.07000000000005 L410.4599999999999,279.43000000000006" stroke-width="5.0" stroke="#16524f" stroke-dasharray="2,4" />
<path d="M422.74,349.07000000000005 L508.78,226.19000000000005" stroke-width="5.0" stroke="#756127" stroke-dasharray="6,2" />
<path d="M422.74,349.07000000000005 L50.0,271.19000000000005" stroke-width="5.0" stroke="#756127" stroke-dasharray="6,2" />
<circle cx="435.02" cy="418.70000000000005" r="10" fill="black" />
<text x="435.02" y="418.70000000000005" font-size="30" fill="black">Climb(Ravine)</text>
<path d="M435.02,418.70000000000005 L422.74,349.07000000000005" stroke-width="5.0" stroke="#16524f" stroke-dasharray="2,4" />
<path d="M435.02,418.70000000000005 L50.0,271.19000000000005" stroke-width="5.0" stroke="#3435ff" stroke-dasharray="2,1" />
<circle cx="463.69999999999993" cy="377.74" r="10" fill="black" />
<text x="463.69999999999993" y="377.74" font-size="30" fill="black">TrainCar(RavineBasin)</text>
<path d="M463.69999999999993,377.74 L435.02,418.70000000000005" stroke-width="5.0" stroke="#16524f" stroke-dasharray="2,4" />
<circle cx="598.85" cy="533.4200000000001" r="10" fill="black" />
<text x="598.85" y="533.4200000000001" font-size="30" fill="black">Cave(SouthRavine)</text>
<path d="M598.85,533.4200000000001 L463.69999999999993,377.74" stroke-width="5.0" stroke="#16524f" stroke-dasharray="2,4" />
<circle cx="709.4499999999999" cy="549.82" r="10" fill="black" />
<text x="709.4499999999999" y="549.82" font-size="30" fill="black">Goating(Ravine)</text>
<path d="M709.4499999999999,549.82 L795.48,426.94000000000005" stroke-width="5.0" stroke="#ee1300" stroke-dasharray="1,1" />
<path d="M709.4499999999999,549.82 L598.85,533.4200000000001" stroke-width="5.0" stroke="#ee1300" stroke-dasharray="1,1" />
<circle cx="652.0899999999999" cy="631.73" r="10" fill="black" />
<text x="652.0899999999999" y="631.73" font-size="30" fill="black">Transition(R-BI)</text>
<path d="M652.0899999999999,631.73 L598.85,533.4200000000001" stroke-width="5.0" stroke="#16524f" stroke-dasharray="2,4" />
<circle cx="1229.62" cy="853.01" r="10" fill="red" />
<text x="1229.62" y="853.01" font-size="30" fill="red">Ravine--CoastalHighway</text>
<circle cx="82.80000000000001" cy="50.00000000000003" r="10" fill="red" />
<text x="82.80000000000001" y="50.00000000000003" font-size="30" fill="red">Ravine--MysteryLake</text>
<circle cx="623.41" cy="672.69" r="10" fill="red" />
<text x="623.41" y="672.69" font-size="30" fill="red">Ravine--BleakInlet</text>
</svg>