<?xml version="1.0" encoding="UTF-8" standalone="no"?>
<!-- Created with Inkscape (http://www.inkscape.org/) -->

<svg
   width="62.929001"
   height="62.928764"
   viewBox="0 0 62.929001 62.928764"
   version="1.1"
   id="svg1"
   inkscape:version="1.4.2 (ebf0e940d0, 2025-05-08)"
   sodipodi:docname="arrow.svg"
   xmlns:inkscape="http://www.inkscape.org/namespaces/inkscape"
   xmlns:sodipodi="http://sodipodi.sourceforge.net/DTD/sodipodi-0.dtd"
   xmlns="http://www.w3.org/2000/svg"
   xmlns:svg="http://www.w3.org/2000/svg">
  <sodipodi:namedview
     id="namedview1"
     pagecolor="#ffffff"
     bordercolor="#000000"
     borderopacity="0.25"
     inkscape:showpageshadow="2"
     inkscape:pageopacity="0.0"
     inkscape:pagecheckerboard="0"
     inkscape:deskcolor="#d1d1d1"
     inkscape:document-units="px"
     inkscape:zoom="9.6083333"
     inkscape:cx="31.170859"
     inkscape:cy="30.962706"
     inkscape:window-width="2256"
     inkscape:window-height="1427"
     inkscape:window-x="0"
     inkscape:window-y="0"
     inkscape:window-maximized="1"
     inkscape:current-layer="svg1" />
  <defs
     id="defs1" />
  <path
     d="M 60.360719,0.26876412 49.250719,3.3587642 C 47.110719,3.8087642 46.980719,4.9387642 48.960719,5.8687642 L 50.870719,6.7687642 C 51.070719,6.8587642 51.270719,6.9787642 51.480719,7.0987642 A 1,1 0 0 0 51.480719,8.4287642 L 51.550719,8.5087642 23.550719,36.508764 C 18.950719,37.328764 10.820719,39.198764 7.4107194,42.608764 6.6807194,43.338764 6.6007194,43.838764 6.9707194,44.168764 11.300719,41.768764 17.280719,40.228764 20.550719,39.508764 L 19.490719,40.568764 C 15.020719,41.628764 7.5607194,43.798764 4.2507194,47.108764 1.5207194,49.838764 7.6307194,49.018764 11.850719,48.208764 L 10.850719,49.208764 H 10.640719 L 9.0507194,49.448764 V 49.448764 L 7.7907194,49.588764 A 11.85,11.85 0 0 1 4.4607194,49.668764 15,15 0 0 0 2.0107194,51.578764 C 1.3907194,52.198764 1.4207194,52.418764 1.4207194,52.418764 1.5207194,52.578764 1.9207194,52.638764 2.5307194,52.608764 L 3.3507194,52.518764 C 3.6707194,52.518764 4.0407194,52.418764 4.4207194,52.348764 5.6307194,52.158764 7.1407194,51.818764 8.7607194,51.348764 L 7.5907194,52.518764 A 27.5,27.5 0 0 1 2.8307194,53.338764 15.55,15.55 0 0 0 0.57071944,55.148764 C 0.03071944,55.688764 7.1943551e-4,55.878764 7.1943551e-4,55.878764 0.40071944,56.118764 2.7507194,55.538764 5.4407194,54.668764 L 4.8507194,55.268764 A 2,2 0 0 0 7.6607194,58.078764 L 8.2507194,57.478764 C 7.4107194,60.138764 6.8507194,62.478764 7.1107194,62.928764 A 5.51,5.51 0 0 0 7.7807194,62.368764 14.4,14.4 0 0 0 9.6007194,60.128764 27.56,27.56 0 0 1 10.460719,55.308764 L 11.560719,54.208764 C 11.120719,55.898764 10.770719,57.448764 10.560719,58.678764 10.490719,59.038764 10.450719,59.358764 10.420719,59.678764 10.390719,59.998764 10.360719,60.268764 10.350719,60.508764 10.350719,61.098764 10.350719,61.508764 10.530719,61.588764 10.710719,61.668764 10.760719,61.588764 11.360719,60.988764 A 14.07,14.07 0 0 0 13.270719,58.568764 11.88,11.88 0 0 1 13.270719,55.418764 V 55.418764 C 13.270719,54.998764 13.360719,54.548764 13.410719,54.098764 13.460719,53.648764 13.550719,53.098764 13.620719,52.598764 13.620719,52.458764 13.670719,52.318764 13.700719,52.178764 L 14.700719,51.178764 C 13.890719,55.388764 13.070719,61.498764 15.810719,58.768764 19.300719,55.278764 21.400719,47.878764 22.400719,43.478764 L 23.400719,42.478764 C 22.730719,45.738764 21.250719,51.718764 18.740719,56.108764 19.080719,56.438764 19.560719,56.358764 20.280719,55.638764 23.870719,52.048764 25.660719,43.998764 26.420719,39.458764 L 54.420719,11.458764 V 11.458764 A 1,1 0 0 0 55.760719,11.458764 5.37,5.37 0 0 1 56.120719,12.118764 L 57.010719,14.018764 C 57.940719,16.018764 59.070719,15.868764 59.530719,13.728764 L 62.660719,2.5687642 C 63.460719,0.51876412 62.400719,-0.53123588 60.360719,0.26876412 Z"
     id="path1"
     style="fill:#000000" />
</svg>
