<?xml version="1.0" encoding="UTF-8" standalone="no"?>
<!-- Created with Inkscape (http://www.inkscape.org/) -->

<svg
   width="60"
   height="60.000198"
   viewBox="0 0 60 60.000198"
   version="1.1"
   id="svg1"
   inkscape:version="1.4.2 (ebf0e940d0, 2025-05-08)"
   sodipodi:docname="aviator.svg"
   xmlns:inkscape="http://www.inkscape.org/namespaces/inkscape"
   xmlns:sodipodi="http://sodipodi.sourceforge.net/DTD/sodipodi-0.dtd"
   xmlns="http://www.w3.org/2000/svg"
   xmlns:svg="http://www.w3.org/2000/svg">
  <sodipodi:namedview
     id="namedview1"
     pagecolor="#ffffff"
     bordercolor="#000000"
     borderopacity="0.25"
     inkscape:showpageshadow="2"
     inkscape:pageopacity="0.0"
     inkscape:pagecheckerboard="0"
     inkscape:deskcolor="#d1d1d1"
     inkscape:document-units="px"
     inkscape:zoom="2.4020833"
     inkscape:cx="52.038161"
     inkscape:cy="87.215959"
     inkscape:window-width="2256"
     inkscape:window-height="1427"
     inkscape:window-x="0"
     inkscape:window-y="0"
     inkscape:window-maximized="1"
     inkscape:current-layer="svg1" />
  <defs
     id="defs1" />
  <path
     d="M 26 16.0002 L 11 16.0002 C 9.3439 16.002 8.00181 17.3441 8 19.0002 L 8 27.0002 C 8.00181 28.6563 9.3439 29.9984 11 30.0002 L 20 30.0002 C 24.9682 29.9946 28.9944 25.9684 29 21.0002 L 29 19.0002 C 28.9982 17.3441 27.6561 16.002 26 16.0002 Z M 16 20.0002 L 12 20.0002 L 12 24.0002 C 12 24.3575 11.8094 24.6876 11.5 24.8662 C 11.1906 25.0449 10.8094 25.0449 10.5 24.8662 C 10.1906 24.6876 10 24.3575 10 24.0002 L 10 19.0002 C 9.99993 18.735 10.1053 18.4806 10.2928 18.293 C 10.4804 18.1055 10.7348 18.0001 11 18.0002 L 16 18.0002 C 16.5523 18.0002 17 18.4479 17 19.0002 C 17 19.5525 16.5523 20.0002 16 20.0002 Z M 20 20.0002 C 19.5955 20.0002 19.2309 19.7566 19.0761 19.3829 C 18.9213 19.0092 19.0069 18.5791 19.2929 18.2931 C 19.5789 18.0071 20.009 17.9215 20.3827 18.0763 C 20.7564 18.2311 21 18.5957 21 19.0002 C 21 19.2654 20.8946 19.5198 20.7071 19.7073 C 20.5196 19.8948 20.2652 20.0002 20 20.0002 Z"
     id="path1"
     style="fill:#000000" />
  <path
     d="M 49 16.0002 L 34 16.0002 C 32.3439 16.002 31.0018 17.3441 31 19.0002 L 31 21.0002 C 31.0056 25.9684 35.0318 29.9946 40 30.0002 L 49 30.0002 C 50.6561 29.9984 51.9982 28.6563 52 27.0002 L 52 19.0002 C 51.9982 17.3441 50.6561 16.002 49 16.0002 Z M 39 20.0002 L 35 20.0002 L 35 21.0002 C 34.9993 21.5677 35.0958 22.1312 35.2852 22.6662 C 35.4045 23.0029 35.3352 23.3777 35.1033 23.6494 C 34.8713 23.9211 34.5121 24.0484 34.1608 23.9834 C 33.8096 23.9184 33.5197 23.6709 33.4004 23.3342 C 33.1345 22.5848 32.9991 21.7954 33 21.0002 L 33 19.0002 C 32.9999 18.735 33.1053 18.4806 33.2928 18.293 C 33.4804 18.1055 33.7348 18.0001 34 18.0002 L 39 18.0002 C 39.5523 18.0002 40 18.4479 40 19.0002 C 40 19.5525 39.5523 20.0002 39 20.0002 Z M 43 20.0002 C 42.5955 20.0002 42.2309 19.7566 42.0761 19.3829 C 41.9213 19.0092 42.0069 18.5791 42.2929 18.2931 C 42.5789 18.0071 43.009 17.9215 43.3827 18.0763 C 43.7564 18.2311 44 18.5957 44 19.0002 C 44 19.2654 43.8946 19.5198 43.7071 19.7073 C 43.5196 19.8948 43.2652 20.0002 43 20.0002 Z"
     id="path2"
     style="fill:#000000" />
  <path
     d="M 60 24.0002 L 60 22.0002 C 59.9982 20.3441 58.6561 19.002 57 19.0002 L 56 19.0002 C 55.9978 16.7776 54.9384 14.6886 53.1465 13.3736 C 50.7146 5.39765 43.3384 -0.0383842 35 0.000202 L 25 0.000202 C 16.6616 -0.0383842 9.28538 5.39765 6.85345 13.3736 C 5.06157 14.6886 4.00216 16.7776 4 19.0002 L 3 19.0002 C 1.3439 19.002 0.00180771 20.3441 -7.10543e-15 22.0002 L -7.10543e-15 24.0002 C 0.00212683 25.0314 0.534986 25.9889 1.41022 26.5341 C 0.507072 27.462 0.00118695 28.7054 -7.10543e-15 30.0002 L -7.10543e-15 38.0002 C 0.00324014 40.7603 2.23992 42.997 5 43.0002 L 6 43.0002 L 6 56.0002 C 6 57.4293 6.7624 58.7498 8 59.4643 C 9.2376 60.1788 10.7624 60.1788 12 59.4643 C 13.2376 58.7498 14 57.4293 14 56.0002 L 14 51.0002 L 46 51.0002 L 46 56.0002 C 46 57.4293 46.7624 58.7498 48 59.4643 C 49.2376 60.1788 50.7624 60.1788 52 59.4643 C 53.2376 58.7498 54 57.4293 54 56.0002 L 54 43.0002 L 55 43.0002 C 57.7601 42.997 59.9968 40.7603 60 38.0002 L 60 30.0002 C 59.9988 28.7054 59.4929 27.462 58.5898 26.5342 C 59.465 25.9889 59.9979 25.0314 60 24.0002 Z M 18.6289 3.21895 C 20.6553 2.40955 22.818 1.99585 25 2.0002 C 25.3573 2.0002 25.6874 2.1908 25.866 2.5002 C 26.0447 2.8096 26.0447 3.1908 25.866 3.5002 C 25.6874 3.8096 25.3573 4.0002 25 4.0002 C 23.0722 3.99615 21.1614 4.36146 19.3711 5.07637 C 19.039 5.21028 18.6607 5.15644 18.3792 4.93522 C 18.0976 4.71399 17.9558 4.35913 18.0074 4.00481 C 18.0589 3.65049 18.296 3.35076 18.6289 3.21895 Z M 12.6157 7.31465 C 13.1636 6.73285 13.7522 6.19079 14.377 5.69258 C 14.6565 5.46999 15.0335 5.41339 15.366 5.54412 C 15.6985 5.67485 15.936 5.97303 15.989 6.32635 C 16.042 6.67967 15.9026 7.03445 15.6231 7.25704 C 15.0729 7.69608 14.5546 8.17351 14.0718 8.68575 C 13.6932 9.08783 13.0603 9.10685 12.6583 8.72823 C 12.2562 8.34961 12.2372 7.71673 12.6158 7.31465 Z M 2 22.0002 C 2.00055 21.4481 2.44794 21.0008 3 21.0002 L 4 21.0002 L 4 25.0002 L 3 25.0002 C 2.44794 24.9997 2.00055 24.5523 2 24.0002 Z M 6 41.0002 L 5 41.0002 C 3.3439 40.9984 2.00181 39.6563 2 38.0002 L 2 30.0002 C 2.00401 28.7296 2.80937 27.5998 4.00922 27.1816 C 4.05282 28.9464 4.76427 30.629 6 31.8897 Z M 46 49.0002 L 14 49.0002 L 14 39.0002 C 13.9986 37.2188 14.5296 35.4776 15.5249 34.0002 L 20 34.0002 C 23.8671 34.0033 27.5338 32.2805 30 29.302 C 32.4662 32.2805 36.1329 34.0033 40 34.0002 L 44.4843 34.0002 C 45.477 35.4784 46.0048 37.2197 46 39.0002 Z M 49 32.0002 L 40 32.0002 C 36.311 32.002 32.8675 30.1517 30.833 27.0744 C 30.6475 26.7956 30.3348 26.6281 30 26.6281 C 29.6652 26.6281 29.3525 26.7956 29.167 27.0744 C 27.1325 30.1517 23.689 32.002 20 32.0002 L 11 32.0002 C 8.23992 31.997 6.00324 29.7603 6 27.0002 L 6 19.0002 C 6.00324 16.2401 8.23992 14.0034 11 14.0002 L 26 14.0002 C 27.2308 14.0012 28.4176 14.4576 29.332 15.2815 C 29.7117 15.6233 30.2882 15.6233 30.6679 15.2815 C 31.5823 14.4576 32.7692 14.0012 34 14.0002 L 49 14.0002 C 51.7601 14.0034 53.9968 16.2401 54 19.0002 L 54 27.0002 C 53.9968 29.7603 51.7601 31.997 49 32.0002 Z M 58 38.0002 C 57.9982 39.6563 56.6561 40.9984 55 41.0002 L 54 41.0002 L 54 31.8897 C 55.2357 30.629 55.9472 28.9464 55.9908 27.1816 C 57.1907 27.5998 57.996 28.7296 58 30.0002 Z M 58 24.0002 C 57.9994 24.5523 57.5521 24.9997 57 25.0002 L 56 25.0002 L 56 21.0002 L 57 21.0002 C 57.5521 21.0008 57.9994 21.4481 58 22.0002 Z"
     id="path3"
     style="fill:#000000" />
</svg>
