<?xml version="1.0" encoding="UTF-8" standalone="no"?>
<!-- Created with Inkscape (http://www.inkscape.org/) -->

<svg
   width="92.188004"
   height="92.188004"
   viewBox="0 0 92.188003 92.188003"
   version="1.1"
   id="svg1"
   inkscape:version="1.4.2 (ebf0e940d0, 2025-05-08)"
   sodipodi:docname="improvhatchet.svg"
   xmlns:inkscape="http://www.inkscape.org/namespaces/inkscape"
   xmlns:sodipodi="http://sodipodi.sourceforge.net/DTD/sodipodi-0.dtd"
   xmlns="http://www.w3.org/2000/svg"
   xmlns:svg="http://www.w3.org/2000/svg">
  <sodipodi:namedview
     id="namedview1"
     pagecolor="#ffffff"
     bordercolor="#000000"
     borderopacity="0.25"
     inkscape:showpageshadow="2"
     inkscape:pageopacity="0.0"
     inkscape:pagecheckerboard="0"
     inkscape:deskcolor="#d1d1d1"
     inkscape:document-units="px"
     inkscape:zoom="13.588235"
     inkscape:cx="47.577922"
     inkscape:cy="34.84632"
     inkscape:window-width="2256"
     inkscape:window-height="1427"
     inkscape:window-x="0"
     inkscape:window-y="0"
     inkscape:window-maximized="1"
     inkscape:current-layer="svg1" />
  <defs
     id="defs1" />
  <path
     d="M 34.585693,17.1882 C 33.886473,25.7351 33.691163,34.3952 34.980223,42.8872 35.308343,44.9653 36.105223,46.9263 37.066123,48.7739 37.152061,49.01218 37.241903,49.25437 37.327843,49.50046 39.472343,49.53171 41.620843,49.566866 43.765343,49.598116 44.241903,49.605929 44.714563,49.613741 45.191143,49.621554 46.003643,47.359854 47.452843,45.363754 49.800543,43.883254 50.616953,43.328564 51.527143,42.934034 52.448943,42.559054 52.47238,40.727054 52.491912,38.891054 52.511443,37.059054 52.538787,34.312954 52.573943,31.562954 52.605193,28.812954 52.636443,26.090254 52.667693,23.367654 52.695037,20.644954 52.72238,17.910554 52.757537,15.172254 52.78488,12.441854 52.812224,9.758254 52.84738,7.078554 52.874724,4.394954 52.890349,3.039454 52.905974,1.684054 52.917693,0.328554 47.671593,0.867614 40.960693,2.078554 38.015693,4.285554 35.195393,6.797254 35.054793,13.555054 34.582093,17.191554 Z"
     id="path1"
     style="fill:#000000" />
  <path
     d="M 58.144693,7.6172 C 58.132974,5.9649 58.109536,4.336 57.988443,2.6992 57.847813,1.81248 57.769303,1.3169411 56.813131,0.69913419 55.282035,0 55.071921,0.31362264 54.048364,0.2759877 54.042846,0.64573923 53.989768,7.6833587 53.976727,9.207 53.949383,11.8789 53.918133,14.5547 53.886883,17.2265 53.851727,19.9609 53.840008,22.6913 53.797039,25.4257 53.750164,28.1991 53.734539,30.9765 53.703289,33.7538 53.672039,36.4921 53.640789,39.2265 53.609539,41.9647 V 42.08579 C 54.191569,41.8436 54.765739,41.58579 55.304839,41.2772 58.160339,39.7772 57.332139,37.3163 57.355639,34.6639 57.300952,32.0897 57.418139,29.5194 57.519699,26.9491 57.746259,20.5038 58.156419,14.0661 58.152509,7.6171 Z"
     id="path2"
     style="fill:#000000"
     sodipodi:nodetypes="ccccccccccccccc" />
  <path
     d="M 39.452693,55.0672 C 38.296493,55.043763 37.140193,55.032044 35.983893,54.992982 35.960456,54.992982 35.940924,54.992982 35.921393,54.989075 35.940924,58.801575 35.784673,62.629675 35.761233,66.430075 35.640143,71.469175 35.624513,76.508075 35.78467,81.543075 36.07373,84.699275 35.3628,88.91808 38.12447,91.12117 39.38617,91.95712 41.05417,92.48448 42.53857,92.0079 43.31591,91.5743 43.76127,90.7579 44.17527,90.01569 45.14793,87.9649 45.33937,85.632895 45.53857,83.437595 45.74951,80.835995 45.86669,78.226695 45.92919,75.609495 46.02294,68.808695 46.09716,62.007495 46.2456,55.211495 45.1479,55.188057 44.0503,55.164619 42.9526,55.141182 41.7846,55.117745 40.6167,55.090401 39.4448,55.063057 Z"
     id="path3"
     style="fill:#000000" />
  <path
     d="M 44.839693,50.7582 C 44.253753,50.750388 43.671693,50.738669 43.089693,50.730857 41.292793,50.703513 39.495893,50.676169 37.702993,50.648826 37.370963,50.644919 37.035023,50.641013 36.699093,50.6332 36.472533,50.629294 36.245973,50.625388 36.019403,50.621482 35.94909,50.621482 35.874873,50.621482 35.804563,50.617576 35.863157,51.691776 35.894407,52.769876 35.913943,53.848076 36.230353,53.848076 36.546753,53.851982 36.859253,53.859795 39.163953,53.910576 41.464753,53.961355 43.769453,54.008235 44.605393,54.027767 45.441353,54.047298 46.277253,54.062923 46.300691,52.969123 46.328034,51.871523 46.359284,50.777723 46.230374,50.777723 46.105374,50.773817 45.980374,50.773817 45.601464,50.76991 45.218654,50.762098 44.839774,50.758191 Z"
     id="path4"
     style="fill:#000000" />
</svg>
