<?xml version="1.0" encoding="UTF-8" standalone="no"?>
<!-- Created with Inkscape (http://www.inkscape.org/) -->

<svg
   width="56"
   height="56"
   viewBox="0 0 56 56"
   version="1.1"
   id="svg1"
   inkscape:version="1.4.2 (ebf0e940d0, 2025-05-08)"
   sodipodi:docname="balaclava.svg"
   xmlns:inkscape="http://www.inkscape.org/namespaces/inkscape"
   xmlns:sodipodi="http://sodipodi.sourceforge.net/DTD/sodipodi-0.dtd"
   xmlns="http://www.w3.org/2000/svg"
   xmlns:svg="http://www.w3.org/2000/svg">
  <sodipodi:namedview
     id="namedview1"
     pagecolor="#ffffff"
     bordercolor="#000000"
     borderopacity="0.25"
     inkscape:showpageshadow="2"
     inkscape:pageopacity="0.0"
     inkscape:pagecheckerboard="0"
     inkscape:deskcolor="#d1d1d1"
     inkscape:document-units="px"
     inkscape:zoom="9.6083333"
     inkscape:cx="16.027754"
     inkscape:cy="25.030356"
     inkscape:window-width="2256"
     inkscape:window-height="1427"
     inkscape:window-x="0"
     inkscape:window-y="0"
     inkscape:window-maximized="1"
     inkscape:current-layer="svg1" />
  <defs
     id="defs1" />
  <path
     d="M 46.6004 41.392 C 46.3234 41.299 46.0684 41.212 45.8334 41.116 C 44.2235 40.5396 42.779 39.5784 41.6254 38.316 C 41.3011 38.8939 40.9181 39.4367 40.4824 39.936 C 38.1264 42.574 33.3664 47 28.0004 47 C 22.6344 47 17.8744 42.574 15.5154 39.937 C 15.0794 39.4374 14.6961 38.8942 14.3714 38.316 C 13.2148 39.5789 11.7672 40.5401 10.1544 41.116 C 9.92944 41.208 9.67444 41.295 9.41844 41.38 C 8.48252 41.6274 7.88689 42.5444 8.04144 43.5 C 9.68544 50.742 18.0784 56 28.0004 56 C 37.9224 56 46.3154 50.742 47.9584 43.5 C 48.1123 42.5533 47.5261 41.6433 46.6004 41.392 Z"
     id="path1"
     style="fill:#000000" />
  <path
     d="M 35.1934 24 C 36.6564 24.0775 37.9087 22.9621 38.0004 21.5 C 37.9087 20.0379 36.6564 18.9226 35.1934 19 C 33.4124 19 31.6714 20.732 31.0044 21.478 C 31.6704 22.266 33.4124 24 35.1934 24 Z"
     id="path2"
     style="fill:#000000" />
  <path
     d="M 20.8184 24 C 22.5774 24 24.3054 22.31 24.9674 21.583 C 25.012 21.5363 25.012 21.4628 24.9674 21.416 C 24.3054 20.689 22.5784 19 20.8184 19 C 19.3527 18.9202 18.0958 20.0352 18.0004 21.5 C 18.0958 22.9648 19.3527 24.0799 20.8184 24 Z"
     id="path3"
     style="fill:#000000" />
  <path
     d="M 25.0004 35 C 25.0004 35.7957 25.3165 36.5587 25.8791 37.1213 C 26.4417 37.684 27.2048 38 28.0004 38 L 28.0004 38 C 28.7961 38 29.5592 37.684 30.1218 37.1213 C 30.6844 36.5587 31.0004 35.7957 31.0004 35 C 31.0004 34.7348 30.8951 34.4805 30.7076 34.2929 C 30.52 34.1054 30.2657 34 30.0004 34 L 26.0004 34 C 25.7352 34 25.4809 34.1054 25.2933 34.2929 C 25.1058 34.4805 25.0004 34.7348 25.0004 35 Z"
     id="path4"
     style="fill:#000000" />
  <path
     d="M 13.0794 15.8 L 15.1074 34.431 C 15.3018 35.9828 15.9646 37.4385 17.0074 38.604 C 19.1454 40.992 23.4144 45.004 28.0074 45.004 C 32.6004 45.004 36.8574 40.992 39.0004 38.6 C 40.0456 37.4302 40.7085 35.969 40.9004 34.412 L 42.9214 15.8 C 43.3556 11.8639 42.0725 7.93161 39.4004 5.00902 C 36.4709 1.81704 32.337 3.87871e-07 28.0044 3.87871e-07 C 23.6719 3.87871e-07 19.538 1.81704 16.6084 5.00902 C 13.9335 7.93026 12.6474 11.8627 13.0794 15.8 Z M 29.5124 20.146 C 30.5624 18.971 32.7004 17 35.1934 17 C 37.761 16.9219 39.9092 18.9329 40.0004 21.5 C 39.9092 24.0671 37.761 26.0781 35.1934 26 C 32.6934 26 30.5624 24.028 29.5124 22.853 C 28.8346 22.078 28.8346 20.9211 29.5124 20.146 Z M 30.0004 32 C 30.7961 32 31.5592 32.3161 32.1218 32.8787 C 32.6844 33.4413 33.0004 34.2044 33.0004 35 C 33.0004 36.7864 32.0474 38.437 30.5004 39.3302 C 28.9534 40.2233 27.0474 40.2233 25.5004 39.3302 C 23.9534 38.437 23.0004 36.7864 23.0004 35 C 23.0004 34.2044 23.3165 33.4413 23.8791 32.8787 C 24.4417 32.3161 25.2048 32 26.0004 32 Z M 20.8184 17 C 23.2844 17 25.4024 18.924 26.4454 20.07 L 26.4454 20.07 C 27.186 20.8788 27.186 22.1193 26.4454 22.928 C 25.4004 24.076 23.2834 26 20.8184 26 C 18.2479 26.081 16.0949 24.0701 16.0004 21.5 C 16.0949 18.93 18.2479 16.9191 20.8184 17 Z"
     id="path5"
     style="fill:#000000" />
</svg>
