<?xml version="1.0" encoding="UTF-8" standalone="no"?>
<!-- Created with Inkscape (http://www.inkscape.org/) -->

<svg
   width="60"
   height="60"
   viewBox="0 0 60.000001 60"
   version="1.1"
   id="svg1"
   inkscape:version="1.4.2 (ebf0e940d0, 2025-05-08)"
   sodipodi:docname="ballistic.svg"
   xmlns:inkscape="http://www.inkscape.org/namespaces/inkscape"
   xmlns:sodipodi="http://sodipodi.sourceforge.net/DTD/sodipodi-0.dtd"
   xmlns="http://www.w3.org/2000/svg"
   xmlns:svg="http://www.w3.org/2000/svg">
  <sodipodi:namedview
     id="namedview1"
     pagecolor="#ffffff"
     bordercolor="#000000"
     borderopacity="0.25"
     inkscape:showpageshadow="2"
     inkscape:pageopacity="0.0"
     inkscape:pagecheckerboard="0"
     inkscape:deskcolor="#d1d1d1"
     inkscape:document-units="px"
     inkscape:zoom="9.6083333"
     inkscape:cx="38.091934"
     inkscape:cy="58.959237"
     inkscape:window-width="2256"
     inkscape:window-height="1427"
     inkscape:window-x="0"
     inkscape:window-y="0"
     inkscape:window-maximized="1"
     inkscape:current-layer="svg1" />
  <defs
     id="defs1" />
  <path
     d="M 46.9901 40.6904 L 46.9901 39.3094 C 46.9901 39.1384 46.8511 39.0004 46.6801 39.0004 L 13.3001 39.0004 C 13.1291 39.0004 12.9901 39.1384 12.9901 39.3094 L 12.9901 40.6904 C 12.9901 40.8614 13.1291 41.0004 13.3001 41.0004 L 46.6801 41.0004 C 46.8511 41.0004 46.9901 40.8614 46.9901 40.6904"
     id="path1"
     style="fill:#000000" />
  <path
     d="M 46.9901 31.6904 L 46.9901 30.3094 C 46.9901 30.1384 46.8511 30.0004 46.6801 30.0004 L 13.3001 30.0004 C 13.1291 30.0004 12.9901 30.1384 12.9901 30.3094 L 12.9901 31.6904 C 12.9901 31.8614 13.1291 32.0004 13.3001 32.0004 L 46.6801 32.0004 C 46.8511 32.0004 46.9901 31.8614 46.9901 31.6904"
     id="path2"
     style="fill:#000000" />
  <path
     d="M 29.99 21 C 29.647 21 29.316 20.969 28.99 20.923 L 28.99 20.922 C 23.675 20.172 20.599 13.517 19.113 7.922 C 19.111 7.916 19.11 7.91 19.108 7.905 C 19.042 7.654 18.979 7.406 18.919 7.161 C 18.913 7.136 18.907 7.112 18.901 7.088 C 18.844 6.854 18.79 6.624 18.739 6.396 C 18.734 6.374 18.729 6.351 18.724 6.329 C 18.568 5.629 18.44 4.961 18.336 4.337 C 21.316 7.408 25.285 9.012 29.99 9.012 C 34.706 9.012 38.681 7.408 41.664 4.337 C 41.559 4.961 41.431 5.628 41.275 6.329 C 41.27 6.352 41.264 6.375 41.259 6.398 C 41.208 6.625 41.155 6.854 41.098 7.085 C 41.092 7.111 41.086 7.138 41.079 7.164 C 41.019 7.408 40.957 7.654 40.891 7.903 L 40.885 7.924 C 39.396 13.519 36.315 20.173 30.99 20.923 L 30.99 20.923 C 30.664 20.969 30.333 21 29.99 21 M 54.131 25.239 C 51.805 20.44 49.986 10.662 49.99 2.978 L 49.992 2.708 C 49.999 1.925 50.006 1.114 49.424 0.527 C 49.077 0.178 48.601 0 48.011 0 L 43.01 0 C 43.003 0 42.997 0.004 42.991 0.004 C 42.869 0.006 42.75 0.03 42.638 0.075 C 42.608 0.087 42.584 0.108 42.555 0.123 C 42.478 0.163 42.406 0.208 42.341 0.267 C 42.308 0.297 42.283 0.331 42.254 0.365 C 42.225 0.4 42.189 0.427 42.164 0.467 C 39.427 4.81 35.331 7.012 29.99 7.012 C 24.662 7.012 20.573 4.81 17.836 0.467 C 17.811 0.427 17.775 0.4 17.746 0.365 C 17.717 0.331 17.692 0.297 17.659 0.267 C 17.594 0.208 17.521 0.162 17.445 0.123 C 17.416 0.108 17.392 0.087 17.362 0.075 C 17.25 0.03 17.131 0.006 17.01 0.004 C 17.003 0.004 16.997 0 16.99 0 L 11.99 0 C 11.399 0 10.923 0.178 10.576 0.527 C 9.993 1.115 10.001 1.927 10.009 2.711 L 10.01 2.978 C 10.013 10.663 8.195 20.441 5.869 25.24 C 5.387 26.234 5.01 27.886 5.01 29 L 5.01 57 C 5.01 58.654 6.356 60 8.01 60 L 25.99 60 C 26.206 60 26.417 59.93 26.59 59.8 L 28.99 58 L 28.99 52 L 13.3 52 C 12.026 52 10.99 50.964 10.99 49.69 L 10.99 48.31 C 10.99 47.036 12.026 46 13.3 46 L 28.99 46 L 28.99 43 L 13.3 43 C 12.026 43 10.99 41.964 10.99 40.69 L 10.99 39.31 C 10.99 38.036 12.026 37 13.3 37 L 28.99 37 L 28.99 34 L 13.3 34 C 12.026 34 10.99 32.964 10.99 31.69 L 10.99 30.31 C 10.99 29.036 12.026 28 13.3 28 L 28.99 28 L 28.99 22.947 C 29.316 22.981 29.649 23 29.99 23 C 30.331 23 30.664 22.981 30.99 22.947 L 30.99 28 L 46.68 28 C 47.954 28 48.99 29.036 48.99 30.31 L 48.99 31.69 C 48.99 32.964 47.954 34 46.68 34 L 30.99 34 L 30.99 37 L 46.68 37 C 47.954 37 48.99 38.036 48.99 39.31 L 48.99 40.69 C 48.99 41.964 47.954 43 46.68 43 L 30.99 43 L 30.99 46 L 46.68 46 C 47.954 46 48.99 47.036 48.99 48.31 L 48.99 49.69 C 48.99 50.964 47.954 52 46.68 52 L 30.99 52 L 30.99 58 L 33.39 59.8 C 33.563 59.93 33.774 60 33.99 60 L 51.99 60 C 53.644 60 54.99 58.654 54.99 57 L 54.99 29 C 54.99 27.886 54.613 26.234 54.131 25.239"
     id="path3"
     style="fill:#000000" />
  <path
     d="M 46.9901 49.6904 L 46.9901 48.3094 C 46.9901 48.1384 46.8511 48.0004 46.6801 48.0004 L 13.3001 48.0004 C 13.1291 48.0004 12.9901 48.1384 12.9901 48.3094 L 12.9901 49.6904 C 12.9901 49.8614 13.1291 50.0004 13.3001 50.0004 L 46.6801 50.0004 C 46.8511 50.0004 46.9901 49.8614 46.9901 49.6904"
     id="path4"
     style="fill:#000000" />
</svg>
