<?xml version="1.0" encoding="UTF-8" standalone="no"?>
<!-- Created with Inkscape (http://www.inkscape.org/) -->

<svg
   width="103.966"
   height="103.966"
   viewBox="0 0 103.96599 103.96601"
   version="1.1"
   id="svg1"
   inkscape:version="1.4.2 (ebf0e940d0, 2025-05-08)"
   sodipodi:docname="barbs.svg"
   xmlns:inkscape="http://www.inkscape.org/namespaces/inkscape"
   xmlns:sodipodi="http://sodipodi.sourceforge.net/DTD/sodipodi-0.dtd"
   xmlns="http://www.w3.org/2000/svg"
   xmlns:svg="http://www.w3.org/2000/svg">
  <sodipodi:namedview
     id="namedview1"
     pagecolor="#ffffff"
     bordercolor="#000000"
     borderopacity="0.25"
     inkscape:showpageshadow="2"
     inkscape:pageopacity="0.0"
     inkscape:pagecheckerboard="0"
     inkscape:deskcolor="#d1d1d1"
     inkscape:document-units="px"
     inkscape:zoom="4.8041667"
     inkscape:cx="26.851691"
     inkscape:cy="93.98092"
     inkscape:window-width="2256"
     inkscape:window-height="1427"
     inkscape:window-x="0"
     inkscape:window-y="0"
     inkscape:window-maximized="1"
     inkscape:current-layer="svg1" />
  <defs
     id="defs1" />
  <path
     d="M 54.026193,37.148196 A 0.973,0.973 0 0 0 53.7081,37.204285 3.141,3.141 0 0 0 52.707867,37.906644 0.462,0.462 0 0 0 52.648828,37.974934 0.514,0.514 0 0 1 52.549642,38.074673 0.189,0.189 0 0 0 52.46985,38.244102 2.005,2.005 0 0 1 52.157004,39.314692 1.741,1.741 0 0 1 51.917721,39.587386 0.5,0.5 0 0 1 51.663919,39.714387 0.506,0.506 0 0 1 51.411527,39.693904 0.691,0.691 0 0 1 51.158924,39.528251 C 51.113861,39.491518 51.04673,39.433291 50.938327,39.567148 A 0.5,0.5 0 0 1 50.427434,39.733389 0.5,0.5 0 0 1 50.060222,39.338151 3.406,3.406 0 0 1 51.791202,35.863786 2.11,2.11 0 0 1 54.383092,36.304403 0.5,0.5 0 0 1 54.024571,37.150514 Z"
     id="path1"
     style="fill:#000000" />
  <path
     d="M 99.529209,3.9472853 99.479399,3.8433543 C 99.111599,3.0877429 98.426619,1.6792914 99.409359,0.98712556 A 0.772,0.772 0 0 1 100.01514,0.85797106 2.4,2.4 0 0 1 101.28454,1.9816122 0.312,0.312 0 0 0 101.6486,2.1458891 0.227,0.227 0 0 1 101.79105,2.1532663 0.456,0.456 0 0 0 102.12187,2.1406267 0.26,0.26 0 0 1 102.41046,2.2166692 L 102.54002,2.3755847 A 5.591,5.591 0 0 1 103.96308,4.9810563 0.25,0.25 0 0 1 103.86648,5.2164063 C 103.18315,5.7349443 102.49552,6.2522073 101.80459,6.7680223 L 101.60819,6.9153653 A 0.249,0.249 0 0 1 101.37676,6.9561723 0.247,0.247 0 0 1 101.21697,6.7812633 4.716,4.716 0 0 0 99.605429,4.0455423 0.25,0.25 0 0 1 99.529209,3.9472853 Z"
     id="path2"
     style="fill:#000000" />
  <path
     d="M 28.757153,59.715975 C 28.903625,59.924711 29.034861,60.139181 29.159376,60.35585 A 0.512,0.512 0 0 1 29.008555,61.015055 8.659,8.659 0 0 1 26.84542,62.885089 0.476,0.476 0 0 1 26.685182,62.943807 0.5,0.5 0 0 1 26.108906,62.554969 C 25.89917,61.561293 25.780819,60.337248 26.733659,59.682848 27.854102,58.913598 28.449498,59.272663 28.757153,59.715975 Z"
     id="path3"
     style="fill:#000000" />
  <path
     d="M 62.552238,31.588195 A 0.508,0.508 0 0 1 62.324942,31.894316 51.926,51.926 0 0 0 57.369777,35.402062 C 56.849697,35.798393 56.329675,36.200809 55.804615,36.591926 A 0.5,0.5 0 0 1 55.019608,36.315034 C 54.983886,36.170035 54.945847,36.023412 54.905896,35.88322 A 0.5,0.5 0 0 1 55.078134,35.351229 C 55.651166,34.903927 56.216554,34.44782 56.805579,33.970282 A 45.83,45.83 0 0 1 61.715691,30.356752 0.545,0.545 0 0 1 62.382313,30.49205 0.31,0.31 0 0 0 62.449271,30.549292 0.5,0.5 0 0 1 62.67396,31.069173 C 62.639527,31.236698 62.597678,31.419746 62.552238,31.588195 Z"
     id="path4"
     style="fill:#000000" />
  <path
     d="M 32.166642,58.090225 A 0.25,0.25 0 0 1 32.224474,58.366377 5.194,5.194 0 0 1 30.232024,60.450017 0.246,0.246 0 0 1 30.13719,60.488063 0.254,0.254 0 0 1 30.035063,60.484748 0.249,0.249 0 0 1 29.875082,60.360643 L 29.55586,59.788381 A 0.25,0.25 0 0 1 29.617019,59.472969 10.759,10.759 0 0 1 31.883263,58.043727 0.248,0.248 0 0 1 32.166642,58.090225 Z"
     id="path5"
     style="fill:#000000" />
  <path
     d="M 41.552594,49.08557 A 6.555,6.555 0 0 1 41.035406,50.350597 C 40.216268,51.815088 38.282273,53.032417 36.573293,54.10345 36.006471,54.459283 35.470875,54.79641 35.031387,55.108467 34.865463,55.227082 34.668721,55.355191 34.455119,55.491352 A 7.921,7.921 0 0 0 32.920548,56.664653 0.261,0.261 0 0 1 32.771835,56.742662 0.548,0.548 0 0 0 32.673353,56.760026 11.617,11.617 0 0 0 29.038,58.809433 0.248,0.248 0 0 1 28.921615,58.863465 0.25,0.25 0 0 1 28.742562,58.827002 C 28.691127,58.794439 28.642993,58.763325 28.602677,58.742003 A 1.569,1.569 0 0 0 28.147435,58.619188 0.339,0.339 0 0 1 27.925025,58.35987 0.248,0.248 0 0 1 27.987735,58.139634 26.39,26.39 0 0 1 32.229149,54.747588 C 33.155456,54.103958 34.113454,53.438493 34.957685,52.738256 36.882291,51.133675 38.919151,49.612874 40.889907,48.14333 L 41.801391,47.461696 A 0.25,0.25 0 0 1 42.148971,47.814703 3.834,3.834 0 0 0 41.552594,49.08557 Z"
     id="path6"
     style="fill:#000000" />
  <path
     d="M 38.671021,60.172384 A 0.615,0.615 0 0 0 38.657484,60.04378 0.246,0.246 0 0 1 38.733923,59.815032 C 39.298856,59.293001 39.871087,58.777807 40.45079,58.270435 A 0.244,0.244 0 0 1 40.686393,58.218737 0.25,0.25 0 0 1 40.857026,58.391736 12.056,12.056 0 0 0 41.861242,60.68926 L 42.054788,61.061304 A 0.468,0.468 0 0 0 42.240595,61.257011 0.249,0.249 0 0 1 42.335319,61.592662 28.286,28.286 0 0 1 40.540461,64.531991 0.255,0.255 0 0 1 40.379636,64.633459 0.216,0.216 0 0 1 40.312903,64.635072 0.249,0.249 0 0 1 40.108667,64.490338 C 40.000722,64.252469 39.885362,64.012861 39.769481,63.770299 A 8.093,8.093 0 0 1 38.671021,60.172384 Z"
     id="path7"
     style="fill:#000000" />
  <path
     d="M 27.130159,63.567005 A 0.249,0.249 0 0 1 27.249053,63.394742 7.548,7.548 0 0 0 28.489373,62.453056 0.252,0.252 0 0 1 28.713391,62.393247 0.248,0.248 0 0 1 28.889879,62.541859 7.167,7.167 0 0 0 31.251391,65.447936 0.31,0.31 0 0 1 31.358008,65.649484 C 31.392148,65.923722 30.828343,66.250592 30.684497,66.32165 31.311871,68.336315 32.400372,71.065765 34.965948,69.105476 36.154476,68.198309 37.498339,66.674804 36.17279,65.226987 35.719975,64.732099 34.415249,63.506036 33.742248,63.426696 A 0.492,0.492 0 0 1 33.524969,63.346203 C 33.158006,63.660704 32.804482,63.988066 32.455474,64.323771 A 0.462,0.462 0 0 1 32.509277,64.415827 C 32.721497,65.043511 32.933717,65.671195 33.187069,66.284519 33.303176,66.568674 33.425596,66.859839 33.567771,67.136351 33.83336,67.652068 33.92518,67.625723 34.493783,67.372133 A 0.50036259,0.50036259 0 0 1 34.922328,68.276456 C 33.937367,68.714142 33.302412,68.729637 32.751651,67.731105 A 17.56,17.56 0 0 1 31.605127,64.845356 0.515,0.515 0 0 1 31.588596,64.590353 6.35,6.35 0 0 1 29.648346,62.057798 0.251,0.251 0 0 1 29.75092,61.758438 10.153,10.153 0 0 0 33.039747,58.872496 1.532,1.532 0 0 0 33.27028,58.193143 1.808,1.808 0 0 1 34.143628,56.811498 C 34.823486,56.325051 35.504329,55.838431 36.175326,55.336285 36.695055,54.955247 37.270916,54.581572 37.827485,54.219423 A 16.323,16.323 0 0 0 41.244129,51.551599 4.4,4.4 0 0 0 42.019313,49.993315 3.97,3.97 0 0 1 43.170277,48.026573 0.4,0.4 0 0 0 43.230531,47.965178 0.253,0.253 0 0 1 43.351961,47.887918 0.5,0.5 0 0 0 43.661043,47.642519 0.4,0.4 0 0 0 43.662711,47.31221 5.1,5.1 0 0 0 43.303538,46.599756 0.249,0.249 0 0 1 43.339669,46.297897 51.214,51.214 0 0 1 49.51961,41.172901 L 50.0584,40.77327 A 0.255,0.255 0 0 1 50.264979,40.729737 0.42,0.42 0 0 0 50.623858,40.640055 L 51.026735,40.333438 A 0.253,0.253 0 0 1 51.252256,40.293672 1.171,1.171 0 0 0 52.496961,39.906652 2.557,2.557 0 0 0 53.075978,38.502779 0.249,0.249 0 0 1 53.150148,38.347542 3.809,3.809 0 0 1 53.736796,37.879561 0.243,0.243 0 0 1 53.854338,37.843604 V 37.843604 C 53.816858,37.84412 53.798204,37.853502 53.822073,37.839139 53.845941,37.824776 53.879367,37.812789 53.904104,37.80335 V 37.80335 A 0.244,0.244 0 0 1 54.175207,37.820535 0.239,0.239 0 0 1 54.200867,37.839366 0.228,0.228 0 0 1 54.247609,37.879864 0.468,0.468 0 0 0 54.896859,37.968469 0.238,0.238 0 0 1 54.98115,37.928221 0.554,0.554 0 0 0 55.149617,37.852821 C 56.034099,37.219613 56.913083,36.54371 57.762521,35.890279 A 50.918,50.918 0 0 1 62.860724,32.295371 0.407,0.407 0 0 0 63.031292,32.110951 0.6,0.6 0 0 0 63.114039,31.923738 C 63.139021,31.81779 63.165973,31.711495 63.192925,31.6052 A 6.731,6.731 0 0 0 63.333725,30.946747 0.252,0.252 0 0 1 63.430024,30.784561 C 66.4045,28.528778 69.403766,26.304164 71.684702,24.618475 A 0.247,0.247 0 0 1 72.025083,24.659998 C 72.324003,25.013462 72.597318,25.371439 72.836456,25.71412 A 0.25,0.25 0 0 1 72.779176,26.05728 C 62.957727,33.329234 55.637585,38.835008 51.02152,42.42309 48.441571,44.428561 47.047827,45.57703 46.298547,46.234124 47.142174,45.714739 48.647525,44.721244 51.331961,42.830371 55.298479,40.033094 62.319759,35.00345 73.243757,26.9126 A 0.256,0.256 0 0 1 73.449525,26.870225 0.251,0.251 0 0 1 73.615473,26.999371 14.41,14.41 0 0 1 74.501226,29.304582 0.248,0.248 0 0 1 74.413714,29.579962 0.261,0.261 0 0 1 74.205975,29.639947 2.085,2.085 0 0 1 73.873961,29.824403 1.627,1.627 0 0 0 73.622881,29.961079 0.487,0.487 0 0 0 73.517144,30.081266 0.223,0.223 0 0 1 73.470273,30.132178 C 71.88175,31.442936 70.37199,32.895165 68.911593,34.29909 A 69.928,69.928 0 0 1 63.475546,39.174112 C 60.886154,41.189371 58.268958,43.185163 55.657845,45.180898 L 52.397287,47.662794 Q 51.330884,48.479379 50.259848,49.292719 C 47.240876,51.589856 44.119071,53.966051 41.192524,56.476379 40.079702,57.427061 38.994155,58.446045 37.944122,59.430334 37.292574,60.042779 36.636913,60.654933 35.976213,61.255791 35.471013,61.713471 34.94948,62.147631 34.429106,62.582601 L 34.414913,62.594242 A 4.589,4.589 0 0 1 35.166884,62.994748 C 35.37858,62.81323 35.592883,62.629221 35.807069,62.45031 A 0.25,0.25 0 0 1 36.027552,62.399248 0.253,0.253 0 0 1 36.198768,62.546758 C 36.331322,62.866599 36.464913,63.226875 36.604584,63.604356 L 36.631741,63.677755 A 0.249,0.249 0 0 1 36.441573,64.015915 L 36.43468,64.01713 A 5.9,5.9 0 0 1 37.554527,65.444354 C 38.422572,67.194204 37.069976,68.62786 35.80322,69.71332 34.536462,70.798781 32.898939,71.232727 31.508289,70.118279 30.293897,69.145375 30.010677,67.539154 29.585217,66.122513 V 66.122513 L 29.517332,66.071526 A 13.553,13.553 0 0 1 27.191013,63.779669 0.251,0.251 0 0 1 27.130159,63.567005 Z"
     id="path8"
     style="fill:#000000" />
  <path
     d="M 36.890694,61.506806 Q 37.188772,61.24507 37.480016,60.973368 A 0.254,0.254 0 0 1 37.728248,60.918429 0.248,0.248 0 0 1 37.895924,61.10921 13.1,13.1 0 0 0 38.924454,63.947731 C 39.173933,64.498781 39.426711,65.068543 39.633436,65.63627 A 0.249,0.249 0 0 1 39.595866,65.872381 C 39.348524,66.197268 39.196269,66.335811 39.049532,66.361685 A 0.294,0.294 0 0 1 38.9481,66.362308 0.346,0.346 0 0 1 38.720467,66.177021 C 38.601348,65.887304 38.486343,65.597878 38.372322,65.308278 L 38.179372,64.824432 A 32.766,32.766 0 0 0 36.835852,61.811966 0.251,0.251 0 0 1 36.890694,61.506806 Z"
     id="path9"
     style="fill:#000000" />
  <path
     d="M 0.19232714,91.891016 C 0.44336054,91.679207 0.69057134,91.462994 0.92445864,91.246084 2.4631869,89.762346 4.0755003,88.166121 6.1539753,86.069342 10.205885,81.982649 14.429338,78.200799 18.761123,74.365323 A 32,32 0 0 0 24.09703,67.701515 C 24.792317,66.651833 25.511939,65.567396 26.291223,64.516103 A 0.245,0.245 0 0 1 26.476724,64.416376 0.249,0.249 0 0 1 26.673786,64.497388 C 27.153186,65.022113 27.668447,65.531376 28.167779,66.025169 L 28.361928,66.216361 A 5.5,5.5 0 0 0 29.256066,66.962429 0.249,0.249 0 0 1 29.331555,67.315687 C 28.970414,67.847478 28.604116,68.37307 28.230115,68.901036 27.329207,70.183967 26.397475,71.51092 25.61079,72.877285 A 4,4 0 0 0 25.197867,76.685849 0.252,0.252 0 0 1 25.171129,76.92005 29.318,29.318 0 0 1 22.513623,80.10389 C 21.934252,80.734071 21.336339,81.385799 20.784014,82.059951 A 56.739,56.739 0 0 0 16.285085,88.529468 C 15.168664,90.375377 14.151225,92.327713 13.168033,94.215121 L 12.664964,95.180131 C 12.113627,96.239971 11.381392,97.627201 10.611046,98.965291 10.463699,99.223811 10.298905,99.550381 10.119276,99.908011 A 10.253,10.253 0 0 1 8.0272723,103.0683 0.245,0.245 0 0 1 7.9134933,103.11984 0.249,0.249 0 0 1 7.6522533,102.99734 C 7.5681623,102.84869 7.3940063,102.59812 7.1880533,102.30544 A 0.253,0.253 0 0 1 7.1755203,102.03856 L 8.3818883,99.896531 C 8.5102333,99.662701 8.6400833,99.431641 8.7671513,99.202081 9.0752923,98.646131 9.3733493,98.119371 9.6393753,97.577951 L 11.877645,93.202811 C 13.160424,90.618802 14.443358,88.173879 15.807451,85.722768 A 36.159,36.159 0 0 1 19.519298,80.139389 L 19.65974,79.968404 C 19.765709,79.838022 19.871852,79.708625 20.000879,79.565038 L 20.132277,79.446418 A 3.028,3.028 0 0 1 20.491532,79.151555 7.428,7.428 0 0 1 21.609185,78.452861 L 22.733194,77.870837 C 22.957509,77.755127 23.175511,77.632407 23.386967,77.512873 L 23.547557,77.4216 23.291696,76.94377 A 0.944,0.944 0 0 1 23.162786,76.661873 V 76.661873 L 23.138178,76.579901 A 0.828,0.828 0 0 1 23.064532,76.300443 C 23.057412,76.260066 23.050292,76.219689 23.043347,76.180297 A 1.158,1.158 0 0 1 23.02283,75.833592 4.174,4.174 0 0 1 23.133779,74.884913 8.482,8.482 0 0 1 23.634317,73.387243 L 23.690584,73.251409 C 24.101887,72.336081 24.504415,71.62437 24.826056,71.052835 L 24.86986,70.973016 C 24.914534,70.89812 24.963554,70.81332 25.016628,70.722728 24.960254,70.794609 24.900635,70.871124 24.838639,70.957197 A 16.716,16.716 0 0 0 23.446142,73.132042 L 23.402742,73.219914 A 8.528,8.528 0 0 0 22.766295,74.793335 4.576,4.576 0 0 0 22.590566,75.846856 2.012,2.012 0 0 0 22.60221,76.264174 L 22.616727,76.427129 A 1.149,1.149 0 0 0 22.675951,76.693897 2.462,2.462 0 0 0 22.756205,76.941726 0.266,0.266 0 0 1 22.624362,77.345759 L 22.487816,77.406391 C 22.118903,77.583137 21.73852,77.763937 21.346956,77.944676 L 21.290182,77.973981 A 8.041,8.041 0 0 0 20.118715,78.666931 3.416,3.416 0 0 0 19.686405,79.008186 L 19.54678,79.126224 C 19.43983,79.239518 19.338669,79.356866 19.236525,79.474389 L 19.039711,79.699993 A 34.463,34.463 0 0 0 15.134319,85.331715 C 13.77777,87.693153 12.423341,90.210593 11.106555,92.814815 Q 10.037485,94.888971 8.8616273,97.163711 C 8.5626893,97.771861 8.2309683,98.355331 7.8806473,98.971521 L 7.6020003,99.464401 Q 7.2162163,100.15589 6.8189023,100.86262 L 6.7184883,101.04178 A 0.244,0.244 0 0 1 6.5135193,101.16931 0.248,0.248 0 0 1 6.2918993,101.0642 L 6.1769343,100.90169 C 5.9243003,100.54006 5.7245453,100.25949 5.6560883,100.14768 5.5315733,99.931011 5.4111123,99.708551 5.2886823,99.486431 A 11.1,11.1 0 0 0 4.0672383,97.569411 C 3.6818468,97.111381 3.2509204,96.671521 2.8375445,96.244821 2.3733726,95.766151 1.8930989,95.271031 1.4562757,94.745901 L 1.3689919,94.642491 C 0.46482124,93.563101 -0.39415266,92.394506 0.19232714,91.891016 Z"
     id="path10"
     style="fill:#000000" />
  <path
     d="M 41.564413,57.387644 A 0.249,0.249 0 0 1 41.648952,57.233625 C 42.119156,56.830856 42.59127,56.43892 43.070276,56.045768 43.214998,55.927846 43.361863,55.810562 43.508728,55.693276 43.655593,55.575992 43.795274,55.464036 43.9382,55.347446 A 0.246,0.246 0 0 1 44.150804,55.297773 0.252,0.252 0 0 1 44.322253,55.435088 C 44.969702,56.803447 44.225022,58.12585 43.56882,59.293538 43.456758,59.493028 43.344697,59.692518 43.24034,59.889633 43.180484,60.01087 43.117962,60.128513 43.055441,60.246158 A 0.249,0.249 0 0 1 42.875844,60.379368 0.3,0.3 0 0 1 42.833498,60.386835 0.252,0.252 0 0 1 42.612287,60.255249 7.545,7.545 0 0 1 41.579628,57.537276 0.3,0.3 0 0 1 41.564413,57.387644 Z"
     id="path11"
     style="fill:#000000" />
  <path
     d="M 76.119835,24.507637 A 0.25,0.25 0 0 1 76.191303,24.204624 C 79.259125,21.787176 82.015694,19.804379 84.448759,18.054294 Q 85.676965,17.170593 86.779686,16.369944 C 89.887978,14.095643 92.064868,12.430329 93.628894,11.118815 L 94.082009,10.734291 C 94.718999,10.20057 95.268229,9.7391883 95.720709,9.3222823 96.276089,8.7978753 96.713209,8.3745373 97.047389,8.0353553 L 97.203069,7.8759003 97.023459,8.0091103 C 96.634729,8.2807403 96.152019,8.6471283 95.550079,9.1147583 95.123559,9.4255433 94.640279,9.7828943 94.093609,10.183915 L 93.339762,10.740271 C 91.543798,12.072375 89.105523,13.792915 86.331293,15.733132 L 84.944583,16.702661 C 82.297401,18.551426 79.296068,20.643384 75.874324,23.328354 A 0.25,0.25 0 0 1 75.501566,23.252938 C 75.350991,22.97486 75.189001,22.706918 75.019018,22.445464 A 0.252,0.252 0 0 1 75.080296,22.107691 Q 78.217732,19.802866 81.36067,17.506209 C 87.063901,13.334475 92.963235,9.0195123 98.696959,4.6809493 A 0.25,0.25 0 0 1 98.973339,4.6647093 4.206,4.206 0 0 1 100.5008,7.5685853 0.25,0.25 0 0 1 100.40432,7.8161003 C 97.968169,9.6408543 95.534629,11.463118 93.106365,13.303746 A 0.387,0.387 0 0 0 92.939313,13.565733 0.489,0.489 0 0 0 93.051298,13.918649 0.252,0.252 0 0 1 93.106138,14.068401 C 93.138237,15.281254 91.845621,16.133664 90.805939,16.819624 A 9.3,9.3 0 0 0 89.879977,17.482486 C 88.067002,19.069415 86.187356,20.612251 84.291271,22.067613 82.351619,23.558073 80.344137,25.020892 78.40606,26.433903 L 77.716815,26.93622 A 0.247,0.247 0 0 1 77.613002,26.980927 0.262,0.262 0 0 1 77.524545,26.980277 0.253,0.253 0 0 1 77.359928,26.87019 18.879,18.879 0 0 1 76.161589,24.59471 Z"
     id="path12"
     style="fill:#000000" />
  <path
     d="M 72.690141,23.962922 A 0.251,0.251 0 0 1 72.791771,23.790657 C 73.184972,23.504024 73.578172,23.217391 73.960019,22.929713 A 0.254,0.254 0 0 1 74.15507,22.884151 0.25,0.25 0 0 1 74.320498,22.99308 18.3,18.3 0 0 1 75.535345,25.275803 18.583,18.583 0 0 0 76.66054,27.412882 0.25,0.25 0 0 1 76.597119,27.750017 C 76.23671,28.009544 75.887828,28.2711 75.488312,28.567986 A 0.246,0.246 0 0 1 75.382703,28.614025 0.262,0.262 0 0 1 75.260301,28.605144 0.248,0.248 0 0 1 75.100094,28.439446 11.79,11.79 0 0 0 72.746653,24.150965 0.248,0.248 0 0 1 72.690141,23.962922 Z"
     id="path13"
     style="fill:#000000" />
</svg>
