<?xml version="1.0" encoding="UTF-8" standalone="no"?>
<!-- Created with Inkscape (http://www.inkscape.org/) -->

<svg
   width="22.987"
   height="22.987"
   viewBox="0 0 22.987 22.987"
   version="1.1"
   id="svg1"
   inkscape:version="1.4.2 (ebf0e940d0, 2025-05-08)"
   sodipodi:docname="beachcombing.svg"
   xmlns:inkscape="http://www.inkscape.org/namespaces/inkscape"
   xmlns:sodipodi="http://sodipodi.sourceforge.net/DTD/sodipodi-0.dtd"
   xmlns="http://www.w3.org/2000/svg"
   xmlns:svg="http://www.w3.org/2000/svg">
  <sodipodi:namedview
     id="namedview1"
     pagecolor="#ffffff"
     bordercolor="#000000"
     borderopacity="0.25"
     inkscape:showpageshadow="2"
     inkscape:pageopacity="0.0"
     inkscape:pagecheckerboard="0"
     inkscape:deskcolor="#d1d1d1"
     inkscape:document-units="px"
     inkscape:zoom="11.620915"
     inkscape:cx="11.87514"
     inkscape:cy="27.149325"
     inkscape:window-width="2256"
     inkscape:window-height="1427"
     inkscape:window-x="0"
     inkscape:window-y="0"
     inkscape:window-maximized="1"
     inkscape:current-layer="svg1" />
  <defs
     id="defs1" />
  <path
     d="M 22.4435 21.3757 C 18.5245 20.1438 14.415 19.5898 10.3306 19.7138 L 13.0426 10.255 L 15.6636 11.0074 C 17.2346 5.07068 16.3664 0.91196 14.9773 0.51509 C 13.5883 0.11821 10.6448 3.17732 8.83398 9.0479 L 11.455 9.80032 L 8.58585 19.8048 C 5.8326 20.0197 3.09575 20.5406 0.449919 21.3757 C 0.011716 21.5163 -0.228076 21.9793 -0.087503 22.4092 C 0.053057 22.8474 0.516065 23.0872 0.946012 22.9467 C 7.74262 20.8052 15.1425 20.8052 21.9473 22.9467 C 22.3855 23.0872 22.8485 22.8392 22.9808 22.4092 C 23.1214 21.971 22.8733 21.508 22.4434 21.3757 Z"
     id="path1"
     style="fill:#000000;stroke-width:0.264583" />
  <path
     d="M 2.71565 7.28667 L 7.24664 8.58477 C 8.32979 5.07904 10.0991 1.73048 12.0671 0.01069 C 7.43687 -0.18775 3.29456 2.2679 2.14521 6.26147 C 2.02119 6.69967 2.26923 7.15444 2.7157 7.28673 Z"
     id="path2"
     style="fill:#000000;stroke-width:0.264583" />
  <path
     d="M 21.7905 12.7519 C 22.2287 12.8759 22.6835 12.6279 22.8158 12.1814 C 23.9568 8.18779 21.7409 3.91318 17.7143 1.62295 C 18.4668 4.11996 18.1939 7.8986 17.2596 11.4456 L 21.7906 12.7437 Z"
     id="path3"
     style="fill:#000000;stroke-width:0.264583" />
</svg>
