<?xml version="1.0" encoding="UTF-8" standalone="no"?>
<!-- Created with Inkscape (http://www.inkscape.org/) -->

<svg
   width="143.272"
   height="143.272"
   viewBox="0 0 143.27201 143.272"
   version="1.1"
   id="svg1"
   inkscape:version="1.4.2 (ebf0e940d0, 2025-05-08)"
   sodipodi:docname="bear.svg"
   xmlns:inkscape="http://www.inkscape.org/namespaces/inkscape"
   xmlns:sodipodi="http://sodipodi.sourceforge.net/DTD/sodipodi-0.dtd"
   xmlns="http://www.w3.org/2000/svg"
   xmlns:svg="http://www.w3.org/2000/svg">
  <sodipodi:namedview
     id="namedview1"
     pagecolor="#ffffff"
     bordercolor="#000000"
     borderopacity="0.25"
     inkscape:showpageshadow="2"
     inkscape:pageopacity="0.0"
     inkscape:pagecheckerboard="0"
     inkscape:deskcolor="#d1d1d1"
     inkscape:document-units="mm"
     inkscape:zoom="1.0271535"
     inkscape:cx="186.43757"
     inkscape:cy="242.9043"
     inkscape:window-width="2256"
     inkscape:window-height="1427"
     inkscape:window-x="0"
     inkscape:window-y="0"
     inkscape:window-maximized="1"
     inkscape:current-layer="svg1" />
  <defs
     id="defs1" />
  <path
     d="M 636.46806,687.51792 C 612.13563,682.15232 597.20299,668.92574 569.83756,628.5 565.74212,622.45 560.39256,614.2375 557.94963,610.25 555.5067,606.2625 553.27397,603.03235 552.988,603.0719 552.70203,603.1114 550.47334,607.20912 548.03535,612.17786 545.59735,617.1466 539.29735,627.78812 534.03535,635.82568 525.8066,648.39485 524.46806,651.02359 524.46806,654.61473 524.46806,661.42942 527.20972,663.36385 543.96806,668.37338 555.80464,671.91166 563.96806,678.43898 563.96806,684.36502 563.96806,686.5691 553.27196,687.24408 524.96806,686.82615 496.0591,686.39928 496.36032,686.49164 485.31858,674.66826 476.54749,665.27626 471.07571,657.36478 469.90448,652.38149 468.71406,647.31655 469.34328,643.11619 474.53057,621.5 476.9063,611.6 480.45005,595.625 482.40558,586 484.3611,576.375 486.19425,567.49535 486.47924,566.26745 L 486.9974,564.0349 464.23273,564.52049 C 438.56248,565.06807 438.97428,564.95199 433.36007,573.22238 430.45603,577.50036 427.74249,585.12344 419.92502,610.96513 418.1838,616.72095 414.74619,625.94595 412.28588,631.46513 409.82379,636.98831 407.56989,643.76309 407.27276,646.53356 406.7959,650.98001 407.05214,651.94647 409.46961,654.81947 412.79819,658.77526 415.09989,660.00403 427.44869,664.41767 442.21956,669.69698 451.27637,676.29154 452.55821,682.70074 L 453.18388,685.82912 447.82597,686.49128 C 444.87912,686.85546 429.15653,687.00641 412.88689,686.82672 L 383.30572,686.5 378.40517,683.46852 C 373.19171,680.24348 363.94382,669.91129 356.18733,658.64569 L 351.46806,651.79137 350.84617,633.64569 C 350.50413,623.66556 350.16663,615.36067 350.09617,615.19037 350.02567,615.02008 346.19187,617.94508 341.57653,621.69037 336.96119,625.43567 330.01178,630.93309 326.1334,633.90686 322.25502,636.88063 317.65057,641.30668 315.90129,643.74251 311.9673,649.22049 309.61763,656.4767 310.96347,658.99142 312.49547,661.85398 317.78195,665.87787 324.36707,669.19377 327.72262,670.88344 332.40674,673.59569 334.77623,675.22101 339.06481,678.16268 343.01639,684.28472 341.56427,685.73744 341.14504,686.15685 327.90189,686.5 312.13505,686.5 284.4512,686.5 283.32598,686.424 279.32523,684.28435 273.36815,681.09841 267.72029,673.9977 261.71479,662.14381 L 256.46806,651.78762 256.53556,641.64381 C 256.58896,633.61689 257.07932,630.24788 258.88533,625.5 266.24963,606.13982 265.75624,608.53018 281.41313,516.35767 285.53716,492.07938 289.37316,470.15476 289.93756,467.63628 294.12695,448.94236 307.62898,427.01396 326.3705,408.46619 346.64061,388.40564 369.42958,376.73768 400.4681,370.52821 420.56396,366.50789 434.30256,365.86412 492.9681,366.19376 L 547.4681,366.5 558.24239,361.27087 C 574.1809,353.53538 578.33291,352.48592 592.4681,352.62002 603.66189,352.72621 606.09762,353.14531 628.72254,358.85807 655.24346,365.55456 663.54846,366.75351 687.25161,367.30757 L 703.03511,367.67651 708.75161,363.20594 C 715.37423,358.0267 719.65769,356 723.9814,356 727.99407,356 731.62457,359.65214 732.558,364.62772 733.20674,368.08581 732.17257,375.90008 730.51342,380.07671 730.06464,381.20644 731.53135,382.8068 735.6873,385.72203 745.13517,392.34934 758.40881,404.44022 761.7131,409.4288 763.54321,412.19176 765.06596,416.07641 765.46975,419.01227 766.37234,425.57488 769.52669,429.78658 785.11567,445.24359 792.18448,452.25257 797.96806,458.76226 797.96806,459.70959 797.96806,462.29172 784.18691,475.25611 778.46806,478.05389 773.5899,480.44039 772.71267,480.51482 742.46806,481.10828 707.44702,481.79547 711.47781,481.13848 672.10577,492.57709 659.80651,496.15035 648.08342,499.92083 646.05445,500.95593 639.9921,504.04871 634.19872,510.72964 629.69852,519.81761 625.59853,528.09736 625.4693,528.65597 625.5084,537.93042 625.5368,544.66648 626.34278,550.90511 628.23047,559 632.18933,575.9767 634.70479,592.31532 636.42328,612.21471 637.63344,626.22783 638.58112,631.88994 640.9586,639.31192 645.80789,654.45041 650.9069,659.59516 662.96806,661.51879 670.4895,662.71838 681.00433,669.23568 683.63936,674.33125 684.97732,676.91859 684.94512,677.36815 683.29076,679.19901 676.13957,687.11315 653.15292,691.19715 636.46806,687.51792 Z"
     fill="#000000"
     id="path1"
     transform="matrix(-0.26458333,0,0,0.26458333,211.12911,-66.144822)" />
</svg>
