<?xml version="1.0" encoding="UTF-8" standalone="no"?>
<!-- Created with Inkscape (http://www.inkscape.org/) -->

<svg
   width="29.114"
   height="29.114"
   viewBox="0 0 29.114001 29.114"
   version="1.1"
   id="svg1"
   inkscape:version="1.4.2 (ebf0e940d0, 2025-05-08)"
   sodipodi:docname="bearhide.svg"
   xmlns:inkscape="http://www.inkscape.org/namespaces/inkscape"
   xmlns:sodipodi="http://sodipodi.sourceforge.net/DTD/sodipodi-0.dtd"
   xmlns="http://www.w3.org/2000/svg"
   xmlns:svg="http://www.w3.org/2000/svg">
  <sodipodi:namedview
     id="namedview1"
     pagecolor="#ffffff"
     bordercolor="#000000"
     borderopacity="0.25"
     inkscape:showpageshadow="2"
     inkscape:pageopacity="0.0"
     inkscape:pagecheckerboard="0"
     inkscape:deskcolor="#d1d1d1"
     inkscape:document-units="px"
     inkscape:zoom="9.6083333"
     inkscape:cx="8.0138769"
     inkscape:cy="40.017346"
     inkscape:window-width="2256"
     inkscape:window-height="1427"
     inkscape:window-x="0"
     inkscape:window-y="0"
     inkscape:window-maximized="1"
     inkscape:current-layer="svg1" />
  <defs
     id="defs1" />
  <path
     d="M 23.220001,16.119872 C 23.220001,13.328872 25.034001,10.983872 27.541001,10.134872 27.708001,10.077872 27.811001,9.909872 27.784001,9.735872 27.545001,8.161872 27.253001,6.582872 26.913001,5.130872 26.889001,5.028872 26.822001,4.942872 26.730001,4.892872 26.637001,4.843872 26.528001,4.835872 26.430001,4.871872 25.894001,5.071872 25.317001,5.188872 24.710001,5.188872 21.943001,5.188872 19.702001,2.947872 19.702001,0.18087192 19.702001,0.01487192 19.703001,0.11587192 19.705001,0.08287192 19.713001,-0.01812808 19.678001,0.09287192 19.608001,0.01887192 19.538001,-0.05512808 19.445001,0.11387192 19.343001,0.11387192 H 9.7710011 C 9.6690011,0.11387192 9.5740011,-0.05312808 9.5050011,0.01887192 9.4360011,0.09287192 9.4000011,0.08787192 9.4070011,0.18887192 9.4100011,0.22087192 9.4120011,0.20187192 9.4120011,0.23387192 9.4120011,3.000872 7.1700011,5.213872 4.4040011,5.213872 3.9110011,5.213872 3.2540011,5.082872 2.6800011,4.878872 2.5830011,4.843872 2.4740011,4.846872 2.3830011,4.895872 2.2920011,4.945872 2.2270011,5.029872 2.2020011,5.129872 1.8820011,6.501872 1.5890011,8.033872 1.3310011,9.737872 1.3040011,9.912872 1.4070011,10.079872 1.5740011,10.136872 4.0800011,10.984872 5.8940011,13.328872 5.8940011,16.119872 5.8940011,19.018872 3.9450011,21.452872 1.2890011,22.210872 1.1070011,22.262872 0.9960011,22.443872 1.0320011,22.630872 1.3750011,24.378872 1.9090011,26.024872 2.6000011,27.532872 2.6870011,27.722872 2.8610011,27.859872 3.0670011,27.898872 3.2730011,27.937872 3.4850011,27.875872 3.6360011,27.729872 4.8640011,26.551872 6.5290011,25.827872 8.3650011,25.827872 10.719001,25.827872 12.793001,27.018872 14.022001,28.830872 14.143001,29.007872 14.343001,29.113872 14.558001,29.113872 14.772001,29.113872 14.973001,29.008872 15.094001,28.830872 16.322001,27.018872 18.395001,25.827872 20.750001,25.827872 22.587001,25.827872 24.251001,26.552872 25.479001,27.729872 25.629001,27.875872 25.842001,27.937872 26.048001,27.898872 26.253001,27.859872 26.428001,27.722872 26.515001,27.532872 27.205001,26.023872 27.740001,24.378872 28.082001,22.629872 28.118001,22.443872 28.007001,22.262872 27.824001,22.210872 25.170001,21.452872 23.220001,19.018872 23.220001,16.119872 Z"
     id="path1" />
</svg>
