<?xml version="1.0" encoding="UTF-8" standalone="no"?>
<!-- Created with Inkscape (http://www.inkscape.org/) -->

<svg
   width="99"
   height="99"
   viewBox="0 0 99 99"
   version="1.1"
   id="svg1"
   inkscape:version="1.4.2 (ebf0e940d0, 2025-05-08)"
   sodipodi:docname="bearcoat.svg"
   xmlns:inkscape="http://www.inkscape.org/namespaces/inkscape"
   xmlns:sodipodi="http://sodipodi.sourceforge.net/DTD/sodipodi-0.dtd"
   xmlns="http://www.w3.org/2000/svg"
   xmlns:svg="http://www.w3.org/2000/svg">
  <sodipodi:namedview
     id="namedview1"
     pagecolor="#ffffff"
     bordercolor="#000000"
     borderopacity="0.25"
     inkscape:showpageshadow="2"
     inkscape:pageopacity="0.0"
     inkscape:pagecheckerboard="0"
     inkscape:deskcolor="#d1d1d1"
     inkscape:document-units="px"
     inkscape:zoom="16"
     inkscape:cx="48.59375"
     inkscape:cy="53.71875"
     inkscape:window-width="2256"
     inkscape:window-height="1427"
     inkscape:window-x="0"
     inkscape:window-y="0"
     inkscape:window-maximized="1"
     inkscape:current-layer="svg1"
     showgrid="true">
    <inkscape:grid
       id="grid1"
       units="px"
       originx="0"
       originy="-15.896484"
       spacingx="1"
       spacingy="1"
       empcolor="#0099e5"
       empopacity="0.30196078"
       color="#0099e5"
       opacity="0.14901961"
       empspacing="10"
       enabled="true"
       visible="true" />
  </sodipodi:namedview>
  <defs
     id="defs1" />
  <path
     id="path2"
     style="fill:#000000"
     d="M 40.369141 6.5898438 C 36.678475 6.7726818 33.221137 7.155037 29.806641 7.953125 C 29.548564 7.9063678 29.279336 7.8668362 29 7.8339844 L 29 33.179688 C 29.103762 33.291572 29.199843 33.414204 29.287109 33.548828 C 29.551109 33.952828 29.802969 34.360813 30.042969 34.757812 L 30.152344 34.951172 C 30.275344 36.336172 29.659977 38.853086 30.28125 41.316406 C 26.799145 54.731591 23.4177 95.265216 35 92.820312 C 48 92.820312 49.515625 92.810205 50 92.820312 C 50.515625 92.814115 50 92.820314 63 92.820312 C 74.5823 95.265216 72.200855 54.731591 68.71875 41.316406 C 69.340023 38.853086 68.724656 36.336172 68.847656 34.951172 L 68.957031 34.757812 C 69.197031 34.360813 69.448891 33.952828 69.712891 33.548828 C 69.800157 33.414204 69.896238 33.291572 70 33.179688 L 70 7.8339844 C 69.720664 7.8668361 69.451436 7.9063678 69.193359 7.953125 C 65.969977 7.199707 62.70993 6.8154716 59.25 6.6210938 L 59.25 8.5253906 C 59.25 8.7588986 59.361206 8.9753531 59.544922 9.1113281 C 60.816088 11.071228 62.071269 33.93027 62.566406 47.941406 C 62.566406 49.317402 62.027907 50.568985 61.15625 51.503906 L 61.556641 49.273438 C 61.627435 48.876945 61.363292 48.498881 60.966797 48.427734 C 60.569856 48.355162 60.191929 48.619801 60.121094 49.015625 L 59.457031 52.720703 C 59.020449 52.9155 58.551951 53.048532 58.0625 53.117188 L 58.0625 47.625 C 58.0625 47.222101 57.736538 46.896484 57.333984 46.896484 C 56.931358 46.896484 56.605469 47.222101 56.605469 47.625 L 56.605469 53.117188 C 56.115945 53.048533 55.647558 52.913503 55.210938 52.71875 L 54.546875 49.015625 C 54.475724 48.619801 54.098777 48.353695 53.701172 48.427734 C 53.304596 48.498881 53.040452 48.876946 53.111328 49.273438 L 53.511719 51.503906 C 52.640118 50.568985 52.101562 49.317357 52.101562 47.941406 L 52.101562 21.880859 C 52.101562 21.477916 51.775674 21.152344 51.373047 21.152344 L 48.244141 21.152344 C 47.841595 21.152344 47.515625 21.477916 47.515625 21.880859 L 47.515625 47.941406 C 47.515625 49.317402 46.977037 50.568985 46.105469 51.503906 L 46.505859 49.273438 C 46.576653 48.876945 46.312511 48.49888 45.916016 48.427734 C 45.51944 48.355162 45.141536 48.6198 45.070312 49.015625 L 44.40625 52.720703 C 43.969676 52.915501 43.501162 53.048532 43.011719 53.117188 L 43.011719 47.625 C 43.011719 47.222102 42.685749 46.896484 42.283203 46.896484 C 41.880577 46.896484 41.554688 47.222102 41.554688 47.625 L 41.554688 53.117188 C 41.065247 53.048532 40.596648 52.915145 40.160156 52.720703 L 39.496094 49.015625 C 39.424855 48.6198 39.044391 48.354405 38.650391 48.427734 C 38.253815 48.49888 37.991617 48.876946 38.0625 49.273438 L 38.462891 51.507812 C 37.590569 50.576051 37.051 49.332956 37.050781 47.96875 C 37.546283 33.931941 38.803143 11.071228 40.074219 9.1113281 C 40.257936 8.9753531 40.369141 8.7588996 40.369141 8.5253906 L 40.369141 6.5898438 z M 98.625 26.939453 L 98.625 27.460938 C 98.754125 27.545773 98.879194 27.632457 99 27.722656 C 98.900475 27.452483 98.774716 27.19101 98.625 26.939453 z M 93.210938 37.210938 C 93.19792 37.294761 93.183295 37.377838 93.167969 37.458984 C 93.23064 37.380905 93.290615 37.297762 93.347656 37.210938 L 93.210938 37.210938 z " />
  <path
     d="M 32.081648,12.147525 C 33.621324,15.457447 34.406752,18.977627 34.397648,22.527525 34.292336,24.85257 33.597068,27.132637 32.357648,29.217525 31.01036,31.634133 29.968742,34.161096 29.249648,36.757525 28.781795,38.707047 28.028144,40.601251 27.005648,42.397525 27.005648,42.457525 26.909648,42.527525 26.921648,42.587525 27.173648,43.587525 26.477648,44.487525 26.549648,45.487525 26.609648,46.307525 26.441648,47.137525 26.405648,47.967525 26.309648,49.657525 26.213648,51.337525 26.153648,53.027525 26.081648,55.617525 26.045648,58.197525 25.985648,60.847525 25.504614,61.299339 19.620158,62.708118 16.829648,61.197525 V 60.377525 C 16.949648,56.777525 17.069648,53.187525 17.165648,49.587525 17.197831,48.706275 17.157738,47.824221 17.045648,46.947525 16.742548,44.381555 17.035901,41.790951 17.909648,39.317525 19.529648,34.537525 21.101648,29.737525 22.853648,24.977525 24.068288,22.171271 25.611743,19.471565 27.461648,16.917525 28.44387,15.302024 29.764631,13.8458 31.361648,12.617525 Z M 25.373648,44.667525 C 24.498388,43.951427 23.509122,43.339024 22.433648,42.847525 22.361648,43.357525 24.389648,44.567525 25.373648,44.667525 Z"
     id="path22"
     style="fill:#000000;stroke-width:1.09545" />
  <path
     d="M 66.590587,12.18934 C 65.050911,15.499262 64.265483,19.019442 64.274587,22.56934 64.379899,24.894385 65.075167,27.174452 66.314587,29.25934 67.661875,31.675948 68.703493,34.202911 69.422587,36.79934 69.89044,38.748862 70.644091,40.643066 71.666587,42.43934 71.666587,42.49934 71.762587,42.56934 71.750587,42.62934 71.498587,43.62934 72.194587,44.52934 72.122587,45.52934 72.062587,46.34934 72.230587,47.17934 72.266587,48.00934 72.362587,49.69934 72.458587,51.37934 72.518587,53.06934 72.590587,55.65934 72.626587,58.23934 72.686587,60.88934 73.167621,61.341154 79.052077,62.749933 81.842587,61.23934 V 60.41934 C 81.722587,56.81934 81.602587,53.22934 81.506587,49.62934 81.474404,48.74809 81.514497,47.866036 81.626587,46.98934 81.929687,44.42337 81.636334,41.832766 80.762587,39.35934 79.142587,34.57934 77.570587,29.77934 75.818587,25.01934 74.603947,22.213086 73.060492,19.51338 71.210587,16.95934 70.228365,15.343839 68.907604,13.887615 67.310587,12.65934 Z M 73.298587,44.70934 C 74.173847,43.993242 75.163113,43.380839 76.238587,42.88934 76.310587,43.39934 74.282587,44.60934 73.298587,44.70934 Z"
     id="path22-2"
     style="fill:#000000;stroke-width:1.09545" />
  <path
     id="path2-2"
     style="fill:#000000;stroke-width:0.83666"
     d="M 27.589062,7.7226563 C 27.088901,7.7241043 26.561832,7.7658303 26.01543,7.8496093 25.29863,7.9606093 24.604711,8.1323283 23.953711,8.3613283 21.989511,7.7963283 19.946725,8.1236723 18.828125,9.2636723 19.756325,9.0036733 20.884124,8.9935633 22.061524,9.2265633 21.337724,9.6525633 20.726109,10.145922 20.274609,10.669922 19.343609,11.083923 18.54772,11.700031 18.02832,12.457031 15.402641,12.431031 12.79057,13.79425 11.59707,15.90625 13.09787,14.857251 15.165331,14.276609 17.299609,14.349609 16.907609,14.589609 16.571434,14.990094 16.315234,15.496094 15.025156,15.052094 13.540424,15.264313 12.261524,16.070312 13.319924,16.049312 14.401107,16.349609 15.366406,16.974609 L 15.324024,17.039062 C 13.137924,17.001062 11.144334,18.340453 10.102734,20.439453 11.183534,19.744453 12.48397,19.347938 13.87207,19.335938 13.85527,19.383937 13.838918,19.434328 13.824218,19.486328 11.930018,19.702328 10.419134,21.037046 9.9277342,22.748047 10.554934,22.164047 11.351589,21.699016 12.258789,21.416016 11.455889,22.424016 10.834289,23.624516 10.508789,24.853516 9.6477888,25.536516 9.0017,26.552656 8.7,27.722656 9.4819007,26.888656 10.519475,26.276624 11.696875,26.015625 10.245775,27.868624 9.2881967,30.1575 9.3042967,31.9375 9.7732974,30.640501 10.581841,29.240124 11.606641,27.953125 10.655341,30.749124 10.231665,33.614438 10.447266,35.898438 10.884065,33.943438 11.577142,31.864984 12.485742,29.833984 11.822142,32.774984 11.936822,35.953984 12.782422,37.458984 12.499622,35.319984 12.778801,32.228094 13.604101,29.371094 L 13.605468,29.369141 V 29.367188 C 13.605945,29.36639 13.60758,29.364072 13.608203,29.363281 13.617424,29.353859 13.639167,29.342984 13.666992,29.333984 13.210592,31.678984 13.330719,34.275328 13.911718,36.611328 15.258869,37.174728 21.195801,33.337931 25.037891,33.957031 26.02005,32.209232 28.009765,31.65433 29,33.179688 V 7.8339843 C 28.562479,7.7604773 28.089224,7.7212093 27.589062,7.7226563 Z" />
  <path
     d="M 59.818111,23.535811 C 59.857477,23.450518 59.890282,23.358664 59.923087,23.273371 59.955892,23.188078 59.975575,23.142151 60.001819,23.076541 A 3.982527,3.982527 0 0 0 60.126478,21.272266 C 60.126478,21.186973 60.126478,21.10168 60.087112,21.016387 60.047746,20.931094 60.087112,20.950777 60.087112,20.917972 A 3.798819,3.798819 0 0 0 59.719696,19.973188 C 59.667208,19.874773 59.595037,19.782919 59.535988,19.684504 59.476939,19.586089 59.463817,19.559845 59.41789,19.507357 59.371963,19.454869 59.280109,19.343332 59.207938,19.2646 59.135767,19.185868 59.109523,19.146502 59.057035,19.087453 59.004547,19.028404 58.919254,18.969355 58.853644,18.910306 58.788034,18.851257 58.715863,18.779086 58.637131,18.720037 A 3.890673,3.890673 0 0 0 57.757957,18.234523 L 57.659542,18.188596 C 57.561127,18.14923 57.456151,18.129547 57.357736,18.103303 L 57.12154,18.037693 V 18.037693 A 4.185918,4.185918 0 0 0 56.629465,17.965522 H 55.973365 L 55.638754,18.004888 H 55.500973 A 3.9366,3.9366 0 0 0 55.054825,18.122986 H 55.008898 A 3.890673,3.890673 0 0 0 54.62836,18.273889 L 54.49714,18.339499 54.228139,18.490402 54.096919,18.575695 53.84104,18.765964 53.729503,18.851257 A 3.982527,3.982527 0 0 0 53.401453,19.159624 V 19.159624 A 1.207224,1.207224 0 0 1 53.158696,19.356454 L 53.073403,19.402381 A 1.266273,1.266273 0 0 1 52.863451,19.487674 H 52.771597 A 1.3122,1.3122 0 0 1 52.489474,19.52704 H 52.456669 A 1.364688,1.364688 0 0 1 52.06957,19.566406 V 19.566406 A 9.670914,9.670914 0 0 0 47.260355,19.566406 V 19.566406 A 1.364688,1.364688 0 0 1 46.925744,19.605772 H 46.892939 A 1.3122,1.3122 0 0 1 46.610816,19.566406 H 46.518962 A 1.253151,1.253151 0 0 1 46.30901,19.481113 L 46.223717,19.435186 A 1.207224,1.207224 0 0 1 45.98096,19.238356 V 19.238356 A 3.975966,3.975966 0 0 0 45.65291,18.929989 L 45.541373,18.844696 45.285494,18.654427 45.154274,18.569134 44.911517,18.41167 44.780297,18.34606 A 3.9366,3.9366 0 0 0 44.40632,18.195157 H 44.360393 A 3.9366,3.9366 0 0 0 43.914245,18.077059 H 43.776464 L 43.441853,18.037693 H 42.785753 A 4.19904,4.19904 0 0 0 42.293678,18.109864 V 18.109864 L 42.057482,18.175474 C 41.952506,18.175474 41.854091,18.227962 41.755676,18.260767 L 41.657261,18.306694 A 3.890673,3.890673 0 0 0 40.778087,18.792208 C 40.699355,18.851257 40.633745,18.916867 40.561574,18.982477 40.489403,19.048087 40.423793,19.094014 40.358183,19.159624 40.292573,19.225234 40.253207,19.277722 40.20728,19.336771 40.161353,19.39582 40.062938,19.494235 39.997328,19.579528 39.931718,19.664821 39.918596,19.697626 39.87923,19.756675 39.839864,19.815724 39.74801,19.940383 39.695522,20.045359 A 3.798819,3.798819 0 0 0 39.328106,20.990143 C 39.328106,21.022948 39.328106,21.055753 39.328106,21.088558 39.328106,21.121363 39.328106,21.259144 39.28874,21.344437 A 3.982527,3.982527 0 0 0 39.413399,23.148712 C 39.413399,23.214322 39.465887,23.279932 39.492131,23.345542 39.518375,23.411152 39.557741,23.522689 39.597107,23.607982 A 3.9366,3.9366 0 0 0 39.990767,24.264082 3.424842,3.424842 0 0 1 40.646867,26.770384 7.8732,7.8732 0 0 0 40.574696,27.852949 7.965054,7.965054 0 0 0 40.627184,28.771489 C 40.627184,28.863343 40.627184,28.948636 40.673111,29.033929 40.673111,29.243881 40.738721,29.453833 40.784648,29.690029 40.784648,29.781883 40.837136,29.873737 40.86338,29.965591 40.915868,30.162421 40.974917,30.359251 41.040527,30.556081 41.040527,30.641374 41.106137,30.726667 41.138942,30.805399 41.217674,31.002229 41.302967,31.199059 41.394821,31.389328 L 41.506358,31.59928 C 41.611334,31.802671 41.722871,31.999501 41.84753,32.18977 L 41.952506,32.353795 Q 42.155897,32.662162 42.385532,32.950846 L 42.477386,33.062383 Q 42.733265,33.377311 43.021949,33.665995 L 43.074437,33.725044 A 9.027936,9.027936 0 0 0 43.730537,34.328656 9.690597,9.690597 0 0 0 55.74373,34.328656 C 55.979926,34.138387 56.203,33.934996 56.39983,33.725044 L 56.452318,33.665995 Q 56.741002,33.377311 56.996881,33.062383 L 57.05593,32.84587 Q 57.285565,32.557186 57.488956,32.248819 L 57.593932,32.084794 C 57.718591,31.894525 57.830128,31.697695 57.935104,31.494304 L 58.046641,31.284352 C 58.138495,31.094083 58.223788,30.897253 58.30252,30.700423 58.335325,30.61513 58.374691,30.536398 58.400935,30.451105 58.473106,30.260836 58.525594,30.057445 58.578082,29.860615 58.578082,29.768761 58.63057,29.676907 58.656814,29.585053 58.702741,29.381662 58.735546,29.165149 58.768351,28.928953 58.768351,28.837099 58.801156,28.751806 58.814278,28.666513 A 7.965054,7.965054 0 0 0 58.866766,27.747973 7.827273,7.827273 0 0 0 58.781473,26.645725 V 26.645725 A 3.437964,3.437964 0 0 1 59.437573,24.152545 3.9366,3.9366 0 0 0 59.818111,23.535811 Z M 45.744764,28.45 A 0.6561,0.6561 0 1 1 46.400864,27.7939 0.6561,0.6561 0 0 1 45.744764,28.45 Z M 50.829541,29.932786 A 1.620567,1.620567 0 0 1 48.533189,29.932786 0.872613,0.872613 0 0 1 49.149923,28.443439 H 50.206244 A 0.872613,0.872613 0 0 1 50.829541,29.932786 Z M 53.617966,28.45 A 0.6561,0.6561 0 1 1 54.274066,27.7939 0.6561,0.6561 0 0 1 53.617966,28.45 Z"
     id="path1"
     style="stroke-width:0.6561;fill:#000000" />
  <path
     style="fill:#000000;stroke:#ffffff;stroke-width:0;stroke-linecap:round;stroke-linejoin:round;stroke-miterlimit:3.9;paint-order:stroke fill markers"
     d="M 46.0625,6.404307 C 41.783161,7.448044 44.659361,15.679545 50.0625,15.591807 55.799958,15.49864 58.075965,7.622596 53.8125,6.529307 51.626965,5.968866 48.034141,5.923421 46.0625,6.404307 Z"
     id="path3" />
  <path
     id="path4"
     style="fill:#000000;stroke-width:0.83666"
     d="M 71.409962,7.7246086 C 71.910123,7.7260566 72.437192,7.7677826 72.983594,7.8515616 73.700394,7.9625616 74.394313,8.1342806 75.045313,8.3632806 77.009513,7.7982806 79.052299,8.1256246 80.170899,9.2656246 79.242699,9.0056256 78.1149,8.9955156 76.9375,9.2285156 77.6613,9.6545156 78.272915,10.147874 78.724415,10.671875 79.655415,11.085876 80.451304,11.701984 80.970704,12.458984 83.596383,12.432984 86.208454,13.796203 87.401954,15.908203 85.901154,14.859204 83.833693,14.278562 81.699415,14.351562 82.091415,14.591562 82.42759,14.992047 82.68379,15.498047 83.973868,15.054047 85.4586,15.266266 86.7375,16.072265 85.6791,16.051265 84.597917,16.351562 83.632618,16.976562 L 83.675,17.041015 C 85.8611,17.003015 87.85469,18.342406 88.89629,20.441406 87.81549,19.746406 86.515054,19.349891 85.126954,19.337891 85.143754,19.38589 85.160106,19.436281 85.174806,19.488281 87.069006,19.704281 88.57989,21.038999 89.07129,22.75 88.44409,22.166 87.647435,21.700969 86.740235,21.417969 87.543135,22.425969 88.164735,23.626469 88.490235,24.855469 89.351235,25.538469 89.997324,26.554609 90.299024,27.724609 89.517123,26.890609 88.479549,26.278577 87.302149,26.017578 88.753249,27.870577 89.710827,30.159453 89.694727,31.939453 89.225727,30.642454 88.417183,29.242077 87.392383,27.955078 88.343683,30.751077 88.767359,33.616391 88.551758,35.900391 88.114959,33.945391 87.421882,31.866937 86.513282,29.835937 87.176882,32.776937 87.062202,35.955937 86.216602,37.460937 86.499402,35.321937 86.220223,32.230047 85.394923,29.373047 L 85.393556,29.371094 V 29.369141 C 85.393079,29.368343 85.391444,29.366025 85.390821,29.365234 85.3816,29.355812 85.359857,29.344937 85.332032,29.335937 85.788432,31.680937 85.668305,34.277281 85.087306,36.613281 83.740155,37.176681 77.803223,33.339884 73.961133,33.958984 72.978974,32.211185 70.989259,31.656283 69.999024,33.181641 V 7.8359366 C 70.436545,7.7624296 70.9098,7.7231616 71.409962,7.7246086 Z" />
</svg>
