<?xml version="1.0" encoding="UTF-8" standalone="no"?>
<!-- Created with Inkscape (http://www.inkscape.org/) -->

<svg
   width="99"
   height="99"
   viewBox="0 0 99 99"
   version="1.1"
   id="svg1"
   inkscape:version="1.4.2 (ebf0e940d0, 2025-05-08)"
   sodipodi:docname="bearcoat.svg"
   xmlns:inkscape="http://www.inkscape.org/namespaces/inkscape"
   xmlns:sodipodi="http://sodipodi.sourceforge.net/DTD/sodipodi-0.dtd"
   xmlns="http://www.w3.org/2000/svg"
   xmlns:svg="http://www.w3.org/2000/svg">
  <sodipodi:namedview
     id="namedview1"
     pagecolor="#ffffff"
     bordercolor="#000000"
     borderopacity="0.25"
     inkscape:showpageshadow="2"
     inkscape:pageopacity="0.0"
     inkscape:pagecheckerboard="0"
     inkscape:deskcolor="#d1d1d1"
     inkscape:document-units="px"
     inkscape:zoom="8"
     inkscape:cx="67.375"
     inkscape:cy="49.1875"
     inkscape:window-width="2256"
     inkscape:window-height="1427"
     inkscape:window-x="0"
     inkscape:window-y="0"
     inkscape:window-maximized="1"
     inkscape:current-layer="svg1"
     showgrid="true">
    <inkscape:grid
       id="grid1"
       units="px"
       originx="0"
       originy="-15.896484"
       spacingx="1"
       spacingy="1"
       empcolor="#0099e5"
       empopacity="0.30196078"
       color="#0099e5"
       opacity="0.14901961"
       empspacing="10"
       enabled="true"
       visible="true" />
  </sodipodi:namedview>
  <defs
     id="defs1" />
  <path
     id="path2"
     style="fill:#000000"
     d="M 40.369141,12.872545 C 36.678475,13.055383 33.221137,13.437739 29.806641,14.235827 28.393641,13.979826 26.646328,13.927311 24.736328,14.132311 23.712328,14.243311 22.721016,14.41503 21.791016,14.64403 18.985016,14.07903 16.06675,14.406373 14.46875,15.546373 15.79475,15.286374 17.405891,15.276264 19.087891,15.509264 18.053891,15.935264 17.180156,16.428623 16.535156,16.952623 15.205156,17.366624 14.068172,17.982733 13.326172,18.739733 9.5752016,18.713733 5.8436719,20.076952 4.1386719,22.188952 6.2826719,21.139953 9.2361869,20.559311 12.285156,20.632311 11.725156,20.872311 11.244906,21.272795 10.878906,21.778795 9.0359369,21.334795 6.9148906,21.547014 5.0878906,22.353014 6.5998906,22.332014 8.1444375,22.632311 9.5234375,23.257311 L 9.4628906,23.321764 C 6.3398906,23.283764 3.4919063,24.623155 2.0039062,26.722155 3.5479065,26.027155 5.4056719,25.630639 7.3886719,25.618639 7.3646719,25.666639 7.3413125,25.71703 7.3203125,25.76903 4.6143125,25.98503 2.4559062,27.319748 1.7539062,29.030749 2.6499063,28.446749 3.7879844,27.981717 5.0839844,27.698717 3.9369844,28.706717 3.0489844,29.907217 2.5839844,31.136217 1.3539844,31.819217 0.431,32.835358 0,34.005358 1.117001,33.171358 2.59925,32.559326 4.28125,32.298327 2.20825,34.151326 0.84028125,36.440202 0.86328125,38.220202 1.5332822,36.923203 2.6883437,35.522826 4.1523438,34.235827 2.7933436,37.031826 2.1880935,39.897139 2.4960938,42.181139 3.1200935,40.226139 4.1102031,38.147686 5.4082031,36.116686 4.4602031,39.057686 4.6240313,42.236686 5.8320312,43.741686 5.4280313,41.602686 5.8268594,38.510795 7.0058594,35.653795 L 7.0078125,35.651842 V 35.649889 C 7.0084932,35.649091 7.0108278,35.646774 7.0117188,35.645983 7.0248906,35.636561 7.0559531,35.625686 7.0957031,35.616686 6.4437031,37.961686 6.6153125,40.55803 7.4453125,42.89403 9.3698125,43.45743 17.851144,39.620633 23.339844,40.239733 24.845844,38.363733 28.010109,37.86153 29.287109,39.83153 29.551109,40.23553 29.802969,40.643514 30.042969,41.040514 L 30.152344,41.233873 C 30.275344,42.618873 29.659977,45.135788 30.28125,47.599108 26.799145,61.014293 23.507544,88.419008 35.089844,85.974108 38.431844,84.693108 37.507359,84.427561 41.818359,83.663561 42.549118,83.447842 44.588398,83.283674 44.771484,82.739733 46.502443,83.723654 47.144863,84.227501 49.285156,84.220202 49.356722,84.220407 49.428357,84.219861 49.5,84.218249 49.571643,84.219863 49.643278,84.220407 49.714844,84.220202 51.855137,84.227501 52.497557,83.723654 54.228516,82.739733 54.411602,83.283674 56.450882,83.447842 57.181641,83.663561 61.492641,84.427561 60.568156,84.693108 63.910156,85.974108 75.492456,88.419008 72.200855,61.014293 68.71875,47.599108 69.340023,45.135788 68.724656,42.618873 68.847656,41.233873 L 68.957031,41.040514 C 69.197031,40.643514 69.448891,40.23553 69.712891,39.83153 70.989891,37.86153 74.154156,38.363733 75.660156,40.239733 81.148856,39.620633 89.630186,43.45743 91.554688,42.89403 92.384687,40.55803 92.556297,37.961686 91.904297,35.616686 91.944047,35.625686 91.975111,35.636561 91.988281,35.645983 91.989171,35.646774 91.991506,35.649091 91.992188,35.649889 V 35.651842 L 91.994141,35.653795 C 93.173141,38.510795 93.571969,41.602686 93.167969,43.741686 94.375969,42.236686 94.539797,39.057686 93.591797,36.116686 94.889797,38.147686 95.879906,40.226139 96.503906,42.181139 96.811906,39.897139 96.206656,37.031826 94.847656,34.235827 96.311656,35.522826 97.466719,36.923203 98.136719,38.220202 98.159719,36.440202 96.79175,34.151326 94.71875,32.298327 96.40075,32.559326 97.883,33.171358 99,34.005358 98.569,32.835358 97.646016,31.819217 96.416016,31.136217 95.951016,29.907217 95.063016,28.706717 93.916016,27.698717 95.212016,27.981717 96.350094,28.446749 97.246094,29.030749 96.544094,27.319748 94.385688,25.98503 91.679688,25.76903 91.658687,25.71703 91.635328,25.666639 91.611328,25.618639 93.594328,25.630639 95.452094,26.027155 96.996094,26.722155 95.508094,24.623155 92.660109,23.283764 89.537109,23.321764 L 89.476562,23.257311 C 90.855564,22.632311 92.400109,22.332014 93.912109,22.353014 92.085109,21.547014 89.96406,21.334795 88.121094,21.778795 87.755094,21.272795 87.274844,20.872311 86.714844,20.632311 89.76381,20.559311 92.717328,21.139953 94.861328,22.188952 93.156328,20.076952 89.4248,18.713733 85.673828,18.739733 84.931828,17.982733 83.794844,17.366624 82.464844,16.952623 81.819844,16.428623 80.946109,15.935264 79.912109,15.509264 81.594109,15.276264 83.20525,15.286374 84.53125,15.546373 82.93325,14.406373 80.014984,14.07903 77.208984,14.64403 76.278984,14.41503 75.287672,14.243311 74.263672,14.132311 72.353672,13.927311 70.606359,13.979826 69.193359,14.235827 65.969977,13.482409 62.70993,13.098173 59.25,12.903795 V 14.808092 C 59.25,15.0416 59.361206,15.258055 59.544922,15.39403 60.816088,17.35393 62.071269,40.212972 62.566406,54.224108 62.566406,55.600104 62.027907,56.851687 61.15625,57.786608 L 61.556641,55.556139 C 61.627435,55.159647 61.363292,54.781583 60.966797,54.710436 60.569856,54.637864 60.191929,54.902503 60.121094,55.298327 L 59.457031,59.003405 C 59.020449,59.198202 58.551951,59.331234 58.0625,59.399889 V 53.907702 C 58.0625,53.504803 57.736538,53.179186 57.333984,53.179186 56.931358,53.179186 56.605469,53.504803 56.605469,53.907702 V 59.399889 C 56.115945,59.331234 55.647559,59.196205 55.210938,59.001452 L 54.546875,55.298327 C 54.475724,54.902503 54.098777,54.636397 53.701172,54.710436 53.304596,54.781583 53.040452,55.159647 53.111328,55.556139 L 53.511719,57.786608 C 52.640118,56.851687 52.101562,55.600059 52.101562,54.224108 V 28.163561 C 52.101562,27.760618 51.775674,27.435045 51.373047,27.435045 H 48.244141 C 47.841595,27.435045 47.515625,27.760618 47.515625,28.163561 V 54.224108 C 47.515625,55.600104 46.977037,56.851687 46.105469,57.786608 L 46.505859,55.556139 C 46.576653,55.159647 46.312511,54.781582 45.916016,54.710436 45.51944,54.637864 45.141536,54.902502 45.070312,55.298327 L 44.40625,59.003405 C 43.969676,59.198203 43.501162,59.331234 43.011719,59.399889 V 53.907702 C 43.011719,53.504804 42.685749,53.179186 42.283203,53.179186 41.880577,53.179186 41.554688,53.504804 41.554688,53.907702 V 59.399889 C 41.065247,59.331233 40.596648,59.197847 40.160156,59.003405 L 39.496094,55.298327 C 39.424855,54.902502 39.044391,54.637107 38.650391,54.710436 38.253815,54.781582 37.991617,55.159647 38.0625,55.556139 L 38.462891,57.790514 C 37.590569,56.858751 37.051,55.615658 37.050781,54.251452 37.546283,40.214643 38.803143,17.35393 40.074219,15.39403 40.257936,15.258055 40.369141,15.041601 40.369141,14.808092 Z" />
  <path
     d="M 59.818111,29.819004 C 59.857477,29.733711 59.890282,29.641857 59.923087,29.556564 59.955892,29.471271 59.975575,29.425344 60.001819,29.359734 A 3.982527,3.982527 0 0 0 60.126478,27.555459 C 60.126478,27.470166 60.126478,27.384873 60.087112,27.29958 60.047746,27.214287 60.087112,27.23397 60.087112,27.201165 A 3.798819,3.798819 0 0 0 59.719696,26.256381 C 59.667208,26.157966 59.595037,26.066112 59.535988,25.967697 59.476939,25.869282 59.463817,25.843038 59.41789,25.79055 59.371963,25.738062 59.280109,25.626525 59.207938,25.547793 59.135767,25.469061 59.109523,25.429695 59.057035,25.370646 59.004547,25.311597 58.919254,25.252548 58.853644,25.193499 58.788034,25.13445 58.715863,25.062279 58.637131,25.00323 A 3.890673,3.890673 0 0 0 57.757957,24.517716 L 57.659542,24.471789 C 57.561127,24.432423 57.456151,24.41274 57.357736,24.386496 L 57.12154,24.320886 V 24.320886 A 4.185918,4.185918 0 0 0 56.629465,24.248715 H 55.973365 L 55.638754,24.288081 H 55.500973 A 3.9366,3.9366 0 0 0 55.054825,24.406179 H 55.008898 A 3.890673,3.890673 0 0 0 54.62836,24.557082 L 54.49714,24.622692 54.228139,24.773595 54.096919,24.858888 53.84104,25.049157 53.729503,25.13445 A 3.982527,3.982527 0 0 0 53.401453,25.442817 V 25.442817 A 1.207224,1.207224 0 0 1 53.158696,25.639647 L 53.073403,25.685574 A 1.266273,1.266273 0 0 1 52.863451,25.770867 H 52.771597 A 1.3122,1.3122 0 0 1 52.489474,25.810233 H 52.456669 A 1.364688,1.364688 0 0 1 52.06957,25.849599 V 25.849599 A 9.670914,9.670914 0 0 0 47.260355,25.849599 V 25.849599 A 1.364688,1.364688 0 0 1 46.925744,25.888965 H 46.892939 A 1.3122,1.3122 0 0 1 46.610816,25.849599 H 46.518962 A 1.253151,1.253151 0 0 1 46.30901,25.764306 L 46.223717,25.718379 A 1.207224,1.207224 0 0 1 45.98096,25.521549 V 25.521549 A 3.975966,3.975966 0 0 0 45.65291,25.213182 L 45.541373,25.127889 45.285494,24.93762 45.154274,24.852327 44.911517,24.694863 44.780297,24.629253 A 3.9366,3.9366 0 0 0 44.40632,24.47835 H 44.360393 A 3.9366,3.9366 0 0 0 43.914245,24.360252 H 43.776464 L 43.441853,24.320886 H 42.785753 A 4.19904,4.19904 0 0 0 42.293678,24.393057 V 24.393057 L 42.057482,24.458667 C 41.952506,24.458667 41.854091,24.511155 41.755676,24.54396 L 41.657261,24.589887 A 3.890673,3.890673 0 0 0 40.778087,25.075401 C 40.699355,25.13445 40.633745,25.20006 40.561574,25.26567 40.489403,25.33128 40.423793,25.377207 40.358183,25.442817 40.292573,25.508427 40.253207,25.560915 40.20728,25.619964 40.161353,25.679013 40.062938,25.777428 39.997328,25.862721 39.931718,25.948014 39.918596,25.980819 39.87923,26.039868 39.839864,26.098917 39.74801,26.223576 39.695522,26.328552 A 3.798819,3.798819 0 0 0 39.328106,27.273336 C 39.328106,27.306141 39.328106,27.338946 39.328106,27.371751 39.328106,27.404556 39.328106,27.542337 39.28874,27.62763 A 3.982527,3.982527 0 0 0 39.413399,29.431905 C 39.413399,29.497515 39.465887,29.563125 39.492131,29.628735 39.518375,29.694345 39.557741,29.805882 39.597107,29.891175 A 3.9366,3.9366 0 0 0 39.990767,30.547275 3.424842,3.424842 0 0 1 40.646867,33.053577 7.8732,7.8732 0 0 0 40.574696,34.136142 7.965054,7.965054 0 0 0 40.627184,35.054682 C 40.627184,35.146536 40.627184,35.231829 40.673111,35.317122 40.673111,35.527074 40.738721,35.737026 40.784648,35.973222 40.784648,36.065076 40.837136,36.15693 40.86338,36.248784 40.915868,36.445614 40.974917,36.642444 41.040527,36.839274 41.040527,36.924567 41.106137,37.00986 41.138942,37.088592 41.217674,37.285422 41.302967,37.482252 41.394821,37.672521 L 41.506358,37.882473 C 41.611334,38.085864 41.722871,38.282694 41.84753,38.472963 L 41.952506,38.636988 Q 42.155897,38.945355 42.385532,39.234039 L 42.477386,39.345576 Q 42.733265,39.660504 43.021949,39.949188 L 43.074437,40.008237 A 9.027936,9.027936 0 0 0 43.730537,40.611849 9.690597,9.690597 0 0 0 55.74373,40.611849 C 55.979926,40.42158 56.203,40.218189 56.39983,40.008237 L 56.452318,39.949188 Q 56.741002,39.660504 56.996881,39.345576 L 57.05593,39.129063 Q 57.285565,38.840379 57.488956,38.532012 L 57.593932,38.367987 C 57.718591,38.177718 57.830128,37.980888 57.935104,37.777497 L 58.046641,37.567545 C 58.138495,37.377276 58.223788,37.180446 58.30252,36.983616 58.335325,36.898323 58.374691,36.819591 58.400935,36.734298 58.473106,36.544029 58.525594,36.340638 58.578082,36.143808 58.578082,36.051954 58.63057,35.9601 58.656814,35.868246 58.702741,35.664855 58.735546,35.448342 58.768351,35.212146 58.768351,35.120292 58.801156,35.034999 58.814278,34.949706 A 7.965054,7.965054 0 0 0 58.866766,34.031166 7.827273,7.827273 0 0 0 58.781473,32.928918 V 32.928918 A 3.437964,3.437964 0 0 1 59.437573,30.435738 3.9366,3.9366 0 0 0 59.818111,29.819004 Z M 45.744764,34.733193 A 0.6561,0.6561 0 1 1 46.400864,34.077093 0.6561,0.6561 0 0 1 45.744764,34.733193 Z M 50.829541,36.215979 A 1.620567,1.620567 0 0 1 48.533189,36.215979 0.872613,0.872613 0 0 1 49.149923,34.726632 H 50.206244 A 0.872613,0.872613 0 0 1 50.829541,36.215979 Z M 53.617966,34.733193 A 0.6561,0.6561 0 1 1 54.274066,34.077093 0.6561,0.6561 0 0 1 53.617966,34.733193 Z"
     id="path1"
     style="stroke-width:0.6561" />
  <path
     style="fill:#000000;stroke:#ffffff;stroke-width:0;stroke-linecap:round;stroke-linejoin:round;stroke-miterlimit:3.9;paint-order:stroke fill markers"
     d="M 46.0625,12.6875 C 41.783161,13.731237 44.659361,21.962738 50.0625,21.875 55.799958,21.781833 58.075965,13.905789 53.8125,12.8125 51.626965,12.252059 48.034141,12.206614 46.0625,12.6875 Z"
     id="path3"
     sodipodi:nodetypes="ssss" />
</svg>
