<?xml version="1.0" encoding="UTF-8" standalone="no"?>
<!-- Created with Inkscape (http://www.inkscape.org/) -->

<svg
   width="25.982"
   height="25.982"
   viewBox="0 0 25.982 25.982001"
   version="1.1"
   id="svg1"
   inkscape:version="1.4.2 (ebf0e940d0, 2025-05-08)"
   sodipodi:docname="bed.svg"
   xmlns:inkscape="http://www.inkscape.org/namespaces/inkscape"
   xmlns:sodipodi="http://sodipodi.sourceforge.net/DTD/sodipodi-0.dtd"
   xmlns="http://www.w3.org/2000/svg"
   xmlns:svg="http://www.w3.org/2000/svg">
  <sodipodi:namedview
     id="namedview1"
     pagecolor="#ffffff"
     bordercolor="#000000"
     borderopacity="0.25"
     inkscape:showpageshadow="2"
     inkscape:pageopacity="0.0"
     inkscape:pagecheckerboard="0"
     inkscape:deskcolor="#d1d1d1"
     inkscape:document-units="px"
     inkscape:zoom="8.217228"
     inkscape:cx="12.899727"
     inkscape:cy="46.791935"
     inkscape:window-width="2256"
     inkscape:window-height="1427"
     inkscape:window-x="0"
     inkscape:window-y="0"
     inkscape:window-maximized="1"
     inkscape:current-layer="svg1" />
  <defs
     id="defs1" />
  <path
     d="M 2.43402 10.4241 C 2.43402 10.2654 2.30173 10.1066 2.11652 10.1066 L 0.317357 10.1066 C 0.158607 10.1066 -0.0001423 10.2389 -0.0001423 10.4241 L -0.0001423 23.9179 C -0.0001423 24.0766 0.132149 24.2354 0.317357 24.2354 L 2.11652 24.2354 C 2.27527 24.2354 2.43402 24.1031 2.43402 23.9179 L 2.43402 21.272 L 23.5477 21.272 L 23.5477 23.9179 C 23.5477 24.0766 23.68 24.2354 23.8652 24.2354 L 25.6644 24.2354 C 25.8232 24.2354 25.9819 24.1031 25.9819 23.9179 L 25.9819 18.8643 L 2.46048 18.8643 L 2.46048 10.4241 Z"
     id="path1"
     style="fill:#000000" />
  <circle
     cx="6.2440164999999865"
     cy="15.0807887"
     r="2.7781214999999975"
     id="circle1"
     style="fill:#000000" />
  <path
     d="M 23.389 14.5252 L 11.959 12.0645 C 10.9536 11.8529 10.0276 12.6202 10.0276 13.6256 L 10.0276 17.8589 L 25.9554 17.8589 L 25.9554 17.7002 C 25.9554 16.1656 24.8971 14.8427 23.389 14.5252 Z"
     id="path2"
     style="fill:#000000" />
  <path
     d="M 6.11172 10.186 L 8.9163 10.186 C 9.0486 10.186 9.15443 10.0802 9.15443 9.94788 L 9.15443 9.10121 C 9.15443 8.96892 9.0486 8.86309 8.9163 8.86309 L 7.59339 8.86309 L 9.0486 6.13788 C 9.20735 5.84684 8.99568 5.52934 8.67818 5.52934 L 6.08527 5.52934 C 5.95298 5.52934 5.84714 5.63518 5.84714 5.76747 L 5.84714 6.61413 C 5.84714 6.74642 5.95298 6.85226 6.08527 6.85226 L 7.22297 6.85226 L 5.76777 9.57746 C 5.58256 9.84205 5.79423 10.186 6.11172 10.186 Z"
     id="path3"
     style="fill:#000000" />
  <path
     d="M 10.8742 7.51371 L 13.1761 7.51371 C 13.3084 7.51371 13.4142 7.40788 13.4142 7.27559 L 13.4142 6.66705 C 13.4142 6.53476 13.3084 6.42892 13.1761 6.42892 L 12.1178 6.42892 L 13.3348 4.17997 C 13.4671 3.94184 13.2819 3.67726 13.0173 3.67726 L 10.9007 3.67726 C 10.7684 3.67726 10.6626 3.78309 10.6626 3.91539 L 10.6626 4.52393 C 10.6626 4.65622 10.7684 4.76205 10.9007 4.76205 L 11.8003 4.76205 L 10.5832 7.01101 C 10.4244 7.22267 10.6096 7.51371 10.8742 7.51371 Z"
     id="path4"
     style="fill:#000000" />
  <path
     d="M 15.0282 4.84143 L 16.8273 4.84143 C 16.9596 4.84143 17.0655 4.73559 17.0655 4.6033 L 17.0655 4.20643 C 17.0655 4.07414 16.9596 3.9683 16.8273 3.9683 L 16.0071 3.9683 L 16.9861 2.16914 C 17.0919 1.98393 16.9596 1.74581 16.748 1.74581 L 15.0811 1.74581 C 14.9488 1.74581 14.843 1.85164 14.843 1.98393 L 14.843 2.3808 C 14.843 2.5131 14.9488 2.61893 15.0811 2.61893 L 15.7425 2.61893 L 14.7636 4.41809 C 14.6842 4.6033 14.8165 4.84143 15.0282 4.84143 Z"
     id="path5"
     style="fill:#000000" />
</svg>
