<?xml version="1.0" encoding="UTF-8" standalone="no"?>
<!-- Created with Inkscape (http://www.inkscape.org/) -->

<svg
   width="53.801998"
   height="53.801998"
   viewBox="0 0 53.801999 53.801998"
   version="1.1"
   id="svg1"
   inkscape:version="1.4.2 (ebf0e940d0, 2025-05-08)"
   sodipodi:docname="bedroll.svg"
   xmlns:inkscape="http://www.inkscape.org/namespaces/inkscape"
   xmlns:sodipodi="http://sodipodi.sourceforge.net/DTD/sodipodi-0.dtd"
   xmlns="http://www.w3.org/2000/svg"
   xmlns:svg="http://www.w3.org/2000/svg">
  <sodipodi:namedview
     id="namedview1"
     pagecolor="#ffffff"
     bordercolor="#000000"
     borderopacity="0.25"
     inkscape:showpageshadow="2"
     inkscape:pageopacity="0.0"
     inkscape:pagecheckerboard="0"
     inkscape:deskcolor="#d1d1d1"
     inkscape:document-units="px"
     inkscape:zoom="9.6083333"
     inkscape:cx="-10.980052"
     inkscape:cy="56.981787"
     inkscape:window-width="1128"
     inkscape:window-height="1427"
     inkscape:window-x="20"
     inkscape:window-y="20"
     inkscape:window-maximized="0"
     inkscape:current-layer="svg1" />
  <defs
     id="defs1" />
  <path
     d="M 15.9712 19.2825 C 10.8712 19.2825 6.5712 24.1825 6.5712 29.8825 C 6.5712 35.5825 10.8712 40.4825 15.9712 40.4825 C 20.9712 40.4825 24.9712 35.6825 24.9712 29.8825 C 24.9712 24.0825 20.9712 19.2825 15.9712 19.2825 Z M 15.9712 37.5825 C 12.1712 37.5825 8.9712 33.9825 8.9712 29.8825 C 8.9712 25.7825 12.2712 22.1825 15.9712 22.1825 C 19.5712 22.1825 22.5712 25.5825 22.5712 29.8825 C 22.5712 34.1825 19.5712 37.5825 15.9712 37.5825 Z"
     id="path1"
     style="fill:#000000" />
  <ellipse
     cx="15.671199999999999"
     cy="29.982498"
     rx="3.0999999000000003"
     ry="3.700000000000003"
     id="ellipse1"
     style="fill:#000000" />
  <path
     d="M 15.9712 22.9825 C 12.6712 22.9825 9.6712 26.1825 9.6712 29.8825 C 9.6712 33.5825 12.5712 36.7825 15.9712 36.7825 C 19.1712 36.7825 21.7712 33.6825 21.7712 29.8825 C 21.7712 26.0825 19.1712 22.9825 15.9712 22.9825 Z M 15.6712 34.3825 C 13.5712 34.3825 11.7712 32.3825 11.7712 29.8825 C 11.7712 27.3825 13.4712 25.3825 15.6712 25.3825 C 17.7712 25.3825 19.5712 27.3825 19.5712 29.8825 C 19.5712 32.3825 17.7712 34.3825 15.6712 34.3825 Z"
     id="path2"
     style="fill:#000000" />
  <path
     d="M 15.9712 15.8825 C 9.2712 15.8825 3.6712 22.2825 3.6712 29.8825 C 3.6712 37.4825 9.2712 43.8825 15.9712 43.8825 C 22.4712 43.8825 28.0712 37.5825 28.0712 29.8825 C 28.0712 22.1825 22.4712 15.8825 15.9712 15.8825 Z M 15.9712 41.3825 C 10.4712 41.3825 5.7712 36.1825 5.7712 29.9825 C 5.7712 23.7825 10.4712 18.5825 15.9712 18.5825 C 21.3712 18.5825 25.7712 23.6825 25.7712 29.9825 C 25.7712 36.2825 21.3712 41.3825 15.9712 41.3825 Z"
     id="path3"
     style="fill:#000000" />
  <path
     d="M 41.6712 6.3825 C 36.2712 6.1825 32.8712 9.1825 32.8712 9.1825 C 28.5712 8.1825 25.2712 10.5825 25.2712 10.5825 C 8.0712 10.1825 4.6712 17.2825 3.6712 18.5825 C -5.0288 31.3825 2.8712 46.6825 15.4712 47.3825 C 26.9712 48.0825 35.1712 40.6825 36.1712 39.7825 C 36.2712 39.6825 36.3712 39.6825 36.4712 39.6825 C 42.7712 39.5825 45.0712 35.2825 45.5712 34.1825 C 45.6712 34.0825 45.7712 33.9825 45.9712 33.9825 C 50.6712 34.2825 52.7712 28.7825 52.7712 28.7825 C 55.9712 20.5825 51.5712 7.8825 41.6712 6.3825 Z M 15.9712 44.6825 C 8.8712 44.6825 2.8712 37.8825 2.8712 29.8825 C 2.8712 21.8825 8.8712 15.0825 15.9712 15.0825 C 22.9712 15.0825 28.8712 21.6825 28.8712 29.8825 C 28.8712 38.0825 22.9712 44.6825 15.9712 44.6825 Z M 36.0712 36.4825 L 36.0712 36.4825 C 35.8712 36.3825 35.7712 36.1825 35.8712 35.9825 C 38.0712 30.7825 38.3712 26.1825 36.6712 22.0825 C 34.2712 16.3825 28.7712 13.5825 27.2712 12.9825 C 27.0712 12.8825 26.9712 12.6825 27.0712 12.4825 L 27.0712 12.4825 C 27.1712 12.2825 27.3712 12.1825 27.5712 12.2825 C 29.0712 12.9825 34.8712 15.7825 37.3712 21.7825 C 39.1712 26.0825 38.8712 30.8825 36.5712 36.2825 C 36.4712 36.4825 36.2712 36.5825 36.0712 36.4825 Z M 44.3712 31.7825 L 44.3712 31.7825 C 44.1712 31.6825 44.0712 31.4825 44.1712 31.2825 C 46.2712 25.0825 45.3712 19.7825 41.4712 15.4825 C 38.9712 12.7825 36.0712 11.3825 35.0712 10.9825 C 34.8712 10.8825 34.7712 10.6825 34.8712 10.4825 L 34.8712 10.4825 C 34.9712 10.2825 35.1712 10.1825 35.3712 10.2825 C 36.4712 10.6825 39.4712 12.1825 42.0712 14.9825 C 44.9712 18.0825 47.7712 23.4825 44.9712 31.5825 C 44.7712 31.7825 44.5712 31.8825 44.3712 31.7825 Z"
     id="path4"
     style="fill:#000000" />
</svg>
