<?xml version="1.0" encoding="UTF-8" standalone="no"?>
<!-- Created with Inkscape (http://www.inkscape.org/) -->

<svg
   width="488.004"
   height="488.004"
   viewBox="0 0 488.004 488.00399"
   version="1.1"
   id="svg1"
   inkscape:version="1.4.2 (ebf0e940d0, 2025-05-08)"
   sodipodi:docname="birch.svg"
   xmlns:inkscape="http://www.inkscape.org/namespaces/inkscape"
   xmlns:sodipodi="http://sodipodi.sourceforge.net/DTD/sodipodi-0.dtd"
   xmlns="http://www.w3.org/2000/svg"
   xmlns:svg="http://www.w3.org/2000/svg">
  <sodipodi:namedview
     id="namedview1"
     pagecolor="#ffffff"
     bordercolor="#000000"
     borderopacity="0.25"
     inkscape:showpageshadow="2"
     inkscape:pageopacity="0.0"
     inkscape:pagecheckerboard="0"
     inkscape:deskcolor="#d1d1d1"
     inkscape:document-units="px"
     inkscape:zoom="0.84926471"
     inkscape:cx="376.79654"
     inkscape:cy="513.97403"
     inkscape:window-width="2256"
     inkscape:window-height="1427"
     inkscape:window-x="0"
     inkscape:window-y="0"
     inkscape:window-maximized="1"
     inkscape:current-layer="svg1" />
  <defs
     id="defs1" />
  <path
     d="M 409.602,121.35002 V 160.82402 C 397.7274,178.70252 389.6184,197.80862 385.5063,217.61942 383.1987,228.73442 382.2609,239.53532 382.6389,250.63862 382.7055,252.58442 384.303,254.11622 386.2344,254.11622 386.2758,254.11622 386.3172,254.11532 386.3595,254.11442 388.3467,254.04692 389.9028,252.38012 389.8344,250.39382 389.4762,239.87012 390.3663,229.62812 392.5551,219.08192 395.7456,203.71082 401.4687,188.76992 409.6011,174.52472 V 431.95802 C 407.7021,430.21112 405.4881,428.76842 403.005,427.74242 396.6843,425.13062 390.3204,422.67902 383.9151,420.38852 395.0094,393.23642 400.6614,365.97272 400.6866,339.30392 400.7055,319.28972 397.6986,303.13292 394.7907,287.50802 394.2201,284.44352 393.6549,281.40782 393.1212,278.37752 392.7756,276.41822 390.9036,275.11232 388.9506,275.45702 386.9931,275.80262 385.6854,277.67012 386.031,279.62762 386.5692,282.68042 387.138,285.73772 387.7131,288.82562 390.5607,304.12742 393.5055,319.95032 393.4875,339.29672 393.4632,365.14652 387.9417,391.62002 377.1039,418.02602 373.5831,416.83532 370.0506,415.69232 366.5064,414.59792 359.9409,399.06032 356.5263,383.21942 356.3724,367.48562 356.205,350.32172 359.8824,340.29482 364.1403,328.68482 367.203,320.33282 370.371,311.69462 372.4356,299.58872 376.7646,274.20692 371.469,260.31362 365.3373,244.22792 360.0237,230.28782 354.0135,214.50452 352.4052,187.02392 362.6364,170.63942 370.6959,153.05972 376.3551,134.74832 383.6289,111.20972 386.9103,86.720717 386.1597,61.824917 400.8432,77.560517 409.602,98.601617 409.602,121.35002 Z M 231.0582,303.04112 C 227.919,280.63292 225.4395,262.93352 231.3786,239.39042 234.3234,227.71562 238.9287,216.40622 245.0982,205.64042 247.0629,224.09672 253.0497,236.19362 259.8114,249.84752 265.2996,260.92922 271.5204,273.49142 276.7989,291.91262 286.1175,324.43412 287.9355,360.08762 282.2574,397.92542 269.5908,396.76532 256.8342,396.17672 244.0029,396.17672 240.2238,396.17672 236.451,396.23252 232.6854,396.33332 234.5925,382.63172 235.5519,368.88962 235.5177,355.41932 235.4637,334.49522 233.1228,317.78402 231.0582,303.04112 Z M 284.0133,291.01712 C 289.2513,274.94042 291.9126,258.63422 291.9162,242.54312 291.9189,228.23492 289.8372,217.76162 287.8239,207.63302 285.7836,197.37032 283.8558,187.67552 283.8594,174.00452 283.863,158.33822 286.5117,142.44332 291.7326,126.76082 292.3608,124.87442 291.3402,122.83592 289.4538,122.20772 287.5683,121.58042 285.5289,122.60012 284.9007,124.48652 279.4359,140.90252 276.663,157.56242 276.6594,174.00272 276.6567,188.38382 278.7438,198.88322 280.7625,209.03702 282.7974,219.27362 284.7198,228.94232 284.7171,242.54132 284.7144,254.48342 283.1673,266.55962 280.1235,278.57102 275.5794,265.48232 270.6906,255.59132 266.2635,246.65342 258.2715,230.51462 251.958,217.76702 251.6304,194.11232 251.4378,180.20462 253.407,170.19302 255.3105,160.51172 258.0366,146.65082 260.6115,133.55762 255.558,112.68212 253.7274,105.11852 251.5053,99.061517 249.5451,93.717317 246.1206,84.380717 243.4152,77.007017 243.5736,65.197217 243.7545,51.614417 247.773,37.956917 255.5013,24.570317 273.0711,25.068017 290.6202,26.706917 308.0154,29.465417 303.2805,47.964917 300.864,66.728117 300.8316,85.300517 300.7929,108.05792 304.4145,120.92432 308.2494,134.54582 311.5407,146.23682 314.9436,158.32562 316.9641,178.39562 320.1915,210.44912 316.515,229.03592 312.2589,250.55762 308.7345,268.37582 304.7403,288.57182 304.8609,319.15742 304.968,346.46162 308.3781,374.38322 315.0012,402.23912 306.5259,400.77392 297.9993,399.57602 289.4304,398.64092 295.1346,360.32522 293.3229,324.14072 284.0133,291.01712 Z M 322.7628,403.66472 C 315.7752,375.32012 312.168,346.89182 312.0591,319.12952 311.9421,289.26302 315.6933,270.29642 319.3203,251.95442 323.5062,230.78732 327.4608,210.79472 324.1263,177.67382 322.0428,156.97922 318.396,144.02462 315.1785,132.59552 311.3229,118.89842 307.9929,107.06972 308.0307,85.313117 308.0622,67.142117 310.4562,48.773117 315.1425,30.663317 319.6911,31.467017 324.2271,32.348117 328.7496,33.304817 338.502,48.737117 345.4068,65.135117 349.2633,82.074017 354.3393,104.37152 351.8976,118.01102 349.0707,133.80422 346.6425,147.36722 343.8903,162.74012 345.1512,186.29132 346.719,215.59622 353.037,232.17062 358.6116,246.79382 364.6047,262.51682 369.3387,274.93592 365.3409,298.37912 363.387,309.83612 360.3342,318.15932 357.3831,326.20802 353.0703,337.96922 348.996,349.07882 349.1751,367.55762 349.32,382.40582 352.1928,397.31792 357.7116,411.98972 346.1718,408.70472 334.5177,405.92912 322.7628,403.66472 Z M 378.6195,54.649217 C 380.3007,81.295517 377.2344,107.52242 369.4773,132.62342 365.1087,146.75882 359.2587,160.44422 352.0452,173.45372 352.1604,157.43102 354.2592,145.67882 356.1582,135.07232 359.1237,118.50692 361.6851,104.20052 356.2842,80.475617 352.7454,64.929017 346.7613,49.832417 338.4786,35.481917 340.1526,35.878817 341.8266,36.280217 343.4961,36.697817 356.7756,40.025117 368.6853,46.272917 378.6195,54.649217 Z M 247.3437,24.426317 C 240.4524,37.402517 236.7867,50.652317 236.4114,63.906617 230.7315,71.514317 226.686,79.757417 224.4063,88.423517 221.2959,100.24412 222.348,109.15592 223.3659,117.77432 223.8438,121.82252 224.2956,125.64572 224.2875,129.64892 224.2569,145.76792 216.4368,162.59252 201.0432,179.65562 199.7121,181.13162 199.8282,183.40772 201.3051,184.73972 201.9936,185.36072 202.8558,185.66672 203.7153,185.66672 204.699,185.66672 205.6791,185.26622 206.3901,184.47782 223.0104,166.05482 231.4542,147.61202 231.4884,129.66152 231.4965,125.22812 230.9988,121.00982 230.5164,116.93012 229.5345,108.61232 228.6066,100.75532 231.3696,90.255017 232.6494,85.389617 234.5592,80.664617 237.063,76.125017 238.1412,83.530217 240.3489,89.551217 242.7861,96.196817 244.7724,101.61212 246.8262,107.21192 248.5605,114.37592 253.2423,133.71782 250.9266,145.49072 248.2464,159.12302 246.4122,168.44882 244.3467,178.99772 244.4268,193.08092 235.0776,207.03542 228.3357,222.01682 224.3973,237.63002 218.1144,262.53752 220.8081,281.77052 223.9275,304.04012 225.9606,318.55532 228.2646,335.00642 228.3159,355.43732 228.3501,368.98232 227.352,382.81262 225.372,396.59522 216.8256,396.97322 208.3161,397.61132 199.848,398.50952 202.2402,382.01522 202.0269,365.96372 199.1982,350.73932 197.6709,342.52142 195.6018,335.57072 193.6011,328.85132 190.1703,317.32682 186.9294,306.44222 187.1724,290.97842 187.3785,277.90322 190.0074,264.75692 194.9871,251.90672 195.7053,250.05272 194.7846,247.96742 192.9306,247.24922 191.0757,246.52922 188.9913,247.45172 188.2731,249.30482 182.9847,262.95242 180.192,276.93482 179.9724,290.86592 179.7123,307.43582 183.1062,318.83612 186.6999,330.90512 188.6475,337.44722 190.6608,344.21072 192.1188,352.05422 194.9106,367.07792 195.0105,382.98362 192.4338,399.36002 177.5091,401.21492 162.7194,403.87622 148.0998,407.34302 144.4269,388.58252 144.003,369.96782 146.8434,351.95792 149.0358,338.05652 152.4027,329.24102 155.6589,320.71622 156.7569,317.84252 157.7946,315.12632 158.7792,312.24542 172.2954,272.70662 162.1677,240.47492 152.373,209.30522 143.0193,179.53682 134.1849,151.41992 146.649,118.84802 147.1323,117.58532 147.6876,116.21012 148.2879,114.72332 152.6466,103.92962 159.2337,87.618917 158.9718,65.108117 158.853,54.855317 157.2951,44.536817 154.3539,34.375817 183.792,27.760817 213.8988,24.400217 244.002,24.400217 245.1162,24.400217 246.2304,24.417317 247.3437,24.426317 Z M 144.5223,36.700517 C 145.4565,36.466517 146.3952,36.246917 147.3312,36.019217 150.1599,45.671717 151.662,55.468217 151.7745,65.190917 151.986,83.437517 147.3186,97.504517 143.373,107.61332 138.7587,96.253517 132.9915,85.388717 126.129,75.229517 121.1871,67.915217 115.662,60.933917 109.6707,54.431417 119.5509,46.170317 131.3616,39.999917 144.5223,36.700517 Z M 104.3409,59.273417 C 110.1009,65.521217 115.4127,72.229817 120.1611,79.258817 128.1891,91.141517 134.6673,104.02592 139.4562,117.56012 126.8184,151.93832 136.308,182.19362 145.5042,211.46162 154.9506,241.52522 164.7183,272.61122 151.9653,309.91532 151.0221,312.67562 150.0069,315.33332 148.9323,318.14672 146.3718,324.85082 143.5422,332.27312 141.3282,342.35312 131.7369,327.70022 126.8292,313.13462 126.7446,298.96232 126.7068,292.69832 127.5987,287.64662 128.5428,282.29792 129.6624,275.95472 130.9314,268.76642 130.773,258.61172 130.5534,244.64822 127.7607,230.66402 122.4723,217.04792 121.7532,215.19482 119.6679,214.27502 117.813,214.99592 115.9599,215.71592 115.041,217.80212 115.761,219.65522 120.7398,232.47302 123.3687,245.61842 123.5739,258.72512 123.7224,268.19312 122.5686,274.72712 121.4535,281.04782 120.4509,286.72682 119.5041,292.09082 119.5455,299.00642 119.6499,316.57352 126.3792,334.50782 139.5147,352.33322 136.7796,370.82372 137.3115,389.88572 141.1068,409.07462 133.7853,410.94662 126.507,413.01662 119.2773,415.29272 109.4331,399.46532 102.6165,382.67942 99.021,365.36072 96.8313,354.81632 95.9421,344.57432 96.3003,334.04972 96.3678,332.06342 94.8126,330.39662 92.8254,330.32912 90.8319,330.28772 89.1723,331.81682 89.1048,333.80492 88.7268,344.91002 89.6646,355.71092 91.9713,366.82412 95.6244,384.42362 102.4356,401.47952 112.2276,417.58502 103.0872,420.64232 94.0242,424.01822 85.0494,427.72352 82.5456,428.75672 80.3136,430.21022 78.402,431.97062 V 173.82452 C 88.2444,191.06402 98.1399,215.38832 99.9597,245.35922 101.1675,265.24922 98.6943,285.09692 92.6094,304.35332 92.01,306.24872 93.0612,308.27192 94.9575,308.87132 95.3184,308.98472 95.6838,309.03962 96.0429,309.03962 97.5711,309.03962 98.9895,308.05862 99.4746,306.52322 105.8268,286.42262 108.408,265.69742 107.1462,244.92452 104.8548,207.18932 90.3207,178.04642 78.402,160.11122 V 121.35362 C 78.402,97.353317 88.1589,75.248417 104.3409,59.273417 Z M 403.095,460.87502 C 398.9631,463.74512 393.8853,464.38592 389.1666,462.63362 342.4962,445.28792 293.655,436.49312 244.002,436.49312 194.3256,436.49312 145.5069,445.27802 98.9013,462.60482 94.1502,464.37242 89.0445,463.72892 84.8946,460.84532 80.7681,457.97612 78.402,453.44462 78.402,448.41182 78.402,442.24322 82.0902,436.73432 87.7971,434.37812 137.613,413.80772 190.1685,403.37672 244.002,403.37672 297.12,403.37672 351.1515,414.10382 400.2555,434.39702 405.9336,436.74422 409.602,442.24772 409.602,448.41632 409.602,453.45812 407.2305,457.99952 403.095,460.87502 Z"
     id="path1"
     style="fill:#000000;stroke-width:0.9" />
</svg>
