<?xml version="1.0" encoding="UTF-8" standalone="no"?>
<!-- Created with Inkscape (http://www.inkscape.org/) -->

<svg
   width="489"
   height="489"
   viewBox="0 0 489 489"
   version="1.1"
   id="svg1"
   inkscape:version="1.4.2 (ebf0e940d0, 2025-05-08)"
   sodipodi:docname="blueflare.svg"
   xmlns:inkscape="http://www.inkscape.org/namespaces/inkscape"
   xmlns:sodipodi="http://sodipodi.sourceforge.net/DTD/sodipodi-0.dtd"
   xmlns="http://www.w3.org/2000/svg"
   xmlns:svg="http://www.w3.org/2000/svg">
  <sodipodi:namedview
     id="namedview1"
     pagecolor="#ffffff"
     bordercolor="#000000"
     borderopacity="0.25"
     inkscape:showpageshadow="2"
     inkscape:pageopacity="0.0"
     inkscape:pagecheckerboard="0"
     inkscape:deskcolor="#d1d1d1"
     inkscape:document-units="px"
     inkscape:zoom="0.84926471"
     inkscape:cx="-208.41558"
     inkscape:cy="619.94805"
     inkscape:window-width="2256"
     inkscape:window-height="1427"
     inkscape:window-x="0"
     inkscape:window-y="0"
     inkscape:window-maximized="1"
     inkscape:current-layer="svg1" />
  <defs
     id="defs1" />
  <path
     d="M 43.548443,392.90889 C 41.382443,392.90889 39.689443,393.43189 38.636443,394.48489 L 11.253443,421.86589 C 15.619443,422.59189 20.470443,424.38189 25.528443,427.12489 L 56.126443,396.52689 C 54.985443,395.96889 53.854443,395.45989 52.741443,395.01689 49.218443,393.61589 46.064443,392.90889 43.548443,392.90889 Z"
     id="path1"
     style="fill:#000000" />
  <path
     d="M 2.080443,431.03889 C -0.194557,433.31489 0.004443,438.58889 2.614443,445.14489 5.734443,452.98089 11.780443,461.62389 19.639443,469.48389 35.665443,485.50889 53.156443,491.97589 58.085443,487.04389 63.014443,482.11389 56.552443,464.62589 40.525443,448.59889 24.500443,432.57389 7.013443,426.10789 2.080443,431.03889 Z"
     id="path2"
     style="fill:#000000" />
  <path
     d="M 88.445443,425.83589 C 86.090443,422.27689 83.218443,418.58789 79.850443,414.92989 L 48.955443,445.82589 C 52.278443,449.39889 55.195443,453.01989 57.677443,456.60389 Z"
     id="path3"
     style="fill:#000000" />
  <path
     d="M 32.520443,431.44689 C 36.104443,433.92889 39.726443,436.84689 43.299443,440.16989 L 74.195443,409.27389 C 70.634443,405.98889 66.957443,403.08689 63.302443,400.66589 Z"
     id="path4"
     style="fill:#000000" />
  <path
     d="M 61.999443,463.59489 C 64.743443,468.65389 66.533443,473.50489 67.259443,477.87089 L 94.640443,450.48989 C 97.383443,447.74589 96.593443,441.10889 92.593443,432.99989 Z"
     id="path5"
     style="fill:#000000" />
  <path
     d="M 484.41544,71.710899 C 478.97344,59.268899 468.95044,45.391899 456.19444,32.635899 443.43844,19.879899 429.56144,9.8578993 417.11944,4.4158993 406.17144,-0.37510072 397.38444,-0.98210073 393.61444,2.7858993 L 340.63744,55.762899 C 347.75444,57.001899 356.58544,60.964899 366.60644,67.523899 L 406.24444,27.886899 C 407.80544,26.323899 410.33844,26.323899 411.90044,27.886899 413.46344,29.448899 413.46344,31.981899 411.90044,33.542899 L 373.28244,72.159899 C 380.08744,77.146899 387.03544,83.032899 393.70644,89.465899 L 435.03144,48.140899 C 436.59244,46.577899 439.12744,46.577899 440.68744,48.140899 442.25044,49.702899 442.25044,52.235899 440.68744,53.796899 L 399.36344,95.120899 C 405.79544,101.78989 411.68144,108.73789 416.67044,115.54589 L 455.28744,76.928899 C 456.84844,75.365899 459.38344,75.365899 460.94344,76.928899 462.50644,78.490899 462.50644,81.023899 460.94344,82.584899 L 421.30644,122.22189 C 427.86644,132.24389 431.82844,141.07489 433.06644,148.19189 L 486.04444,95.213899 C 489.81444,91.445899 489.20544,82.659899 484.41544,71.710899 Z"
     id="path6"
     style="fill:#000000" />
  <path
     d="M 390.90944,97.920899 C 382.45744,89.469899 373.44544,81.878899 364.84644,75.971899 347.56144,64.093899 335.14044,61.261899 331.79944,64.600899 L 322.90844,73.491899 C 327.75644,73.925899 333.27044,75.448899 339.31744,78.093899 352.65144,83.926899 367.39844,94.543899 380.84244,107.98889 401.51944,128.66489 413.99744,150.40589 415.35044,165.90989 L 424.22844,157.03189 C 427.56744,153.69289 424.73344,141.26889 412.85744,123.98489 406.94944,115.38189 399.35844,106.37089 390.90944,97.920899 Z"
     id="path7"
     style="fill:#000000" />
  <path
     d="M 28.497443,367.90289 C 24.662443,371.73789 25.371443,380.58489 30.213443,391.59389 L 32.979443,388.82789 C 37.722443,384.08389 45.791443,383.63989 55.701443,387.58489 64.524443,391.09889 74.127443,397.77489 82.737443,406.38689 101.92544,425.57489 109.47444,446.96689 100.29844,456.14589 100.29744,456.14589 100.29744,456.14589 100.29744,456.14589 L 97.649443,458.79389 C 108.46144,463.46789 117.14944,464.11189 120.92844,460.33389 128.66844,452.59389 118.31344,424.98889 91.077443,397.75389 63.841443,370.51889 36.241443,360.16789 28.497443,367.90289 Z"
     id="path8"
     style="fill:#000000" />
  <path
     d="M 47.694443,348.70589 38.812443,357.58789 C 54.317443,358.94189 76.057443,371.42089 96.733443,392.09689 117.41044,412.77289 129.88844,434.51389 131.24144,450.01889 L 140.11944,441.14089 C 145.37644,435.88289 135.01044,410.24389 106.79944,382.03189 78.596443,353.82989 52.966443,343.45989 47.694443,348.70589 Z"
     id="path9"
     style="fill:#000000" />
  <path
     d="M 336.11244,85.422899 C 325.16244,80.631899 316.37744,80.024899 312.60744,83.792899 L 56.609443,339.79089 C 72.027443,342.50689 93.963443,357.88189 112.45544,376.37489 130.94944,394.86789 146.32344,416.80289 149.03944,432.22089 L 405.03744,176.22289 C 412.77644,168.48289 402.42144,140.87889 375.18644,113.64389 362.43144,100.88789 348.55344,90.865899 336.11244,85.422899 Z"
     id="path10"
     style="fill:#000000" />
</svg>
