<?xml version="1.0" encoding="UTF-8" standalone="no"?>
<!-- Created with Inkscape (http://www.inkscape.org/) -->

<svg
   width="93.75"
   height="93.75"
   viewBox="0 0 93.75 93.75"
   version="1.1"
   id="svg1"
   inkscape:version="1.4.2 (ebf0e940d0, 2025-05-08)"
   sodipodi:docname="briefcase.svg"
   xmlns:inkscape="http://www.inkscape.org/namespaces/inkscape"
   xmlns:sodipodi="http://sodipodi.sourceforge.net/DTD/sodipodi-0.dtd"
   xmlns="http://www.w3.org/2000/svg"
   xmlns:svg="http://www.w3.org/2000/svg">
  <sodipodi:namedview
     id="namedview1"
     pagecolor="#ffffff"
     bordercolor="#000000"
     borderopacity="0.25"
     inkscape:showpageshadow="2"
     inkscape:pageopacity="0.0"
     inkscape:pagecheckerboard="0"
     inkscape:deskcolor="#d1d1d1"
     inkscape:document-units="px"
     inkscape:zoom="13.588235"
     inkscape:cx="44.560606"
     inkscape:cy="43.898269"
     inkscape:window-width="2256"
     inkscape:window-height="1427"
     inkscape:window-x="0"
     inkscape:window-y="0"
     inkscape:window-maximized="1"
     inkscape:current-layer="svg1" />
  <path
     style="fill:#000000"
     d="M 60.418,4.1680155 H 33.336 C 24.312171,4.1680155 26.043,2.948338 26.043,11.461016 V 18.754016 H 33.336 V 11.461016 H 60.418 V 18.754016 H 67.711 V 11.461016 C 67.711,3.0259311 69.445829,4.1680155 60.418,4.1680155 Z"
     id="path1" />
  <defs
     id="defs1" />
  <path
     style="fill:#000000"
     d="M 85.418,89.581985 H 75 V 20.831985 H 85.418 Z"
     id="path14" />
  <path
     style="fill:#000000"
     d="M 18.75,89.581985 H 8.332 V 20.831985 H 18.75 Z"
     id="path13" />
  <path
     style="fill:#000000"
     d="M 87.5,16.667985 V 18.812485 C 87.15625,18.769516 86.8125,18.749985 86.457,18.749985 H 72.914 V 16.667985 C 72.914,15.523485 73.8515,14.585985 74.996,14.585985 H 85.414 C 86.5585,14.585985 87.496,15.523485 87.496,16.667985 Z"
     id="path12" />
  <path
     style="fill:#000000"
     d="M 20.832,16.667985 V 18.749985 H 7.289 C 6.93353,18.749985 6.58978,18.769516 6.246,18.812485 V 16.667985 C 6.246,15.523485 7.1835,14.585985 8.328,14.585985 H 18.746 C 19.8905,14.585985 20.828,15.523485 20.828,16.667985 Z"
     id="path11" />
  <path
     style="fill:#000000"
     d="M 93.75,35.417985 V 74.999985 H 87.5 V 35.417985 Z"
     id="path10" />
  <path
     style="fill:#000000"
     d="M 20.832,35.417985 H 72.914 V 74.999985 H 20.832 Z"
     id="path9" />
  <path
     style="fill:#000000"
     d="M 0,35.417985 H 6.25 V 74.999985 H 0 Z"
     id="path8" />
  <path
     style="fill:#000000"
     d="M 93.75,77.081985 V 82.288984 C 93.75,85.956985 91.0312,88.995984 87.5,89.495984 V 77.077985 H 93.75 Z"
     id="path7" />
  <path
     style="fill:#000000"
     d="M 20.832,77.081985 H 72.914 V 89.581985 H 20.832 Z"
     id="path6" />
  <path
     style="fill:#000000"
     d="M 0,77.081985 H 6.25 V 89.499985 C 2.7188,88.999985 0,85.956985 0,82.292984 Z"
     id="path5" />
  <path
     style="fill:#000000"
     d="M 93.75,28.128985 V 33.335985 H 87.5 V 20.917985 C 91.0312,21.417985 93.75,24.460985 93.75,28.124985 Z"
     id="path4" />
  <path
     style="fill:#000000"
     d="M 20.832,20.835985 H 72.914 V 33.335985 L 20.832,33.332078 V 20.832078 Z"
     id="path3" />
  <path
     style="fill:#000000"
     d="M 6.25,20.918016 V 33.336016 L 0,33.332109 V 28.125109 C 0,24.457109 2.7188,21.418109 6.25,20.918109 Z"
     id="path2" />
</svg>
