<?xml version="1.0" encoding="UTF-8" standalone="no"?>
<!-- Created with Inkscape (http://www.inkscape.org/) -->

<svg
   width="40"
   height="40"
   viewBox="0 0 40 39.999999"
   version="1.1"
   id="svg1"
   inkscape:version="1.4.2 (ebf0e940d0, 2025-05-08)"
   sodipodi:docname="bullet.svg"
   xmlns:inkscape="http://www.inkscape.org/namespaces/inkscape"
   xmlns:sodipodi="http://sodipodi.sourceforge.net/DTD/sodipodi-0.dtd"
   xmlns="http://www.w3.org/2000/svg"
   xmlns:svg="http://www.w3.org/2000/svg">
  <sodipodi:namedview
     id="namedview1"
     pagecolor="#ffffff"
     bordercolor="#000000"
     borderopacity="0.25"
     inkscape:showpageshadow="2"
     inkscape:pageopacity="0.0"
     inkscape:pagecheckerboard="0"
     inkscape:deskcolor="#d1d1d1"
     inkscape:document-units="px"
     inkscape:zoom="9.6083333"
     inkscape:cx="20.08673"
     inkscape:cy="13.998265"
     inkscape:window-width="2256"
     inkscape:window-height="1427"
     inkscape:window-x="0"
     inkscape:window-y="0"
     inkscape:window-maximized="1"
     inkscape:current-layer="svg1" />
  <defs
     id="defs1" />
  <path
     style="fill:#000000"
     d="M 16.907,17.305 H 23.096 C 23.891,17.305 24.541,17.953 24.541,18.748 L 24.539,30.976 H 24.865 C 25.566,30.976 26.14,31.552 26.14,32.254 V 32.254 C 26.14,32.956 25.566,33.53 24.865,33.53 H 15.135 C 14.436,33.53 13.86,32.956 13.86,32.254 V 32.254 C 13.86,31.552 14.436,30.976 15.135,30.976 H 15.461 V 18.748 C 15.462,17.953 16.112,17.305 16.907,17.305 Z"
     id="path5" />
  <path
     style="fill:#000000"
     d="M 15.772,15.499 C 15.772,15.499 16.03,8.844 20.001,6.47 23.976,8.844 24.233,15.499 24.233,15.499 Z"
     id="path4" />
</svg>
