<?xml version="1.0" encoding="UTF-8" standalone="no"?>
<!-- Created with Inkscape (http://www.inkscape.org/) -->

<svg
   width="95.984001"
   height="95.984001"
   viewBox="0 0 95.984001 95.984001"
   version="1.1"
   id="svg1"
   inkscape:version="1.4.2 (ebf0e940d0, 2025-05-08)"
   sodipodi:docname="bunkerrifle.svg"
   xmlns:inkscape="http://www.inkscape.org/namespaces/inkscape"
   xmlns:sodipodi="http://sodipodi.sourceforge.net/DTD/sodipodi-0.dtd"
   xmlns="http://www.w3.org/2000/svg"
   xmlns:svg="http://www.w3.org/2000/svg">
  <sodipodi:namedview
     id="namedview1"
     pagecolor="#ffffff"
     bordercolor="#000000"
     borderopacity="0.25"
     inkscape:showpageshadow="2"
     inkscape:pageopacity="0.0"
     inkscape:pagecheckerboard="0"
     inkscape:deskcolor="#d1d1d1"
     inkscape:document-units="px"
     inkscape:zoom="9.6083333"
     inkscape:cx="52.038161"
     inkscape:cy="51.049436"
     inkscape:window-width="2256"
     inkscape:window-height="1427"
     inkscape:window-x="0"
     inkscape:window-y="0"
     inkscape:window-maximized="1"
     inkscape:current-layer="svg1" />
  <defs
     id="defs1" />
  <path
     id="path1"
     d="M 93.37839,11.083665 92.44675,11.571946 90.686981,13.448899 46.86081,36.314134 39.989716,41.259446 C 39.671357,41.235521 39.419404,41.233568 39.1987,41.140306 38.983857,41.022629 38.733857,40.653977 38.733857,40.653977 L 37.946747,41.202806 38.696747,42.628587 23.384247,57.351243 C 22.288544,58.404466 21.290497,55.92009 19.942841,56.857102 L 0.5190125,70.900071 C 0.5190125,70.900071 -0.3638002,71.63054 0.1733093,72.652024 0.7084655,73.674485 7.362763,84.345384 7.362763,84.345384 7.362763,84.345384 8.061981,85.934739 9.591278,83.734056 11.132293,81.525072 25.081513,64.96843 25.081513,64.96843 25.081513,64.96843 26.554168,63.794114 27.921357,63.517259 29.290496,63.238938 30.07956,63.247727 30.07956,63.247727 30.07956,63.247727 31.284638,63.056321 31.243622,61.81218 31.194794,60.47722 33.638154,57.644212 37.409638,54.169602 L 37.534638,54.372727 C 38.032685,55.280442 39.200654,55.608078 40.114716,55.089524 L 44.913544,52.398118 C 45.82956,51.879076 46.155732,50.712572 45.6362,49.796556 45.36081,49.308275 44.958466,48.465013 44.608857,48.054368 48.606903,44.864427 53.083465,41.558763 57.419403,38.612962 L 86.257294,23.482102 85.296357,21.648118 C 85.058074,21.120775 84.759247,20.628098 84.595185,20.31218 L 84.468231,20.071946 61.565888,32.087571 C 61.866669,31.603196 62.397919,31.112473 63.2612,30.640306 74.163544,24.901048 85.0737,19.17888 95.98386,13.454759 L 94.84128,11.275071 93.77292,11.835618 Z M 17.185028,63.027024 C 17.753042,63.031918 18.249837,63.29446 18.563935,63.987962 19.410952,65.858109 18.703364,67.40254 18.151825,68.210618 L 18.153778,68.212571 18.134247,68.236009 C 18.131941,68.239343 18.130688,68.240513 18.128388,68.243821 17.88097,68.599706 17.67804,68.796317 17.663544,68.810227 17.663044,68.810708 17.653806,68.819967 17.653778,68.819993 L 8.647919,79.78679 4.048309,72.275071 13.130341,65.327806 13.128388,65.325852 C 13.128388,65.325852 15.479822,63.012331 17.185028,63.027024 Z" />
</svg>
