<?xml version="1.0" encoding="UTF-8" standalone="no"?>
<!-- Created with Inkscape (http://www.inkscape.org/) -->

<svg
   width="48.346001"
   height="48.346001"
   viewBox="0 0 48.346 48.346"
   version="1.1"
   id="svg1"
   inkscape:version="1.4.2 (ebf0e940d0, 2025-05-08)"
   sodipodi:docname="bushcraft.svg"
   xmlns:inkscape="http://www.inkscape.org/namespaces/inkscape"
   xmlns:sodipodi="http://sodipodi.sourceforge.net/DTD/sodipodi-0.dtd"
   xmlns="http://www.w3.org/2000/svg"
   xmlns:svg="http://www.w3.org/2000/svg">
  <sodipodi:namedview
     id="namedview1"
     pagecolor="#ffffff"
     bordercolor="#000000"
     borderopacity="0.25"
     inkscape:showpageshadow="2"
     inkscape:pageopacity="0.0"
     inkscape:pagecheckerboard="0"
     inkscape:deskcolor="#d1d1d1"
     inkscape:document-units="px"
     inkscape:zoom="9.6083333"
     inkscape:cx="0.98872507"
     inkscape:cy="56.981787"
     inkscape:window-width="2256"
     inkscape:window-height="1427"
     inkscape:window-x="0"
     inkscape:window-y="0"
     inkscape:window-maximized="1"
     inkscape:current-layer="svg1" />
  <defs
     id="defs1" />
  <path
     d="M 4.2360157,18.751423 C 7.7290157,18.751423 11.488016,17.076423 14.294016,14.272423 17.105016,11.460423 18.780016,7.6944227 18.774016,4.1974225 18.774016,3.8094225 18.997016,3.4564225 19.348016,3.2914225 29.113016,-1.3125775 39.181016,-1.0585775 47.858016,4.0404225 47.907016,4.0694225 47.943016,4.1114225 47.986016,4.1474225 48.009016,4.1664225 48.037016,4.1734225 48.058016,4.1954225 48.066016,4.2044225 48.069016,4.2154225 48.077016,4.2234225 48.157016,4.3094225 48.222016,4.4044225 48.267016,4.5104225 48.269016,4.5164225 48.275016,4.5224225 48.278016,4.5284225 48.322016,4.6384225 48.342016,4.7574225 48.346016,4.8774225 48.347016,4.9174225 48.337016,4.9554225 48.333016,4.9954225 48.327016,5.0564225 48.330016,5.1164225 48.313016,5.1764225 48.308016,5.1954225 48.294016,5.2094225 48.288016,5.2284225 48.271016,5.2764225 48.245016,5.3194225 48.221016,5.3654225 48.188016,5.4254225 48.155016,5.4804225 48.111016,5.5314225 48.090016,5.5554225 48.082016,5.5874225 48.058016,5.6104225 L 5.6320157,48.037423 C 5.6150157,48.055423 5.5920157,48.060423 5.5740157,48.076423 5.5130157,48.129423 5.4470157,48.171423 5.3740157,48.209423 5.3330157,48.230423 5.2950157,48.252423 5.2520157,48.267423 5.2330157,48.274423 5.2180157,48.287423 5.1980157,48.292423 5.1080157,48.315423 5.0160157,48.328423 4.9250157,48.328423 4.8100157,48.328423 4.6980157,48.302423 4.5920157,48.264423 4.5650157,48.254423 4.5400157,48.243423 4.5140157,48.232423 4.4070157,48.183423 4.3060157,48.122423 4.2220157,48.038423 4.2210157,48.037423 4.2200157,48.037423 4.2190157,48.036423 4.2160157,48.033423 4.2150157,48.028423 4.2120157,48.025423 4.1570157,47.968423 4.1060157,47.906423 4.0640157,47.836423 -1.0869843,39.070423 -1.3469843,29.212423 3.3150157,19.325423 3.4790157,18.974423 3.8490157,18.751423 4.2360157,18.751423 Z M 44.915016,5.9254225 C 34.697016,6.2944225 25.117016,10.479423 17.810016,17.786423 10.477016,25.119423 6.3220157,34.668423 5.9500157,44.890423 Z M 4.0250157,43.297423 C 4.7530157,33.144423 9.0640157,23.703423 16.395016,16.372423 23.700016,9.0674227 33.165016,4.7414225 43.321016,4.0044225 36.270016,1.0834225 28.442016,1.3744225 20.759016,4.8414225 20.574016,8.6684227 18.717016,12.677423 15.708016,15.686423 12.706016,18.688423 8.7030157,20.545423 4.8650157,20.735423 1.3580157,28.499423 1.0830157,36.216423 4.0250157,43.297423 Z"
     id="path1"
     style="fill:#000000" />
</svg>
