<?xml version="1.0" encoding="UTF-8" standalone="no"?>
<!-- Created with Inkscape (http://www.inkscape.org/) -->

<svg
   width="88.554001"
   height="88.554001"
   viewBox="0 0 88.554001 88.554"
   version="1.1"
   id="svg1"
   inkscape:version="1.4.2 (ebf0e940d0, 2025-05-08)"
   sodipodi:docname="camera.svg"
   xmlns:inkscape="http://www.inkscape.org/namespaces/inkscape"
   xmlns:sodipodi="http://sodipodi.sourceforge.net/DTD/sodipodi-0.dtd"
   xmlns="http://www.w3.org/2000/svg"
   xmlns:svg="http://www.w3.org/2000/svg">
  <sodipodi:namedview
     id="namedview1"
     pagecolor="#ffffff"
     bordercolor="#000000"
     borderopacity="0.25"
     inkscape:showpageshadow="2"
     inkscape:pageopacity="0.0"
     inkscape:pagecheckerboard="0"
     inkscape:deskcolor="#d1d1d1"
     inkscape:document-units="px"
     inkscape:zoom="9.6083333"
     inkscape:cx="43.972246"
     inkscape:cy="43.972246"
     inkscape:window-width="2256"
     inkscape:window-height="1427"
     inkscape:window-x="0"
     inkscape:window-y="0"
     inkscape:window-maximized="1"
     inkscape:current-layer="svg1" />
  <defs
     id="defs1" />
  <path
     d="M 27.7771,10.7031 30.906,2.7617 C 31.56225,1.0976 33.1716,0 34.9607,0 H 53.1947 C 54.9291,0 56.4994,1.0312 57.1908,2.6211 L 60.7025,10.6992 H 27.7765 Z M 34.0701,42.0581 C 34.0701,36.4448 38.6365,31.8821 44.2461,31.8821 44.89454,31.8821 45.418,31.35866 45.418,30.7102 45.418,30.06176 44.89456,29.5383 44.2461,29.5383 37.3399,29.5383 31.7261,35.1555 31.7261,42.0583 31.7261,42.70674 32.24954,43.2302 32.898,43.2302 33.54646,43.2302 34.0699,42.70676 34.0699,42.0583 Z M 0.32010064,29.3741 V 20.1944 C 0.32010064,16.2647 3.5349006,13.046 7.4685006,13.046 H 81.0855 C 85.0152,13.046 88.2339,16.2608 88.2339,20.1944 V 29.3741 H 65.7729 C 61.4174,22.0186 53.4059,17.0691 44.2529,17.0691 35.1006,17.0691 27.0889,22.0144 22.7329,29.3741 Z M 68.8941,21.7413 C 68.8941,23.8272 70.5855,25.5186 72.6714,25.5186 74.7573,25.5186 76.4487,23.8272 76.4487,21.7413 76.4487,19.6554 74.7573,17.964 72.6714,17.964 70.5855,17.964 68.8941,19.6554 68.8941,21.7413 Z M 10.2771,22.9444 C 10.2771,24.1827 11.281,25.1866 12.5193,25.1866 H 17.949 C 19.1873,25.1866 20.1912,24.1827 20.1912,22.9444 V 21.4717 C 20.1912,20.2334 19.1873,19.2295 17.949,19.2295 H 12.5193 C 11.281,19.2295 10.2771,20.2334 10.2771,21.4717 Z M 66.8941,42.0574 C 66.8941,54.5454 56.7341,64.7054 44.2491,64.7054 31.7611,64.7054 21.6011,54.5454 21.6011,42.0574 21.6011,29.5694 31.7611,19.4124 44.2491,19.4124 56.7371,19.4124 66.8941,29.5724 66.8941,42.0574 Z M 61.355,42.0574 C 61.355,32.6121 53.6948,24.9524 44.25,24.9524 34.8047,24.9524 27.145,32.6126 27.145,42.0574 27.145,51.5022 34.8052,59.1624 44.25,59.1624 53.6953,59.1624 61.355,51.5022 61.355,42.0574 Z M 76.793,10.7024 V 8.2454 C 76.793,7.0852 75.8555,6.1477 74.6953,6.1477 H 68.1641 C 67.0039,6.1477 66.0664,7.0852 66.0664,8.2454 V 10.7024 Z M 65.738,72.3074 V 80.0808 H 22.812 V 72.3074 H 16.4175 V 85.5184 C 16.4175,87.1942 17.773,88.5536 19.4527,88.5536 H 69.1007 C 70.7765,88.5536 72.1359,87.1942 72.1359,85.5184 V 72.3074 H 65.7414 Z M 66.9919,31.7174 C 68.4333,34.8697 69.2419,38.3697 69.2419,42.0574 69.2419,55.8384 58.0309,67.0494 44.2539,67.0494 30.4769,67.0494 19.2619,55.8384 19.2619,42.0574 19.2619,38.3699 20.07049,34.8699 21.5119,31.7174 H 0.32090064 V 70.1744 C 0.32090064,74.1041 3.5357006,77.3228 7.4693006,77.3228 H 14.0748 V 72.3072 H 12.4615 C 11.81306,72.3072 11.2896,71.78376 11.2896,71.1353 11.2896,70.48684 11.81304,69.9634 12.4615,69.9634 H 76.0905 C 76.73894,69.9634 77.2624,70.48684 77.2624,71.1353 77.2624,71.78376 76.73896,72.3072 76.0905,72.3072 H 74.4772 V 77.3228 H 81.0827 C 85.0124,77.3228 88.2311,74.108 88.2311,70.1744 V 31.7174 Z"
     id="path1"
     style="fill:#000000" />
</svg>
