<?xml version="1.0" encoding="UTF-8" standalone="no"?>
<!-- Created with Inkscape (http://www.inkscape.org/) -->

<svg
   width="705"
   height="705"
   viewBox="0 0 705 705"
   version="1.1"
   id="svg1"
   inkscape:version="1.4.2 (ebf0e940d0, 2025-05-08)"
   sodipodi:docname="cedar.svg"
   xml:space="preserve"
   xmlns:inkscape="http://www.inkscape.org/namespaces/inkscape"
   xmlns:sodipodi="http://sodipodi.sourceforge.net/DTD/sodipodi-0.dtd"
   xmlns="http://www.w3.org/2000/svg"
   xmlns:svg="http://www.w3.org/2000/svg"><sodipodi:namedview
     id="namedview1"
     pagecolor="#ffffff"
     bordercolor="#000000"
     borderopacity="0.25"
     inkscape:showpageshadow="2"
     inkscape:pageopacity="0.0"
     inkscape:pagecheckerboard="0"
     inkscape:deskcolor="#d1d1d1"
     inkscape:document-units="px"
     inkscape:zoom="0.30026042"
     inkscape:cx="679.41023"
     inkscape:cy="867.58023"
     inkscape:window-width="2256"
     inkscape:window-height="1427"
     inkscape:window-x="0"
     inkscape:window-y="0"
     inkscape:window-maximized="1"
     inkscape:current-layer="svg1" /><defs
     id="defs1"><filter
       color-interpolation-filters="sRGB"
       filterUnits="userSpaceOnUse"
       height="209.701"
       id="a"
       width="229.056"
       x="35.472099"
       y="45.149601"><feGaussianBlur
         in="SourceGraphic"
         result="Blur"
         stdDeviation="0.0966742"
         id="feGaussianBlur1" /></filter></defs><path
     style="fill:#000000"
     d="M 152.73813,672.68007 C 121.97092,667.54148 79.357121,633.20386 46.750351,587.27655 33.058781,567.9917 24.114521,549.47846 13.976621,519.44 4.6582607,491.82984 1.4033807,475.51766 1.4033807,456.42796 1.4033807,439.05663 2.9632307,428.86066 6.1273507,425.54967 11.810111,419.60312 19.395461,419.48074 30.811441,425.15143 44.049651,431.72728 58.783701,446.42631 75.221941,469.45639 90.250711,490.51177 106.06432,520.04606 117.42479,548.27655 123.74871,563.99132 136.71254,602.76929 139.4262,614.08808 142.70185,627.75099 141.53357,641.63815 136.96087,643.39286 133.95313,644.54704 126.44365,638.61708 110.58411,622.5641 93.083931,604.85048 88.351731,599.21145 78.873341,584.77655 62.929511,560.49529 50.734411,531.25148 47.411761,509.33181 45.839931,498.9624 46.691461,493.64232 50.538821,489.79496 54.592521,485.74126 57.585141,485.92542 62.427111,490.52655 68.649581,496.43952 92.856951,531.24611 98.418311,542.27655 105.57476,556.47068 109.69192,576.63234 106.05107,579.65398 101.03092,583.82033 82.816861,558.27598 77.795261,540.02655 76.695791,536.03088 75.553431,533.77655 74.628141,533.77655 71.451941,533.77655 77.155861,550.69383 84.500251,563.05627 89.652281,571.72842 99.769751,582.35918 103.8221,583.35838 116.0955,586.38467 110.15134,552.15053 94.309191,528.57082 89.762541,521.80352 75.507341,501.63387 69.142791,492.96295 62.070551,483.32789 55.308781,481.28668 48.952121,486.8679 44.412661,490.8536 42.990291,496.0356 43.762051,505.77655 45.697571,530.20627 63.472951,570.67315 84.393381,598.27655 93.711981,610.57196 124.63277,641.751 130.47439,644.74244 139.69362,649.46352 144.40885,644.32355 144.39637,629.56639 144.3879,619.54284 142.50083,611.40314 134.36027,586.27655 116.27035,530.44032 94.691101,487.75882 67.513531,454.06064 44.507151,425.53444 21.291371,412.06056 8.5406007,419.83418 6.6910707,420.96176 4.9882807,421.69479 4.7566307,421.46313 4.0508507,420.75735 6.3560507,411.75734 8.5472307,406.6638 10.285751,402.6225 11.302261,401.59868 14.965021,400.19986 20.723101,398.00083 24.392061,398.77749 35.742981,404.59825 88.484271,431.64401 147.88289,518.95408 168.86647,600.27655 176.31811,629.15556 177.35849,649.08482 172.14524,663.08351 168.00602,674.1982 166.44618,674.96952 152.73813,672.68007 Z M 181.70593,663.43051 C 183.59115,658.5177 184.61457,647.24958 184.186,636.12442 183.92438,629.33309 184.0084,623.77655 184.37271,623.77655 184.73702,623.77655 186.09874,621.86405 187.39874,619.52655 195.72245,604.55996 212.04367,582.59973 226.19955,567.32002 260.22501,530.59327 307.21986,500.29693 348.90338,488.21609 363.9137,483.86575 407.58477,473.17618 406.2913,474.16898 405.49765,474.77814 393.50969,484.38905 379.65139,495.52655 365.79309,506.66405 353.74128,515.77655 352.86959,515.77655 350.05028,515.77655 323.23679,526.81995 311.20033,532.93844 269.84878,553.95867 240.67443,584.20375 206.95404,641.01069 201.73452,649.80375 200.34096,651.35994 192.53964,657.10737 181.61864,665.15315 180.8793,665.58466 181.70593,663.43051 Z M 226.85968,626.77655 C 229.22155,622.64292 241.3322,605.44257 246.22225,599.27655 266.72343,573.42594 286.73554,556.38992 312.47236,542.87884 325.88345,535.8384 332.68865,532.85717 330.40338,535.02359 329.57838,535.80568 320.97151,543.02228 311.27699,551.06049 291.39388,567.54656 270.42772,586.312 244.00543,611.27085 234.10388,620.62398 226.3883,627.60155 226.85968,626.77655 Z M 179.94883,606.23107 C 179.57393,603.73106 178.68265,600.01856 177.96822,597.98107 176.73628,594.46774 176.86317,593.88948 180.42692,586.77655 188.49843,570.66653 202.65406,555.18808 233.90338,528.30283 244.90338,518.83901 258.17838,507.35945 263.40338,502.79269 284.22639,484.59293 297.34933,475.97769 316.79388,467.74171 338.96515,458.3508 355.71716,453.3019 416.80465,437.59942 465.27759,425.13949 461.85024,425.78638 457.26559,429.96273 435.97687,449.35553 424.5314,458.58754 419.90338,460.0994 417.15338,460.99777 401.85338,465.08578 385.90338,469.18389 357.33038,476.52527 332.62503,483.76089 322.21686,487.83616 312.47239,491.65157 288.81641,504.38869 277.07485,512.14204 241.9263,535.35181 208.28651,569.27631 186.95306,603.02655 184.25875,607.28905 181.73394,610.77655 181.34239,610.77655 180.95083,610.77655 180.32373,608.73108 179.94883,606.23107 Z M 166.72569,564.97664 C 163.12314,555.62963 161.01759,548.83853 161.52235,548.19409 161.98866,547.59874 163.94496,543.99874 165.86969,540.19409 170.37928,531.27992 194.26807,501.44333 208.29639,487.20404 229.21823,465.96755 252.34241,449.42715 281.40338,434.91162 329.44409,410.916 378.96544,398.74015 446.40338,394.34295 461.0031,393.39099 473.64355,391.95754 482.40338,390.26048 505.07284,385.86866 511.45165,385.91918 535.6456,390.68215 567.95525,397.04282 573.74094,397.84828 591.65338,398.47938 604.98401,398.94904 608.40338,399.35261 608.40338,400.45628 608.40338,401.21899 607.30166,404.01717 605.95512,406.67445 604.00333,410.52611 602.86266,411.63469 600.33012,412.1412 598.58291,412.49064 584.91458,412.77655 569.95605,412.77655 546.02745,412.77655 540.72427,412.47354 525.83105,410.25537 516.52083,408.86873 505.24497,407.80371 500.77359,407.88868 496.3022,407.97365 492.19973,407.76872 491.65699,407.43329 491.11426,407.09786 485.32266,408.6236 478.78679,410.82383 464.565,415.61143 441.85801,421.85241 399.40338,432.64224 350.61421,445.04199 330.98461,451.21646 308.11018,461.35844 288.7936,469.92295 281.66366,475.04641 242.78963,508.29679 202.70085,542.58619 184.99572,560.3146 176.19735,574.97664 L 172.77685,580.67673 Z M 150.74022,527.79773 145.57706,516.87894 151.80169,505.07775 C 162.7479,484.32494 170.16089,474.0128 185.33798,458.42575 212.33856,430.69582 245.46701,409.9531 293.48662,390.71062 332.51476,375.07121 415.03412,350.04709 441.42111,345.84927 462.88832,342.43411 572.36385,334.53292 574.20752,336.26565 574.37479,336.42287 569.47991,340.08963 563.33001,344.41402 557.1801,348.73841 549.73074,353.98254 546.77587,356.06765 543.821,358.15275 541.40338,360.19012 541.40338,360.59514 541.40338,362.37459 544.82715,365.93911 548.69948,368.19117 554.65371,371.65401 566.58783,374.41862 583.40338,376.23053 591.37838,377.08985 600.245,378.04402 603.10699,378.3509 608.65986,378.94632 608.66546,378.95278 609.89126,386.18586 L 610.55378,390.09518 594.22858,389.45492 C 576.61878,388.76428 569.91458,387.83988 538.3222,381.74628 512.56046,376.77731 507.10086,376.72594 479.79261,381.19553 467.38485,383.22632 453.21908,384.86275 444.90338,385.22593 363.75996,388.76975 285.30781,414.02997 232.57501,453.59194 219.07375,463.72105 204.86549,476.36545 196.23213,485.93468 180.7852,503.05609 162.31123,527.01863 157.9992,535.52655 157.09325,537.31405 156.25108,538.76304 156.1277,538.74654 156.00432,538.73003 153.57996,533.80307 150.74022,527.79773 Z M 135.40974,499.02655 C 129.29899,488.24263 113.77059,465.28987 105.6748,455.07487 93.691291,439.95449 94.628731,442.17782 98.521591,438.10952 103.47234,432.93566 111.01998,428.04428 129.4658,418.0556 172.06229,394.98898 219.32017,367.88662 235.90338,357.01373 247.42929,349.45669 251.17121,346.19985 268.90338,328.29164 292.53502,304.4254 298.37383,300.25516 342.40338,275.79591 384.30373,252.51947 392.93706,246.42377 424.28968,217.97874 454.67524,190.4111 463.58133,183.95812 514.90338,152.32388 577.88997,113.49978 596.68492,101.22409 620.22167,83.53655 628.09674,77.61855 634.91432,72.77655 635.37185,72.77655 636.86585,72.77655 650.54964,89.08422 655.97463,97.32993 658.88878,101.75929 662.92106,109.1315 664.93525,113.71261 668.30946,121.38695 678.17867,139.45115 680.73661,142.63476 681.54797,143.64459 681.43832,144.28585 680.30914,145.13476 678.5304,146.47201 648.4904,185.74168 632.98306,207.00158 610.37921,237.9905 596.22558,258.51433 593.20603,264.68129 588.96023,273.35265 588.89622,280.27366 592.98671,288.3941 596.59066,295.54866 599.71123,297.30179 613.02344,299.65068 L 622.70007,301.35808 613.30172,308.15808 C 608.13263,311.89808 600.65305,317.3481 596.68041,320.26924 L 589.45745,325.5804 579.18041,326.21927 C 573.52805,326.57064 558.32838,327.27545 545.40338,327.78551 519.33397,328.81429 449.93091,334.87236 435.90338,337.34358 419.08962,340.30564 395.72624,346.83602 345.90338,362.49977 266.34984,387.51052 217.22081,413.30483 181.43923,448.84868 166.50617,463.68253 152.71704,482.30669 144.28806,499.02655 142.13921,503.28905 140.25061,506.77655 140.09118,506.77655 139.93175,506.77655 137.8251,503.28905 135.40974,499.02655 Z M 447.75268,316.81007 C 455.16211,315.16174 466.77931,313.39263 473.56868,312.87872 500.26719,310.85782 534.46358,298.39576 552.14866,284.24212 565.4015,273.63567 574.34309,261.87124 596.20558,226.27655 601.27725,218.01927 609.2572,206.80147 613.95795,201.32118 623.15267,190.6017 627.47366,182.82263 629.86246,172.68835 632.97844,159.46908 630.77539,149.86568 623.52101,145.04508 611.26603,136.90153 586.7389,140.38259 555.54083,154.69329 549.69023,157.37699 543.10338,160.13076 540.90338,160.81277 525.81265,165.491 510.7748,176.16085 478.90338,204.80382 456.25838,225.15497 450.1352,229.61359 434.84484,236.88526 416.89138,245.42342 409.89117,250.27061 402.92331,258.98884 387.60324,278.15741 384.22796,297.20196 394.10558,308.74174 404.53388,320.92486 419.28432,323.14328 447.75268,316.81007 Z M 409.42136,308.6996 C 400.99197,304.87607 398.20338,300.60173 398.20338,291.50473 398.20338,282.56921 404.34794,270.64227 413.81218,261.2072 420.14751,254.8914 422.66216,253.26866 437.40338,245.98353 456.57373,236.50952 459.59973,234.3419 484.61297,212.1658 505.27451,193.84781 512.86822,187.57266 521.31585,181.83599 529.00056,176.6174 540.64574,170.77655 543.36557,170.77655 544.59156,170.77655 546.89534,169.85037 548.48507,168.71838 556.44546,163.05009 580.52603,153.80471 594.08768,151.20994 613.19785,147.55356 622.40338,151.11842 622.40338,162.17527 622.40338,167.20092 617.97065,180.51258 614.54424,185.77655 612.93322,188.25155 608.51176,193.76324 604.71877,198.02474 600.58506,202.66905 592.9149,213.75744 585.57182,225.70458 556.11205,273.63538 545.87416,282.99566 509.01586,295.69798 494.80593,300.59509 479.94185,303.7755 471.2463,303.77938 467.75769,303.78094 457.27287,305.35594 447.9467,307.27938 427.57417,311.48104 416.45686,311.89087 409.42136,308.6996 Z M 462.90338,293.83725 C 487.57969,287.89863 516.50439,273.45253 530.55734,260.04829 543.12339,248.06231 560.40338,215.37268 560.40338,203.58669 560.40338,199.64816 557.09938,193.67019 554.02943,192.05422 549.60298,189.72421 540.63533,190.11027 535.20953,192.86443 523.85987,198.62555 517.13591,204.39414 500.45897,222.67749 482.85908,241.97269 479.51641,244.60868 460.32822,254.32417 436.76715,266.25376 431.62522,271.32632 432.61819,281.66037 433.83534,294.32741 443.95675,298.39696 462.90338,293.83725 Z M 443.47596,284.14169 C 438.57441,277.91038 442.53616,273.86732 464.35966,262.82939 483.26262,253.26862 491.35759,247.09339 504.38836,232.29361 524.04231,209.9715 537.85697,199.27932 546.15629,199.96636 L 549.90338,200.27655 549.78561,206.05366 C 549.68842,210.82124 548.78093,213.65496 544.59239,222.2699 538.35149,235.1061 529.98164,247.91195 524.23055,253.42345 511.41547,265.70466 480.48838,280.78629 459.0298,285.21868 448.31431,287.43203 445.93452,287.26725 443.47596,284.14169 Z M 81.460711,427.33427 74.143891,419.96828 79.002111,414.77445 C 85.088301,408.26783 98.286151,399.48329 118.90338,388.21604 147.80914,372.41912 153.40045,367.8128 174.37384,342.51748 206.38488,303.91002 211.29126,293.85722 217.44075,254.27655 221.31961,229.3106 226.07657,216.8507 237.3372,202.1618 245.77689,191.15266 250.69209,185.77267 249.97053,188.33384 249.65175,189.46535 247.8346,197.79035 245.93243,206.83384 239.37443,238.01247 236.90848,245.97368 227.98497,264.77655 223.41711,274.40155 218.8324,284.75155 217.79674,287.77655 215.24022,295.24366 215.17502,309.92684 217.67799,314.51713 222.74263,323.80538 233.69306,323.28062 247.12891,313.10581 252.87077,308.75756 268.22007,292.51363 277.67765,280.77655 292.82661,261.97632 295.96807,244.05051 287.31888,225.7618 L 284.38058,219.54876 289.03831,215.41266 C 296.06051,209.17688 295.90794,209.17395 297.68866,215.57886 302.99142,234.65183 326.30207,246.76097 347.34021,241.37125 350.85847,240.46991 357.08983,237.88167 361.18768,235.61961 378.15984,226.25077 392.56049,213.11812 424.17433,178.17903 445.22044,154.91921 452.50088,147.87255 465.90338,137.78989 478.84242,128.05589 491.16251,120.51399 514.95974,107.75941 567.56274,79.56584 584.09757,69.45456 601.16823,55.04168 L 606.43309,50.59653 609.9647,52.68023 C 615.0696,55.69219 627.40338,65.01159 627.40338,65.85688 627.40338,67.29397 602.59778,85.29028 580.02125,100.23232 567.30642,108.64749 542.05338,124.64054 523.90338,135.77243 463.35974,172.90549 447.75556,183.96413 419.37667,209.85019 386.70861,239.64866 380.61251,243.92907 333.44193,270.18968 292.054,293.23101 287.47222,296.539 263.40338,320.75668 237.60333,346.71627 234.85691,348.61153 172.40338,383.55443 156.17838,392.63236 135.54632,404.05952 126.55436,408.94813 108.13859,418.96014 99.982451,424.23767 93.340461,430.43963 L 88.777541,434.70025 Z M 57.403381,407.19926 C 47.361331,399.60994 30.648601,390.87223 24.653381,390.07697 22.315881,389.7669 20.419431,389.23496 20.439041,388.89488 20.481841,388.15276 40.109101,374.57751 42.594101,373.57126 43.552071,373.18335 52.563561,371.02881 62.619621,368.78338 91.131561,362.41694 108.29676,356.06246 126.90338,344.98585 149.26639,331.67304 168.84235,310.7998 178.97484,289.46365 184.6619,277.48832 185.00242,270.72453 180.88964,251.42983 L 179.21707,243.5831 181.81022,237.80478 C 183.23646,234.6267 184.40338,230.57268 184.40338,228.79585 184.40338,222.80456 181.38269,213.84801 175.81289,203.32447 L 170.27355,192.85848 172.29717,188.28374 C 173.84082,184.79406 175.20323,183.3403 178.04121,182.15451 181.64071,180.65055 181.82123,180.67602 183.59568,182.93829 185.51897,185.39031 191.15279,196.45585 193.95055,203.27655 L 195.59129,207.27655 199.01243,198.27655 C 203.97263,185.22773 203.96046,185.24493 215.11804,175.50597 229.73937,162.74366 234.13272,155.54318 239.35888,135.77655 L 242.135,125.27655 248.01919,125.48915 C 254.55939,125.72545 263.12677,127.51998 263.93157,128.82216 264.5873,129.88316 256.88352,161.22025 254.96977,165.27655 254.19131,166.92655 248.5527,174.07073 242.43952,181.15251 218.23253,209.195 214.18835,217.80642 207.93465,254.62498 205.94031,266.36661 203.21616,279.41661 201.88099,283.62498 197.43238,297.64663 186.94962,313.27174 163.1861,341.30175 145.51111,362.1501 140.42062,366.12168 111.12165,381.9223 92.861851,391.76961 82.116711,399.01206 73.936791,406.98567 70.105171,410.72065 66.730171,413.74204 66.436791,413.69986 66.143421,413.65768 62.078381,410.73241 57.403381,407.19926 Z M 68.386481,355.9741 C 69.752191,355.04045 73.580531,352.21021 76.893901,349.68469 80.207281,347.15916 93.264881,337.98461 105.9108,329.29679 134.05916,309.95872 140.71483,304.8637 150.71637,294.99744 158.57187,287.24819 161.47737,282.42269 169.45828,263.87057 170.66354,261.06886 172.01187,258.77655 172.45457,258.77655 173.66379,258.77655 174.73778,269.30528 174.0881,274.79075 172.96478,284.27546 162.58269,301.46904 150.1687,314.40322 131.71063,333.63474 106.03235,348.27297 78.521511,355.24661 66.954261,358.17875 64.951301,358.32252 68.386481,355.9741 Z M 225.3668,308.16572 C 222.9728,300.91183 225.51903,291.75378 236.26435,268.97035 240.07586,260.88876 243.46379,253.36778 243.7931,252.25706 244.1224,251.14635 246.07061,249.34635 248.12245,248.25706 252.25762,246.06178 269.08853,233.26824 274.132,228.48664 L 277.36062,225.42566 279.49883,230.25943 C 286.68717,246.50987 283.41491,259.87141 267.72763,278.32444 249.35407,299.93734 235.76289,311.74423 229.23093,311.76717 227.04444,311.77484 226.34179,311.11996 225.3668,308.16572 Z M 629.40338,293.64485 C 628.02838,293.09214 622.34258,291.81416 616.76826,290.8049 611.19394,289.79564 605.64335,288.44016 604.4336,287.79272 601.72168,286.34135 599.40338,281.03028 599.40338,276.26883 599.40338,270.20766 599.7367,269.68085 633.56437,222.27655 650.04033,199.18801 684.6254,153.53588 685.98387,153.08305 687.39137,152.61389 696.80263,172.56087 699.28595,181.27655 703.85212,197.30237 704.89874,215.67132 701.90693,227.27655 697.63574,243.84451 686.87419,257.95052 667.40338,272.50308 660.55614,277.62073 633.68223,294.79919 632.65802,294.71316 632.24297,294.6783 630.77838,294.19756 629.40338,293.64485 Z M 328.78689,232.36477 C 312.49412,228.41077 301.27778,212.32655 306.69848,200.69002 308.38265,197.07464 330.06789,176.73677 342.51984,167.09434 348.23079,162.67195 355.73289,156.51629 359.19118,153.41509 362.64947,150.31389 365.82862,147.77655 366.25597,147.77655 366.68331,147.77655 367.78549,149.35463 368.70525,151.28339 371.14761,156.40507 375.65208,158.77339 382.90338,158.74837 399.08094,158.69253 411.29842,151.99289 437.40338,128.86249 449.26807,118.34973 467.17814,105.83392 482.90338,97.06643 487.85338,94.30659 508.10338,83.91653 527.90338,73.97741 562.33488,56.69362 564.30943,55.5492 573.22303,47.71075 L 582.54268,39.51523 589.46722,42.23198 C 593.27572,43.72619 596.57493,45.24749 596.79881,45.61264 597.82566,47.28747 571.12386,66.19104 553.90338,75.98049 549.50338,78.48179 533.63754,87.10122 518.64597,95.13477 487.9431,111.58755 475.87063,118.86822 460.97827,129.91302 447.60679,139.82987 439.39084,147.63234 421.10817,167.77655 381.16632,211.78529 362.37728,227.68316 344.93882,232.2253 338.00383,234.03164 335.73605,234.05122 328.78689,232.36477 Z M 208.40338,150.46594 C 208.40338,136.92714 208.73584,131.74709 209.65338,130.98994 211.5573,129.41883 222.30454,126.10098 227.73097,125.40908 L 232.55856,124.79354 231.87119,128.03505 C 228.41112,144.3522 221.25559,158.37903 212.8983,165.2272 L 208.40338,168.91045 Z M 378.80308,149.07832 C 377.02598,147.78337 375.40338,144.10394 375.40338,141.3691 375.40338,139.38059 378.3209,136.18561 388.861,126.63165 405.95246,111.13929 417.44283,102.54784 436.05962,91.34087 461.43115,76.06767 469.37951,70.55577 486.01592,56.69797 512.78908,34.39646 519.83211,31.27655 543.40338,31.27655 554.29402,31.27655 559.71897,31.74165 565.19723,33.14501 569.20884,34.17267 572.35884,35.34802 572.19723,35.7569 572.03561,36.16578 568.97838,39.05872 565.40338,42.18566 560.01083,46.90234 552.34386,51.17688 520.40338,67.27439 465.95465,94.71569 452.8995,102.8056 429.40338,123.66453 416.10228,135.47272 402.82463,144.7597 395.80626,147.16385 390.04905,149.13599 380.37676,150.22504 378.80308,149.07832 Z"
     id="path1" /></svg>
