<?xml version="1.0" encoding="UTF-8" standalone="no"?>
<!-- Created with Inkscape (http://www.inkscape.org/) -->

<svg
   width="36"
   height="36"
   viewBox="0 0 36 36"
   version="1.1"
   id="svg1"
   inkscape:version="1.4.2 (ebf0e940d0, 2025-05-08)"
   sodipodi:docname="chest.svg"
   xmlns:inkscape="http://www.inkscape.org/namespaces/inkscape"
   xmlns:sodipodi="http://sodipodi.sourceforge.net/DTD/sodipodi-0.dtd"
   xmlns="http://www.w3.org/2000/svg"
   xmlns:svg="http://www.w3.org/2000/svg">
  <sodipodi:namedview
     id="namedview1"
     pagecolor="#ffffff"
     bordercolor="#000000"
     borderopacity="0.25"
     inkscape:showpageshadow="2"
     inkscape:pageopacity="0.0"
     inkscape:pagecheckerboard="0"
     inkscape:deskcolor="#d1d1d1"
     inkscape:document-units="px"
     inkscape:zoom="9.6083333"
     inkscape:cx="64.006939"
     inkscape:cy="68.950564"
     inkscape:window-width="2256"
     inkscape:window-height="1427"
     inkscape:window-x="0"
     inkscape:window-y="0"
     inkscape:window-maximized="1"
     inkscape:current-layer="svg1" />
  <defs
     id="defs1" />
  <path
     d="M 32.86586,31.23527 H 35.36473 A 0.63719,0.63719 0 0 0 36,30.59998 V 28.10113 A 3.58313,3.58313 0 0 0 33.94588,29.11763 3.64874,3.64874 0 0 0 32.86586,31.23527 Z"
     id="path1"
     style="fill:#000000" />
  <path
     d="M 0,28.10113 V 30.59998 A 0.63719,0.63719 0 0 0 0.63527,31.23531 H 3.13414 A 3.64874,3.64874 0 0 0 2.05414,29.11767 3.58313,3.58313 0 0 0 0,28.10113 Z"
     id="path2"
     style="fill:#000000" />
  <path
     d="M 4.2035,31.23527 H 31.7965 A 4.73545,4.73545 0 0 1 32.56942,29.11763 H 3.43058 A 4.73545,4.73545 0 0 1 4.2035,31.23527 Z"
     id="path3"
     style="fill:#000000" />
  <path
     d="M 22.23529,13.23527 V 16.60233 A 1.9341,1.9341 0 0 1 20.30823,18.52939 H 15.69177 A 1.9341,1.9341 0 0 1 13.76471,16.60233 V 13.23527 H 2.45648 A 4.64413,4.64413 0 0 1 0,14.2623 V 27.03171 A 4.64428,4.64428 0 0 1 2.45648,28.0588 H 33.54348 A 4.64428,4.64428 0 0 1 36,27.03171 V 14.2623 A 4.64413,4.64413 0 0 1 33.54352,13.2353 Z"
     id="path4"
     style="fill:#000000" />
  <path
     d="M 35.36473,10.0588 H 32.86586 A 3.64915,3.64915 0 0 0 33.94586,12.17645 3.58268,3.58268 0 0 0 36,13.19288 V 10.69407 A 0.63714,0.63714 0 0 0 35.36473,10.0588 Z"
     id="path5"
     style="fill:#000000" />
  <path
     d="M 31.7965,10.0588 H 22.23529 V 12.17645 H 32.56942 A 4.73606,4.73606 0 0 1 31.7965,10.0588 Z"
     id="path6"
     style="fill:#000000" />
  <path
     d="M 35.36473,4.76469 H 22.23529 V 8.99998 H 35.36473 A 1.583,1.583 0 0 1 36,9.12703 V 5.39998 A 0.63713,0.63713 0 0 0 35.36473,4.76469 Z"
     id="path7"
     style="fill:#000000" />
  <path
     d="M 15.69177,17.47057 H 20.30823 A 0.87216,0.87216 0 0 0 21.17647,16.60233 V 4.76469 H 14.82353 V 16.60233 A 0.87216,0.87216 0 0 0 15.69177,17.47057 Z M 15.893,13.21408 A 2.0428,2.0428 0 0 1 16.18944,12.17645 2.09634,2.09634 0 0 1 18.01065,11.11763 H 18.03185 A 2.10584,2.10584 0 0 1 19.83179,12.17645 2.01811,2.01811 0 0 1 20.1283,13.23527 V 13.25641 A 2.11692,2.11692 0 0 1 19.49296,14.74941 2.00916,2.00916 0 0 1 18.51886,15.27883 L 18.50826,16.00942 A 0.41135,0.41135 0 0 1 18.09537,16.41177 H 17.8518 A 0.41137,0.41137 0 0 1 17.44944,15.99877 L 17.46004,15.27877 A 2.10905,2.10905 0 0 1 15.89304,13.23524 Z"
     id="path8"
     style="fill:#000000" />
  <path
     d="M 13.76471,12.17645 V 10.0588 H 4.2035 A 4.73606,4.73606 0 0 1 3.43058,12.17645 Z"
     id="path9"
     style="fill:#000000" />
  <path
     d="M 3.13414,10.0588 H 0.63527 A 0.63714,0.63714 0 0 0 0,10.69407 V 13.19288 A 3.58268,3.58268 0 0 0 2.05412,12.17645 3.64915,3.64915 0 0 0 3.13414,10.0588 Z"
     id="path10"
     style="fill:#000000" />
  <path
     d="M 13.76471,8.99998 V 4.76469 H 0.63527 A 0.63713,0.63713 0 0 0 0,5.39998 V 9.12703 A 1.583,1.583 0 0 1 0.63527,8.99998 Z"
     id="path11"
     style="fill:#000000" />
  <path
     d="M 17.47059,14.14585 A 1.02282,1.02282 0 0 0 18,14.2941 0.98867,0.98867 0 0 0 18.52941,14.15645 0.88429,0.88429 0 0 0 18.75179,13.987 1.05868,1.05868 0 0 0 19.06942,13.24587 V 13.23527 A 1.06676,1.06676 0 0 0 18.0212,12.17645 H 18.0106 A 1.05292,1.05292 0 0 0 16.95178,13.22468 V 13.23527 A 1.01423,1.01423 0 0 0 17.24821,13.97646 0.88221,0.88221 0 0 0 17.47059,14.14585 Z"
     id="path12"
     style="fill:#000000" />
</svg>
