<?xml version="1.0" encoding="UTF-8" standalone="no"?>
<!-- Created with Inkscape (http://www.inkscape.org/) -->

<svg
   width="91.079002"
   height="91.079002"
   viewBox="0 0 91.079003 91.079003"
   version="1.1"
   id="svg1"
   inkscape:version="1.4.2 (ebf0e940d0, 2025-05-08)"
   sodipodi:docname="clawknife.svg"
   xmlns:inkscape="http://www.inkscape.org/namespaces/inkscape"
   xmlns:sodipodi="http://sodipodi.sourceforge.net/DTD/sodipodi-0.dtd"
   xmlns="http://www.w3.org/2000/svg"
   xmlns:svg="http://www.w3.org/2000/svg">
  <sodipodi:namedview
     id="namedview1"
     pagecolor="#ffffff"
     bordercolor="#000000"
     borderopacity="0.25"
     inkscape:showpageshadow="2"
     inkscape:pageopacity="0.0"
     inkscape:pagecheckerboard="0"
     inkscape:deskcolor="#d1d1d1"
     inkscape:document-units="px"
     inkscape:zoom="2.4020833"
     inkscape:cx="81.595837"
     inkscape:cy="72.645273"
     inkscape:window-width="1425"
     inkscape:window-height="1427"
     inkscape:window-x="20"
     inkscape:window-y="20"
     inkscape:window-maximized="0"
     inkscape:current-layer="svg1" />
  <defs
     id="defs1" />
  <path
     d="M 44.039872,46.265383 59.348872,30.964383 C 52.040272,23.233883 43.879872,17.734383 35.559872,15.015383 27.188772,12.245883 18.969872,12.456783 12.520872,15.656003 7.7200725,18.007603 4.0911715,21.894303 2.0088715,26.855003 -0.17082849,32.136203 -0.60052849,38.324003 0.83697151,45.253003 0.94635151,45.893623 1.4268115,46.374103 2.0088715,46.483503 2.6494915,46.643663 3.2900715,46.424909 3.6690715,45.893663 8.2471725,39.971763 13.689072,36.772563 19.829072,36.405363 29.907072,35.764743 39.669072,42.643663 44.040072,46.264763 Z"
     fill-rule="evenodd"
     id="path2"
     style="fill:#1a1a1a" />
  <path
     id="path1"
     style="fill:#1a1a1a"
     d="M 60.339844 32.861328 C 59.934084 32.861328 59.533231 33.009768 59.238281 33.304688 L 46.4375 46.105469 C 45.79687 46.746089 45.79687 47.753831 46.4375 48.394531 L 47.884766 49.841797 L 61.476562 33.304688 C 61.156267 33.009818 60.745567 32.861328 60.339844 32.861328 z M 63.261719 35.089844 L 49.03125 50.986328 L 51.714844 53.669922 L 65.896484 37.724609 L 63.261719 35.089844 z M 68.986328 40.814453 L 54.953125 56.908203 L 58.136719 60.09375 L 72.628906 44.457031 L 68.986328 40.814453 z M 74.732422 46.560547 L 59.662109 61.619141 L 62.769531 64.724609 L 76.740234 48.568359 L 74.732422 46.560547 z M 78.457031 50.285156 L 64.746094 66.703125 L 66.359375 68.316406 L 80.904297 52.732422 L 78.457031 50.285156 z M 82.464844 54.292969 L 68.076172 70.033203 L 70.470703 72.425781 L 85.013672 56.841797 L 82.464844 54.292969 z M 87.988281 59.816406 L 72.886719 74.84375 C 73.759182 75.737504 74.778679 76.446444 75.890625 76.970703 L 90.017578 62.708984 C 89.50819 61.654871 88.824262 60.678953 87.988281 59.816406 z M 90.021484 62.71875 L 90.644531 64.335938 C 90.480802 63.780993 90.272638 63.239865 90.021484 62.71875 z M 90.650391 64.351562 L 80.246094 77.992188 C 83.124994 78.042969 85.956975 76.87105 87.976562 74.84375 C 89.945363 72.87495 91.066406 70.152319 91.066406 67.324219 L 91.078125 67.335938 C 91.078125 66.311504 90.931625 65.310045 90.650391 64.351562 z M 80.246094 77.992188 L 75.927734 76.988281 C 77.255436 77.60787 78.716081 77.960485 80.246094 77.992188 z " />
</svg>
