<?xml version="1.0" encoding="UTF-8" standalone="no"?>
<!-- Created with Inkscape (http://www.inkscape.org/) -->

<svg
   width="95.032997"
   height="95.032997"
   viewBox="0 0 95.032997 95.032997"
   version="1.1"
   id="svg1"
   inkscape:version="1.4.2 (ebf0e940d0, 2025-05-08)"
   sodipodi:docname="climb.svg"
   xmlns:inkscape="http://www.inkscape.org/namespaces/inkscape"
   xmlns:sodipodi="http://sodipodi.sourceforge.net/DTD/sodipodi-0.dtd"
   xmlns="http://www.w3.org/2000/svg"
   xmlns:svg="http://www.w3.org/2000/svg">
  <sodipodi:namedview
     id="namedview1"
     pagecolor="#ffffff"
     bordercolor="#000000"
     borderopacity="0.25"
     inkscape:showpageshadow="2"
     inkscape:pageopacity="0.0"
     inkscape:pagecheckerboard="0"
     inkscape:deskcolor="#d1d1d1"
     inkscape:document-units="px"
     inkscape:zoom="3.3970588"
     inkscape:cx="-5.8874459"
     inkscape:cy="105.2381"
     inkscape:window-width="2256"
     inkscape:window-height="1427"
     inkscape:window-x="0"
     inkscape:window-y="0"
     inkscape:window-maximized="1"
     inkscape:current-layer="svg1" />
  <defs
     id="defs1" />
  <path
     id="path1"
     d="M 55.299075,2.7569791e-4 C 54.435012,0.0153147 53.647903,0.6705882 53.472903,1.6330882 53.472903,1.6330882 52.473684,7.0334788 51.273684,14.033479 50.673684,14.233479 50.173684,14.43387 49.773684,14.93387 L 42.472903,22.232698 C 41.772903,22.932698 40.972512,23.433088 40.072512,23.633088 37.572512,24.333088 32.772903,25.73387 28.972903,26.43387 21.472903,27.83387 16.272121,34.533088 15.172121,40.133088 14.272121,44.833088 13.773683,50.833479 13.773683,51.033479 13.673683,51.733479 13.872121,52.33387 14.172121,52.93387 9.5721215,56.83387 10.072511,65.23426 10.572511,73.33426 10.772511,77.03426 10.972121,80.933088 10.672121,84.133088 10.572121,85.233088 11.373293,86.132698 12.373293,86.232698 H 12.572511 C 13.572511,86.232698 14.372902,85.533479 14.472902,84.533479 14.772902,81.033479 14.573683,77.033088 14.273683,73.133088 13.773683,65.233088 13.273683,57.033088 17.773683,55.133088 18.373683,54.933088 18.972121,54.63426 19.672121,54.33426 21.272122,53.73426 23.173294,52.93387 25.373294,51.93387 26.573294,54.43387 29.072512,56.133088 32.072512,56.133088 H 32.472903 L 35.672122,65.83426 C 35.872122,66.43426 35.972512,67.13426 36.072512,67.83426 L 36.773684,81.83426 C 36.873684,83.93426 38.473294,85.63387 40.373294,85.93387 L 43.972903,76.83426 C 44.572903,76.13426 45.072122,75.43426 45.672122,74.83426 L 45.273684,67.43387 C 45.173684,65.93387 44.972903,64.433479 44.472903,63.033479 L 42.172122,56.033479 H 45.172122 L 53.972903,67.33426 57.172122,64.33426 56.472903,56.232698 51.572512,49.93387 C 50.172512,48.13387 47.972122,47.033088 45.672122,47.133088 H 39.472903 L 39.072512,44.033479 C 45.972512,38.733479 52.072512,31.23387 54.072512,20.43387 L 54.672122,19.83426 C 55.872122,18.53426 55.972903,16.632698 54.972903,15.232698 56.272903,7.9326978 57.273684,2.2326976 57.273684,2.2326976 57.473684,1.2326976 56.772122,0.1334788 55.672122,0.0334788 55.547122,0.0084788 55.422512,-0.0018732 55.299075,2.7569791e-4 Z M 72.472899,0.33426 C 71.672899,0.33426 70.872512,0.8330882 70.572512,1.6330882 L 64.572512,19.732698 C 64.472512,19.932698 64.472903,20.13426 64.472903,20.33426 V 35.732698 C 64.472903,36.132698 64.573294,36.63387 64.873294,36.93387 L 68.572512,41.633088 C 69.072512,42.333088 69.072512,43.333479 68.572512,44.033479 L 60.773684,53.93387 C 60.473684,54.33387 60.273294,54.83426 60.373294,55.33426 L 61.072512,64.93387 C 61.072512,65.53387 60.872903,66.133479 60.472903,66.533479 L 48.472903,77.533479 C 48.272903,77.733479 48.072903,78.032698 47.972903,78.232698 L 42.472903,92.33426 C 41.972903,93.63426 42.873684,95.033479 44.273684,95.033479 H 82.773689 C 83.873679,95.033479 84.773689,94.133479 84.773689,93.033479 V 2.2326976 C 84.673689,1.2326976 83.772119,0.3342601 82.672119,0.33426 Z M 29.308841,7.3420726 A 8.5995347,8.5995347 0 0 0 24.060794,9.0803538 8.5995347,8.5995347 0 0 0 22.381106,21.125276 8.5995347,8.5995347 0 0 0 34.426028,22.80301 8.5995347,8.5995347 0 0 0 36.105715,10.758088 8.5995347,8.5995347 0 0 0 29.308841,7.3420726 Z M 48.273684,26.33426 C 46.073684,31.73426 42.472903,36.133479 38.472903,39.533479 L 37.572512,31.633088 C 39.272512,31.233088 40.872903,30.73387 41.972903,30.43387 44.072903,29.83387 45.873294,28.732698 47.373294,27.232698 Z M 23.672122,37.83426 24.672122,48.033479 C 23.472122,48.733479 22.172903,49.232698 20.972903,49.732698 21.172903,47.632698 21.572512,44.23387 22.072512,41.43387 22.272512,40.23387 22.872122,39.03426 23.672122,37.83426 Z"
     style="fill:#000000" />
</svg>
