<?xml version="1.0" encoding="UTF-8" standalone="no"?>
<!-- Created with Inkscape (http://www.inkscape.org/) -->

<svg
   width="88.749001"
   height="88.749001"
   viewBox="0 0 88.749001 88.749"
   version="1.1"
   id="svg1"
   inkscape:version="1.4.2 (ebf0e940d0, 2025-05-08)"
   sodipodi:docname="climbsocks.svg"
   xmlns:inkscape="http://www.inkscape.org/namespaces/inkscape"
   xmlns:sodipodi="http://sodipodi.sourceforge.net/DTD/sodipodi-0.dtd"
   xmlns="http://www.w3.org/2000/svg"
   xmlns:svg="http://www.w3.org/2000/svg">
  <sodipodi:namedview
     id="namedview1"
     pagecolor="#ffffff"
     bordercolor="#000000"
     borderopacity="0.25"
     inkscape:showpageshadow="2"
     inkscape:pageopacity="0.0"
     inkscape:pagecheckerboard="0"
     inkscape:deskcolor="#d1d1d1"
     inkscape:document-units="px"
     inkscape:zoom="4.8041667"
     inkscape:cx="33.512576"
     inkscape:cy="49.436253"
     inkscape:window-width="2256"
     inkscape:window-height="1427"
     inkscape:window-x="0"
     inkscape:window-y="0"
     inkscape:window-maximized="1"
     inkscape:current-layer="svg1" />
  <defs
     id="defs1" />
  <path
     d="M 8.70632 50.4765 C 8.98757 51.6445 9.05398 53.039 8.47194 54.3867 C 6.67504 58.5508 7.78835 63.1797 12.5266 65.3247 C 15.1594 67.9614 26.4646 79.2977 33.4056 86.2657 C 35.0423 87.9102 37.2845 88.8048 39.6048 88.7462 C 41.9251 88.6876 44.1165 87.6759 45.6634 85.9493 L 45.64 85.9766 L 45.6673 85.9493 C 48.6048 82.6798 48.5032 77.7188 45.4994 74.5743 L 43.89 76.3868 C 43.89 76.3868 43.2572 77.1016 42.5267 77.9024 C 41.804 78.711 40.7845 79.1915 39.7025 79.2344 C 38.6205 79.2773 37.5658 78.875 36.7845 78.125 C 31.6868 73.332 19.8505 61.82 17.7455 56.914 C 15.9291 52.6757 12.1205 51.2617 10.3197 50.8124 C 10.0775 50.7499 9.42515 50.621 8.70248 50.4842 Z M 7.8782 48.2851 C 8.9954 48.496 10.4134 48.7694 10.8079 48.8671 C 12.9407 49.3983 17.4368 51.0976 19.5891 56.121 C 21.6321 60.8905 33.2101 72.016 38.1631 76.668 C 38.167 76.6719 38.1709 76.6758 38.1709 76.6758 C 38.5615 77.0508 39.0889 77.2539 39.6318 77.2344 C 40.1748 77.2149 40.6826 76.9727 41.0459 76.5664 C 41.0459 76.5625 41.0498 76.5625 41.0498 76.5586 C 41.7725 75.7617 42.4014 75.0508 42.4014 75.0508 L 44.0616 73.1836 C 39.5343 68.8672 33.6316 63.0626 29.9796 58.7736 C 28.4054 56.9259 27.2452 55.3947 26.8858 54.4181 C 26.7921 53.9416 26.7608 51.6954 26.7335 48.3829 C 26.6632 40.6446 26.7335 27.3129 26.8116 16.7779 L 7.32761 16.7779 L 7.32761 47.0709 C 7.32761 47.2662 7.3862 47.4615 7.49558 47.6256 C 7.49558 47.6256 7.66355 47.8717 7.8823 48.2897 Z M 26.8432 12.0781 L 7.3232 12.0781 L 7.3232 14.7734 L 26.8192 14.7734 C 26.827 13.8437 26.8348 12.9453 26.8387 12.0781 Z M 7.3232 10.0781 L 26.8582 10.0781 C 26.9012 4.72647 26.9402 1.11327 26.9402 1.11327 C 26.9441 0.847648 26.8387 0.589828 26.6512 0.402328 C 26.4637 0.214828 26.2098 0.105448 25.9441 0.105448 L 8.32714 -2.2e-05 C 8.06152 -2.2e-05 7.80371 0.101538 7.61621 0.289038 C 7.42871 0.476538 7.32324 0.730448 7.32324 0.996068 Z"
     fill-rule="evenodd"
     id="path1"
     style="fill:#000000" />
  <path
     d="M 42.3195 50.4765 C 42.6008 51.6445 42.6672 53.039 42.0851 54.3867 C 40.2882 58.5508 41.4015 63.1797 46.1398 65.3247 C 48.7726 67.9614 60.0778 79.2977 67.0188 86.2657 C 68.6555 87.9102 70.8977 88.8048 73.218 88.7462 C 75.5383 88.6876 77.7297 87.6759 79.2766 85.9493 L 79.2532 85.9766 L 79.2805 85.9493 C 82.218 82.6798 82.1164 77.7188 79.1126 74.5743 L 77.5032 76.3868 C 77.5032 76.3868 76.8704 77.1016 76.1399 77.9024 C 75.4172 78.711 74.3977 79.1915 73.3157 79.2344 C 72.2337 79.2773 71.179 78.875 70.3977 78.125 C 65.3 73.332 53.4637 61.82 51.3587 56.914 C 49.5423 52.6757 45.7337 51.2617 43.9329 50.8124 C 43.6907 50.7499 43.0383 50.621 42.3157 50.4842 Z M 41.4914 48.2851 C 42.6086 48.496 44.0266 48.7694 44.4211 48.8671 C 46.5539 49.3983 51.05 51.0976 53.2023 56.121 C 55.2453 60.8905 66.8233 72.016 71.7763 76.668 C 71.7802 76.6719 71.7841 76.6758 71.7841 76.6758 C 72.1747 77.0508 72.7021 77.2539 73.245 77.2344 C 73.788 77.2149 74.2958 76.9727 74.6591 76.5664 C 74.6591 76.5625 74.663 76.5625 74.663 76.5586 C 75.3857 75.7617 76.0146 75.0508 76.0146 75.0508 L 77.6748 73.1836 C 73.1475 68.8672 67.2448 63.0626 63.5928 58.7736 C 62.0186 56.9259 60.8584 55.3947 60.499 54.4181 C 60.4053 53.9416 60.374 51.6954 60.3467 48.3829 C 60.2764 40.6446 60.3467 27.3129 60.4248 16.7779 L 40.9408 16.7779 L 40.9408 47.0709 C 40.9408 47.2662 40.9994 47.4615 41.1088 47.6256 C 41.1088 47.6256 41.2767 47.8717 41.4955 48.2897 Z M 60.4564 12.0781 L 40.9364 12.0781 L 40.9364 14.7734 L 60.4324 14.7734 C 60.4402 13.8437 60.448 12.9453 60.4519 12.0781 Z M 40.9364 10.0781 L 60.4714 10.0781 C 60.5144 4.72647 60.5534 1.11327 60.5534 1.11327 C 60.5573 0.847648 60.4519 0.589828 60.2644 0.402328 C 60.0769 0.214828 59.8229 0.105448 59.5573 0.105448 L 41.9403 -2.2e-05 C 41.6747 -2.2e-05 41.4169 0.101538 41.2294 0.289038 C 41.0419 0.476538 40.9364 0.730448 40.9364 0.996068 Z"
     fill-rule="evenodd"
     id="path1-2"
     style="fill:#000000" />
</svg>
