<?xml version="1.0" encoding="UTF-8" standalone="no"?>
<!-- Created with Inkscape (http://www.inkscape.org/) -->

<svg
   width="86.971001"
   height="86.971001"
   viewBox="0 0 86.971 86.971001"
   version="1.1"
   id="svg1"
   inkscape:version="1.4.2 (ebf0e940d0, 2025-05-08)"
   sodipodi:docname="moosecloak.svg"
   xmlns:inkscape="http://www.inkscape.org/namespaces/inkscape"
   xmlns:sodipodi="http://sodipodi.sourceforge.net/DTD/sodipodi-0.dtd"
   xmlns="http://www.w3.org/2000/svg"
   xmlns:svg="http://www.w3.org/2000/svg">
  <sodipodi:namedview
     id="namedview1"
     pagecolor="#ffffff"
     bordercolor="#000000"
     borderopacity="0.25"
     inkscape:showpageshadow="2"
     inkscape:pageopacity="0.0"
     inkscape:pagecheckerboard="0"
     inkscape:deskcolor="#d1d1d1"
     inkscape:document-units="px"
     inkscape:zoom="3.3970588"
     inkscape:cx="30.761905"
     inkscape:cy="112.89178"
     inkscape:window-width="2256"
     inkscape:window-height="1427"
     inkscape:window-x="0"
     inkscape:window-y="0"
     inkscape:window-maximized="1"
     inkscape:current-layer="svg1" />
  <defs
     id="defs1" />
  <path
     d="M 81.457484,35.911 C 79.259484,25.796 75.679484,14.345 70.351487,7.238 71.689484,6.232 72.883484,5.393 73.859484,4.799 74.769484,4.245 70.106487,0 70.106487,0 L 65.314487,2.146 C 65.289487,2.135 65.267487,2.12 65.242487,2.109 65.223487,2.136 65.195487,2.178 65.173487,2.209 L 57.773487,5.523 52.532487,8.695 C 50.307487,12.702 46.405487,20.508 43.485487,26.43 40.565487,20.508 36.663487,12.702 34.439487,8.695 L 29.198487,5.523 21.798487,2.209 C 21.776487,2.178 21.748487,2.137 21.729487,2.109 21.704487,2.12 21.681487,2.134 21.657487,2.146 L 16.865487,0 C 16.865487,0 12.202487,4.245 13.112487,4.799 14.088487,5.393 15.281487,6.231 16.620487,7.238 11.292487,14.346 7.7114868,25.797 5.5144868,35.911 2.8444868,48.206 1.8504868,61.897 3.2964868,73.529 3.5374868,75.451 13.755487,74.197 13.531487,72.407 12.148487,61.284 12.718487,50.271 15.127487,39.577 15.704487,57.126 16.782487,81.02 17.797487,86.971 17.797487,86.971 35.564487,85.07 43.485487,80.542 51.406487,85.07 69.173487,86.971 69.173487,86.971 70.189487,81.02 71.266484,57.127 71.843484,39.577 74.253484,50.271 74.822484,61.284 73.439484,72.407 73.215484,74.197 83.433484,75.452 83.674484,73.529 85.120484,61.897 84.126484,48.206 81.457484,35.911 Z"
     id="path1"
     style="fill:#000000" />
</svg>
