<?xml version="1.0" encoding="UTF-8" standalone="no"?>
<!-- Created with Inkscape (http://www.inkscape.org/) -->

<svg
   width="90"
   height="90"
   viewBox="0 0 90 90.000001"
   version="1.1"
   id="svg1"
   inkscape:version="1.4.2 (ebf0e940d0, 2025-05-08)"
   sodipodi:docname="coal.svg"
   xmlns:inkscape="http://www.inkscape.org/namespaces/inkscape"
   xmlns:sodipodi="http://sodipodi.sourceforge.net/DTD/sodipodi-0.dtd"
   xmlns="http://www.w3.org/2000/svg"
   xmlns:svg="http://www.w3.org/2000/svg">
  <sodipodi:namedview
     id="namedview1"
     pagecolor="#ffffff"
     bordercolor="#000000"
     borderopacity="0.25"
     inkscape:showpageshadow="2"
     inkscape:pageopacity="0.0"
     inkscape:pagecheckerboard="0"
     inkscape:deskcolor="#d1d1d1"
     inkscape:document-units="px"
     inkscape:zoom="9.6083333"
     inkscape:cx="25.082394"
     inkscape:cy="56.981787"
     inkscape:window-width="2256"
     inkscape:window-height="1427"
     inkscape:window-x="0"
     inkscape:window-y="0"
     inkscape:window-maximized="1"
     inkscape:current-layer="svg1" />
  <defs
     id="defs1" />
  <path
     d="M 89.9274 33.3306 C 89.9006 35.5785 89.4599 37.8023 88.6274 39.8906 C 87.9607 41.5706 87.254 43.2206 86.5074 44.8406 C 84.8374 48.3706 83.1274 51.8406 81.3974 55.3706 C 79.9856 58.2786 78.0999 60.9315 75.8174 63.2206 C 73.3073 65.7106 70.8174 68.2206 68.2874 70.6906 C 65.6458 73.4998 62.4524 75.7331 58.9074 77.2506 C 54.831 78.7813 50.4685 79.3991 46.1274 79.0606 C 40.6074 78.6906 35.2474 77.3906 29.8474 76.2906 C 25.3074 75.3706 20.6874 74.8106 16.0974 74.0906 C 14.8174 73.8906 13.5274 73.7006 12.2574 73.4606 C 9.28745 72.9033 6.70889 71.0771 5.19736 68.4606 C 2.99736 64.9206 1.99736 60.9406 0.937356 57.0006 C 0.717356 56.1606 0.597356 55.3006 0.407356 54.4506 C -0.293631 51.4094 0.114179 48.2178 1.55736 45.4506 C 3.3145 41.8699 5.50418 38.5182 8.07736 35.4706 C 10.0774 33.1806 12.0774 30.8906 14.0774 28.5706 C 17.7284 24.2248 22.565 21.0352 27.9974 19.3906 C 30.3674 18.6606 32.7474 17.9706 35.0674 17.1006 C 37.3874 16.2306 39.6974 15.1006 42.0674 14.1006 C 43.6062 13.4748 45.1867 12.9569 46.7974 12.5506 C 49.0774 11.9906 51.3774 11.5506 53.6974 11.1406 C 59.1074 10.2706 64.2874 11.4706 69.3974 13.1406 C 73.6018 14.4728 77.6307 16.306 81.3973 18.6006 C 86.8273 21.9706 89.5573 26.9706 89.9274 33.3306 Z"
     id="path1"
     style="fill:#000000" />
</svg>
