<?xml version="1.0" encoding="UTF-8" standalone="no"?>
<!-- Created with Inkscape (http://www.inkscape.org/) -->

<svg
   width="26.4582"
   height="26.458311"
   viewBox="0 0 26.4582 26.458311"
   version="1.1"
   id="svg1"
   inkscape:version="1.4.2 (ebf0e940d0, 2025-05-08)"
   sodipodi:docname="coal.svg"
   xmlns:inkscape="http://www.inkscape.org/namespaces/inkscape"
   xmlns:sodipodi="http://sodipodi.sourceforge.net/DTD/sodipodi-0.dtd"
   xmlns="http://www.w3.org/2000/svg"
   xmlns:svg="http://www.w3.org/2000/svg">
  <sodipodi:namedview
     id="namedview1"
     pagecolor="#ffffff"
     bordercolor="#000000"
     borderopacity="0.25"
     inkscape:showpageshadow="2"
     inkscape:pageopacity="0.0"
     inkscape:pagecheckerboard="0"
     inkscape:deskcolor="#d1d1d1"
     inkscape:document-units="px"
     inkscape:zoom="8.217228"
     inkscape:cx="21.540111"
     inkscape:cy="-3.1032363"
     inkscape:window-width="2256"
     inkscape:window-height="1427"
     inkscape:window-x="0"
     inkscape:window-y="0"
     inkscape:window-maximized="1"
     inkscape:current-layer="svg1" />
  <defs
     id="defs1" />
  <path
     d="M 9.75213 24.3995 C 9.75213 25.5364 8.8385 26.4583 7.71402 26.4583 C 6.58955 26.4583 5.67176 25.5364 5.67176 24.3995 C 5.67176 23.2626 6.58955 22.3366 7.71402 22.3366 C 8.8385 22.3366 9.75213 23.2626 9.75213 24.3995 Z"
     id="path1"
     style="fill:#000000" />
  <path
     d="M 20.7945 24.3995 C 20.7945 25.5364 19.8767 26.4583 18.7522 26.4583 C 17.6278 26.4583 16.71 25.5364 16.71 24.3995 C 16.71 24.3458 16.71 24.3003 16.7141 24.2507 C 16.7182 24.2217 16.7182 24.1928 16.7224 24.1639 C 16.8423 23.1386 17.7063 22.3366 18.7522 22.3366 C 19.7982 22.3366 20.6622 23.1386 20.7821 24.1639 C 20.7862 24.1928 20.7862 24.2217 20.7904 24.2507 C 20.7945 24.3003 20.7945 24.3458 20.7945 24.3995 Z"
     id="path2"
     style="fill:#000000" />
  <path
     d="M 24.1928 20.3728 L 24.1928 23.7338 L 21.5676 23.7338 C 21.2741 22.4398 20.1207 21.4766 18.7522 21.4766 C 17.3837 21.4766 16.2304 22.4398 15.9368 23.7338 L 10.5253 23.7338 C 10.2317 22.4398 9.08247 21.4766 7.71408 21.4766 C 6.34155 21.4766 5.19228 22.4398 4.89865 23.7338 L 2.26523 23.7338 L 2.26523 20.3728 Z"
     id="path3"
     style="fill:#000000" />
  <path
     d="M 26.4582 8.81371 L 26.4582 10.4177 L 24.3415 10.4177 C 24.3043 10.4136 24.2588 10.4136 24.2175 10.4177 L 2.24069 10.4177 C 2.19935 10.4136 2.15387 10.4136 2.11666 10.4177 L -5e-10 10.4177 L -5e-10 8.81371 L 3.27845 8.81371 C 3.29912 8.81785 3.31979 8.81785 3.34046 8.81371 L 22.8286 8.81371 C 22.8534 8.81785 22.8741 8.81785 22.8989 8.81785 C 22.9195 8.81785 22.9402 8.81785 22.9691 8.81371 Z"
     id="path4"
     style="fill:#000000" />
  <path
     d="M 23.7256 11.2778 L 21.5138 19.5087 L 4.94429 19.5087 L 2.73253 11.2778 Z"
     id="path5"
     style="fill:#000000" />
  <path
     d="M 22.6341 7.37941 C 22.6341 7.56958 22.6135 7.76388 22.5721 7.95406 L 3.56767 7.95406 C 3.42297 7.63158 3.34443 7.27194 3.34443 6.90814 C 3.34443 5.50254 4.47716 4.36152 5.86622 4.36152 C 5.96131 4.36152 6.05225 4.37393 6.14321 4.38633 L 6.23003 4.3946 C 6.35819 4.41113 6.48634 4.36979 6.58142 4.27884 C 6.6765 4.18789 6.72198 4.06387 6.70958 3.9357 C 6.70544 3.87369 6.70131 3.81582 6.70131 3.74967 C 6.70131 1.68262 8.36736 -6e-11 10.4179 -6e-11 C 11.9558 -6e-11 13.3532 0.979777 13.8948 2.44327 C 13.9444 2.57556 14.056 2.67478 14.1924 2.71198 C 14.3289 2.74505 14.4736 2.70784 14.5811 2.61276 C 15.0896 2.14148 15.751 1.88515 16.4373 1.88515 C 17.7933 1.88515 18.9467 2.87321 19.1781 4.2292 C 19.2112 4.44417 19.4137 4.59713 19.6246 4.58475 C 19.7031 4.58061 19.7775 4.57234 19.8561 4.57234 C 21.3898 4.57234 22.6342 5.82911 22.6342 7.37931 Z"
     id="path6"
     style="fill:#000000" />
  <path
     d="M 22.9688 8.81371 C 22.944 8.81785 22.9234 8.81785 22.8986 8.81785 C 22.8779 8.81785 22.8572 8.81785 22.8283 8.81371 Z"
     id="path7"
     style="fill:#000000" />
</svg>
