<?xml version="1.0" encoding="UTF-8" standalone="no"?>
<!-- Created with Inkscape (http://www.inkscape.org/) -->

<svg
   width="122"
   height="122"
   viewBox="0 0 122 122"
   version="1.1"
   id="svg1"
   inkscape:version="1.4.2 (ebf0e940d0, 2025-05-08)"
   sodipodi:docname="combatboots.svg"
   xmlns:inkscape="http://www.inkscape.org/namespaces/inkscape"
   xmlns:sodipodi="http://sodipodi.sourceforge.net/DTD/sodipodi-0.dtd"
   xmlns="http://www.w3.org/2000/svg"
   xmlns:svg="http://www.w3.org/2000/svg">
  <sodipodi:namedview
     id="namedview1"
     pagecolor="#ffffff"
     bordercolor="#000000"
     borderopacity="0.25"
     inkscape:showpageshadow="2"
     inkscape:pageopacity="0.0"
     inkscape:pagecheckerboard="0"
     inkscape:deskcolor="#d1d1d1"
     inkscape:document-units="px"
     inkscape:zoom="1.6985294"
     inkscape:cx="123.93074"
     inkscape:cy="284.65801"
     inkscape:window-width="2256"
     inkscape:window-height="1427"
     inkscape:window-x="0"
     inkscape:window-y="0"
     inkscape:window-maximized="1"
     inkscape:current-layer="svg1" />
  <defs
     id="defs1" />
  <path
     id="circle1"
     d="M 45.6639 0 C 44.2829 0 43.16 1.12291 43.16 2.50391 L 43.16 4.48633 C 44.533 4.37733 45.936 4.34811 47.369 4.41211 L 47.5955 0 Z M 49.5975 0 L 49.3631 4.55664 C 50.1541 4.63464 50.9556 4.74405 51.7616 4.87305 C 52.2356 3.52505 53.5075 2.55078 55.0155 2.55078 C 56.9255 2.55078 58.4803 4.10367 58.4803 6.01367 C 58.4803 7.92367 56.9255 9.47852 55.0155 9.47852 C 53.4075 9.47852 52.0656 8.37372 51.6776 6.88672 C 50.8646 6.75172 50.0576 6.63859 49.2616 6.55859 L 48.7987 15.5781 C 49.5637 15.6881 50.339 15.8502 51.119 16.0352 C 51.614 14.7252 52.8704 13.7871 54.3514 13.7871 C 56.2614 13.7871 57.8162 15.342 57.8162 17.252 C 57.8162 19.162 56.2614 20.7148 54.3514 20.7148 C 52.7214 20.7148 51.361 19.5795 50.994 18.0605 C 50.216 17.8645 49.4481 17.7029 48.6951 17.5859 L 48.2108 27.0234 C 49.0398 27.1984 49.8794 27.4357 50.7264 27.7188 C 51.2444 26.4578 52.4845 25.5664 53.9295 25.5664 C 55.8395 25.5664 57.3924 27.1193 57.3924 29.0293 C 57.3924 30.9393 55.8395 32.4941 53.9295 32.4941 C 52.2735 32.4941 50.8897 31.3255 50.5487 29.7715 C 49.7197 29.4755 48.9043 29.2211 48.1073 29.0371 L 47.6112 38.6973 C 48.3982 39.0133 49.1596 39.3748 49.8866 39.8008 C 50.4606 38.6798 51.6149 37.9043 52.9569 37.9043 C 54.8669 37.9043 56.4198 39.4572 56.4198 41.3672 C 56.4198 43.2772 54.8669 44.832 52.9569 44.832 C 51.2479 44.832 49.8326 43.5841 49.5526 41.9531 C 48.8976 41.5211 48.2178 41.1316 47.5018 40.8066 L 47.1385 47.8926 C 48.1995 48.3926 49.2238 49.0081 50.2088 49.7441 C 50.8418 48.9111 51.8319 48.3652 52.9569 48.3652 C 54.8669 48.3652 56.4217 49.9201 56.4217 51.8301 C 56.4217 53.7401 54.8669 55.2949 52.9569 55.2949 C 51.0469 55.2949 49.494 53.7401 49.494 51.8301 C 49.494 51.7941 49.5027 51.7606 49.5037 51.7246 C 48.7007 51.0786 47.8772 50.5128 47.0272 50.0508 L 46.6463 57.4805 C 47.7823 58.0135 48.9027 58.6581 50.0057 59.4141 C 50.5587 59.0401 51.2252 58.8203 51.9412 58.8203 C 53.8512 58.8203 55.4061 60.3752 55.4061 62.2852 C 55.4061 64.1952 53.8512 65.748 51.9412 65.748 C 50.0312 65.748 48.4783 64.1952 48.4783 62.2852 C 48.4783 61.8192 48.5721 61.3757 48.7401 60.9688 C 48.0081 60.4727 47.273 60.0149 46.535 59.6289 L 46.4315 61.6719 C 46.4325 66.7829 48.7118 70.8798 50.9178 74.8418 C 52.1818 77.1128 53.4612 79.4626 54.3182 81.9766 C 57.3622 81.7156 60.4296 81.0473 62.6776 79.6113 C 65.2966 77.9383 66.931 75.0846 67.953 72.1816 C 67.152 72.1316 66.3462 72.1186 65.5272 72.1816 C 64.9732 72.2226 64.496 71.8117 64.453 71.2617 C 64.411 70.7107 64.8229 70.2295 65.3729 70.1875 C 66.4429 70.1045 67.5045 70.1247 68.5565 70.2207 C 69.4335 66.9267 69.6094 63.9116 69.6444 62.8906 C 68.5544 62.8116 67.4286 62.8432 66.2576 62.9902 C 65.7156 63.0682 65.2095 62.672 65.1405 62.123 C 65.0715 61.576 65.4596 61.0749 66.0076 61.0059 C 67.2566 60.8489 68.4702 60.8155 69.6522 60.8945 L 69.6522 53.9375 C 68.8542 53.9035 68.0411 53.9 67.1971 53.957 C 66.6451 54.013 66.1696 53.5783 66.1326 53.0273 C 66.0946 52.4763 66.5113 51.9999 67.0623 51.9629 C 67.9503 51.9029 68.8082 51.9045 69.6522 51.9375 L 69.6522 43.4863 C 69.1062 43.6063 68.5622 43.7457 68.0272 43.9297 C 67.5062 44.1067 66.9356 43.8296 66.7576 43.3066 C 66.5786 42.7846 66.8577 42.2161 67.3807 42.0371 C 68.1237 41.7831 68.8842 41.602 69.6522 41.457 L 69.6522 32.3789 C 69.1852 32.4899 68.7226 32.6186 68.2616 32.7656 C 68.1596 32.7986 68.0559 32.8145 67.9549 32.8145 C 67.5319 32.8145 67.1397 32.5431 67.0037 32.1191 C 66.8357 31.5931 67.1242 31.0293 67.6502 30.8613 C 68.3062 30.6513 68.9772 30.4897 69.6522 30.3477 L 69.6522 21.2852 C 69.1502 21.3632 68.6529 21.4526 68.1619 21.5566 C 68.0929 21.5716 68.0239 21.5781 67.9549 21.5781 C 67.4929 21.5781 67.0764 21.2552 66.9764 20.7852 C 66.8624 20.2442 67.2069 19.7136 67.7479 19.5996 C 68.3729 19.4676 69.0092 19.3625 69.6502 19.2695 L 69.6502 16.8691 C 69.6502 14.4951 71.5829 12.5625 73.9569 12.5625 L 93.4959 12.5625 C 93.4979 10.8045 93.4923 9.08419 93.4823 7.49219 C 93.4603 3.36019 90.0762 0 85.9412 0 Z M 55.0155 4.55078 C 54.2085 4.55078 53.5526 5.20862 53.5526 6.01562 C 53.5526 6.82263 54.2085 7.47852 55.0155 7.47852 C 55.8225 7.47852 56.4803 6.82263 56.4803 6.01562 C 56.4803 5.20862 55.8225 4.55078 55.0155 4.55078 Z M 47.2674 6.41016 C 45.8664 6.34816 44.497 6.37919 43.16 6.49219 L 43.16 15.4688 C 44.351 15.3398 45.5665 15.3069 46.8065 15.3809 Z M 73.9588 14.5625 C 72.6878 14.5625 71.6522 15.5952 71.6522 16.8672 L 71.6522 19.0488 C 73.0262 18.9398 74.4301 18.9106 75.8631 18.9746 L 76.0897 14.5625 Z M 78.0916 14.5625 L 77.8573 19.1191 C 78.6483 19.1971 79.4477 19.3065 80.2537 19.4355 C 80.7277 18.0875 82.0016 17.1133 83.5096 17.1133 C 85.4196 17.1133 86.9744 18.6662 86.9744 20.5762 C 86.9744 22.4862 85.4196 24.041 83.5096 24.041 C 81.9016 24.041 80.5578 22.9343 80.1698 21.4473 C 79.3568 21.3123 78.5517 21.2001 77.7557 21.1191 L 77.2909 30.1406 C 78.0558 30.2506 78.8331 30.4107 79.6131 30.5957 C 80.1081 29.2857 81.3655 28.3477 82.8455 28.3477 C 84.7555 28.3477 86.3084 29.9025 86.3084 31.8125 C 86.3084 33.7225 84.7555 35.2754 82.8455 35.2754 C 81.2155 35.2754 79.8532 34.1401 79.4862 32.6211 C 78.7082 32.4251 77.9413 32.2635 77.1893 32.1465 L 76.703 41.584 C 77.532 41.759 78.3725 41.9973 79.2205 42.2793 C 79.7385 41.0183 80.9787 40.127 82.4237 40.127 C 84.3337 40.127 85.8866 41.6818 85.8866 43.5918 C 85.8866 45.5018 84.3337 47.0547 82.4237 47.0547 C 80.7677 47.0547 79.3838 45.8851 79.0428 44.3301 C 78.2138 44.0331 77.3984 43.7817 76.6014 43.5977 L 76.1053 53.2578 C 76.8923 53.5728 77.6537 53.9334 78.3807 54.3594 C 78.9557 53.2404 80.108 52.4648 81.451 52.4648 C 83.361 52.4648 84.9159 54.0197 84.9159 55.9297 C 84.9159 57.8397 83.361 59.3926 81.451 59.3926 C 79.742 59.3926 78.3277 58.1466 78.0467 56.5156 C 77.3917 56.0836 76.7129 55.6912 75.9959 55.3672 L 75.6326 62.4531 C 76.6936 62.9531 77.718 63.5697 78.703 64.3047 C 79.336 63.4717 80.326 62.9258 81.451 62.9258 C 83.361 62.9258 84.9159 64.4787 84.9159 66.3887 C 84.9159 68.2987 83.361 69.8535 81.451 69.8535 C 79.541 69.8535 77.9881 68.2987 77.9881 66.3887 C 77.9881 66.3527 77.9969 66.3192 77.9979 66.2832 C 77.1949 65.6372 76.3713 65.0723 75.5213 64.6113 L 75.1405 72.0391 C 76.2775 72.5721 77.3958 73.2167 78.4998 73.9727 C 79.0528 73.5987 79.7203 73.3809 80.4373 73.3809 C 82.3473 73.3809 83.9002 74.9338 83.9002 76.8438 C 83.9002 78.7537 82.3473 80.3086 80.4373 80.3086 C 78.5273 80.3086 76.9725 78.7537 76.9725 76.8438 C 76.9725 76.3777 77.0682 75.9343 77.2362 75.5273 C 76.5042 75.0313 75.7681 74.5745 75.0291 74.1875 L 74.9256 76.2305 C 74.9266 81.3415 77.2059 85.4384 79.4119 89.4004 C 82.1679 94.3524 84.9978 99.4645 83.3338 106.48 C 83.4008 106.447 83.4729 106.424 83.5389 106.389 C 93.9949 100.932 105.267 98.1827 117.096 98.3047 C 117.606 98.3087 118.108 98.4024 118.586 98.5664 C 119.269 95.7254 120.853 88.5613 120.264 85.4473 C 119.81 83.0503 118.47 81.1157 117.543 80.0137 C 115.748 83.6327 113.766 86.3968 113.627 86.5898 C 113.302 87.0378 112.676 87.1375 112.23 86.8125 C 111.783 86.4885 111.684 85.863 112.008 85.416 C 112.063 85.34 117.548 77.7109 118.365 71.4199 C 118.785 68.1869 118.122 65.2311 117.482 62.3711 C 116.859 59.5931 116.272 56.9688 116.82 54.4668 C 117.491 51.4048 118.636 49.4649 119.646 47.7539 C 120.254 46.7229 120.831 45.7494 121.262 44.6094 C 121.514 43.9404 122.091 40.4007 121.98 22.0527 C 121.955 17.9227 118.571 14.5625 114.437 14.5625 L 94.4959 14.5625 L 94.494 14.5625 Z M 54.3514 15.7852 C 53.5444 15.7852 52.8866 16.443 52.8866 17.25 C 52.8866 18.057 53.5444 18.7148 54.3514 18.7148 C 55.1584 18.7148 55.8143 18.058 55.8143 17.25 C 55.8143 16.442 55.1584 15.7852 54.3514 15.7852 Z M 44.9119 17.3379 C 44.3216 17.3558 43.738 17.4002 43.16 17.4707 L 43.16 26.6367 C 44.162 26.5727 45.1844 26.6009 46.2244 26.7129 L 46.703 17.3672 C 46.0985 17.3292 45.5023 17.32 44.9119 17.3379 Z M 83.5096 19.1133 C 82.7012 19.1128 82.0454 19.7677 82.0448 20.5762 C 82.0445 20.9647 82.1988 21.3375 82.4736 21.6122 C 82.7483 21.887 83.121 22.0412 83.5096 22.041 C 83.8982 22.0412 84.2709 21.887 84.5456 21.6122 C 84.8204 21.3375 84.9747 20.9647 84.9744 20.5762 C 84.9738 19.7677 84.318 19.1128 83.5096 19.1133 Z M 75.7596 20.9727 C 74.3586 20.9107 72.9892 20.9417 71.6522 21.0547 L 71.6522 30.0312 C 72.8442 29.9022 74.0597 29.8694 75.2987 29.9434 Z M 53.9276 27.5645 C 53.539 27.5642 53.1663 27.7185 52.8915 27.9932 C 52.6168 28.268 52.4625 28.6407 52.4627 29.0293 C 52.4633 29.8377 53.1191 30.4927 53.9276 30.4922 C 54.736 30.4927 55.3918 29.8377 55.3924 29.0293 C 55.3926 28.6407 55.2384 28.268 54.9636 27.9932 C 54.6889 27.7185 54.3161 27.5642 53.9276 27.5645 Z M 44.6248 28.5957 C 44.1312 28.585 43.643 28.5983 43.16 28.6348 L 43.16 37.5391 C 44.013 37.6531 44.8414 37.8143 45.6424 38.0312 L 46.1209 28.6992 C 45.6164 28.6407 45.1185 28.6065 44.6248 28.5957 Z M 82.8455 30.3496 C 82.0375 30.3496 81.3807 31.0055 81.3807 31.8125 C 81.3807 32.6195 82.0385 33.2773 82.8455 33.2773 C 83.6525 33.2763 84.3084 32.6195 84.3084 31.8125 C 84.3084 31.0045 83.6525 30.3496 82.8455 30.3496 Z M 73.4061 31.9004 C 72.8158 31.9183 72.2307 31.9622 71.6522 32.0332 L 71.6522 41.1992 C 72.6552 41.1352 73.6776 41.1614 74.7166 41.2734 L 75.1971 31.9297 C 74.5926 31.8922 73.9963 31.8825 73.4061 31.9004 Z M 43.158 39.5547 L 43.158 46.582 C 43.844 46.711 44.5146 46.8934 45.1756 47.1074 L 45.5369 40.0898 C 44.7719 39.8608 43.981 39.6767 43.158 39.5547 Z M 52.9569 39.9043 C 52.1489 39.9043 51.492 40.5602 51.492 41.3672 C 51.492 42.1742 52.1499 42.832 52.9569 42.832 C 53.7639 42.832 54.4198 42.1742 54.4198 41.3672 C 54.4198 40.5602 53.7639 39.9043 52.9569 39.9043 Z M 82.4237 42.127 C 82.0351 42.1267 81.6624 42.281 81.3876 42.5557 C 81.1129 42.8305 80.9586 43.2032 80.9588 43.5918 C 80.9594 44.4002 81.6152 45.0552 82.4237 45.0547 C 83.2313 45.0541 83.8859 44.3995 83.8866 43.5918 C 83.887 42.7834 83.2321 42.1276 82.4237 42.127 Z M 73.119 43.1562 C 72.6253 43.1455 72.1371 43.1588 71.6541 43.1953 L 71.6541 52.1035 C 72.5071 52.2175 73.3356 52.3777 74.1366 52.5938 L 74.6151 43.2598 C 74.1106 43.2013 73.6126 43.167 73.119 43.1562 Z M 43.1444 48.6211 C 43.0974 49.8811 42.8951 52.7514 42.0701 55.9434 C 42.9501 56.1204 43.8204 56.3747 44.6854 56.6777 L 45.0701 49.1797 C 44.4411 48.9497 43.8004 48.7601 43.1444 48.6211 Z M 52.9569 50.3652 C 52.1489 50.3652 51.492 51.0211 51.492 51.8281 C 51.492 52.6351 52.1499 53.293 52.9569 53.293 C 53.7639 53.293 54.4198 52.6351 54.4198 51.8281 C 54.4198 51.0211 53.7639 50.3652 52.9569 50.3652 Z M 71.6541 54.1172 L 71.6541 61.1465 C 72.3395 61.2755 73.0094 61.4581 73.6698 61.6719 L 74.0311 54.6504 C 73.2661 54.4214 72.4761 54.2392 71.6541 54.1172 Z M 81.451 54.4668 C 80.6426 54.4663 79.9868 55.1212 79.9862 55.9297 C 79.9859 56.3183 80.1402 56.691 80.415 56.9657 C 80.6897 57.2405 81.0624 57.3948 81.451 57.3945 C 82.2594 57.3939 82.9144 56.7381 82.9139 55.9297 C 82.9133 55.122 82.2587 54.4674 81.451 54.4668 Z M 41.5018 57.8652 C 40.3698 61.2462 38.4676 64.6853 35.2596 66.7363 C 33.5096 67.8543 31.3801 68.5631 29.1131 68.9941 C 33.2951 73.4011 35.3351 79.3047 35.1991 86.5957 L 36.0389 85.6855 C 38.5499 82.9645 42.2542 81.5428 45.9412 81.8848 C 47.6272 82.0408 49.8671 82.1677 52.2401 82.0938 C 51.4511 79.9587 50.3488 77.9325 49.1698 75.8145 C 46.8398 71.6295 44.4315 67.3001 44.4315 61.6191 L 44.578 58.748 C 43.564 58.354 42.5388 58.0602 41.5018 57.8652 Z M 51.9412 60.8184 C 51.5527 60.8181 51.18 60.9724 50.9052 61.2472 C 50.6304 61.5219 50.4762 61.8946 50.4764 62.2832 C 50.477 63.0916 51.1328 63.7466 51.9412 63.7461 C 52.7489 63.7455 53.4035 63.0909 53.4041 62.2832 C 53.4046 61.4748 52.7497 60.819 51.9412 60.8184 Z M 71.6385 63.1855 C 71.5905 64.4465 71.3893 67.3159 70.5643 70.5039 C 71.4443 70.6809 72.3155 70.9353 73.1795 71.2383 L 73.5643 63.7422 C 72.9363 63.5122 72.2945 63.3245 71.6385 63.1855 Z M 81.451 64.9277 C 80.6426 64.9273 79.9868 65.5822 79.9862 66.3906 C 79.9859 66.7792 80.1402 67.1519 80.415 67.4267 C 80.6897 67.7014 81.0624 67.8557 81.451 67.8555 C 82.2594 67.8549 82.9144 67.1991 82.9139 66.3906 C 82.9133 65.5829 82.2587 64.9283 81.451 64.9277 Z M 113.674 68.6562 C 113.804 68.6557 113.935 68.6809 114.062 68.7344 C 114.572 68.9464 114.812 69.533 114.599 70.043 C 111.815 76.72 106.882 82.1319 99.9354 86.1309 C 99.7784 86.2219 99.6063 86.2656 99.4373 86.2656 C 99.0913 86.2656 98.7532 86.0847 98.5682 85.7637 C 98.2932 85.2847 98.4583 84.6734 98.9373 84.3984 C 105.494 80.6234 110.143 75.5344 112.754 69.2734 C 112.913 68.8909 113.284 68.6579 113.674 68.6562 Z M 16.1131 69.2754 C 13.4369 69.339 10.8468 70.497 9.01546 72.4824 L 5.2303 76.582 C 3.6073 78.34 2.72035 80.6256 2.72835 83.0176 L 2.76155 92.8926 L 30.2225 92.8926 C 30.7255 91.7656 31.3997 90.7112 32.2557 89.7852 L 33.0858 88.8867 C 33.7688 80.4477 31.5957 73.8824 26.6287 69.3574 C 23.3997 69.6934 20.0685 69.5735 17.2635 69.3145 C 16.8796 69.2781 16.4954 69.2663 16.1131 69.2754 Z M 92.7674 69.7031 C 93.2346 69.7104 93.643 70.0425 93.7323 70.5176 C 94.5563 74.8676 91.8444 85.2709 91.7284 85.7109 C 91.6103 86.1599 91.2056 86.457 90.7616 86.457 C 90.6776 86.457 90.5936 86.4458 90.5076 86.4238 C 89.9736 86.2838 89.6528 85.7371 89.7928 85.2031 C 89.8198 85.0991 92.5084 74.7977 91.7694 70.8887 C 91.6664 70.3467 92.0223 69.8237 92.5643 69.7207 C 92.6327 69.708 92.7007 69.7021 92.7674 69.7031 Z M 69.9959 72.4277 C 68.8639 75.8077 66.9598 79.2459 63.7518 81.2949 C 62.0018 82.4129 59.8723 83.1237 57.6053 83.5547 C 62.9283 89.1637 64.7697 97.1891 63.0897 107.453 L 79.0526 107.453 C 79.7336 107.453 80.4016 107.372 81.0506 107.242 C 83.1896 100.333 80.5099 95.491 77.6619 90.377 C 75.3319 86.191 72.9237 81.8626 72.9237 76.1816 L 73.0701 73.3105 C 72.0561 72.9165 71.0329 72.6227 69.9959 72.4277 Z M 21.8143 72.459 C 22.7284 72.4269 23.7215 73.0133 24.3065 74.0273 C 25.0865 75.3793 24.8473 76.9796 23.7713 77.6016 C 22.6953 78.2226 21.19 77.6293 20.41 76.2773 C 19.63 74.9253 19.8691 73.3241 20.9451 72.7031 C 21.2141 72.5479 21.5096 72.4697 21.8143 72.459 Z M 15.201 73.6621 L 16.4061 76.4316 C 16.9231 77.6186 16.2811 79.0029 15.0311 79.3379 C 13.6631 79.7039 12.3732 80.2763 11.1502 81.0293 C 9.55322 82.0143 7.55562 80.5073 8.17562 78.7363 C 9.08962 76.1283 11.273 74.3351 15.201 73.6621 Z M 80.4354 75.3828 C 79.6269 75.3823 78.9712 76.0373 78.9705 76.8457 C 78.9703 77.2343 79.1246 77.607 79.3993 77.8818 C 79.6741 78.1565 80.0468 78.3108 80.4354 78.3105 C 81.2438 78.3099 81.8987 77.6541 81.8983 76.8457 C 81.8977 76.038 81.2431 75.3834 80.4354 75.3828 Z M 44.6053 83.8359 C 41.9265 83.8995 39.3401 85.0602 37.5096 87.043 L 33.7244 91.1426 C 32.1014 92.8996 31.2145 95.1841 31.2225 97.5781 L 31.2362 101.615 L 31.2362 101.617 L 31.2362 101.619 L 31.2381 101.621 L 31.2381 101.623 L 31.2381 101.625 L 31.2381 101.627 L 31.2362 101.629 L 31.2362 101.631 L 31.2557 107.453 L 61.0643 107.453 C 62.8363 97.0411 60.839 89.129 55.119 83.918 C 51.891 84.254 48.5616 84.135 45.7576 83.877 C 45.3731 83.8405 44.988 83.8269 44.6053 83.8359 Z M 50.3084 87.0215 C 51.2225 86.9894 52.2156 87.5758 52.8006 88.5898 C 53.5816 89.9418 53.3415 91.5401 52.2655 92.1621 C 51.1895 92.7831 49.6841 92.1918 48.9041 90.8398 C 48.1241 89.4878 48.3633 87.8866 49.4393 87.2656 C 49.7083 87.1104 50.0037 87.0322 50.3084 87.0215 Z M 43.6951 88.2246 L 44.9002 90.9922 C 45.4172 92.1792 44.7752 93.5654 43.5252 93.9004 C 42.1572 94.2664 40.8674 94.8388 39.6444 95.5918 C 38.0474 96.5768 36.0478 95.0698 36.6678 93.2988 C 37.5818 90.6908 39.7671 88.8976 43.6951 88.2246 Z M 1.76546 94.8926 C 0.79546 94.8926 0.005694 95.6814 0.005694 96.6504 L 0.005694 107.438 L 6.77523 107.438 L 6.77523 103.912 C 6.77523 102.098 8.25224 100.621 10.0662 100.621 L 11.4979 100.621 C 13.3119 100.621 14.7889 102.098 14.7889 103.912 L 14.7889 107.438 L 23.1951 107.438 L 23.1951 103.912 C 23.1951 102.098 24.6722 100.621 26.4862 100.621 L 29.2323 100.621 L 29.2225 97.584 C 29.2195 96.667 29.3368 95.7666 29.5448 94.8926 L 1.76741 94.8926 Z M 117.078 100.307 C 105.631 100.183 94.6257 102.86 84.4627 108.164 C 83.7527 108.534 82.9871 108.814 82.1951 109.027 C 82.1511 109.044 82.1083 109.056 82.0623 109.066 C 81.0933 109.314 80.0826 109.451 79.0526 109.451 L 30.2616 109.451 L 30.2596 109.451 C 29.2896 109.451 28.4998 110.241 28.4998 111.211 L 28.4998 122 L 35.2694 122 L 35.2694 118.475 C 35.2694 116.661 36.7464 115.184 38.5604 115.184 L 39.992 115.184 C 41.807 115.184 43.285 116.661 43.285 118.475 L 43.285 122 L 51.6912 122 L 51.6912 118.475 C 51.6912 116.661 53.1683 115.184 54.9823 115.184 L 56.4139 115.184 C 58.2279 115.184 59.7049 116.661 59.7049 118.475 L 59.7049 122 L 68.1112 122 L 68.1112 118.475 C 68.1112 116.661 69.5882 115.184 71.4022 115.184 L 72.8338 115.184 C 74.6478 115.184 76.1248 116.661 76.1248 118.475 L 76.1248 122 L 86.0584 122 L 86.0584 118.475 C 86.0584 116.661 87.5354 115.184 89.3494 115.184 L 90.7811 115.184 C 92.5951 115.184 94.0721 116.661 94.0721 118.475 L 94.0721 122 L 104.004 122 L 104.004 118.475 C 104.004 116.661 105.482 115.184 107.297 115.184 L 108.728 115.184 C 110.543 115.184 112.021 116.661 112.021 118.475 L 112.021 122 L 115.533 122 C 118.568 122 121.037 119.529 121.037 116.494 L 121.037 104.668 C 121.037 104.04 120.827 103.42 120.445 102.922 L 119.306 101.439 C 118.768 100.737 117.935 100.314 117.078 100.307 Z"
     style="fill:#000000" />
</svg>
