<?xml version="1.0" encoding="UTF-8" standalone="no"?>
<!-- Created with Inkscape (http://www.inkscape.org/) -->

<svg
   width="122"
   height="122"
   viewBox="0 0 122 122"
   version="1.1"
   id="svg1"
   inkscape:version="1.4.2 (ebf0e940d0, 2025-05-08)"
   sodipodi:docname="combatpants.svg"
   xmlns:inkscape="http://www.inkscape.org/namespaces/inkscape"
   xmlns:sodipodi="http://sodipodi.sourceforge.net/DTD/sodipodi-0.dtd"
   xmlns="http://www.w3.org/2000/svg"
   xmlns:svg="http://www.w3.org/2000/svg">
  <sodipodi:namedview
     id="namedview1"
     pagecolor="#ffffff"
     bordercolor="#000000"
     borderopacity="0.25"
     inkscape:showpageshadow="2"
     inkscape:pageopacity="0.0"
     inkscape:pagecheckerboard="0"
     inkscape:deskcolor="#d1d1d1"
     inkscape:document-units="px"
     inkscape:zoom="4.8041667"
     inkscape:cx="24.35386"
     inkscape:cy="77.745013"
     inkscape:window-width="2256"
     inkscape:window-height="1427"
     inkscape:window-x="0"
     inkscape:window-y="0"
     inkscape:window-maximized="1"
     inkscape:current-layer="svg1" />
  <defs
     id="defs1" />
  <path
     d="M 42 0 L 38 0 C 37.449 0 37 0.448 37 1 L 37 6 L 42 6 Z"
     id="path1"
     style="fill:#000000" />
  <path
     d="M 38.979 8 L 36.751 8 C 36.155 10.07 35.438 12.161 34.675 14.362 C 33.245 18.487 31.792 22.72 31.242 26.805 C 36.189 22.647 38.787 16.336 38.979 8 Z"
     id="path2"
     style="fill:#000000" />
  <path
     d="M 53.293 5.707 C 52.461 4.961 51.988 3.967 52 2.942 C 52.012 1.937 52.491 0.977 53.349 0.241 L 53.589 0 L 44 0 L 44 6 L 53.586 6 Z"
     id="path3"
     style="fill:#000000" />
  <path
     d="M 47 63.204 L 47 59 C 47 56.243 44.757 54 42 54 L 30 54 C 28.897 54 28 54.897 28 56 L 28 63.307 L 35.069 65.958 Z M 33 60 C 33 58.895 33.895 58 35 58 C 36.105 58 37 58.895 37 60 C 37 61.105 36.105 62 35 62 C 33.895 62 33 61.105 33 60 Z"
     id="path4"
     style="fill:#000000" />
  <path
     d="M 85 1 C 85 0.448 84.551 0 84 0 L 80 0 L 80 6 L 85 6 Z"
     id="path5"
     style="fill:#000000" />
  <path
     d="M 40 82 C 43.86 82 47 78.859 47 75 L 47 65.257 L 40.632 66.726 L 39.105 82 Z"
     id="path6"
     style="fill:#000000" />
  <path
     d="M 62.077 25.189 C 64.084 24.03 65 23.501 65 20.017 L 65 8 L 62 8 L 62 25.234 C 62.025 25.22 62.052 25.204 62.077 25.189 Z"
     id="path7"
     style="fill:#000000" />
  <path
     d="M 90.757 26.804 C 90.205 22.709 88.754 18.481 87.326 14.362 C 86.563 12.16 85.845 10.07 85.25 8 L 83.022 8 C 83.213 16.335 85.811 22.646 90.757 26.804 Z"
     id="path8"
     style="fill:#000000" />
  <path
     d="M 56.414 6 L 78 6 L 78 0 L 56.414 0 L 54.707 1.707 C 54.23 2.12 54.005 2.538 54 2.966 C 53.995 3.412 54.226 3.859 54.668 4.257 Z M 58 2 C 58.552 2 59 2.448 59 3 C 59 3.552 58.552 4 58 4 C 57.448 4 57 3.552 57 3 C 57 2.448 57.448 2 58 2 Z"
     id="path9"
     style="fill:#000000" />
  <path
     d="M 82 84 C 77.038 84 73 79.963 73 75 L 73 59 C 73 55.141 76.14 52 80 52 L 91.666 52 L 91 30.03 C 91 29.853 90.981 29.673 90.977 29.495 C 84.58 24.996 81.235 17.77 81.021 8 L 67 8 L 67 20.017 C 67 24.432 65.509 25.517 63.077 26.922 C 62.74 27.116 62.376 27.333 62 27.568 L 62 30 L 73 30 C 73.552 30 74 30.447 74 31 C 74 31.553 73.552 32 73 32 L 62 32 L 62 34 L 70 34 C 70.552 34 71 34.447 71 35 C 71 35.553 70.552 36 70 36 L 62 36 L 62 38.417 C 62.901 39.037 63.564 40.15 63.97 41.755 C 66.127 54.676 68.289 78.763 70.998 119.935 C 71.07 121.035 72.006 122 73 122 L 88.944 122 C 89.877 122 90.928 121.551 91.006 120.883 C 91.791 114.219 91.996 95.42 92.045 83.996 C 92.03 83.996 92.016 84 92 84 Z"
     id="path10"
     style="fill:#000000" />
  <path
     d="M 34.649 67.937 L 32.415 67.099 L 33.905 82 L 37.095 82 L 38.575 67.202 L 35.226 67.975 C 35.151 67.991 35.075 68 35 68 C 34.881 68 34.762 67.979 34.649 67.937 Z"
     id="path11"
     style="fill:#000000" />
  <path
     d="M 90.105 82 L 92 82 C 93.103 82 94 81.103 94 80 L 94 65.443 L 91.674 66.315 Z"
     id="path12"
     style="fill:#000000" />
  <path
     d="M 89.585 67.099 L 87.351 67.937 C 87.238 67.979 87.119 68 87 68 C 86.925 68 86.849 67.991 86.775 67.975 L 83.425 67.202 L 84.905 82 L 88.095 82 Z"
     id="path13"
     style="fill:#000000" />
  <path
     d="M 92 54 L 80 54 C 77.243 54 75 56.243 75 59 L 75 63.204 L 86.931 65.958 L 94 63.307 L 94 56 C 94 54.897 93.103 54 92 54 Z M 87 62 C 85.895 62 85 61.105 85 60 C 85 58.895 85.895 58 87 58 C 88.105 58 89 58.895 89 60 C 89 61.105 88.105 62 87 62 Z"
     id="path14"
     style="fill:#000000" />
  <path
     d="M 82 82 L 82.895 82 L 81.367 66.727 L 75 65.257 L 75 75 C 75 78.859 78.14 82 82 82 Z"
     id="path15"
     style="fill:#000000" />
  <path
     d="M 31.022 29.496 C 31.018 29.663 31 29.833 31 30 L 30.334 52 L 42 52 C 45.86 52 49 55.141 49 59 L 49 75 C 49 79.963 44.962 84 40 84 L 30.048 84 C 30.16 103.307 30.478 115.731 30.995 120.9 C 31.061 121.558 32.114 122 33.056 122 L 49 122 C 49.994 122 50.93 121.034 51.002 119.935 C 53.711 78.763 55.874 54.676 58.014 41.836 C 58.433 40.165 59.099 39.04 60 38.418 L 60 36 L 52 36 C 51.448 36 51 35.553 51 35 C 51 34.447 51.448 34 52 34 L 60 34 L 60 32 L 49 32 C 48.448 32 48 31.553 48 31 C 48 30.447 48.448 30 49 30 L 60 30 L 60 8 L 40.979 8 C 40.765 17.771 37.419 24.997 31.022 29.496 Z"
     id="path16"
     style="fill:#000000" />
  <path
     d="M 30.326 66.316 L 28 65.443 L 28 80 C 28 81.103 28.897 82 30 82 L 31.895 82 Z"
     id="path17"
     style="fill:#000000" />
</svg>
