<?xml version="1.0" encoding="UTF-8" standalone="no"?>
<!-- Created with Inkscape (http://www.inkscape.org/) -->

<svg
   width="94.746002"
   height="94.746002"
   viewBox="0 0 94.746002 94.746004"
   version="1.1"
   id="svg1"
   inkscape:version="1.4.2 (ebf0e940d0, 2025-05-08)"
   sodipodi:docname="cougar.svg"
   xmlns:inkscape="http://www.inkscape.org/namespaces/inkscape"
   xmlns:sodipodi="http://sodipodi.sourceforge.net/DTD/sodipodi-0.dtd"
   xmlns="http://www.w3.org/2000/svg"
   xmlns:svg="http://www.w3.org/2000/svg">
  <sodipodi:namedview
     id="namedview1"
     pagecolor="#ffffff"
     bordercolor="#000000"
     borderopacity="0.25"
     inkscape:showpageshadow="2"
     inkscape:pageopacity="0.0"
     inkscape:pagecheckerboard="0"
     inkscape:deskcolor="#d1d1d1"
     inkscape:document-units="px"
     inkscape:zoom="4.8041667"
     inkscape:cx="39.132697"
     inkscape:cy="46.730269"
     inkscape:window-width="2256"
     inkscape:window-height="1427"
     inkscape:window-x="0"
     inkscape:window-y="0"
     inkscape:window-maximized="1"
     inkscape:current-layer="svg1" />
  <defs
     id="defs1" />
  <path
     d="M 6.6848065,30.7062 C 7.0090065,30.3898 7.4660065,30.1984 7.9270065,30.2218 7.9778065,30.6437 7.8528065,31.0812 7.5793065,31.4093 7.7512065,30.8898 7.1653065,30.4054 6.6848065,30.7062 Z M 6.4348065,31.0226 C 6.3020065,31.4132 6.5832065,31.8273 7.0051065,31.8273 6.8332065,31.9171 6.4738065,31.9718 6.2278065,31.9523 6.1848065,31.6125 6.2707065,31.2921 6.4348065,31.0226 Z M 75.395806,52.7886 C 76.477806,55.3277 79.501306,58.1519 79.751306,59.5386 80.126306,61.6519 79.513006,67.6675 78.966106,69.7376 78.024706,73.3118 75.395806,71.7024 69.962206,72.1399 69.606806,66.7454 72.755206,69.4446 74.247406,67.2297 74.231806,63.8781 73.606806,61.9524 71.747406,60.1399 68.091206,56.5852 59.306406,54.0461 56.802406,46.1869 57.650106,53.3119 63.595406,55.6439 64.294606,57.8349 65.704806,62.7958 59.345406,69.6899 57.107106,71.8939 56.247706,72.7377 50.368806,72.1556 49.325906,71.7923 48.900106,68.4485 50.654006,68.0111 53.525106,67.554 56.032906,66.6439 58.540706,61.3821 56.974306,59.7024 55.572006,58.1985 52.513406,52.9055 51.853206,50.9212 47.181306,52.1946 42.657906,52.4681 38.521206,52.5189 39.579806,56.4681 42.708706,68.6049 38.611106,71.5109 37.435306,72.343 32.685306,72.2102 30.997806,71.9211 30.454806,68.0227 32.853306,68.4758 35.290806,67.4914 35.923606,64.7492 31.978306,55.4874 30.630606,53.5534 29.923506,54.2565 21.907906,68.2684 19.282606,71.0454 17.790406,72.6235 13.106806,72.2876 10.458406,71.9126 10.157606,68.3931 12.321706,68.2173 15.196706,67.7095 17.138106,66.2134 22.778706,51.5965 22.106906,49.1895 16.794406,45.1075 17.255306,38.3535 9.9659065,38.8145 6.4620065,39.1856 4.8526065,41.4668 2.4659065,38.6739 3.4463065,37.8184 3.4815065,38.045 2.1924065,38.2481 1.8995065,37.7989 1.7862065,36.9317 0.90330646,36.5997 0.73930646,36.4161 -1.9130935,34.9044 2.7197065,31.2403 6.4892065,28.2169 4.7041065,25.8106 12.176706,25.0176 14.758706,20.7832 14.547806,22.1192 17.801706,26.166 39.989706,37.65 53.434706,26.6074 66.731706,29.7637 87.169736,34.6114 78.805706,68.0997 92.110736,56.4087 99.599036,55.6509 89.360736,66.6077 83.349006,60.6587 78.938806,56.2954 79.747406,45.7137 73.349006,39.6237 73.306106,43.987 73.673206,48.7448 75.399806,52.7877 Z"
     fill-rule="evenodd"
     id="path1"
     style="fill:#000000" />
</svg>
