<?xml version="1.0" encoding="UTF-8" standalone="no"?>
<!-- Created with Inkscape (http://www.inkscape.org/) -->

<svg
   width="59.395"
   height="59.395"
   viewBox="0 0 59.395001 59.395"
   version="1.1"
   id="svg1"
   inkscape:version="1.4.2 (ebf0e940d0, 2025-05-08)"
   sodipodi:docname="cowichan.svg"
   xmlns:inkscape="http://www.inkscape.org/namespaces/inkscape"
   xmlns:sodipodi="http://sodipodi.sourceforge.net/DTD/sodipodi-0.dtd"
   xmlns="http://www.w3.org/2000/svg"
   xmlns:svg="http://www.w3.org/2000/svg">
  <sodipodi:namedview
     id="namedview1"
     pagecolor="#ffffff"
     bordercolor="#000000"
     borderopacity="0.25"
     inkscape:showpageshadow="2"
     inkscape:pageopacity="0.0"
     inkscape:pagecheckerboard="0"
     inkscape:deskcolor="#d1d1d1"
     inkscape:document-units="px"
     inkscape:zoom="9.6083333"
     inkscape:cx="27.007806"
     inkscape:cy="30.026019"
     inkscape:window-width="2256"
     inkscape:window-height="1427"
     inkscape:window-x="0"
     inkscape:window-y="0"
     inkscape:window-maximized="1"
     inkscape:current-layer="svg1" />
  <defs
     id="defs1" />
  <path
     d="M 55.096536,17.695215 48.527536,7.8402148 A 0.977,0.977 0 0 0 48.096536,7.4952148 L 48.104536,7.4772148 39.673536,3.7352148 A 3.941,3.941 0 0 0 38.326536,0.95521485 3.886,3.886 0 0 0 35.203536,0.04221485 37.921,37.921 0 0 1 24.189536,0.04221485 3.9,3.9 0 0 0 21.066536,0.95521485 3.941,3.941 0 0 0 19.719536,3.7352148 L 11.290536,7.4812148 11.298536,7.4992148 A 0.977,0.977 0 0 0 10.864536,7.8402148 L 4.2965356,17.695215 A 8.935,8.935 0 0 0 2.7905356,23.007215 V 23.007215 L 3.6965356,48.431215 A 1,1 0 0 0 4.6965356,49.395215 H 4.9165356 L 5.7265356,52.637215 A 1,1 0 0 0 6.6965356,53.395215 H 12.696536 V 56.395215 A 3,3 0 0 0 15.696536,59.395215 H 43.696536 A 3,3 0 0 0 46.696536,56.395215 V 53.395215 H 52.696536 A 1,1 0 0 0 53.666536,52.637215 L 54.476536,49.395215 H 54.696536 A 1,1 0 0 0 55.696536,48.431215 L 56.604536,23.008215 V 23.008215 A 8.935,8.935 0 0 0 55.096536,17.695215 Z M 47.576536,10.019215 50.149536,13.879215 C 48.792536,14.357215 47.428536,14.802215 46.049536,15.179215 A 13.953,13.953 0 0 1 47.577536,10.019215 Z M 39.138536,9.4282148 A 1,1 0 0 1 40.904536,10.366215 L 40.047536,11.981215 41.662536,12.838215 A 1,1 0 1 1 40.724536,14.604215 L 39.109536,13.747215 38.252536,15.362215 A 1,1 0 0 1 37.368536,15.893215 0.987,0.987 0 0 1 36.900536,15.776215 1,1 0 0 1 36.486536,14.424215 L 37.343536,12.809215 35.728536,11.952215 A 1,1 0 1 1 36.666536,10.186215 L 38.281536,11.043215 Z M 22.374536,2.4682148 A 1.883,1.883 0 0 1 23.614536,2.0002148 1.939,1.939 0 0 1 23.898536,2.0212148 40.018,40.018 0 0 0 35.498536,2.0212148 1.9,1.9 0 0 1 37.022536,2.4682148 1.959,1.959 0 0 1 36.076536,5.8802148 C 35.813536,5.9232148 35.549536,5.9552148 35.286536,5.9922148 L 34.648536,4.0792148 A 1.0011773,1.0011773 0 0 0 32.748536,4.7112148 L 33.254536,6.2282148 Q 31.976536,6.3442148 30.696536,6.3732148 V 4.3952148 A 1,1 0 0 0 28.696536,4.3952148 V 6.3732148 Q 27.368536,6.3402148 26.043536,6.2182148 L 26.543536,4.7112148 A 1.0011773,1.0011773 0 0 0 24.643536,4.0792148 L 24.010536,5.9792148 C 23.788536,5.9472148 23.566536,5.9212148 23.344536,5.8852148 A 1.959,1.959 0 0 1 22.368536,2.4682148 Z M 32.403536,14.688215 A 1,1 0 1 1 30.989536,16.102215 L 29.696536,14.809215 28.403536,16.102215 A 1,1 0 0 1 26.989536,14.688215 L 28.282536,13.395215 26.989536,12.102215 A 1,1 0 0 1 28.403536,10.688215 L 29.696536,11.981215 30.989536,10.688215 A 1,1 0 0 1 32.403536,12.102215 L 31.110536,13.395215 Z M 17.729536,12.838215 19.344536,11.981215 18.487536,10.366215 A 1,1 0 0 1 20.253536,9.4282148 L 21.110536,11.043215 22.725536,10.186215 A 1,1 0 1 1 23.663536,11.952215 L 22.048536,12.809215 22.905536,14.424215 A 1,1 0 0 1 22.491536,15.776215 0.987,0.987 0 0 1 22.023536,15.893215 1,1 0 0 1 21.139536,15.362215 L 20.282536,13.747215 18.667536,14.604215 A 1,1 0 1 1 17.729536,12.838215 Z M 29.696536,19.395215 A 63.309,63.309 0 0 0 43.777536,17.816215 C 43.719536,18.742215 43.687536,19.702215 43.677536,20.688215 A 59.339,59.339 0 0 1 29.696536,22.395215 59.332,59.332 0 0 1 15.710536,20.688215 C 15.710536,19.702215 15.673536,18.742215 15.615536,17.816215 A 63.315,63.315 0 0 0 29.696536,19.395215 Z M 35.729536,26.952215 A 1,1 0 0 1 36.667536,25.186215 L 38.282536,26.043215 39.139536,24.428215 A 1,1 0 0 1 40.905536,25.366215 L 40.048536,26.981215 41.663536,27.838215 A 1,1 0 1 1 40.725536,29.604215 L 39.110536,28.747215 38.253536,30.362215 A 1,1 0 0 1 37.369536,30.893215 0.987,0.987 0 0 1 36.901536,30.776215 1,1 0 0 1 36.487536,29.424215 L 37.344536,27.809215 Z M 32.403536,29.688215 A 1,1 0 1 1 30.989536,31.102215 L 29.696536,29.809215 28.403536,31.102215 A 1,1 0 0 1 26.989536,29.688215 L 28.282536,28.395215 26.989536,27.102215 A 1,1 0 0 1 28.403536,25.688215 L 29.696536,26.981215 30.989536,25.688215 A 1,1 0 0 1 32.403536,27.102215 L 31.110536,28.395215 Z M 22.903536,29.424215 A 1,1 0 0 1 22.489536,30.776215 0.987,0.987 0 0 1 22.021536,30.893215 1,1 0 0 1 21.137536,30.362215 L 20.280536,28.747215 18.665536,29.604215 A 1,1 0 1 1 17.727536,27.838215 L 19.342536,26.981215 18.485536,25.366215 A 1,1 0 0 1 20.251536,24.428215 L 21.108536,26.043215 22.723536,25.186215 A 1,1 0 0 1 23.661536,26.952215 L 22.046536,27.809215 Z M 14.636536,32.741215 A 60.941,60.941 0 0 0 28.636536,34.405215 C 28.995536,34.405215 29.354536,34.405215 29.712536,34.395215 A 60.807,60.807 0 0 0 44.659536,32.210215 C 44.847536,33.310215 45.059536,34.404215 45.295536,35.470215 A 63.783,63.783 0 0 1 29.696536,37.395215 63.783,63.783 0 0 1 14.096536,35.470215 Q 14.396536,34.128215 14.638536,32.741215 Z M 40.446536,45.395215 38.696536,47.728215 36.946536,45.395215 38.696536,43.062215 Z M 34.446536,45.395215 32.696536,47.728215 30.946536,45.395215 32.696536,43.062215 Z M 28.446536,45.395215 26.696536,47.728215 24.946536,45.395215 26.696536,43.062215 Z M 22.446536,45.395215 20.696536,47.728215 18.946536,45.395215 20.696536,43.062215 Z M 11.815536,10.019215 A 13.953,13.953 0 0 1 13.343536,15.183215 C 11.963536,14.802215 10.599536,14.357215 9.2435356,13.883215 Z M 10.696536,51.395215 H 7.4775356 L 6.9775356,49.395215 H 10.696536 Z M 10.702536,47.395215 H 5.6615356 L 5.2065356,34.665215 A 66.214,66.214 0 0 0 11.769536,36.895215 59.48,59.48 0 0 0 10.702536,47.395215 Z M 5.0965356,27.479215 A 0.943,0.943 0 0 0 4.9475356,27.446215 L 4.7865356,22.937215 A 6.948,6.948 0 0 1 5.6035356,19.437215 60.918,60.918 0 0 0 13.696536,22.244215 64.76,64.76 0 0 1 13.011536,30.264215 58.41,58.41 0 0 1 5.0965356,27.479215 Z M 12.946536,45.395215 14.696536,43.062215 16.446536,45.395215 14.696536,47.728215 Z M 44.696536,56.395215 A 1,1 0 0 1 43.696536,57.395215 H 42.696536 V 56.395215 A 1,1 0 0 0 40.696536,56.395215 V 57.395215 H 36.696536 V 56.395215 A 1,1 0 0 0 34.696536,56.395215 V 57.395215 H 30.696536 V 56.395215 A 1,1 0 0 0 28.696536,56.395215 V 57.395215 H 25.696536 V 56.395215 A 1,1 0 0 0 23.696536,56.395215 V 57.395215 H 19.696536 V 56.395215 A 1,1 0 0 0 17.696536,56.395215 V 57.395215 H 15.696536 A 1,1 0 0 1 14.696536,56.395215 V 53.395215 H 44.696536 Z M 44.696536,47.728215 42.946536,45.395215 44.696536,43.062215 46.446536,45.395215 Z M 51.915536,51.395215 H 48.696536 V 49.395215 H 52.415536 Z M 53.731536,47.395215 H 48.690536 A 59.48,59.48 0 0 0 47.623536,36.895215 66.214,66.214 0 0 0 54.186536,34.665215 Z M 54.480536,26.438215 A 0.961,0.961 0 0 0 54.259536,26.496215 58.433,58.433 0 0 1 46.289536,29.649215 64.3,64.3 0 0 1 45.689536,22.243215 60.776,60.776 0 0 0 53.784536,19.436215 6.951,6.951 0 0 1 54.601536,22.936215 Z"
     id="path1"
     style="fill:#000000" />
</svg>
