<?xml version="1.0" encoding="UTF-8" standalone="no"?>
<!-- Created with Inkscape (http://www.inkscape.org/) -->

<svg
   width="83"
   height="83"
   viewBox="0 0 83 83"
   version="1.1"
   id="svg1"
   inkscape:version="1.4.2 (ebf0e940d0, 2025-05-08)"
   sodipodi:docname="crampons.svg"
   xmlns:inkscape="http://www.inkscape.org/namespaces/inkscape"
   xmlns:sodipodi="http://sodipodi.sourceforge.net/DTD/sodipodi-0.dtd"
   xmlns="http://www.w3.org/2000/svg"
   xmlns:svg="http://www.w3.org/2000/svg">
  <sodipodi:namedview
     id="namedview1"
     pagecolor="#ffffff"
     bordercolor="#000000"
     borderopacity="0.25"
     inkscape:showpageshadow="2"
     inkscape:pageopacity="0.0"
     inkscape:pagecheckerboard="0"
     inkscape:deskcolor="#d1d1d1"
     inkscape:document-units="px"
     inkscape:zoom="4.8041667"
     inkscape:cx="-8.5342585"
     inkscape:cy="-1.7692975"
     inkscape:window-width="2256"
     inkscape:window-height="1427"
     inkscape:window-x="0"
     inkscape:window-y="0"
     inkscape:window-maximized="1"
     inkscape:current-layer="svg1" />
  <defs
     id="defs1" />
  <path
     d="M 73.503 64.7813 C 73.623 66.9713 73.4473 70.8865 71.4273 71.8565 C 62.5367 72.1416 49.557 72.0751 35.417 72.0751 C 27.997 72.0751 19.1708 72.0487 11.4246 71.9981 C 9.71464 71.9081 9.41583 68.9458 9.47503 67.2369 L 9.51297 66.1413 C 9.5552 64.922 9.94297 63.7713 10.693 62.8313 L 10.403 61.3013 C 10.1338 59.8515 11.2101 58.5313 12.753 58.5313 C 14.303 58.5813 16.023 58.6913 18.013 58.9013 C 18.323 59.4413 18.643 59.9813 18.963 60.5013 C 16.533 60.2413 14.503 60.0913 12.713 60.0313 C 12.1881 60.0013 11.78 60.506 11.883 61.0213 L 12.133 62.3413 C 23.3073 64.2162 37.2769 66.8313 48.053 66.8313 C 50.0366 62.699 51.9252 57.081 52.673 53.5113 C 52.953 52.1513 54.083 51.1113 55.4831 50.9013 C 57.0431 50.6713 58.6531 50.8613 60.2531 51.4713 C 61.4231 51.9413 62.2231 53.0713 62.3031 54.3512 C 62.5306 57.3606 62.2808 62.0773 62.1331 65.0913 C 64.8286 64.2984 67.6881 63.0876 70.1731 61.5313 L 69.9831 60.7313 C 69.8566 60.204 69.2971 59.9499 68.8131 60.1813 C 67.2531 60.9413 65.5731 61.5713 63.7831 62.0813 C 63.7867 61.9811 63.8274 60.7689 63.8331 60.5013 C 65.3631 60.0413 66.8131 59.4813 68.1531 58.8313 C 69.5071 58.1754 71.1063 58.9394 71.4431 60.3913 L 71.6431 61.2513 C 72.3779 61.4353 72.7885 61.8508 72.9931 62.4213 C 73.263 63.1813 73.463 63.7912 73.503 64.7813 Z"
     id="path1"
     style="fill:#000000" />
  <path
     d="M 32.703 62.3213 C 37.863 62.9913 42.913 63.5513 47.813 63.6813 C 48.023 63.1913 48.223 62.6913 48.413 62.1813 C 43.003 62.0413 37.383 61.4313 31.623 60.6613 C 32.2158 61.4319 32.5016 61.6767 32.703 62.3213 Z"
     id="path2"
     style="fill:#000000" />
  <path
     d="M 14.913 49.1813 C 17.303 48.6113 19.883 47.9513 21.953 47.3913 C 21.133 45.7913 20.263 44.0413 19.263 41.9813 C 18.973 41.3813 18.403 40.9813 17.743 40.9113 C 17.083 40.8414 16.443 41.1113 16.033 41.6313 L 14.003 44.2013 C 13.603 44.7113 13.483 45.3913 13.693 46.0313 C 14.073 47.0913 14.483 48.1513 14.913 49.1813 Z"
     id="path3"
     style="fill:#000000" />
  <path
     d="M 25.513 53.9713 C 21.603 54.7113 19.263 55.1213 17.773 55.3213 C 19.2299 58.1696 20.7552 60.6693 22.473 63.1313 C 22.683 63.4313 23.023 63.6313 23.393 63.6713 L 29.863 64.4913 C 31.0046 64.6818 31.8218 63.3086 31.063 62.3713 C 29.0997 59.9619 27.0506 56.6494 25.513 53.9713 Z"
     id="path4"
     style="fill:#000000" />
  <path
     d="M 14.193 52.6313 L 14.953 53.5813 C 15.403 54.1413 15.343 54.3513 24.633 52.6113 C 24.4806 52.3233 23.4381 49.2996 23.353 48.5613 C 21.033 49.2013 17.773 50.0413 14.853 50.7313 C 14.003 50.9313 13.643 51.9513 14.193 52.6313 Z"
     id="path5"
     style="fill:#000000" />
  <path
     d="M 35.613 48.4812 C 35.783 49.0112 35.8531 49.5612 35.7931 50.1112 C 37.2231 49.7412 38.6431 49.3412 40.0431 48.9312 C 40.8831 48.6812 41.4031 47.8312 41.2631 46.9612 L 40.9631 45.1312 C 40.7931 44.0612 39.6831 43.4112 38.6531 43.7812 C 37.2831 44.2712 35.9031 44.7412 34.5131 45.1912 C 34.5831 45.3312 34.6531 45.5112 34.7131 45.6912 Z"
     id="path6"
     style="fill:#000000" />
  <path
     d="M 29.123 53.3113 L 32.493 52.2313 C 33.913 51.7713 34.623 50.2613 34.183 48.9413 C 33.303 46.2513 33.303 46.0613 33.063 45.6713 C 32.473 44.6313 31.213 44.1113 30.013 44.4913 L 26.643 45.5713 C 25.503 45.9413 24.783 47.0113 24.833 48.1513 C 24.833 48.5313 25.743 51.6513 26.183 52.3213 C 26.823 53.2312 28.003 53.6712 29.123 53.3113 Z M 29.563 47.2413 C 30.483 47.2413 31.223 47.9813 31.223 48.9013 C 31.223 49.8213 30.483 50.5613 29.563 50.5613 C 28.653 50.5613 27.903 49.8213 27.903 48.9013 C 27.903 47.9812 28.653 47.2413 29.563 47.2413 Z"
     id="path7"
     style="fill:#000000" />
  <path
     style="fill:#000000;paint-order:stroke fill markers;stroke:#000000;stroke-linecap:round;stroke-linejoin:round;stroke-miterlimit:3.9;stroke-width:0.0"
     d="M 10.2299 70.9716 L 13.9718 80.989 L 17.667 70.9716 Z"
     id="path9-5" />
  <path
     style="fill:#000000;paint-order:stroke fill markers;stroke:#000000;stroke-linecap:round;stroke-linejoin:round;stroke-miterlimit:3.9;stroke-width:0.0"
     d="M 63.4564 70.9259 L 67.1984 80.9432 L 70.8936 70.9259 Z"
     id="path9-5-1" />
  <path
     style="fill:#000000;paint-order:stroke fill markers;stroke:#000000;stroke-linecap:round;stroke-linejoin:round;stroke-miterlimit:3.9;stroke-width:0.0"
     d="M 26.2437 70.8876 L 29.9856 80.9049 L 33.6808 70.8876 Z"
     id="path9-5-7" />
  <path
     style="fill:#000000;paint-order:stroke fill markers;stroke:#000000;stroke-linecap:round;stroke-linejoin:round;stroke-miterlimit:3.9;stroke-width:0.0"
     d="M 46.1815 70.9827 L 49.9235 81 L 53.6187 70.9827 Z"
     id="path9-5-9" />
  <path
     style="fill:#000000;paint-order:stroke fill markers;stroke:#000000;stroke-linecap:round;stroke-linejoin:round;stroke-miterlimit:3.9;stroke-width:0.0"
     d="M 14.3119 68.1782 L 17.6796 77.1939 L 21.0053 68.1782 Z"
     id="path9-5-6" />
  <path
     style="fill:#000000;paint-order:stroke fill markers;stroke:#000000;stroke-linecap:round;stroke-linejoin:round;stroke-miterlimit:3.9;stroke-width:0.0"
     d="M 30.2402 68.1041 L 33.608 77.1197 L 36.9336 68.1041 Z"
     id="path9-5-6-1" />
  <path
     style="fill:#000000;paint-order:stroke fill markers;stroke:#000000;stroke-linecap:round;stroke-linejoin:round;stroke-miterlimit:3.9;stroke-width:0.0"
     d="M 50.1863 68.155 L 53.5541 77.1707 L 56.8797 68.155 Z"
     id="path9-5-6-7" />
  <path
     style="fill:#000000;paint-order:stroke fill markers;stroke:#000000;stroke-linecap:round;stroke-linejoin:round;stroke-miterlimit:3.9;stroke-width:0.0"
     d="M 66.6187 68.0499 L 69.9864 77.0655 L 73.3121 68.0499 Z"
     id="path9-5-6-2" />
  <path
     d="M 73.503 25.8809 C 73.623 28.0709 73.4473 31.9861 71.4273 32.9561 C 62.5367 33.2412 49.557 33.1747 35.417 33.1747 C 27.997 33.1747 19.1708 33.1483 11.4246 33.0977 C 9.71464 33.0077 9.41583 30.0454 9.47503 28.3365 L 9.51297 27.2409 C 9.5552 26.0216 9.94297 24.8709 10.693 23.9309 L 10.403 22.4009 C 10.1338 20.9511 11.2101 19.6309 12.753 19.6309 C 14.303 19.6809 16.023 19.7909 18.013 20.0009 C 18.323 20.5409 18.643 21.0809 18.963 21.6009 C 16.533 21.3409 14.503 21.1909 12.713 21.1309 C 12.1881 21.1009 11.78 21.6056 11.883 22.1209 L 12.133 23.4409 C 23.3073 25.3158 37.2769 27.9309 48.053 27.9309 C 50.0366 23.7986 51.9252 18.1806 52.673 14.6109 C 52.953 13.2509 54.083 12.2109 55.4831 12.0009 C 57.0431 11.7709 58.6531 11.9609 60.2531 12.5709 C 61.4231 13.0409 62.2231 14.1709 62.3031 15.4508 C 62.5306 18.4602 62.2808 23.1769 62.1331 26.1909 C 64.8286 25.398 67.6881 24.1872 70.1731 22.6309 L 69.9831 21.8309 C 69.8566 21.3036 69.2971 21.0495 68.8131 21.2809 C 67.2531 22.0409 65.5731 22.6709 63.7831 23.1809 C 63.7867 23.0807 63.8274 21.8685 63.8331 21.6009 C 65.3631 21.1409 66.8131 20.5809 68.1531 19.9309 C 69.5071 19.275 71.1063 20.039 71.4431 21.4909 L 71.6431 22.3509 C 72.3779 22.5349 72.7885 22.9504 72.9931 23.5209 C 73.263 24.2809 73.463 24.8908 73.503 25.8809 Z"
     id="path1-3"
     style="fill:#000000" />
  <path
     d="M 32.703 23.4209 C 37.863 24.0909 42.913 24.6509 47.813 24.7809 C 48.023 24.2909 48.223 23.7909 48.413 23.2809 C 43.003 23.1409 37.383 22.5309 31.623 21.7609 C 32.2158 22.5315 32.5016 22.7763 32.703 23.4209 Z"
     id="path2-2"
     style="fill:#000000" />
  <path
     d="M 14.913 10.2809 C 17.303 9.7109 19.883 9.0509 21.953 8.4909 C 21.133 6.8909 20.263 5.1409 19.263 3.0809 C 18.973 2.4809 18.403 2.0809 17.743 2.0109 C 17.083 1.941 16.443 2.2109 16.033 2.7309 L 14.003 5.3009 C 13.603 5.8109 13.483 6.4909 13.693 7.1309 C 14.073 8.1909 14.483 9.2509 14.913 10.2809 Z"
     id="path3-0"
     style="fill:#000000" />
  <path
     d="M 25.513 15.0709 C 21.603 15.8109 19.263 16.2209 17.773 16.4209 C 19.2299 19.2692 20.7552 21.7689 22.473 24.2309 C 22.683 24.5309 23.023 24.7309 23.393 24.7709 L 29.863 25.5909 C 31.0046 25.7814 31.8218 24.4082 31.063 23.4709 C 29.0997 21.0615 27.0506 17.749 25.513 15.0709 Z"
     id="path4-6"
     style="fill:#000000" />
  <path
     d="M 14.193 13.7309 L 14.953 14.6809 C 15.403 15.2409 15.343 15.4509 24.633 13.7109 C 24.4806 13.4229 23.4381 10.3992 23.353 9.6609 C 21.033 10.3009 17.773 11.1409 14.853 11.8309 C 14.003 12.0309 13.643 13.0509 14.193 13.7309 Z"
     id="path5-1"
     style="fill:#000000" />
  <path
     d="M 35.613 9.5808 C 35.783 10.1108 35.8531 10.6608 35.7931 11.2108 C 37.2231 10.8408 38.6431 10.4408 40.0431 10.0308 C 40.8831 9.7808 41.4031 8.9308 41.2631 8.0608 L 40.9631 6.2308 C 40.7931 5.1608 39.6831 4.5108 38.6531 4.8808 C 37.2831 5.3708 35.9031 5.8408 34.5131 6.2908 C 34.5831 6.4308 34.6531 6.6108 34.7131 6.7908 Z"
     id="path6-5"
     style="fill:#000000" />
  <path
     d="M 29.123 14.4109 L 32.493 13.3309 C 33.913 12.8709 34.623 11.3609 34.183 10.0409 C 33.303 7.3509 33.303 7.1609 33.063 6.7709 C 32.473 5.7309 31.213 5.2109 30.013 5.5909 L 26.643 6.6709 C 25.503 7.0409 24.783 8.1109 24.833 9.2509 C 24.833 9.6309 25.743 12.7509 26.183 13.4209 C 26.823 14.3308 28.003 14.7708 29.123 14.4109 Z M 29.563 8.3409 C 30.483 8.3409 31.223 9.0809 31.223 10.0009 C 31.223 10.9209 30.483 11.6609 29.563 11.6609 C 28.653 11.6609 27.903 10.9209 27.903 10.0009 C 27.903 9.0808 28.653 8.3409 29.563 8.3409 Z"
     id="path7-5"
     style="fill:#000000" />
  <path
     style="fill:#000000;paint-order:stroke fill markers;stroke:#000000;stroke-linecap:round;stroke-linejoin:round;stroke-miterlimit:3.9;stroke-width:0.0"
     d="M 10.2299 32.0712 L 13.9718 42.0886 L 17.667 32.0712 Z"
     id="path9-5-4" />
  <path
     style="fill:#000000;paint-order:stroke fill markers;stroke:#000000;stroke-linecap:round;stroke-linejoin:round;stroke-miterlimit:3.9;stroke-width:0.0"
     d="M 63.4564 32.0255 L 67.1984 42.0428 L 70.8936 32.0255 Z"
     id="path9-5-1-7" />
  <path
     style="fill:#000000;paint-order:stroke fill markers;stroke:#000000;stroke-linecap:round;stroke-linejoin:round;stroke-miterlimit:3.9;stroke-width:0.0"
     d="M 26.2437 31.9872 L 29.9856 42.0045 L 33.6808 31.9872 Z"
     id="path9-5-7-6" />
  <path
     style="fill:#000000;paint-order:stroke fill markers;stroke:#000000;stroke-linecap:round;stroke-linejoin:round;stroke-miterlimit:3.9;stroke-width:0.0"
     d="M 46.1815 32.0823 L 49.9235 42.0996 L 53.6187 32.0823 Z"
     id="path9-5-9-5" />
  <path
     style="fill:#000000;paint-order:stroke fill markers;stroke:#000000;stroke-linecap:round;stroke-linejoin:round;stroke-miterlimit:3.9;stroke-width:0.0"
     d="M 14.3119 29.2778 L 17.6796 38.2935 L 21.0053 29.2778 Z"
     id="path9-5-6-6" />
  <path
     style="fill:#000000;paint-order:stroke fill markers;stroke:#000000;stroke-linecap:round;stroke-linejoin:round;stroke-miterlimit:3.9;stroke-width:0.0"
     d="M 30.2402 29.2037 L 33.608 38.2193 L 36.9336 29.2037 Z"
     id="path9-5-6-1-9" />
  <path
     style="fill:#000000;paint-order:stroke fill markers;stroke:#000000;stroke-linecap:round;stroke-linejoin:round;stroke-miterlimit:3.9;stroke-width:0.0"
     d="M 50.1863 29.2546 L 53.5541 38.2703 L 56.8797 29.2546 Z"
     id="path9-5-6-7-3" />
  <path
     style="fill:#000000;paint-order:stroke fill markers;stroke:#000000;stroke-linecap:round;stroke-linejoin:round;stroke-miterlimit:3.9;stroke-width:0.0"
     d="M 66.6187 29.1495 L 69.9864 38.1651 L 73.3121 29.1495 Z"
     id="path9-5-6-2-7" />
</svg>
