<?xml version="1.0" encoding="UTF-8" standalone="no"?>
<!-- Created with Inkscape (http://www.inkscape.org/) -->

<svg
   width="93.141998"
   height="93.141998"
   viewBox="0 0 93.141999 93.142"
   version="1.1"
   id="svg1"
   inkscape:version="1.4.2 (ebf0e940d0, 2025-05-08)"
   sodipodi:docname="curators.svg"
   xmlns:inkscape="http://www.inkscape.org/namespaces/inkscape"
   xmlns:sodipodi="http://sodipodi.sourceforge.net/DTD/sodipodi-0.dtd"
   xmlns="http://www.w3.org/2000/svg"
   xmlns:svg="http://www.w3.org/2000/svg">
  <sodipodi:namedview
     id="namedview1"
     pagecolor="#ffffff"
     bordercolor="#000000"
     borderopacity="0.25"
     inkscape:showpageshadow="2"
     inkscape:pageopacity="0.0"
     inkscape:pagecheckerboard="0"
     inkscape:deskcolor="#d1d1d1"
     inkscape:document-units="px"
     inkscape:zoom="4.8041667"
     inkscape:cx="45.065048"
     inkscape:cy="31.118821"
     inkscape:window-width="2256"
     inkscape:window-height="1427"
     inkscape:window-x="0"
     inkscape:window-y="0"
     inkscape:window-maximized="1"
     inkscape:current-layer="svg1" />
  <defs
     id="defs1" />
  <path
     d="M 93.142004,41.768928 H 88.942004 L 88.142004,41.168928 H 87.842004 L 87.142004,41.768928 30.642004,41.568928 30.342004,41.068928 C 30.342004,41.068928 31.542004,40.168928 32.242004,38.168928 32.242004,38.168928 32.142004,37.668928 32.042004,37.968928 32.042004,37.968928 31.542004,39.668928 29.942004,41.068928 29.942004,41.068928 30.042004,41.268928 30.242004,41.568928 H 29.142004 C 29.042004,40.268928 28.342004,40.168928 27.542004,40.168928 26.742004,40.168928 27.242004,39.768928 27.242004,39.768928 28.042004,38.368928 26.542004,38.268928 26.542004,38.268928 27.142004,39.068928 25.942004,40.568928 25.542004,41.268928 25.442004,41.468928 25.442004,41.568928 25.542004,41.768928 24.142004,41.968928 22.342004,42.568928 20.842004,43.968928 20.242004,44.468928 19.542004,44.868928 18.842004,45.168928 18.342004,45.368928 17.742004,45.468928 17.242004,45.468928 16.742004,45.468928 16.342004,45.368928 16.142004,44.968928 16.042004,44.768928 15.842004,44.668928 15.642004,44.668928 14.042004,44.668928 9.4420041,44.568928 5.3420041,44.868928 3.8420041,44.968928 2.4420041,45.268928 1.2420041,45.468928 1.2420041,45.468928 -0.6579959,45.868928 0.2420041,47.668928 0.2420041,47.668928 1.0420041,50.168928 1.3420041,54.768928 1.3420041,54.968928 1.4420041,55.068928 1.6420041,55.168928 1.6420041,55.168928 1.6420041,55.168928 1.6420041,55.168928 1.7420041,55.168928 1.7420041,55.268928 1.8420041,55.268928 1.9420041,55.268928 1.9420041,55.268928 2.0420041,55.268928 2.6420041,55.068928 14.342004,49.968928 14.342004,49.968928 14.342004,49.968928 21.242004,46.668928 22.742004,46.768928 22.742004,46.768928 22.742004,46.768928 22.742004,46.768928 22.842004,47.268928 23.142004,48.268928 24.242004,48.468928 25.642004,48.768928 26.542004,48.068928 26.842004,47.568928 27.042004,47.068928 27.242004,46.268928 27.142004,45.868928 27.142004,45.868928 27.142004,45.868928 27.142004,45.868928 31.242004,45.668928 36.042004,45.568928 36.042004,45.568928 H 50.542004 C 50.542004,45.568928 50.942004,45.568928 51.542004,45.368928 H 54.842004 C 55.042004,45.368928 55.242004,45.168928 55.242004,44.968928 V 44.968928 L 67.042004,44.868928 V 45.068928 C 67.042004,45.068928 67.042004,45.068928 67.042004,45.068928 H 70.142004 C 70.142004,45.068928 70.142004,45.068928 70.142004,45.068928 V 44.868928 L 80.742004,44.768928 V 44.968928 C 80.742004,44.968928 80.742004,44.968928 80.742004,44.968928 H 83.842004 C 83.842004,44.968928 83.942004,44.968928 83.942004,44.868928 V 44.668928 H 89.542004 V 44.768928 C 89.542004,44.768928 89.542004,44.868928 89.642004,44.868928 H 92.742004 C 92.742004,44.868928 92.842004,44.868928 92.842004,44.768928 V 44.068928 C 92.842004,44.068928 92.842004,43.968928 92.742004,43.968928 H 91.642004 C 91.642004,43.968928 91.542004,43.968928 91.542004,43.968928 H 89.642004 C 89.642004,43.968928 89.642004,43.968928 89.642004,43.968928 V 44.068928 H 84.042004 83.842004 V 44.468928 C 83.842004,44.468928 83.842004,44.568928 83.742004,44.568928 H 81.042004 C 81.042004,44.568928 81.042004,44.568928 81.042004,44.568928 V 44.368928 H 80.842004 70.242004 70.042004 V 44.868928 C 70.042004,44.868928 70.042004,44.868928 70.042004,44.868928 H 67.342004 C 67.342004,44.868928 67.342004,44.868928 67.342004,44.868928 V 44.368928 H 67.142004 54.242004 C 55.342004,44.268928 57.142004,44.168928 60.142004,44.168928 60.242004,44.168928 60.242004,44.168928 60.342004,44.168928 60.542004,44.168928 60.742004,44.168928 60.942004,44.168928 61.042004,44.168928 61.042004,44.168928 61.142004,44.168928 61.342004,44.168928 61.542004,44.168928 61.742004,44.168928 61.842004,44.168928 62.042004,44.168928 62.142004,44.168928 62.742004,44.168928 63.342004,44.168928 64.042004,44.168928 H 89.642004 C 89.642004,44.168928 89.642004,44.168928 89.642004,44.168928 H 91.642004 C 91.942004,44.068928 92.842004,43.868928 92.942004,42.968928 92.942004,42.868928 92.942004,42.768928 92.742004,42.768928 L 92.942004,42.668928 V 41.768928 Z M 3.6420041,45.568928 C 1.6420041,46.068928 1.1420041,46.468928 1.2420041,48.068928 1.3420041,49.168928 1.7420041,51.668928 1.7420041,55.068928 1.6420041,54.968928 1.6420041,54.968928 1.6420041,54.968928 1.3420041,50.168928 0.5420041,47.668928 0.5420041,47.668928 -0.3579959,45.968928 1.5420041,45.468928 1.5420041,45.468928 2.6420041,45.268928 4.0420041,45.168928 5.4420041,44.968928 5.2420041,45.068928 4.7420041,45.268928 3.6420041,45.568928 Z M 90.042004,44.368928 C 90.042004,44.368928 90.042004,44.268928 90.042004,44.368928 L 92.842004,44.268928 C 92.842004,44.268928 92.942004,44.268928 92.942004,44.368928 V 44.668928 C 92.942004,44.668928 92.942004,44.768928 92.842004,44.768928 H 90.142004 C 90.142004,44.768928 90.042004,44.768928 90.042004,44.668928 Z M 29.142004,41.968928 C 29.142004,41.868928 29.142004,41.768928 29.142004,41.668928 H 30.342004 C 30.542004,41.968928 30.742004,42.268928 30.842004,42.468928 H 29.642004 29.442004 C 29.442004,42.468928 29.042004,42.468928 28.742004,42.268928 V 42.268928 C 28.742004,42.268928 28.642004,42.268928 28.642004,42.268928 28.642004,42.268928 28.642004,42.268928 28.642004,42.268928 28.642004,42.268928 28.542004,42.268928 28.542004,42.168928 28.542004,42.168928 28.442004,42.168928 28.442004,42.068928 28.442004,42.068928 28.442004,42.068928 28.442004,42.068928 28.442004,42.068928 28.442004,42.068928 28.342004,41.968928 29.242004,42.068928 29.142004,41.968928 29.142004,41.968928 Z M 26.642004,41.268928 C 26.842004,41.068928 27.042004,40.968928 27.342004,41.068928 27.642004,41.168928 27.842004,41.268928 28.042004,41.468928 27.942004,41.468928 27.642004,41.468928 27.442004,41.468928 27.242004,41.468928 26.942004,41.468928 26.642004,41.468928 26.542004,41.468928 26.642004,41.368928 26.642004,41.268928 Z M 26.742004,46.768928 C 26.642004,47.568928 26.242004,48.068928 25.342004,48.168928 24.742004,48.168928 24.142004,48.168928 24.042004,47.968928 23.742004,47.768928 23.442004,47.268928 23.442004,46.768928 23.442004,46.568928 23.542004,46.368928 23.742004,46.168928 V 46.168928 C 23.942004,46.068928 24.342004,46.068928 24.642004,45.968928 24.742004,46.368928 24.642004,47.368928 24.642004,47.368928 24.542004,47.568928 24.442004,47.368928 24.442004,47.368928 H 24.342004 V 47.568928 C 24.642004,47.968928 24.842004,47.568928 24.842004,47.568928 V 45.968928 C 25.142004,45.968928 25.442004,45.868928 25.842004,45.868928 26.242004,45.968928 26.742004,46.168928 26.742004,46.768928 Z M 34.042004,44.768928 C 34.042004,44.768928 32.142004,44.868928 30.642004,44.668928 29.242004,44.468928 26.842004,44.868928 26.842004,44.868928 25.942004,45.568928 24.242004,45.468928 24.242004,45.468928 H 21.642004 C 22.242004,43.668928 24.942004,42.768928 24.942004,42.768928 H 26.142004 C 26.142004,42.768928 26.142004,42.768928 26.142004,42.768928 26.142004,42.768928 26.342004,42.868928 25.242004,42.968928 24.842004,42.968928 24.642004,43.168928 24.542004,43.468928 24.242004,44.368928 25.142004,45.268928 26.042004,44.968928 26.242004,44.868928 26.442004,44.768928 26.642004,44.668928 26.842004,44.568928 26.942004,44.368928 27.042004,44.068928 27.342004,43.368928 27.342004,42.968928 27.242004,42.668928 H 28.142004 C 28.142004,42.568928 28.242004,42.568928 28.342004,42.468928 28.742004,42.768928 29.242004,42.768928 29.242004,42.768928 H 30.742004 C 30.742004,42.868928 30.742004,42.968928 30.742004,42.968928 30.742004,42.968928 30.742004,42.968928 30.742004,43.068928 30.642004,43.168928 30.542004,43.268928 30.542004,43.468928 30.542004,44.068928 31.142004,43.968928 31.142004,43.968928 31.142004,43.968928 31.542004,43.968928 31.542004,43.468928 31.542004,43.168928 31.442004,43.068928 31.342004,43.068928 L 31.142004,42.768928 H 31.242004 C 31.442004,43.168928 31.742004,43.368928 31.742004,43.368928 31.742004,43.368928 32.842004,43.268928 33.842004,43.568928 35.042004,43.968928 34.042004,44.768928 34.042004,44.768928 Z M 55.242004,44.568928 V 44.868928 C 55.242004,45.068928 55.142004,45.168928 54.942004,45.168928 H 52.142004 C 52.342004,45.068928 52.642004,44.868928 52.842004,44.668928 52.842004,44.668928 52.842004,44.568928 53.142004,44.568928 Z M 92.942004,42.668928 31.442004,42.468928 H 31.242004 L 30.742004,41.668928 87.342004,41.868928 88.042004,41.268928 88.942004,41.868928 H 92.942004 Z"
     id="path1"
     style="fill:#000000" />
</svg>
