<?xml version="1.0" encoding="UTF-8" standalone="no"?>
<!-- Created with Inkscape (http://www.inkscape.org/) -->

<svg
   width="1.961"
   height="1.961"
   viewBox="0 0 1.961 1.9609999"
   version="1.1"
   id="svg1"
   inkscape:version="1.4.2 (ebf0e940d0, 2025-05-08)"
   sodipodi:docname="curing.svg"
   xmlns:inkscape="http://www.inkscape.org/namespaces/inkscape"
   xmlns:sodipodi="http://sodipodi.sourceforge.net/DTD/sodipodi-0.dtd"
   xmlns="http://www.w3.org/2000/svg"
   xmlns:svg="http://www.w3.org/2000/svg">
  <sodipodi:namedview
     id="namedview1"
     pagecolor="#ffffff"
     bordercolor="#000000"
     borderopacity="0.25"
     inkscape:showpageshadow="2"
     inkscape:pageopacity="0.0"
     inkscape:pagecheckerboard="0"
     inkscape:deskcolor="#d1d1d1"
     inkscape:document-units="px"
     inkscape:zoom="65.737822"
     inkscape:cx="2.5251825"
     inkscape:cy="6.913828"
     inkscape:window-width="2256"
     inkscape:window-height="1427"
     inkscape:window-x="0"
     inkscape:window-y="0"
     inkscape:window-maximized="1"
     inkscape:current-layer="svg1" />
  <defs
     id="defs1">
    <inkscape:path-effect
       effect="fillet_chamfer"
       id="path-effect1"
       is_visible="true"
       lpeversion="1"
       nodesatellites_param="F,0,0,1,0,0,0,1 @ F,0,0,1,0,0,0,1 @ F,0,0,1,0,0,0,1 @ F,0,0,1,0,0,0,1 @ F,0,0,1,0,0,0,1 @ F,0,0,1,0,0,0,1 @ F,0,0,1,0,0,0,1 @ F,0,0,1,0,0,0,1 @ F,0,0,1,0,0,0,1 @ F,0,0,1,0,0,0,1 @ F,0,0,1,0,0,0,1 @ F,0,0,1,0,0,0,1 @ F,0,0,1,0,0,0,1 @ F,0,0,1,0,0,0,1 @ F,0,0,1,0,0,0,1 @ F,0,0,1,0,0,0,1 @ F,0,0,1,0,0,0,1 @ F,0,0,1,0,0,0,1 @ F,0,0,1,0,0,0,1 @ F,0,0,1,0,0,0,1 @ F,0,0,1,0,0,0,1 @ F,0,0,1,0,0,0,1 @ F,0,0,1,0,0,0,1 @ F,0,0,1,0,0,0,1 @ F,0,0,1,0,0,0,1 @ F,0,0,1,0,0,0,1 @ F,0,0,1,0,0,0,1 @ F,0,0,1,0,0,0,1 @ F,0,0,1,0,0,0,1 @ F,0,0,1,0,0,0,1 @ F,0,0,1,0,0,0,1 @ F,0,0,1,0,0,0,1 @ F,0,0,1,0,0,0,1 @ F,0,0,1,0,0,0,1 @ F,0,0,1,0,0,0,1 @ F,0,0,1,0,0,0,1"
       radius="0"
       unit="px"
       method="auto"
       mode="F"
       chamfer_steps="1"
       flexible="false"
       use_knot_distance="true"
       apply_no_radius="true"
       apply_with_radius="true"
       only_selected="false"
       hide_knots="false" />
  </defs>
  <path
     d="M 0.000118494 0.280337 L 0.000118494 1.54041 C 0.0226594 1.54763 0.0773217 1.52273 0.0701227 1.55968 L 0.0701227 1.68042 L 0.35014 1.68042 L 0.35014 1.54041 L 1.61022 1.54041 L 1.61022 1.68042 L 1.89023 1.68042 L 1.89023 1.54041 C 1.91277 1.5332 1.96744 1.5581 1.96024 1.52114 L 1.96024 0.280337 L 0.000118494 0.280337 Z M 0.140127 0.35034 L 1.82023 0.35034 C 1.81301 0.372883 1.83792 0.427546 1.80096 0.420346 L 1.15792 0.420346 C 1.15807 0.478639 1.2213 0.447553 1.25708 0.455348 L 1.82023 0.455348 C 1.81673 0.481163 1.82706 0.520806 1.81541 0.538477 L 1.38257 0.538477 C 1.40095 0.59155 1.45405 0.568595 1.49455 0.573463 L 1.82023 0.573463 C 1.81673 0.599278 1.82706 0.638921 1.81541 0.656592 L 1.46611 0.656592 C 1.47154 0.714256 1.53237 0.684151 1.5695 0.691594 L 1.82023 0.691594 C 1.81673 0.71741 1.82706 0.757052 1.81541 0.774723 L 1.50617 0.774723 C 1.47342 0.833532 1.55421 0.801642 1.58495 0.809728 L 1.82023 0.809728 C 1.81673 0.835543 1.82706 0.875186 1.81541 0.892857 C 1.63415 0.893968 1.4525 0.890632 1.27149 0.894529 C 1.24156 0.899802 1.21164 0.905073 1.18171 0.910346 C 1.24463 0.924033 1.30808 0.931505 1.37251 0.927835 L 1.82023 0.927835 C 1.81673 0.95365 1.82706 0.993293 1.81541 1.01096 L 1.49824 1.01096 C 1.49213 1.06977 1.55847 1.03788 1.59288 1.04597 L 1.82023 1.04597 C 1.81673 1.07178 1.82705 1.11142 1.81541 1.1291 L 1.48279 1.1291 C 1.43326 1.18676 1.52278 1.15666 1.55282 1.1641 L 1.82023 1.1641 C 1.81673 1.18992 1.82706 1.22956 1.81541 1.24723 L 1.41265 1.24723 C 1.33892 1.30099 1.43306 1.27685 1.46446 1.28221 L 1.82023 1.28221 C 1.81673 1.30803 1.82706 1.34767 1.81541 1.36534 L 1.17037 1.36534 C 1.12906 1.42364 1.2144 1.39255 1.24464 1.40035 L 1.82023 1.40035 C 1.81301 1.42289 1.83792 1.47755 1.80096 1.47035 L 0.140127 1.47035 C 0.147346 1.44783 0.122436 1.39317 0.159397 1.40039 L 0.802433 1.40039 C 0.80229 1.3421 0.73906 1.37318 0.703274 1.36539 L 0.140127 1.36539 C 0.143626 1.33957 0.133301 1.29993 0.144945 1.28226 L 0.57779 1.28226 C 0.559409 1.22919 0.506311 1.25214 0.465809 1.24727 L 0.140127 1.24727 C 0.143626 1.22146 0.133301 1.18182 0.144945 1.16414 L 0.49425 1.16414 C 0.488817 1.10648 0.427985 1.13659 0.390852 1.12914 L 0.140127 1.12914 C 0.143626 1.10332 0.133301 1.06369 0.144945 1.04601 L 0.454189 1.04601 C 0.486939 0.987207 0.40615 1.01909 0.375403 1.01101 L 0.140127 1.01101 C 0.143626 0.985194 0.133301 0.945551 0.144945 0.92788 C 0.326204 0.926769 0.507852 0.930105 0.688867 0.926208 C 0.718792 0.920935 0.748717 0.915664 0.778642 0.910391 C 0.71573 0.896704 0.652274 0.889232 0.587844 0.892902 L 0.140127 0.892902 C 0.143626 0.867087 0.133301 0.827444 0.144945 0.809773 L 0.462119 0.809773 C 0.468226 0.750964 0.401884 0.782854 0.367472 0.774768 L 0.140127 0.774768 C 0.143626 0.748953 0.133301 0.709311 0.144945 0.691639 L 0.477569 0.691639 C 0.527097 0.633976 0.437571 0.66408 0.407533 0.656637 L 0.140127 0.656637 C 0.143626 0.630822 0.133301 0.59118 0.144945 0.573508 L 0.547711 0.573508 C 0.621441 0.51975 0.527292 0.543885 0.495893 0.538522 L 0.140127 0.538522 C 0.143626 0.512707 0.133301 0.473064 0.144945 0.455393 L 0.78999 0.455393 C 0.831292 0.3971 0.745961 0.428186 0.715716 0.420391 L 0.140127 0.420391 L 0.140127 0.35034 Z"
     fill="#000000"
     stroke="none"
     id="path1"
     style="fill:#000000" />
  <path
     d="M 0.713021 0.538475 L 0.80757 0.538475 C 0.835391 0.57903 0.800687 0.575791 0.767303 0.573476 C 0.736721 0.582025 0.732146 0.555204 0.713021 0.538475 Z"
     fill="#000000"
     stroke="none"
     id="path2"
     style="fill:#000000" />
  <path
     d="M 0.863307 0.69161 C 0.842133 0.703974 0.793254 0.645858 0.832198 0.656608 C 0.858929 0.649412 0.853858 0.67456 0.863307 0.69161 Z"
     fill="#000000"
     stroke="none"
     id="path3"
     style="fill:#000000" />
  <path
     d="M 1.23988 0.546415 C 1.22583 0.579411 1.19414 0.574572 1.16419 0.573476 C 1.12237 0.589888 1.14825 0.522507 1.17687 0.538475 C 1.19104 0.543033 1.25717 0.528854 1.23988 0.546415 Z"
     fill="#000000"
     stroke="none"
     id="path4"
     style="fill:#000000" />
  <path
     d="M 1.11805 0.69161 C 1.07812 0.703164 1.1099 0.63772 1.13867 0.656608 C 1.1613 0.650462 1.11874 0.68622 1.11805 0.69161 Z"
     fill="#000000"
     stroke="none"
     id="path5"
     style="fill:#000000" />
  <path
     d="M 1.14004 1.24727 C 1.16668 1.25218 1.20249 1.23739 1.22337 1.25465 C 1.26494 1.28866 1.22336 1.28296 1.18952 1.28227 C 1.15445 1.28631 1.14861 1.28229 1.14004 1.24727 Z"
     fill="#000000"
     stroke="none"
     id="path6"
     style="fill:#000000" />
  <path
     d="M 1.14742 1.16414 C 1.1189 1.18276 1.07921 1.13144 1.11152 1.12914 C 1.12672 1.12958 1.13578 1.15507 1.14742 1.16414 Z"
     fill="#000000"
     stroke="none"
     id="path7"
     style="fill:#000000" />
  <path
     d="M 0.720472 1.27433 C 0.734522 1.24133 0.766217 1.24617 0.796166 1.24727 C 0.837984 1.23086 0.812108 1.29824 0.783487 1.28227 C 0.769312 1.27771 0.703186 1.29189 0.720472 1.27433 Z"
     fill="#000000"
     stroke="none"
     id="path8"
     style="fill:#000000" />
  <path
     d="M 0.850567 1.16414 C 0.802256 1.17614 0.818645 1.14539 0.847124 1.12914 C 0.879295 1.12138 0.851038 1.14924 0.850567 1.16414 Z"
     fill="#000000"
     stroke="none"
     id="path9"
     style="fill:#000000" />
  <path
     d="M 0.598541 0.56729 C 0.550645 0.620569 0.514435 0.683286 0.492242 0.751406 C 0.480375 0.787826 0.503483 0.82632 0.541206 0.832971 L 0.860132 0.889206 C 0.857663 0.90321 0.857663 0.917535 0.860132 0.931539 L 0.541206 0.987774 C 0.503483 0.994425 0.480375 1.03292 0.492242 1.06934 C 0.514435 1.13746 0.550645 1.20018 0.598541 1.25345 C 0.624138 1.28195 0.669027 1.2812 0.693659 1.25187 L 0.901822 1.00379 C 0.912715 1.01292 0.925123 1.02009 0.938485 1.02495 L 0.827723 1.32927 C 0.814621 1.36526 0.836403 1.40452 0.873877 1.41245 C 0.943967 1.42729 1.01639 1.42729 1.08648 1.41245 C 1.12395 1.40452 1.14573 1.36526 1.13263 1.32927 L 1.02187 1.02495 C 1.03523 1.02009 1.04764 1.01292 1.05853 1.00379 L 1.2667 1.25187 C 1.29133 1.2812 1.33622 1.28195 1.36181 1.25345 C 1.40971 1.20018 1.44592 1.13746 1.46811 1.06934 C 1.47998 1.03292 1.45687 0.994425 1.41915 0.987774 L 1.10022 0.931539 C 1.10269 0.917535 1.10269 0.90321 1.10022 0.889206 L 1.41915 0.832971 C 1.45687 0.82632 1.47998 0.787826 1.46811 0.751406 C 1.44592 0.683286 1.40971 0.620569 1.36181 0.56729 C 1.33622 0.538797 1.29133 0.539546 1.2667 0.568878 L 1.05853 0.816959 C 1.04764 0.80782 1.03523 0.800655 1.02187 0.795792 L 1.13263 0.491479 C 1.14573 0.455486 1.12395 0.416227 1.08648 0.408292 C 1.01639 0.393451 0.943967 0.393451 0.873877 0.408292 C 0.836403 0.416227 0.814621 0.455486 0.827723 0.491479 L 0.938485 0.795792 C 0.925123 0.800655 0.912715 0.80782 0.901822 0.816959 L 0.693659 0.568878 C 0.669027 0.539546 0.624138 0.538797 0.598541 0.56729 Z"
     fill="#000000"
     stroke="none"
     id="path10"
     style="fill:#000000" />
</svg>
