<?xml version="1.0" encoding="UTF-8" standalone="no"?>
<svg
   version="1.1"
   x="0px"
   y="0px"
   viewBox="0 0 703.84399 703.844"
   xml:space="preserve"
   id="svg20"
   sodipodi:docname="deerboots.svg"
   inkscape:version="1.4.2 (ebf0e940d0, 2025-05-08)"
   width="703.84399"
   height="703.84399"
   xmlns:inkscape="http://www.inkscape.org/namespaces/inkscape"
   xmlns:sodipodi="http://sodipodi.sourceforge.net/DTD/sodipodi-0.dtd"
   xmlns="http://www.w3.org/2000/svg"
   xmlns:svg="http://www.w3.org/2000/svg"><sodipodi:namedview
     id="namedview20"
     pagecolor="#ffffff"
     bordercolor="#000000"
     borderopacity="0.25"
     inkscape:showpageshadow="2"
     inkscape:pageopacity="0.0"
     inkscape:pagecheckerboard="0"
     inkscape:deskcolor="#d1d1d1"
     inkscape:zoom="0.84926471"
     inkscape:cx="329.69697"
     inkscape:cy="489.24675"
     inkscape:window-width="2256"
     inkscape:window-height="1427"
     inkscape:window-x="0"
     inkscape:window-y="0"
     inkscape:window-maximized="1"
     inkscape:current-layer="svg20"
     showgrid="true"><inkscape:grid
       id="grid28"
       units="px"
       originx="-13"
       originy="40.667183"
       spacingx="1"
       spacingy="1"
       empcolor="#0099e5"
       empopacity="0.30196078"
       color="#0099e5"
       opacity="0.14901961"
       empspacing="10"
       enabled="true"
       visible="true" /></sodipodi:namedview><defs
     id="defs20" /><path
     id="path28"
     style="fill:#000000"
     d="M 58.181641,357.07089 47.893319,523.39237 270.043,470.71359 C 266.95145,464.76955 266.86707,436.2108 266.228,429.26809 L 266.22852,357.26816 C 265.94352,357.27216 264.286,357.2959 264,357.2955 L 259.17773,357.28964 C 247.67273,367.62964 234.50164,371.08996 219,372.6998 L 213.33398,373.28964 C 206.15098,387.85064 191.28612,397.28964 174.70312,397.28964 H 161.29883 C 144.71583,397.28964 129.85097,387.85064 122.66797,373.28964 H 110.53906 C 99.026062,373.28964 88.2025,368.80564 80.0625,360.66464 L 76.685547,357.28964 H 62.539062 C 61.074062,357.28964 59.620641,357.21489 58.181641,357.07089 Z" /><path
     d="M 408,577.28909 H 364.22 C 355.367,577.28909 346.564,576.05609 338.053,573.62409 307.804,564.98109 276.74159,543.48594 273.858,512.15909 L 266.228,429.26809 C 265.943,429.27209 264.286,429.29632 264,429.29592 L 259.177,429.28909 C 247.672,439.62909 234.50164,443.09084 219,444.70068 L 213.334,445.28909 C 206.151,459.85009 191.286,469.28909 174.703,469.28909 H 161.299 C 144.716,469.28909 129.851,459.85009 122.668,445.28909 H 110.54 C 99.027,445.28909 88.203,440.80609 80.063,432.66509 L 76.686,429.28909 H 62.539 C 61.074,429.28909 59.62,429.21509 58.181,429.07109 L 42.537,572.50109 C 40.49,583.42209 35.255,593.34909 27.396,601.20709 20.047,608.55609 16,618.32709 16,628.71909 V 633.65409 C 16,642.01709 18.764,650.30809 23.782,656.99809 L 24.33,657.72909 C 31.637,667.47109 43.272,673.28909 55.454,673.28909 H 269.457 C 328.976,673.28909 388.661,666.96609 446.857,654.49609 456.79,652.36709 464,643.44809 464,633.28909 464,602.41109 438.879,577.28909 408,577.28909 Z M 269.457,657.28909 H 55.454 C 45.83,657.28909 36.336,654.74609 28,649.93309 L 36,636.07709 C 41.907,639.48709 48.634,641.28909 55.454,641.28909 H 88 V 625.28909 H 56 V 609.28909 H 269.457 C 317.785,609.28909 375.063,604.34209 422.677,596.05509 L 425.421,611.81809 C 414.604,613.70109 403.403,615.39509 392,616.91109 V 632.36709 C 410.397,629.67809 428.7,626.38709 446.857,622.49609 L 450.209,638.14109 C 390.914,650.84709 330.1,657.28909 269.457,657.28909 Z"
     id="path29"
     style="fill:#000000" /><path
     id="path17"
     style="fill:#000000"
     d="M 168,51.289088 C 143.034,51.289088 119.0845,53.379758 100.5625,57.177758 91.4155,59.052758 84.956859,61.063218 80.505859,62.867218 87.142859,65.886218 92.814875,70.664451 96.921875,76.607451 115.71388,80.863451 141.363,83.289091 168,83.289091 194.637,83.289091 220.28612,80.863451 239.07812,76.607451 243.18512,70.664451 248.85809,65.887218 255.49609,62.867218 251.04409,61.063218 244.58645,59.053758 235.43945,57.177758 216.91645,53.380758 192.966,51.289088 168,51.289088 Z M 64,75.289091 C 50.767,75.289091 40,86.056091 40,99.289091 40,112.52209 50.767,123.28909 64,123.28909 77.233,123.28909 88,112.52209 88,99.289091 88,86.056091 77.233,75.289091 64,75.289091 Z M 272,75.289091 C 258.767,75.289091 248,86.056091 248,99.289091 248,112.52209 258.767,123.28909 272,123.28909 285.233,123.28909 296,112.52209 296,99.289091 296,86.056091 285.233,75.289091 272,75.289091 Z M 64,91.289091 C 68.418,91.289091 72,94.871091 72,99.289091 72,103.70709 68.418,107.28909 64,107.28909 59.582,107.28909 56,103.70709 56,99.289091 56,94.871091 59.582,91.289091 64,91.289091 Z M 272,91.289091 C 276.418,91.289091 280,94.871091 280,99.289091 280,103.70709 276.418,107.28909 272,107.28909 267.582,107.28909 264,103.70709 264,99.289091 264,94.871091 267.582,91.289091 272,91.289091 Z M 232.32617,94.271511 C 226.64417,95.274511 220.60363,96.136691 214.26562,96.847691 L 225.46484,115.5137 216.86914,128.40824 C 225.68614,127.29823 233.76172,125.89155 240.76172,124.22855 235.28572,117.38455 232,108.71609 232,99.289091 232,97.589091 232.11917,95.916511 232.32617,94.271511 Z M 103.67383,94.273471 C 103.88083,95.917471 104,97.589091 104,99.289091 104,108.71609 100.71428,117.38455 95.238281,124.22855 99.368281,125.20955 103.87555,126.09956 108.68555,126.89456 L 124.75586,114.04105 109.73633,95.267611 C 107.67333,94.953611 105.65183,94.622471 103.67383,94.273471 Z M 132.30859,97.869171 147.24219,116.53714 130.83398,129.66605 C 136.71298,130.19705 142.8247,130.60594 149.0957,130.87894 L 165.92578,114.04886 156.99023,99.160191 C 148.48623,98.960191 140.22459,98.521171 132.30859,97.869171 Z M 196.5332,98.392611 C 189.7812,98.824611 182.8095,99.102781 175.6875,99.218781 L 186.07422,116.52933 171.32617,131.27542 C 179.88517,131.21142 188.28384,130.89741 196.33984,130.35941 L 206.53516,115.06449 Z" /><path
     id="path16"
     style="fill:#000000"
     d="M 374.17748,618.59274 C 363.58948,619.81574 352.88648,620.8689 342.17748,621.7529 V 637.66501 C 352.86448,636.72001 363.53348,635.5697 374.17748,634.2197 Z M 326.17748,622.95603 C 315.40848,623.67003 304.70748,624.1942 294.17748,624.5322 V 640.54196 C 304.85048,640.20596 315.51948,639.67063 326.17748,638.93063 Z M 278.17748,624.90134 C 274.63548,624.94834 271.11451,624.97751 267.63451,624.97751 H 246.17748 V 640.97751 H 267.63451 C 271.14851,640.97751 274.66248,640.9512 278.17748,640.9072 Z M 102.17748,624.97751 V 640.97751 H 134.17748 V 624.97751 Z M 150.17748,624.97751 V 640.97751 H 182.17748 V 624.97751 Z M 198.17748,624.97751 V 640.97751 H 230.17748 V 624.97751 Z" /><path
     id="path22"
     style="fill:#000000"
     d="M 36.974609,240.74808 C 31.538609,266.87407 18.888,290.95243 0,310.56643 V 313.90432 C 4.006,324.35232 14.022828,331.28909 25.298828,331.28909 H 28.685547 L 34.341797,325.63284 C 55.565797,304.40884 70.265844,278.06218 77.214844,249.03519 73.075844,250.48919 68.63,251.28909 64,251.28909 53.59,251.28909 44.098609,247.28808 36.974609,240.74808 Z M 299.02344,240.75003 C 291.90144,247.28903 282.41,251.28909 272,251.28909 267.37,251.28909 262.92516,250.48819 258.78516,249.03519 265.73416,278.06118 280.43125,304.40884 301.65625,325.63284 L 307.3125,331.29104 H 310.70117 C 321.97617,331.29104 331.99205,324.35428 335.99805,313.90628 V 310.56643 C 317.11005,290.95043 304.45944,266.87403 299.02344,240.75003 Z M 92.945312,252.12308 C 85.374313,284.28007 69.13925,313.46234 45.65625,336.94534 L 43.3125,339.28909 43.376953,339.35159 C 48.494953,344.46959 55.300062,347.28909 62.539062,347.28909 H 76.685547 L 81.169922,342.80471 C 104.36492,319.60972 120.06569,289.50114 125.92969,257.28714 113.72469,256.07014 102.54831,254.32708 92.945312,252.12308 Z M 243.05469,252.12308 C 233.45169,254.32708 222.27531,256.07014 210.07031,257.28714 215.93431,289.50114 231.63508,319.60972 254.83008,342.80471 L 259.31445,347.28909 H 265.37305 C 275.11805,347.28909 284.40508,344.31962 292.20508,338.80862 L 290.34375,336.94534 C 266.86075,313.46234 250.62569,284.28007 243.05469,252.12308 Z M 140,281.28909 C 133.79,317.29109 118.35737,328.24617 92.484375,354.11917 L 91.3125,355.28909 91.376953,355.35159 C 96.494953,360.46959 103.30006,363.28909 110.53906,363.28909 H 124.68555 L 160,327.97464 V 281.28909 C 153.857,281.18309 145.867,281.63009 140,281.28909 Z M 176.41602,281.28909 176,327.97659 211.31445,363.28909 H 217.37305 C 227.11805,363.28909 236.40508,360.31962 244.20508,354.80862 L 243.51562,354.11917 C 217.64263,328.24617 201.70414,317.29209 195.49414,281.28909 189.62714,281.63009 182.55902,281.18309 176.41602,281.28909 Z M 168,342.60159 137.48047,373.12112 C 142.15647,381.75212 151.22583,387.28909 161.29883,387.28909 H 174.70117 C 184.77417,387.28909 193.84453,381.75212 198.51953,373.12112 Z" /><path
     id="path18"
     style="fill:#000000"
     d="M 36.974609,128.74808 C 31.538609,154.87407 18.888,178.95243 0,198.56643 V 201.90432 C 4.006,212.35232 14.022828,219.28909 25.298828,219.28909 H 28.685547 L 34.341797,213.63284 C 55.565797,192.40884 70.265844,166.06218 77.214844,137.03519 73.075844,138.48919 68.63,139.28909 64,139.28909 53.59,139.28909 44.098609,135.28808 36.974609,128.74808 Z M 299.02344,128.75003 C 291.90144,135.28903 282.41,139.28909 272,139.28909 267.37,139.28909 262.92516,138.48819 258.78516,137.03519 265.73416,166.06118 280.43125,192.40884 301.65625,213.63284 L 307.3125,219.29104 H 310.70117 C 321.97617,219.29104 331.99205,212.35428 335.99805,201.90628 V 198.56643 C 317.11005,178.95043 304.45944,154.87403 299.02344,128.75003 Z M 92.945312,140.12308 C 85.374313,172.28007 69.13925,201.46234 45.65625,224.94534 L 43.3125,227.28909 43.376953,227.35159 C 48.494953,232.46959 55.300062,235.28909 62.539062,235.28909 H 76.685547 L 81.169922,230.80471 C 104.36492,207.60972 120.06569,177.50114 125.92969,145.28714 113.72469,144.07014 102.54831,142.32708 92.945312,140.12308 Z M 243.05469,140.12308 C 233.45169,142.32708 222.27531,144.07014 210.07031,145.28714 215.93431,177.50114 231.63508,207.60971 254.83008,230.80471 L 259.31445,235.28909 H 265.37305 C 275.11805,235.28909 284.40508,232.31962 292.20508,226.80862 L 290.34375,224.94534 C 266.86075,201.46234 250.62569,172.28007 243.05469,140.12308 Z M 141.96289,146.54495 C 135.75289,182.54695 118.35737,216.24617 92.484375,242.11917 L 91.3125,243.28909 91.376953,243.35159 C 96.494953,248.46959 103.30006,251.28909 110.53906,251.28909 H 124.68555 L 160,215.97464 V 147.21878 C 153.857,147.11278 147.82989,146.88595 141.96289,146.54495 Z M 194.03711,146.54495 C 188.17011,146.88595 182.143,147.11278 176,147.21878 V 215.97659 L 211.31445,251.28909 H 217.37305 C 227.11805,251.28909 236.40508,248.31962 244.20508,242.80862 L 243.51562,242.11917 C 217.64263,216.24617 200.24711,182.54795 194.03711,146.54495 Z M 168,230.60159 137.48047,261.12112 C 142.15647,269.75212 151.22583,275.28909 161.29883,275.28909 H 174.70117 C 184.77417,275.28909 193.84453,269.75212 198.51953,261.12112 Z" /><path
     id="path28-3"
     style="fill:#000000;stroke-width:0.8"
     d="M 377.80333,275.18035 369.57268,408.23753 547.29242,366.09451 C 544.81918,361.33928 544.75168,338.49228 544.24042,332.93811 L 544.24084,275.33817 C 544.01284,275.34137 542.68682,275.36036 542.45802,275.36004 L 538.6002,275.35535 C 529.3962,283.62735 518.85933,286.39561 506.45802,287.68348 L 501.9252,288.15535 C 496.1788,299.80415 484.28692,307.35535 471.02052,307.35535 H 460.29708 C 447.03068,307.35535 435.1388,299.80415 429.3924,288.15535 H 419.68927 C 410.47887,288.15535 401.82002,284.56815 395.30802,278.05535 L 392.60646,275.35535 H 381.28927 C 380.11727,275.35535 378.95453,275.29555 377.80333,275.18035 Z" /><path
     d="M 657.65802,451.35491 H 622.63402 C 615.55162,451.35491 608.50922,450.36851 601.70042,448.42291 577.50122,441.50851 552.65129,424.31239 550.34442,399.25091 L 544.24042,332.93811 C 544.01242,332.94131 542.68682,332.96069 542.45802,332.96037 L 538.59962,332.95491 C 529.39562,341.22691 518.85933,343.99631 506.45802,345.28418 L 501.92522,345.75491 C 496.17882,357.40371 484.28682,364.95491 471.02042,364.95491 H 460.29722 C 447.03082,364.95491 435.13882,357.40371 429.39242,345.75491 H 419.69002 C 410.47962,345.75491 401.82042,342.16851 395.30842,335.65571 L 392.60682,332.95491 H 381.28922 C 380.11722,332.95491 378.95402,332.89571 377.80282,332.78051 L 365.28762,447.52451 C 363.65002,456.26131 359.46202,464.20291 353.17482,470.48931 347.29562,476.36851 344.05802,484.18531 344.05802,492.49891 V 496.44691 C 344.05802,503.13731 346.26922,509.77011 350.28362,515.12211 L 350.72202,515.70691 C 356.56762,523.50051 365.87562,528.15491 375.62122,528.15491 H 546.82362 C 594.43882,528.15491 642.18682,523.09651 688.74362,513.12051 696.69002,511.41731 702.45802,504.28211 702.45802,496.15491 702.45802,471.45251 682.36122,451.35491 657.65802,451.35491 Z M 546.82362,515.35491 H 375.62122 C 367.92202,515.35491 360.32682,513.32051 353.65802,509.47011 L 360.05802,498.38531 C 364.78362,501.11331 370.16522,502.55491 375.62122,502.55491 H 401.65802 V 489.75491 H 376.05802 V 476.95491 H 546.82362 C 585.48602,476.95491 631.30842,472.99731 669.39962,466.36771 L 671.59482,478.97811 C 662.94122,480.48451 653.98042,481.83971 644.85802,483.05251 V 495.41731 C 659.57562,493.26611 674.21802,490.63331 688.74362,487.52051 L 691.42522,500.03651 C 643.98922,510.20131 595.33802,515.35491 546.82362,515.35491 Z"
     id="path29-7"
     style="fill:#000000;stroke-width:0.8" /><path
     id="path17-5"
     style="fill:#000000;stroke-width:0.8"
     d="M 465.65802,30.554904 C 445.68522,30.554904 426.52562,32.22744 411.70802,35.26584 404.39042,36.76584 399.22351,38.374208 395.66271,39.817408 400.97231,42.232608 405.50992,46.055192 408.79552,50.809592 423.82912,54.214392 444.34842,56.154904 465.65802,56.154904 486.96762,56.154904 507.48692,54.214392 522.52052,50.809592 525.80612,46.055192 530.34449,42.233408 535.65489,39.817408 532.09329,38.374208 526.92718,36.76664 519.60958,35.26584 504.79118,32.22824 485.63082,30.554904 465.65802,30.554904 Z M 382.45802,49.754904 C 371.87162,49.754904 363.25802,58.368504 363.25802,68.954901 363.25802,79.541301 371.87162,88.154901 382.45802,88.154901 393.04442,88.154901 401.65802,79.541301 401.65802,68.954901 401.65802,58.368504 393.04442,49.754904 382.45802,49.754904 Z M 548.85802,49.754904 C 538.27162,49.754904 529.65802,58.368504 529.65802,68.954901 529.65802,79.541301 538.27162,88.154901 548.85802,88.154901 559.44442,88.154901 568.05802,79.541301 568.05802,68.954901 568.05802,58.368504 559.44442,49.754904 548.85802,49.754904 Z M 382.45802,62.554904 C 385.99242,62.554904 388.85802,65.420504 388.85802,68.954901 388.85802,72.489301 385.99242,75.354901 382.45802,75.354901 378.92362,75.354901 376.05802,72.489301 376.05802,68.954901 376.05802,65.420504 378.92362,62.554904 382.45802,62.554904 Z M 548.85802,62.554904 C 552.39242,62.554904 555.25802,65.420504 555.25802,68.954901 555.25802,72.489301 552.39242,75.354901 548.85802,75.354901 545.32362,75.354901 542.45802,72.489301 542.45802,68.954901 542.45802,65.420504 545.32362,62.554904 548.85802,62.554904 Z M 517.11896,64.94084 C 512.57336,65.74324 507.74092,66.432984 502.67052,67.001784 L 511.62989,81.934591 504.75333,92.250221 C 511.80693,91.362211 518.2674,90.236871 523.8674,88.906471 519.4866,83.431271 516.85802,76.496501 516.85802,68.954901 516.85802,67.594904 516.95336,66.25684 517.11896,64.94084 Z M 414.19708,64.942408 C 414.36268,66.257608 414.45802,67.594904 414.45802,68.954901 414.45802,76.496501 411.82944,83.431271 407.44864,88.906471 410.75264,89.691271 414.35846,90.403281 418.20646,91.039281 L 431.06271,80.756471 419.04708,65.73772 C 417.39668,65.48652 415.77948,65.221608 414.19708,64.942408 Z M 437.10489,67.818968 449.05177,82.753341 435.9252,93.256471 C 440.6284,93.681271 445.51778,94.008381 450.53458,94.226781 L 463.99864,80.762721 456.8502,68.851781 C 450.047,68.691784 443.43769,68.340568 437.10489,67.818968 Z M 488.48458,68.23772 C 483.08298,68.58332 477.50562,68.805856 471.80802,68.898651 L 480.1174,82.747091 468.31896,94.543971 C 475.16616,94.492771 481.88509,94.241561 488.32989,93.811161 L 496.48615,81.575221 Z" /><path
     id="path16-9"
     style="fill:#000000;stroke-width:0.8"
     d="M 630.6,484.39783 C 622.1296,485.37623 613.5672,486.21876 605,486.92596 V 499.65565 C 613.5496,498.89965 622.0848,497.9794 630.6,496.8994 Z M 592.2,487.88846 C 583.5848,488.45966 575.024,488.879 566.6,489.1494 V 501.95721 C 575.1384,501.68841 583.6736,501.26014 592.2,500.66814 Z M 553.8,489.44471 C 550.9664,489.48231 548.14963,489.50565 545.36563,489.50565 H 528.2 V 502.30565 H 545.36563 C 548.17683,502.30565 550.988,502.2846 553.8,502.2494 Z M 413,489.50565 V 502.30565 H 438.6 V 489.50565 Z M 451.4,489.50565 V 502.30565 H 477 V 489.50565 Z M 489.8,489.50565 V 502.30565 H 515.4 V 489.50565 Z" /><path
     id="path22-2"
     style="fill:#000000;stroke-width:0.8"
     d="M 360.83771,182.1221 C 356.48891,203.02289 346.36842,222.28558 331.25802,237.97678 V 240.64709 C 334.46282,249.00549 342.47628,254.55491 351.49708,254.55491 H 354.20646 L 358.73146,250.02991 C 375.71066,233.05071 387.47069,211.97338 393.02989,188.75179 389.71869,189.91499 386.16202,190.55491 382.45802,190.55491 374.13002,190.55491 366.53691,187.3541 360.83771,182.1221 Z M 570.47677,182.12366 C 564.77917,187.35486 557.18602,190.55491 548.85802,190.55491 545.15402,190.55491 541.59815,189.91419 538.28615,188.75179 543.84535,211.97258 555.60302,233.05071 572.58302,250.02991 L 577.10802,254.55647 H 579.81896 C 588.83896,254.55647 596.85166,249.00706 600.05646,240.64866 V 237.97678 C 584.94606,222.28398 574.82557,203.02286 570.47677,182.12366 Z M 405.61427,191.2221 C 399.55747,216.94769 386.56942,240.29351 367.78302,259.07991 L 365.90802,260.95491 365.95958,261.00491 C 370.05398,265.09931 375.49807,267.35491 381.28927,267.35491 H 392.60646 L 396.19396,263.76741 C 414.74996,245.21141 427.31057,221.12455 432.00177,195.35335 422.23777,194.37975 413.29667,192.9853 405.61427,191.2221 Z M 525.70177,191.2221 C 518.01937,192.9853 509.07827,194.37975 499.31427,195.35335 504.00547,221.12455 516.56608,245.21141 535.12208,263.76741 L 538.70958,267.35491 H 543.55646 C 551.35246,267.35491 558.78208,264.97933 565.02208,260.57053 L 563.53302,259.07991 C 544.74662,240.29351 531.75857,216.94769 525.70177,191.2221 Z M 443.25802,214.55491 C 438.29002,243.35651 425.94392,252.12057 405.24552,272.81897 L 404.30802,273.75491 404.35958,273.80491 C 408.45398,277.89931 413.89807,280.15491 419.68927,280.15491 H 431.00646 L 459.25802,251.90335 V 214.55491 C 454.34362,214.47011 447.95162,214.82771 443.25802,214.55491 Z M 472.39084,214.55491 472.05802,251.90491 500.30958,280.15491 H 505.15646 C 512.95246,280.15491 520.38208,277.77933 526.62208,273.37053 L 526.07052,272.81897 C 505.37212,252.12057 492.62133,243.35731 487.65333,214.55491 482.95973,214.82771 477.30524,214.47011 472.39084,214.55491 Z M 465.65802,263.60491 441.2424,288.02053 C 444.9832,294.92533 452.23868,299.35491 460.29708,299.35491 H 471.01896 C 479.07736,299.35491 486.33364,294.92533 490.07364,288.02053 Z" /><path
     id="path18-2"
     style="fill:#000000;stroke-width:0.8"
     d="M 360.83771,92.522091 C 356.48891,113.42289 346.36842,132.68558 331.25802,148.37678 V 151.04709 C 334.46282,159.40549 342.47628,164.95491 351.49708,164.95491 H 354.20646 L 358.73146,160.42991 C 375.71066,143.4507 387.47069,122.37337 393.02989,99.151781 389.71869,100.31498 386.16202,100.9549 382.45802,100.9549 374.13002,100.9549 366.53691,97.754091 360.83771,92.522091 Z M 570.47677,92.523651 C 564.77917,97.754851 557.18602,100.9549 548.85802,100.9549 545.15402,100.9549 541.59815,100.31418 538.28615,99.151781 543.84535,122.37257 555.60302,143.4507 572.58302,160.42991 L 577.10802,164.95647 H 579.81896 C 588.83896,164.95647 596.85166,159.40706 600.05646,151.04866 V 148.37678 C 584.94606,132.68398 574.82557,113.42285 570.47677,92.523651 Z M 405.61427,101.62209 C 399.55747,127.34769 386.56942,150.6935 367.78302,169.47991 L 365.90802,171.35491 365.95958,171.40491 C 370.05398,175.49931 375.49807,177.75491 381.28927,177.75491 H 392.60646 L 396.19396,174.16741 C 414.74996,155.61141 427.31057,131.52454 432.00177,105.75334 422.23777,104.77974 413.29667,103.38529 405.61427,101.62209 Z M 525.70177,101.62209 C 518.01937,103.38529 509.07827,104.77974 499.31427,105.75334 504.00547,131.52454 516.56608,155.6114 535.12208,174.16741 L 538.70958,177.75491 H 543.55646 C 551.35246,177.75491 558.78208,175.37933 565.02208,170.97053 L 563.53302,169.47991 C 544.74662,150.6935 531.75857,127.34769 525.70177,101.62209 Z M 444.82833,106.75959 C 439.86033,135.56119 425.94392,162.52057 405.24552,183.21897 L 404.30802,184.15491 404.35958,184.20491 C 408.45398,188.29931 413.89807,190.55491 419.68927,190.55491 H 431.00646 L 459.25802,162.30335 V 107.29865 C 454.34362,107.21385 449.52193,107.03239 444.82833,106.75959 Z M 486.48771,106.75959 C 481.79411,107.03239 476.97242,107.21385 472.05802,107.29865 V 162.30491 L 500.30958,190.55491 H 505.15646 C 512.95246,190.55491 520.38208,188.17933 526.62208,183.77053 L 526.07052,183.21897 C 505.37212,162.52057 491.45571,135.56199 486.48771,106.75959 Z M 465.65802,174.00491 441.2424,198.42053 C 444.9832,205.32533 452.23868,209.75491 460.29708,209.75491 H 471.01896 C 479.07736,209.75491 486.33364,205.32533 490.07364,198.42053 Z" /></svg>
