<?xml version="1.0" encoding="UTF-8" standalone="no"?>
<!-- Created with Inkscape (http://www.inkscape.org/) -->

<svg
   width="480"
   height="480"
   viewBox="0 0 480 480"
   version="1.1"
   id="svg1"
   inkscape:version="1.4.2 (ebf0e940d0, 2025-05-08)"
   sodipodi:docname="deerpants.svg"
   xmlns:inkscape="http://www.inkscape.org/namespaces/inkscape"
   xmlns:sodipodi="http://sodipodi.sourceforge.net/DTD/sodipodi-0.dtd"
   xmlns="http://www.w3.org/2000/svg"
   xmlns:svg="http://www.w3.org/2000/svg">
  <sodipodi:namedview
     id="namedview1"
     pagecolor="#ffffff"
     bordercolor="#000000"
     borderopacity="0.25"
     inkscape:showpageshadow="2"
     inkscape:pageopacity="0.0"
     inkscape:pagecheckerboard="0"
     inkscape:deskcolor="#d1d1d1"
     inkscape:document-units="px"
     inkscape:zoom="1.6985294"
     inkscape:cx="222.25108"
     inkscape:cy="249.33333"
     inkscape:window-width="2256"
     inkscape:window-height="1427"
     inkscape:window-x="0"
     inkscape:window-y="0"
     inkscape:window-maximized="1"
     inkscape:current-layer="svg1" />
  <defs
     id="defs1" />
  <path
     d="M 344 0 L 136 0 C 133.878 0 131.843 0.842855 130.343 2.34315 C 128.843 3.84344 128 5.87827 128 8 L 128 472 C 128 474.122 128.843 476.157 130.343 477.657 C 131.843 479.157 133.878 480 136 480 L 200 480 C 203.966 480 207.333 477.095 207.914 473.172 C 207.995 472.63 216.014 418.23 220.973 358.664 C 227.379 281.797 225.957 231.17 216.752 208.007 L 240 155.7 L 263.249 208.01 C 254.044 231.173 252.622 281.8 259.028 358.667 C 263.991 418.233 272.006 472.632 272.087 473.175 C 272.669 477.096 276.036 480 280 480 L 344 480 C 346.122 480 348.157 479.157 349.657 477.657 C 351.157 476.157 352 474.122 352 472 L 352 8 C 352 5.87827 351.157 3.84344 349.657 2.34315 C 348.157 0.842855 346.122 0 344 0 Z M 144 16 L 336 16 L 336 32 L 144 32 Z M 336 177.4 C 318.734 125.4 318.912 68.043 319.615 48 L 336 48 Z M 144 177.423 L 144 48 L 160.389 48 C 161.1 68.037 161.3 125.382 144 177.428 Z M 193.076 464 L 175.657 464 C 172.767 387.476 185.079 334.824 196.132 303.812 C 199.705 293.666 203.968 283.776 208.891 274.212 C 209.1 335.149 199.306 420.148 193.076 464 Z M 271.108 274.216 C 276.032 283.78 280.295 293.67 283.868 303.816 C 294.92 334.824 307.233 387.476 304.343 464 L 286.924 464 C 280.694 420.148 270.9 335.149 271.109 274.216 Z"
     id="path1"
     style="fill:#000000" />
  <path
     style="fill:#000000;stroke:#000000;stroke-width:0;stroke-linecap:round;stroke-linejoin:round;stroke-miterlimit:3.9;stroke-dasharray:none;paint-order:stroke fill markers"
     d="M 135.80952,2.1558442 136.98701,33.064934 143.75757,32.770554 142.87445,13.047614 146.11255,14.225104 V 32.181814 L 151.70562,33.359304 151.11688,9.2207742 153.76623,12.458874 155.53246,32.476184 161.71428,32.181814 159.65367,10.398264 164.36363,10.692634 164.658,32.476184 169.9567,32.770554 168.19047,10.398264 170.54545,10.987004 171.13419,31.298694 177.02164,32.476184 175.84415,8.9264042 179.67099,10.398264 178.78787,33.064934 185.85281,32.181814 182.61471,9.5151442 188.50216,10.398264 187.91341,31.593064 192.91774,31.004324 192.329,10.692634 196.74458,11.870124 V 29.826834 L 201.16017,31.593064 200.27705,9.2207742 204.10389,11.870124 205.28138,32.476184 H 210.87445 L 208.51948,10.692634 211.75757,10.987004 212.93506,31.004324 216.7619,31.887444 216.17316,8.9264042 218.82251,10.692634 V 32.770554 H 224.12121 L 220.88311,9.5151442 222.94372,9.8095142 225.2987,31.593064 230.00865,30.709954 227.3593,2.4502142 Z"
     id="path4-7" />
  <path
     style="fill:#000000;stroke:#000000;stroke-width:0;stroke-linecap:round;stroke-linejoin:round;stroke-miterlimit:3.9;stroke-dasharray:none;paint-order:stroke fill markers"
     d="M 195.61905,7.2424243 196.79654,38.151513 203.5671,37.857133 202.68398,18.134193 205.92208,19.311683 V 37.268393 L 211.51515,38.445883 210.92641,14.307353 213.57576,17.545453 215.34199,37.562763 221.52381,37.268393 219.4632,15.484843 224.17316,15.779213 224.46753,37.562763 229.76623,37.857133 228,15.484843 230.35498,16.073583 230.94372,36.385273 236.83117,37.562763 235.65368,14.012983 239.48052,15.484843 238.5974,38.151513 245.66234,37.268393 242.42424,14.601723 248.31169,15.484843 247.72294,36.679643 252.72727,36.090903 252.13853,15.779213 256.55411,16.956703 V 34.913413 L 260.9697,36.679643 260.08658,14.307353 263.91342,16.956703 265.09091,37.562763 H 270.68398 L 268.32901,15.779213 271.5671,16.073583 272.74459,36.090903 276.57143,36.974023 275.98269,14.012983 278.63204,15.779213 V 37.857133 H 283.93074 L 280.69264,14.601723 282.75325,14.896093 285.10823,36.679643 289.81818,35.796533 287.16883,7.5367943 Z"
     id="path4-7-3" />
  <path
     style="fill:#000000;stroke:#000000;stroke-width:0;stroke-linecap:round;stroke-linejoin:round;stroke-miterlimit:3.9;stroke-dasharray:none;paint-order:stroke fill markers"
     d="M 253.02597,4.8787878 254.20346,35.787878 260.97402,35.493498 260.0909,15.770558 263.329,16.948048 V 34.904758 L 268.92207,36.082248 268.33333,11.943718 270.98268,15.181818 272.74891,35.199128 278.93073,34.904758 276.87012,13.121208 281.58008,13.415578 281.87445,35.199128 287.17315,35.493498 285.40692,13.121208 287.7619,13.709948 288.35064,34.021638 294.23809,35.199128 293.0606,11.649348 296.88744,13.121208 296.00432,35.787878 303.06926,34.904758 299.83116,12.238088 305.71861,13.121208 305.12986,34.316008 310.13419,33.727268 309.54545,13.415578 313.96103,14.593068 V 32.549778 L 318.37662,34.316008 317.4935,11.943718 321.32034,14.593068 322.49783,35.199128 H 328.0909 L 325.73593,13.415578 328.97402,13.709948 330.15151,33.727268 333.97835,34.610388 333.38961,11.649348 336.03896,13.415578 V 35.493498 H 341.33766 L 338.09956,12.238088 340.16017,12.532458 342.51515,34.316008 347.2251,33.432898 344.57575,5.1731578 Z"
     id="path4-7-2" />
</svg>
