<?xml version="1.0" encoding="UTF-8" standalone="no"?>
<!-- Created with Inkscape (http://www.inkscape.org/) -->

<svg
   width="76.318001"
   height="76.318001"
   viewBox="0 0 76.318 76.318001"
   version="1.1"
   id="svg1"
   inkscape:version="1.4.2 (ebf0e940d0, 2025-05-08)"
   sodipodi:docname="deerpants.svg"
   xmlns:inkscape="http://www.inkscape.org/namespaces/inkscape"
   xmlns:sodipodi="http://sodipodi.sourceforge.net/DTD/sodipodi-0.dtd"
   xmlns="http://www.w3.org/2000/svg"
   xmlns:svg="http://www.w3.org/2000/svg">
  <sodipodi:namedview
     id="namedview1"
     pagecolor="#ffffff"
     bordercolor="#000000"
     borderopacity="0.25"
     inkscape:showpageshadow="2"
     inkscape:pageopacity="0.0"
     inkscape:pagecheckerboard="0"
     inkscape:deskcolor="#d1d1d1"
     inkscape:document-units="px"
     inkscape:zoom="4.8041667"
     inkscape:cx="46.938422"
     inkscape:cy="30.28621"
     inkscape:window-width="2256"
     inkscape:window-height="1427"
     inkscape:window-x="0"
     inkscape:window-y="0"
     inkscape:window-maximized="1"
     inkscape:current-layer="svg1" />
  <defs
     id="defs1" />
  <path
     id="path8"
     style="fill:#000000"
     d="M 38.6698 6.01248 C 38.6698 11.5633 39.5695 25.3291 39.9687 31.4344 C 40.281 36.2108 41.6862 57.6514 42.2831 66.7586 L 42.2441 65.909 L 40.789 43.5281 C 47.205 46.2386 53.9379 51.7639 53.6562 69.3738 L 53.6132 70.8699 L 59.8964 70.868 L 64.2128 74.5125 L 65.2206 73.3211 L 60.1425 69.032 L 60.1425 66.3875 L 64.2167 69.825 L 65.2245 68.6336 L 60.1464 64.3445 L 60.1464 61.7 L 64.2206 65.1375 L 65.2284 63.9461 L 60.1503 59.657 L 60.1503 57.0125 L 64.2245 60.45 L 65.2323 59.2586 L 60.1542 54.9695 L 60.1542 52.325 L 64.2284 55.7625 L 65.2362 54.5711 L 60.1581 50.282 L 60.1581 47.6375 L 64.2323 51.075 L 65.2401 49.8836 L 60.162 45.5945 L 60.162 42.95 L 64.2362 46.3875 L 65.2441 45.1961 L 60.1659 40.907 L 60.1659 38.2625 L 64.2401 41.7 L 65.248 40.5086 L 60.1698 36.2195 L 60.1698 34.8972 C 53.0409 31.8855 47.4779 25.583 47.7909 6.01639 L 47.7948 6.01639 L 60.1659 6.01639 L 51.0409 6.01248 Z M 60.1659 6.01639 L 60.1659 11.5672 L 60.1679 28.8894 L 64.2401 32.325 L 65.248 31.1336 L 60.1698 26.8445 Z M 60.1698 31.534 L 60.1698 33.575 L 64.2362 37.0125 L 65.2441 35.8211 Z" />
  <path
     d="M 60.2245 5.97194 L 60.2245 10.9676 L 60.1866 33.4964 C 53.7706 30.7858 48.7639 25.1135 49.0456 7.5036 L 49.0905 5.97194 Z"
     style="fill:#000000;stroke-width:0.9"
     id="path13" />
  <path
     id="path5"
     style="fill:#000000"
     d="M 42.3454 70.8407 L 42.5309 71.2137 L 42.7048 71.2137 L 46.9938 76.2919 L 48.1852 75.2841 L 44.7477 71.2098 L 47.3923 71.2098 L 51.6813 76.288 L 52.8727 75.2801 L 49.4352 71.2059 L 52.0798 71.2059 L 56.3688 76.2841 L 57.5602 75.2762 L 54.1227 71.202 L 56.7673 71.202 L 61.0563 76.2801 L 62.2477 75.2723 L 58.6032 70.9559 L 58.6032 70.6278 Z" />
  <path
     d="M 42.4349 70.8432 L 42.2212 66.0864 L 40.893 44.7746 C 46.7499 47.3555 52.8968 52.6171 52.6397 69.3848 L 52.5987 70.8432 Z"
     style="fill:#000000;stroke-width:0.839077"
     id="path15" />
  <path
     id="path8-5"
     style="fill:#000000"
     d="M 37.6482 6.03878 C 37.6482 11.5896 36.7485 25.3554 36.3493 31.4607 C 36.037 36.2371 34.6318 57.6777 34.0349 66.7849 L 34.0739 65.9353 L 35.529 43.5544 C 29.113 46.2649 22.3801 51.7902 22.6618 69.4001 L 22.7048 70.8962 L 16.4216 70.8942 L 12.1052 74.5388 L 11.0974 73.3474 L 16.1755 69.0583 L 16.1755 66.4138 L 12.1013 69.8513 L 11.0935 68.6599 L 16.1716 64.3708 L 16.1716 61.7263 L 12.0974 65.1638 L 11.0896 63.9724 L 16.1677 59.6833 L 16.1677 57.0388 L 12.0935 60.4763 L 11.0857 59.2849 L 16.1638 54.9958 L 16.1638 52.3513 L 12.0896 55.7888 L 11.0818 54.5974 L 16.1599 50.3083 L 16.1599 47.6638 L 12.0857 51.1013 L 11.0778 49.9099 L 16.156 45.6208 L 16.156 42.9763 L 12.0818 46.4138 L 11.0739 45.2224 L 16.1521 40.9333 L 16.1521 38.2888 L 12.0778 41.7263 L 11.07 40.5349 L 16.1482 36.2458 L 16.1482 34.9235 C 23.2771 31.9118 28.8401 25.6093 28.5271 6.04269 L 28.5232 6.04269 L 16.1521 6.04269 L 25.2771 6.03878 Z M 16.1521 6.04269 L 16.1521 11.5935 L 16.1501 28.9157 L 12.0778 32.3513 L 11.07 31.1599 L 16.1482 26.8708 Z M 16.1482 31.5603 L 16.1482 33.6013 L 12.0818 37.0388 L 11.0739 35.8474 Z" />
  <path
     d="M 16.0935 5.99824 L 16.0935 10.9939 L 16.1314 33.5227 C 22.5474 30.8121 27.5541 25.1398 27.2724 7.5299 L 27.2275 5.99824 Z"
     style="fill:#000000;stroke-width:0.9"
     id="path13-9" />
  <path
     id="path5-2"
     style="fill:#000000"
     d="M 33.9726 70.867 L 33.7871 71.24 L 33.6132 71.24 L 29.3242 76.3182 L 28.1328 75.3104 L 31.5703 71.2361 L 28.9257 71.2361 L 24.6367 76.3143 L 23.4453 75.3064 L 26.8828 71.2322 L 24.2382 71.2322 L 19.9492 76.3104 L 18.7578 75.3025 L 22.1953 71.2283 L 19.5507 71.2283 L 15.2617 76.3064 L 14.0703 75.2986 L 17.7148 70.9822 L 17.7148 70.6541 Z" />
  <path
     d="M 33.8831 70.8695 L 34.0968 66.1127 L 35.425 44.8009 C 29.5681 47.3818 23.4212 52.6434 23.6783 69.4111 L 23.7193 70.8695 Z"
     style="fill:#000000;stroke-width:0.839077"
     id="path15-2" />
  <path
     id="path5-6"
     style="fill:#000000"
     d="M 55.5624 0 L 48.3134 0.007889 L 48.328 0.007813 L 32.8982 0.064581 L 20.6639 0.052735 L 20.7225 0.042525 L 16.0116 0.033203 L 16.0116 0.361328 L 12.3671 4.67773 L 13.5585 5.68555 L 17.8475 0.607422 L 20.4725 0.607422 L 17.0194 4.69727 L 18.2108 5.70508 L 18.2323 5.67773 L 18.246 5.68945 L 22.5214 0.626953 L 25.1444 0.626953 L 21.7069 4.70117 L 22.8983 5.70898 L 22.9198 5.68164 L 22.9335 5.69336 L 27.2089 0.63086 L 29.8319 0.63086 L 26.3944 4.70508 L 27.5858 5.71289 L 27.6073 5.68555 L 27.621 5.69727 L 31.8964 0.634766 L 34.5194 0.634766 L 31.0819 4.70898 L 32.2733 5.7168 L 36.5624 0.638672 L 36.7362 0.638672 L 36.7596 0.589844 L 37.1171 0.589844 L 37.1913 5.49219 L 39.2596 5.48047 L 39.16 0.585938 L 39.4901 0.585938 L 39.6639 0.585938 L 43.953 5.66406 L 45.1444 4.65625 L 41.7108 0.585938 L 41.8046 0.585938 L 43.8475 0.582031 L 44.078 0.582031 L 44.1053 0.636719 L 44.2792 0.636719 L 48.5682 5.71484 L 48.6366 5.65625 L 48.6405 5.66016 L 49.8319 4.65234 L 46.4413 0.632813 L 48.9667 0.632813 L 53.2557 5.71094 L 53.3241 5.65234 L 53.328 5.65625 L 54.5194 4.64844 L 51.1288 0.628907 L 53.6542 0.628907 L 57.9432 5.70703 L 58.0116 5.64844 L 58.0155 5.65234 L 59.2069 4.64453 L 55.8124 0.625 L 58.3417 0.625 L 62.6307 5.70312 L 63.8221 4.69531 L 60.1776 0.378907 L 60.1776 0.050781 L 55.5697 0.016196 Z" />
</svg>
