<?xml version="1.0" encoding="UTF-8" standalone="no"?>
<!-- Created with Inkscape (http://www.inkscape.org/) -->

<svg
   width="445"
   height="445"
   viewBox="0 0 445 445"
   version="1.1"
   id="svg1"
   inkscape:version="1.4.2 (ebf0e940d0, 2025-05-08)"
   sodipodi:docname="deerhide.svg"
   xml:space="preserve"
   xmlns:inkscape="http://www.inkscape.org/namespaces/inkscape"
   xmlns:sodipodi="http://sodipodi.sourceforge.net/DTD/sodipodi-0.dtd"
   xmlns="http://www.w3.org/2000/svg"
   xmlns:svg="http://www.w3.org/2000/svg"><sodipodi:namedview
     id="namedview1"
     pagecolor="#ffffff"
     bordercolor="#000000"
     borderopacity="0.25"
     inkscape:showpageshadow="2"
     inkscape:pageopacity="0.0"
     inkscape:pagecheckerboard="0"
     inkscape:deskcolor="#d1d1d1"
     inkscape:document-units="px"
     inkscape:zoom="1.2010417"
     inkscape:cx="310.56374"
     inkscape:cy="392.57588"
     inkscape:window-width="2256"
     inkscape:window-height="1427"
     inkscape:window-x="0"
     inkscape:window-y="0"
     inkscape:window-maximized="1"
     inkscape:current-layer="svg1" /><defs
     id="defs1" /><path
     style="fill:#000000"
     d="M 243.82386,443.58946 C 239.55442,441.16152 227.43235,430.60284 219.20587,422.14646 208.53687,411.1793 206.14266,406.55574 198.82246,382.78309 190.20003,354.78141 186.35504,345.63384 178.08009,333.43508 172.91887,325.82652 119.28498,272.19262 111.67642,267.03141 99.458004,258.74311 90.300244,254.89711 62.259874,246.27785 36.774694,238.44401 32.965154,236.27189 18.542504,221.35107 6.6098744,209.00628 0.32386443,200.85494 0.32386443,197.7262 0.32386443,195.31983 8.6037544,184.32509 15.250864,177.90486 28.262494,165.33735 41.524494,157.79481 75.239654,143.78723 88.668334,138.20804 103.29333,131.82727 107.73965,129.60774 145.12596,110.94508 162.50067,84.295378 164.98701,41.800511 165.34269,35.721481 166.22922,30.022381 167.08902,28.287641 169.55071,23.320921 177.84252,12.629921 183.67279,6.9054514 L 189.15446,1.5232614 197.98916,0.70376139 C 202.92579,0.24585139 210.77165,0.28640139 215.77125,0.79567139 225.63197,1.8001014 251.10123,7.5524014 275.82386,14.358721 299.57438,20.897411 307.4004,22.519871 328.58578,25.297091 355.25569,28.793291 358.8698,29.444021 361.61795,31.244681 364.71678,33.275111 368.36341,40.028761 372.43169,51.272011 376.91852,63.671981 381.5382,68.268401 393.99112,72.722921 406.41203,77.165996 412.68866,80.905229 414.55921,84.976122 415.39611,86.797457 416.84301,94.362641 417.77455,101.78764 421.97241,135.24719 423.73538,144.33412 431.25835,171.28764 437.31322,192.98118 443.31754,219.53391 444.28197,228.88163 444.76297,233.54369 444.81044,241.53599 444.38746,246.6423 L 443.61841,255.92649 438.22114,261.42343 C 432.48523,267.26525 421.79777,275.55658 416.82386,278.02344 415.06423,278.89615 409.27583,279.78116 402.82386,280.16395 373.46084,281.90605 352.55372,290.56165 335.71436,307.94744 323.49567,320.56263 315.59953,334.75199 301.30137,369.78764 291.69554,393.32539 286.56187,403.81068 279.46096,414.39572 272.40432,424.91477 264.23321,433.6723 255.46385,440.11503 248.83682,444.98381 247.15732,445.48513 243.82386,443.58946 Z"
     id="path1" /></svg>
