<?xml version="1.0" encoding="UTF-8" standalone="no"?>
<!-- Created with Inkscape (http://www.inkscape.org/) -->

<svg
   width="21.139999"
   height="21.139999"
   viewBox="0 0 21.139999 21.139999"
   version="1.1"
   id="svg1"
   inkscape:version="1.4.2 (ebf0e940d0, 2025-05-08)"
   sodipodi:docname="deer.svg"
   xmlns:inkscape="http://www.inkscape.org/namespaces/inkscape"
   xmlns:sodipodi="http://sodipodi.sourceforge.net/DTD/sodipodi-0.dtd"
   xmlns="http://www.w3.org/2000/svg"
   xmlns:svg="http://www.w3.org/2000/svg">
  <sodipodi:namedview
     id="namedview1"
     pagecolor="#ffffff"
     bordercolor="#000000"
     borderopacity="0.25"
     inkscape:showpageshadow="2"
     inkscape:pageopacity="0.0"
     inkscape:pagecheckerboard="0"
     inkscape:deskcolor="#d1d1d1"
     inkscape:document-units="px"
     inkscape:zoom="8.217228"
     inkscape:cx="40.524615"
     inkscape:cy="-10.526664"
     inkscape:window-width="2256"
     inkscape:window-height="1427"
     inkscape:window-x="0"
     inkscape:window-y="0"
     inkscape:window-maximized="1"
     inkscape:current-layer="svg1" />
  <defs
     id="defs1" />
  <path
     d="M 18.9584 1.42855 C 18.9584 1.45501 18.932 1.48147 18.9055 1.48147 C 18.8791 1.48147 18.8526 1.48147 18.8261 1.45501 C 18.6674 0.92584 18.3234 0.47605 17.7943 0.05272 C 18.2705 0.55543 18.6409 1.16397 18.6938 1.93126 C 18.7203 2.75147 18.4822 3.36001 17.953 3.83626 C 17.7678 4.04793 17.6091 4.1273 17.4503 4.10084 C 17.2386 4.04793 17.1063 3.8098 16.9741 3.36001 C 16.7359 2.35459 16.4184 1.61376 15.9951 1.08459 C 16.5507 2.03709 16.7624 2.77793 16.7359 3.4923 C 16.7359 3.51876 16.7095 3.54522 16.683 3.54522 C 16.3126 3.57168 15.8893 3.4923 15.413 3.25418 C 15.8628 3.65105 16.3391 3.88918 16.8682 3.99501 C 16.8947 3.99501 16.8947 4.02147 16.9211 4.04793 L 17.027 4.47126 C 17.027 4.49772 17.027 4.52418 17.0005 4.52418 C 16.2332 5.26501 16.2068 5.26501 16.2068 5.26501 L 16.1538 5.26501 C 16.1274 5.26501 16.1009 5.23855 15.9157 4.70938 C 15.9157 5.00043 15.8893 5.29147 15.8893 5.42376 C 15.4924 5.34438 15.1484 5.37084 14.8309 5.50313 C 14.778 5.31793 14.7251 5.0798 14.7251 4.81522 L 14.5663 5.10626 C 14.5663 5.13272 14.5399 5.15918 14.487 5.13272 C 14.4605 5.13272 14.4341 5.10626 14.4341 5.0798 L 14.5399 2.80438 L 14.5663 2.75147 C 14.9632 2.48688 15.2013 2.14293 15.3336 1.64022 C 15.1484 2.06355 14.8574 2.46043 14.3547 2.61918 C 14.3282 2.61918 14.3018 2.61918 14.3018 2.59272 C 13.9843 2.30168 13.6932 1.77251 13.3757 0.9523 C 13.4551 1.77251 13.7461 2.40751 14.2224 2.8573 C 14.2224 2.8573 14.2488 2.88376 14.2488 2.91022 C 14.2488 3.4923 14.2224 3.91563 14.143 4.23313 C 14.1166 4.4448 14.0107 4.60355 13.8784 4.65647 C 13.6668 4.7623 13.3757 4.68293 12.9788 4.4448 C 12.1057 3.8098 11.6559 2.91022 11.6559 1.71959 C 11.5236 2.61918 11.6824 3.43938 12.1586 4.25959 L 12.1586 4.31251 C 12.1586 4.33897 12.1322 4.33897 12.1057 4.33897 C 11.6295 4.31251 11.1797 4.02147 10.7828 3.46584 C 11.0209 4.07438 11.4707 4.47126 12.1851 4.68293 C 12.8995 4.81522 13.4551 4.94751 13.9049 5.10626 C 14.2224 5.21209 14.4076 5.37084 14.5399 5.60897 C 14.4605 5.66188 14.4076 5.68834 14.3282 5.76772 C 14.3018 5.79418 14.2753 5.79418 14.2488 5.76772 C 13.9313 5.42376 13.5345 5.21209 13.0318 5.10626 C 13.1641 5.66188 13.4286 6.0323 13.8784 6.32334 C 13.9049 6.32334 13.9049 6.3498 13.9049 6.37626 C 13.8784 6.74668 13.7461 7.03772 13.4551 7.24938 C 13.4022 7.27584 13.3493 7.3023 13.3228 7.32876 C 13.1111 7.43459 12.8466 7.54043 12.8201 7.64626 C 12.8201 7.64626 12.8201 7.69918 12.873 7.72563 L 13.1111 7.99022 C 13.217 8.04313 13.2964 8.14897 13.3493 8.33418 C 13.3757 8.38709 13.508 8.41355 13.7461 8.33418 C 14.1959 8.2548 14.5399 8.2548 14.8045 8.30772 C 14.9632 8.36063 15.0691 8.51938 15.0161 8.70459 C 14.8838 9.28668 14.4076 9.60418 13.6403 9.63063 L 8.26927 9.71001 C 6.7876 9.81584 5.78218 10.2656 5.30593 11.0065 C 5.04135 11.4033 4.96197 11.9325 5.06781 12.4088 L 5.09427 12.4617 C 5.25302 12.3029 5.38531 12.0383 5.54406 11.6415 C 5.54406 11.615 5.57052 11.5885 5.62343 11.5885 C 5.64989 11.5885 5.67635 11.615 5.67635 11.6415 C 5.67635 11.906 5.67635 12.1442 5.70281 12.4088 C 5.72927 13.6788 5.75573 14.8694 5.41177 15.3721 C 5.22656 15.769 4.82968 16.1394 4.22114 16.5098 C 4.03593 16.6156 3.87718 16.7744 3.77135 16.986 L 3.6126 17.2242 L 2.39552 20.3992 C 2.39552 20.4256 2.36906 20.4256 2.3426 20.4256 C 2.31614 20.4256 2.26322 20.4521 2.23676 20.5844 L 1.99864 21.14 L 3.00406 21.14 L 2.87176 20.6902 C 2.81885 20.5579 2.89822 20.4256 2.95114 20.2933 L 3.74489 18.4148 C 3.87718 18.0973 4.30052 17.7533 5.01489 17.3565 C 5.43822 17.1183 5.75573 16.7744 6.04677 16.4833 C 6.28489 16.2452 6.60239 15.9806 6.97281 15.8483 C 7.63427 15.5838 8.08406 15.0546 8.42802 14.5519 C 8.45448 14.5254 8.48093 14.5254 8.50739 14.5254 C 8.53385 14.5254 8.53385 14.5519 8.53385 14.6048 C 8.32218 15.5044 7.7401 16.2452 6.81406 16.8538 C 6.76114 16.8802 6.73468 16.9596 6.73468 17.039 C 6.99927 18.1767 7.4226 19.2615 8.03114 20.2404 C 8.08406 20.3198 8.11052 20.4256 8.11052 20.5315 L 8.13698 20.8754 L 9.19531 20.8754 C 8.79843 20.4785 8.53385 20.0817 8.3751 19.6848 C 8.08406 19.0233 7.89885 18.3883 7.84593 17.7533 C 7.84593 17.621 7.89885 17.4888 8.00468 17.3829 C 8.90427 16.8802 9.69802 16.1923 10.4389 15.2133 C 10.4918 15.134 10.5711 15.1075 10.6505 15.134 L 10.677 15.134 C 11.2855 15.5308 12.0793 15.6367 13.1111 15.5044 C 13.1376 15.5044 13.1641 15.5044 13.1641 15.5308 C 13.6403 16.1394 13.9843 16.8538 14.143 17.7269 C 14.3547 18.6265 14.5928 19.5525 14.487 20.2404 C 14.487 20.2404 14.487 20.2669 14.4605 20.2669 C 14.4076 20.3463 14.3811 20.3992 14.3811 20.4521 L 14.3811 20.4785 L 14.3018 20.849 L 14.9368 20.849 L 14.9368 20.3992 L 14.8045 20.2404 C 14.778 20.2404 14.778 20.214 14.778 20.1875 C 14.8574 19.3673 14.8309 18.4942 14.7516 17.5946 L 14.6722 15.4779 L 14.6722 15.4515 C 14.778 15.3192 14.8574 15.2398 14.9632 15.2398 L 14.9632 15.2398 C 15.0691 15.2398 15.1484 15.3192 15.2278 15.4515 L 15.2278 15.4779 L 15.122 17.4888 C 15.122 17.5946 15.122 17.7004 15.1484 17.8327 C 15.2278 18.6 15.3072 19.3938 15.3072 20.2404 L 15.3072 20.2669 C 15.3866 20.3463 15.3601 20.4256 15.3601 20.4521 L 15.3601 20.4785 L 15.3336 20.9283 L 15.9686 20.9548 L 15.7834 20.505 C 15.757 20.4521 15.757 20.3727 15.757 20.3198 L 15.7834 18.4148 C 15.7834 18.256 15.8099 18.0708 15.8363 17.9121 L 16.3655 15.769 C 16.4449 15.4515 16.5772 15.1604 16.7624 14.8694 C 17.027 14.499 17.3445 14.1021 17.7149 13.7052 C 18.0324 13.3613 18.1911 12.7792 18.1647 11.9325 L 18.1647 11.6944 C 18.1382 10.4773 18.0853 9.2073 17.9795 8.73105 C 17.9266 8.22834 17.7678 7.80501 17.5032 7.43459 C 17.2122 7.06418 16.7888 6.56147 17.0534 6.32334 C 17.4503 6.0323 17.7149 5.66188 17.8736 5.21209 C 17.9266 5.02688 17.953 4.89459 17.9266 4.7623 C 17.3974 4.94751 16.9211 5.23855 16.5507 5.58251 L 16.5243 5.58251 L 16.4978 5.58251 L 16.4978 5.58251 L 16.4714 5.58251 L 16.4714 5.58251 L 16.4449 5.58251 C 16.5243 5.42376 16.8153 5.13272 17.3974 4.65647 C 17.5032 4.57709 17.5826 4.49772 17.6884 4.41834 C 18.2705 3.91563 18.7468 3.22772 19.0378 2.38105 C 19.2759 1.37563 19.0643 0.68772 18.7997 -0.0002 Z"
     id="path1"
     style="fill:#000000;stroke-width:0.264583" />
</svg>
