<?xml version="1.0" encoding="UTF-8" standalone="no"?>
<!-- Created with Inkscape (http://www.inkscape.org/) -->

<svg
   width="464"
   height="464"
   viewBox="0 0 464 464"
   version="1.1"
   id="svg1"
   inkscape:version="1.4.2 (ebf0e940d0, 2025-05-08)"
   sodipodi:docname="deerboots.svg"
   xmlns:inkscape="http://www.inkscape.org/namespaces/inkscape"
   xmlns:sodipodi="http://sodipodi.sourceforge.net/DTD/sodipodi-0.dtd"
   xmlns="http://www.w3.org/2000/svg"
   xmlns:svg="http://www.w3.org/2000/svg">
  <sodipodi:namedview
     id="namedview1"
     pagecolor="#ffffff"
     bordercolor="#000000"
     borderopacity="0.25"
     inkscape:showpageshadow="2"
     inkscape:pageopacity="0.0"
     inkscape:pagecheckerboard="0"
     inkscape:deskcolor="#d1d1d1"
     inkscape:document-units="px"
     inkscape:zoom="0.84926471"
     inkscape:cx="308.50216"
     inkscape:cy="302.02597"
     inkscape:window-width="2256"
     inkscape:window-height="1427"
     inkscape:window-x="0"
     inkscape:window-y="0"
     inkscape:window-maximized="1"
     inkscape:current-layer="svg1" />
  <defs
     id="defs1" />
  <path
     d="M 112 128 C 115.999 128 120.002 127.055 123.577 125.267 L 136 119.056 L 147.785 124.949 C 151.778 126.945 156.248 128.001 160.713 128.001 C 167.146 128.001 173.255 125.907 178.274 122.052 C 176.787 118.18 176.001 114.032 176.001 109.76 L 176.001 109.17 C 176.001 106.368 176.336 103.633 176.96 101.002 C 172.198 97.756 166.577 96 160.712 96 C 156.248 96 151.777 97.056 147.784 99.052 L 136 104.944 L 123.578 98.733 C 120.002 96.945 115.999 96 112 96 C 103.178 96 96 103.178 96 112 C 96 120.822 103.178 128 112 128 Z"
     id="path1"
     style="fill:#000000" />
  <path
     d="M 155.156 432 C 167.896 432 180.574 429.164 192.106 423.781 C 193.426 384.233 208.481 346.417 234.856 316.745 L 244.037 306.417 C 251.752 297.738 256 286.563 256 274.952 C 256 268.734 254.8 262.668 252.433 256.919 L 205.817 143.71 C 198.952 142.83 192.563 139.912 187.371 135.241 C 179.694 140.927 170.439 144 160.712 144 C 153.777 144 146.832 142.36 140.629 139.259 L 136 136.944 L 130.733 139.577 C 129.839 140.024 128.924 140.427 128 140.808 L 128 250.334 C 128 270.364 122.434 289.957 111.904 306.996 C 101.374 324.034 86.338 337.775 68.423 346.733 L 52.821 354.533 C 26.379 367.754 8.068 391.817 2.105 419.887 C 20.212 427.817 40.022 432 59.777 432 Z"
     id="path2"
     style="fill:#000000" />
  <path
     d="M 210.244 128.001 L 212.835 128.001 C 217.898 128 222.658 126.028 226.238 122.448 L 236.686 112 L 244.223 112 C 263.241 112 280.339 101.433 288.845 84.422 L 291.056 80 L 296 80 C 317.009 80 335.625 67.396 343.428 47.891 L 345.95 41.584 L 354.396 38.769 C 362.533 36.056 368 28.473 368 19.897 L 368 19.184 C 368 14.058 366 9.246 362.37 5.634 C 358.718 2.001 353.832 0 348.611 0 L 347.392 0 C 337.929 0 329.146 4.701 323.897 12.575 L 316.282 24 L 312 24 C 295.312 24 280.308 33.272 272.844 48.2 L 268.944 56 L 264 56 C 247.312 56 232.308 65.272 224.844 80.2 L 221.51 86.868 L 206.362 90.656 C 197.905 92.77 192 100.382 192 109.169 L 192 109.759 C 192 114.632 193.898 119.213 197.344 122.659 C 200.79 126.104 205.371 128.002 210.244 128.001 Z"
     id="path3"
     style="fill:#000000" />
  <path
     d="M 136 87.056 L 140.629 84.742 C 146.833 81.64 153.777 80 160.712 80 C 167.281 80 173.657 81.414 179.477 84.093 C 177.206 79.42 176 74.258 176 68.908 C 176 67.364 176.104 65.84 176.3 64.343 C 175.111 64.116 173.901 64 172.686 64 L 171.313 64 C 166.155 64 161.305 66.009 157.656 69.657 L 153.579 73.733 L 137.888 65.888 C 135.417 64.653 132.651 63.999 129.888 63.999 C 120.661 63.999 113.046 71.021 112.101 80.002 C 118.537 80.018 124.978 81.544 130.733 84.422 Z"
     id="path4"
     style="fill:#000000" />
  <path
     d="M 202.481 75.133 L 210.49 73.131 L 210.533 73.044 C 219.967 54.177 238.223 41.925 258.959 40.208 C 268.611 21.619 286.916 9.646 307.613 8.157 L 310.584 3.7 C 310.782 3.404 310.997 3.124 311.201 2.834 L 307.879 1.727 C 304.443 0.581 300.865 0 297.244 0 C 288.261 0 279.815 3.498 273.464 9.85 L 267.314 16 L 256.985 16 C 241.242 16 227.58 26.667 223.761 41.94 L 222.596 46.596 L 206.223 50.689 C 197.849 52.784 192 60.275 192 68.908 C 192 72.23 192.873 75.411 194.482 78.217 C 196.969 76.888 199.646 75.842 202.481 75.133 Z"
     id="path5"
     style="fill:#000000" />
  <path
     d="M 155.156 448 L 59.777 448 C 39.407 448 18.986 443.996 0.07 436.383 C 0.026 437.584 0 438.79 0 440 C 0 453.233 10.766 464 24 464 L 163.156 464 C 175.754 464 188.182 461.262 199.573 456.033 C 196.678 451.368 194.528 446.199 193.273 440.69 C 181.173 445.487 168.192 448 155.156 448 Z"
     id="path6"
     style="fill:#000000" />
  <path
     d="M 453.228 261.971 C 453.076 261.789 452.931 261.603 452.78 261.42 L 451.123 276.331 C 448.854 296.745 437.941 315.262 421.181 327.134 L 269.919 434.277 C 257.246 443.255 242.337 448 226.806 448 C 222.015 448 217.259 447.531 212.582 446.622 C 218.547 456.995 229.734 464 242.534 464 C 249.687 464 256.559 461.824 262.408 457.709 L 444.271 329.731 C 456.625 321.037 464 306.828 464 291.723 C 464 280.872 460.174 270.306 453.228 261.971 Z"
     id="path7"
     style="fill:#000000" />
  <path
     d="M 260.67 421.221 L 368 345.196 L 368.003 327.797 L 384.003 327.869 L 384.002 333.861 L 411.933 314.077 C 424.969 304.844 433.457 290.441 435.221 274.563 L 438.771 242.611 C 427.465 225.69 418.522 207.371 412.075 187.895 C 412.031 188.002 411.984 188.109 411.94 188.216 L 397.145 182.122 C 399.515 176.369 402.058 170.617 404.71 164.971 L 367.874 49.855 C 365.301 51.55 362.483 52.938 359.456 53.947 L 358.046 54.417 C 348.279 78.2 326.21 94.035 300.835 95.83 C 288.99 115.791 267.716 128 244.223 128 L 243.314 128 L 237.552 133.762 C 233.336 137.977 228.231 140.977 222.663 142.6 L 267.227 250.828 C 270.394 258.518 271.999 266.636 271.999 274.953 C 271.999 290.488 266.315 305.437 255.994 317.048 L 246.813 327.376 C 221.908 355.394 208.142 391.43 208.005 428.904 L 208.277 428.995 C 214.263 430.989 220.497 432.001 226.804 432.001 C 239.006 432 250.716 428.272 260.67 421.221 Z M 393.632 190.963 L 408.572 196.69 C 404.338 207.735 400.593 219.113 397.439 230.508 L 382.019 226.24 C 385.309 214.354 389.216 202.484 393.632 190.963 Z M 379.596 235.43 L 395.117 239.319 C 392.243 250.79 389.893 262.536 388.133 274.232 L 372.312 271.85 C 374.147 259.648 376.599 247.396 379.596 235.43 Z M 371.012 281.265 L 386.887 283.257 C 385.414 294.992 384.495 306.937 384.154 318.757 L 368.161 318.296 C 368.516 305.966 369.475 293.506 371.012 281.265 Z M 291.715 264.971 C 307.819 248.868 329.229 240 352 240 L 352 256 C 333.502 256 316.11 263.204 303.029 276.284 L 301.657 277.656 L 290.342 266.343 Z"
     id="path8"
     style="fill:#000000" />
</svg>
