<?xml version="1.0" encoding="UTF-8" standalone="no"?>
<!-- Created with Inkscape (http://www.inkscape.org/) -->

<svg
   width="83.162003"
   height="83.162003"
   viewBox="0 0 83.162003 83.162002"
   version="1.1"
   id="svg1"
   inkscape:version="1.4.2 (ebf0e940d0, 2025-05-08)"
   sodipodi:docname="distresspistol.svg"
   xmlns:inkscape="http://www.inkscape.org/namespaces/inkscape"
   xmlns:sodipodi="http://sodipodi.sourceforge.net/DTD/sodipodi-0.dtd"
   xmlns="http://www.w3.org/2000/svg"
   xmlns:svg="http://www.w3.org/2000/svg">
  <sodipodi:namedview
     id="namedview1"
     pagecolor="#ffffff"
     bordercolor="#000000"
     borderopacity="0.25"
     inkscape:showpageshadow="2"
     inkscape:pageopacity="0.0"
     inkscape:pagecheckerboard="0"
     inkscape:deskcolor="#d1d1d1"
     inkscape:document-units="px"
     inkscape:zoom="4.8041667"
     inkscape:cx="4.5793582"
     inkscape:cy="59.115351"
     inkscape:window-width="1366"
     inkscape:window-height="1068"
     inkscape:window-x="26"
     inkscape:window-y="23"
     inkscape:window-maximized="0"
     inkscape:current-layer="svg1" />
  <defs
     id="defs1" />
  <path
     d="M 51.187698,22.125665 C 51.187698,27.777965 46.605698,32.359665 40.953698,32.359665 H 0.76569758 C 0.34381758,32.359665 7.7577412e-5,32.015915 7.7577412e-5,31.594045 V 12.656045 C 7.7577412e-5,12.234165 0.34382758,11.890425 0.76569758,11.890425 H 40.953698 C 43.668498,11.890425 46.273998,12.968525 48.191998,14.886525 50.109998,16.808425 51.188098,19.409925 51.188098,22.124825 Z"
     id="path1"
     style="fill:#000000" />
  <path
     d="M 64.109698,21.219665 C 63.937818,21.657165 63.844078,21.922785 63.687818,22.344665 63.211258,23.610265 61.844018,24.297765 60.547218,23.922765 59.672218,23.672765 58.812818,23.422765 57.953418,23.172765 57.719038,23.829015 57.500298,24.469665 57.265918,25.125865 56.187818,24.907115 55.148718,24.539925 54.172118,24.032065 54.265868,23.403155 54.312738,22.766465 54.312738,22.125865 54.312738,21.782115 54.297113,21.453985 54.281488,21.125865 V 21.11024 C 54.390868,20.82899 54.500238,20.53212 54.609608,20.23524 55.008048,19.11804 55.336168,17.97354 55.593988,16.81334 55.715078,16.32506 56.054928,15.9149 56.511958,15.70004 56.968988,15.4852 57.496338,15.4852 57.953358,15.703946 59.562758,16.453946 61.172158,17.219546 62.781458,17.969546 64.000258,18.543766 64.578358,19.957846 64.109558,21.219546 Z"
     id="path2"
     style="fill:#000000" />
  <path
     d="M 78.562698,42.422665 C 75.339998,36.746865 70.586098,32.090665 64.843698,28.984665 63.984318,28.515915 63.003898,28.316695 62.031198,28.422165 60.089798,28.664355 58.120998,28.558885 56.218698,28.109665 55.230418,27.871385 54.265598,27.539355 53.343698,27.109665 53.187448,27.512005 53.003858,27.902635 52.796818,28.281565 50.507718,32.711265 45.937418,35.488565 40.952818,35.484665 H 13.608818 V 38.500265 C 13.604912,38.707295 13.686943,38.910425 13.835378,39.054955 13.983818,39.203395 14.183038,39.285425 14.390068,39.281515 20.749468,39.26589 27.437068,39.094015 28.328068,40.765915 29.343668,42.719015 27.343688,44.781515 28.484318,48.203415 29.539018,50.789315 31.554618,52.859615 34.109318,53.984615 39.906218,56.656515 48.562318,54.797115 50.734318,53.672115 56.203118,50.875215 54.312418,46.687715 57.578118,46.547115 62.171918,46.359615 67.687118,51.422115 68.156118,56.469015 68.562368,60.828415 65.031118,63.187815 66.499918,67.219015 69.187418,74.578415 77.515918,70.797115 81.218918,64.734615 86.312718,56.390815 79.937718,44.875615 78.562718,42.422615 Z M 50.078698,45.055465 C 50.078698,47.496865 48.102098,49.477365 45.656798,49.477365 H 38.094298 C 35.652898,49.477365 33.672398,47.496865 33.672398,45.055465 V 45.043747 C 33.672398,42.602347 35.652898,40.621847 38.094298,40.621847 H 43.609898 C 43.609898,40.739037 43.629429,40.856227 43.656773,40.969507 44.219273,42.184307 43.859893,43.625707 42.789583,44.434307 42.508333,44.738997 42.355993,45.141337 42.371613,45.559307 42.387238,45.973367 42.566923,46.363997 42.871613,46.645207 43.176303,46.926457 43.582553,47.078797 43.996613,47.059267 44.410673,47.043643 44.801303,46.863957 45.082513,46.559267 46.684113,45.113967 47.367713,42.906967 46.859813,40.809267 48.762113,41.340517 50.074613,43.070967 50.078613,45.043667 Z M 68.273698,43.746865 H 68.277608 C 67.644798,43.746865 67.074508,43.367955 66.832308,42.785925 66.590118,42.199985 66.722928,41.528125 67.172148,41.082825 67.617458,40.633605 68.289348,40.500795 68.875248,40.742985 69.457278,40.985175 69.840088,41.555485 69.840088,42.184385 69.840088,43.047665 69.140868,43.746885 68.277588,43.746885 Z M 74.035398,64.223865 H 74.039308 C 73.406498,64.223865 72.836208,63.844955 72.594008,63.259025 72.351818,62.676995 72.484628,62.005125 72.933848,61.555925 73.379158,61.110615 74.051048,60.977805 74.636948,61.219985 75.218978,61.462175 75.601788,62.028575 75.601788,62.661385 75.601788,63.524665 74.902568,64.223885 74.039288,64.223885 Z"
     id="path3"
     style="fill:#000000" />
</svg>
