<?xml version="1.0" encoding="UTF-8" standalone="no"?>
<!-- Created with Inkscape (http://www.inkscape.org/) -->

<svg
   width="93.606003"
   height="93.606003"
   viewBox="0 0 93.606003 93.606002"
   version="1.1"
   id="svg1"
   inkscape:version="1.4.2 (ebf0e940d0, 2025-05-08)"
   sodipodi:docname="pistolammo.svg"
   xmlns:inkscape="http://www.inkscape.org/namespaces/inkscape"
   xmlns:sodipodi="http://sodipodi.sourceforge.net/DTD/sodipodi-0.dtd"
   xmlns="http://www.w3.org/2000/svg"
   xmlns:svg="http://www.w3.org/2000/svg">
  <sodipodi:namedview
     id="namedview1"
     pagecolor="#ffffff"
     bordercolor="#000000"
     borderopacity="0.25"
     inkscape:showpageshadow="2"
     inkscape:pageopacity="0.0"
     inkscape:pagecheckerboard="0"
     inkscape:deskcolor="#d1d1d1"
     inkscape:document-units="px"
     inkscape:zoom="4.8041667"
     inkscape:cx="30.806592"
     inkscape:cy="69.210755"
     inkscape:window-width="1469"
     inkscape:window-height="1427"
     inkscape:window-x="20"
     inkscape:window-y="20"
     inkscape:window-maximized="0"
     inkscape:current-layer="svg1" />
  <defs
     id="defs1" />
  <path
     d="M 70.142169,10.936018 C 71.321869,11.635238 73.220269,12.775818 73.763269,14.033718 L 73.755456,14.037624 C 73.935146,14.451684 74.024986,14.900904 74.024986,15.369624 H 74.032799 C 74.032799,15.830564 73.939049,16.275874 73.755459,16.701624 L 73.763272,16.70553 C 72.931242,18.63913 68.173472,20.95163 66.591372,21.61573 54.501372,26.70553 34.974372,26.61963 23.474372,19.80323 22.294672,19.10401 20.396272,17.96343 19.853272,16.70553 L 19.861085,16.701624 C 19.489995,15.842244 19.489995,14.896924 19.861085,14.037524 L 19.853272,14.033618 C 20.685302,12.100018 25.447072,9.787518 27.025172,9.123418 39.111172,4.029618 58.646172,4.119518 70.142172,10.935918 Z M 69.907789,15.369618 C 59.384789,7.385218 34.231789,7.381318 23.708789,15.369618 34.231789,23.354018 59.384789,23.354018 69.907789,15.369618 Z M 80.579789,15.38915 C 80.634476,11.43995 76.970389,7.65865 71.212589,4.86915 57.806589,-1.62305 35.806589,-1.62305 22.400589,4.86915 1.1815895,15.14215 18.849789,30.73215 46.806589,30.73215 56.376889,30.73215 65.001589,28.87275 71.212589,25.86495 76.989889,23.06805 80.568089,19.35325 80.579789,15.38795 Z M 80.579789,23.95945 C 67.036789,38.07645 26.579789,38.07645 13.032789,23.95945 V 78.24045 C 13.032789,82.21315 16.610889,85.93575 22.399989,88.73645 35.805989,95.22865 57.805989,95.22865 71.211989,88.73645 76.997189,85.93565 80.579189,82.21305 80.579189,78.24045 Z"
     fill-rule="evenodd"
     id="path1"
     style="fill:#000000" />
</svg>
