<?xml version="1.0" encoding="UTF-8" standalone="no"?>
<!-- Created with Inkscape (http://www.inkscape.org/) -->

<svg
   width="90.058998"
   height="90.058998"
   viewBox="0 0 90.058999 90.058998"
   version="1.1"
   id="svg1"
   inkscape:version="1.4.2 (ebf0e940d0, 2025-05-08)"
   sodipodi:docname="earwrap.svg"
   xmlns:inkscape="http://www.inkscape.org/namespaces/inkscape"
   xmlns:sodipodi="http://sodipodi.sourceforge.net/DTD/sodipodi-0.dtd"
   xmlns="http://www.w3.org/2000/svg"
   xmlns:svg="http://www.w3.org/2000/svg">
  <sodipodi:namedview
     id="namedview1"
     pagecolor="#ffffff"
     bordercolor="#000000"
     borderopacity="0.25"
     inkscape:showpageshadow="2"
     inkscape:pageopacity="0.0"
     inkscape:pagecheckerboard="0"
     inkscape:deskcolor="#d1d1d1"
     inkscape:document-units="px"
     inkscape:zoom="3.3970588"
     inkscape:cx="26.640693"
     inkscape:cy="132.32035"
     inkscape:window-width="2256"
     inkscape:window-height="1427"
     inkscape:window-x="0"
     inkscape:window-y="0"
     inkscape:window-maximized="1"
     inkscape:current-layer="svg1" />
  <defs
     id="defs1" />
  <path
     fill="#000000"
     d="M 15.299839,42.712278 C 24.999842,39.712278 52.899842,23.612278 60.699842,18.012278 60.699842,18.012278 62.499842,18.012278 62.799842,20.012278 62.799842,20.012278 62.899842,20.012278 62.999842,20.012278 63.299842,20.012278 64.099842,20.112278 64.999842,21.112278 66.199842,22.412278 66.799842,24.812278 67.699842,26.512278 68.299842,27.612278 69.399842,29.112278 70.299842,30.412278 70.999842,31.512278 70.999842,33.012278 70.299842,34.112278 69.799842,34.812278 69.099842,35.712278 68.199842,36.712278 64.799842,40.212278 35.499842,57.312278 15.699839,57.312278 13.299839,57.312278 10.999839,57.012278 8.8998391,56.512278 8.8998391,56.512278 4.3998391,55.412278 3.2998391,52.512278 2.0998391,49.612278 0.39983905,43.912278 0.39983905,43.912278 0.39983905,43.912278 2.0998391,44.512278 5.2998391,44.512278 7.6998391,44.412278 11.099839,44.012278 15.299839,42.712278 Z"
     id="path1"
     style="fill:#000000" />
  <path
     fill="#000000"
     d="M 71.899842,35.212278 C 71.899842,35.112278 71.999842,35.112278 71.999842,35.012278 L 89.499842,50.712278 C 90.399842,51.512278 90.199842,53.212278 88.999841,53.612278 L 81.099841,56.512278 C 70.599842,60.412278 63.399842,70.212278 46.899842,71.912278 33.899842,73.312278 21.699842,63.412278 17.199839,59.212278 37.199842,58.412278 65.699842,42.012278 69.599842,38.012278 70.499842,37.112278 71.299842,36.212278 71.899842,35.212278 Z"
     id="path2"
     style="fill:#000000" />
  <path
     fill="#000000"
     d="M 1.4998391,36.712278 C 7.2998391,30.512278 21.599842,25.512278 28.199842,24.912278 31.899842,24.512278 39.199842,25.012278 44.799842,25.512278 40.399842,28.112278 35.699842,30.712278 31.099842,33.112278 25.399842,33.512278 17.699839,36.312278 13.499839,38.612278 11.699839,39.612278 10.699839,40.812278 10.099839,41.912278 8.3998391,42.212278 6.6998391,42.412278 5.0998391,42.412278 2.3998391,42.412278 0.89983905,41.912278 0.89983905,41.912278 L -1.6094559e-4,41.612278 C -1.6094559e-4,39.712278 0.39983905,37.912278 1.4998391,36.712278 Z"
     id="path3"
     style="fill:#000000" />
</svg>
