<?xml version="1.0" encoding="UTF-8" standalone="no"?>
<!-- Created with Inkscape (http://www.inkscape.org/) -->

<svg
   width="90.000999"
   height="90.000999"
   viewBox="0 0 90.000999 90.000999"
   version="1.1"
   id="svg1"
   inkscape:version="1.4.2 (ebf0e940d0, 2025-05-08)"
   sodipodi:docname="expedition.svg"
   xmlns:inkscape="http://www.inkscape.org/namespaces/inkscape"
   xmlns:sodipodi="http://sodipodi.sourceforge.net/DTD/sodipodi-0.dtd"
   xmlns="http://www.w3.org/2000/svg"
   xmlns:svg="http://www.w3.org/2000/svg">
  <sodipodi:namedview
     id="namedview1"
     pagecolor="#ffffff"
     bordercolor="#000000"
     borderopacity="0.25"
     inkscape:showpageshadow="2"
     inkscape:pageopacity="0.0"
     inkscape:pagecheckerboard="0"
     inkscape:deskcolor="#d1d1d1"
     inkscape:document-units="px"
     inkscape:zoom="9.6083333"
     inkscape:cx="27.007806"
     inkscape:cy="60"
     inkscape:window-width="2256"
     inkscape:window-height="1427"
     inkscape:window-x="0"
     inkscape:window-y="0"
     inkscape:window-maximized="1"
     inkscape:current-layer="svg1" />
  <defs
     id="defs1" />
  <path
     class="cls-1"
     d="M 25.3895,33.205968 24.4745,32.736968 C 22.4075,31.674968 19.8355,30.353968 17.1445,29.282968 L 13.8255,38.400968 24.4695,42.641968 25.3895,33.209968 Z M 21.0045,56.619968 10.2045,53.627968 A 15.99,15.99 0 0 0 8.0045001,58.281968 14.113,14.113 0 0 0 7.5165001,63.100968 L 18.2565,65.852968 Z M 17.9335,67.990968 A 19.121,19.121 0 0 1 17.1985,73.032968 31.141,31.141 0 0 1 15.1465,78.332968 L 4.6045001,75.195968 A 19.819,19.819 0 0 1 5.1755001,70.058968 21.183,21.183 0 0 1 7.0525001,65.200968 Z M 67.0215,19.254968 A 52.771,52.771 0 0 0 65.4605,25.219968 49.47,49.47 0 0 0 64.6735,30.760968 84.277,84.277 0 0 1 72.340499,27.171968 9.622,9.622 0 0 0 70.4935,23.108968 31.14,31.14 0 0 0 67.0215,19.254968 Z M 65.8875,44.813968 68.4235,54.545968 79.523499,51.471968 A 50.511,50.511 0 0 0 78.673499,45.918968 32.226,32.226 0 0 0 76.987499,40.393968 Z M 69.0045,56.619968 79.804499,53.627968 A 15.99,15.99 0 0 1 82.004499,58.281968 14.113,14.113 0 0 1 82.492499,63.100968 L 71.752499,65.852968 Z M 72.062499,67.993968 A 19.157,19.157 0 0 0 72.709499,73.380968 20.453,20.453 0 0 0 74.796499,78.353968 L 85.396499,75.195968 A 19.819,19.819 0 0 0 84.825499,70.058968 21.183,21.183 0 0 0 82.956499,65.200968 Z M 62.2095,3.3309676 C 65.8255,5.9099676 66.6555,10.147968 64.7945,15.985968 L 57.9045,21.761968 51.3835,14.743968 57.9045,8.3009676 C 59.6915,6.6839676 60.2045,5.3009676 59.5295,4.1389676 58.9435,3.1269676 57.4045,2.5509676 54.9795,2.3769676 A 1.132,1.132 0 0 0 54.8045,2.3769676 L 34.2875,2.8709676 A 1.039,1.039 0 0 0 34.0935,2.8929676 V 2.8929676 C 31.2195,3.4929676 29.8405,4.4769676 29.4555,5.7069676 29.0455,7.0179676 29.7755,8.3439676 31.0735,9.6779676 A 1.037,1.037 0 0 0 31.2015,9.7899676 V 9.7899676 L 37.9515,14.836968 31.1175,21.416968 25.1305,15.924968 A 9.4,9.4 0 0 1 25.3155,6.2689676 11.21,11.21 0 0 1 29.2235,2.5339676 C 31.9695,0.91596758 35.7965,-0.02403242 40.7805,0.22596758 A 1.075,1.075 0 0 0 40.9075,0.22596758 V 0.22596758 C 51.2445,-0.50703242 58.3075,0.54796758 62.2075,3.3259676 Z M 20.3045,66.521968 20.0755,67.291968 Q 20.0885,67.659968 20.0875,68.028968 Z M 22.7045,50.250968 22.6235,50.560968 A 1.161,1.161 0 0 0 22.5935,50.676968 L 21.5855,54.545968 10.4855,51.471968 A 50.511,50.511 0 0 1 11.3355,45.918968 32.226,32.226 0 0 1 13.0215,40.393968 L 24.1215,44.813968 22.7495,50.077968 A 1.1,1.1 0 0 0 22.7045,50.250968 Z M 47.9165,13.640968 C 47.9485,13.640968 47.9815,13.640968 48.0165,13.640968 48.0515,13.640968 48.0785,13.640968 48.1095,13.640968 H 49.4365 L 56.3925,6.7709676 C 56.4175,6.7469676 56.4425,6.7239676 56.4685,6.7029676 57.3815,5.8809676 57.7685,5.3919676 57.6685,5.2179676 57.4685,4.8799676 56.5165,4.6539676 54.8545,4.5339676 L 34.4465,5.0229676 C 32.5225,5.4349676 31.6625,5.8819676 31.5155,6.3499676 31.3965,6.7329676 31.8315,7.3579676 32.5525,8.1079676 L 39.9765,13.658968 47.9185,13.643968 Z M 28.0185,37.900968 H 41.6625 V 49.360968 H 25.1625 L 26.4445,44.440968 A 1.157,1.157 0 0 0 26.4755,44.250968 L 27.1385,37.450968 A 1.08,1.08 0 0 0 28.0185,37.903968 Z M 65.0045,37.131968 64.6215,33.205968 65.5375,32.735968 C 67.6045,31.674968 70.1755,30.353968 72.866499,29.282968 L 76.183499,38.400968 65.5395,42.637968 65.0155,37.266968 A 1,1 0 0 0 65.0045,37.131968 Z M 41.5965,62.520968 H 39.7045 L 33.8805,72.607968 H 41.3045 L 41.5975,62.520968 Z M 31.5295,62.520968 H 23.0605 L 21.6045,72.607968 H 25.7045 Z M 34.3685,61.912968 35.0095,60.801968 37.4095,62.186968 31.1175,73.086968 A 1.089,1.089 0 0 0 31.0415,73.219968 L 28.7635,77.164968 26.3635,75.778968 27.2195,74.295968 A 0.978,0.978 0 0 0 27.2965,74.162968 L 34.2905,62.048968 A 1.1,1.1 0 0 0 34.3675,61.915968 Z M 23.3685,60.361968 H 32.7685 L 33.6745,58.791968 A 1.077,1.077 0 0 1 35.1545,58.400968 L 35.2095,58.434968 38.5485,60.362968 H 41.6585 L 41.7845,56.045968 H 23.9955 L 23.3725,60.362968 Z M 66.8245,63.361968 H 60.3245 L 66.2705,73.661968 H 68.2045 L 66.8285,63.361968 Z M 57.5615,62.886968 64.6785,75.212968 A 0.978,0.978 0 0 0 64.7555,75.345968 L 65.0055,75.778968 62.6055,77.165968 60.9465,74.292968 A 1.07,1.07 0 0 0 60.8465,74.115968 L 53.9625,62.187968 56.3625,60.801968 57.4875,62.749968 A 1.108,1.108 0 0 0 57.5645,62.883968 Z M 52.1515,63.361968 H 48.9865 L 48.9085,73.661968 H 58.1045 L 52.1585,63.361968 Z M 49.0045,61.200968 H 51.5995 A 1.07,1.07 0 0 1 51.9595,60.863968 L 56.1655,58.435968 C 56.1825,58.423968 56.2015,58.412968 56.2205,58.401968 A 1.077,1.077 0 0 1 57.6925,58.793968 L 59.0825,61.200968 H 66.5405 L 65.9205,56.558968 H 49.0385 Z M 41.6625,25.906968 H 26.8755 A 51.329,51.329 0 0 1 27.6075,32.531968 1.041,1.041 0 0 1 27.5995,32.717968 L 27.2765,36.031968 A 1.074,1.074 0 0 1 28.0185,35.731968 H 41.6625 V 25.901968 Z M 31.7955,23.746968 H 41.6625 V 15.800968 H 40.0485 L 31.8805,23.666968 C 31.8535,23.692968 31.8245,23.717968 31.7955,23.740968 Z M 26.4455,23.746968 H 30.4735 C 30.4495,23.728968 30.4275,23.709968 30.4045,23.688968 V 23.688968 L 25.1235,18.843968 Q 25.9095,21.307968 26.4455,23.743968 Z M 24.5195,25.074968 24.5485,25.219968 A 49.47,49.47 0 0 1 25.3355,30.760968 84.009,84.009 0 0 0 17.6685,27.171968 9.622,9.622 0 0 1 19.5155,23.108968 31.14,31.14 0 0 1 22.9875,19.254968 52.909,52.909 0 0 1 24.5045,25.011968 C 24.5045,25.032968 24.5125,25.053968 24.5175,25.074968 Z M 63.1965,25.561968 H 49.0945 V 35.132968 L 62.7425,36.132968 62.4095,32.714968 A 1.041,1.041 0 0 1 62.4015,32.528968 51.112,51.112 0 0 1 63.1965,25.558968 Z M 59.3045,23.400968 64.9435,18.675968 Q 64.1785,21.051968 63.6435,23.400968 Z M 49.0985,23.400968 H 56.4865 L 49.4045,15.788968 H 49.0945 V 23.400968 Z M 36.4555,51.515968 V 53.884968 H 42.5045 V 51.515968 Z M 25.9805,53.884968 V 51.515968 H 24.6485 L 24.3045,53.884968 Z M 28.1405,51.515968 V 53.884968 H 34.2955 V 51.515968 Z M 52.6045,54.400968 V 51.225968 L 48.2605,51.267968 A 1.1,1.1 0 0 1 48.0155,51.295968 1.115,1.115 0 0 1 47.7905,51.271968 L 46.8525,51.280968 V 54.400968 Z M 53.5795,49.068968 C 53.6135,49.068968 53.6485,49.063968 53.6845,49.063968 A 0.775,0.775 0 0 1 53.7685,49.063968 L 64.7445,48.958968 63.5645,44.436968 A 1.157,1.157 0 0 1 63.5335,44.246968 L 62.9555,38.313968 49.0945,37.294968 V 49.107968 L 53.5785,49.064968 Z M 61.0045,54.400968 V 51.145968 L 54.7615,51.205968 V 54.400968 Z M 63.1645,51.128968 V 54.400968 H 65.6285 L 65.1895,51.109968 Z M 40.8045,89.830968 41.2415,74.767968 H 32.6335 L 30.0915,79.167968 A 1.078,1.078 0 0 1 28.6195,79.560968 C 28.6005,79.549968 28.5815,79.537968 28.5645,79.525968 L 24.3575,77.100968 A 1.076,1.076 0 0 1 23.9575,75.632968 V 75.632968 75.632968 L 24.4575,74.771968 H 21.2925 L 19.7645,85.356968 A 78.135,78.135 0 0 0 40.8045,89.830968 Z M 46.6335,90.000968 46.7485,74.830968 C 46.7485,74.801968 46.7485,74.772968 46.7485,74.743968 46.7485,74.714968 46.7485,74.673968 46.7485,74.643968 L 46.8415,62.374968 Q 46.8415,62.331968 46.8415,62.287968 C 46.8415,62.252968 46.8415,62.217968 46.8465,62.187968 L 46.8895,56.569968 H 45.7715 A 1.08,1.08 0 0 1 44.6915,55.489968 V 50.215968 A 1.079,1.079 0 0 1 45.7715,49.135968 C 45.7995,49.135968 45.8285,49.135968 45.8565,49.135968 L 46.9345,49.125968 V 15.793968 L 43.8225,15.799968 V 49.382968 A 1.082,1.082 0 0 1 44.6625,50.435968 V 54.964968 A 1.08,1.08 0 0 1 43.9385,55.984968 L 42.9545,89.945968 Q 43.8785,89.980968 44.8025,89.993968 45.7265,90.006968 46.6335,89.993968 Z M 69.8585,86.042968 68.4925,75.822968 H 67.4925 A 1.076,1.076 0 0 1 67.0115,77.105968 L 62.7465,79.568968 A 1.075,1.075 0 0 1 61.2785,79.168968 L 59.3445,75.819968 H 48.8925 L 48.7855,89.940968 A 77.269,77.269 0 0 0 69.8585,86.037968 Z"
     id="path1"
     style="fill:#000000;fill-rule:evenodd" />
</svg>
