<?xml version="1.0" encoding="UTF-8" standalone="no"?>
<!-- Created with Inkscape (http://www.inkscape.org/) -->

<svg
   width="80"
   height="80"
   viewBox="0 0 80 80"
   version="1.1"
   id="svg1"
   inkscape:version="1.4.2 (ebf0e940d0, 2025-05-08)"
   sodipodi:docname="fir.svg"
   xmlns:inkscape="http://www.inkscape.org/namespaces/inkscape"
   xmlns:sodipodi="http://sodipodi.sourceforge.net/DTD/sodipodi-0.dtd"
   xmlns="http://www.w3.org/2000/svg"
   xmlns:svg="http://www.w3.org/2000/svg">
  <sodipodi:namedview
     id="namedview1"
     pagecolor="#ffffff"
     bordercolor="#000000"
     borderopacity="0.25"
     inkscape:showpageshadow="2"
     inkscape:pageopacity="0.0"
     inkscape:pagecheckerboard="0"
     inkscape:deskcolor="#d1d1d1"
     inkscape:document-units="px"
     inkscape:zoom="4.8041667"
     inkscape:cx="19.150043"
     inkscape:cy="78.577624"
     inkscape:window-width="2256"
     inkscape:window-height="1427"
     inkscape:window-x="0"
     inkscape:window-y="0"
     inkscape:window-maximized="1"
     inkscape:current-layer="svg1" />
  <defs
     id="defs1" />
  <path
     id="path1"
     d="M 60.245805,10 C 57.245805,10 54.345805,10.7 51.745805,12 L 51.646195,12.09961 C 51.446195,12.19961 51.146975,12.3 50.946975,12.5 L 36.046587,20.199219 V 21.398438 L 30.646196,24 29.146196,23.798828 11.146196,33.199219 C 4.7461965,36.299219 0.34541548,42.89961 0.34541548,50.59961 0.34541548,61.29961 9.0458055,70 19.745805,70 22.445805,70 25.045415,69.5 27.345415,68.5 28.245415,68.1 29.146977,67.59961 29.946977,67.09961 L 67.646195,47.398438 C 68.646195,46.998438 69.646195,46.398438 70.646195,45.898438 H 70.745805 C 73.845805,43.898438 76.346975,41.099219 77.946975,37.699219 L 76.845415,37.398438 78.745805,32.398438 79.546585,31.898438 C 79.646585,31.098438 79.646195,30.3 79.646195,29.5 79.746195,26.2 78.946585,23.2 77.546585,20.5 74.346585,14.3 67.745805,10 60.245805,10 Z M 53.470415,16.361328 C 53.690725,16.361328 53.896585,16.474219 54.046585,16.699219 54.146585,16.999219 54.045805,17.3 53.745805,17.5 L 25.946977,31.699219 C 25.846977,31.699219 25.746196,31.798828 25.646196,31.798828 25.446196,31.798828 25.246196,31.7 25.146196,31.5 24.946196,31.1 25.145415,30.799219 25.345415,30.699219 L 53.245805,16.398438 C 53.320805,16.373438 53.396975,16.361328 53.470415,16.361328 Z M 70.058305,21.521485 C 70.377055,21.51211 70.695415,21.7 70.845415,22 71.045415,22.4 70.846975,22.89961 70.446975,23.09961 L 42.546587,37.298828 C 42.446587,37.398828 42.346196,37.398438 42.146196,37.398438 41.846196,37.398438 41.546977,37.2 41.446977,37 41.246977,36.6 41.445415,36.098438 41.845415,35.898438 L 69.745805,21.59961 C 69.845805,21.54961 69.952055,21.52461 70.058305,21.521485 Z M 71.470415,32.960938 C 71.690725,32.960938 71.896585,33.073828 72.046585,33.298828 72.146585,33.498828 72.045805,33.9 71.745805,34 L 43.845415,48.298828 C 43.745415,48.298828 43.646587,48.398438 43.546587,48.398438 43.346587,48.398438 43.146587,48.29961 43.046587,48.09961 42.946587,47.79961 43.045415,47.498828 43.345415,47.298828 L 71.245805,33 C 71.320805,32.975 71.396975,32.960938 71.470415,32.960938 Z M 19.745805,34.199219 C 24.745805,34.199219 29.146196,36.398438 32.146196,39.898438 L 30.646196,42.798828 33.845415,42.298828 C 35.245415,44.698828 36.046587,47.498438 36.046587,50.398438 36.046587,59.498438 28.745805,66.798828 19.745805,66.798828 10.745805,66.798828 3.4469775,59.5 3.4469775,50.5 3.4469775,41.5 10.745805,34.199219 19.745805,34.199219 Z M 19.745805,37.699219 C 12.645805,37.699219 6.8454155,43.49961 6.8454155,50.59961 6.8454155,57.69961 12.645805,63.5 19.745805,63.5 26.845805,63.5 32.646196,57.69961 32.646196,50.59961 32.646196,43.49961 26.845805,37.699219 19.745805,37.699219 Z M 19.745805,38.59961 C 26.345805,38.59961 31.646196,44 31.646196,50.5 31.646196,57 26.345805,62.5 19.745805,62.5 13.145805,62.5 7.8454155,57.09961 7.8454155,50.59961 7.8454155,44.09961 13.145805,38.59961 19.745805,38.59961 Z M 19.745805,40.798828 C 14.345805,40.798828 9.9469775,45.19961 9.9469775,50.59961 9.9469775,55.99961 14.345805,60.398438 19.745805,60.398438 25.145805,60.398438 29.546587,55.99961 29.546587,50.59961 29.546587,45.19961 25.145805,40.798828 19.745805,40.798828 Z M 19.745805,41.798828 C 24.545805,41.798828 28.546587,45.79961 28.546587,50.59961 28.546587,55.39961 24.645805,59.398438 19.745805,59.398438 14.845805,59.398438 10.946977,55.39961 10.946977,50.59961 10.946977,45.79961 14.945805,41.798828 19.745805,41.798828 Z M 65.195025,42.421875 C 65.772175,42.419922 66.296585,42.66211 66.546585,43.09961 66.946585,43.79961 66.546585,44.798828 65.546585,45.298828 64.646585,45.798828 63.546195,45.598438 63.146195,44.898438 62.746195,44.198438 63.146195,43.199219 64.146195,42.699219 64.483695,42.511719 64.848735,42.423047 65.195025,42.421875 Z M 67.892295,43.060547 C 68.032915,43.05586 68.146195,43.148828 68.146195,43.298828 68.846195,44.698828 68.046975,46.299219 66.446975,47.199219 65.846975,47.499219 65.246585,47.699219 64.546585,47.699219 H 63.946975 C 63.146975,47.599219 62.446195,47.1 62.146195,46.5 62.046195,46.3 62.145805,46.1 62.245805,46 62.445805,45.9 62.645805,45.99961 62.745805,46.09961 63.045805,46.59961 63.446585,46.9 64.046585,47 64.646585,47.1 65.446585,46.99961 66.046585,46.59961 67.346585,45.89961 67.946585,44.6 67.546585,43.5 67.446585,43.3 67.545805,43.09961 67.745805,43.09961 67.795805,43.07461 67.845415,43.06211 67.892295,43.060547 Z M 19.745805,43.59961 C 15.945805,43.59961 12.845415,46.7 12.845415,50.5 12.845415,54.3 15.945805,57.398438 19.745805,57.398438 23.545805,57.398438 26.646196,54.3 26.646196,50.5 26.646196,46.7 23.545805,43.59961 19.745805,43.59961 Z M 19.745805,44.5 C 23.045805,44.5 25.745805,47.2 25.745805,50.5 25.745805,53.8 23.045805,56.5 19.745805,56.5 16.445805,56.5 13.745805,53.8 13.745805,50.5 13.745805,47.2 16.445805,44.5 19.745805,44.5 Z M 19.745805,46.898438 A 3.7,3.7 0 0 0 16.046587,50.59961 3.7,3.7 0 0 0 19.745805,54.298828 3.7,3.7 0 0 0 23.446977,50.59961 3.7,3.7 0 0 0 19.745805,46.898438 Z"
     style="fill:#000000" />
</svg>
