<?xml version="1.0" encoding="UTF-8" standalone="no"?>
<!-- Created with Inkscape (http://www.inkscape.org/) -->

<svg
   width="68.696213"
   height="68.695999"
   viewBox="0 0 68.696213 68.695999"
   version="1.1"
   id="svg1"
   inkscape:version="1.4.2 (ebf0e940d0, 2025-05-08)"
   sodipodi:docname="firearrow.svg"
   xmlns:inkscape="http://www.inkscape.org/namespaces/inkscape"
   xmlns:sodipodi="http://sodipodi.sourceforge.net/DTD/sodipodi-0.dtd"
   xmlns="http://www.w3.org/2000/svg"
   xmlns:svg="http://www.w3.org/2000/svg">
  <sodipodi:namedview
     id="namedview1"
     pagecolor="#ffffff"
     bordercolor="#000000"
     borderopacity="0.25"
     inkscape:showpageshadow="2"
     inkscape:pageopacity="0.0"
     inkscape:pagecheckerboard="0"
     inkscape:deskcolor="#d1d1d1"
     inkscape:document-units="px"
     inkscape:zoom="9.6083333"
     inkscape:cx="7.07719"
     inkscape:cy="63.018214"
     inkscape:window-width="2256"
     inkscape:window-height="1427"
     inkscape:window-x="0"
     inkscape:window-y="0"
     inkscape:window-maximized="1"
     inkscape:current-layer="svg1" />
  <defs
     id="defs1" />
  <path
     d="M 68.003,0.90925779 C 68.014,0.92125779 68.025,0.93225779 68.036,0.94325779 68.047,0.95925779 68.059,0.97325779 68.069,0.98725779 68.08,0.99925779 68.092,1.0122577 68.103,1.0242577 68.114,1.0402577 68.126,1.0572577 68.138,1.0732577 L 68.167,1.1082577 C 68.173,1.1182577 68.18,1.1272577 68.186,1.1372577 68.251,1.2232577 68.301,1.2992577 68.38,1.4472577 68.571,1.8072577 68.679,2.2102577 68.695,2.6182577 68.699,2.7192577 68.692,2.8212577 68.69,2.9232577 L 67.672,16.736258 C 67.658,16.837258 67.651,16.939258 67.632,17.039258 67.5,17.741258 67.08,18.383258 66.492,18.785258 65.903,19.187258 65.155,19.345258 64.451,19.213258 63.651,19.063258 62.931,18.535258 62.547,17.812258 62.404,17.541258 62.307,17.247258 62.261,16.945258 62.22,16.676258 62.232,16.606258 62.237,16.335258 L 62.717,9.8322577 37.489004,35.059258 39.300004,47.409258 C 39.309004,47.510258 39.324004,47.611258 39.327004,47.713258 39.351004,48.427258 39.081004,49.145258 38.594004,49.665258 38.107004,50.186258 37.411004,50.503258 36.695004,50.527258 35.579004,50.564258 34.476004,49.852258 34.064004,48.789258 33.966004,48.535258 33.963004,48.465258 33.909004,48.199258 L 32.686004,39.862258 28.406004,44.143258 30.216004,56.492258 C 30.226004,56.594258 30.240004,56.695258 30.244004,56.797258 30.268004,57.511258 29.997004,58.228258 29.511004,58.749258 29.024004,59.270258 28.327004,59.587258 27.612004,59.611258 26.495004,59.648258 25.393004,58.936258 24.981004,57.873258 24.882004,57.619258 24.879004,57.549258 24.825004,57.283258 L 23.602004,48.946258 19.322004,53.227258 21.133004,65.576258 C 21.142004,65.678258 21.157004,65.779258 21.160004,65.880258 21.184004,66.595258 20.914004,67.312258 20.427004,67.833258 19.940004,68.353258 19.243004,68.671258 18.528004,68.694258 17.412004,68.732258 16.309004,68.019258 15.897004,66.957258 15.798004,66.703258 15.796004,66.632258 15.741004,66.367258 L 14.519004,58.030258 8.1100032,64.439258 C 7.9070032,64.620258 7.8630032,64.675258 7.6330032,64.819258 6.9420032,65.254258 6.0530032,65.353258 5.2830032,65.084258 4.6100032,64.849258 4.0390032,64.340258 3.7280032,63.695258 3.2880032,62.780258 3.4100032,61.619258 4.0530032,60.814258 4.1160032,60.734258 4.1890032,60.662258 4.2560032,60.586258 L 10.666004,54.177258 2.3290032,52.954258 C 2.0630032,52.900258 1.9930032,52.897258 1.7390032,52.799258 0.79100323,52.431258 0.08900323,51.500258 0.00800323,50.473258 -0.05599677,49.659258 0.26700323,48.826258 0.86300323,48.269258 1.3830032,47.782258 2.1000032,47.511258 2.8150032,47.535258 2.9170032,47.539258 3.0180032,47.554258 3.1190032,47.563258 L 15.469004,49.374258 19.749004,45.093258 11.412004,43.870258 C 11.147004,43.816258 11.076004,43.813258 10.822004,43.715258 10.062004,43.420258 9.4510032,42.766258 9.2070032,41.988258 8.9940032,41.308258 9.0620032,40.545258 9.3940032,39.911258 9.8650032,39.011258 10.869004,38.417258 11.899004,38.452258 12.000004,38.455258 12.101004,38.470258 12.203004,38.479258 L 24.552004,40.290258 28.833004,36.009258 20.496004,34.787258 C 20.230004,34.732258 20.160004,34.730258 19.906004,34.631258 18.958004,34.263258 18.256004,33.333258 18.175004,32.305258 18.111004,31.492258 18.435004,30.658258 19.030004,30.101258 19.551004,29.614258 20.267004,29.344258 20.982004,29.368258 21.084004,29.371258 21.185004,29.386258 21.287004,29.395258 L 33.636004,31.206258 58.864,5.9792577 52.36,6.4582577 C 52.258,6.4602577 52.156,6.4672577 52.055,6.4632577 51.341,6.4362577 50.645,6.1152577 50.16,5.5922577 49.47,4.8462577 49.247,3.7012577 49.625,2.7422577 49.924,1.9842577 50.58,1.3762577 51.36,1.1362577 51.62,1.0572577 51.691,1.0592577 51.96,1.0242577 L 65.772,0.00625779 C 66.043,0.00125779 66.113,-0.01174221 66.382,0.02925779 66.606,0.06325779 66.825,0.12625779 67.033,0.21425779 67.074,0.23125779 67.115,0.24925779 67.155,0.26825779 67.255,0.31625779 67.352,0.37125779 67.445,0.43125779 H 67.446 L 67.448,0.43225779 67.454,0.43725779 67.46,0.44025779 67.462,0.44225779 67.465,0.44325779 67.47,0.44725779 67.475,0.45025779 67.478,0.45225779 67.482,0.45525779 67.486,0.45825779 67.491,0.46025779 67.494,0.46325779 67.498,0.46525779 67.502,0.46825779 67.506,0.47125779 67.51,0.47425779 67.515,0.47725779 67.518,0.47925779 67.52,0.48025779 C 67.736,0.62925779 67.78,0.68725779 67.972,0.87225779 Z"
     id="path1"
     style="fill:#000000" />
</svg>
