<?xml version="1.0" encoding="UTF-8" standalone="no"?>
<!-- Created with Inkscape (http://www.inkscape.org/) -->

<svg
   width="82"
   height="82"
   viewBox="0 0 82 82"
   version="1.1"
   id="svg1"
   inkscape:version="1.4.2 (ebf0e940d0, 2025-05-08)"
   sodipodi:docname="firestriker.svg"
   xmlns:inkscape="http://www.inkscape.org/namespaces/inkscape"
   xmlns:sodipodi="http://sodipodi.sourceforge.net/DTD/sodipodi-0.dtd"
   xmlns="http://www.w3.org/2000/svg"
   xmlns:svg="http://www.w3.org/2000/svg">
  <sodipodi:namedview
     id="namedview1"
     pagecolor="#ffffff"
     bordercolor="#000000"
     borderopacity="0.25"
     inkscape:showpageshadow="2"
     inkscape:pageopacity="0.0"
     inkscape:pagecheckerboard="0"
     inkscape:deskcolor="#d1d1d1"
     inkscape:document-units="px"
     inkscape:zoom="9.6083333"
     inkscape:cx="41.006071"
     inkscape:cy="40.954033"
     inkscape:window-width="2256"
     inkscape:window-height="1427"
     inkscape:window-x="0"
     inkscape:window-y="0"
     inkscape:window-maximized="1"
     inkscape:current-layer="svg1" />
  <defs
     id="defs1" />
  <path
     d="M 82 23.5636 C 82 23.8636 81.9 23.9636 81.8 23.9636 L 74.3 27.5636 C 73 28.1636 72.1 29.4636 71.9 30.8636 C 71.7 32.2636 72.2 33.7636 73.2 34.7636 L 79.3 40.4636 C 79.4 40.5636 79.5 40.6636 79.4 40.8636 C 79.3 41.1636 79.1 41.0636 79 41.0636 L 70.8 39.5636 C 69.4 39.2636 67.9 39.7636 66.9 40.7636 C 65.9 41.7636 65.4 43.2636 65.7 44.6636 L 67.2 52.8636 C 67.2 52.9636 67.3 53.1636 67 53.2636 C 66.7 53.3636 66.6 53.2636 66.5 53.1636 L 60.8 47.1636 C 59.8 46.1636 58.3 45.6636 56.9 45.8636 C 55.5 46.0636 54.3 46.9636 53.6 48.2636 L 50 55.8636 C 50 55.9636 49.9 56.1636 49.6 56.0636 C 49.3 56.0636 49.3 55.8636 49.3 55.7636 L 48.2 47.4636 C 48.1 46.4636 47.6 45.6636 47 44.9636 L 48.4 43.5636 L 48.4 43.5636 L 55.5 36.4636 L 59 32.9636 C 60.3 31.6636 61 29.8636 61 27.9636 C 61 26.0636 60.3 24.3636 59 22.9636 C 57.7 21.6636 55.9 20.9636 54 20.9636 C 52.1 20.9636 50.4 21.6636 49 22.9636 L 45.5 26.4636 L 45.5 26.4636 L 37 35.0636 C 36.3 34.4636 35.5 33.9636 34.5 33.8636 L 26.3 32.7636 C 26.2 32.7636 26 32.7636 26 32.4636 C 26 32.1636 26.1 32.0636 26.2 32.0636 L 33.7 28.4636 C 35 27.8636 35.9 26.6636 36.2 25.1636 C 36.4 23.7636 35.9 22.2636 34.9 21.2636 L 28.9 15.5636 C 28.8 15.4636 28.7 15.3636 28.8 15.0636 C 28.8 14.9636 29 14.9636 29.1 14.9636 L 37.3 16.4636 C 38.7 16.7636 40.2 16.2636 41.2 15.2636 C 42.2 14.2636 42.7 12.7636 42.4 11.3636 L 40.9 3.16363 C 40.9 3.06363 40.9 2.86363 41.1 2.76363 C 41.4 2.66363 41.5 2.76363 41.6 2.86363 L 47.3 8.86363 C 48.3 9.86363 49.7 10.3636 51.2 10.1636 C 52.7 9.96363 53.9 8.96363 54.5 7.66363 L 58 0.263629 C 58 0.163629 58.1 -0.036371 58.4 0.063629 C 58.7 0.063629 58.7 0.263629 58.7 0.363629 L 59.8 8.56363 C 60 9.96363 60.9 11.2636 62.2 11.8636 C 63.5 12.5636 65 12.4636 66.3 11.7636 L 73.6 7.76363 C 73.7 7.76363 73.9 7.66363 74.1 7.86363 C 74.3 8.06363 74.2 8.26363 74.2 8.36363 L 70.2 15.6636 C 69.5 16.9636 69.5 18.4636 70.1 19.7636 C 70.8 21.0636 72 21.9636 73.4 22.1636 L 81.6 23.2636 C 81.7 23.2636 81.9 23.2636 82 23.5636 Z M 56.1 30.1636 C 56.7 29.5636 57 28.8636 57 28.0636 C 57 27.2636 56.7 26.5636 56.1 25.9636 C 55.5 25.3636 54.8 25.0636 54 25.0636 C 53.2 25.0636 52.5 25.3636 51.9 25.9636 L 49.8 28.0636 L 54 32.2636 Z M 46.9 30.8636 L 42.7 35.0636 L 46.9 39.2636 L 51.1 35.0636 Z M 0.9 76.8636 C 0.3 77.3636 0 78.1636 0 78.9636 C 0 79.7636 0.3 80.5636 0.9 81.0636 C 1.5 81.6636 2.2 81.9636 3 81.9636 C 3.8 81.9636 4.6 81.6636 5.1 81.0636 L 44 42.1636 L 39.8 37.9636 Z"
     id="path1"
     style="fill:#000000" />
</svg>
