<?xml version="1.0" encoding="UTF-8" standalone="no"?>
<!-- Created with Inkscape (http://www.inkscape.org/) -->

<svg
   width="87.023003"
   height="87.023003"
   viewBox="0 0 87.023003 87.023002"
   version="1.1"
   id="svg1"
   inkscape:version="1.4.2 (ebf0e940d0, 2025-05-08)"
   sodipodi:docname="fisherman.svg"
   xmlns:inkscape="http://www.inkscape.org/namespaces/inkscape"
   xmlns:sodipodi="http://sodipodi.sourceforge.net/DTD/sodipodi-0.dtd"
   xmlns="http://www.w3.org/2000/svg"
   xmlns:svg="http://www.w3.org/2000/svg">
  <sodipodi:namedview
     id="namedview1"
     pagecolor="#ffffff"
     bordercolor="#000000"
     borderopacity="0.25"
     inkscape:showpageshadow="2"
     inkscape:pageopacity="0.0"
     inkscape:pagecheckerboard="0"
     inkscape:deskcolor="#d1d1d1"
     inkscape:document-units="px"
     inkscape:zoom="4.8041667"
     inkscape:cx="43.712056"
     inkscape:cy="86.071119"
     inkscape:window-width="2256"
     inkscape:window-height="1427"
     inkscape:window-x="0"
     inkscape:window-y="0"
     inkscape:window-maximized="1"
     inkscape:current-layer="svg1" />
  <defs
     id="defs1" />
  <path
     d="M 35.798268,86.69056 C 34.485768,86.57337 33.169368,86.42494 31.856868,86.24915 L 31.442808,82.14755 C 31.579528,82.151456 31.712338,82.170987 31.849058,82.170987 33.099058,82.170987 34.255258,81.983487 35.540458,81.764737 L 35.798268,86.694437 Z"
     id="path1"
     style="fill:#000000" />
  <path
     d="M 42.243268,87.02256 C 40.848768,87.003028 39.458068,86.956153 38.063568,86.87022 L 37.778408,81.40142 C 39.032308,81.21783 40.458108,81.06158 42.247208,81.0147 V 87.0225 Z"
     id="path2"
     style="fill:#000000" />
  <path
     d="M 44.493268,81.01556 C 46.278468,81.062435 47.708068,81.21868 48.962068,81.40228 L 48.676908,86.87498 C 47.282408,86.960918 45.891708,87.00779 44.497208,87.02342 V 81.01562 Z"
     id="path3"
     style="fill:#000000" />
  <path
     d="M 54.888268,82.17156 C 55.024988,82.17156 55.157798,82.152029 55.294518,82.148123 L 54.880458,86.257523 C 53.567958,86.433303 52.251558,86.577833 50.939058,86.695023 L 51.196868,81.761423 C 52.482068,81.984083 53.638268,82.167673 54.888268,82.167673 Z"
     id="path4"
     style="fill:#000000" />
  <path
     d="M 62.841268,79.61656 C 62.790487,81.28846 62.602988,83.00716 62.224078,84.54236 62.149859,84.84705 61.895958,85.07752 61.591268,85.14002 60.118568,85.44861 58.645968,85.71814 57.173268,85.95252 L 57.583428,81.86662 C 58.505308,81.65568 59.466228,81.33537 60.528728,80.87834 61.040448,80.6635 61.899828,80.29631 62.837328,79.61664 Z"
     id="path5"
     style="fill:#000000" />
  <path
     d="M 13.638268,80.34356 13.450768,82.59746 C 13.399987,83.17949 12.958578,83.66776 12.376568,83.73416 9.810168,84.0115 6.993768,83.699004 4.587468,82.67946 4.0796581,82.46462 3.7984081,81.91383 3.8765281,81.36696 L 4.2007481,79.05836 C 6.903848,79.93727 9.606948,80.39816 12.251548,80.39816 12.716388,80.39816 13.177328,80.370816 13.642148,80.343472 Z"
     id="path6"
     style="fill:#000000" />
  <path
     d="M 79.837268,79.05056 79.591178,81.98416 C 79.536491,82.6365 78.985708,83.14436 78.329478,83.12866 75.477878,83.070066 72.821678,82.76928 70.391978,81.87086 69.845098,81.66774 69.532598,81.0857 69.622448,80.50756 L 70.024788,77.97636 C 72.657588,78.8787 74.989588,79.33186 77.122488,79.33186 78.059988,79.33186 78.958388,79.21467 79.833388,79.0428 Z"
     id="path7"
     style="fill:#000000" />
  <path
     d="M 29.563268,85.93356 C 28.129668,85.70309 26.696068,85.44137 25.262468,85.13668 24.961688,85.07418 24.715588,84.85152 24.637468,84.55856 24.258558,83.13276 24.000748,81.41796 23.914808,79.62496 24.864028,80.30855 25.750708,80.68356 26.313208,80.92186 27.321008,81.35155 28.250708,81.66405 29.153008,81.86717 Z"
     id="path8"
     style="fill:#000000" />
  <path
     d="M 56.852268,4.35156 C 56.867893,4.277342 56.867893,4.20312 56.867893,4.125 56.867893,1.8438 50.820993,0 43.367893,0 35.914793,0 29.867893,1.8438 29.867893,4.125 29.867893,4.199219 29.867893,4.27344 29.883518,4.35156 30.110078,6.12106 31.367918,7.32036 31.367918,8.58206 31.367918,10.32036 29.883518,11.77736 29.867918,13.12896 29.852293,15.19926 35.914818,16.87896 43.367918,16.87896 50.821018,16.87896 56.883918,15.19926 56.867918,13.12896 56.852293,11.77736 55.367918,10.32426 55.367918,8.58206 55.367918,7.32036 56.629618,6.12116 56.852318,4.35156 Z M 38.211268,12.96096 C 38.008148,13.33596 37.621428,13.5508 37.222988,13.5508 37.039398,13.5508 36.859708,13.507831 36.687828,13.41408 36.140958,13.11721 35.937828,12.43361 36.234708,11.88678 36.535488,11.33209 36.605798,10.71098 36.445648,9.98838 36.312838,9.38291 36.695648,8.78138 37.301118,8.64858 37.910498,8.51186 38.508118,8.89858 38.640918,9.50405 38.918258,10.76185 38.773728,11.92205 38.211228,12.96105 Z M 44.492468,12.75002 C 44.492468,13.37111 43.988558,13.87502 43.367468,13.87502 42.746378,13.87502 42.242468,13.37111 42.242468,12.75002 V 10.50002 C 42.242468,9.87893 42.746378,9.37502 43.367468,9.37502 43.988558,9.37502 44.492468,9.87893 44.492468,10.50002 Z M 50.051068,13.41018 C 49.879188,13.50393 49.695598,13.5469 49.515908,13.5469 49.117468,13.5469 48.730748,13.33206 48.527628,12.95706 47.965128,11.92186 47.820598,10.75786 48.097938,9.50006 48.230748,8.89459 48.828408,8.50787 49.437738,8.64459 50.043208,8.7774 50.426018,9.37897 50.293208,9.98439 50.133048,10.70705 50.203365,11.32819 50.504148,11.88279 50.801028,12.42967 50.597898,13.11329 50.051028,13.41009 Z M 43.367468,5.99998 C 37.726868,5.99998 33.961268,4.93358 32.551468,4.12498 33.961668,3.31639 37.727268,2.24998 43.367468,2.24998 49.007668,2.24998 52.773668,3.31638 54.183468,4.12498 52.773268,4.93357 49.007668,5.99998 43.367468,5.99998 Z"
     id="path9"
     style="fill:#000000" />
  <path
     d="M 80.634268,32.94456 C 80.103018,30.22576 78.778768,26.94846 77.103068,22.42156 76.493688,20.77706 75.380368,18.98796 72.173368,16.74966 67.583568,13.54656 62.317868,12.86296 59.079368,12.71846 59.091086,12.84737 59.11843,12.96455 59.11843,13.09737 59.126242,13.76143 58.93484,14.74967 57.98563,15.70677 55.49343,18.22237 48.80203,19.12087 43.36863,19.12087 37.93523,19.12087 31.23963,18.22634 28.75163,15.70677 27.80632,14.74974 27.61493,13.76147 27.61883,13.09737 27.61883,12.98018 27.646174,12.8669 27.653986,12.75362 24.458686,12.97628 19.294586,13.79662 14.563986,16.74972 9.853086,19.68332 6.603086,29.99972 6.310086,32.75772 5.712426,38.42962 4.3100861,48.28072 4.368686,51.49572 4.446811,55.91372 4.524936,69.81172 3.4077461,74.82372 3.2241561,75.64403 3.6421261,76.50342 4.438946,76.77682 7.614746,77.87452 10.794446,78.33152 13.974146,78.07762 14.673366,78.022933 15.263246,77.51121 15.427246,76.82762 16.786646,71.19872 16.458446,58.48362 16.388186,54.03862 16.329593,50.44092 19.067886,42.03062 20.950686,36.78462 22.454586,42.14402 22.528786,46.58152 22.817886,49.84362 23.763196,60.57062 23.989786,61.98062 23.403826,66.34362 23.103046,68.54672 21.423326,72.52332 23.165546,75.49202 24.485846,77.78892 26.392146,78.50762 27.200746,78.85142 32.962446,81.31232 34.442946,78.74595 43.372746,78.74595 52.298546,78.74595 53.782746,81.31235 59.544746,78.85142 60.353336,78.50767 62.259546,77.78502 63.579946,75.49202 65.318246,72.52322 63.638539,68.54672 63.341666,66.34362 62.755726,61.98032 62.982286,60.57022 63.927606,49.84362 64.220576,46.53892 64.290886,42.02722 65.857306,36.57062 67.974506,41.69562 71.267506,49.99662 71.208906,53.63262 71.138593,58.05842 69.548706,68.54662 69.232306,74.05862 69.189337,74.80471 69.654186,75.46882 70.361206,75.71882 73.447106,76.82042 76.974506,77.60942 80.290906,76.66804 80.927626,76.48835 81.412006,75.98054 81.517506,75.32424 82.369066,69.93364 83.658106,56.01924 83.658106,51.39024 83.658106,46.27694 81.927606,39.49924 80.646406,32.94924 Z M 31.954268,73.96456 C 31.946455,74.58175 31.442548,75.07786 30.829268,75.07786 H 30.817549 C 30.196459,75.070047 29.700349,74.56224 29.704249,73.94116 30.008939,47.87916 27.688649,30.12116 22.618349,19.66016 22.348819,19.10157 22.583193,18.42966 23.137879,18.15626 23.696469,17.88673 24.372279,18.117198 24.641779,18.67579 29.872279,29.46079 32.262879,47.54679 31.954279,73.96479 Z M 49.860268,67.01146 C 47.700068,68.05836 45.797768,69.48416 44.204068,71.25366 44.004848,71.47632 43.723598,71.60913 43.422818,71.62475 H 43.36813 C 43.08688,71.62475 42.81735,71.51928 42.61032,71.33178 40.74702,69.63648 38.79002,68.16768 36.79002,66.96458 36.25877,66.64427 36.0869,65.95288 36.4033,65.42158 36.72361,64.88642 37.415,64.71846 37.9463,65.03486 39.7783,66.13646 41.5791,67.44506 43.3018,68.93716 44.9229,67.32386 46.794,65.99576 48.876,64.98796 49.43459,64.71843 50.1104,64.952804 50.3799,65.50749 50.64943,66.06608 50.415056,66.73799 49.86037,67.01139 Z M 49.860268,56.51146 C 47.700068,57.55836 45.797768,58.98416 44.204068,60.75366 44.004848,60.97632 43.723598,61.10913 43.422818,61.12475 H 43.36813 C 43.08688,61.12475 42.81735,61.01928 42.61032,60.83178 40.74702,59.13648 38.79002,57.66768 36.79002,56.46458 36.25877,56.14427 36.0869,55.45288 36.4033,54.92158 36.72361,54.38642 37.415,54.21846 37.9463,54.53486 39.7783,55.63646 41.5791,56.94506 43.3018,58.43716 44.9229,56.82386 46.794,55.49576 48.876,54.48796 49.43459,54.21843 50.1104,54.452804 50.3799,55.00749 50.64943,55.56608 50.415056,56.23799 49.86037,56.51139 Z M 49.860268,46.01146 C 47.700068,47.05836 45.797768,48.48416 44.204068,50.25366 44.004848,50.47632 43.723598,50.60913 43.422818,50.62475 H 43.36813 C 43.08688,50.62475 42.81735,50.51928 42.61032,50.33178 40.74702,48.63648 38.79002,47.16768 36.79002,45.96458 36.25877,45.64427 36.0869,44.95288 36.4033,44.42158 36.72361,43.88642 37.415,43.71846 37.9463,44.03486 39.7783,45.13646 41.5791,46.44506 43.3018,47.93716 44.9229,46.32386 46.794,44.99576 48.876,43.98796 49.43459,43.71843 50.1104,43.952804 50.3799,44.50749 50.64943,45.06608 50.415056,45.73799 49.86037,46.01139 Z M 49.860268,35.51146 C 47.700068,36.55836 45.797768,37.98416 44.204068,39.75366 44.004848,39.97632 43.723598,40.10913 43.422818,40.12475 H 43.36813 C 43.08688,40.12475 42.81735,40.01928 42.61032,39.83178 40.74702,38.13648 38.79002,36.66768 36.79002,35.46458 36.25877,35.14427 36.0869,34.45288 36.4033,33.92158 36.72361,33.38642 37.415,33.21846 37.9463,33.53486 39.7783,34.63646 41.5791,35.94506 43.3018,37.43716 44.9229,35.82386 46.794,34.49576 48.876,33.48796 49.43459,33.21843 50.1104,33.452804 50.3799,34.00749 50.64943,34.56608 50.415056,35.23799 49.86037,35.51139 Z M 49.860268,25.01146 C 47.700068,26.05836 45.797768,27.48416 44.204068,29.25366 44.004848,29.47632 43.723598,29.60913 43.422818,29.62475 H 43.36813 C 43.08688,29.62475 42.81735,29.51928 42.61032,29.33178 40.74702,27.63648 38.79002,26.16768 36.79002,24.96458 36.25877,24.64427 36.0869,23.95288 36.4033,23.42158 36.72361,22.88642 37.415,22.71846 37.9463,23.03486 39.7783,24.13646 41.5791,25.44506 43.3018,26.93716 44.9229,25.32386 46.794,23.99576 48.876,22.98796 49.43459,22.71843 50.1104,22.952804 50.3799,23.50749 50.64943,24.06608 50.415056,24.73799 49.86037,25.01139 Z M 64.122268,19.65206 C 59.048068,30.11706 56.731668,47.87106 57.036368,73.93306 57.04418,74.55415 56.544178,75.06586 55.923068,75.06976 H 55.911349 C 55.298069,75.06976 54.794149,74.57367 54.786349,73.95646 54.477759,47.53446 56.872249,29.44846 62.098849,18.66746 62.368379,18.10887 63.044159,17.87449 63.602749,18.14793 64.161339,18.41746 64.395719,19.09324 64.122279,19.65183 Z"
     id="path10"
     style="fill:#000000" />
</svg>
