<?xml version="1.0" encoding="UTF-8" standalone="no"?>
<!-- Created with Inkscape (http://www.inkscape.org/) -->

<svg
   width="21.209"
   height="21.209"
   viewBox="0 0 21.208999 21.209"
   version="1.1"
   id="svg1"
   inkscape:version="1.4.2 (ebf0e940d0, 2025-05-08)"
   sodipodi:docname="fish.svg"
   xmlns:inkscape="http://www.inkscape.org/namespaces/inkscape"
   xmlns:sodipodi="http://sodipodi.sourceforge.net/DTD/sodipodi-0.dtd"
   xmlns="http://www.w3.org/2000/svg"
   xmlns:svg="http://www.w3.org/2000/svg">
  <sodipodi:namedview
     id="namedview1"
     pagecolor="#ffffff"
     bordercolor="#000000"
     borderopacity="0.25"
     inkscape:showpageshadow="2"
     inkscape:pageopacity="0.0"
     inkscape:pagecheckerboard="0"
     inkscape:deskcolor="#d1d1d1"
     inkscape:document-units="px"
     inkscape:zoom="11.620915"
     inkscape:cx="16.607986"
     inkscape:cy="17.941788"
     inkscape:window-width="2256"
     inkscape:window-height="1427"
     inkscape:window-x="0"
     inkscape:window-y="0"
     inkscape:window-maximized="1"
     inkscape:current-layer="svg1" />
  <defs
     id="defs1" />
  <path
     d="M 12.8186 4.12258 C 12.4052 4.08124 11.5494 4.49464 11.012 4.81196 C 10.4735 5.12925 9.27357 6.19171 9.27357 6.19171 C 9.27357 6.19171 8.83225 6.20514 8.28035 6.21858 C 7.72846 6.23201 4.79024 6.3426 2.74898 7.22627 C 0.707771 8.10889 0.003927 8.79826 0.045202 9.01943 C 0.086543 9.24061 0.555768 9.22614 1.27303 9.55685 C 1.99029 9.88757 2.3076 10.6193 2.3076 10.6193 C 2.3076 10.6193 1.90763 10.578 1.56243 10.5087 C 1.21723 10.4395 0.058643 9.94339 0.003874 10.3299 C -0.050903 10.7165 0.473086 11.2818 2.34896 12.1644 C 4.2248 13.0471 5.50755 13.2269 5.50755 13.2269 C 5.79695 13.9163 6.39017 14.3162 6.90074 14.5643 C 7.4113 14.8123 7.92187 14.8681 7.99111 14.7162 C 8.06036 14.5643 7.67382 13.9028 7.43922 13.2817 C 7.20461 12.6605 6.55659 11.9567 6.55659 11.9567 C 6.55659 11.9567 6.88732 12.0673 7.32968 12.4394 C 7.771 12.8114 7.94981 13.4326 7.94981 13.4326 C 7.94981 13.4326 8.37769 13.5018 9.13631 13.5431 C 9.89492 13.5845 10.8055 13.4326 10.8055 13.4326 C 10.8055 13.4326 11.068 13.9152 11.4814 14.3979 C 11.8948 14.8805 12.4467 15.2257 12.64 15.1565 C 12.8332 15.0872 12.7919 14.9084 12.9717 14.2046 C 13.1516 13.5008 12.9025 13.2941 12.9025 13.2941 C 12.9025 13.2941 13.1784 13.2806 13.5102 13.2393 C 13.8409 13.1979 14.1717 13.1432 14.1717 13.1432 C 14.1717 13.1432 14.9024 13.9565 15.1101 14.1364 C 15.3168 14.3162 15.5659 14.1219 15.7726 13.8883 C 15.9793 13.6537 15.3861 13.1028 15.3861 13.1028 C 15.3861 13.1028 16.5726 13.0749 16.9178 13.2951 C 17.263 13.5163 17.2764 14.0403 17.4697 15.1306 C 17.6629 16.22 18.0764 17.1171 18.311 17.0892 C 18.5456 17.0612 18.6841 16.3305 18.8773 15.7507 C 19.0706 15.1709 19.3734 13.5297 19.3734 13.5297 C 19.3734 13.5297 19.9946 12.7163 20.3801 12.2057 C 20.7666 11.6952 21.3454 10.8818 21.18 10.702 C 21.0147 10.5221 20.0494 10.674 19.5522 10.826 C 19.0561 10.9779 18.3657 11.3365 18.3657 11.3365 C 18.3657 11.3365 17.9792 10.6741 17.8283 10.4818 C 17.6764 10.2885 17.2351 9.90199 17.2351 9.90199 C 17.2351 9.90199 17.6216 9.75006 17.8004 9.61259 C 17.9802 9.47513 17.787 9.18471 17.4004 9.03382 C 17.0139 8.88189 16.2687 8.90979 16.2687 8.90979 C 16.2687 8.90979 15.7582 8.42611 15.0688 8.0127 C 14.3794 7.59928 13.317 7.1156 13.317 7.1156 L 13.5102 7.03292 C 13.7025 6.95023 14.1293 6.64639 14.088 6.57815 C 14.0466 6.5089 13.5361 5.39165 13.2746 4.89453 C 13.0121 4.39843 13.2332 4.16383 12.8188 4.12247 Z M 4.96997 7.79156 C 6.75281 8.97081 6.14612 11.8275 4.19689 12.1365 C 5.7389 11.196 5.84537 9.14543 4.96997 7.79156 Z M 3.22536 8.24633 L 3.22433 8.24736 C 3.35042 8.24736 3.47237 8.29697 3.56125 8.38585 C 3.65013 8.47577 3.70077 8.5967 3.70077 8.72278 C 3.70077 8.84886 3.65013 8.96979 3.56125 9.0597 C 3.47236 9.14858 3.35041 9.19922 3.22433 9.19922 C 3.09825 9.19922 2.97732 9.14858 2.88844 9.0597 C 2.79852 8.96978 2.74891 8.84885 2.74891 8.72278 C 2.74891 8.59669 2.79852 8.47576 2.88844 8.38585 C 2.97732 8.29697 3.09825 8.24736 3.22433 8.24736 Z"
     id="path1"
     style="fill:#000000;stroke-width:0.264583" />
</svg>
