<?xml version="1.0" encoding="UTF-8" standalone="no"?>
<!-- Created with Inkscape (http://www.inkscape.org/) -->

<svg
   width="81.046997"
   height="81.046997"
   viewBox="0 0 81.046997 81.046997"
   version="1.1"
   id="svg1"
   inkscape:version="1.4.2 (ebf0e940d0, 2025-05-08)"
   sodipodi:docname="flightjacket.svg"
   xmlns:inkscape="http://www.inkscape.org/namespaces/inkscape"
   xmlns:sodipodi="http://sodipodi.sourceforge.net/DTD/sodipodi-0.dtd"
   xmlns="http://www.w3.org/2000/svg"
   xmlns:svg="http://www.w3.org/2000/svg">
  <sodipodi:namedview
     id="namedview1"
     pagecolor="#ffffff"
     bordercolor="#000000"
     borderopacity="0.25"
     inkscape:showpageshadow="2"
     inkscape:pageopacity="0.0"
     inkscape:pagecheckerboard="0"
     inkscape:deskcolor="#d1d1d1"
     inkscape:document-units="px"
     inkscape:zoom="4.8041667"
     inkscape:cx="35.906331"
     inkscape:cy="119.16739"
     inkscape:window-width="2256"
     inkscape:window-height="1427"
     inkscape:window-x="0"
     inkscape:window-y="0"
     inkscape:window-maximized="1"
     inkscape:current-layer="svg1" />
  <defs
     id="defs1" />
  <path
     id="path1"
     d="M 40.578184,3.8828735 C 29.438084,3.8828735 23.734559,6.5390485 22.062559,12.429749 20.734459,17.007849 21.968809,21.304499 24.625059,25.648499 L 24.578184,25.664124 24.580137,25.666077 C 24.583067,25.669495 24.588926,25.678284 24.591856,25.685608 24.592153,25.686551 24.593595,25.690506 24.593809,25.691468 V 25.693421 25.695374 C 25.734409,27.492274 27.062559,29.148474 28.437559,30.570374 L 33.515684,26.335999 C 31.343784,24.101599 26.562559,15.913624 30.250059,12.226624 32.171959,10.226624 35.718734,10.085999 40.546934,10.085999 45.375134,10.085999 48.938034,10.226644 50.859434,12.226624 54.296934,16.351624 50.484409,22.820999 47.593809,26.335999 L 52.656309,30.570374 C 56.750109,26.710974 61.265684,18.398374 59.140684,12.445374 57.453184,6.5234735 51.718284,3.8828735 40.578184,3.8828735 Z M 65.437559,11.648499 60.828184,12.804749 C 61.843784,17.304749 60.578134,21.976274 58.171934,25.945374 L 58.187559,25.976624 62.140684,29.351624 63.296934,26.320374 C 63.421934,26.023494 63.718819,25.804749 64.062559,25.804749 L 66.937559,25.882874 65.578184,21.695374 C 65.578184,21.695374 65.546934,21.617249 65.562559,21.570374 65.468809,21.257874 65.671939,20.945379 65.906309,20.773499 L 69.000059,18.289124 65.906309,16.898499 C 65.640689,16.773499 65.437559,16.476624 65.437559,16.164124 Z M 15.640684,11.679749 V 16.195374 C 15.640684,16.507874 15.468804,16.804749 15.171934,16.929749 L 12.093809,18.320374 15.171934,20.804749 15.250059,20.867249 V 20.851624 C 15.500059,21.054744 15.609444,21.398499 15.515684,21.710999 L 14.156309,25.898499 C 14.171934,25.898499 17.015709,25.820374 17.031309,25.820374 17.343809,25.820374 17.656309,26.039129 17.781309,26.335999 L 18.937559,29.367249 C 18.953184,29.351624 22.890609,25.992224 22.906309,25.976624 20.515709,22.086024 19.187484,17.336399 20.265684,12.835999 Z M 40.531309,11.726624 C 36.234509,11.726624 32.875084,11.836029 31.390684,13.367249 28.203184,16.773449 34.203184,25.133374 35.140684,25.820374 36.203184,26.648494 39.515709,29.164149 40.531309,29.929749 L 41.937559,28.867249 H 41.939512 L 41.941465,28.865296 H 41.943418 41.945371 L 41.947325,28.863343 41.949278,28.86139 41.951231,28.859437 C 41.951528,28.858792 41.95297,28.854325 41.953184,28.853577 V 28.851624 L 45.859434,25.898499 45.937559,25.820374 H 45.953184 C 45.953184,25.820374 45.953276,25.806091 45.95709,25.796937 L 45.959043,25.794983 45.960997,25.79303 V 25.791077 H 45.96295 L 45.964903,25.789124 H 45.966856 45.968809 C 48.437609,22.929724 52.374959,16.929849 49.687559,13.367249 48.218759,11.836049 44.828109,11.726624 40.531309,11.726624 Z M 12.796934,24.820374 C 3.0938335,37.445374 0.40605854,62.336124 5.8535156e-5,66.664124 L 12.015684,69.976624 C 14.406284,66.898524 16.109534,62.726674 16.421934,62.007874 V 38.320374 C 16.421934,37.882874 16.765679,37.523499 17.218809,37.523499 H 18.091856 L 18.031309,38.929749 V 39.148499 L 18.015684,43.335999 V 43.535218 55.226624 H 31.781309 C 32.234429,55.226624 32.578184,55.585999 32.578184,56.023499 V 60.242249 C 32.578184,60.695369 32.234439,61.039124 31.781309,61.039124 H 18.015684 C 18.015684,61.148504 18.031309,62.320274 18.000059,62.382874 V 77.132874 H 39.437559 V 31.101624 L 37.843809,29.882874 37.859434,29.898499 34.671934,27.476624 28.890684,32.273499 C 28.531304,32.570379 28.015709,32.476614 27.718809,32.132874 V 32.130921 32.128968 L 27.716856,32.127015 V 32.125061 32.123108 H 27.714903 L 27.71295,32.121155 V 32.119202 H 27.710997 L 27.709043,32.117249 H 27.70709 C 27.705826,32.11729 27.703613,32.117306 27.703184,32.117249 27.031304,31.507869 24.921959,29.195299 23.750059,27.335999 H 23.734434 L 19.093809,31.320374 C 18.890689,31.492254 18.640689,31.554754 18.375059,31.476624 18.140679,31.414124 17.921944,31.242249 17.828184,30.992249 L 16.468809,27.414124 13.046934,27.507874 C 11.578134,27.460999 12.578184,25.601674 12.796934,24.820374 Z M 68.265684,24.835999 C 68.531304,25.757899 69.453209,27.398494 68.031309,27.507874 L 64.593809,27.414124 63.234434,30.992249 C 63.140674,31.242249 62.937559,31.414124 62.687559,31.476624 62.437559,31.554754 62.156309,31.492254 61.968809,31.320374 L 57.328184,27.335999 C 56.343784,28.882799 54.234429,31.304749 53.343809,32.117249 H 53.341856 53.339903 53.33795 L 53.335997,32.119202 H 53.334043 L 53.33209,32.121155 V 32.123108 H 53.330137 V 32.125061 L 53.328184,32.127015 V 32.128968 32.130921 32.132874 C 53.031284,32.476624 52.500059,32.570374 52.156309,32.257874 L 46.390684,27.476624 C 45.343884,28.289124 42.640634,30.335999 41.609434,31.117249 V 77.164124 H 63.046934 V 61.070374 H 49.265684 C 48.812554,61.070374 48.468809,60.726619 48.468809,60.273499 V 56.054749 C 48.468809,55.617249 48.812564,55.257874 49.265684,55.257874 H 63.046934 V 44.775452 L 63.070371,44.771546 63.062559,41.773499 V 39.164124 H 63.054747 L 63.052793,38.773499 63.011778,37.554749 H 63.843809 C 64.281309,37.554749 64.640684,37.914124 64.640684,38.351624 V 62.039124 C 64.937484,62.757924 66.656309,66.929774 69.031309,70.007874 L 81.031309,66.695374 81.046939,66.664124 C 80.640934,62.336124 77.968784,37.460999 68.265684,24.835999 Z M 53.123106,39.412171 A 2.8100979,2.8240247 0 0 1 55.486387,40.709046 H 58.843809 V 43.615296 H 55.574278 A 2.8100979,2.8240247 0 0 1 53.123106,45.060608 2.8100979,2.8240247 0 0 1 50.669981,43.615296 H 47.517637 V 41.86139 41.627015 40.709046 H 50.757871 A 2.8100979,2.8240247 0 0 1 53.123106,39.412171 Z M 18.031309,56.851624 V 59.460999 H 26.296934 V 56.851624 Z M 27.890684,56.851624 V 59.460999 H 31.000059 V 56.851624 Z M 50.078184,56.851624 V 59.460999 H 53.187559 V 56.851624 Z M 54.781309,56.851624 V 59.460999 H 63.062559 V 56.851624 Z M 1.0000585,68.726624 0.50005854,71.914124 9.7813085,74.414124 10.281309,71.226624 Z M 80.078184,68.742249 70.796934,71.242249 71.296934,74.429749 80.578184,71.929749 Z"
     style="fill:#000000" />
  <path
     id="rect4"
     style="fill:#000000;stroke-width:2;stroke-linecap:round;stroke-linejoin:round;stroke-miterlimit:3.9;paint-order:stroke fill markers"
     d="M 53.115319,40.000392 52.711022,40.820704 C 52.676061,40.845704 52.650085,40.85547 52.625085,40.83047 L 52.23446,40.615626 52.470788,41.875392 C 52.445788,41.920314 52.409654,41.935547 52.349694,41.910548 L 51.814538,41.305079 C 51.744618,41.410159 51.694814,41.599997 51.599694,41.635157 51.504774,41.670118 51.194245,41.566017 50.994225,41.516017 51.064145,41.766017 51.280355,42.191429 51.150475,42.336329 L 50.925866,42.404688 51.970788,43.33047 C 52.055748,43.56543 51.945005,43.641211 51.875085,43.756251 L 53.01571,43.615626 52.990319,44.756251 H 53.224694 L 53.179772,43.615626 54.320397,43.744532 C 54.250477,43.589452 54.189925,43.519728 54.250085,43.279688 L 55.295007,42.414454 H 55.269616 L 55.105553,42.350001 C 54.950473,42.230081 55.166296,41.790073 55.201257,41.519923 55.201257,41.519923 54.595006,41.735746 54.545007,41.615626 L 54.39071,41.320704 53.830163,41.926173 C 53.770203,41.936134 53.74442,41.925586 53.73446,41.865626 L 53.996178,40.596095 53.589928,40.820704 C 53.554967,40.830665 53.520984,40.820509 53.505944,40.785548 Z M 47.517663,41.334376 V 41.904688 H 50.027428 V 41.334376 Z M 56.332116,41.367579 V 41.937892 H 58.843835 V 41.367579 Z M 47.517663,42.410548 V 42.982814 H 50.027428 V 42.410548 Z M 56.332116,42.443751 V 43.014064 H 58.843835 V 42.443751 Z" />
</svg>
