<?xml version="1.0" encoding="UTF-8" standalone="no"?>
<!-- Created with Inkscape (http://www.inkscape.org/) -->

<svg
   width="116.247"
   height="116.247"
   viewBox="0 0 116.247 116.247"
   version="1.1"
   id="svg1"
   inkscape:version="1.4.2 (ebf0e940d0, 2025-05-08)"
   sodipodi:docname="foresters.svg"
   xmlns:inkscape="http://www.inkscape.org/namespaces/inkscape"
   xmlns:sodipodi="http://sodipodi.sourceforge.net/DTD/sodipodi-0.dtd"
   xmlns="http://www.w3.org/2000/svg"
   xmlns:svg="http://www.w3.org/2000/svg">
  <sodipodi:namedview
     id="namedview1"
     pagecolor="#ffffff"
     bordercolor="#000000"
     borderopacity="0.25"
     inkscape:showpageshadow="2"
     inkscape:pageopacity="0.0"
     inkscape:pagecheckerboard="0"
     inkscape:deskcolor="#d1d1d1"
     inkscape:document-units="px"
     inkscape:zoom="4.8041667"
     inkscape:cx="77.224632"
     inkscape:cy="117.91847"
     inkscape:window-width="2256"
     inkscape:window-height="1427"
     inkscape:window-x="0"
     inkscape:window-y="0"
     inkscape:window-maximized="1"
     inkscape:current-layer="svg1" />
  <defs
     id="defs1" />
  <path
     d="M 115.23315,21.920354 A 0.378,0.378 0 0 1 114.97215,22.046354 C 112.77215,22.161354 110.53915,22.346354 108.37215,22.533354 A 114.406,114.406 0 0 1 96.236151,23.126354 C 95.675151,23.112354 94.755151,23.177354 93.695151,23.250354 92.320151,23.345354 90.624151,23.461354 89.007151,23.461354 H 88.772151 A 0.375,0.375 0 0 1 88.400151,23.086354 C 88.400151,22.638354 88.406151,22.186354 88.414151,21.749354 A 0.375,0.375 0 0 1 88.781151,21.381354 C 95.991151,21.236354 104.48915,20.617354 112.85215,17.132354 A 0.38,0.38 0 0 1 113.16715,17.144354 C 113.78115,17.458354 114.39615,17.779354 115.01015,18.100354 A 0.375,0.375 0 0 1 115.21015,18.433354 C 115.21015,18.463354 115.21015,18.494354 115.20315,18.572354 115.20315,19.479354 115.24015,20.456354 115.32015,21.647354 A 0.372,0.372 0 0 1 115.23315,21.920354 Z"
     id="path1"
     style="fill:#000000" />
  <path
     d="M 99.714151,36.553353 C 100.82415,36.525353 101.93315,36.511353 103.04215,36.496353 A 0.383,0.383 0 0 1 103.42115,36.845353 23.951,23.951 0 0 1 103.42815,40.094353 0.375,0.375 0 0 1 103.06215,40.444353 C 102.06215,40.464353 101.06215,40.477353 100.05415,40.491353 H 99.896151 V 40.491353 A 0.377,0.377 0 0 1 99.545151,40.250353 6.655,6.655 0 0 1 99.358151,36.873353 0.374,0.374 0 0 1 99.714151,36.553353 Z"
     id="path2"
     style="fill:#000000" />
  <path
     d="M 88.720151,36.741353 C 91.649151,36.764353 94.602151,36.686353 97.620151,36.601353 A 0.383,0.383 0 0 1 97.908151,36.724353 0.371,0.371 0 0 1 98.002151,37.024353 8.088,8.088 0 0 0 98.077151,40.060353 0.38,0.38 0 0 1 98.012151,40.381353 0.375,0.375 0 0 1 97.719151,40.530353 C 94.913151,40.576353 91.903151,40.620353 88.902151,40.630353 V 40.630353 A 0.374,0.374 0 0 1 88.528151,40.285353 C 88.445151,39.235353 88.389151,38.185353 88.346151,37.136353 A 0.373,0.373 0 0 1 88.452151,36.860353 0.413,0.413 0 0 1 88.720151,36.741353 Z"
     id="path3"
     style="fill:#000000" />
  <path
     d="M 88.372151,24.946354 A 0.374,0.374 0 0 1 88.728151,24.578354 C 89.202151,24.553354 89.674151,24.519354 90.135151,24.487354 90.964151,24.429354 91.747151,24.373354 92.470151,24.368354 97.598151,24.317354 102.77015,24.030354 107.77715,23.753354 110.21215,23.618354 112.65015,23.483354 115.09815,23.372354 A 0.37,0.37 0 0 1 115.48815,23.713354 C 115.53615,24.244354 115.58815,24.775354 115.64815,25.318354 A 0.376,0.376 0 0 1 115.54815,25.608354 0.371,0.371 0 0 1 115.27115,25.731354 V 25.731354 L 114.33515,25.725354 C 112.41915,25.712354 110.63515,25.701354 109.00415,25.725354 L 103.40415,25.954354 C 100.32115,26.154354 97.656151,26.378354 95.483151,26.621354 A 44.288,44.288 0 0 0 91.070151,27.294353 44.564,44.564 0 0 0 95.529151,27.351353 C 97.521151,27.316353 100.11715,27.246353 103.44915,27.135353 L 109.02015,27.023354 Q 110.89215,27.042354 112.99115,27.058354 L 115.49215,27.080354 A 0.375,0.375 0 0 1 115.86215,27.417353 63.5,63.5 0 0 1 116.24715,33.880353 0.373,0.373 0 0 1 116.02115,34.223353 C 113.86015,35.155353 111.14215,37.245353 110.59815,40.066353 A 0.374,0.374 0 0 1 110.23015,40.366353 Q 107.69215,40.366353 105.15715,40.408353 H 105.15115 A 0.378,0.378 0 0 1 104.87915,40.292353 0.374,0.374 0 0 1 104.77915,40.009353 24.092,24.092 0 0 0 104.71115,36.109353 0.873,0.873 0 0 0 104.61615,35.809353 0.343,0.343 0 0 1 104.57315,35.678353 0.6,0.6 0 0 0 103.95015,35.132353 C 101.72415,35.144353 99.460151,35.204353 97.270151,35.262353 94.452151,35.336353 91.539151,35.412353 88.670151,35.390353 A 0.377,0.377 0 0 1 88.298151,35.021353 C 88.252151,32.231353 88.303151,29.390353 88.352151,26.643354 Z"
     id="path4"
     style="fill:#000000" />
  <path
     d="M 78.409151,47.153353 H 78.155151 A 0.374,0.374 0 0 1 77.782151,46.784353 C 77.760151,45.420353 77.726151,44.055353 77.691151,42.684353 A 0.379,0.379 0 0 1 77.791151,42.415353 0.375,0.375 0 0 1 78.055151,42.300353 L 79.191151,42.280353 C 81.741151,42.237353 84.378151,42.192353 86.947151,41.932353 A 0.381,0.381 0 0 1 87.347151,42.204353 L 87.387151,42.344353 A 0.389,0.389 0 0 1 87.403151,42.471353 29.867,29.867 0 0 1 86.860151,46.604353 0.375,0.375 0 0 1 86.496151,46.904353 C 85.265151,46.919353 84.036151,46.971353 82.809151,47.024353 81.372151,47.090353 79.883151,47.153353 78.409151,47.153353 Z"
     id="path5"
     style="fill:#000000" />
  <path
     d="M 39.888151,30.458353 A 0.37,0.37 0 0 1 39.618151,30.573353 0.365,0.365 0 0 1 39.437151,30.526353 37.646,37.646 0 0 0 34.464151,28.280353 L 33.716151,28.000353 C 32.828151,27.670353 31.938151,27.338353 31.053151,26.967354 A 8.661,8.661 0 0 0 29.962151,26.548354 L 29.774151,26.481354 C 29.651151,26.438354 29.557151,26.405354 29.483151,26.381354 A 0.365,0.365 0 0 1 29.266151,26.065354 0.392,0.392 0 0 1 29.450151,25.709354 0.539,0.539 0 0 1 29.826151,25.609354 0.863,0.863 0 0 0 29.889151,25.501354 0.377,0.377 0 0 1 30.043151,25.334354 C 32.452151,23.976354 35.168151,24.328354 37.691151,26.327354 A 0.712,0.712 0 0 0 38.414151,26.438354 0.386,0.386 0 0 1 38.524151,26.415354 0.544,0.544 0 0 0 38.916151,26.204354 C 39.841151,25.124354 41.673151,25.969354 42.511151,26.568354 A 0.375,0.375 0 0 1 42.611151,27.079354 23.627,23.627 0 0 1 39.888151,30.458353 Z"
     id="path6"
     style="fill:#000000" />
  <path
     d="M 86.572151,33.847353 83.996151,33.876353 C 81.996151,33.900353 79.996151,33.924353 77.996151,33.924353 H 77.990151 A 0.374,0.374 0 0 1 77.615151,33.537353 C 77.680151,31.349353 77.815151,29.542353 78.049151,27.678353 A 0.375,0.375 0 0 1 78.426151,27.350353 Q 82.521151,27.402353 86.616151,27.427353 A 0.374,0.374 0 0 1 86.989151,27.808353 C 86.950151,29.917353 86.926151,31.687353 86.940151,33.469353 A 0.374,0.374 0 0 1 86.572151,33.847353 Z"
     id="path7"
     style="fill:#000000" />
  <path
     d="M 86.940151,23.260354 A 0.374,0.374 0 0 1 86.690151,23.360354 H 86.650151 C 84.877151,23.167354 83.716151,22.737354 83.101151,22.044354 A 0.375,0.375 0 0 1 83.381151,21.420354 C 84.494151,21.420354 85.601151,21.420354 86.702151,21.414354 V 21.414354 A 0.374,0.374 0 0 1 87.077151,21.796354 C 87.070151,22.190354 87.063151,22.596354 87.063151,22.987354 A 0.373,0.373 0 0 1 86.940151,23.260354 Z"
     id="path8"
     style="fill:#000000" />
  <path
     d="M 86.848151,40.617353 C 84.340151,40.886353 81.780151,40.917353 79.305151,40.944353 L 78.016151,40.960353 H 78.010151 A 0.375,0.375 0 0 1 77.635151,40.595353 C 77.592151,38.882353 77.573151,37.212353 77.579151,35.630353 A 0.417,0.417 0 0 1 78.004151,35.263353 C 79.930151,35.305353 81.892151,35.269353 83.789151,35.232353 84.722151,35.214353 85.655151,35.196353 86.589151,35.187353 V 35.187353 A 0.375,0.375 0 0 1 86.964151,35.555353 C 86.993151,37.146353 87.064151,38.714353 87.179151,40.215353 A 0.376,0.376 0 0 1 86.848151,40.617353 Z"
     id="path9"
     style="fill:#000000" />
  <path
     d="M 18.045151,67.680353 C 17.645151,67.940353 17.159151,68.215353 16.618151,68.517353 A 0.378,0.378 0 0 1 16.076151,68.301353 C 15.776151,67.321353 15.429151,66.248353 15.047151,65.073353 A 0.374,0.374 0 0 1 15.234151,64.623353 18.635,18.635 0 0 1 18.677151,63.264353 19.714,19.714 0 0 1 23.504151,62.364353 0.391,0.391 0 0 1 23.862151,62.556353 0.376,0.376 0 0 1 23.834151,62.962353 11.026,11.026 0 0 0 22.802151,64.614353 14.756,14.756 0 0 0 21.518151,68.468353 23.106,23.106 0 0 0 21.101151,72.268353 L 21.090151,72.768353 A 4.374,4.374 0 0 0 21.144151,73.305353 C 21.200151,73.623353 21.278151,73.905353 21.371151,74.241353 L 21.684151,75.441353 C 21.684151,75.456353 21.701151,75.547353 21.701151,75.562353 A 1.411,1.411 0 0 1 21.722151,75.729353 1.023,1.023 0 0 1 21.649151,76.129353 L 21.598151,76.305353 A 0.356,0.356 0 0 1 21.560151,76.400353 C 21.524151,76.463353 21.494151,76.525353 21.465151,76.588353 A 2.3,2.3 0 0 1 21.228151,77.006353 C 21.064151,77.279353 20.850151,77.574353 20.628151,77.878353 20.517151,78.031353 20.404151,78.187353 20.292151,78.346353 20.128151,78.579353 19.964151,78.831353 19.827151,79.046353 19.774151,79.154353 19.716151,79.257353 19.659151,79.359353 A 3.239,3.239 0 0 0 19.408151,79.877353 7.182,7.182 0 0 0 19.055151,81.083353 C 19.020151,81.240353 18.984151,81.396353 18.947151,81.539353 A 12.064,12.064 0 0 0 18.786151,82.800353 L 18.752151,83.129353 C 18.759151,83.318353 18.760151,83.506353 18.761151,83.694353 A 7.65,7.65 0 0 0 18.810151,84.730353 L 18.946151,85.650353 A 1.782,1.782 0 0 0 18.988151,85.884353 L 19.126151,86.346353 A 3.093,3.093 0 0 0 19.389151,86.923353 L 19.535151,87.181353 A 6.023,6.023 0 0 0 19.903151,87.718353 C 20.042151,87.904353 20.176151,88.074353 20.303151,88.234353 20.462151,88.434353 20.609151,88.624353 20.745151,88.815353 L 20.899151,89.064353 C 20.920151,89.096353 20.942151,89.130353 20.962151,89.164353 21.183151,89.142353 21.341151,89.182353 21.407151,89.427353 A 0.436,0.436 0 0 1 21.326151,89.727353 0.466,0.466 0 0 1 21.087151,89.904353 9.161,9.161 0 0 1 20.877151,90.866353 L 20.534151,92.092353 A 11.6,11.6 0 0 0 20.248151,93.341353 C 20.226151,93.514353 20.204151,93.679353 20.179151,93.815353 A 0.571,0.571 0 0 1 20.131151,94.008353 C 20.076151,94.190353 19.852151,94.281353 19.125151,94.558353 L 18.132151,94.843353 A 18.42,18.42 0 0 1 14.474151,95.195353 H 14.129151 C 13.736151,95.202353 13.352151,95.180353 12.976151,95.158353 12.743151,95.144353 12.513151,95.130353 12.255151,95.123353 L 11.655151,95.061353 C 11.284151,95.023353 10.921151,94.986353 10.555151,94.938353 10.377151,94.905353 10.199151,94.877353 10.023151,94.851353 A 8.612,8.612 0 0 1 9.0151515,94.651353 L 8.2791515,94.475353 7.6241515,94.262353 A 5.859,5.859 0 0 1 5.4991515,92.987353 6.045,6.045 0 0 1 3.9201515,89.721353 0.416,0.416 0 0 1 3.8911515,89.621353 L 3.8111515,88.561353 A 30.092,30.092 0 0 1 4.3791515,79.941353 L 4.6991515,78.570353 A 0.373,0.373 0 0 1 4.9921515,78.288353 0.381,0.381 0 0 1 5.3701515,78.439353 C 6.5701515,80.133353 7.5411515,81.803353 8.3971515,83.276353 L 9.0381515,84.376353 A 0.375,0.375 0 0 1 8.9951515,84.816353 16.953,16.953 0 0 0 7.0141515,87.476353 5.757,5.757 0 0 0 6.2691515,89.244353 7.875,7.875 0 0 0 7.7341515,88.056353 L 9.6701515,86.238353 A 0.382,0.382 0 0 1 9.9701515,86.138353 0.375,0.375 0 0 1 10.240151,86.306353 29.71,29.71 0 0 0 12.456151,89.292353 0.376,0.376 0 0 1 12.409151,89.823353 L 12.216151,89.979353 C 12.116151,90.056353 12.016151,90.135353 11.916151,90.221353 A 6.41,6.41 0 0 0 10.189151,92.536353 C 9.9581515,93.236353 10.042151,93.536353 10.067151,93.565353 10.067151,93.565353 10.267151,93.639353 10.967151,93.076353 11.567151,92.639353 12.290151,92.021353 12.981151,91.420353 13.159151,91.263353 13.328151,91.107353 13.498151,90.943353 A 0.377,0.377 0 0 1 14.026151,90.950353 C 14.403151,91.333353 14.726151,91.674353 15.009151,91.974353 15.409151,92.400353 15.732151,92.737353 16.009151,92.974353 16.069151,93.029353 16.123151,93.074353 16.173151,93.121353 16.148151,93.068353 16.120151,93.010353 16.087151,92.947353 A 17.945,17.945 0 0 0 14.435151,90.379353 0.372,0.372 0 0 1 14.435151,89.921353 6.029,6.029 0 0 0 14.857151,89.315353 C 15.188151,88.715353 15.174151,88.387353 15.142151,88.344353 15.142151,88.344353 14.942151,88.259353 14.133151,88.702353 14.013151,88.756353 13.888151,88.827353 13.718151,88.923353 A 0.374,0.374 0 0 1 13.230151,88.816353 39.589,39.589 0 0 1 11.015151,85.371353 0.373,0.373 0 0 1 11.080151,84.913353 C 11.249151,84.749353 11.421151,84.590353 11.637151,84.391353 12.596151,83.515353 13.499151,82.681353 14.278151,81.937353 A 0.364,0.364 0 0 1 14.597151,81.837353 0.382,0.382 0 0 1 14.869151,82.037353 22.119,22.119 0 0 0 16.464151,84.743353 22.008,22.008 0 0 0 15.496151,81.655353 L 15.433151,81.484353 C 15.401151,81.397353 15.370151,81.309353 15.333151,81.218353 A 0.463,0.463 0 0 1 15.465151,80.763353 L 15.722151,81.034353 V 81.034353 L 15.538151,80.688353 A 6.777,6.777 0 0 0 16.738151,79.217353 5.407,5.407 0 0 0 15.238151,79.817353 0.366,0.366 0 0 1 14.938151,79.836353 0.373,0.373 0 0 1 14.719151,79.622353 C 14.138151,78.137353 13.363151,76.264353 12.279151,73.722353 A 0.374,0.374 0 0 1 12.391151,73.280353 L 12.991151,72.799353 C 13.376151,72.491353 13.777151,72.171353 14.203151,71.841353 14.518151,71.601353 14.853151,71.368353 15.219151,71.114353 A 0.375,0.375 0 0 1 15.783151,71.287353 C 16.324151,72.687353 16.804151,73.846353 17.209151,74.735353 A 11.4,11.4 0 0 0 18.322151,76.791353 11.625,11.625 0 0 0 17.898151,74.473353 C 17.662151,73.524353 17.307151,72.306353 16.747151,70.524353 16.747151,70.507353 16.717151,70.413353 16.714151,70.395353 A 0.374,0.374 0 0 1 16.849151,69.977353 10.668,10.668 0 0 0 18.662151,68.377353 3.839,3.839 0 0 0 19.672151,66.607353 C 19.522151,66.692353 19.299151,66.852353 19.109151,66.987353 18.805151,67.195353 18.450151,67.449353 18.045151,67.680353 Z"
     id="path10"
     style="fill:#000000" />
  <path
     d="M 10.746151,74.553353 A 0.376,0.376 0 0 1 11.314151,74.695353 C 12.342151,76.920353 13.198151,78.714353 13.928151,80.181353 A 0.377,0.377 0 0 1 13.798151,80.662353 26.541,26.541 0 0 0 10.534151,83.217353 C 10.493151,83.253353 10.451151,83.296353 10.410151,83.338353 A 0.378,0.378 0 0 1 10.144151,83.448353 0.49,0.49 0 0 1 10.090151,83.448353 0.373,0.373 0 0 1 9.8151515,83.256353 L 9.7081515,83.056353 A 45.86,45.86 0 0 0 5.5571515,76.448353 0.375,0.375 0 0 1 5.5001515,76.090353 L 5.6641515,75.620353 C 5.7451515,75.420353 5.8411515,75.214353 5.9391515,75.009353 L 6.0891515,74.690353 C 6.2061515,74.459353 6.3171515,74.219353 6.4291515,73.975353 6.6071515,73.591353 6.7871515,73.198353 7.0121515,72.800353 7.3871515,72.200353 7.7771515,71.576353 8.1651515,70.943353 A 5.466,5.466 0 0 1 8.5851515,70.334353 L 8.6741515,70.217353 A 0.379,0.379 0 0 1 9.0151515,70.070353 0.374,0.374 0 0 1 9.3151515,70.288353 L 10.435151,72.774353 A 0.373,0.373 0 0 1 10.368151,73.185353 C 9.9261515,73.659353 9.5081515,74.137353 9.1551515,74.572353 A 9,9 0 0 0 7.9911515,76.172353 6.642,6.642 0 0 0 9.7741515,75.255353 C 10.082151,75.039353 10.411151,74.806353 10.746151,74.553353 Z"
     id="path11"
     style="fill:#000000" />
  <path
     d="M 13.347151,65.722353 A 0.376,0.376 0 0 1 13.914151,65.915353 C 14.296151,67.076353 14.651151,68.126353 14.984151,69.078353 A 0.376,0.376 0 0 1 14.817151,69.528353 14.936,14.936 0 0 0 13.223151,70.572353 C 12.779151,70.917353 12.340151,71.284353 11.923151,71.662353 A 0.376,0.376 0 0 1 11.672151,71.762353 0.432,0.432 0 0 1 11.593151,71.754353 0.377,0.377 0 0 1 11.329151,71.538353 L 10.129151,68.800353 A 0.375,0.375 0 0 1 10.198151,68.393353 18.612,18.612 0 0 1 13.347151,65.722353 Z"
     id="path12"
     style="fill:#000000" />
  <path
     d="M 0.14815148,85.880353 C 0.68015148,79.359353 1.3291515,73.932353 4.3781515,68.399353 A 98.5,98.5 0 0 1 12.420151,56.318353 Q 12.902151,55.691353 13.398151,55.054353 C 16.032151,51.654353 18.755151,48.148353 19.677151,43.988353 20.065151,42.253353 20.764151,41.114353 21.756151,40.602353 A 3.6,3.6 0 0 1 24.864151,40.716353 C 26.353151,41.344353 26.783151,43.050353 27.164151,44.556353 A 12.313,12.313 0 0 0 27.656151,46.197353 16.957,16.957 0 0 0 34.609151,54.289353 11.563,11.563 0 0 0 36.042151,54.989353 C 37.458151,55.605353 39.064151,56.302353 39.367151,57.626353 A 20.186,20.186 0 0 1 39.752151,60.801353 0.125,0.125 0 0 1 39.694151,60.915353 0.687,0.687 0 0 0 39.383151,61.484353 0.127,0.127 0 0 1 39.327151,61.584353 0.123,0.123 0 0 1 39.214151,61.596353 14.05,14.05 0 0 0 36.206151,60.823353 29.349,29.349 0 0 0 32.197151,60.635353 L 31.168151,60.654353 C 30.249151,60.672353 29.383151,60.687353 28.502151,60.684353 27.161151,60.684353 26.038151,60.693353 24.926151,60.740353 A 23.047,23.047 0 0 0 18.234151,61.840353 20.034,20.034 0 0 0 12.672151,64.450353 18.986,18.986 0 0 0 8.5721515,68.173353 6.236,6.236 0 0 0 8.0661515,68.823353 C 7.9781515,68.947353 7.8911515,69.070353 7.8041515,69.182353 7.7171515,69.294353 7.6311515,69.425353 7.5421515,69.544353 A 4.807,4.807 0 0 0 7.1061515,70.199353 C 6.6941515,70.899353 6.2891515,71.586353 5.9061515,72.235353 5.6701515,72.684353 5.4731515,73.145353 5.2821515,73.592353 5.1871515,73.815353 5.0931515,74.034353 4.9971515,74.246353 4.9491515,74.359353 4.8971515,74.472353 4.8501515,74.583353 4.7571515,74.793353 4.6651515,75.001353 4.5901515,75.202353 4.4901515,75.537353 4.3901515,75.857353 4.2901515,76.178353 L 4.1561515,76.612353 C 4.0031515,77.099353 3.8561515,77.560353 3.7431515,78.012353 L 3.6231515,78.630353 C 3.5481515,79.017353 3.4751515,79.395353 3.4031515,79.758353 A 26.015,26.015 0 0 0 3.5251515,89.358353 L 3.5711515,89.523353 A 1.565,1.565 0 0 1 3.5781515,89.703353 7.95,7.95 0 0 0 3.8871515,91.432353 5.215,5.215 0 0 0 4.9961515,93.440353 6.5,6.5 0 0 0 7.2871515,95.029353 L 7.5001515,95.111353 C 7.6691515,95.177353 7.8411515,95.244353 8.0121515,95.305353 8.1541515,95.348353 8.2981515,95.390353 8.4431515,95.431353 L 8.7791515,95.531353 A 9.636,9.636 0 0 0 9.8191515,95.780353 C 10.012151,95.818353 10.207151,95.858353 10.400151,95.903353 10.880151,95.986353 11.375151,96.053353 11.900151,96.124353 L 12.156151,96.159353 C 12.356151,96.174353 12.550151,96.194353 12.751151,96.214353 13.181151,96.256353 13.625151,96.300353 14.081151,96.305353 A 18.9,18.9 0 0 0 18.391151,96.044353 L 18.737151,95.954353 C 19.022151,95.879353 19.310151,95.803353 19.592151,95.727353 L 19.748151,95.670353 C 19.886151,95.619353 20.027151,95.570353 20.161151,95.515353 L 20.525151,95.351353 A 2.415,2.415 0 0 0 20.918151,95.097353 1.416,1.416 0 0 0 21.236151,94.732353 2.2,2.2 0 0 0 21.414151,94.271353 C 21.466151,94.038353 21.489151,93.903353 21.508151,93.783353 21.520151,93.710353 21.530151,93.642353 21.548151,93.558353 A 8.124,8.124 0 0 1 21.821151,92.458353 C 21.909151,92.158353 22.000151,91.849353 22.093151,91.541353 L 22.236151,91.050353 A 6.971,6.971 0 0 0 22.491151,89.771353 3.384,3.384 0 0 0 22.453151,89.209353 2.154,2.154 0 0 0 22.348151,88.873353 L 22.303151,88.750353 A 2.033,2.033 0 0 0 22.136151,88.394353 L 22.122151,88.368353 C 22.089151,88.317353 22.057151,88.262353 22.022151,88.208353 A 2.059,2.059 0 0 0 21.897151,88.008353 C 21.737151,87.776353 21.573151,87.562353 21.418151,87.358353 21.289151,87.187353 21.165151,87.025353 21.061151,86.874353 A 2.7,2.7 0 0 1 20.823151,86.532353 C 20.788151,86.474353 20.753151,86.416353 20.703151,86.340353 20.683151,86.298353 20.661151,86.257353 20.640151,86.215353 A 1.737,1.737 0 0 1 20.485151,85.853353 3.59,3.59 0 0 1 20.326151,85.035353 C 20.308151,84.891353 20.289151,84.746353 20.267151,84.611353 A 5.813,5.813 0 0 1 20.234151,83.750353 C 20.234151,83.578353 20.234151,83.407353 20.234151,83.213353 20.249151,83.080353 20.263151,82.948353 20.277151,82.813353 A 9.69,9.69 0 0 1 20.418151,81.804353 C 20.458151,81.660353 20.495151,81.504353 20.532151,81.354353 A 5.581,5.581 0 0 1 20.796151,80.470353 1.961,1.961 0 0 1 20.979151,80.096353 C 21.023151,80.020353 21.066151,79.945353 21.111151,79.853353 L 21.219151,79.690353 C 21.319151,79.538353 21.419151,79.390353 21.529151,79.231353 21.639151,79.072353 21.752151,78.923353 21.868151,78.766353 22.082151,78.479353 22.304151,78.182353 22.522151,77.830353 L 22.550151,77.784353 A 3.964,3.964 0 0 0 23.270151,75.771353 3.332,3.332 0 0 0 23.237151,75.350353 C 23.229151,75.292353 23.221151,75.233353 23.217151,75.184353 L 23.107151,74.684353 23.019151,74.360353 C 22.969151,74.177353 22.919151,73.992353 22.871151,73.808353 22.798151,73.550353 22.724151,73.279353 22.680151,73.036353 A 1.355,1.355 0 0 1 22.660151,72.866353 C 22.660151,72.835353 22.660151,72.805353 22.650151,72.746353 L 22.663151,72.321353 A 21.416,21.416 0 0 1 23.072151,68.780353 10.6,10.6 0 0 1 26.440151,62.527353 0.132,0.132 0 0 1 26.517151,62.499353 C 27.166151,62.492353 27.817151,62.492353 28.497151,62.499353 29.223151,62.505353 29.982151,62.493353 30.716151,62.482353 31.216151,62.474353 31.716151,62.467353 32.207151,62.464353 A 26.566,26.566 0 0 1 35.944151,62.639353 C 36.119151,62.660353 36.295151,62.694353 36.471151,62.727353 L 36.642151,62.759353 A 0.127,0.127 0 0 1 36.742151,62.873353 0.124,0.124 0 0 1 36.657151,63.000353 7.77,7.77 0 0 0 32.548151,65.954353 7.147,7.147 0 0 0 31.091151,70.392353 C 31.110151,70.560353 31.173151,70.892353 31.247151,71.271353 31.600151,73.087353 31.718151,73.987353 31.438151,74.192353 A 7.326,7.326 0 0 0 30.138151,75.492353 11.059,11.059 0 0 0 28.538151,85.475353 L 28.554151,85.518353 C 29.087151,86.937353 29.638151,88.405353 28.673151,89.899353 A 3.326,3.326 0 0 0 28.239151,91.199353 15.724,15.724 0 0 0 28.139151,93.299353 C 28.139151,95.393353 28.139151,97.199353 25.139151,97.781353 L 24.345151,97.920353 A 61.867,61.867 0 0 1 13.845151,99.139353 19.5,19.5 0 0 1 7.5401515,98.222353 C 5.1871515,97.412353 1.9291515,96.043353 0.82115148,93.514353 -0.18384852,91.221353 -0.07084852,88.593353 0.14815148,85.880353 Z M 16.579151,60.558353 A 40.178,40.178 0 0 1 29.249151,58.168353 C 29.458151,58.168353 29.661151,58.162353 29.860151,58.162353 31.176151,58.162353 32.248151,58.252353 33.060151,58.320353 L 33.176151,58.329353 C 33.476151,58.368353 33.910151,58.423353 34.213151,58.448353 A 10.241,10.241 0 0 0 33.229151,58.129353 21.273,21.273 0 0 0 29.262151,57.580353 35.274,35.274 0 0 0 16.262151,59.680353 30.277,30.277 0 0 0 13.397151,60.908353 0.126,0.126 0 0 1 13.255151,60.887353 0.124,0.124 0 0 1 13.226151,60.747353 38.246,38.246 0 0 1 17.075151,54.118353 L 18.041151,52.738353 C 18.678151,51.844353 19.217151,51.087353 19.471151,50.675353 A 27.954,27.954 0 0 0 17.062151,53.295353 30.5,30.5 0 0 0 11.828151,61.878353 L 11.411151,62.994353 12.473151,62.401353 V 62.401353 A 30.276,30.276 0 0 1 16.579151,60.558353 Z M 29.305151,68.303353 A 12.671,12.671 0 0 1 29.849151,66.546353 8.163,8.163 0 0 1 30.549151,65.221353 C 30.706151,64.969353 30.868151,64.747353 30.996151,64.569353 A 3.074,3.074 0 0 0 31.296151,64.118353 2.307,2.307 0 0 0 30.096151,64.844353 5.52,5.52 0 0 0 29.096151,66.181353 7.944,7.944 0 0 0 28.396151,68.113353 8.144,8.144 0 0 0 28.443151,71.762353 2.931,2.931 0 0 0 29.014151,73.031353 4.781,4.781 0 0 0 29.030151,72.104353 14.982,14.982 0 0 1 29.305151,68.303353 Z M 25.314151,95.572353 A 1.964,1.964 0 0 1 25.054151,95.192353 2.878,2.878 0 0 1 25.574151,92.198353 1.513,1.513 0 0 1 25.951151,91.888353 C 26.026151,91.839353 26.136151,91.767353 26.151151,91.728353 26.151151,91.716353 26.120151,91.673353 25.968151,91.612353 A 0.4,0.4 0 0 0 25.778151,91.580353 1.448,1.448 0 0 0 25.317151,91.662353 1.807,1.807 0 0 0 24.482151,92.293353 2.76,2.76 0 0 0 23.982151,93.454353 2.237,2.237 0 0 0 24.642151,95.601353 L 24.652151,95.609353 A 0.882,0.882 0 0 0 25.014151,95.796353 0.535,0.535 0 0 0 25.277151,95.836353 C 25.418151,95.825353 25.456151,95.791353 25.456151,95.787353 25.457151,95.749353 25.372151,95.651353 25.314151,95.572353 Z M 26.137151,88.702353 C 26.020151,88.390353 25.872151,88.002353 25.728151,87.529353 A 15.968,15.968 0 0 1 25.228151,85.418353 16.808,16.808 0 0 1 25.028151,82.790353 11.36,11.36 0 0 1 25.368151,80.214353 6.692,6.692 0 0 1 26.217151,78.309353 6.621,6.621 0 0 1 27.172151,77.180353 C 27.264151,77.090353 27.365151,76.991353 27.420151,76.924353 A 2.207,2.207 0 0 0 27.033151,77.031353 L 26.769151,77.131353 C 26.723151,77.160353 26.675151,77.193353 26.625151,77.231353 26.575151,77.269353 26.511151,77.309353 26.450151,77.349353 A 3.181,3.181 0 0 0 25.759151,77.949353 5.7,5.7 0 0 0 24.570151,79.969353 9.551,9.551 0 0 0 24.103151,82.786353 12.216,12.216 0 0 0 24.403151,85.586353 10.026,10.026 0 0 0 25.187151,87.749353 4.317,4.317 0 0 0 26.339151,89.310353 5.374,5.374 0 0 0 26.137151,88.702353 Z"
     id="path13"
     style="fill:#000000" />
  <path
     d="M 47.561151,41.128353 A 0.375,0.375 0 0 1 47.310151,41.228353 0.236,0.236 0 0 1 47.272151,41.228353 C 46.232151,41.121353 45.167151,41.054353 44.138151,40.989353 L 43.432151,40.944353 V 40.944353 C 43.161151,40.925353 42.873151,40.917353 42.577151,40.908353 A 8.286,8.286 0 0 1 39.729151,40.492353 C 39.029151,40.207353 39.118151,39.002353 39.324151,37.286353 A 0.374,0.374 0 0 1 39.670151,36.957353 C 42.102151,36.793353 45.770151,36.757353 46.976151,36.751353 H 47.326151 V 36.757353 A 0.377,0.377 0 0 1 47.776151,37.138353 L 47.765151,37.450353 C 47.726151,38.567353 47.686151,39.716353 47.686151,40.859353 A 0.376,0.376 0 0 1 47.561151,41.128353 Z"
     id="path14"
     style="fill:#000000" />
  <path
     d="M 51.266151,27.992353 A 0.371,0.371 0 0 1 51.466151,27.909353 C 59.714151,27.200353 67.940151,27.229353 76.345151,27.329353 A 0.375,0.375 0 0 1 76.712151,27.747353 C 76.612151,28.647353 76.526151,29.555353 76.456151,30.457353 A 0.375,0.375 0 0 1 76.094151,30.803353 L 70.279151,30.983353 C 68.400151,31.053353 66.657151,31.123353 65.124151,31.183353 L 63.989151,31.233353 C 63.632151,31.246353 63.255151,31.260353 62.914151,31.287353 62.234151,31.336353 61.594151,31.387353 60.985151,31.434353 A 16.258,16.258 0 0 1 57.898151,31.426353 4.557,4.557 0 0 1 55.814151,30.710353 C 55.763151,30.660353 55.714151,30.615353 55.657151,30.571353 A 1.637,1.637 0 0 1 55.272151,30.158353 L 55.112151,29.937353 A 0.721,0.721 0 0 1 55.057151,29.849353 L 54.957151,29.624353 A 2.417,2.417 0 0 1 54.840151,29.391353 1.565,1.565 0 0 0 54.865151,29.591353 L 54.922151,29.933353 A 2.858,2.858 0 0 0 55.076151,30.318353 2.378,2.378 0 0 0 55.514151,30.987353 L 55.563151,31.051353 A 4.491,4.491 0 0 0 57.763151,32.141353 13.978,13.978 0 0 0 61.019151,32.417353 L 65.138151,32.362353 C 66.693151,32.334353 68.438151,32.306353 70.338151,32.278353 L 75.953151,32.146353 A 0.4,0.4 0 0 1 76.231151,32.258353 0.376,0.376 0 0 1 76.338151,32.537353 C 76.317151,33.016353 76.303151,33.502353 76.289151,33.988353 A 0.4,0.4 0 0 1 75.912151,34.352353 H 75.258151 C 72.406151,34.339353 69.943151,34.327353 67.858151,34.424353 66.350151,34.472353 65.024151,34.608353 63.958151,34.718353 63.332151,34.782353 62.776151,34.839353 62.296151,34.868353 A 8.516,8.516 0 0 0 59.334151,35.498353 C 59.283151,35.522353 59.234151,35.546353 59.193151,35.571353 59.250151,35.571353 59.311151,35.565353 59.374151,35.563353 A 25.468,25.468 0 0 1 62.294151,35.604353 C 63.126151,35.656353 64.051151,35.639353 65.121151,35.621353 65.950151,35.607353 66.865151,35.593353 67.891151,35.604353 69.214151,35.617353 70.697151,35.634353 72.356151,35.654353 L 75.888151,35.695353 A 0.374,0.374 0 0 1 76.259151,36.070353 C 76.259151,37.092353 76.267151,38.114353 76.280151,39.144353 A 0.374,0.374 0 0 1 75.924151,39.523353 C 75.443151,39.547353 74.996151,39.575353 74.560151,39.603353 L 73.584151,39.662353 C 72.948151,39.696353 72.331151,39.732353 71.734151,39.762353 L 70.885151,39.812353 C 69.437151,39.877353 67.751151,39.944353 66.233151,39.951353 A 41.887,41.887 0 0 1 59.684151,39.619353 C 58.559151,39.439353 57.104151,39.085353 56.573151,38.434353 A 2.41,2.41 0 0 1 56.407151,38.224353 1.052,1.052 0 0 0 56.455151,38.351353 L 56.498151,38.459353 A 2.363,2.363 0 0 0 57.498151,39.501353 7.986,7.986 0 0 0 59.531151,40.336353 29.61,29.61 0 0 0 66.231151,41.136353 C 67.631151,41.179353 69.221151,41.172353 70.946151,41.116353 71.814151,41.088353 72.717151,41.046353 73.669151,40.997353 74.095151,40.977353 74.548151,40.949353 75.002151,40.921353 L 75.931151,40.865353 A 0.377,0.377 0 0 1 76.205151,40.965353 0.37,0.37 0 0 1 76.326151,41.231353 L 76.362151,42.889353 A 0.377,0.377 0 0 1 75.996151,43.274353 C 75.740151,43.280353 75.459151,43.274353 75.196151,43.266353 L 73.762151,43.217353 C 73.006151,43.183353 72.274151,43.154353 71.568151,43.126353 L 71.073151,43.106353 C 69.252151,43.032353 67.725151,43.006353 66.403151,43.016353 A 31.017,31.017 0 0 0 59.741151,43.606353 8.42,8.42 0 0 0 57.688151,44.316353 2.614,2.614 0 0 0 56.626151,45.284353 C 56.592151,45.360353 56.560151,45.435353 56.538151,45.497353 A 2.05,2.05 0 0 1 56.715151,45.305353 3.243,3.243 0 0 1 57.879151,44.698353 12.2,12.2 0 0 1 59.872151,44.323353 46.981,46.981 0 0 1 66.392151,44.196353 C 67.767151,44.238353 69.303151,44.307353 71.014151,44.405353 71.869151,44.454353 72.768151,44.505353 73.704151,44.551353 L 75.160151,44.606353 C 75.449151,44.614353 75.725151,44.620353 76.035151,44.620353 A 0.375,0.375 0 0 1 76.410151,44.989353 V 45.232353 C 76.423151,45.975353 76.436151,46.724353 76.442151,47.473353 A 0.374,0.374 0 0 1 76.067151,47.850353 V 47.850353 C 72.931151,47.830353 69.744151,47.762353 66.662151,47.697353 61.307151,47.582353 55.768151,47.465353 50.322151,47.597353 A 0.368,0.368 0 0 1 49.972151,47.360353 C 48.922151,44.828353 49.012151,41.760353 49.091151,39.060353 49.106151,38.526353 49.121151,38.001353 49.128151,37.492353 49.128151,37.192353 49.128151,36.862353 49.128151,36.513353 49.117151,33.661353 49.101151,29.763353 51.266151,27.992353 Z"
     id="path15"
     style="fill:#000000" />
  <path
     d="M 51.433151,58.133353 A 20.726,20.726 0 0 1 59.351151,56.413353 0.441,0.441 0 0 1 59.696151,56.620353 C 60.316151,57.853353 59.612151,59.250353 58.996151,60.482353 A 7.8,7.8 0 0 0 58.296151,62.146353 5.8,5.8 0 0 0 58.327151,65.292353 C 58.387151,65.472353 58.466151,65.650353 58.542151,65.828353 A 2.881,2.881 0 0 0 58.803151,66.084353 10.509,10.509 0 0 0 62.760151,67.997353 C 64.168151,68.333353 63.572151,70.503353 62.160151,70.167353 A 11.206,11.206 0 0 1 56.518151,67.016353 4.986,4.986 0 0 1 55.472151,63.447353 C 55.264151,62.934353 55.072151,62.403353 54.883151,61.847353 L 54.770151,61.519353 C 54.259151,60.067353 52.963151,59.495353 51.591151,58.889353 L 51.433151,58.819353 A 0.374,0.374 0 0 1 51.433151,58.135353 Z"
     id="path16"
     style="fill:#000000" />
  <path
     d="M 36.656151,53.612353 A 14.8,14.8 0 0 1 28.856151,44.818353 C 28.779151,44.549353 28.703151,44.262353 28.627151,43.965353 A 8,8 0 0 0 27.021151,40.306353 2.172,2.172 0 0 0 26.843151,40.153353 0.375,0.375 0 0 1 26.911151,39.524353 C 28.090151,38.942353 29.324151,38.405353 30.518151,37.886353 34.094151,36.330353 37.793151,34.721353 40.399151,31.695353 43.064151,28.590353 45.522151,25.513354 46.322151,22.006354 A 0.362,0.362 0 0 1 46.588151,21.745354 C 46.588151,20.891354 46.588151,19.456354 46.588151,19.285354 A 0.375,0.375 0 0 1 46.913151,18.903354 30.277,30.277 0 0 1 49.981151,18.725354 0.364,0.364 0 0 1 50.299151,18.892354 5.019,5.019 0 0 1 50.586151,20.568354 C 50.620151,20.868354 50.662151,21.268354 50.699151,21.563354 53.259151,21.511354 55.819151,21.529354 58.321151,21.554354 60.343151,21.574354 62.364151,21.593354 64.390151,21.575354 Q 67.378151,21.548354 70.369151,21.504354 C 73.869151,21.458354 77.497151,21.404354 81.049151,21.414354 81.204151,21.414354 81.374151,21.606354 81.431151,21.750354 82.206151,23.622354 83.825151,24.505354 86.678151,24.613354 A 0.374,0.374 0 0 1 87.039151,24.998354 L 87.025151,25.724354 A 0.376,0.376 0 0 1 86.650151,26.087354 V 26.087354 C 83.913151,26.078354 81.176151,26.046354 78.438151,26.013354 69.552151,25.907354 60.361151,25.796354 51.357151,26.580354 A 0.41,0.41 0 0 1 51.227151,26.568354 0.545,0.545 0 0 0 50.832151,26.634354 0.664,0.664 0 0 0 50.384151,26.983354 0.4,0.4 0 0 1 50.308151,27.083354 C 48.326151,28.954353 47.952151,32.161353 47.848151,35.051353 A 0.4,0.4 0 0 1 47.348151,35.399353 C 44.784151,35.405353 41.877151,35.412353 39.062151,35.662353 A 0.708,0.708 0 0 0 38.662151,35.821353 0.375,0.375 0 0 1 38.507151,35.897353 0.547,0.547 0 0 0 38.052151,36.497353 11.154,11.154 0 0 1 37.961151,37.997353 C 37.828151,39.270353 37.691151,40.586353 38.583151,41.348353 A 4.825,4.825 0 0 0 41.308151,42.113353 L 41.508151,42.130353 C 42.354151,42.205353 43.202151,42.259353 44.049151,42.313353 45.149151,42.384353 46.288151,42.457353 47.408151,42.576353 A 0.377,0.377 0 0 1 47.742151,42.925353 15.045,15.045 0 0 0 49.042151,48.543353 0.661,0.661 0 0 0 49.166151,48.708353 0.376,0.376 0 0 1 49.278151,48.980353 C 49.264151,49.885353 49.271151,50.532353 49.297151,51.142353 A 15.987,15.987 0 0 0 49.507151,53.102353 2.358,2.358 0 0 0 49.841151,54.078353 C 49.873151,54.057353 50.071151,53.889353 50.256151,53.021353 A 15.571,15.571 0 0 0 50.472151,51.180353 C 50.520151,50.635353 50.562151,50.047353 50.596151,49.274353 A 0.376,0.376 0 0 1 50.963151,48.916353 C 56.147151,48.816353 61.417151,48.925353 66.513151,49.035353 69.961151,49.109353 73.528151,49.186353 77.031151,49.194353 A 0.581,0.581 0 0 0 77.631151,48.761353 0.376,0.376 0 0 1 77.989151,48.498353 V 48.498353 C 79.589151,48.503353 81.214151,48.436353 82.789151,48.369353 83.879151,48.323353 84.968151,48.276353 86.057151,48.254353 A 0.345,0.345 0 0 1 86.357151,48.388353 0.375,0.375 0 0 1 86.436151,48.703353 34.508,34.508 0 0 0 85.608151,54.431353 0.378,0.378 0 0 1 85.488151,54.693353 0.345,0.345 0 0 1 85.218151,54.793353 L 84.210151,54.749353 C 80.390151,54.568353 75.171151,54.325353 73.510151,57.949353 73.193151,62.666353 73.603151,67.749353 70.562151,71.716353 67.432151,75.798353 62.881151,75.783353 58.171151,76.661353 A 13.589,13.589 0 0 1 47.986151,73.995353 C 44.271151,70.939353 43.399151,66.216353 42.734151,61.695353 A 3.237,3.237 0 0 0 41.619151,61.109353 0.372,0.372 0 0 1 41.349151,60.774353 15.105,15.105 0 0 0 40.633151,56.474353 C 40.156151,55.188353 38.922151,54.634353 37.616151,54.047353 37.287151,53.913353 36.963151,53.767353 36.656151,53.612353 Z M 48.708151,70.433353 C 51.142151,73.267353 55.240151,74.048353 58.772151,73.420353 62.272151,72.797353 66.842151,72.313353 68.772151,69.037353 70.613151,65.914353 70.300151,61.900353 70.484151,58.348353 67.277151,55.381353 61.794151,54.743353 57.222151,55.248353 53.585151,55.658353 48.822151,56.834353 46.797151,60.104353 A 10.34,10.34 0 0 0 45.846151,62.104353 C 46.398151,65.080353 47.338151,68.838353 48.708151,70.433353 Z"
     id="path17"
     style="fill:#000000" />
</svg>
