<?xml version="1.0" encoding="UTF-8" standalone="no"?>
<!-- Created with Inkscape (http://www.inkscape.org/) -->

<svg
   width="23.167999"
   height="23.167999"
   viewBox="0 0 23.167999 23.168"
   version="1.1"
   id="svg1"
   inkscape:version="1.4.2 (ebf0e940d0, 2025-05-08)"
   sodipodi:docname="forge.svg"
   xmlns:inkscape="http://www.inkscape.org/namespaces/inkscape"
   xmlns:sodipodi="http://sodipodi.sourceforge.net/DTD/sodipodi-0.dtd"
   xmlns="http://www.w3.org/2000/svg"
   xmlns:svg="http://www.w3.org/2000/svg">
  <sodipodi:namedview
     id="namedview1"
     pagecolor="#ffffff"
     bordercolor="#000000"
     borderopacity="0.25"
     inkscape:showpageshadow="2"
     inkscape:pageopacity="0.0"
     inkscape:pagecheckerboard="0"
     inkscape:deskcolor="#d1d1d1"
     inkscape:document-units="mm"
     inkscape:zoom="5.8104576"
     inkscape:cx="0.68841394"
     inkscape:cy="58.945443"
     inkscape:window-width="2256"
     inkscape:window-height="1427"
     inkscape:window-x="0"
     inkscape:window-y="0"
     inkscape:window-maximized="1"
     inkscape:current-layer="svg1" />
  <defs
     id="defs1" />
  <path
     d="M 19.4063 10.8965 L 3.35036 10.8965 C 2.71981 10.9949 2.98365 11.7406 2.92763 12.1867 C 2.84918 12.6627 2.99952 13.1828 3.55693 13.2123 C 4.62139 13.5791 5.74866 13.791 6.7559 14.3012 C 7.77472 14.9019 8.43083 16.0604 8.41991 17.2433 L 14.3347 17.2433 C 14.2982 15.6146 15.5696 14.1597 17.1442 13.844 C 17.977 13.5727 18.8313 13.3552 19.6508 13.0502 C 19.9771 12.6588 19.7671 12.0848 19.8269 11.6074 C 19.8504 11.3004 19.8087 10.8965 19.4063 10.8965 Z"
     id="path1"
     style="fill:#000000;stroke-width:0.264583" />
  <path
     d="M 14.3359 19.7788 L 8.4211 19.7788 C 7.73019 20.7196 6.99961 21.6349 6.3336 22.5917 C 6.18036 23.2659 6.99983 23.1656 7.42522 23.1585 C 10.3331 23.1468 13.2442 23.1819 16.1499 23.1409 C 16.7811 22.8591 16.2094 22.2634 15.9484 21.9274 C 15.4108 21.2115 14.8743 20.4932 14.3359 19.7788 Z"
     id="path2"
     style="fill:#000000;stroke-width:0.264583" />
  <path
     d="M 10.5243 5.92206 C 11.2874 5.90241 12.0585 5.96264 12.8164 5.88958 C 13.2494 5.58592 13.0041 4.98003 13.0688 4.52553 L 13.0688 0.00716 C 12.6265 0.03544 12.1375 -0.04879 11.7236 0.04805 C 11.186 0.58564 10.6484 1.12322 10.1109 1.66081 C 10.132 2.99604 10.0682 4.33975 10.1433 5.6696 C 10.2049 5.81979 10.3615 5.92453 10.5243 5.92206 Z"
     id="path3"
     style="fill:#000000;stroke-width:0.264583" />
  <path
     d="M 8.32691 6.5298 C 8.97784 7.22162 9.30398 6.08565 8.80724 5.64255 C 8.69536 4.81462 7.45285 5.123 8.00658 5.89128 C 8.11356 6.10378 8.21895 6.31888 8.32691 6.5298 Z"
     id="path4"
     style="fill:#000000;stroke-width:0.264583" />
  <path
     d="M 6.63199 7.13041 C 7.07592 7.20607 7.59064 7.65653 7.98965 7.28512 C 8.31872 6.63819 7.43595 6.55379 7.02147 6.38861 C 6.48084 6.08686 6.03733 6.87826 6.63199 7.13041 Z"
     id="path5"
     style="fill:#000000;stroke-width:0.264583" />
  <path
     d="M 15.0894 5.13042 C 14.4881 4.94273 14.395 5.72194 14.1464 6.09129 C 13.8129 6.97046 15.0101 6.83765 15.0575 6.11706 C 15.2018 5.80762 15.5362 5.37455 15.0894 5.13042 Z"
     id="path6"
     style="fill:#000000;stroke-width:0.264583" />
  <path
     d="M 15.1285 7.16745 C 15.3957 7.71937 16.0031 7.25915 16.4196 7.17291 C 17.3347 6.85723 16.4338 5.9968 15.8472 6.49208 C 15.5295 6.60557 14.9815 6.68357 15.1285 7.16745 Z"
     id="path7"
     style="fill:#000000;stroke-width:0.264583" />
  <path
     d="M 17.7164 8.78405 C 17.6157 8.16233 16.877 8.42799 16.4356 8.37064 L 5.45472 8.37064 C 4.833 8.47137 5.09866 9.21011 5.04131 9.6515 C 4.87611 10.1682 5.31189 10.0839 5.67744 10.0698 L 17.7164 10.0698 L 17.7164 8.78405 Z"
     id="path8"
     style="fill:#000000;stroke-width:0.264583" />
  <path
     d="M 8.84364 18.0704 L 13.9141 18.0704 C 13.8244 18.3323 14.1102 18.9698 13.7406 18.952 L 8.84364 18.952 L 8.84364 18.0704 Z"
     id="path9"
     style="fill:#000000;stroke-width:0.264583" />
  <path
     d="M 19.8373 2.11973 L 13.8945 2.11973 L 13.8945 3.80954 L 19.8373 3.80954 C 20.4579 3.70998 20.194 2.97325 20.2507 2.53314 C 20.2564 2.31168 20.0588 2.11411 19.8373 2.11973 Z"
     id="path10"
     style="fill:#000000;stroke-width:0.264583" />
</svg>
