<?xml version="1.0" encoding="UTF-8" standalone="no"?>
<!-- Created with Inkscape (http://www.inkscape.org/) -->

<svg
   width="48"
   height="48"
   viewBox="0 0 47.999999 48"
   version="1.1"
   id="svg1"
   inkscape:version="1.4.2 (ebf0e940d0, 2025-05-08)"
   sodipodi:docname="furnbench.svg"
   xmlns:inkscape="http://www.inkscape.org/namespaces/inkscape"
   xmlns:sodipodi="http://sodipodi.sourceforge.net/DTD/sodipodi-0.dtd"
   xmlns="http://www.w3.org/2000/svg"
   xmlns:svg="http://www.w3.org/2000/svg">
  <sodipodi:namedview
     id="namedview1"
     pagecolor="#ffffff"
     bordercolor="#000000"
     borderopacity="0.25"
     inkscape:showpageshadow="2"
     inkscape:pageopacity="0.0"
     inkscape:pagecheckerboard="0"
     inkscape:deskcolor="#d1d1d1"
     inkscape:document-units="px"
     inkscape:zoom="4.1086139"
     inkscape:cx="52.572474"
     inkscape:cy="71.191892"
     inkscape:window-width="2256"
     inkscape:window-height="1427"
     inkscape:window-x="0"
     inkscape:window-y="0"
     inkscape:window-maximized="1"
     inkscape:current-layer="svg1" />
  <defs
     id="defs1">
    <inkscape:path-effect
       effect="fillet_chamfer"
       id="path-effect1"
       is_visible="true"
       lpeversion="1"
       nodesatellites_param="F,0,0,1,0,0,0,1 @ F,0,0,1,0,0,0,1 @ F,0,0,1,0,0,0,1 @ F,0,0,1,0,0,0,1 @ F,0,0,1,0,0,0,1 @ F,0,0,1,0,0,0,1 @ F,0,0,1,0,0,0,1 @ F,0,0,1,0,0,0,1 @ F,0,0,1,0,0,0,1 @ F,0,0,1,0,0,0,1 @ F,0,0,1,0,0,0,1 @ F,0,0,1,0,0,0,1 @ F,0,0,1,0,0,0,1 @ F,0,0,1,0,0,0,1 @ F,0,0,1,0,0,0,1 @ F,0,0,1,0,0,0,1 @ F,0,0,1,0,0,0,1 @ F,0,0,1,0,0,0,1 @ F,0,0,1,0,0,0,1 @ F,0,0,1,0,0,0,1 @ F,0,0,1,0,0,0,1 @ F,0,0,1,0,0,0,1 @ F,0,0,1,0,0,0,1 @ F,0,0,1,0,0,0,1 @ F,0,0,1,0,0,0,1 @ F,0,0,1,0,0,0,1 @ F,0,0,1,0,0,0,1 @ F,0,0,1,0,0,0,1 @ F,0,0,1,0,0,0,1 @ F,0,0,1,0,0,0,1 @ F,0,0,1,0,0,0,1 @ F,0,0,1,0,0,0,1 @ F,0,0,1,0,0,0,1 @ F,0,0,1,0,0,0,1 @ F,0,0,1,0,0,0,1 @ F,0,0,1,0,0,0,1 @ F,0,0,1,0,0,0,1 @ F,0,0,1,0,0,0,1 @ F,0,0,1,0,0,0,1 @ F,0,0,1,0,0,0,1 @ F,0,0,1,0,0,0,1 @ F,0,0,1,0,0,0,1 @ F,0,0,1,0,0,0,1 @ F,0,0,1,0,0,0,1 | F,0,0,1,0,0,0,1 @ F,0,0,1,0,0,0,1 @ F,0,0,1,0,0,0,1 @ F,0,0,1,0,0,0,1"
       radius="0"
       unit="px"
       method="auto"
       mode="F"
       chamfer_steps="1"
       flexible="false"
       use_knot_distance="true"
       apply_no_radius="true"
       apply_with_radius="true"
       only_selected="false"
       hide_knots="false" />
  </defs>
  <path
     d="M 47.6963 11.7592 C 47.5054 11.5683 47.2538 11.4642 46.9848 11.4642 L 45.9393 11.4642 L 45.9393 10.0673 C 45.9393 9.51195 45.4881 9.06075 44.9328 9.06075 C 44.3774 9.06075 43.9263 9.51195 43.9263 10.0673 L 43.9263 11.4642 L 41.3059 11.4642 L 41.3059 10.4057 C 41.3059 9.73755 40.7636 9.19525 40.0954 9.19525 L 31.3839 9.19525 L 31.3839 6.56184 C 31.3839 5.76791 30.7375 5.12149 29.9436 5.12149 C 29.1497 5.12149 28.5032 5.76791 28.5032 6.56184 L 28.5032 9.19525 L 18.9978 9.19525 L 18.9978 6.56184 C 18.9978 5.76791 18.3514 5.12149 17.5575 5.12149 C 16.7635 5.12149 16.1171 5.76791 16.1171 6.56184 L 16.1171 9.19525 L 1.21038 9.19525 C 0.542262 9.19525 -3.77494e-05 9.73755 -3.77494e-05 10.4057 L -3.77494e-05 14.5315 C -3.77494e-05 15.1996 0.542262 15.7419 1.21038 15.7419 L 8.59433 15.7419 L 8.59433 41.0001 C 8.59433 42.0369 9.43598 42.8786 10.4729 42.8786 C 11.5097 42.8786 12.3514 42.0369 12.3514 41.0001 L 12.3514 33.1996 L 35.1584 33.1996 L 35.1584 41.0001 C 35.1584 42.0369 36 42.8786 37.0369 42.8786 C 38.0738 42.8786 38.9154 42.0369 38.9154 41.0001 L 38.9154 15.7419 L 40.1041 15.7419 C 40.7722 15.7419 41.3145 15.1996 41.3145 14.5315 L 41.3145 13.4729 L 43.9349 13.4729 L 43.9349 22.5749 C 43.9349 23.1302 44.3861 23.5814 44.9414 23.5814 C 45.4968 23.5814 45.9479 23.1302 45.9479 22.5749 L 45.9479 13.4729 L 46.9935 13.4729 C 47.5488 13.4729 48 13.0217 48 12.4664 C 47.9913 12.2018 47.8872 11.9501 47.6963 11.7592 Z M 12.3514 31.4556 L 12.3514 15.7419 L 35.1584 15.7419 L 35.1584 31.4556 Z"
     id="path1"
     style="fill:#000000;stroke-width:0.04338393909300001" />
</svg>
