<?xml version="1.0" encoding="UTF-8" standalone="no"?>
<!-- Created with Inkscape (http://www.inkscape.org/) -->

<svg
   width="1762.705"
   height="1762.705"
   viewBox="0 0 1762.705 1762.7049"
   version="1.1"
   id="svg1"
   inkscape:version="1.4.2 (ebf0e940d0, 2025-05-08)"
   sodipodi:docname="gauntlets.svg"
   xmlns:inkscape="http://www.inkscape.org/namespaces/inkscape"
   xmlns:sodipodi="http://sodipodi.sourceforge.net/DTD/sodipodi-0.dtd"
   xmlns="http://www.w3.org/2000/svg"
   xmlns:svg="http://www.w3.org/2000/svg">
  <sodipodi:namedview
     id="namedview1"
     pagecolor="#ffffff"
     bordercolor="#000000"
     borderopacity="0.25"
     inkscape:showpageshadow="2"
     inkscape:pageopacity="0.0"
     inkscape:pagecheckerboard="0"
     inkscape:deskcolor="#d1d1d1"
     inkscape:document-units="px"
     inkscape:zoom="0.42463235"
     inkscape:cx="973.78355"
     inkscape:cy="1053.8528"
     inkscape:window-width="2256"
     inkscape:window-height="1427"
     inkscape:window-x="0"
     inkscape:window-y="0"
     inkscape:window-maximized="1"
     inkscape:current-layer="svg1" />
  <defs
     id="defs1" />
  <path
     style="fill:#000000"
     d="M 601.931 1370.94 C 587.206 1371.57 570.197 1375.2 551.019 1383.76 C 551.019 1383.76 507.134 1368.24 508.808 1415.95 C 510.808 1472.95 459.309 1465.02 447.742 1499.51 C 531.809 1577.95 637.808 1525.51 637.808 1525.51 C 637.808 1525.51 711.727 1534.01 725.226 1508.51 C 725.226 1508.51 777.808 1515.95 800.808 1496.95 C 800.808 1496.95 803.33 1497.06 807.177 1496.46 C 813.575 1495.47 823.636 1492.5 831.847 1483.74 C 841.131 1472.03 867.272 1449.84 862.246 1404.93 C 862.246 1404.93 862.024 1404.8 861.628 1404.59 C 858.391 1402.87 842.707 1395.5 826.931 1404.93 C 826.931 1404.93 785.223 1382.25 768.724 1398.89 C 768.724 1398.89 710.228 1362.26 669.73 1394.14 C 669.73 1394.14 646.106 1369.04 601.931 1370.94 Z"
     id="path6" />
  <path
     style="fill:#000000"
     d="M 582.902 937.551 C 567.731 997.795 557.771 1067.24 569.58 1125.35 C 589.329 1222.55 702.596 1213.74 774.634 1210.78 C 750.701 1159.3 718.449 1098.41 680.083 1046.6 C 659.239 1018.46 636.594 992.994 612.501 973.181 C 611.643 972.476 593.722 948.494 582.902 937.551 Z"
     id="path4" />
  <path
     style="fill:#000000"
     d="M 572.264 926.023 C 572.264 926.023 510.517 858.487 485.439 868.059 C 466.024 877.407 403.734 917.353 390.937 931.056 C 377.24 940.009 369.274 947.524 355.564 973.305 C 327.809 1012.21 328.154 1040.92 328.154 1040.92 L 267.154 1190.92 C 267.154 1190.92 205.466 1351.46 257.917 1403.32 C 259.917 1369.32 262.693 1363.56 261.917 1370.83 C 254.917 1436.42 315.336 1380.72 328.917 1352.32 C 400.467 1272.81 447.74 1167.99 447.74 1167.99 C 447.74 1167.99 337.154 1506.92 269.154 1531.92 C 200.154 1575.92 189.154 1641.92 219.154 1682.92 C 219.154 1682.92 212.487 1741.58 267.154 1738.25 C 291.066 1738.79 298.486 1756.25 298.486 1756.25 C 306.819 1756.91 303.819 1773.58 378.82 1750.58 L 447.154 1734.25 C 447.154 1734.25 466.487 1734.91 479.82 1745.58 C 496.819 1750.58 531.154 1720.25 531.154 1720.25 C 531.154 1720.25 586.583 1661.7 646.917 1648.37 C 702.353 1603.83 733.184 1577.08 738.152 1547.25 C 736.819 1519.25 768.671 1524.46 768.671 1524.46 L 809.031 1501.68 C 805.184 1502.28 802.66 1502.17 802.66 1502.17 C 779.66 1521.17 727.08 1513.73 727.08 1513.73 C 713.581 1539.23 639.66 1530.72 639.66 1530.72 C 639.66 1530.72 523.318 1581.76 439.251 1503.32 C 453.251 1456.76 504.583 1469.66 502.583 1412.66 C 500.909 1364.94 551.019 1377.09 551.019 1377.09 C 627.731 1342.86 669.73 1387.48 669.73 1387.48 C 710.228 1355.6 768.724 1392.22 768.724 1392.22 C 785.223 1375.59 826.931 1398.27 826.931 1398.27 C 842.707 1388.83 858.391 1396.2 861.628 1397.92 C 828.148 1323.8 814.629 1298.43 814.629 1298.43 C 814.629 1298.43 812.154 1280.24 782.619 1237.13 C 778.119 1196.63 592.454 1276.41 563.38 1133.32 C 535.953 998.34 572.264 926.023 572.264 926.023 Z"
     id="path2" />
  <path
     style="fill:#000000"
     d="M 916.904 382.644 C 944.695 419.868 971.203 455.623 971.203 455.623 C 994.203 479.123 988.869 480.789 988.869 480.789 C 988.955 480.777 1104.25 487.6 1121.92 547.838 L 1121.92 547.847 L 1121.93 547.849 C 1122.34 547.909 1152.44 552.484 1178.92 605.455 C 1179.18 606.301 1179.48 607.133 1179.81 607.955 C 1181.45 612.013 1183.91 615.815 1186.5 619.676 C 1187.35 620.946 1188.21 622.221 1189.06 623.515 C 1189.18 623.702 1189.31 623.889 1189.43 624.076 C 1190.53 625.768 1191.61 627.495 1192.6 629.279 C 1254.89 546.319 1330.51 442.347 1359 389.9 C 1359 389.9 1113.14 438.586 916.904 382.644 Z"
     id="path1" />
  <path
     style="fill:#000000"
     d="M 1048.25 68.8592 C 1048.25 68.8592 895.255 73.5705 814.701 243.639 L 912.415 371.859 C 1108.82 428.255 1367.33 379.449 1367.33 379.449 C 1367.34 379.438 1610.87 79.7292 1594.25 68.8592 C 1386.11 113.816 1224.16 102.339 1132.41 87.5584 C 1077.98 78.7904 1048.25 68.8592 1048.25 68.8592 Z"
     id="path25" />
  <path
     id="path33"
     d="M 378.302 0.48811 C 309.161 -1.36026 223.843 1.8335 119.24 13.6385 C 91.3916 16.7815 62.1775 20.5347 31.5385 24.9647 C -45.8575 419.405 131.643 545.526 159.833 562.816 C 162.221 564.28 163.539 564.965 163.539 564.965 L 307.978 677.232 L 307.982 677.236 C 307.982 677.236 221.984 434.077 304.48 314.023 C 562.467 262.966 832.039 306.465 832.039 306.465 L 813.267 281.082 L 647.539 56.9647 C 647.539 56.9647 585.725 6.03324 378.302 0.48811 Z M 673.669 299.262 C 574.028 294.769 442.138 296.66 313.144 322.189 C 230.649 442.241 316.645 685.393 316.648 685.4 C 422.669 768.844 556.722 876.83 607.9 928.598 C 618.719 939.541 625.839 947.976 628.203 953.131 C 621.69 914.646 703.124 949.219 703.124 949.219 C 703.124 949.219 725.622 979.218 800.619 872.722 C 807.731 862.762 838.119 862.222 838.119 862.222 C 838.119 862.222 860.634 828.303 884.236 797.887 C 885.738 798.36 887.282 798.738 888.884 798.996 C 892.299 796.036 896.644 794.343 901.55 793.588 C 903.964 790.651 906.356 787.815 908.701 785.111 C 901.181 785.144 894.49 786.805 889.656 790.99 C 905.622 770.96 921.338 753.829 930.205 751.131 C 953.205 744.131 989.205 674.131 977.205 613.131 C 977.205 613.131 972.205 590.465 1014.2 578.465 C 1023.34 573.605 978.035 506.953 978.035 506.953 C 973.959 505.589 972.074 502.627 974.871 494.797 C 974.871 494.797 980.203 493.131 957.203 469.631 C 957.203 469.631 930.695 433.874 902.904 396.65 C 874.728 358.911 845.234 319.665 840.703 314.631 C 840.703 314.631 773.31 303.754 673.669 299.262 Z M 982.919 494.801 L 994.253 513.467 C 994.253 513.467 1035.38 577.274 1026.25 582.135 C 984.253 594.135 983.923 622.135 983.923 622.135 C 995.923 683.135 959.923 753.135 936.923 760.135 C 930.369 762.13 920.075 772.01 908.703 785.115 C 906.357 787.818 903.966 790.655 901.552 793.592 C 874.595 826.39 844.837 871.226 844.837 871.226 C 844.837 871.226 814.451 871.766 807.339 881.726 C 732.342 988.221 709.843 958.223 709.843 958.223 C 709.843 958.223 628.409 923.649 634.923 962.135 C 635.784 962.826 636.645 963.527 637.503 964.232 C 661.085 983.625 683.277 1008.43 703.753 1035.87 C 692.317 1021.17 680.219 1007.86 667.828 995.39 C 678.621 1006.42 692.079 1021.24 707.218 1040.55 C 744.647 1091.73 776.148 1151.31 799.636 1201.83 C 803.292 1209.69 806.759 1217.34 810.019 1224.7 C 833.077 1276.74 846.02 1314.49 846.042 1314.55 L 846.042 1314.55 C 846.043 1314.55 846.864 1314.33 848.382 1313.91 L 853.04 1323.74 C 853.034 1323.72 851.799 1320.12 849.419 1313.62 C 865.689 1309.11 936.687 1289.08 972.923 1273.2 C 1005.01 1226.71 1050.33 1207.2 1050.33 1207.2 C 1069.82 1171.21 1117.82 1207.2 1117.82 1207.2 C 1111.82 1159.21 1125.32 1151.71 1125.32 1151.71 L 1303.81 983.017 C 1303.81 983.017 1332.31 922.22 1347.31 883.222 C 1407.31 877.222 1395.31 847.224 1395.31 847.224 L 1315.59 812.801 C 1315.59 812.801 1280.92 780.801 1222.92 766.801 C 1179.84 756.403 1159.94 735.708 1152.55 725.748 C 1150.23 722.624 1149.14 720.558 1148.96 720.195 C 1148.94 720.157 1148.92 720.133 1148.92 720.133 L 1148.99 720.07 C 1189.7 678.896 1187.28 658.869 1178.6 643.291 C 1177.61 641.507 1176.54 639.78 1175.43 638.088 C 1175.31 637.901 1175.19 637.712 1175.07 637.525 C 1174.21 636.231 1173.35 634.955 1172.5 633.685 C 1169.92 629.824 1167.46 626.024 1165.82 621.967 C 1165.48 621.145 1165.18 620.313 1164.92 619.467 C 1138.44 566.495 1108.34 561.918 1107.93 561.859 L 1107.93 561.859 L 1107.92 561.847 C 1090.26 501.609 983.005 494.789 982.919 494.801 Z M 667.828 995.39 C 656.697 984.015 648.407 976.68 644.501 973.418 C 652.493 979.99 660.168 987.684 667.828 995.39 Z M 182.218 589.174 C 184.601 590.641 185.923 591.32 185.923 591.32 C 185.923 591.32 184.606 590.638 182.218 589.174 Z M 1172.81 631.152 C 1174.45 635.21 1176.92 639.012 1179.5 642.873 C 1178.59 641.186 1176.21 636.865 1172.81 631.152 Z M 330.363 703.588 L 330.369 703.592 Z M 1167.99 720.474 C 1175.38 730.434 1195.28 751.127 1238.36 761.525 C 1296.36 775.525 1331.03 807.525 1331.03 807.525 L 1410.75 841.951 C 1410.75 841.951 1415.01 845.178 1410.54 856.074 C 1427.61 880.341 1455.04 893.331 1473.75 917.951 C 1489.75 939.951 1504.75 958.951 1520.75 981.951 C 1534.75 1001.95 1544.75 1020.95 1559.75 1041.95 C 1570.75 1058.95 1590.75 1061.95 1603.75 1076.95 C 1624.75 1099.95 1646.75 1115.95 1665.75 1142.95 C 1666.37 1144.21 1667.4 1145.85 1669.06 1147.15 C 1664.85 1134.59 1679.25 1142.45 1679.25 1142.45 C 1679.25 1142.45 1694.25 1122.95 1679.25 1099.95 C 1664.25 1076.95 1647.75 1060.45 1663.25 1068.95 C 1678.75 1077.45 1676.25 1064.45 1675.25 1052.95 C 1674.25 1041.45 1657.25 1019.45 1638.75 1009.45 C 1636.75 998.951 1632.42 983.097 1622.75 973.951 C 1622.75 973.951 1632.75 954.951 1616.25 939.951 C 1599.75 924.951 1549.79 868.621 1541.25 860.451 C 1521.59 839.118 1508.25 838.785 1508.25 838.785 C 1508.25 838.785 1524.92 829.117 1509.59 817.451 C 1509.59 817.451 1482.59 792.784 1472.25 816.451 C 1471.14 818.88 1461.25 813.785 1461.25 813.785 C 1461.25 813.785 1452.92 808.452 1449.59 808.785 C 1446.25 809.118 1321.7 752.859 1180.36 723.525 C 1174.39 722.779 1170.47 721.716 1167.99 720.474 Z M 1155.99 729.258 L 1155.92 729.32 C 1155.92 729.32 1155.94 729.346 1155.95 729.385 Z M 1403.71 863.445 C 1398.72 875.616 1385.97 889.245 1354.31 892.41 C 1339.31 931.408 1310.81 992.205 1310.81 992.205 L 1132.32 1160.9 C 1132.32 1160.9 1118.82 1168.4 1124.82 1216.39 C 1124.82 1216.39 1076.82 1180.4 1057.33 1216.39 C 1057.33 1216.39 1012.01 1235.89 979.923 1282.39 C 938.835 1300.39 853.053 1323.74 853.042 1323.74 L 931.792 1489.85 C 1008.67 1557.39 1093.92 1466.32 1093.92 1466.32 C 1167.92 1461.32 1241.92 1377.32 1241.92 1377.32 C 1354.92 1339.32 1389.92 1238.32 1389.92 1238.32 C 1483.92 1195.32 1495.92 1136.32 1495.92 1136.32 C 1495.92 1136.32 1489.92 1085.32 1501.92 1081.32 C 1590.92 1101.32 1563.51 1060.56 1563.51 1060.56 C 1559.53 1057.49 1555.89 1053.92 1552.92 1049.32 C 1537.92 1028.32 1527.92 1009.32 1513.92 989.32 C 1497.92 966.32 1482.92 947.32 1466.92 925.32 C 1448.21 900.7 1420.77 887.711 1403.71 863.445 Z M 1569.64 1068.15 C 1569.64 1068.16 1597.04 1108.92 1508.04 1088.92 C 1496.04 1092.92 1502.04 1143.92 1502.04 1143.92 C 1502.04 1143.92 1490.04 1202.92 1396.04 1245.92 C 1396.04 1245.92 1361.04 1346.92 1248.04 1384.92 C 1248.04 1384.92 1174.04 1468.92 1100.04 1473.92 C 1100.04 1473.92 1014.79 1564.98 937.917 1497.45 L 986.046 1598.97 C 986.046 1598.97 1009.78 1626.8 1052.6 1649.87 C 1070.31 1659.41 1091.28 1668.13 1115.19 1673.74 C 1115.21 1673.75 1115.23 1673.75 1115.26 1673.76 C 1123.25 1675.63 1130.76 1676.42 1137.8 1676.36 C 1138.63 1676.35 1139.45 1676.33 1140.27 1676.29 C 1156.79 1676.79 1173.8 1674.38 1190.82 1667.87 C 1255.16 1639.28 1232.27 1603.87 1229.99 1600.62 C 1232.77 1600.85 1239.13 1601.25 1247.82 1601.03 C 1283.58 1600.1 1358.88 1588.51 1387.04 1510.42 C 1391.54 1498.42 1397.48 1506.63 1402.41 1504.68 C 1520.25 1457.9 1528.54 1387.42 1528.54 1387.42 C 1528.54 1387.42 1512.54 1361.92 1571.54 1366.42 C 1630.54 1370.92 1701.04 1280.92 1685.04 1222.42 C 1720.04 1247.42 1718.02 1210.32 1718.02 1210.32 C 1718.02 1210.32 1714.83 1206.34 1709.85 1200.65 C 1699.9 1189.3 1682.75 1171.13 1669.13 1163.98 C 1668.77 1163.79 1668.4 1163.59 1668.04 1163.42 C 1666.37 1161.12 1664.61 1158.61 1662.75 1155.92 C 1662.55 1155.44 1662.38 1154.97 1662.23 1154.52 C 1661.77 1154.17 1661.37 1153.78 1661 1153.39 C 1660.36 1152.46 1659.7 1151.5 1659.02 1150.53 C 1658.99 1150.46 1658.95 1150.39 1658.92 1150.32 C 1658.45 1149.66 1657.98 1149 1657.51 1148.35 C 1656.86 1147.42 1656.2 1146.48 1655.53 1145.52 C 1639.16 1122.27 1614.65 1091.19 1569.64 1068.15 Z M 1717.35 1208.15 C 1720.99 1212.08 1723.4 1215.18 1725.52 1218.03 C 1725.52 1218.01 1725.52 1217.81 1725.52 1217.81 C 1725.52 1217.81 1722.33 1213.83 1717.35 1208.15 Z M 1725.52 1218.03 C 1725.58 1219.29 1726.92 1254.47 1692.54 1229.92 C 1708.54 1288.42 1638.04 1378.42 1579.04 1373.92 C 1520.04 1369.42 1536.04 1394.92 1536.04 1394.92 C 1536.04 1394.92 1527.75 1465.4 1409.91 1512.18 C 1404.98 1514.13 1399.04 1505.92 1394.54 1517.92 C 1366.38 1596.01 1291.09 1607.6 1255.32 1608.53 C 1262.73 1609.83 1272.58 1612.34 1285.44 1616.97 C 1322.94 1630.47 1414.44 1573.75 1394.94 1522.75 C 1414.88 1503.75 1435.43 1528.48 1435.43 1528.48 C 1435.43 1528.48 1498.88 1561.75 1542.88 1510.42 C 1591.55 1474.42 1560.88 1434.42 1560.88 1434.42 C 1560.88 1434.42 1547.55 1374.42 1616.55 1403.42 C 1643.49 1415.42 1652.55 1427.42 1652.55 1427.42 C 1652.55 1427.42 1745.55 1436.42 1750.55 1329.42 C 1723.55 1267.42 1732.55 1232.42 1732.55 1232.42 C 1732.55 1232.42 1733.3 1228.52 1725.52 1218.03 Z M 1228.44 1600.47 C 1228.44 1600.47 1228.89 1600.52 1229.74 1600.6 C 1228.2 1604.95 1203.39 1672.4 1143.51 1676.1 C 1204.37 1671.3 1228.44 1600.47 1228.44 1600.47 Z"
     style="fill:#000000" />
</svg>
