<?xml version="1.0" encoding="UTF-8" standalone="no"?>
<!-- Created with Inkscape (http://www.inkscape.org/) -->

<svg
   width="87.492996"
   height="87.492996"
   viewBox="0 0 87.492996 87.492996"
   version="1.1"
   id="svg1"
   inkscape:version="1.4.2 (ebf0e940d0, 2025-05-08)"
   sodipodi:docname="gloves.svg"
   xmlns:inkscape="http://www.inkscape.org/namespaces/inkscape"
   xmlns:sodipodi="http://sodipodi.sourceforge.net/DTD/sodipodi-0.dtd"
   xmlns="http://www.w3.org/2000/svg"
   xmlns:svg="http://www.w3.org/2000/svg">
  <sodipodi:namedview
     id="namedview1"
     pagecolor="#ffffff"
     bordercolor="#000000"
     borderopacity="0.25"
     inkscape:showpageshadow="2"
     inkscape:pageopacity="0.0"
     inkscape:pagecheckerboard="0"
     inkscape:deskcolor="#d1d1d1"
     inkscape:document-units="px"
     inkscape:zoom="4.8041667"
     inkscape:cx="-23.937554"
     inkscape:cy="58.178665"
     inkscape:window-width="2256"
     inkscape:window-height="1427"
     inkscape:window-x="0"
     inkscape:window-y="0"
     inkscape:window-maximized="1"
     inkscape:current-layer="svg1" />
  <defs
     id="defs1" />
  <path
     d="M 27.7185 67.1329 Z M 27.7185 67.1329 L 0.679498 67.1329 L 1.62872 55.4769 C 1.63653 55.391 1.62091 55.3012 1.58184 55.223 L -0.000157 51.9847 L -0.000157 26.2147 C -0.000157 24.6327 1.25374 23.3475 2.79284 23.3475 C 4.33584 23.3475 5.58974 24.6327 5.58974 26.2147 L 5.58974 38.7377 C 5.58974 38.9994 5.79677 39.2143 6.05068 39.2143 C 6.30849 39.2143 6.51162 39.0033 6.51162 38.7377 L 6.51162 19.5387 C 6.51162 17.9567 7.76552 16.6715 9.30462 16.6715 C 10.8476 16.6715 12.1015 17.9567 12.1015 19.5387 L 12.1015 38.7377 C 12.1015 38.9994 12.3086 39.2143 12.5625 39.2143 C 12.8203 39.2143 13.0234 39.0033 13.0234 38.7377 L 13.0234 15.3627 C 13.0234 13.7807 14.2773 12.4955 15.8164 12.4955 C 17.3594 12.4955 18.6133 13.7807 18.6133 15.3627 L 18.6133 38.7377 C 18.6133 38.9994 18.8203 39.2143 19.0742 39.2143 C 19.3321 39.2143 19.5352 39.0033 19.5352 38.7377 L 19.5352 22.8747 C 19.5352 21.2927 20.7891 20.0075 22.3282 20.0075 C 23.8712 20.0075 25.1251 21.2927 25.1251 22.8747 L 25.1251 42.9137 C 25.1251 43.1051 25.2384 43.2809 25.4102 43.3512 C 25.586 43.4254 25.7813 43.3864 25.9181 43.2497 L 33.8243 35.1442 C 34.2344 34.7301 34.7852 34.4918 35.3634 34.4918 C 35.9376 34.4918 36.4923 34.7301 36.9025 35.1442 L 36.9181 35.1637 C 37.5939 35.8551 37.7501 36.9137 37.3048 37.7809 L 30.0978 51.8159 L 26.8869 55.105 C 26.7931 55.2027 26.7424 55.3394 26.7541 55.48 L 27.6994 67.136 Z M 5.2775 47.0899 L 5.2775 55.4376 C 5.2775 56.3556 6.00406 57.1017 6.8947 57.1017 L 21.5587 57.1017 C 22.4532 57.1017 23.1759 56.3595 23.1759 55.4376 L 23.1759 47.0899 C 23.1759 46.172 22.4493 45.4258 21.5587 45.4258 L 6.8947 45.4258 C 6.00017 45.4258 5.2775 46.168 5.2775 47.0899 Z M 8.5197 48.7501 L 19.9377 48.7501 L 19.9377 53.7774 L 8.5197 53.7774 Z M 59.7897 67.1331 L 60.735 55.4771 C 60.7467 55.3365 60.6959 55.1998 60.6022 55.1021 L 57.3952 51.813 L 50.1882 37.778 C 49.7429 36.9108 49.8991 35.8522 50.571 35.1608 L 50.5905 35.1413 C 51.0007 34.7272 51.5515 34.489 52.1296 34.489 C 52.7078 34.489 53.2624 34.7272 53.6687 35.1413 L 61.5749 43.2468 C 61.7078 43.3835 61.907 43.4265 62.0828 43.3484 C 62.2546 43.2781 62.3679 43.1023 62.3679 42.9109 L 62.3679 22.8719 C 62.3679 21.2899 63.6218 20.0047 65.1609 20.0047 C 66.7039 20.0047 67.9578 21.2899 67.9578 22.8719 L 67.9578 38.7349 C 67.9578 38.9966 68.1648 39.2114 68.4187 39.2114 C 68.6766 39.2114 68.8797 39.0005 68.8797 38.7349 L 68.8797 15.3599 C 68.8797 13.7779 70.1336 12.4927 71.6727 12.4927 C 73.2157 12.4927 74.4696 13.7779 74.4696 15.3599 L 74.4696 38.7349 C 74.4696 38.9966 74.6766 39.2114 74.9305 39.2114 C 75.1883 39.2114 75.3915 39.0005 75.3915 38.7349 L 75.3915 19.5359 C 75.3915 17.9539 76.6454 16.6687 78.1884 16.6687 C 79.7275 16.6687 80.9814 17.9539 80.9814 19.5359 L 80.9814 38.7349 C 80.9814 38.9966 81.1884 39.2114 81.4423 39.2114 C 81.7001 39.2114 81.9033 39.0005 81.9033 38.7349 L 81.9033 26.2119 C 81.9033 24.6299 83.1572 23.3447 84.7002 23.3447 C 86.2392 23.3447 87.4932 24.6299 87.4932 26.2119 L 87.4932 51.9819 L 85.9111 55.2202 C 85.8721 55.2983 85.8565 55.3842 85.8643 55.4741 L 86.8135 67.1301 L 59.7745 67.1301 Z M 82.2307 47.0901 C 82.2307 46.1722 81.5041 45.426 80.6135 45.426 L 65.9495 45.426 C 65.055 45.426 64.3323 46.1682 64.3323 47.0901 L 64.3323 55.4378 C 64.3323 56.3558 65.0589 57.1019 65.9495 57.1019 L 80.6135 57.1019 C 81.508 57.1019 82.2307 56.3597 82.2307 55.4378 Z M 78.9885 48.7503 L 78.9885 53.7776 L 67.5705 53.7776 L 67.5705 48.7503 Z M 87.094 70.4573 L 87.4612 75.0003 L 59.1452 75.0003 L 59.5163 70.4573 Z M 0.413998 70.4573 L 27.988 70.4573 L 28.3552 75.0003 L 0.043188 75.0003 L 0.410378 70.4573 Z"
     fill-rule="evenodd"
     id="path1"
     style="fill:#000000" />
</svg>
