<?xml version="1.0" encoding="UTF-8" standalone="no"?>
<!-- Created with Inkscape (http://www.inkscape.org/) -->

<svg
   width="87.492996"
   height="87.492996"
   viewBox="0 0 87.492996 87.492996"
   version="1.1"
   id="svg1"
   inkscape:version="1.4.2 (ebf0e940d0, 2025-05-08)"
   sodipodi:docname="gloves.svg"
   xmlns:inkscape="http://www.inkscape.org/namespaces/inkscape"
   xmlns:sodipodi="http://sodipodi.sourceforge.net/DTD/sodipodi-0.dtd"
   xmlns="http://www.w3.org/2000/svg"
   xmlns:svg="http://www.w3.org/2000/svg">
  <sodipodi:namedview
     id="namedview1"
     pagecolor="#ffffff"
     bordercolor="#000000"
     borderopacity="0.25"
     inkscape:showpageshadow="2"
     inkscape:pageopacity="0.0"
     inkscape:pagecheckerboard="0"
     inkscape:deskcolor="#d1d1d1"
     inkscape:document-units="px"
     inkscape:zoom="9.6083334"
     inkscape:cx="34.553339"
     inkscape:cy="44.388551"
     inkscape:window-width="2256"
     inkscape:window-height="1427"
     inkscape:window-x="0"
     inkscape:window-y="0"
     inkscape:window-maximized="1"
     inkscape:current-layer="svg1" />
  <defs
     id="defs1" />
  <path
     style="fill:#000000"
     d="M 4.4703446,70.4573 H 32.044347 L 32.411547,75.0003 H 4.0995346 L 4.4667246,70.4573 Z"
     id="path5" />
  <path
     style="fill:#000000"
     d="M 31.774847,67.1329 H 4.7358446 L 5.6850666,55.4769 C 5.6928766,55.391 5.6772566,55.3012 5.6381866,55.223 L 4.0561896,51.9847 V 26.2147 C 4.0561896,24.6327 5.3100866,23.3475 6.8491866,23.3475 8.3921866,23.3475 9.6460866,24.6327 9.6460866,26.2147 V 38.7377 C 9.6460866,38.9994 9.8531166,39.2143 10.107027,39.2143 10.364837,39.2143 10.567967,39.0033 10.567967,38.7377 V 19.5387 C 10.567967,17.9567 11.821867,16.6715 13.360967,16.6715 14.903947,16.6715 16.157847,17.9567 16.157847,19.5387 V 38.7377 C 16.157847,38.9994 16.364947,39.2143 16.618847,39.2143 16.876647,39.2143 17.079747,39.0033 17.079747,38.7377 V 15.3627 C 17.079747,13.7807 18.333647,12.4955 19.872747,12.4955 21.415747,12.4955 22.669647,13.7807 22.669647,15.3627 V 38.7377 C 22.669647,38.9994 22.876647,39.2143 23.130547,39.2143 23.388447,39.2143 23.591547,39.0033 23.591547,38.7377 V 22.8747 C 23.591547,21.2927 24.845447,20.0075 26.384547,20.0075 27.927547,20.0075 29.181447,21.2927 29.181447,22.8747 V 42.9137 C 29.181447,43.1051 29.294747,43.2809 29.466547,43.3512 29.642347,43.4254 29.837647,43.3864 29.974447,43.2497 L 37.880647,35.1442 C 38.290747,34.7301 38.841547,34.4918 39.419747,34.4918 39.993947,34.4918 40.548647,34.7301 40.958847,35.1442 L 40.974447,35.1637 C 41.650247,35.8551 41.806447,36.9137 41.361147,37.7809 L 34.154147,51.8159 30.943247,55.105 C 30.849447,55.2027 30.798747,55.3394 30.810447,55.48 L 31.755747,67.136 Z M 9.3338466,47.0899 V 55.4376 C 9.3338466,56.3556 10.060407,57.1017 10.951047,57.1017 H 25.615047 C 26.509547,57.1017 27.232247,56.3595 27.232247,55.4376 V 47.0899 C 27.232247,46.172 26.505647,45.4258 25.615047,45.4258 H 10.951047 C 10.056517,45.4258 9.3338466,46.168 9.3338466,47.0899 Z M 12.576047,48.7501 H 23.994047 V 53.7774 H 12.576047 Z"
     id="path2" />
  <path
     style="fill:#000000"
     d="M 83.022652,70.455898 H 55.44865 L 55.08145,74.998898 H 83.393462 L 83.026272,70.455898 Z"
     id="path5-5" />
  <path
     style="fill:#000000"
     d="M 55.71815,67.131498 H 82.757152 L 81.80793,55.475498 C 81.80012,55.389598 81.81574,55.299798 81.85481,55.221598 L 83.436807,51.983298 V 26.213298 C 83.436807,24.631298 82.18291,23.346098 80.64381,23.346098 79.10081,23.346098 77.84691,24.631298 77.84691,26.213298 V 38.736298 C 77.84691,38.997998 77.63988,39.212898 77.38597,39.212898 77.12816,39.212898 76.92503,39.001898 76.92503,38.736298 V 19.537298 C 76.92503,17.955298 75.67113,16.670098 74.13203,16.670098 72.58905,16.670098 71.33515,17.955298 71.33515,19.537298 V 38.736298 C 71.33515,38.997998 71.12805,39.212898 70.87415,39.212898 70.61635,39.212898 70.41325,39.001898 70.41325,38.736298 V 15.361298 C 70.41325,13.779298 69.15935,12.494098 67.62025,12.494098 66.07725,12.494098 64.82335,13.779298 64.82335,15.361298 V 38.736298 C 64.82335,38.997998 64.61635,39.212898 64.36245,39.212898 64.10455,39.212898 63.90145,39.001898 63.90145,38.736298 V 22.873298 C 63.90145,21.291298 62.64755,20.006098 61.10845,20.006098 59.56545,20.006098 58.31155,21.291298 58.31155,22.873298 V 42.912298 C 58.31155,43.103698 58.19825,43.279498 58.02645,43.349798 57.85065,43.423998 57.65535,43.384998 57.51855,43.248298 L 49.61235,35.142798 C 49.20225,34.728698 48.65145,34.490398 48.07325,34.490398 47.49905,34.490398 46.94435,34.728698 46.53415,35.142798 L 46.51855,35.162298 C 45.84275,35.853698 45.68655,36.912298 46.13185,37.779498 L 53.33885,51.814498 56.54975,55.103598 C 56.64355,55.201298 56.69425,55.337998 56.68255,55.478598 L 55.73725,67.134598 Z M 78.15915,47.088498 V 55.436198 C 78.15915,56.354198 77.43259,57.100298 76.54195,57.100298 H 61.87795 C 60.98345,57.100298 60.26075,56.358098 60.26075,55.436198 V 47.088498 C 60.26075,46.170598 60.98735,45.424398 61.87795,45.424398 H 76.54195 C 77.43648,45.424398 78.15915,46.166598 78.15915,47.088498 Z M 74.91695,48.748698 H 63.49895 V 53.775998 H 74.91695 Z"
     id="path2-3" />
</svg>
