<?xml version="1.0" encoding="UTF-8" standalone="no"?>
<!-- Created with Inkscape (http://www.inkscape.org/) -->

<svg
   width="7.7119999"
   height="7.7119999"
   viewBox="0 0 7.7119999 7.7119999"
   version="1.1"
   id="svg1"
   inkscape:version="1.4.2 (ebf0e940d0, 2025-05-08)"
   sodipodi:docname="goating.svg"
   xmlns:inkscape="http://www.inkscape.org/namespaces/inkscape"
   xmlns:sodipodi="http://sodipodi.sourceforge.net/DTD/sodipodi-0.dtd"
   xmlns="http://www.w3.org/2000/svg"
   xmlns:svg="http://www.w3.org/2000/svg">
  <sodipodi:namedview
     id="namedview1"
     pagecolor="#ffffff"
     bordercolor="#000000"
     borderopacity="0.25"
     inkscape:showpageshadow="2"
     inkscape:pageopacity="0.0"
     inkscape:pagecheckerboard="0"
     inkscape:deskcolor="#d1d1d1"
     inkscape:document-units="px"
     inkscape:zoom="38.433333"
     inkscape:cx="-0.93668691"
     inkscape:cy="6.283608"
     inkscape:window-width="2256"
     inkscape:window-height="1427"
     inkscape:window-x="0"
     inkscape:window-y="0"
     inkscape:window-maximized="1"
     inkscape:current-layer="svg1" />
  <defs
     id="defs1" />
  <path
     class="fil0"
     d="M 3.3582104,0.25729049 3.2114334,0.52560049 C 3.1943334,0.55674749 3.1648154,0.57527249 3.1293934,0.57690149 3.0939714,0.57852949 3.0627224,0.56295649 3.0427724,0.53364149 L 2.8315644,0.22146149 C 2.8175184,0.20069749 2.7986874,0.18746449 2.7744624,0.18125549 L 2.0886224,0.00333249 C 2.0643974,-0.00287651 2.0414954,-4.3350653e-4 2.0191014,0.01086549 L 1.5651324,0.24100549 C 1.5391774,0.25413549 1.5219754,0.27520549 1.5143414,0.30299349 L 1.3105644,1.0477675 C 1.3041514,1.0708725 1.3059834,1.0926555 1.3158574,1.1145395 L 1.5681874,1.6746725 C 1.5817244,1.7046995 1.6066624,1.7244465 1.6389294,1.7308585 L 1.9867354,1.8004805 C 2.0237854,1.8079115 2.0593094,1.7950865 2.0830254,1.7657715 L 2.3402404,1.4471785 2.0517764,1.5659635 C 2.0428194,1.5696285 2.0336584,1.5720705 2.0244974,1.5730885 L 1.9603714,1.6635775 1.9649524,1.5604675 C 1.9541624,1.5541565 1.9441874,1.5456065 1.9360444,1.5350205 L 1.7917104,1.3487505 1.7887594,1.3448825 1.6466654,1.3497685 1.7708454,1.2899175 C 1.7708454,1.2836065 1.7714554,1.2769905 1.7725754,1.2703745 L 1.8451494,0.87432149 1.6592864,0.70963049 1.8808764,0.80144249 C 1.8848464,0.79818549 1.8890194,0.79513149 1.8937014,0.79238349 L 2.0662304,0.68672849 2.0670444,0.68621949 2.0936114,0.35154449 2.1264884,0.67227449 C 2.1359544,0.67319049 2.1452174,0.67553149 2.1545814,0.67929749 L 2.3671124,0.76428949 C 2.4030434,0.77874349 2.4261494,0.81029749 2.4291004,0.84877249 L 2.4385664,0.97671849 2.3508264,0.90556949 C 2.3341334,0.89193049 2.3160154,0.88490749 2.2946404,0.88368549 L 2.2450704,0.88063149 C 2.2107674,0.87859649 2.1802314,0.89274449 2.1597724,0.92012549 2.1392114,0.94770949 2.1343264,0.98079049 2.1460314,1.0131585 L 2.1649644,1.0650695 C 2.1742264,1.0903125 2.1911234,1.1090415 2.2154504,1.1205435 L 2.3707774,1.1941355 C 2.4143424,1.2147985 2.4365314,1.2627395 2.4239094,1.3093585 L 2.2446624,1.9709735 C 2.2428304,1.9777935 2.2404894,1.9833915 2.2372324,1.9898045 L 1.8318154,2.7876095 C 1.8242834,2.8025715 1.8208224,2.8168215 1.8210264,2.8334135 L 1.8276424,3.5063265 C 1.8277444,3.5241385 1.8319174,3.5394065 1.8407724,3.5547765 L 2.0286714,3.8803925 C 2.0353894,3.8920985 2.0392574,3.9032945 2.0408864,3.9166285 L 2.1493914,4.7300075 C 2.1503074,4.7368275 2.1505104,4.7428325 2.1501034,4.7497545 L 2.0760024,5.8467145 C 2.0746794,5.8668685 2.0062784,6.0727835 1.9876514,6.1627625 L 0.12485145,7.0062705 1.9319714,6.5531155 1.4003384,7.7115555 2.4160684,6.2342255 7.5871484,7.1114245 5.4980784,6.5731755 5.7634364,6.1649085 6.7939264,6.7001035 5.6711164,5.7263085 4.9546384,6.4228355 4.9384544,6.1912705 C 4.9380474,6.1826185 4.9386584,6.1752895 4.9402864,6.1668415 L 5.1060974,5.3379915 C 5.1109834,5.3134605 5.1073194,5.2907625 5.0946974,5.2691835 L 4.9437474,5.0077945 C 4.9348924,4.9925265 4.9308204,4.9774625 4.9305154,4.9597515 L 4.9240014,4.5097515 C 4.9238994,4.5037455 4.9243064,4.4985545 4.9253244,4.4925495 L 5.0263984,3.8649315 C 5.0282304,3.8533275 5.0282304,3.8430475 5.0260934,3.8315455 L 4.9913834,3.6405935 C 5.0546954,3.6638005 5.1308314,3.6657345 5.2079854,3.6512805 5.3148614,3.6312285 5.2645794,3.6330605 5.2134824,3.5760605 5.1341904,3.4874035 5.0250754,3.3833775 4.9291914,3.3143665 4.9246104,3.3039835 4.9181984,3.2946195 4.9096484,3.2859675 L 4.6417454,3.0117535 C 4.6328894,3.0026945 4.6239324,2.9963835 4.6123284,2.9910915 L 3.6818944,2.5625685 C 3.6623514,2.5536105 3.6479994,2.5404805 3.6374134,2.5218535 L 3.4068664,2.1170475 C 3.3826414,2.0745005 3.3926164,2.0217745 3.4306844,1.9911375 L 3.5058034,1.9303705 C 3.5328784,1.9086895 3.5458054,1.8773395 3.5420394,1.8427325 L 3.4635624,1.1171955 3.4766924,1.1132255 C 3.5076354,1.1039625 3.5382734,1.1094595 3.5640254,1.1286965 3.5899814,1.1480365 3.6039254,1.1757225 3.6039254,1.2080905 V 1.3374615 C 3.6039254,1.3638245 3.6130864,1.3865225 3.6312044,1.4056585 L 3.7118204,1.4902435 C 3.7330934,1.5126365 3.7606774,1.5230195 3.7913154,1.5205765 L 3.9527494,1.5075475 C 3.9859324,1.5047995 4.0133124,1.4876995 4.0301074,1.4588935 L 4.1725074,1.2155215 4.0795764,1.2439195 C 4.0625774,1.2490095 4.0468004,1.2557275 4.0305144,1.2582715 L 3.9921414,1.3310495 3.9883754,1.2539965 3.9724964,1.2502305 C 3.9277104,1.2396445 3.8963594,1.2004575 3.8963594,1.1540425 V 0.91443649 C 3.8963594,0.90110249 3.9011434,0.89041449 3.9035864,0.87748749 L 3.9523424,0.61447049 C 3.9555994,0.59716649 3.9608924,0.58271349 3.9588574,0.56520549 L 3.9325964,0.35593149 C 3.9288294,0.32570149 3.9133584,0.30127249 3.8878094,0.28478249 L 3.7094784,0.17088349 C 3.6861694,0.15592149 3.6605194,0.15164649 3.6333424,0.15805849 L 3.4220324,0.20844349 C 3.3938374,0.21516149 3.3720544,0.23175249 3.3582114,0.25730049 Z M 2.2064904,5.9546105 2.2895484,5.0082985 C 2.2906684,4.9974075 2.2931114,4.9880425 2.2974874,4.9780675 L 2.3842104,4.7798885 C 2.3877724,4.7714405 2.3900124,4.7641115 2.3913354,4.7550525 L 2.4593294,4.3085135 C 2.4673704,4.2555845 2.5162274,4.2185345 2.5692584,4.2252525 L 2.7472844,4.2475435 C 2.7866754,4.2524295 2.8178224,4.2783845 2.8295274,4.3162495 L 2.9309074,4.6427815 C 2.9351824,4.6565225 2.9364044,4.6689405 2.9346734,4.6832925 L 2.9051554,4.9431545 C 2.9030184,4.9624945 2.9058684,4.9794925 2.9142144,4.9969995 L 2.9778314,5.1298325 C 2.9835314,5.1418425 2.9864834,5.1528355 2.9872974,5.1660685 L 3.0385984,5.9394455 2.3006434,5.7493075 Z M 3.2445104,5.9925765 3.2183514,5.1875455 C 3.2180454,5.1788935 3.2187584,5.1714625 3.2205904,5.1629125 L 3.2703644,4.9389815 C 3.2729094,4.9274795 3.2733164,4.9169955 3.2718914,4.9052905 L 3.2552994,4.7733745 C 3.2536714,4.7598365 3.2545874,4.7480295 3.2581494,4.7348985 L 3.3260414,4.4876585 C 3.3400884,4.4363585 3.3922034,4.4053135 3.4440124,4.4175275 L 3.5432544,4.4408365 C 3.5737914,4.4479615 3.5971004,4.4669965 3.6103324,4.4953945 L 3.7770594,4.8528695 C 3.7835734,4.8668145 3.7919204,4.8776035 3.8038294,4.8873755 L 4.0635894,5.1008225 C 4.0888324,5.1215865 4.1014534,5.1505965 4.0993164,5.1832695 L 4.0378374,6.1968595 3.2445104,5.9925735 Z M 4.1713814,6.2313695 4.2918974,5.4979945 4.3686444,5.0441265 C 4.3736324,5.0147105 4.3664054,4.9875335 4.3473714,4.9646315 L 4.2203414,4.8110355 C 4.2116894,4.8005515 4.2059894,4.7902705 4.2019174,4.7772425 L 4.1515334,4.6134675 4.2646184,4.6642585 C 4.2832454,4.6727075 4.2970884,4.6846165 4.3078774,4.7020215 L 4.4960814,5.0032085 C 4.5006624,5.0104355 4.5052424,5.0162375 4.5114514,5.0221415 L 4.8051064,5.3033785 C 4.8276014,5.3250585 4.8379834,5.3529485 4.8350314,5.3840955 L 4.7299874,6.3752955 Z"
     id="path1"
     style="fill:#000000;image-rendering:optimizeQuality;shape-rendering:geometricPrecision;text-rendering:geometricPrecision" />
</svg>
