<?xml version="1.0" encoding="UTF-8" standalone="no"?>
<!-- Created with Inkscape (http://www.inkscape.org/) -->

<svg
   width="82.356003"
   height="82.356003"
   viewBox="0 0 82.356003 82.356003"
   version="1.1"
   id="svg1"
   inkscape:version="1.4.2 (ebf0e940d0, 2025-05-08)"
   sodipodi:docname="grill.svg"
   xmlns:inkscape="http://www.inkscape.org/namespaces/inkscape"
   xmlns:sodipodi="http://sodipodi.sourceforge.net/DTD/sodipodi-0.dtd"
   xmlns="http://www.w3.org/2000/svg"
   xmlns:svg="http://www.w3.org/2000/svg">
  <sodipodi:namedview
     id="namedview1"
     pagecolor="#ffffff"
     bordercolor="#000000"
     borderopacity="0.25"
     inkscape:showpageshadow="2"
     inkscape:pageopacity="0.0"
     inkscape:pagecheckerboard="0"
     inkscape:deskcolor="#d1d1d1"
     inkscape:document-units="px"
     inkscape:zoom="4.8041667"
     inkscape:cx="41.526453"
     inkscape:cy="91.066783"
     inkscape:window-width="2256"
     inkscape:window-height="1427"
     inkscape:window-x="0"
     inkscape:window-y="0"
     inkscape:window-maximized="1"
     inkscape:current-layer="svg1" />
  <defs
     id="defs1" />
  <g
     id="g14"
     style="fill:#000000">
    <path
       d="M 78.569 11.758 L 78.569 11.735 L 78.569 11.727 C 78.562 9.056 75.037 6.255 69.056 4.108 L 69.056 19.361 C 75.027 17.219 78.549 14.425 78.569 11.758 Z"
       id="path1"
       style="fill:#000000" />
    <path
       d="M 31.146 0.52 C 28.841 0.727 26.593 1.009 24.437 1.361 L 24.437 22.111 C 26.595 22.463 28.843 22.745 31.146 22.952 Z"
       id="path2"
       style="fill:#000000" />
    <path
       d="M 22.223 1.75 C 19.809 2.209 17.561 2.755 15.512 3.378 L 15.512 20.091 C 17.562 20.715 19.811 21.261 22.223 21.72 Z"
       id="path3"
       style="fill:#000000" />
    <path
       d="M 13.298 19.362 L 13.298 4.109 C 7.315 6.257 3.789 9.059 3.785 11.731 L 3.785 11.736 L 3.785 11.75 C 3.798 14.419 7.322 17.217 13.298 19.362 Z"
       id="path4"
       style="fill:#000000" />
    <path
       d="M 48.996 0.344 C 46.794 0.191 44.546 0.103 42.284 0.082 L 42.284 23.387 C 44.543 23.366 46.794 23.279 48.996 23.126 Z"
       id="path5"
       style="fill:#000000" />
    <path
       d="M 66.843 3.379 C 64.793 2.755 62.545 2.209 60.131 1.751 L 60.131 21.721 C 62.545 21.262 64.793 20.716 66.843 20.093 Z"
       id="path6"
       style="fill:#000000" />
    <path
       d="M 57.918 1.36 C 55.76 1.008 53.512 0.726 51.209 0.519 L 51.209 22.95 C 53.513 22.743 55.761 22.461 57.918 22.109 Z"
       id="path7"
       style="fill:#000000" />
    <path
       d="M 40.071 0.082 C 37.81 0.104 35.561 0.192 33.359 0.344 L 33.359 23.126 C 35.561 23.278 37.812 23.365 40.071 23.387 Z"
       id="path8"
       style="fill:#000000" />
    <path
       d="M 64.581 30.11 L 64.581 28.912 C 64.581 26.98 66.153 25.409 68.084 25.409 L 75.99 25.409 C 77.084 22.628 77.832 19.746 78.229 16.794 C 76.128 18.764 72.768 20.525 68.288 21.962 L 68.284 21.963 C 68.28 21.964 68.276 21.965 68.273 21.967 C 65.586 22.831 62.549 23.56 59.25 24.132 L 59.244 24.133 C 59.234 24.135 59.224 24.137 59.214 24.138 C 56.346 24.639 53.309 25.016 50.189 25.259 C 47.258 25.49 44.232 25.608 41.196 25.609 C 41.19 25.609 41.184 25.61 41.178 25.61 C 41.172 25.61 41.166 25.609 41.16 25.609 C 38.124 25.608 35.098 25.491 32.166 25.259 C 29.047 25.016 26.009 24.639 23.14 24.138 C 23.131 24.136 23.122 24.135 23.113 24.133 L 23.105 24.132 C 19.808 23.56 16.773 22.832 14.085 21.968 C 14.079 21.966 14.074 21.965 14.068 21.963 L 14.067 21.962 C 9.587 20.525 6.228 18.763 4.126 16.794 C 4.524 19.747 5.272 22.629 6.366 25.41 L 14.272 25.41 C 16.204 25.41 17.775 26.982 17.775 28.913 L 17.775 30.111 C 17.775 32.043 16.203 33.614 14.272 33.614 L 10.854 33.614 C 14.043 38.026 18.187 41.728 22.942 44.39 C 25.18 45.644 27.55 46.666 29.987 47.427 C 32.442 48.195 34.991 48.711 37.564 48.959 C 39.945 49.188 42.411 49.188 44.793 48.959 C 47.366 48.711 49.915 48.195 52.369 47.427 C 54.806 46.666 57.176 45.644 59.414 44.39 C 64.17 41.727 68.313 38.025 71.502 33.613 L 68.084 33.613 C 66.152 33.613 64.581 32.041 64.581 30.11 Z"
       id="path9"
       style="fill:#000000" />
    <path
       d="M 81.065 27.621 L 68.084 27.621 C 67.373 27.621 66.794 28.2 66.794 28.911 L 66.794 30.109 C 66.794 30.82 67.373 31.399 68.084 31.399 L 73.564 31.399 L 73.604 31.399 L 81.066 31.399 C 81.777 31.399 82.356 30.82 82.356 30.109 L 82.356 28.911 C 82.355 28.2 81.776 27.621 81.065 27.621 Z"
       id="path10"
       style="fill:#000000" />
    <path
       d="M 15.561 30.11 L 15.561 28.912 C 15.561 28.201 14.982 27.622 14.271 27.622 L 1.29 27.622 C 0.579 27.622 0 28.201 0 28.912 L 0 30.11 C 0 30.821 0.579 31.4 1.29 31.4 L 8.758 31.4 L 8.789 31.4 L 14.271 31.4 C 14.983 31.399 15.561 30.821 15.561 30.11 Z"
       id="path11"
       style="fill:#000000" />
    <path
       d="M 54.39 49.082 L 75.217 81.89 L 77.203 80.744 L 59.494 46.86 C 57.846 47.722 56.137 48.465 54.39 49.082 Z"
       id="path12"
       style="fill:#000000" />
    <path
       d="M 5.152 80.745 L 7.138 81.891 L 27.965 49.082 C 26.218 48.464 24.509 47.722 22.862 46.861 Z"
       id="path13"
       style="fill:#000000" />
    <path
       d="M 38.619 51.261 L 40.028 82.273 L 42.326 82.273 L 43.735 51.261 C 42.885 51.315 42.029 51.345 41.177 51.345 C 40.325 51.345 39.469 51.315 38.619 51.261 Z"
       id="path14"
       style="fill:#000000" />
  </g>
</svg>
