<?xml version="1.0" encoding="UTF-8" standalone="no"?>
<!-- Created with Inkscape (http://www.inkscape.org/) -->

<svg
   width="85"
   height="85"
   viewBox="0 0 85 85"
   version="1.1"
   id="svg1"
   inkscape:version="1.4.2 (ebf0e940d0, 2025-05-08)"
   sodipodi:docname="handheld.svg"
   xmlns:inkscape="http://www.inkscape.org/namespaces/inkscape"
   xmlns:sodipodi="http://sodipodi.sourceforge.net/DTD/sodipodi-0.dtd"
   xmlns="http://www.w3.org/2000/svg"
   xmlns:svg="http://www.w3.org/2000/svg">
  <sodipodi:namedview
     id="namedview1"
     pagecolor="#ffffff"
     bordercolor="#000000"
     borderopacity="0.25"
     inkscape:showpageshadow="2"
     inkscape:pageopacity="0.0"
     inkscape:pagecheckerboard="0"
     inkscape:deskcolor="#d1d1d1"
     inkscape:document-units="px"
     inkscape:zoom="9.6083333"
     inkscape:cx="15.039029"
     inkscape:cy="41.994796"
     inkscape:window-width="2256"
     inkscape:window-height="1427"
     inkscape:window-x="0"
     inkscape:window-y="0"
     inkscape:window-maximized="1"
     inkscape:current-layer="svg1" />
  <defs
     id="defs1" />
  <path
     id="rect1"
     d="M 33.869141,0 C 33.189141,0 32.630859,0.560234 32.630859,1.240234 V 21.810547 H 37.699219 V 1.240234 C 37.689219,0.560234 37.140938,0 36.460938,0 Z M 47.910156,21.769531 C 47.830156,21.769531 47.759766,21.839922 47.759766,21.919922 V 25.830078 H 52.699219 V 21.919922 C 52.699219,21.829922 52.640547,21.769531 52.560547,21.769531 Z M 31.810547,22.810547 V 27.849609 H 38.5 V 22.810547 Z M 47.279297,26.820312 V 27.849609 H 53.189453 V 26.820312 Z M 30,28.849609 C 28.72,28.849609 27.679688,29.889922 27.679688,31.169922 V 48.980469 C 27.679688,49.830469 27.990781,50.639297 28.550781,51.279297 29.270781,52.099297 29.669922,53.150234 29.669922,54.240234 V 82 C 29.669922,83.66 31.019922,85 32.669922,85 H 52.330078 C 53.990078,85 55.330078,83.65 55.330078,82 V 54.240234 C 55.330078,53.150234 55.729219,52.099297 56.449219,51.279297 57.009219,50.639297 57.320312,49.830469 57.320312,48.980469 V 31.169922 C 57.310313,29.889922 56.27,28.849609 55,28.849609 Z M 31.800781,32.160156 H 53.199219 C 53.749219,32.160156 54.199219,32.610156 54.199219,33.160156 V 48.470703 C 54.199219,49.020703 53.749219,49.470703 53.199219,49.470703 H 31.800781 C 31.250781,49.470703 30.800781,49.020703 30.800781,48.470703 V 33.160156 C 30.800781,32.610156 31.250781,32.160156 31.800781,32.160156 Z M 31.800781,33.160156 V 48.470703 H 53.199219 V 33.160156 Z M 31.890625,53.439453 H 53.119141 C 53.719141,53.439453 54.210937,53.929297 54.210938,54.529297 V 55.150391 H 54.199219 C 54.199219,55.750391 53.709375,56.240234 53.109375,56.240234 H 31.890625 C 31.290625,56.240234 30.800781,55.750391 30.800781,55.150391 V 54.529297 C 30.800781,53.929297 31.290625,53.439453 31.890625,53.439453 Z M 31.890625,54.449219 C 31.840625,54.449219 31.800781,54.489063 31.800781,54.539062 V 55.160156 C 31.800781,55.210156 31.840625,55.25 31.890625,55.25 H 53.119141 C 53.169141,55.25 53.210938,55.210156 53.210938,55.160156 V 54.539062 C 53.200937,54.489062 53.159375,54.449219 53.109375,54.449219 Z M 31.890625,57.359375 H 53.119141 C 53.719141,57.359375 54.210937,57.849219 54.210938,58.449219 V 59.070312 H 54.199219 C 54.199219,59.670312 53.709375,60.160156 53.109375,60.160156 H 31.890625 C 31.290625,60.160156 30.800781,59.670313 30.800781,59.070312 V 58.449219 C 30.800781,57.849219 31.290625,57.359375 31.890625,57.359375 Z M 31.890625,58.369141 C 31.840625,58.369141 31.800781,58.410938 31.800781,58.460938 V 59.080078 C 31.800781,59.130078 31.840625,59.169922 31.890625,59.169922 H 53.119141 C 53.169141,59.169922 53.210938,59.130078 53.210938,59.080078 V 58.460938 C 53.200937,58.410937 53.159375,58.369141 53.109375,58.369141 Z M 31.890625,61.279297 H 53.119141 C 53.719141,61.279297 54.210937,61.769141 54.210938,62.369141 V 62.990234 H 54.199219 C 54.199219,63.590234 53.709375,64.080078 53.109375,64.080078 H 31.890625 C 31.290625,64.080078 30.800781,63.590234 30.800781,62.990234 V 62.369141 C 30.800781,61.769141 31.290625,61.279297 31.890625,61.279297 Z M 31.890625,62.289062 C 31.840625,62.289062 31.800781,62.330859 31.800781,62.380859 V 63 C 31.800781,63.05 31.840625,63.089844 31.890625,63.089844 H 53.119141 C 53.169141,63.089844 53.210938,63.05 53.210938,63 V 62.380859 C 53.200937,62.320859 53.159375,62.289063 53.109375,62.289062 Z M 31.890625,65.199219 H 53.119141 C 53.719141,65.199219 54.210937,65.689063 54.210938,66.289062 V 66.910156 H 54.199219 C 54.199219,67.510156 53.709375,68 53.109375,68 H 31.890625 C 31.290625,68 30.800781,67.510156 30.800781,66.910156 V 66.289062 C 30.800781,65.689063 31.290625,65.199219 31.890625,65.199219 Z M 31.871094,66.210938 C 31.829941,66.219277 31.800781,66.257031 31.800781,66.300781 V 66.919922 C 31.800781,66.969922 31.840625,67.009766 31.890625,67.009766 H 53.119141 C 53.169141,67.009766 53.210938,66.969922 53.210938,66.919922 V 66.300781 C 53.200937,66.240781 53.159375,66.210937 53.109375,66.210938 H 31.890625 C 31.884375,66.210938 31.876973,66.209746 31.871094,66.210938 Z M 33.169922,69.779297 H 37.789062 C 38.279063,69.779297 38.679688,70.179922 38.679688,70.669922 V 72.580078 C 38.679688,73.070078 38.279063,73.470703 37.789062,73.470703 H 33.169922 C 32.679922,73.470703 32.279297,73.070078 32.279297,72.580078 V 70.669922 C 32.279297,70.179922 32.679922,69.779297 33.169922,69.779297 Z M 40.189453,69.779297 H 44.810547 C 45.300547,69.779297 45.699219,70.179922 45.699219,70.669922 V 72.580078 C 45.699219,73.070078 45.300547,73.470703 44.810547,73.470703 H 40.189453 C 39.699453,73.470703 39.300781,73.070078 39.300781,72.580078 V 70.669922 C 39.300781,70.179922 39.699453,69.779297 40.189453,69.779297 Z M 47.210938,69.779297 H 51.830078 C 52.320078,69.779297 52.720703,70.179922 52.720703,70.669922 V 72.580078 C 52.720703,73.070078 52.320078,73.470703 51.830078,73.470703 H 47.210938 C 46.720937,73.470703 46.320312,73.070078 46.320312,72.580078 V 70.669922 C 46.320312,70.179922 46.720937,69.779297 47.210938,69.779297 Z M 33.279297,70.779297 V 72.470703 H 37.679688 V 70.779297 Z M 40.300781,70.779297 V 72.470703 H 44.699219 V 70.779297 Z M 47.320312,70.779297 V 72.470703 H 51.720703 V 70.779297 Z M 33.169922,74.099609 H 37.789062 C 38.279063,74.099609 38.679688,74.500234 38.679688,74.990234 V 76.900391 C 38.679688,77.390391 38.279063,77.789063 37.789062,77.789062 H 33.169922 C 32.679922,77.789062 32.279297,77.390391 32.279297,76.900391 V 74.990234 C 32.279297,74.500234 32.679922,74.099609 33.169922,74.099609 Z M 40.189453,74.099609 H 44.810547 C 45.300547,74.099609 45.699219,74.500234 45.699219,74.990234 V 76.900391 C 45.699219,77.390391 45.300547,77.789063 44.810547,77.789062 H 40.189453 C 39.699453,77.789062 39.300781,77.390391 39.300781,76.900391 V 74.990234 C 39.300781,74.500234 39.699453,74.099609 40.189453,74.099609 Z M 47.210938,74.099609 H 51.830078 C 52.320078,74.099609 52.720703,74.500234 52.720703,74.990234 V 76.900391 C 52.720703,77.390391 52.320078,77.789063 51.830078,77.789062 H 47.210938 C 46.720937,77.789062 46.320312,77.390391 46.320312,76.900391 V 74.990234 C 46.320312,74.500234 46.720937,74.099609 47.210938,74.099609 Z M 33.279297,75.099609 V 76.789062 H 37.679688 V 75.099609 Z M 40.300781,75.099609 V 76.789062 H 44.699219 V 75.099609 Z M 47.320312,75.099609 V 76.789062 H 51.720703 V 75.099609 Z M 33.169922,78.419922 H 37.789062 C 38.279063,78.419922 38.679688,78.820547 38.679688,79.310547 V 81.220703 C 38.679688,81.710703 38.279063,82.10938 37.789062,82.10938 H 33.169922 C 32.679922,82.10938 32.279297,81.710703 32.279297,81.220703 V 79.310547 C 32.279297,78.820547 32.679922,78.419922 33.169922,78.419922 Z M 40.189453,78.419922 H 44.810547 C 45.300547,78.419922 45.699219,78.820547 45.699219,79.310547 V 81.220703 C 45.699219,81.710703 45.300547,82.10938 44.810547,82.10938 H 40.189453 C 39.699453,82.10938 39.300781,81.710703 39.300781,81.220703 V 79.310547 C 39.300781,78.820547 39.699453,78.419922 40.189453,78.419922 Z M 47.210938,78.419922 H 51.830078 C 52.320078,78.419922 52.720703,78.820547 52.720703,79.310547 V 81.220703 C 52.720703,81.710703 52.320078,82.10938 51.830078,82.10938 H 47.210938 C 46.720937,82.10938 46.320312,81.710703 46.320312,81.220703 V 79.310547 C 46.320312,78.820547 46.720937,78.419922 47.210938,78.419922 Z M 33.279297,79.419922 V 81.109375 H 37.679688 V 79.419922 Z M 40.300781,79.419922 V 81.109375 H 44.699219 V 79.419922 Z M 47.320312,79.419922 V 81.109375 H 51.720703 V 79.419922 Z"
     style="fill:#000000" />
</svg>
