<?xml version="1.0" encoding="UTF-8" standalone="no"?>
<!-- Created with Inkscape (http://www.inkscape.org/) -->

<svg
   width="94.945999"
   height="94.945999"
   viewBox="0 0 94.945999 94.945999"
   version="1.1"
   id="svg1"
   inkscape:version="1.4.2 (ebf0e940d0, 2025-05-08)"
   sodipodi:docname="hatchet.svg"
   xmlns:inkscape="http://www.inkscape.org/namespaces/inkscape"
   xmlns:sodipodi="http://sodipodi.sourceforge.net/DTD/sodipodi-0.dtd"
   xmlns="http://www.w3.org/2000/svg"
   xmlns:svg="http://www.w3.org/2000/svg">
  <sodipodi:namedview
     id="namedview1"
     pagecolor="#ffffff"
     bordercolor="#000000"
     borderopacity="0.25"
     inkscape:showpageshadow="2"
     inkscape:pageopacity="0.0"
     inkscape:pagecheckerboard="0"
     inkscape:deskcolor="#d1d1d1"
     inkscape:document-units="px"
     inkscape:zoom="4.8041667"
     inkscape:cx="17.692975"
     inkscape:cy="103.55594"
     inkscape:window-width="2256"
     inkscape:window-height="1427"
     inkscape:window-x="0"
     inkscape:window-y="0"
     inkscape:window-maximized="1"
     inkscape:current-layer="svg1" />
  <defs
     id="defs1" />
  <path
     d="M 30.256259,23.790975 C 30.256259,24.919875 30.291416,26.611275 30.537509,28.622975 30.713289,30.244075 30.889069,31.126875 31.100009,32.642475 31.100009,32.642475 31.451569,35.111275 31.771889,39.060475 31.912509,40.931575 32.123449,46.185475 30.396889,57.931475 29.869549,61.423675 29.619549,62.622875 27.326589,76.521475 27.326589,76.521475 27.115649,77.720675 26.584399,82.587875 26.162519,86.255875 26.021899,88.021475 26.373459,90.169875 26.478929,90.912065 26.654709,91.580075 26.830489,92.216775 27.076579,93.099585 27.748459,93.837875 28.631289,94.122975 29.193789,94.298755 29.795389,94.474535 30.502389,94.615165 31.455509,94.790945 33.322689,95.177665 35.685989,94.755795 36.990689,94.544855 38.119589,94.119075 39.072689,93.697195 40.307089,93.095635 40.978889,91.755795 40.693789,90.380795 39.459389,84.419895 39.389089,79.587795 39.564889,76.200795 39.740669,72.778895 39.951609,71.403895 41.185989,63.430795 41.185989,63.430795 42.033649,56.833095 42.666489,50.063795 43.228989,44.243495 43.830589,35.743795 43.725089,24.774795 39.213389,24.497455 34.736789,24.145885 30.256089,23.790415 Z"
     id="path1"
     style="fill:#000000" />
  <path
     d="M 71.279259,11.165975 C 70.998009,7.3573749 70.185459,4.0409749 69.267559,1.3612749 68.951149,0.44330489 68.033159,-0.11922511 67.080059,0.02147489 66.162089,0.16210489 65.068359,0.33788489 63.869159,0.47850489 60.025359,0.97069489 56.142559,1.2558449 49.654159,1.3964749 44.326059,1.5019449 42.880759,1.3613189 36.463159,1.3613189 32.724859,1.3613189 29.478759,1.3964749 26.904559,1.4316319 25.033459,1.4667879 23.517859,3.0175319 23.552959,4.8886319 L 23.728739,18.927632 C 23.728739,20.337832 24.857639,21.501832 26.267839,21.537032 29.935839,21.677652 34.275639,21.853442 38.931839,22.138592 40.377139,22.208904 42.248239,22.314372 44.681839,22.775312 45.529499,22.915932 48.420139,23.482342 52.228739,24.927612 53.744339,25.490112 54.732639,25.951012 59.318539,28.173712 61.045139,29.021372 63.127139,30.009612 65.455239,31.173712 66.408359,31.630742 67.537239,31.244025 67.959139,30.255742 68.521639,28.951042 69.123239,27.400242 69.685739,25.599542 71.525539,19.630742 71.525539,14.372542 71.279539,11.165542 Z M 66.623059,12.751875 C 66.552746,18.326075 65.529259,22.981875 64.470759,26.333875 63.587949,26.228405 62.669959,26.087785 61.791059,25.982315 63.060559,22.068215 64.259859,16.634615 63.943359,10.181315 63.837889,7.9235149 63.556639,5.8415149 63.201169,4.0094149 64.083979,3.8687949 64.962869,3.7633249 65.845669,3.6226949 66.302699,6.1538949 66.658169,9.2593949 66.623009,12.751595 Z"
     id="path2"
     style="fill:#000000" />
</svg>
