<?xml version="1.0" encoding="UTF-8" standalone="no"?>
<!-- Created with Inkscape (http://www.inkscape.org/) -->

<svg
   width="5.3330002"
   height="5.3330002"
   viewBox="0 0 5.3330001 5.3330002"
   version="1.1"
   id="svg1"
   inkscape:version="1.4.2 (ebf0e940d0, 2025-05-08)"
   sodipodi:docname="hunters.svg"
   xmlns:inkscape="http://www.inkscape.org/namespaces/inkscape"
   xmlns:sodipodi="http://sodipodi.sourceforge.net/DTD/sodipodi-0.dtd"
   xmlns="http://www.w3.org/2000/svg"
   xmlns:svg="http://www.w3.org/2000/svg">
  <sodipodi:namedview
     id="namedview1"
     pagecolor="#ffffff"
     bordercolor="#000000"
     borderopacity="0.25"
     inkscape:showpageshadow="2"
     inkscape:pageopacity="0.0"
     inkscape:pagecheckerboard="0"
     inkscape:deskcolor="#d1d1d1"
     inkscape:document-units="px"
     inkscape:zoom="108.70588"
     inkscape:cx="5.1193182"
     inkscape:cy="4.1626082"
     inkscape:window-width="2256"
     inkscape:window-height="1427"
     inkscape:window-x="0"
     inkscape:window-y="0"
     inkscape:window-maximized="1"
     inkscape:current-layer="svg1" />
  <defs
     id="defs1" />
  <path
     id="path2"
     style="fill:#000000;image-rendering:optimizeQuality;shape-rendering:geometricPrecision;text-rendering:geometricPrecision"
     class="fil0"
     d="M 5.0728848,0.796875 C 5.078041,0.79761112 5.0837755,0.79864425 5.0885098,0.80078125 5.1062108,0.80876925 5.1197598,0.82649538 5.1197598,0.84960938 V 1.1953125 H 5.2252285 C 5.2838965,1.1953125 5.3326504,1.2421123 5.3326504,1.3007812 V 1.4921875 C 5.3326504,1.5508565 5.2838975,1.5996094 5.2252285,1.5996094 H 5.1197598 V 1.6582031 C 5.1197598,1.6772741 5.1094162,1.693696 5.0943692,1.703125 5.0813172,1.711282 5.0655534,1.7159204 5.0514004,1.7246094 5.0034834,1.7540304 4.919708,1.8193242 4.889291,1.9257812 4.8864238,1.934647 4.8815912,1.9429935 4.8756192,1.9492188 4.8659838,1.9577629 4.8510174,1.9651604 4.8365567,1.9648438 H 3.9771816 C 3.9414927,2.0311587 3.7940647,2.3263286 3.8365566,2.5722656 3.8453437,2.6058326 3.8190033,2.6386719 3.7838223,2.6386719 H 3.4693692 C 3.3391992,2.6386719 3.2367664,2.7017602 3.1764004,2.8164062 3.1396684,2.8861583 3.1195168,2.96588 3.1041348,3.03125 3.0960168,3.06575 3.0896263,3.0969759 3.0806973,3.1230469 3.0431933,3.2325309 2.9345424,3.3082973 2.8014004,3.3476562 2.7066564,3.3756602 2.5994018,3.3864411 2.4947598,3.3769531 2.3887798,3.3673431 2.2864413,3.3361452 2.2056973,3.2851562 2.1118073,3.2258653 2.0458424,3.1385274 2.0357754,3.0214844 2.0342204,3.0037214 2.0336953,2.986781 2.0338223,2.96875 1.9507273,2.962581 1.8749522,2.9172604 1.8443692,2.8964844 1.4354672,2.8798274 1.4823454,3.2912216 1.4889004,3.3378906 1.4920974,3.3511816 1.490769,3.3674693 1.483041,3.3789062 1.283608,3.6999253 1.4163898,3.8948506 1.4322598,3.9160156 1.4471808,3.9332756 1.4513552,3.9613507 1.4381192,3.9804688 L 1.3443692,4.1269531 V 4.3574219 C 1.3443691,4.3945629 1.3192534,4.4433421 1.2701504,4.4550781 0.95496942,4.5359251 0.70748032,4.5538894 0.51819732,4.5214844 0.12718132,4.4545394 -0.02194268,4.1745883 0.00257232,3.8007812 0.01817432,3.5629042 0.10317532,3.2822464 0.23694732,2.9902344 0.24971532,2.9623684 0.29154392,2.8637661 0.30921292,2.8457031 0.66780292,2.4871171 0.99729652,1.8983306 1.0221035,1.8535156 1.0288314,1.8393292 1.0436388,1.8275466 1.0592129,1.8242188 1.0603399,1.8240685 1.0639347,1.8223242 1.0650723,1.8222656 1.1400403,1.8146246 1.2144535,1.8028452 1.2877285,1.7851562 1.3684965,1.7657192 1.4411754,1.7410876 1.5045254,1.7128906 1.5665254,1.6852876 1.7213112,1.6258939 1.7037442,1.5449219 1.6656142,1.3692879 1.3006123,1.2932207 1.2994473,1.2929688 1.2756793,1.2878508 1.2614867,1.2684839 1.2584316,1.2480469 1.2566975,1.2364425 1.2582257,1.2234733 1.264291,1.2128906 1.2658427,1.2106234 1.2701375,1.2051877 1.2721035,1.203125 1.2753684,1.2002111 1.2815428,1.1956264 1.2857754,1.1933594 1.2994324,1.1858124 1.405716,1.1290736 1.514291,1.1191406 1.588504,1.1123486 1.6638017,1.1273045 1.7115566,1.1953125 1.7237636,1.2126945 1.7295892,1.2222234 1.733041,1.2265625 L 1.7349942,1.2285156 H 1.7369473 1.7389004 C 1.7605574,1.2077716 1.7868715,1.1820103 1.8346035,1.1757812 1.8872495,1.1689153 1.933015,1.1885195 1.967416,1.2109375 1.986527,1.1470835 1.9928066,1.0950901 1.9928066,1.0800781 V 0.93164062 C 1.9928066,0.90218763 2.016088,0.87890625 2.045541,0.87890625 H 2.2603848 C 2.2898368,0.87890625 2.3131192,0.90218762 2.3131192,0.93164062 V 1.0273438 H 4.7701504 L 5.0279629,0.8125 C 5.0301037,0.81036175 5.0334503,0.80831897 5.0357754,0.80664062 5.0465782,0.80009439 5.0612833,0.79521872 5.0728848,0.796875 Z M 3.4088223,1.6796875 H 2.6119473 C 2.5130533,1.6796875 2.5203883,1.7910156 2.6119473,1.7910156 H 3.4088223 Z M 2.6568692,2.5957031 C 2.5939448,2.5975756 2.5312158,2.6063953 2.4713223,2.6210938 2.4260783,2.7272398 2.4122205,2.8432375 2.4752285,2.9453125 2.4972245,2.9809465 2.5245265,3.0115863 2.5533535,3.0351562 2.5852825,3.0612592 2.6246535,3.0834164 2.6627285,3.0996094 2.6897635,3.1111134 2.7015763,3.1428869 2.6900723,3.1699219 2.6785683,3.1969579 2.6467948,3.2087696 2.6197598,3.1972656 2.5745118,3.1779866 2.5312037,3.1516608 2.4928066,3.1210938 2.4539437,3.0901528 2.4157268,3.0511141 2.3853848,3.0019531 2.3331478,2.9173221 2.3059321,2.8051925 2.3443692,2.6640625 2.3449672,2.6637905 2.1989563,2.7218784 2.1588223,2.8339844 2.1119123,2.9650354 2.1402399,3.1182065 2.2623379,3.1953125 2.3284869,3.2370845 2.4144824,3.2613663 2.5045254,3.2695312 2.5959034,3.2778192 2.6897065,3.2704478 2.7721035,3.2460938 2.8737965,3.2160308 2.9540128,3.1631778 2.9791348,3.0898438 2.9862728,3.0689968 2.9930962,3.0397925 3.0006192,3.0078125 3.0183631,2.9323955 3.0409158,2.8386702 3.0885098,2.7539062 3.0706548,2.7275562 3.05177,2.7068541 3.029916,2.6894531 3.001097,2.6665081 2.9663722,2.6485175 2.9224942,2.6328125 2.8962582,2.6234195 2.8679279,2.6169341 2.8404629,2.6113281 2.7822149,2.5994186 2.7197935,2.5938306 2.6568692,2.5957031 Z M 1.0846035,2.9667969 C 0.92934452,3.0176279 0.66006152,3.145956 0.50647852,3.453125 0.43062452,3.604826 0.38146902,3.7502236 0.37366602,3.8691406 0.36896502,3.9408776 0.37973132,4.002662 0.40882232,4.046875 0.43656632,4.08904 0.48308952,4.1188274 0.55335352,4.1308594 0.62981752,4.1439494 0.73113632,4.1356846 0.86194732,4.1035156 L 0.89905662,3.9453125 C 0.87444962,3.8990645 0.83688422,3.790164 0.92249422,3.640625 0.91776622,3.582858 0.91706832,3.4161876 1.0650723,3.3691406 0.98006032,3.2379836 1.0314895,3.0744429 1.0846035,2.9667969 Z M 0.64515042,3.6601562 C 0.72645342,3.6601563 0.79163482,3.7271848 0.79163482,3.8085938 0.79163482,3.8898978 0.72655542,3.9570312 0.64515042,3.9570312 0.56358042,3.9570312 0.49671292,3.8901648 0.49671292,3.8085938 0.49671292,3.7272867 0.56374142,3.6601562 0.64515042,3.6601562 Z" />
  <path
     class="fil0"
     d="M 0.60361942,3.8086165 C 0.60361942,3.7858055 0.62183942,3.7675655 0.64467042,3.7675655 0.66748142,3.7675655 0.68572142,3.7857855 0.68572142,3.8086165 0.68572142,3.8314235 0.66749742,3.8496635 0.64467042,3.8496635 0.62198942,3.8496635 0.60361942,3.8312975 0.60361942,3.8086165 Z"
     id="path3"
     style="fill:#ffffff;image-rendering:optimizeQuality;shape-rendering:geometricPrecision;text-rendering:geometricPrecision" />
</svg>
