<?xml version="1.0" encoding="UTF-8" standalone="no"?>
<!-- Created with Inkscape (http://www.inkscape.org/) -->

<svg
   width="64.004997"
   height="64.004997"
   viewBox="0 0 64.004998 64.004997"
   version="1.1"
   id="svg1"
   inkscape:version="1.4.2 (ebf0e940d0, 2025-05-08)"
   sodipodi:docname="knife.svg"
   xmlns:inkscape="http://www.inkscape.org/namespaces/inkscape"
   xmlns:sodipodi="http://sodipodi.sourceforge.net/DTD/sodipodi-0.dtd"
   xmlns="http://www.w3.org/2000/svg"
   xmlns:svg="http://www.w3.org/2000/svg">
  <sodipodi:namedview
     id="namedview1"
     pagecolor="#ffffff"
     bordercolor="#000000"
     borderopacity="0.25"
     inkscape:showpageshadow="2"
     inkscape:pageopacity="0.0"
     inkscape:pagecheckerboard="0"
     inkscape:deskcolor="#d1d1d1"
     inkscape:document-units="px"
     inkscape:zoom="9.6083333"
     inkscape:cx="46.522116"
     inkscape:cy="43.347789"
     inkscape:window-width="2256"
     inkscape:window-height="1427"
     inkscape:window-x="0"
     inkscape:window-y="0"
     inkscape:window-maximized="1"
     inkscape:current-layer="svg1" />
  <defs
     id="defs1" />
  <path
     d="M 42.237695,25.889999 C 52.167695,16.219999 60.807695,7.7799986 60.507695,2.4099986 56.907695,5.6399986 52.477695,7.9999986 47.067695,9.5999986 L 30.367695,26.399999 35.997695,32.019999 C 38.107695,29.909999 40.207695,27.869999 42.237695,25.889999 Z"
     id="path1"
     style="fill:#000000" />
  <path
     d="M 62.927695,-1.373291e-6 C 62.447695,0.53999863 61.947695,1.0699986 61.427695,1.5699986 62.627695,7.4399986 53.917695,15.929999 42.947695,26.629999 40.917695,28.599999 38.827695,30.649999 36.707695,32.749999 L 37.827695,33.869999 C 39.867695,31.889999 41.917695,29.949999 43.907695,28.079999 55.087695,17.499999 64.797695,8.3199986 62.927695,-1.373291e-6 Z"
     id="path2"
     style="fill:#000000" />
  <path
     d="M 37.497695,34.959999 37.447695,34.919999 29.287695,26.759999 28.627695,26.099999 C 28.467695,25.939999 28.247695,25.849999 28.037695,25.849999 27.817695,25.849999 27.607695,25.929999 27.447695,26.099999 27.117695,26.429999 27.117695,26.959999 27.447695,27.289999 L 37.217695,37.069999 C 37.547695,37.399999 38.077695,37.399999 38.417695,37.069999 38.577695,36.909999 38.667695,36.689999 38.667695,36.479999 38.667695,36.249999 38.587695,36.039999 38.417695,35.879999 Z"
     id="path3"
     style="fill:#000000" />
  <path
     d="M 3.7576946,52.629999 11.867695,60.739999 12.657695,59.939999 C 12.157695,58.419999 12.617695,56.649999 13.887695,55.329999 15.037695,54.129999 16.557695,53.609999 18.037695,53.849999 17.867695,52.519999 18.297695,51.169999 19.267695,50.109999 20.357695,48.929999 21.937695,48.309999 23.487695,48.409999 23.157695,47.069999 23.547695,45.619999 24.597695,44.489999 25.677695,43.309999 27.177695,42.749999 28.647695,42.899999 28.587695,42.579999 28.597695,42.229999 28.677695,41.869999 29.057695,40.049999 31.047695,37.999999 32.917695,37.469999 33.937695,37.189999 34.887695,37.359999 35.637695,37.939999 L 36.137695,37.439999 27.087695,28.399999 Z"
     id="path4"
     style="fill:#000000" />
  <path
     d="M 11.507695,61.829999 2.3276946,52.649999 C 2.1676946,52.479999 1.9376946,52.389999 1.7176946,52.389999 1.4876946,52.389999 1.2676946,52.469999 1.1076946,52.649999 0.75769464,52.989999 0.75769464,53.539999 1.1076946,53.879999 L 10.977695,63.749999 C 11.317695,64.089999 11.867695,64.089999 12.207695,63.749999 12.547695,63.409999 12.547695,62.859999 12.207695,62.519999 Z"
     id="path5"
     style="fill:#000000" />
</svg>
