<?xml version="1.0" encoding="UTF-8" standalone="no"?>
<!-- Created with Inkscape (http://www.inkscape.org/) -->

<svg
   width="120"
   height="120"
   viewBox="0 0 120 120"
   version="1.1"
   id="svg1"
   inkscape:version="1.4.2 (ebf0e940d0, 2025-05-08)"
   sodipodi:docname="improvcrampons.svg"
   xmlns:inkscape="http://www.inkscape.org/namespaces/inkscape"
   xmlns:sodipodi="http://sodipodi.sourceforge.net/DTD/sodipodi-0.dtd"
   xmlns="http://www.w3.org/2000/svg"
   xmlns:svg="http://www.w3.org/2000/svg">
  <sodipodi:namedview
     id="namedview1"
     pagecolor="#ffffff"
     bordercolor="#000000"
     borderopacity="0.25"
     inkscape:showpageshadow="2"
     inkscape:pageopacity="0.0"
     inkscape:pagecheckerboard="0"
     inkscape:deskcolor="#d1d1d1"
     inkscape:document-units="px"
     inkscape:zoom="3.3970588"
     inkscape:cx="63.584416"
     inkscape:cy="141.15152"
     inkscape:window-width="2256"
     inkscape:window-height="1427"
     inkscape:window-x="0"
     inkscape:window-y="0"
     inkscape:window-maximized="1"
     inkscape:current-layer="svg1" />
  <defs
     id="defs1" />
  <path
     fill="#000000"
     opacity="1"
     d="M 11.9511 66.1116 C 12.4111 65.2366 13.2761 64.6891 14.1511 64.2916 C 24.4011 70.1391 34.6636 75.9691 44.9211 81.8066 C 49.7836 75.7191 54.6711 69.5991 60.4186 64.3091 C 61.7111 65.6816 63.0036 67.0541 64.2911 68.4316 C 62.0661 70.3666 59.9686 72.4541 58.1186 74.7541 C 55.3886 78.2091 53.0736 81.9741 50.9211 85.8091 C 54.0061 88.1391 57.0886 90.4716 60.1711 92.8066 C 60.6261 93.1266 61.0461 93.6291 61.6586 93.5791 C 66.2461 93.7366 70.8311 93.8966 75.4186 94.0616 C 81.807 94.419 87.2611 94.3016 89.4286 94.3141 C 90.6911 92.8691 91.6511 91.0841 91.7936 89.1416 C 91.9911 86.4216 91.5411 83.7016 90.9286 81.0591 L 96.1761 81.0591 C 96.7261 82.7666 97.1811 84.5116 97.4211 86.2916 C 97.7986 89.0966 97.2636 91.9641 96.1836 94.5616 C 101.356 94.4026 102.181 94.7368 107.421 94.4809 C 109.276 94.582 108.671 94.382 109.921 94.8595 C 110.911 95.517 114.921 96.3091 116.239 97.3085 C 111.674 97.6825 110.475 98.4711 98.1436 98.6116 C 83.5077 98.8001 68.2676 98.7681 52.2919 98.7073 C 44.807 98.7644 41.0368 98.6395 30.1711 98.8091 C 21.4611 98.8091 12.7536 98.8116 4.04364 98.8066 C 3.97114 97.1341 4.02864 95.4541 3.79614 93.7941 C 3.65364 92.9116 3.93364 91.8291 4.82614 91.4541 C 6.38114 90.8816 8.06114 91.2466 9.66614 91.3191 C 19.0811 91.5741 28.5011 91.8091 37.9161 92.0616 C 39.2536 90.0641 40.5861 88.0616 41.9211 86.0591 C 31.7511 80.4741 21.5811 74.8841 11.4086 69.3066 C 11.4311 68.2266 11.4586 67.0966 11.9511 66.1116 M 47.7136 89.6166 C 47.1186 90.4866 46.5186 91.3541 45.9236 92.2266 C 47.9836 92.3466 50.0436 92.4841 52.1036 92.5916 C 50.6511 91.5866 49.1536 90.6416 47.7136 89.6166 Z"
     id="path1"
     style="fill:#000000;stroke-width:0.25" />
  <path
     style="fill:#000000;paint-order:stroke fill markers;stroke:#000000;stroke-linecap:round;stroke-linejoin:round;stroke-miterlimit:3.9;stroke-width:0.0"
     d="M 27.3702 98.694 L 34.9252 113.952 L 42.4802 98.6351 Z"
     id="path2" />
  <path
     style="fill:#000000;paint-order:stroke fill markers;stroke:#000000;stroke-linecap:round;stroke-linejoin:round;stroke-miterlimit:3.9;stroke-width:0.0"
     d="M 4.01263 98.616 L 11.5676 113.874 L 19.1227 98.557 Z"
     id="path2-2" />
  <path
     style="fill:#000000;paint-order:stroke fill markers;stroke:#000000;stroke-linecap:round;stroke-linejoin:round;stroke-miterlimit:3.9;stroke-width:0.0"
     d="M 90.1669 98.4332 L 97.7219 113.692 L 105.277 98.3743 Z"
     id="path2-4" />
  <path
     style="fill:#000000;paint-order:stroke fill markers;stroke:#000000;stroke-linecap:round;stroke-linejoin:round;stroke-miterlimit:3.9;stroke-width:0.0"
     d="M 67.4591 98.7416 L 75.0141 114 L 82.5691 98.6827 Z"
     id="path2-44" />
  <path
     style="fill:#000000;paint-order:stroke fill markers;stroke:#000000;stroke-linecap:round;stroke-linejoin:round;stroke-miterlimit:3.9;stroke-width:0.0"
     d="M 10.8551 97.7293 L 16.8991 109.936 L 22.9431 97.6822 Z"
     id="path2-0" />
  <path
     style="fill:#000000;paint-order:stroke fill markers;stroke:#000000;stroke-linecap:round;stroke-linejoin:round;stroke-miterlimit:3.9;stroke-width:0.0"
     d="M 34.3991 97.7057 L 40.4431 109.912 L 46.4872 97.6586 Z"
     id="path2-0-8" />
  <path
     style="fill:#000000;paint-order:stroke fill markers;stroke:#000000;stroke-linecap:round;stroke-linejoin:round;stroke-miterlimit:3.9;stroke-width:0.0"
     d="M 73.3551 97.7293 L 79.3991 109.936 L 85.4431 97.6822 Z"
     id="path2-0-88" />
  <path
     style="fill:#000000;paint-order:stroke fill markers;stroke:#000000;stroke-linecap:round;stroke-linejoin:round;stroke-miterlimit:3.9;stroke-width:0.0"
     d="M 95.8551 97.7293 L 101.899 109.936 L 107.943 97.6822 Z"
     id="path2-0-3" />
  <path
     fill="#000000"
     opacity="1"
     d="M 11.9511 7.82001 C 12.4111 6.94501 13.2761 6.39751 14.1511 6.00001 C 24.4011 11.8475 34.6636 17.6775 44.9211 23.515 C 49.7836 17.4275 54.6711 11.3075 60.4186 6.01751 C 61.7111 7.39001 63.0036 8.76251 64.2911 10.14 C 62.0661 12.075 59.9686 14.1625 58.1186 16.4625 C 55.3886 19.9175 53.0736 23.6825 50.9211 27.5175 C 54.0061 29.8475 57.0886 32.18 60.1711 34.515 C 60.6261 34.835 61.0461 35.3375 61.6586 35.2875 C 66.2461 35.445 70.8311 35.605 75.4186 35.77 C 81.807 36.1274 87.2611 36.01 89.4286 36.0225 C 90.6911 34.5775 91.6511 32.7925 91.7936 30.85 C 91.9911 28.13 91.5411 25.41 90.9286 22.7675 L 96.1761 22.7675 C 96.7261 24.475 97.1811 26.22 97.4211 28 C 97.7986 30.805 97.2636 33.6725 96.1836 36.27 C 101.356 36.111 102.181 36.4452 107.421 36.1893 C 109.276 36.2904 108.671 36.0904 109.921 36.5679 C 110.911 37.2254 114.921 38.0175 116.239 39.0169 C 111.674 39.3909 110.475 40.1795 98.1436 40.32 C 83.5077 40.5085 68.2676 40.4764 52.2919 40.4157 C 44.807 40.4728 41.0368 40.3479 30.1711 40.5175 C 21.4611 40.5175 12.7536 40.52 4.04364 40.515 C 3.97114 38.8425 4.02864 37.1625 3.79614 35.5025 C 3.65364 34.62 3.93364 33.5375 4.82614 33.1625 C 6.38114 32.59 8.06114 32.955 9.66614 33.0275 C 19.0811 33.2825 28.5011 33.5175 37.9161 33.77 C 39.2536 31.7725 40.5861 29.77 41.9211 27.7675 C 31.7511 22.1825 21.5811 16.5925 11.4086 11.015 C 11.4311 9.93501 11.4586 8.80501 11.9511 7.82001 M 47.7136 31.325 C 47.1186 32.195 46.5186 33.0625 45.9236 33.935 C 47.9836 34.055 50.0436 34.1925 52.1036 34.3 C 50.6511 33.295 49.1536 32.35 47.7136 31.325 Z"
     id="path3"
     style="fill:#000000;stroke-width:0.25" />
  <path
     style="fill:#000000;paint-order:stroke fill markers;stroke:#000000;stroke-linecap:round;stroke-linejoin:round;stroke-miterlimit:3.9;stroke-width:0.0"
     d="M 27.3702 40.4024 L 34.9252 55.6608 L 42.4802 40.3435 Z"
     id="path4" />
  <path
     style="fill:#000000;paint-order:stroke fill markers;stroke:#000000;stroke-linecap:round;stroke-linejoin:round;stroke-miterlimit:3.9;stroke-width:0.0"
     d="M 4.01263 40.3244 L 11.5676 55.5828 L 19.1227 40.2654 Z"
     id="path5" />
  <path
     style="fill:#000000;paint-order:stroke fill markers;stroke:#000000;stroke-linecap:round;stroke-linejoin:round;stroke-miterlimit:3.9;stroke-width:0.0"
     d="M 90.1669 40.1416 L 97.7219 55.4 L 105.277 40.0827 Z"
     id="path6" />
  <path
     style="fill:#000000;paint-order:stroke fill markers;stroke:#000000;stroke-linecap:round;stroke-linejoin:round;stroke-miterlimit:3.9;stroke-width:0.0"
     d="M 67.4591 40.45 L 75.0141 55.7084 L 82.5691 40.3911 Z"
     id="path7" />
  <path
     style="fill:#000000;paint-order:stroke fill markers;stroke:#000000;stroke-linecap:round;stroke-linejoin:round;stroke-miterlimit:3.9;stroke-width:0.0"
     d="M 10.8551 39.4377 L 16.8991 51.6444 L 22.9431 39.3906 Z"
     id="path8" />
  <path
     style="fill:#000000;paint-order:stroke fill markers;stroke:#000000;stroke-linecap:round;stroke-linejoin:round;stroke-miterlimit:3.9;stroke-width:0.0"
     d="M 34.3991 39.4141 L 40.4431 51.6209 L 46.4872 39.367 Z"
     id="path9" />
  <path
     style="fill:#000000;paint-order:stroke fill markers;stroke:#000000;stroke-linecap:round;stroke-linejoin:round;stroke-miterlimit:3.9;stroke-width:0.0"
     d="M 73.3551 39.4377 L 79.3991 51.6444 L 85.4431 39.3906 Z"
     id="path10" />
  <path
     style="fill:#000000;paint-order:stroke fill markers;stroke:#000000;stroke-linecap:round;stroke-linejoin:round;stroke-miterlimit:3.9;stroke-width:0.0"
     d="M 95.8551 39.4377 L 101.899 51.6444 L 107.943 39.3906 Z"
     id="path11" />
</svg>
