<?xml version="1.0" encoding="UTF-8" standalone="no"?>
<!-- Created with Inkscape (http://www.inkscape.org/) -->

<svg
   width="72.599998"
   height="72.599998"
   viewBox="0 0 72.599999 72.599998"
   version="1.1"
   id="svg1"
   inkscape:version="1.4.2 (ebf0e940d0, 2025-05-08)"
   sodipodi:docname="improvknife.svg"
   xmlns:inkscape="http://www.inkscape.org/namespaces/inkscape"
   xmlns:sodipodi="http://sodipodi.sourceforge.net/DTD/sodipodi-0.dtd"
   xmlns="http://www.w3.org/2000/svg"
   xmlns:svg="http://www.w3.org/2000/svg">
  <sodipodi:namedview
     id="namedview1"
     pagecolor="#ffffff"
     bordercolor="#000000"
     borderopacity="0.25"
     inkscape:showpageshadow="2"
     inkscape:pageopacity="0.0"
     inkscape:pagecheckerboard="0"
     inkscape:deskcolor="#d1d1d1"
     inkscape:document-units="px"
     inkscape:zoom="4.8041667"
     inkscape:cx="3.8508239"
     inkscape:cy="48.603643"
     inkscape:window-width="2256"
     inkscape:window-height="1427"
     inkscape:window-x="0"
     inkscape:window-y="0"
     inkscape:window-maximized="1"
     inkscape:current-layer="svg1" />
  <defs
     id="defs1" />
  <path
     style="stroke-width:1.21;fill:#000000"
     d="M 34.589097,29.039853 H 39.930157 A 1.21,1.21 0 0 1 41.078087,29.867009 L 44.336617,39.649859 H 44.341097 L 63.734367,20.25671 C 64.452137,19.650258 68.970157,15.274898 68.970157,1.2098589 A 1.21,1.21 0 0 0 67.066587,0.21850585 L 54.966587,8.6885049 A 1.188099,1.188099 0 0 0 54.804687,8.8243879 Z"
     id="path1" />
  <path
     id="path1-6"
     style="stroke-width:1.21;fill:#000000"
     d="M 32.169368,31.458984 30.59515,33.033203 38.011165,45.980469 H 39.931087 A 1.21,1.21 0 0 0 40.786556,45.625 L 33.507259,31.458984 Z M 35.612728,31.458984 41.909603,44.501953 43.030697,43.380859 43.024837,43.369141 39.05804,31.458984 Z M 29.292415,34.335938 26.768978,36.859375 35.33929,48.650391 36.794368,47.197266 Z M 25.233822,38.394531 23.542415,40.085938 32.669368,51.320312 34.296322,49.693359 Z M 32.669368,51.320312 32.315853,54.095703 A 1.209153,1.209153 0 0 0 32.669368,53.240234 Z M 32.315853,54.095703 21.706478,41.921875 19.536556,44.091797 30.499447,55.910156 Z M 18.079525,45.548828 16.362728,47.265625 25.911556,58.080078 H 27.829525 A 1.21,1.21 0 0 0 28.684994,57.724609 Z M 16.362728,47.265625 14.749447,48.878906 23.84515,62.564453 A 1.209153,1.209153 0 0 0 24.200618,61.708984 V 59.791016 L 25.056087,58.935547 Z M 12.874447,50.753906 11.243587,52.384766 20.216244,66.195312 22.030697,64.380859 Z M 20.216244,66.195312 19.360775,66.550781 A 1.21,1.21 0 0 0 20.216244,66.195312 Z M 19.360775,66.550781 11.061947,52.617188 9.7240561,54.847656 17.440853,66.550781 Z M 11.061947,52.617188 11.243587,52.384766 A 1.177088,1.177088 0 0 0 11.061947,52.617188 Z M 8.6029621,56.714844 7.4330401,58.666016 16.585384,69.826172 A 1.209153,1.209153 0 0 0 16.940853,68.970703 V 67.050781 Z M 16.585384,69.826172 6.6576501,59.957031 5.7299151,61.503906 15.374447,71.037109 Z M 4.7553061,63.126953 3.8021812,64.716797 A 1.211815,1.211815 0 0 0 3.7162442,65.789062 L 6.1361651,71.839844 A 1.21121,1.21121 0 0 0 7.2592121,72.599609 H 13.309994 A 1.21,1.21 0 0 0 14.165462,72.246094 Z" />
</svg>
