<?xml version="1.0" encoding="UTF-8" standalone="no"?>
<!-- Created with Inkscape (http://www.inkscape.org/) -->

<svg
   width="145.202"
   height="145.202"
   viewBox="0 0 145.202 145.20199"
   version="1.1"
   id="svg1"
   inkscape:version="1.4.2 (ebf0e940d0, 2025-05-08)"
   sodipodi:docname="insulboots.svg"
   xmlns:inkscape="http://www.inkscape.org/namespaces/inkscape"
   xmlns:sodipodi="http://sodipodi.sourceforge.net/DTD/sodipodi-0.dtd"
   xmlns="http://www.w3.org/2000/svg"
   xmlns:svg="http://www.w3.org/2000/svg">
  <sodipodi:namedview
     id="namedview1"
     pagecolor="#ffffff"
     bordercolor="#000000"
     borderopacity="0.25"
     inkscape:showpageshadow="2"
     inkscape:pageopacity="0.0"
     inkscape:pagecheckerboard="0"
     inkscape:deskcolor="#d1d1d1"
     inkscape:document-units="px"
     inkscape:zoom="3.3970588"
     inkscape:cx="39.298702"
     inkscape:cy="87.281386"
     inkscape:window-width="2256"
     inkscape:window-height="1427"
     inkscape:window-x="0"
     inkscape:window-y="0"
     inkscape:window-maximized="1"
     inkscape:current-layer="svg1" />
  <defs
     id="defs1" />
  <path
     d="M 87.207001,99.796533 69.156001,91.597334 C 65.409901,89.886433 63.003701,86.152033 62.999801,82.034834 V 72.519233 C 66.593601,71.245834 68.995901,67.847333 68.999801,64.034833 V 46.038843 C 68.956801,40.863043 64.726401,36.695045 59.546701,36.726345 57.398301,36.699001 55.308401,37.417755 53.632601,38.765443 52.245901,40.003743 50.148201,40.003743 48.761501,38.765443 45.288801,36.042745 40.406001,36.042745 36.933501,38.765443 35.546801,40.003743 33.449101,40.003743 32.062401,38.765443 28.589701,36.042745 23.706901,36.042745 20.234401,38.765443 18.847701,40.003743 16.750001,40.003743 15.363301,38.765443 13.691401,37.421645 11.601601,36.699045 9.453101,36.726345 4.273401,36.695095 0.0429,40.863043 0,46.038843 V 64.030833 C 0.003906,67.843333 2.406201,71.241733 6.000001,72.515233 V 129.72623 C 6.000001,131.38243 7.343801,132.72623 9.000001,132.72623 H 37.000001 C 38.656201,132.72623 40.000001,131.38243 40.000001,129.72623 V 120.72623 H 48.000001 V 129.72623 C 48.000001,131.38243 49.343801,132.72623 51.000001,132.72623 H 93.000001 C 94.656201,132.72623 96.000001,131.38243 96.000001,129.72623 V 113.45323 C 95.992201,107.57433 92.558601,102.23823 87.207001,99.797234 Z M 90.000001,113.45253 V 114.72593 H 12.000001 V 85.452933 C 16.730501,86.800634 19.992201,91.117034 20.000001,96.034933 V 105.72633 C 20.000001,107.38253 21.343801,108.72633 23.000001,108.72633 H 63.000001 C 64.656201,108.72633 66.000001,107.38253 66.000001,105.72633 65.992201,102.83963 67.375001,100.12863 69.714801,98.437234 L 84.726801,105.26143 C 87.933801,106.72233 89.996301,109.92553 90.000201,113.45283 Z M 76.000001,120.72593 V 126.72593 H 68.000001 V 120.72593 Z M 64.000001,95.518934 C 62.125001,97.534533 60.843801,100.03063 60.300801,102.72593 H 25.999801 V 96.034533 C 25.988101,87.807934 20.097501,80.764533 11.999801,79.300533 V 73.034933 H 40.999801 V 82.034933 C 40.999801,83.691133 42.343601,85.034933 43.999801,85.034933 H 57.276801 C 58.065901,89.269334 60.479901,93.031033 63.999501,95.518934 Z M 57.000001,79.034933 H 47.000001 V 73.034933 H 57.000001 Z M 6.000001,46.038944 C 6.039061,44.171743 7.585901,42.691243 9.453101,42.726443 10.355401,42.706913 11.230401,43.038943 11.886701,43.656133 13.562501,45.003833 15.652301,45.726433 17.800801,45.695233 19.949201,45.722583 22.043001,45.003823 23.714901,43.656133 25.101601,42.417833 27.199301,42.417833 28.586001,43.656133 32.058701,46.378833 36.941501,46.378833 40.414001,43.656133 41.800701,42.417833 43.898401,42.417833 45.285101,43.656133 48.757801,46.378833 53.640601,46.378833 57.113101,43.656133 57.773301,43.038943 58.644301,42.706913 59.546701,42.726443 61.413901,42.691293 62.956901,44.171743 62.999801,46.038944 V 64.030934 C 62.999801,65.687133 61.656001,67.030934 59.999801,67.030934 L 8.999801,67.034833 C 7.343601,67.034833 5.999801,65.691034 5.999801,64.034833 Z M 12.000001,120.72693 H 20.000001 V 126.72693 H 12.000001 Z M 34.000001,126.72693 H 26.000001 V 120.72693 H 34.000001 Z M 54.000001,120.72693 H 62.000001 V 126.72693 H 54.000001 Z M 82.000001,126.72693 V 120.72693 H 90.000001 V 126.72693 Z"
     id="path1" />
  <path
     style="fill:#000000;stroke:none;stroke-width:2;stroke-linecap:round;stroke-linejoin:round;stroke-miterlimit:3.9;paint-order:stroke fill markers"
     d="M 9.860361,81.513233 9.392021,118.16103 92.523001,117.80983 91.937501,108.20873 84.561101,101.65193 69.222901,94.743933 65.007801,98.607733 63.134401,105.74993 45.805701,105.63283 23.208201,105.51583 22.739801,94.158433 19.812701,87.133333 Z"
     id="path10" />
  <path
     d="M 138.16726,62.934253 123.72646,56.374893 C 120.72958,55.006174 118.80462,52.018653 118.8015,48.724893 V 41.112413 C 121.67654,40.093693 123.59838,37.374893 123.6015,34.324893 V 19.928101 C 123.5671,15.787461 120.18278,12.453063 116.03902,12.478103 114.3203,12.456228 112.64838,13.031231 111.30774,14.109381 110.19838,15.100021 108.52022,15.100021 107.41086,14.109381 104.6327,11.931223 100.72646,11.931223 97.94846,14.109381 96.8391,15.100021 95.16094,15.100021 94.05158,14.109381 91.27342,11.931223 87.36718,11.931223 84.589178,14.109381 83.479818,15.100021 81.801658,15.100021 80.692298,14.109381 79.354778,13.034343 77.682938,12.456263 75.964138,12.478103 71.820378,12.453103 68.435977,15.787461 68.401657,19.928101 V 34.321693 C 68.404782,37.371693 70.326618,40.090413 73.201658,41.109213 V 86.878011 C 73.201658,88.20297 74.276698,89.27801 75.601658,89.27801 H 98.00166 C 99.32662,89.27801 100.40166,88.20297 100.40166,86.878011 V 79.678014 H 106.80166 V 86.878011 C 106.80166,88.20297 107.8767,89.27801 109.20166,89.27801 H 142.80166 C 144.12662,89.27801 145.20166,88.20297 145.20166,86.878011 V 73.859613 C 145.19542,69.156493 142.44854,64.887613 138.16726,62.934814 Z M 140.40166,73.859053 V 74.877774 H 78.001658 V 51.459373 C 81.786058,52.537533 84.395418,55.990653 84.401658,59.924973 V 67.678094 C 84.401658,69.003053 85.476698,70.078093 86.80166,70.078093 H 118.80166 C 120.12662,70.078093 121.20166,69.003053 121.20166,67.678094 121.19542,65.368733 122.30166,63.199933 124.1735,61.846813 L 136.1831,67.306173 C 138.7487,68.474893 140.3987,71.037453 140.40182,73.859293 Z M 129.20166,79.677773 V 84.477771 H 122.80166 V 79.677773 Z M 119.60166,59.512174 C 118.10166,61.124653 117.0767,63.121533 116.6423,65.277773 H 89.2015 V 59.924653 C 89.19214,53.343373 84.479658,47.708653 78.001498,46.537453 V 41.524973 H 101.2015 V 48.724973 C 101.2015,50.049933 102.27654,51.124973 103.6015,51.124973 H 114.2231 C 114.85438,54.512493 116.78558,57.521853 119.60126,59.512174 Z M 114.00166,46.324973 H 106.00166 V 41.524973 H 114.00166 Z M 73.201658,19.928181 C 73.232906,18.434421 74.470378,17.250021 75.964138,17.278181 76.685978,17.262557 77.385978,17.528181 77.911018,18.021933 79.251658,19.100093 80.923498,19.678173 82.642298,19.653213 84.361018,19.675093 86.03606,19.100085 87.37358,18.021933 88.48294,17.031293 90.1611,17.031293 91.27046,18.021933 94.04862,20.200093 97.95486,20.200093 100.73286,18.021933 101.84222,17.031293 103.52038,17.031293 104.62974,18.021933 107.4079,20.200093 111.31414,20.200093 114.09214,18.021933 114.6203,17.528181 115.3171,17.262557 116.03902,17.278181 117.53278,17.250061 118.76718,18.434421 118.8015,19.928181 V 34.321773 C 118.8015,35.646733 117.72646,36.721773 116.4015,36.721773 L 75.601498,36.724893 C 74.276538,36.724893 73.201498,35.649853 73.201498,34.324893 Z M 78.001658,79.678573 H 84.401658 V 84.478571 H 78.001658 Z M 95.60166,84.478571 H 89.20166 V 79.678573 H 95.60166 Z M 111.60166,79.678573 H 118.00166 V 84.478571 H 111.60166 Z M 134.00166,84.478571 V 79.678573 H 140.40166 V 84.478571 Z"
     id="path1-2"
     style="stroke-width:0.8" />
  <path
     style="fill:#000000;stroke:none;stroke-width:1.6;stroke-linecap:round;stroke-linejoin:round;stroke-miterlimit:3.9;paint-order:stroke fill markers"
     d="M 76.289946,48.307614 75.915274,77.625854 142.42006,77.344893 141.95166,69.664013 136.05054,64.418573 123.77998,58.892173 120.4079,61.983213 118.90918,67.696973 105.04622,67.603293 86.96822,67.509693 86.5935,58.423773 84.251818,52.803693 Z"
     id="path10-7" />
</svg>
