<?xml version="1.0" encoding="UTF-8" standalone="no"?>
<!-- Created with Inkscape (http://www.inkscape.org/) -->

<svg
   width="487.09601"
   height="487.09601"
   viewBox="0 0 487.09601 487.09601"
   version="1.1"
   id="svg1"
   inkscape:version="1.4.2 (ebf0e940d0, 2025-05-08)"
   sodipodi:docname="insulation.svg"
   xmlns:inkscape="http://www.inkscape.org/namespaces/inkscape"
   xmlns:sodipodi="http://sodipodi.sourceforge.net/DTD/sodipodi-0.dtd"
   xmlns="http://www.w3.org/2000/svg"
   xmlns:svg="http://www.w3.org/2000/svg">
  <sodipodi:namedview
     id="namedview1"
     pagecolor="#ffffff"
     bordercolor="#000000"
     borderopacity="0.25"
     inkscape:showpageshadow="2"
     inkscape:pageopacity="0.0"
     inkscape:pagecheckerboard="0"
     inkscape:deskcolor="#d1d1d1"
     inkscape:document-units="px"
     inkscape:zoom="0.60052083"
     inkscape:cx="632.78404"
     inkscape:cy="736.86037"
     inkscape:window-width="2256"
     inkscape:window-height="1427"
     inkscape:window-x="0"
     inkscape:window-y="0"
     inkscape:window-maximized="1"
     inkscape:current-layer="svg1" />
  <defs
     id="defs1" />
  <path
     d="M 123.23725,68.5672 C 92.656749,76.8448 63.709749,87.2752 36.570749,99.8168 42.074749,103.872 51.642749,112.0976 60.595749,125.5592 72.742749,143.8248 86.034749,175.7216 80.377749,223.9512 74.751749,271.92 55.441749,309.1784 40.233749,331.9856 27.740749,350.724 16.100749,362.8776 10.891759,367.9328 38.636749,384.6168 67.815749,398.448 98.276749,409.404 106.58025,393.0112 144.80625,313.5168 144.80625,239.9296 144.80625,166.724 127.33025,86.3768 123.23725,68.5672 Z"
     id="path1"
     style="fill:#000000;stroke-width:0.894427" />
  <path
     d="M 152.80625,239.9296 C 152.80625,314.8432 113.93325,395.5504 105.60625,411.9744 146.28125,425.8936 189.19725,434.7392 234.03725,438.3864 V 48.7096 C 197.98025,52.2056 163.53825,58.1728 130.90725,66.5488 134.64525,82.6904 152.80625,164.9776 152.80625,239.9296 Z"
     id="path2"
     style="fill:#000000;stroke-width:0.894427" />
  <path
     d="M 363.86025,68.5672 C 394.44025,76.8448 423.38725,87.2752 450.52525,99.8168 445.02225,103.872 435.45325,112.0976 426.50025,125.5592 414.35325,143.8248 401.06225,175.7216 406.71925,223.9512 412.34525,271.92 431.65425,309.1784 446.86325,331.9856 459.35625,350.724 470.99525,362.8776 476.20425,367.9328 448.45925,384.6168 419.28025,398.448 388.82025,409.404 380.51725,393.0112 342.29125,313.5168 342.29125,239.9296 342.29125,166.724 359.76725,86.3768 363.86025,68.5672 Z"
     id="path1-3"
     style="fill:#000000;stroke-width:0.894427" />
  <path
     d="M 334.29125,239.9296 C 334.29125,314.8432 373.16325,395.5504 381.49025,411.9744 340.81525,425.8936 297.89925,434.7392 253.05925,438.3864 V 48.7096 C 289.11625,52.2056 323.55825,58.1728 356.19025,66.5488 352.45225,82.6904 334.29125,164.9776 334.29125,239.9296 Z"
     id="path2-5"
     style="fill:#000000;stroke-width:0.894427" />
</svg>
