<?xml version="1.0" encoding="UTF-8" standalone="no"?>
<!-- Created with Inkscape (http://www.inkscape.org/) -->

<svg
   width="89.125999"
   height="89.125999"
   viewBox="0 0 89.125999 89.125999"
   version="1.1"
   id="svg1"
   inkscape:version="1.4.2 (ebf0e940d0, 2025-05-08)"
   sodipodi:docname="jerrycan.svg"
   xmlns:inkscape="http://www.inkscape.org/namespaces/inkscape"
   xmlns:sodipodi="http://sodipodi.sourceforge.net/DTD/sodipodi-0.dtd"
   xmlns="http://www.w3.org/2000/svg"
   xmlns:svg="http://www.w3.org/2000/svg">
  <sodipodi:namedview
     id="namedview1"
     pagecolor="#ffffff"
     bordercolor="#000000"
     borderopacity="0.25"
     inkscape:showpageshadow="2"
     inkscape:pageopacity="0.0"
     inkscape:pagecheckerboard="0"
     inkscape:deskcolor="#d1d1d1"
     inkscape:document-units="px"
     inkscape:zoom="4.8041667"
     inkscape:cx="26.435386"
     inkscape:cy="95.437988"
     inkscape:window-width="2256"
     inkscape:window-height="1427"
     inkscape:window-x="0"
     inkscape:window-y="0"
     inkscape:window-maximized="1"
     inkscape:current-layer="svg1" />
  <defs
     id="defs1" />
  <path
     fill-rule="evenodd"
     clip-rule="evenodd"
     d="M 48.8375 40.22 L 37.7395 40.22 C 36.5285 40.22 35.5374 41.211 35.5374 42.421 L 35.5374 56.429 C 35.5374 57.639 36.5285 58.631 37.7395 58.631 L 48.8385 58.631 C 50.0495 58.631 51.0404 57.639 51.0404 56.429 L 51.0404 42.421 C 51.0395 41.211 50.0485 40.22 48.8375 40.22 Z"
     id="path1"
     style="fill:#000000" />
  <path
     fill-rule="evenodd"
     clip-rule="evenodd"
     d="M 71.0435 0 L 68.8304 0 C 67.8115 0 66.8535 0.27 66.0174 0.731 L 41.1255 0.731 C 38.3025 0.731 35.8795 2.41 34.8025 5.113 L 32.7635 10.228 L 28.6364 10.228 L 26.6965 11.564 L 25.2604 9.076 L 25.8115 8.758 C 26.1674 8.553 26.2904 8.094 26.0854 7.738 L 24.5905 5.149 C 24.3845 4.794 23.9264 4.67 23.5705 4.876 L 12.5894 11.216 C 12.2334 11.422 12.1105 11.88 12.3164 12.236 L 13.8115 14.825 C 14.0175 15.181 14.4764 15.304 14.8324 15.099 L 15.3834 14.781 L 15.3864 14.787 L 21.3964 11.318 L 22.0344 12.422 L 16.0244 15.892 L 17.2735 18.055 L 14.7134 19.817 C 13.2174 20.847 12.3964 22.409 12.3964 24.225 L 12.3964 79.695 C 12.3964 84.89 16.6324 89.126 21.8274 89.126 L 67.4794 89.126 C 72.6715 89.126 76.9095 84.891 76.9095 79.695 L 76.9095 5.863 C 76.9065 2.633 74.2725 0 71.0435 0 Z M 38.3535 6.528 C 38.8465 5.292 39.8825 4.554 41.1245 4.554 L 62.6445 4.554 C 59.8055 8.194 55.6285 10.228 50.8655 10.228 L 36.8795 10.228 Z M 68.2285 70.968 L 63.6685 72.191 L 48.4545 63.407 C 47.6405 62.937 46.8345 62.721 45.8945 62.721 L 35.1014 62.721 C 33.2215 62.721 31.6074 63.653 30.6674 65.281 L 21.9195 80.432 L 21.7415 80.329 L 20.5205 75.768 L 31.4064 56.914 C 31.8765 56.099 32.0924 55.294 32.0924 54.353 L 32.0924 39.159 C 32.0924 37.279 31.1605 35.665 29.5314 34.725 L 22.2804 30.538 L 21.0585 25.978 L 21.1614 25.801 L 37.8625 35.444 C 38.6765 35.914 39.4825 36.129 40.4235 36.129 L 51.4535 36.129 C 53.3325 36.129 54.9465 35.198 55.8875 33.569 L 64.2805 19.032 L 64.4584 19.135 L 65.6805 23.694 L 55.1705 41.898 C 54.7005 42.711 54.4845 43.517 54.4845 44.458 L 54.4825 59.885 C 54.4825 61.771 55.4205 63.39 57.0555 64.327 L 68.3285 70.791 Z"
     id="path2"
     style="fill:#000000" />
</svg>
