<?xml version="1.0" encoding="UTF-8" standalone="no"?>
<!-- Created with Inkscape (http://www.inkscape.org/) -->

<svg
   width="54.882"
   height="54.882"
   viewBox="0 0 54.882 54.882"
   version="1.1"
   id="svg1"
   inkscape:version="1.4.2 (ebf0e940d0, 2025-05-08)"
   sodipodi:docname="jersey.svg"
   xmlns:inkscape="http://www.inkscape.org/namespaces/inkscape"
   xmlns:sodipodi="http://sodipodi.sourceforge.net/DTD/sodipodi-0.dtd"
   xmlns="http://www.w3.org/2000/svg"
   xmlns:svg="http://www.w3.org/2000/svg">
  <sodipodi:namedview
     id="namedview1"
     pagecolor="#ffffff"
     bordercolor="#000000"
     borderopacity="0.25"
     inkscape:showpageshadow="2"
     inkscape:pageopacity="0.0"
     inkscape:pagecheckerboard="0"
     inkscape:deskcolor="#d1d1d1"
     inkscape:document-units="px"
     inkscape:zoom="9.6083333"
     inkscape:cx="48.083261"
     inkscape:cy="38.976583"
     inkscape:window-width="2256"
     inkscape:window-height="1427"
     inkscape:window-x="0"
     inkscape:window-y="0"
     inkscape:window-maximized="1"
     inkscape:current-layer="svg1" />
  <defs
     id="defs1" />
  <path
     d="M 0.24634 46.851 L 7.97634 47.771 C 7.73634 48.461 7.50634 49.131 7.26634 49.801 C 7.11046 50.2391 6.67984 50.518 6.21629 50.481 C 4.45635 50.361 2.70635 50.231 0.95635 50.101 C 0.676822 50.0817 0.417299 49.9491 0.237925 49.7339 C 0.0585505 49.5186 -0.0251033 49.2394 0.00635 48.961 C 0.07636 48.301 0.15632 47.601 0.24634 46.851 Z"
     id="path1"
     style="fill:#000000" />
  <path
     d="M 34.7664 27.031 C 34.461 27.6197 34.641 28.3437 35.1864 28.721 L 32.4264 30.181 C 32.1172 30.3478 31.8936 30.6384 31.8116 30.98 C 31.7295 31.3216 31.7967 31.6819 31.9964 31.971 C 32.5064 32.701 33.1464 33.531 33.5964 34.201 C 31.7686 33.8477 30.0094 33.2028 28.3864 32.291 L 28.3864 30.221 L 31.6463 28.421 C 32.1296 28.1531 32.3042 27.5442 32.0363 27.061 C 31.7685 26.5778 31.1596 26.4031 30.6763 26.671 L 28.3863 27.941 L 28.3863 24.191 C 28.3808 23.6426 27.9347 23.201 27.3863 23.201 C 26.8379 23.201 26.3918 23.6426 26.3863 24.191 L 26.3863 27.941 L 24.0963 26.671 C 23.6133 26.4053 23.0064 26.5804 22.7391 27.0625 C 22.4718 27.5447 22.645 28.1522 23.1263 28.421 L 26.3863 30.221 L 26.3863 32.321 C 24.7779 33.2196 23.0358 33.8543 21.2263 34.201 C 21.6763 33.541 22.3263 32.691 22.8263 31.981 C 23.0271 31.6906 23.095 31.3285 23.0129 30.985 C 22.9309 30.6416 22.7067 30.3493 22.3963 30.181 L 19.6363 28.721 C 20.1817 28.3437 20.3616 27.6198 20.0563 27.031 L 18.9863 25.001 L 21.5463 25.731 C 21.9899 25.8625 22.4658 25.6722 22.6963 25.271 L 22.9763 24.781 L 23.6563 25.371 C 24.0594 25.7136 24.6389 25.753 25.0847 25.4681 C 25.5304 25.1832 25.738 24.6407 25.5963 24.131 L 24.6563 20.781 C 25.5363 21.121 26.0063 20.871 26.2263 20.351 C 26.576 19.5156 26.9734 18.7009 27.4163 17.911 C 27.8522 18.7031 28.246 19.5175 28.5963 20.351 C 28.8163 20.881 29.2963 21.1109 30.1663 20.781 L 29.2263 24.131 C 29.086 24.6427 29.2958 25.1862 29.7435 25.4709 C 30.1913 25.7556 30.7724 25.7151 31.1763 25.371 L 31.8463 24.781 L 32.1363 25.271 C 32.3624 25.6716 32.8355 25.8625 33.2763 25.731 L 35.8363 25.001 Z"
     id="path2"
     style="fill:#000000" />
  <path
     d="M 50.9863 22.751 C 49.1563 16.591 47.7163 11.921 43.4863 8.651 C 42.017 7.54472 40.3457 6.73624 38.5663 6.271 C 37.8087 8.17055 35.9714 9.41787 33.9263 9.421 L 20.9263 9.421 C 18.8839 9.41917 17.0474 8.17642 16.2863 6.28105 C 14.5184 6.7473 12.8577 7.55218 11.3963 8.65105 C 7.16633 11.921 5.72633 16.591 3.89633 22.751 C 2.584 27.1177 1.02599 40.2072 0.47633 44.8611 L 8.66633 45.8411 C 9.57633 43.2711 10.5163 40.641 11.4363 38.0511 L 11.4363 22.001 C 11.4363 21.6437 11.6269 21.3136 11.9363 21.135 C 12.2457 20.9563 12.6269 20.9563 12.9363 21.135 C 13.2457 21.3136 13.4363 21.6437 13.4363 22.001 C 13.4363 34.7875 13.4282 29.3197 13.4763 47.461 L 41.4263 47.461 C 41.4383 29.2684 41.4363 34.9812 41.4363 22.001 C 41.4363 21.6437 41.6269 21.3136 41.9363 21.135 C 42.2457 20.9563 42.6269 20.9563 42.9363 21.135 C 43.2457 21.3136 43.4363 21.6437 43.4363 22.001 L 43.4363 37.971 C 44.3563 40.581 45.2963 43.241 46.2163 45.831 L 54.3963 44.861 C 53.9125 40.6233 52.3062 27.1427 50.9863 22.751 Z M 38.4763 24.281 L 36.7963 27.471 L 37.3663 27.971 C 37.6643 28.2338 37.8139 28.6265 37.7663 29.021 C 37.7228 29.4135 37.4866 29.7585 37.1363 29.941 L 34.1463 31.541 C 34.8849 32.4798 35.547 33.4763 36.1263 34.521 C 36.3263 34.903 36.314 35.3614 36.094 35.7323 C 35.8739 36.1031 35.4774 36.3335 35.0463 36.341 C 32.7277 36.2032 30.4615 35.5941 28.3863 34.551 L 28.3863 36.951 C 28.3808 37.4994 27.9347 37.941 27.3863 37.941 C 26.8379 37.941 26.3918 37.4994 26.3863 36.951 L 26.3863 34.571 C 24.3306 35.6063 22.0842 36.2088 19.7863 36.341 C 19.3527 36.3383 18.952 36.1096 18.7293 35.7377 C 18.5065 35.3657 18.494 34.9045 18.6963 34.521 C 19.2803 33.4792 19.9421 32.483 20.6763 31.541 L 17.6863 29.941 C 17.3385 29.7562 17.1035 29.4125 17.0576 29.0213 C 17.0117 28.6301 17.1607 28.2413 17.4563 27.981 L 18.0262 27.471 L 16.3462 24.281 C 16.1232 23.8535 16.1758 23.3343 16.4802 22.9603 C 16.7846 22.5863 17.2823 22.4294 17.7462 22.561 L 21.3462 23.591 L 21.7162 22.941 C 21.979 22.4874 22.5032 22.2536 23.0163 22.361 L 22.3362 19.921 C 22.2082 19.4583 22.3512 18.963 22.7061 18.6398 C 23.061 18.3165 23.5676 18.2204 24.0163 18.391 L 24.7762 18.681 C 25.2994 17.5588 25.8974 16.473 26.5662 15.431 C 26.7639 15.1622 27.0776 15.0035 27.4112 15.0035 C 27.7448 15.0035 28.0586 15.1622 28.2562 15.431 C 28.9288 16.4708 29.527 17.5568 30.0462 18.681 L 30.8062 18.391 C 31.2551 18.2168 31.7639 18.3116 32.1199 18.6358 C 32.4759 18.9601 32.6178 19.4578 32.4862 19.921 L 31.8062 22.361 C 32.3194 22.253 32.8438 22.487 33.1062 22.941 L 33.4762 23.591 L 37.0762 22.561 C 37.5399 22.4305 38.0368 22.5878 38.3409 22.9614 C 38.645 23.335 38.6982 23.8534 38.4763 24.281 Z"
     id="path3"
     style="fill:#000000" />
  <path
     d="M 54.8764 48.961 C 54.9059 49.239 54.8216 49.5172 54.6426 49.732 C 54.4636 49.9468 54.2052 50.0799 53.9264 50.101 C 52.1763 50.231 50.4164 50.361 48.6664 50.481 C 48.2028 50.518 47.7722 50.2391 47.6164 49.801 C 47.3764 49.131 47.1463 48.451 46.9064 47.771 L 54.6264 46.851 C 54.7163 47.601 54.7963 48.301 54.8764 48.961 Z"
     id="path4"
     style="fill:#000000" />
  <path
     d="M 41.9263 53.461 L 12.9263 53.461 C 10.2332 53.461 10.3408 49.461 12.9263 49.461 L 41.9263 49.461 C 44.6195 49.461 44.5119 53.461 41.9263 53.461 Z"
     id="path5"
     style="fill:#000000" />
  <path
     d="M 33.9263 7.421 L 20.9263 7.421 C 17.0071 7.421 16.9387 1.421 20.9263 1.421 L 33.9263 1.421 C 37.8949 1.421 37.8755 7.421 33.9263 7.421 Z"
     id="path6"
     style="fill:#000000" />
</svg>
