<?xml version="1.0" encoding="UTF-8" standalone="no"?>
<!-- Created with Inkscape (http://www.inkscape.org/) -->

<svg
   width="23.068001"
   height="23.068001"
   viewBox="0 0 23.068 23.068001"
   version="1.1"
   id="svg1"
   inkscape:version="1.4.2 (ebf0e940d0, 2025-05-08)"
   sodipodi:docname="lantern.svg"
   xmlns:inkscape="http://www.inkscape.org/namespaces/inkscape"
   xmlns:sodipodi="http://sodipodi.sourceforge.net/DTD/sodipodi-0.dtd"
   xmlns="http://www.w3.org/2000/svg"
   xmlns:svg="http://www.w3.org/2000/svg">
  <sodipodi:namedview
     id="namedview1"
     pagecolor="#ffffff"
     bordercolor="#000000"
     borderopacity="0.25"
     inkscape:showpageshadow="2"
     inkscape:pageopacity="0.0"
     inkscape:pagecheckerboard="0"
     inkscape:deskcolor="#d1d1d1"
     inkscape:document-units="px"
     inkscape:zoom="8.217228"
     inkscape:cx="41.011397"
     inkscape:cy="-3.9551051"
     inkscape:window-width="2256"
     inkscape:window-height="1427"
     inkscape:window-x="0"
     inkscape:window-y="0"
     inkscape:window-maximized="1"
     inkscape:current-layer="svg1" />
  <defs
     id="defs1" />
  <path
     d="M 11.5491 13.7254 C 12.5412 13.7254 13.2854 12.9813 13.2854 11.9891 C 13.2854 11.1623 11.9625 9.01254 11.7971 8.76436 C 11.7144 8.59899 11.3837 8.59899 11.301 8.76436 C 11.1356 9.0124 9.81273 11.1621 9.81273 11.9891 C 9.81273 12.8986 10.5569 13.7254 11.5491 13.7254 Z M 11.5491 9.42595 C 12.0452 10.3355 12.7066 11.493 12.7066 11.9891 C 12.7066 12.6506 12.2105 13.1466 11.5491 13.1466 C 10.8876 13.1466 10.3915 12.6506 10.3915 11.9891 C 10.3915 11.493 11.053 10.3355 11.5491 9.42595 Z"
     id="path1"
     style="fill:#000000;stroke-width:0.264583" />
  <path
     d="M 11.5491 12.816 C 12.0452 12.816 12.3759 12.4026 12.3759 11.9892 C 12.3759 11.5758 11.5491 10.0875 11.5491 10.0875 C 11.5491 10.0875 10.7222 11.5758 10.7222 11.9892 C 10.7222 12.4026 11.053 12.816 11.5491 12.816 Z"
     id="path2"
     style="fill:#000000;stroke-width:0.264583" />
  <path
     d="M 5.34775 19.6786 C 5.67848 20.1746 6.17457 20.4227 6.75335 20.5054 L 6.75335 21.4976 L 6.50531 21.4976 C 6.33994 21.4976 6.25726 21.6629 6.25726 21.7456 L 6.25726 22.8205 C 6.25726 22.9858 6.42262 23.0685 6.50531 23.0685 L 16.5925 23.0685 C 16.7579 23.0685 16.8406 22.9032 16.8406 22.8205 L 16.8406 21.7456 C 16.8406 21.5802 16.6752 21.4976 16.5925 21.4976 L 16.3445 21.4976 L 16.3445 20.4227 C 16.9233 20.34 17.4194 20.092 17.7501 19.5959 L 18.0808 19.1825 C 18.9903 17.9422 19.3211 16.2884 19.1557 14.7176 L 17.9155 5.62256 C 17.7501 4.38233 16.6752 3.39014 15.435 3.39014 L 14.5255 3.39014 L 14.5255 2.39795 L 15.1869 2.39795 C 15.3523 2.39795 15.435 2.31527 15.435 2.14991 C 15.435 1.98454 15.435 1.90186 15.2696 1.81918 L 11.7142 0.00017 L 11.3834 0.00017 L 7.82796 1.81918 C 7.74528 1.90186 7.66259 1.98454 7.66259 2.14991 C 7.66259 2.31527 7.82796 2.39795 7.91064 2.39795 L 8.5721 2.39795 L 8.5721 3.47282 L 7.66259 3.47282 C 6.42236 3.47282 5.34749 4.46501 5.18212 5.70524 L 3.94189 14.8003 C 3.69384 16.3713 4.10725 17.9422 5.01676 19.2651 Z M 16.3444 18.4383 C 16.2617 18.1076 15.9309 17.8595 15.5175 17.8595 L 15.3522 17.8595 C 16.3444 16.7847 16.8405 15.2137 16.5924 13.5601 L 16.0963 10.0046 C 15.9309 8.92972 15.5175 7.93753 14.7734 7.19339 L 14.4427 6.11852 L 14.4427 5.2917 L 15.3522 5.2917 C 15.6829 5.2917 15.9309 5.53975 16.0136 5.95316 L 17.2539 15.0482 C 17.4192 16.1231 17.1712 17.2806 16.5097 18.1901 L 16.427 18.3555 C 16.3444 18.3555 16.3444 18.4382 16.3444 18.4382 Z M 9.15087 6.3667 L 13.9464 6.3667 L 14.1118 7.02816 L 8.98551 7.02816 Z M 8.73746 7.60694 L 14.4424 7.60694 C 15.0212 8.26839 15.4346 9.1779 15.6 10.0874 L 16.0961 13.6429 C 16.3441 15.1312 15.848 16.6194 14.8558 17.6116 L 14.6078 17.8597 L 13.2022 17.8597 L 13.2022 16.5368 C 13.4502 16.4541 13.6983 16.206 13.6983 15.958 L 13.6983 15.2965 C 13.6983 14.9658 13.4502 14.6351 13.0368 14.6351 L 11.7966 14.6351 L 11.7966 14.2217 C 11.7966 14.0563 11.6312 13.9736 11.5485 13.9736 C 11.3832 13.9736 11.3005 14.139 11.3005 14.2217 L 11.3005 14.6351 L 10.0602 14.6351 C 9.72952 14.6351 9.39879 14.8831 9.39879 15.2965 L 9.39879 15.958 C 9.39879 16.206 9.56415 16.4541 9.89488 16.5368 L 9.89488 17.8597 L 8.57197 17.8597 L 8.32392 17.6116 C 7.33173 16.6194 6.91832 15.1312 7.08368 13.6429 L 7.57978 10.0874 C 7.74514 9.1779 8.07587 8.26839 8.73733 7.60694 Z M 10.0604 15.9577 L 10.0604 15.9577 L 9.9777 15.2136 C 9.9777 15.2136 9.9777 15.1309 10.0604 15.1309 L 13.1195 15.1309 C 13.1195 15.1309 13.2022 15.1309 13.2022 15.2136 L 13.2022 15.875 C 13.2022 15.875 13.2022 15.9577 13.1195 15.9577 Z M 10.4738 16.5365 L 12.7062 16.5365 L 12.7062 17.8594 L 10.4738 17.8594 Z M 8.65478 6.03571 L 8.32405 7.11058 C 7.66259 7.85472 7.1665 8.92959 7.00113 10.0046 L 6.50504 13.5601 C 6.25699 15.131 6.75309 16.702 7.74528 17.777 L 7.57991 17.777 C 7.1665 17.777 6.83577 18.025 6.75309 18.3558 L 6.58772 18.1904 C 6.00894 17.2809 5.67821 16.1233 5.84358 15.0485 L 7.08382 5.95342 C 7.1665 5.62269 7.41455 5.29196 7.74528 5.29196 L 8.65478 5.29196 Z"
     id="path3"
     style="fill:#000000;stroke-width:0.264583" />
</svg>
