<?xml version="1.0" encoding="UTF-8" standalone="no"?>
<!-- Created with Inkscape (http://www.inkscape.org/) -->

<svg
   width="87.998001"
   height="87.998001"
   viewBox="0 0 87.998001 87.998001"
   version="1.1"
   id="svg1"
   inkscape:version="1.4.3 (0d15f75042, 2025-12-25)"
   sodipodi:docname="lights.svg"
   xmlns:inkscape="http://www.inkscape.org/namespaces/inkscape"
   xmlns:sodipodi="http://sodipodi.sourceforge.net/DTD/sodipodi-0.dtd"
   xmlns="http://www.w3.org/2000/svg"
   xmlns:svg="http://www.w3.org/2000/svg">
  <sodipodi:namedview
     id="namedview1"
     pagecolor="#ffffff"
     bordercolor="#000000"
     borderopacity="0.25"
     inkscape:showpageshadow="2"
     inkscape:pageopacity="0.0"
     inkscape:pagecheckerboard="0"
     inkscape:deskcolor="#d1d1d1"
     inkscape:document-units="px"
     inkscape:zoom="1.6985294"
     inkscape:cx="72.709957"
     inkscape:cy="152.19048"
     inkscape:window-width="2256"
     inkscape:window-height="1427"
     inkscape:window-x="0"
     inkscape:window-y="0"
     inkscape:window-maximized="1"
     inkscape:current-layer="svg1" />
  <defs
     id="defs1" />
  <path
     d="M 86.937926,50.10772 A 2.62,2.62 0 0 0 85.247926,49.50772 46.77,46.77 0 0 1 38.467935,2.7277201 2.69,2.69 0 0 0 37.877935,1.0377201 2.72,2.72 0 0 0 35.717935,0.03772007 2.69,2.69 0 0 0 33.567935,1.0377201 2.59,2.59 0 0 0 32.997935,2.7277201 54,54 0 0 0 33.857935,12.29772 L 34.057935,13.29772 A 5.56,5.56 0 0 0 34.197935,13.92772 C 34.197935,14.12772 34.277935,14.32772 34.307935,14.52772 A 1.33,1.33 0 0 1 34.307935,14.71772 C 34.577935,15.84772 34.887935,16.96772 35.227935,18.06772 A 1.78,1.78 0 0 0 35.327935,18.44772 V 18.44772 C 35.497935,18.95772 35.647935,19.44772 35.827935,19.96772 A 52,52 0 0 0 45.547935,36.77772 C 46.057935,37.38772 46.547935,37.99772 47.157935,38.58772 47.527935,38.97772 47.917935,39.38772 48.307935,39.73772 48.697935,40.08772 48.977935,40.42772 49.307935,40.73772 49.897935,41.29772 50.487935,41.83772 51.097935,42.32772 A 51.49,51.49 0 0 0 67.267935,51.83772 L 68.197935,52.15772 C 68.597935,52.31772 68.987935,52.43772 69.397935,52.56772 A 4.21,4.21 0 0 0 69.817935,52.68772 L 71.557935,53.19772 C 72.127935,53.35772 72.707935,53.49772 73.277935,53.62772 V 53.62772 C 73.707935,53.72772 74.127935,53.79772 74.547935,53.88772 74.967935,53.97772 75.447935,54.06772 75.897935,54.15772 A 52.65,52.65 0 0 0 85.197926,54.97772 2.77,2.77 0 0 0 87.997926,52.25772 2.69,2.69 0 0 0 86.937926,50.10772 Z"
     id="path1"
     style="fill:#000000" />
  <path
     d="M 30.207935,43.97772 C 28.617935,45.59772 21.997935,57.76772 21.997935,63.25772 21.997935,65.97772 21.997935,65.97772 24.717935,65.97772 30.207935,65.97772 42.377935,59.32772 43.977935,57.73772 45.167935,56.51772 45.977935,53.52772 46.367935,51.49772 L 36.427935,41.57772 C 34.397935,41.97772 31.407935,42.80772 30.207935,43.97772 Z"
     id="path2"
     style="fill:#000000" />
  <path
     d="M 49.337935,42.97772 A 50.52,50.52 0 0 1 44.997935,38.58772 21.69,21.69 0 0 0 38.517935,41.25772 L 46.767935,49.50772 A 21.5,21.5 0 0 0 49.337935,42.97772 Z"
     id="path3"
     style="fill:#000000" />
  <path
     d="M 17.537935,11.05772 C 15.377935,11.64772 3.6479299,18.91772 0.92792994,23.73772 -0.44207006,26.13772 -0.44207006,26.13772 1.9279299,27.51772 6.6479349,30.28772 20.387935,30.60772 22.547935,30.01772 24.157935,29.56772 26.297935,27.36772 27.667935,25.80772 L 24.067935,12.08772 C 22.117935,11.42772 19.157935,10.60772 17.537935,11.05772 Z"
     id="path4"
     style="fill:#000000" />
  <path
     d="M 25.997935,12.81772 28.997935,24.20772 A 22.76,22.76 0 0 0 34.187935,20.20772 V 20.20772 A 53,53 0 0 1 32.387935,13.63772 21.79,21.79 0 0 0 25.997935,12.81772 Z"
     id="path5"
     style="fill:#000000" />
  <path
     d="M 57.997935,65.43772 C 57.407935,67.61772 57.727935,81.33772 60.477935,86.047723 61.867935,88.397723 61.867935,88.397723 64.267935,87.047723 69.047935,84.327723 76.267935,72.59772 76.867935,70.41772 77.307935,68.81772 76.497935,65.87772 75.867935,63.93772 L 62.157935,60.31772 C 60.587935,61.66772 58.397935,63.82772 57.997935,65.43772 Z"
     id="path6"
     style="fill:#000000" />
  <path
     d="M 67.707935,53.77772 A 22.26,22.26 0 0 0 63.707935,58.99772 L 75.027935,61.99772 A 22.12,22.12 0 0 0 74.217935,55.59772 V 55.59772 A 51.44,51.44 0 0 1 67.707935,53.77772 Z"
     id="path7"
     style="fill:#000000" />
</svg>
