<?xml version="1.0" encoding="UTF-8" standalone="no"?>
<!-- Created with Inkscape (http://www.inkscape.org/) -->

<svg
   width="63.855"
   height="63.855"
   viewBox="0 0 63.854999 63.854999"
   version="1.1"
   id="svg1"
   inkscape:version="1.4.2 (ebf0e940d0, 2025-05-08)"
   sodipodi:docname="mackinaw.svg"
   xmlns:inkscape="http://www.inkscape.org/namespaces/inkscape"
   xmlns:sodipodi="http://sodipodi.sourceforge.net/DTD/sodipodi-0.dtd"
   xmlns="http://www.w3.org/2000/svg"
   xmlns:svg="http://www.w3.org/2000/svg">
  <path
     id="path1"
     style="fill:#000000"
     d="M 24.550781 0.001953125 C 24.214775 0.013607422 23.882 0.07228125 23.5625 0.17578125 L 23.433594 0.21875 C 22.139594 0.66275 21.276875 1.7900625 21.171875 3.1640625 L 18.488281 3.3886719 C 14.661281 3.7076719 11.403453 6.2662031 10.189453 9.9082031 C 10.128453 10.091203 10.079531 10.282797 10.019531 10.466797 C 10.006531 10.495797 10.002187 10.526641 9.9921875 10.556641 C 9.9001875 10.841641 9.8194687 11.129016 9.7304688 11.416016 C 9.6964687 11.486016 9.6801094 11.562625 9.6621094 11.640625 C 9.0811094 13.532625 8.5500938 15.445094 8.1210938 17.371094 L 5.4941406 29.193359 C 4.3491406 34.349359 3.76375 39.58775 3.71875 44.84375 L 3.7167969 44.855469 L 3.71875 44.865234 C 3.69775 47.448234 3.7969688 50.037094 4.0429688 52.621094 L 4.9316406 61.949219 C 4.9806406 62.462219 5.4117344 62.855469 5.9277344 62.855469 L 10.927734 62.855469 C 10.927734 63.407469 11.374734 63.855469 11.927734 63.855469 L 51.927734 63.855469 C 52.480734 63.855469 52.927734 63.407469 52.927734 62.855469 L 57.927734 62.855469 C 58.443734 62.855469 58.872875 62.462219 58.921875 61.949219 L 59.810547 52.621094 C 60.056516 50.037413 60.155733 47.450869 60.134766 44.867188 L 60.134766 44.865234 L 60.136719 44.855469 L 60.134766 44.845703 C 60.089766 39.590703 59.506328 34.351312 58.361328 29.195312 L 55.734375 17.373047 C 55.306375 15.447047 54.775313 13.531625 54.195312 11.640625 C 54.177312 11.562625 54.160953 11.487969 54.126953 11.417969 C 54.037953 11.131969 53.957234 10.842594 53.865234 10.558594 C 53.855234 10.528594 53.848937 10.495797 53.835938 10.466797 C 53.775937 10.282797 53.727016 10.094156 53.666016 9.9101562 C 52.452016 6.2671562 49.196141 3.7066719 45.369141 3.3886719 L 42.683594 3.1640625 C 42.578594 1.7900625 41.716969 0.66279688 40.417969 0.21679688 L 40.289062 0.17382812 C 39.442063 -0.10017188 38.499672 -0.0486875 37.638672 0.3203125 L 35.291016 1.3261719 C 33.091016 2.2691719 30.841344 2.3000156 28.777344 1.4160156 L 26.220703 0.3203125 C 25.680078 0.0896875 25.110791 -0.017470703 24.550781 0.001953125 z M 24.677734 2 C 24.925734 2 25.184594 2.0541563 25.433594 2.1601562 L 27.988281 3.2558594 C 30.527281 4.3448594 33.400172 4.3110625 36.076172 3.1640625 L 38.425781 2.1582031 C 38.842781 1.9792031 39.283969 1.9511719 39.667969 2.0761719 L 39.773438 2.1113281 C 40.568438 2.3843281 40.676406 3.1150312 40.691406 3.3320312 C 40.698406 3.4330312 40.686875 3.5423438 40.671875 3.6523438 C 40.622875 3.7583438 40.585219 3.8691875 40.574219 3.9921875 L 40.574219 3.9980469 C 40.458219 4.2940469 40.247813 4.5767656 39.882812 4.7597656 L 35.505859 6.9492188 C 33.265859 8.0692188 30.589609 8.0692188 28.349609 6.9492188 L 23.970703 4.7597656 C 23.604703 4.5767656 23.396297 4.2950469 23.279297 3.9980469 L 23.279297 3.9921875 C 23.269297 3.8691875 23.230641 3.7573438 23.181641 3.6523438 C 23.166641 3.5423438 23.157062 3.4330312 23.164062 3.3320312 C 23.179051 3.1151933 23.28778 2.3838096 24.076172 2.1113281 L 24.078125 2.1113281 L 24.181641 2.0761719 C 24.338641 2.0251719 24.505734 2 24.677734 2 z M 18.908203 5.3613281 L 18.910156 10.855469 L 11.990234 10.855469 C 12.024234 10.752469 12.049984 10.644969 12.083984 10.542969 C 13.044984 7.6599688 15.624344 5.6348125 18.652344 5.3828125 L 18.908203 5.3613281 z M 44.947266 5.3613281 L 45.201172 5.3828125 C 48.229172 5.6348125 50.806578 7.6599688 51.767578 10.542969 L 51.769531 10.542969 C 51.803531 10.645969 51.831234 10.752469 51.865234 10.855469 L 44.945312 10.855469 L 44.947266 5.3613281 z M 26.871094 8.4453125 L 27.455078 8.7382812 C 28.417078 9.2192812 29.444234 9.5228281 30.490234 9.6738281 L 33.365234 9.671875 C 34.411234 9.520875 35.438391 9.2173281 36.400391 8.7363281 L 36.984375 8.4453125 L 37.5 22.851562 L 37.5 22.859375 L 37.890625 33.837891 L 37.890625 33.839844 L 37.890625 33.841797 C 37.889922 33.845312 37.889082 33.851855 37.888672 33.855469 L 37.888672 33.857422 C 37.889355 33.862764 37.891406 33.870195 37.892578 33.875 C 37.892715 33.875975 37.892578 33.877906 37.892578 33.878906 L 38.892578 61.855469 L 24.964844 61.855469 L 25.962891 33.880859 L 25.962891 33.878906 L 25.962891 33.876953 C 25.963574 33.871611 25.965625 33.86418 25.966797 33.859375 C 25.966934 33.8584 25.966797 33.856469 25.966797 33.855469 L 25.966797 33.853516 L 25.966797 33.851562 L 25.964844 33.841797 L 25.964844 33.839844 L 26.357422 22.861328 L 26.357422 22.853516 L 26.613281 15.650391 L 26.613281 15.648438 L 26.615234 15.646484 L 26.871094 8.4453125 z M 20.910156 12.855469 L 24.712891 12.855469 L 24.390625 21.855469 L 20.914062 21.855469 L 20.910156 12.855469 z M 39.142578 12.855469 L 42.945312 12.855469 L 42.941406 21.855469 L 39.462891 21.855469 L 39.142578 12.855469 z M 9.9296875 18.453125 L 9.9296875 21.855469 L 9.1738281 21.855469 L 9.9296875 18.453125 z M 53.923828 18.453125 L 54.681641 21.855469 L 53.923828 21.855469 L 53.923828 18.453125 z M 11.933594 23.855469 L 18.914062 23.855469 L 18.917969 32.855469 L 16.15625 32.855469 L 16.921875 25.966797 C 16.982875 25.417797 16.586109 24.922328 16.037109 24.861328 C 15.499109 24.797328 14.994594 25.195141 14.933594 25.744141 L 14.142578 32.855469 L 11.935547 32.855469 L 11.933594 23.855469 z M 44.941406 23.857422 L 51.923828 23.857422 L 51.919922 32.855469 L 49.712891 32.855469 L 48.921875 25.746094 C 48.860875 25.197094 48.357359 24.798281 47.818359 24.863281 C 47.269359 24.924281 46.873594 25.417797 46.933594 25.966797 L 47.701172 32.857422 L 44.939453 32.857422 L 44.941406 23.857422 z M 6.4902344 34.855469 L 9.9355469 34.855469 L 9.9394531 43.855469 L 5.7226562 43.855469 C 5.7896563 40.843469 6.0512344 37.839469 6.4902344 34.855469 z M 20.917969 34.855469 L 23.925781 34.855469 L 23.605469 43.855469 L 20.919922 43.855469 L 20.917969 34.855469 z M 39.927734 34.855469 L 42.9375 34.855469 L 42.933594 43.855469 L 40.25 43.855469 L 39.927734 34.855469 z M 53.917969 34.855469 L 57.365234 34.855469 C 57.804234 37.839469 58.065812 40.843469 58.132812 43.855469 L 53.916016 43.855469 L 53.917969 34.855469 z M 11.941406 45.855469 L 13.099609 45.855469 C 12.985609 48.908469 12.927734 51.977375 12.927734 54.109375 L 12.927734 54.855469 L 11.945312 54.855469 L 11.941406 45.855469 z M 15.101562 45.855469 L 18.921875 45.855469 L 18.923828 54.855469 L 14.927734 54.855469 L 14.927734 54.109375 C 14.927734 51.976375 14.986562 48.901469 15.101562 45.855469 z M 44.933594 45.855469 L 48.753906 45.855469 C 48.868906 48.901469 48.927734 51.977375 48.927734 54.109375 L 48.927734 54.855469 L 44.929688 54.855469 L 44.933594 45.855469 z M 50.753906 45.855469 L 51.914062 45.855469 L 51.912109 54.855469 L 50.927734 54.855469 L 50.927734 54.109375 C 50.927734 51.976375 50.867906 48.908469 50.753906 45.855469 z M 6.4570312 56.855469 L 9.9453125 56.855469 L 9.9472656 60.855469 L 6.8378906 60.855469 L 6.4570312 56.855469 z M 20.923828 56.855469 L 20.925781 56.855469 L 23.140625 56.855469 L 22.962891 61.855469 L 20.925781 61.855469 L 20.923828 56.855469 z M 40.712891 56.855469 L 42.929688 56.855469 L 42.927734 61.855469 L 40.890625 61.855469 L 40.712891 56.855469 z M 53.910156 56.855469 L 57.400391 56.855469 L 57.019531 60.855469 L 53.910156 60.855469 L 53.908203 60.855469 L 53.910156 56.855469 z " />
  <sodipodi:namedview
     id="namedview1"
     pagecolor="#ffffff"
     bordercolor="#000000"
     borderopacity="0.25"
     inkscape:showpageshadow="2"
     inkscape:pageopacity="0.0"
     inkscape:pagecheckerboard="0"
     inkscape:deskcolor="#d1d1d1"
     inkscape:document-units="px"
     inkscape:zoom="6.7941176"
     inkscape:cx="24.212121"
     inkscape:cy="44.891775"
     inkscape:window-width="2256"
     inkscape:window-height="1427"
     inkscape:window-x="0"
     inkscape:window-y="0"
     inkscape:window-maximized="1"
     inkscape:current-layer="svg1" />
  <defs
     id="defs1" />
</svg>
