<?xml version="1.0" encoding="UTF-8" standalone="no"?>
<!-- Created with Inkscape (http://www.inkscape.org/) -->

<svg
   width="90.074997"
   height="90.074997"
   viewBox="0 0 90.074996 90.074997"
   version="1.1"
   id="svg1"
   inkscape:version="1.4.2 (ebf0e940d0, 2025-05-08)"
   sodipodi:docname="maglens.svg"
   xmlns:inkscape="http://www.inkscape.org/namespaces/inkscape"
   xmlns:sodipodi="http://sodipodi.sourceforge.net/DTD/sodipodi-0.dtd"
   xmlns="http://www.w3.org/2000/svg"
   xmlns:svg="http://www.w3.org/2000/svg">
  <sodipodi:namedview
     id="namedview1"
     pagecolor="#ffffff"
     bordercolor="#000000"
     borderopacity="0.25"
     inkscape:showpageshadow="2"
     inkscape:pageopacity="0.0"
     inkscape:pagecheckerboard="0"
     inkscape:deskcolor="#d1d1d1"
     inkscape:document-units="px"
     inkscape:zoom="9.6083333"
     inkscape:cx="45.117086"
     inkscape:cy="45.01301"
     inkscape:window-width="1128"
     inkscape:window-height="1427"
     inkscape:window-x="20"
     inkscape:window-y="20"
     inkscape:window-maximized="0"
     inkscape:current-layer="svg1" />
  <defs
     id="defs1" />
  <path
     d="M 87.849998,77.199998 72.849998,62.199998 C 70.949998,60.299998 68.349998,59.599998 65.849998,60.199998 L 57.249998,51.599998 C 61.549998,46.199998 64.049998,39.399998 64.049998,31.999998 64.049998,14.399998 49.649998,-1.5258789e-6 32.049998,-1.5258789e-6 14.449998,-1.5258789e-6 0.04999847,14.399998 0.04999847,31.999998 0.04999847,49.599998 14.449998,63.999998 32.049998,63.999998 39.449998,63.999998 46.249998,61.499998 51.649998,57.299998 L 60.249998,65.899998 C 59.749998,68.299998 60.349998,70.999998 62.249998,72.899998 L 77.249998,87.899998 C 80.149998,90.799998 84.949998,90.799998 87.849998,87.899998 90.749998,84.999998 90.749998,80.099998 87.849998,77.199998 Z M 32.049998,55.999998 C 18.849998,55.999998 8.0499985,45.199998 8.0499985,31.999998 8.0499985,18.799998 18.849998,7.9999985 32.049998,7.9999985 45.249998,7.9999985 56.049998,18.799998 56.049998,31.999998 56.049998,45.199998 45.249998,55.999998 32.049998,55.999998 Z"
     id="path1"
     style="fill:#000000" />
</svg>
