<?xml version="1.0" encoding="UTF-8" standalone="no"?>
<!-- Created with Inkscape (http://www.inkscape.org/) -->

<svg
   width="83.046997"
   height="83.046997"
   viewBox="0 0 83.046997 83.046997"
   version="1.1"
   id="svg1"
   inkscape:version="1.4.2 (ebf0e940d0, 2025-05-08)"
   sodipodi:docname="manuarrow.svg"
   xmlns:inkscape="http://www.inkscape.org/namespaces/inkscape"
   xmlns:sodipodi="http://sodipodi.sourceforge.net/DTD/sodipodi-0.dtd"
   xmlns="http://www.w3.org/2000/svg"
   xmlns:svg="http://www.w3.org/2000/svg">
  <sodipodi:namedview
     id="namedview1"
     pagecolor="#ffffff"
     bordercolor="#000000"
     borderopacity="0.25"
     inkscape:showpageshadow="2"
     inkscape:pageopacity="0.0"
     inkscape:pagecheckerboard="0"
     inkscape:deskcolor="#d1d1d1"
     inkscape:document-units="px"
     inkscape:zoom="9.6083333"
     inkscape:cx="12.020815"
     inkscape:cy="69.991327"
     inkscape:window-width="2256"
     inkscape:window-height="1427"
     inkscape:window-x="0"
     inkscape:window-y="0"
     inkscape:window-maximized="1"
     inkscape:current-layer="svg1" />
  <defs
     id="defs1" />
  <path
     d="M 16.635349,14.668349 71.998349,70.031349 C 72.529599,70.562599 72.529599,71.421949 71.998349,71.953249 71.467099,72.484549 70.603849,72.484499 70.072549,71.953249 L 14.713549,16.590249 11.186249,28.586249 0.04124854,2.4853516e-4 28.631249,11.145249 Z"
     id="path1"
     style="fill:#000000" />
  <path
     d="M 79.107349,64.187349 66.127349,63.519379 70.025749,67.417779 83.005749,68.085749 Z"
     id="path2"
     style="fill:#000000" />
  <path
     d="M 74.576349,59.656349 61.596349,58.988379 65.494749,62.886779 78.474749,63.554749 Z"
     id="path3"
     style="fill:#000000" />
  <path
     d="M 69.959349,55.039349 56.979349,54.371379 60.877749,58.269779 73.857749,58.937749 Z"
     id="path4"
     style="fill:#000000" />
  <path
     d="M 64.142349,79.148349 63.478289,66.171349 67.376689,70.069749 68.044659,83.046749 Z"
     id="path5"
     style="fill:#000000" />
  <path
     d="M 59.611349,74.617349 58.947289,61.637349 62.845689,65.539649 63.509749,78.516649 Z"
     id="path6"
     style="fill:#000000" />
  <path
     d="M 54.998349,70.000349 54.330379,57.020349 58.228779,60.922649 58.892839,73.899649 Z"
     id="path7"
     style="fill:#000000" />
</svg>
