<?xml version="1.0" encoding="UTF-8" standalone="no"?>
<!-- Created with Inkscape (http://www.inkscape.org/) -->

<svg
   width="88"
   height="88"
   viewBox="0 0 88.000001 88"
   version="1.1"
   id="svg1"
   inkscape:version="1.4.2 (ebf0e940d0, 2025-05-08)"
   sodipodi:docname="matches.svg"
   xmlns:inkscape="http://www.inkscape.org/namespaces/inkscape"
   xmlns:sodipodi="http://sodipodi.sourceforge.net/DTD/sodipodi-0.dtd"
   xmlns="http://www.w3.org/2000/svg"
   xmlns:svg="http://www.w3.org/2000/svg">
  <sodipodi:namedview
     id="namedview1"
     pagecolor="#ffffff"
     bordercolor="#000000"
     borderopacity="0.25"
     inkscape:showpageshadow="2"
     inkscape:pageopacity="0.0"
     inkscape:pagecheckerboard="0"
     inkscape:deskcolor="#d1d1d1"
     inkscape:document-units="px"
     inkscape:zoom="4.8041667"
     inkscape:cx="45.793582"
     inkscape:cy="94.397225"
     inkscape:window-width="1421"
     inkscape:window-height="1427"
     inkscape:window-x="20"
     inkscape:window-y="20"
     inkscape:window-maximized="0"
     inkscape:current-layer="svg1" />
  <defs
     id="defs1" />
  <path
     d="M 59.7505 22.648 L 59.7505 32.4527 L 61.8794 32.4527 L 61.8794 22.648 C 61.1958 22.8355 60.4341 22.8355 59.7505 22.648 Z"
     id="path1"
     style="fill:#000000" />
  <path
     d="M 51.3405 22.645 L 51.3405 32.4497 L 53.4694 32.4497 L 53.4694 22.6489 C 52.7858 22.8364 52.0241 22.8364 51.3405 22.645 Z"
     id="path2"
     style="fill:#000000" />
  <path
     d="M 52.4065 11.324 C 48.1799 11.5818 48.1838 20.531 52.4065 20.7888 C 56.6331 20.531 56.6292 11.5818 52.4065 11.324 Z"
     id="path3"
     style="fill:#000000" />
  <path
     d="M 19.3595 88 L 68.6405 88 L 68.6405 34.449 L 19.3595 34.449 Z M 22.1798 38.262 C 22.1798 37.7073 22.629 37.262 23.1798 37.262 L 64.8248 37.262 C 65.3756 37.262 65.8248 37.7073 65.8248 38.262 L 65.8248 84.188 C 65.8248 84.7427 65.3756 85.188 64.8248 85.188 L 23.1798 85.1841 C 22.629 85.1841 22.1798 84.7388 22.1798 84.1841 L 22.1798 38.2581 Z"
     id="path4"
     style="fill:#000000" />
  <path
     d="M 55.4695 21.488 L 55.4695 32.449 L 57.7507 32.449 L 57.7507 21.484 C 57.3132 21.0699 56.9304 20.5738 56.6101 20.0074 C 56.2898 20.5738 55.907 21.0738 55.4695 21.4879 Z"
     id="path5"
     style="fill:#000000" />
  <path
     d="M 19.3635 0 L 68.6365 0 L 68.6365 2.8672 L 19.3635 2.8672 Z"
     id="path6"
     style="fill:#000000" />
  <path
     d="M 63.8205 39.262 L 24.1795 39.262 L 24.1795 83.188 L 63.8245 83.188 L 63.8245 39.262 Z M 50.4965 76.371 C 46.7934 79.5858 41.2074 79.5702 37.4765 76.3671 C 25.5665 65.8401 40.3593 46.4961 43.3085 44.2731 C 43.6913 43.9098 44.289 43.9059 44.6757 44.2614 C 45.0976 44.652 55.0427 53.9567 55.0427 66.2774 C 55.0427 70.254 53.3435 74.0274 50.4958 76.3714 Z"
     id="path7"
     style="fill:#000000" />
  <path
     d="M 40.0005 72.059 C 39.8482 75.4028 43.4732 78.2738 46.2739 75.9379 C 50.4927 72.4809 45.9223 64.7229 44.0122 62.9219 C 42.7114 64.4102 40.0044 68 40.0044 72.0586 Z"
     id="path8"
     style="fill:#000000" />
  <path
     d="M 34.9575 66.277 C 34.9575 69.5075 36.2544 72.5426 38.4263 74.5192 C 36.2349 68.6208 42.6919 61.0702 43.313 60.7422 C 43.6958 60.3789 44.2935 60.375 44.6802 60.7305 C 45.3325 61.0664 51.7505 68.461 49.5864 74.4925 C 58.6137 66.0863 47.7036 49.6565 44.0161 46.4265 C 41.8052 48.8015 34.9614 56.9065 34.9614 66.2785 Z"
     id="path9"
     style="fill:#000000" />
  <path
     d="M 64.0205 16.059 C 63.8096 9.7973 57.8252 9.7973 57.6143 16.059 C 57.8252 22.3207 63.8096 22.3207 64.0205 16.059 Z"
     id="path10"
     style="fill:#000000" />
  <path
     d="M 47.0595 21.492 L 47.0595 32.453 L 49.3407 32.453 L 49.3407 21.484 C 48.9071 21.0699 48.5243 20.5738 48.204 20.0113 C 47.8837 20.5777 47.5009 21.0777 47.0595 21.4918 Z"
     id="path11"
     style="fill:#000000" />
  <path
     d="M 27.1845 11.324 C 22.9579 11.5818 22.9618 20.531 27.1845 20.7888 C 31.4111 20.531 31.4072 11.5818 27.1845 11.324 Z"
     id="path12"
     style="fill:#000000" />
  <path
     d="M 26.1215 22.648 L 26.1215 32.4527 L 28.2504 32.4527 L 28.2504 22.648 C 27.5668 22.8355 26.8051 22.8394 26.1215 22.648 Z"
     id="path13"
     style="fill:#000000" />
  <path
     d="M 34.5315 22.648 L 34.5315 32.4488 L 36.6604 32.4488 L 36.6604 22.6441 C 35.9768 22.8355 35.2151 22.8355 34.5315 22.648 Z"
     id="path14"
     style="fill:#000000" />
  <path
     d="M 19.3595 4.867 L 19.3595 32.453 L 24.1212 32.453 L 24.1212 21.488 C 20.3009 18.0935 21.879 9.41 27.1876 9.328 C 28.9142 9.328 30.4454 10.4257 31.3907 12.1092 C 33.3477 8.4373 37.8438 8.4412 39.7969 12.1092 C 41.7539 8.4373 46.25 8.4412 48.2031 12.1092 C 50.1601 8.4373 54.6562 8.4412 56.6093 12.1092 C 57.5546 10.4295 59.0859 9.328 60.8124 9.328 C 66.121 9.41003 67.6991 18.0975 63.8749 21.488 L 63.8749 32.453 L 68.6366 32.453 L 68.6405 4.867 Z"
     id="path15"
     style="fill:#000000" />
  <path
     d="M 30.2505 21.484 L 30.2505 32.449 L 32.5317 32.449 L 32.5317 21.488 C 32.0942 21.0739 31.7114 20.5739 31.3911 20.0075 C 31.0747 20.5739 30.688 21.07 30.2505 21.4841 Z"
     id="path16"
     style="fill:#000000" />
  <path
     d="M 38.6605 21.484 L 38.6605 32.453 L 40.9417 32.453 L 40.9417 21.492 C 40.5042 21.0779 40.1175 20.5779 39.7972 20.0115 C 39.4808 20.574 39.098 21.074 38.6605 21.4842 Z"
     id="path17"
     style="fill:#000000" />
  <path
     d="M 42.9415 22.648 L 42.9415 32.4488 L 45.0626 32.4488 L 45.0626 22.648 C 44.3829 22.8355 43.6251 22.8355 42.9415 22.648 Z"
     id="path18"
     style="fill:#000000" />
  <path
     d="M 44.0005 11.324 C 39.7739 11.5818 39.7778 20.531 44.0005 20.7888 C 48.2271 20.531 48.2232 11.5818 44.0005 11.324 Z"
     id="path19"
     style="fill:#000000" />
  <path
     d="M 35.5945 11.324 C 31.3679 11.5818 31.3718 20.531 35.5945 20.7888 C 39.8211 20.531 39.8172 11.5818 35.5945 11.324 Z"
     id="path20"
     style="fill:#000000" />
</svg>
