<?xml version="1.0" encoding="UTF-8" standalone="no"?>
<!-- Created with Inkscape (http://www.inkscape.org/) -->

<svg
   width="90"
   height="90"
   viewBox="0 0 90 90.000001"
   version="1.1"
   id="svg1"
   inkscape:version="1.4.2 (ebf0e940d0, 2025-05-08)"
   sodipodi:docname="matches.svg"
   xmlns:inkscape="http://www.inkscape.org/namespaces/inkscape"
   xmlns:sodipodi="http://sodipodi.sourceforge.net/DTD/sodipodi-0.dtd"
   xmlns="http://www.w3.org/2000/svg"
   xmlns:svg="http://www.w3.org/2000/svg">
  <sodipodi:namedview
     id="namedview1"
     pagecolor="#ffffff"
     bordercolor="#000000"
     borderopacity="0.25"
     inkscape:showpageshadow="2"
     inkscape:pageopacity="0.0"
     inkscape:pagecheckerboard="0"
     inkscape:deskcolor="#d1d1d1"
     inkscape:document-units="px"
     inkscape:zoom="4.8041667"
     inkscape:cx="44.648743"
     inkscape:cy="31.951431"
     inkscape:window-width="2256"
     inkscape:window-height="1427"
     inkscape:window-x="0"
     inkscape:window-y="0"
     inkscape:window-maximized="1"
     inkscape:current-layer="svg1" />
  <defs
     id="defs1" />
  <path
     d="M 84.4336 37.4954 L 40.1191 59.6536 L 40.1191 69.7786 L 84.4336 47.6223 Z"
     style="fill:#000000"
     id="path4" />
  <path
     d="M 53.6387 12.9563 C 53.3612 12.9563 53.0831 13.0202 52.8281 13.1477 L 1 39.0618 C 0.387 39.3688 0 39.9949 0 40.6809 L 0 57.9563 C 0 58.6423 0.387 59.2684 1 59.5754 L 35.5527 76.8528 L 35.5547 76.8528 C 36.0617 77.1058 36.6599 77.1088 37.1719 76.8528 L 88.9981 50.9387 C 89.612 50.6317 90 50.0046 90 49.3196 L 90 32.0422 C 90 31.3562 89.612 30.7301 88.9981 30.4231 L 54.4473 13.1477 C 54.1923 13.0202 53.9162 12.9563 53.6387 12.9563 Z M 69.709 28.7063 C 69.7611 28.7036 69.8146 28.7091 69.8652 28.72 C 69.9992 28.75 70.0768 28.8218 70.0488 28.8938 C 69.7288 29.7178 69.2383 30.9778 69.2383 30.9778 C 67.6503 35.0678 64.3201 39.9886 59.4121 42.4426 C 55.3931 44.4526 48.8677 44.4526 44.8477 42.4426 C 43.3677 41.7026 42.431 40.7922 42.041 39.8372 C 42.0406 39.8361 42.0413 39.8324 42.041 39.8313 C 42.0407 39.8291 42.0407 39.8237 42.041 39.8215 C 42.0416 39.8194 42.0438 39.8139 42.0449 39.8118 C 42.0503 39.8034 42.0593 39.7943 42.0723 39.7883 C 42.0993 39.7763 42.1369 39.7736 42.1719 39.7786 C 42.3389 39.8036 42.6195 39.8448 42.9375 39.8938 C 44.0165 40.0578 44.939 40.41 45.541 40.886 C 45.839 41.125 46.1983 41.3509 46.6133 41.5579 C 49.6573 43.0809 54.6025 43.0809 57.6465 41.5579 C 61.4295 39.6669 64.1413 36.2047 65.8203 32.8977 C 62.8763 34.0357 59.5507 34.4429 56.3457 34.6829 C 54.3037 34.8369 52.3197 34.9196 50.5527 35.1125 C 49.0097 35.2815 47.6393 35.5302 46.6133 36.0422 C 46.2043 36.2472 45.8498 36.4684 45.5508 36.7024 C 44.9098 37.2064 43.908 37.57 42.75 37.718 C 42.514 37.75 42.3107 37.7743 42.1797 37.7903 C 42.1457 37.7943 42.109 37.7906 42.084 37.7786 C 42.0677 37.7711 42.0565 37.7578 42.0527 37.7473 C 42.0525 37.7463 42.0528 37.7425 42.0527 37.7415 C 42.0528 37.7393 42.0541 37.7338 42.0547 37.7317 C 42.4527 36.7887 43.3847 35.8904 44.8477 35.1594 C 46.9347 34.1164 50.0547 33.8356 53.5547 33.6106 C 58.0497 33.3206 63.251 33.0874 66.998 30.4934 C 66.998 30.4934 68.5033 29.4518 69.4863 28.7708 C 69.5401 28.7339 69.6222 28.7108 69.709 28.7063 Z M 86.3789 34.9739 L 86.3789 48.1985 L 38.1738 72.302 L 38.1738 59.0754 Z M 52.0781 36.6262 C 54.4581 36.6262 56.3926 37.5925 56.3926 38.7825 C 56.3926 39.9735 54.4581 40.9387 52.0781 40.9387 C 50.5971 40.9387 48.1234 40.546 46.0254 40.136 C 45.4924 40.047 45.0371 39.8841 44.7031 39.675 C 44.4281 39.5061 44.0161 39.4075 43.5801 39.4075 L 15.3516 39.4075 C 14.6626 39.4075 14.1035 39.1275 14.1035 38.7825 C 14.1035 38.4385 14.6626 38.1575 15.3516 38.1575 C 15.3516 38.1575 38.9521 38.1585 43.5801 38.1575 C 44.0151 38.1575 44.4272 38.0589 44.7012 37.8899 C 45.0362 37.6809 45.4895 37.5199 46.0215 37.4309 C 48.1235 37.0199 50.5971 36.6262 52.0781 36.6262 Z M 52.0781 37.8762 C 50.8071 37.8762 50.8071 39.6887 52.0781 39.6887 C 53.0791 39.6887 53.8926 39.2835 53.8926 38.7825 C 53.8926 38.2825 53.0791 37.8762 52.0781 37.8762 Z M 3.62109 43.6106 L 34.5527 59.0754 L 34.5527 72.302 L 3.62109 56.8372 Z"
     style="fill:#000000"
     id="path3" />
</svg>
