<?xml version="1.0" encoding="UTF-8" standalone="no"?>
<!-- Created with Inkscape (http://www.inkscape.org/) -->

<svg
   width="90.010002"
   height="90.010002"
   viewBox="0 0 90.010002 90.010002"
   version="1.1"
   id="svg1"
   inkscape:version="1.4.2 (ebf0e940d0, 2025-05-08)"
   sodipodi:docname="simpleparka.svg"
   xmlns:inkscape="http://www.inkscape.org/namespaces/inkscape"
   xmlns:sodipodi="http://sodipodi.sourceforge.net/DTD/sodipodi-0.dtd"
   xmlns="http://www.w3.org/2000/svg"
   xmlns:svg="http://www.w3.org/2000/svg">
  <sodipodi:namedview
     id="namedview1"
     pagecolor="#ffffff"
     bordercolor="#000000"
     borderopacity="0.25"
     inkscape:showpageshadow="2"
     inkscape:pageopacity="0.0"
     inkscape:pagecheckerboard="0"
     inkscape:deskcolor="#d1d1d1"
     inkscape:document-units="px"
     inkscape:zoom="3.3970588"
     inkscape:cx="35.471862"
     inkscape:cy="86.398269"
     inkscape:window-width="2256"
     inkscape:window-height="1427"
     inkscape:window-x="0"
     inkscape:window-y="0"
     inkscape:window-maximized="1"
     inkscape:current-layer="svg1" />
  <defs
     id="defs1" />
  <path
     d="M 14.778 62.646 L 13.922 69.005 L 13.924 69.005 L 14.778 62.66 C 15.971 62.768 17.164 62.763 18.356 62.874 C 19.92 63.02 21.486 63.109 23.051 63.248 C 23.051 63.243 23.052 63.21 23.053 63.204 C 21.487 63.066 19.921 63.02 18.356 62.873 C 17.164 62.762 15.972 62.753 14.778 62.646 Z"
     id="path1"
     style="fill:#000000" />
  <path
     d="M 32.005 68.834 L 32.005 68.864 C 32.005 68.864 31.177 68.843 30.694 68.825 C 30.334 68.813 29.968 68.803 29.575 68.805 C 28.159 68.815 26.6 68.869 25.057 68.855 C 24.925 70.02 24.795 71.338 24.664 72.544 C 24.648 72.697 24.635 73.005 24.618 73.005 L 31.775 73.005 C 31.935 72.005 32.03 70.353 32.052 68.84 L 32.052 68.84 C 32.052 68.84 32.029 68.847 32.029 68.837 Z"
     id="path2"
     style="fill:#000000" />
  <path
     d="M 37.368 26.239 C 36.91 26.235 36.421 26.23 35.971 26.226 C 35.219 26.219 34.415 26.211 33.69 26.211 C 28.234 26.211 24.77 26.719 22.808 29.29 C 22.679 29.459 22.539 29.639 22.423 29.826 C 19.501 35.592 16.663 45.631 14 59.683 C 15.538 59.819 17.071 59.962 18.608 60.107 C 20.198 60.255 21.786 60.403 23.377 60.543 C 23.733 57.662 24.085 54.889 24.412 52.312 C 24.934 48.207 25.385 44.662 25.689 41.913 C 25.77 41.188 26.416 40.667 27.15 40.745 C 27.834 40.82 28.337 41.404 28.327 42.079 C 28.326 42.121 28.324 42.163 28.319 42.206 C 28.012 44.976 27.56 48.531 27.036 52.647 C 26.867 53.977 26.691 55.366 26.512 56.793 C 26.294 58.527 26.07 60.318 25.847 62.149 C 25.795 62.576 25.742 63.016 25.687 63.462 C 25.622 63.998 25.555 64.488 25.487 65.074 C 25.448 65.402 25.409 66.005 25.369 66.005 L 25.375 66.005 C 25.373 66.005 26.005 66.031 26.005 66.052 L 26.005 66.12 C 26.005 66.099 25.692 66.114 25.694 66.094 C 27.124 66.105 28.412 66.119 29.728 66.11 C 30.182 66.107 30.54 66.113 30.952 66.113 C 32.02 66.111 32.88 66.125 33.477 66.151 C 34.178 66.183 34.712 66.785 34.721 67.486 C 34.725 67.832 34.716 68.174 34.713 68.508 C 34.654 76.284 32.746 81.271 28.833 83.687 C 27.348 84.605 25.572 85.156 23.496 85.344 C 23.404 86.642 23.324 87.782 23.259 89.092 C 23.241 89.424 23.225 90.005 23.211 90.005 L 44.005 90.005 L 44.005 90.01 L 44.005 33.32 L 44.005 33.317 L 44.005 33.305 L 44.005 32.818 L 44.005 32.803 C 41.005 32.267 38.516 30.173 37.368 26.239 Z M 25.581 64.348 C 25.568 64.457 25.555 64.568 25.541 64.679 C 25.555 64.568 25.568 64.457 25.581 64.348 Z M 42.005 41.479 L 42.005 50.83 C 42.005 51.264 41.794 51.669 41.438 51.916 C 39.563 53.218 37.682 53.878 35.835 53.878 C 33.965 53.878 32.23 53.207 30.496 51.881 C 30.168 51.63 30.005 51.241 30.005 50.829 L 30.005 41.478 L 30.005 41.463 C 30.005 40.734 30.533 41.005 31.264 41.005 L 40.746 41.005 C 41.478 41.005 42.005 40.734 42.005 41.464 Z"
     id="path3"
     style="fill:#000000" />
  <path
     d="M 57.861 68.849 C 58.05 68.849 58.246 68.843 58.452 68.833 C 58.246 68.838 58.051 68.841 57.861 68.841 L 57.861 68.849 Z"
     id="path4"
     style="fill:#000000" />
  <path
     d="M 76.086 69.005 L 76.088 69.005 L 75.231 62.646 C 74.039 62.753 72.846 62.769 71.653 62.88 C 70.088 63.028 68.523 63.106 66.956 63.244 C 66.956 63.248 66.957 63.22 66.958 63.225 C 67.19 65.151 67.437 67.234 67.684 69.434 L 76.086 68.549 L 75.231 62.432 C 74.039 62.54 72.846 62.648 71.653 62.76 C 72.845 62.648 74.038 62.769 75.231 62.66 Z"
     id="path5"
     style="fill:#000000" />
  <path
     d="M 55.307 68.489 C 55.304 68.143 55.305 67.792 55.309 67.434 C 55.317 66.733 55.872 66.161 56.572 66.128 C 57.399 66.092 58.808 66.102 60.441 66.112 C 61.757 66.121 63.204 66.041 64.633 66.029 C 64.635 66.053 64.637 66.005 64.64 66.005 L 64.641 66.005 L 64.634 66.005 L 64.64 66.005 C 64.6 66.005 64.56 65.39 64.521 65.06 C 64.456 64.498 64.392 63.997 64.329 63.484 C 64.273 63.021 64.218 62.579 64.164 62.136 C 63.759 58.811 63.351 55.619 62.977 52.673 C 62.665 50.218 62.379 47.969 62.133 45.959 C 61.966 44.594 61.817 43.34 61.693 42.217 C 61.691 42.203 61.691 42.191 61.69 42.176 C 61.688 42.145 61.685 42.111 61.685 42.079 C 61.677 41.406 62.18 40.829 62.862 40.755 C 63.244 40.708 63.602 40.835 63.87 41.068 C 64.116 41.282 64.285 41.587 64.324 41.934 C 64.629 44.687 65.082 48.258 65.603 52.371 C 65.831 54.161 66.071 56.236 66.315 58.184 C 66.422 59.036 66.529 60.005 66.637 61.005 L 66.639 61.005 C 68.229 61.005 69.817 60.488 71.407 60.339 C 72.499 60.236 73.592 60.019 74.684 59.896 C 75.129 59.847 75.574 59.761 76.018 59.722 C 73.354 45.666 70.525 35.609 67.604 29.847 C 67.487 29.659 67.364 29.471 67.235 29.302 C 65.273 26.731 61.841 26.217 56.386 26.217 C 55.661 26.217 54.921 26.222 54.168 26.229 C 53.718 26.233 53.603 26.237 53.145 26.24 C 52.094 29.851 50.005 32.292 47.005 32.831 L 47.005 32.847 L 47.005 90.005 L 66.8 90.005 C 66.729 89.005 66.633 86.873 66.518 85.247 C 58.984 84.566 55.396 79.2 55.307 68.489 Z M 60.005 41.479 L 60.005 50.83 C 60.005 51.264 59.789 51.669 59.433 51.916 C 57.557 53.218 55.681 53.878 53.833 53.878 C 51.964 53.878 50.233 53.207 48.499 51.881 C 48.172 51.63 48.005 51.241 48.005 50.829 L 48.005 41.478 L 48.005 41.463 C 48.005 40.734 48.53 41.005 49.261 41.005 L 49.263 41.005 L 49.263 41.005 L 58.746 41.005 L 58.923 41.005 C 59.654 41.005 60.005 40.734 60.005 41.464 Z"
     id="path6"
     style="fill:#000000" />
  <path
     d="M 26.857 24.074 C 28.942 23.636 31.253 23.565 33.627 23.565 C 34.359 23.565 35.109 23.571 35.87 23.579 C 36.055 23.581 36.242 23.763 36.429 23.765 C 36.435 23.786 36.442 24.005 36.449 24.005 L 36.454 24.005 L 36.433 24.005 L 36.448 24.005 C 34.852 19.005 33.346 17.939 31.339 16.598 C 31.027 16.39 30.707 16.072 30.378 15.839 C 30.068 15.62 29.868 15.221 29.826 14.846 C 29.822 14.813 29.821 14.755 29.82 14.722 C 29.82 14.706 29.818 14.678 29.818 14.664 C 29.814 14.334 29.933 14.006 30.155 13.759 C 33.858 9.63 39.125 7.314 44.989 7.241 C 50.885 7.313 56.153 9.625 59.856 13.753 C 60.079 14.001 60.198 14.323 60.194 14.652 C 60.194 14.663 60.192 14.673 60.192 14.685 C 60.191 14.718 60.19 14.752 60.186 14.787 C 60.144 15.163 59.943 15.501 59.634 15.719 C 59.476 15.83 59.321 15.945 59.166 16.056 C 58.999 16.169 58.834 16.49 58.671 16.598 C 56.663 17.939 55.158 19.005 53.562 24.005 L 53.578 24.005 L 53.557 24.005 L 53.562 24.005 C 53.569 24.005 53.576 23.785 53.583 23.765 C 53.77 23.763 53.957 23.671 54.142 23.669 C 54.904 23.661 55.653 23.609 56.386 23.609 C 58.76 23.609 61.07 23.659 63.155 24.096 C 63.787 23.3 64.302 22.501 64.716 21.694 C 66.048 19.098 66.706 16.642 66.689 14.357 C 66.674 12.332 66.131 10.433 65.059 8.677 C 61.839 3.407 53.968 0 45.005 0 C 36.042 0 28.171 3.405 24.952 8.675 C 23.879 10.431 23.336 12.327 23.322 14.352 C 23.305 16.638 23.963 19.087 25.295 21.683 C 25.71 22.492 26.225 23.28 26.857 24.074 Z"
     id="path7"
     style="fill:#000000" />
  <path
     d="M 23.695 82.838 C 23.795 82.826 23.894 82.677 23.993 82.663 C 24.389 82.608 24.783 82.471 25.169 82.379 C 25.749 82.242 26.315 82.023 26.856 81.765 C 27.037 81.679 27.214 81.569 27.389 81.465 C 27.477 81.414 27.563 81.628 27.649 81.572 C 29.196 80.568 30.486 79.005 31.263 76.005 L 31.263 76.005 L 24.345 76.005 C 24.107 78.005 23.885 80.481 23.695 82.838 Z"
     id="path8"
     style="fill:#000000" />
  <path
     d="M 63.153 82.007 C 64.146 82.48 65.219 82.573 66.314 82.7 C 66.291 82.405 66.266 82.042 66.242 81.748 C 66.199 81.236 66.324 80.69 66.278 80.179 C 66.14 78.643 66.005 77.312 66.005 75.698 L 66.005 76.005 L 58.747 76.005 C 59.653 79.005 61.257 81.106 63.153 82.007 Z"
     id="path9"
     style="fill:#000000" />
  <path
     d="M 65.392 73.005 L 65.392 73.005 C 65.373 73.005 65.354 72.654 65.335 72.479 C 65.207 71.296 65.077 70.027 64.947 68.882 C 63.404 68.898 61.839 68.818 60.423 68.807 C 59.749 68.802 59.114 68.823 58.548 68.835 C 58.342 68.843 58.144 68.855 57.957 68.856 C 57.978 70.362 58.074 72.005 58.234 73.005 Z"
     id="path10"
     style="fill:#000000" />
  <path
     d="M 14.778 62.429 L 13.924 68.542 L 22.326 69.417 C 22.573 67.218 22.82 65.117 23.052 63.19 C 21.487 63.051 19.921 62.905 18.357 62.758 C 17.164 62.647 15.972 62.536 14.778 62.429 Z"
     id="path11"
     style="fill:#000000" />
  <path
     d="M 50.473 24.655 C 50.478 24.628 50.743 24.6 50.752 24.575 L 51.005 24.745 L 51.005 25.005 L 50.493 25.005 C 50.494 25.005 51.005 24.581 51.005 24.576 L 51.005 25.005 L 50.574 25.005 L 50.532 24.781 C 52.485 17.883 54.498 16.116 56.824 14.548 C 56.827 14.546 56.821 14.488 56.824 14.485 C 52.684 10.635 47.716 9.945 44.993 9.912 C 42.3 9.945 37.336 10.594 33.197 14.443 C 33.2 14.445 33.201 14.44 33.205 14.442 C 35.53 16.01 37.562 17.663 39.516 24.561 L 39.513 24.582 C 39.512 24.58 39.512 24.593 39.511 24.593 L 39.511 24.593 C 39.511 24.593 39.512 24.579 39.512 24.581 L 39.511 24.576 C 39.512 24.581 39.514 24.592 39.515 24.592 L 39.515 24.592 C 39.523 24.592 39.533 24.634 39.538 24.661 C 40.241 28.09 42.404 30.302 45.05 30.302 C 47.641 30.302 49.77 28.083 50.473 24.655 Z"
     id="path12"
     style="fill:#000000" />
  <path
     d="M 33.005 50.148 C 35.005 51.607 37.005 51.593 39.005 50.112 L 39.005 43.005 L 33.005 43.005 Z"
     id="path13"
     style="fill:#000000" />
  <path
     d="M 51.005 50.148 C 53.005 51.607 55.005 51.593 57.005 50.112 L 57.005 43.005 L 51.005 43.005 Z"
     id="path14"
     style="fill:#000000" />
</svg>
