<?xml version="1.0" encoding="UTF-8" standalone="no"?>
<!-- Created with Inkscape (http://www.inkscape.org/) -->

<svg
   width="24.226"
   height="24.226"
   viewBox="0 0 24.226 24.226"
   version="1.1"
   id="svg1"
   inkscape:version="1.4.2 (ebf0e940d0, 2025-05-08)"
   sodipodi:docname="milling.svg"
   xmlns:inkscape="http://www.inkscape.org/namespaces/inkscape"
   xmlns:sodipodi="http://sodipodi.sourceforge.net/DTD/sodipodi-0.dtd"
   xmlns="http://www.w3.org/2000/svg"
   xmlns:svg="http://www.w3.org/2000/svg">
  <sodipodi:namedview
     id="namedview1"
     pagecolor="#ffffff"
     bordercolor="#000000"
     borderopacity="0.25"
     inkscape:showpageshadow="2"
     inkscape:pageopacity="0.0"
     inkscape:pagecheckerboard="0"
     inkscape:deskcolor="#d1d1d1"
     inkscape:document-units="px"
     inkscape:zoom="5.8104576"
     inkscape:cx="32.61361"
     inkscape:cy="80.286276"
     inkscape:window-width="2256"
     inkscape:window-height="1427"
     inkscape:window-x="0"
     inkscape:window-y="0"
     inkscape:window-maximized="1"
     inkscape:current-layer="svg1" />
  <defs
     id="defs1">
    <inkscape:path-effect
       effect="fillet_chamfer"
       id="path-effect2"
       is_visible="true"
       lpeversion="1"
       nodesatellites_param="F,0,0,1,0,0,0,1 @ F,0,0,1,0,0,0,1 @ F,0,0,1,0,0,0,1 @ F,0,0,1,0,0,0,1 | F,0,0,1,0,0,0,1 @ F,0,0,1,0,0,0,1 @ F,0,0,1,0,0,0,1 @ F,0,0,1,0,0,0,1 @ F,0,0,1,0,0,0,1 @ F,0,0,1,0,0,0,1 @ F,0,0,1,0,0,0,1 @ F,0,0,1,0,0,0,1 | F,0,0,1,0,0,0,1 @ F,0,0,1,0,0,0,1 @ F,0,0,1,0,0,0,1 @ F,0,0,1,0,0,0,1 @ F,0,0,1,0,0,0,1 @ F,0,0,1,0,0,0,1 @ F,0,0,1,0,0,0,1 @ F,0,0,1,0,0,0,1 | F,0,0,1,0,0,0,1 @ F,0,0,1,0,0,0,1 @ F,0,0,1,0,0,0,1 @ F,0,0,1,0,0,0,1 @ F,0,0,1,0,0,0,1 @ F,0,0,1,0,0,0,1 | F,0,0,1,0,0,0,1 @ F,0,0,1,0,0,0,1 @ F,0,0,1,0,0,0,1 @ F,0,0,1,0,0,0,1 @ F,0,0,1,0,0,0,1 @ F,0,0,1,0,0,0,1 @ F,0,0,1,0,0,0,1 @ F,0,0,1,0,0,0,1 @ F,0,0,1,0,0,0,1 @ F,0,0,1,0,0,0,1 @ F,0,0,1,0,0,0,1 @ F,0,0,1,0,0,0,1 | F,0,0,1,0,0,0,1 @ F,0,0,1,0,0,0,1 @ F,0,0,1,0,0,0,1 @ F,0,0,1,0,0,0,1 | F,0,0,1,0,0,0,1 @ F,0,0,1,0,0,0,1 @ F,0,0,1,0,0,0,1 @ F,0,0,1,0,0,0,1 @ F,0,0,1,0,0,0,1 @ F,0,0,1,0,0,0,1 @ F,0,0,1,0,0,0,1 @ F,0,0,1,0,0,0,1 @ F,0,0,1,0,0,0,1 @ F,0,0,1,0,0,0,1 @ F,0,0,1,0,0,0,1 @ F,0,0,1,0,0,0,1 | F,0,0,1,0,0,0,1 @ F,0,0,1,0,0,0,1 @ F,0,0,1,0,0,0,1 @ F,0,0,1,0,0,0,1 @ F,0,0,1,0,0,0,1 @ F,0,0,1,0,0,0,1 | F,0,0,1,0,0,0,1 @ F,0,0,1,0,0,0,1 @ F,0,0,1,0,0,0,1 @ F,0,0,1,0,0,0,1 | F,0,0,1,0,0,0,1 @ F,0,0,1,0,0,0,1 @ F,0,0,1,0,0,0,1 @ F,0,0,1,0,0,0,1 | F,0,0,1,0,0,0,1 @ F,0,0,1,0,0,0,1 @ F,0,0,1,0,0,0,1 @ F,0,0,1,0,0,0,1 | F,0,0,1,0,0,0,1 @ F,0,0,1,0,0,0,1 @ F,0,0,1,0,0,0,1 @ F,0,0,1,0,0,0,1 | F,0,0,1,0,0,0,1 @ F,0,0,1,0,0,0,1 @ F,0,0,1,0,0,0,1 @ F,0,0,1,0,0,0,1 | F,0,0,1,0,0,0,1 @ F,0,0,1,0,0,0,1 @ F,0,0,1,0,0,0,1 @ F,0,0,1,0,0,0,1 | F,0,0,1,0,0,0,1 @ F,0,0,1,0,0,0,1 @ F,0,0,1,0,0,0,1 @ F,0,0,1,0,0,0,1 | F,0,0,1,0,0,0,1 @ F,0,0,1,0,0,0,1 @ F,0,0,1,0,0,0,1 @ F,0,0,1,0,0,0,1 @ F,0,0,1,0,0,0,1 @ F,0,0,1,0,0,0,1 | F,0,0,1,0,0,0,1 @ F,0,0,1,0,0,0,1 @ F,0,0,1,0,0,0,1 @ F,0,0,1,0,0,0,1 | F,0,0,1,0,0,0,1 @ F,0,0,1,0,0,0,1 @ F,0,0,1,0,0,0,1 @ F,0,0,1,0,0,0,1 | F,0,0,1,0,0,0,1 @ F,0,0,1,0,0,0,1 @ F,0,0,1,0,0,0,1 @ F,0,0,1,0,0,0,1 | F,0,0,1,0,0,0,1 @ F,0,0,1,0,0,0,1 @ F,0,0,1,0,0,0,1 @ F,0,0,1,0,0,0,1"
       radius="0"
       unit="px"
       method="auto"
       mode="F"
       chamfer_steps="1"
       flexible="false"
       use_knot_distance="true"
       apply_no_radius="true"
       apply_with_radius="true"
       only_selected="false"
       hide_knots="false" />
    <inkscape:path-effect
       effect="fillet_chamfer"
       id="path-effect1"
       is_visible="true"
       lpeversion="1"
       nodesatellites_param="F,0,0,1,0,0,0,1 @ F,0,0,1,0,0,0,1 @ F,0,0,1,0,0,0,1 @ F,0,0,1,0,0,0,1 | F,0,0,1,0,0,0,1 @ F,0,0,1,0,0,0,1 @ F,0,0,1,0,0,0,1 @ F,0,0,1,0,0,0,1 @ F,0,0,1,0,0,0,1 @ F,0,0,1,0,0,0,1 @ F,0,0,1,0,0,0,1 @ F,0,0,1,0,0,0,1 | F,0,0,1,0,0,0,1 @ F,0,0,1,0,0,0,1 @ F,0,0,1,0,0,0,1 @ F,0,0,1,0,0,0,1 @ F,0,0,1,0,0,0,1 @ F,0,0,1,0,0,0,1 @ F,0,0,1,0,0,0,1 @ F,0,0,1,0,0,0,1 | F,0,0,1,0,0,0,1 @ F,0,0,1,0,0,0,1 @ F,0,0,1,0,0,0,1 @ F,0,0,1,0,0,0,1 @ F,0,0,1,0,0,0,1 @ F,0,0,1,0,0,0,1 | F,0,0,1,0,0,0,1 @ F,0,0,1,0,0,0,1 @ F,0,0,1,0,0,0,1 @ F,0,0,1,0,0,0,1 @ F,0,0,1,0,0,0,1 @ F,0,0,1,0,0,0,1 @ F,0,0,1,0,0,0,1 @ F,0,0,1,0,0,0,1 @ F,0,0,1,0,0,0,1 @ F,0,0,1,0,0,0,1 @ F,0,0,1,0,0,0,1 @ F,0,0,1,0,0,0,1 | F,0,0,1,0,0,0,1 @ F,0,0,1,0,0,0,1 @ F,0,0,1,0,0,0,1 @ F,0,0,1,0,0,0,1 | F,0,0,1,0,0,0,1 @ F,0,0,1,0,0,0,1 @ F,0,0,1,0,0,0,1 @ F,0,0,1,0,0,0,1 @ F,0,0,1,0,0,0,1 @ F,0,0,1,0,0,0,1 @ F,0,0,1,0,0,0,1 @ F,0,0,1,0,0,0,1 @ F,0,0,1,0,0,0,1 @ F,0,0,1,0,0,0,1 @ F,0,0,1,0,0,0,1 @ F,0,0,1,0,0,0,1 | F,0,0,1,0,0,0,1 @ F,0,0,1,0,0,0,1 @ F,0,0,1,0,0,0,1 @ F,0,0,1,0,0,0,1 @ F,0,0,1,0,0,0,1 @ F,0,0,1,0,0,0,1 | F,0,0,1,0,0,0,1 @ F,0,0,1,0,0,0,1 @ F,0,0,1,0,0,0,1 @ F,0,0,1,0,0,0,1 | F,0,0,1,0,0,0,1 @ F,0,0,1,0,0,0,1 @ F,0,0,1,0,0,0,1 @ F,0,0,1,0,0,0,1 | F,0,0,1,0,0,0,1 @ F,0,0,1,0,0,0,1 @ F,0,0,1,0,0,0,1 @ F,0,0,1,0,0,0,1 | F,0,0,1,0,0,0,1 @ F,0,0,1,0,0,0,1 @ F,0,0,1,0,0,0,1 @ F,0,0,1,0,0,0,1 | F,0,0,1,0,0,0,1 @ F,0,0,1,0,0,0,1 @ F,0,0,1,0,0,0,1 @ F,0,0,1,0,0,0,1 | F,0,0,1,0,0,0,1 @ F,0,0,1,0,0,0,1 @ F,0,0,1,0,0,0,1 @ F,0,0,1,0,0,0,1 | F,0,0,1,0,0,0,1 @ F,0,0,1,0,0,0,1 @ F,0,0,1,0,0,0,1 @ F,0,0,1,0,0,0,1 | F,0,0,1,0,0,0,1 @ F,0,0,1,0,0,0,1 @ F,0,0,1,0,0,0,1 @ F,0,0,1,0,0,0,1 @ F,0,0,1,0,0,0,1 @ F,0,0,1,0,0,0,1 | F,0,0,1,0,0,0,1 @ F,0,0,1,0,0,0,1 @ F,0,0,1,0,0,0,1 @ F,0,0,1,0,0,0,1 | F,0,0,1,0,0,0,1 @ F,0,0,1,0,0,0,1 @ F,0,0,1,0,0,0,1 @ F,0,0,1,0,0,0,1 | F,0,0,1,0,0,0,1 @ F,0,0,1,0,0,0,1 @ F,0,0,1,0,0,0,1 @ F,0,0,1,0,0,0,1 | F,0,0,1,0,0,0,1 @ F,0,0,1,0,0,0,1 @ F,0,0,1,0,0,0,1 @ F,0,0,1,0,0,0,1"
       radius="0"
       unit="px"
       method="auto"
       mode="F"
       chamfer_steps="1"
       flexible="false"
       use_knot_distance="true"
       apply_no_radius="true"
       apply_with_radius="true"
       only_selected="false"
       hide_knots="false" />
  </defs>
  <path
     d="M 7.859718,3.399386 V 4.696456 H 5.421628 V 3.399386 Z M 5.302758,9.682186 C 5.370968,9.682186 5.434008,9.655286 5.482588,9.607786 5.581808,9.508586 5.581808,9.348376 5.482588,9.249146 L 4.811818,8.578376 C 4.764278,8.530776 4.700198,8.503976 4.631988,8.503976 4.563768,8.503976 4.500728,8.530876 4.452148,8.578376 4.352928,8.677576 4.352928,8.837786 4.452148,8.937016 L 5.122918,9.607786 C 5.170458,9.655286 5.234548,9.682186 5.302758,9.682186 Z M 7.979548,9.682186 C 8.047758,9.682186 8.110798,9.655286 8.159378,9.607786 L 8.830148,8.937016 C 8.929368,8.837816 8.929368,8.677596 8.830148,8.578376 8.782608,8.530776 8.718528,8.503976 8.650318,8.503976 8.582108,8.503976 8.519058,8.530876 8.470478,8.578376 L 7.799708,9.249146 C 7.700488,9.348346 7.700488,9.508566 7.799708,9.607786 7.847248,9.655286 7.911328,9.682186 7.979548,9.682186 Z M 3.799918,10.513166 C 3.660398,10.513166 3.545678,10.626866 3.545678,10.767366 3.545678,10.906866 3.659358,11.021666 3.799918,11.021666 H 4.747658 C 4.887188,11.021666 5.001908,10.907966 5.001908,10.767366 5.001908,10.627866 4.888218,10.513166 4.747658,10.513166 Z M 4.279478,2.891806 H 13.021098 C 13.090298,2.891806 13.157498,2.920746 13.204998,2.970356 L 14.661298,4.501026 H 21.014398 C 21.394798,4.501026 21.703798,4.191996 21.703798,3.811656 V 0.689306 C 21.703798,0.308968 21.394798,-6.6e-5 21.014398,-6.6e-5 H 4.279538 C 3.817548,-6.6e-5 3.442368,0.375113 3.442368,0.837102 V 2.053576 C 3.442368,2.515566 3.817548,2.890746 4.279538,2.890746 Z M 19.557098,14.747566 V 5.008476 H 16.457498 V 14.747566 Z M 6.641148,11.112666 C 6.781708,11.112666 6.895398,10.998966 6.895398,10.858466 V 8.033736 H 7.073168 C 7.210628,8.033736 7.322248,7.922116 7.322248,7.784656 V 6.393526 H 5.961098 V 7.784656 C 5.961098,7.922116 6.072718,8.033736 6.210178,8.033736 H 6.387948 V 10.858466 C 6.387948,10.998966 6.501638,11.112666 6.642198,11.112666 Z M 9.012058,5.546106 C 9.012058,5.358006 8.859098,5.205036 8.670978,5.205036 H 4.610158 C 4.422048,5.205036 4.269078,5.357996 4.269078,5.546106 4.269078,5.734216 4.422048,5.887186 4.610158,5.887186 H 8.670978 C 8.859088,5.887186 9.012058,5.734226 9.012058,5.546106 Z M 6.641148,22.946666 C 7.566158,22.946666 8.319608,22.193266 8.319608,21.268266 8.319608,20.343266 7.566158,19.589766 6.641148,19.589766 5.716138,19.589766 4.962688,20.343266 4.962688,21.268266 4.962688,22.193266 5.716138,22.946666 6.641148,22.946666 Z M 14.045298,21.717866 C 14.293298,21.717866 14.494798,21.516266 14.494798,21.268266 14.494798,21.020266 14.293298,20.818666 14.045298,20.818666 13.797198,20.818666 13.595698,21.020266 13.595698,21.268266 13.595698,21.516266 13.797198,21.717866 14.045298,21.717866 Z M 2.869778,18.207866 H 21.358598 V 24.225066 L 2.869778,24.226066 Z M 18.191798,21.268066 C 18.191798,21.795166 18.620698,22.225066 19.148898,22.225066 19.675998,22.225066 20.105898,21.796166 20.105898,21.268066 20.105898,20.740966 19.676998,20.310966 19.148898,20.310966 18.621698,20.310966 18.191798,20.739966 18.191798,21.268066 Z M 15.639998,21.268066 C 15.639998,21.795166 16.068898,22.225066 16.597098,22.225066 17.124198,22.225066 17.554098,21.796166 17.554098,21.268066 17.554098,20.740966 17.125198,20.310966 16.597098,20.310966 16.069998,20.310966 15.639998,20.739966 15.639998,21.268066 Z M 13.088298,21.268066 C 13.088298,21.795166 13.517198,22.225066 14.045298,22.225066 14.572398,22.225066 15.002398,21.796166 15.002398,21.268066 15.002398,20.740966 14.573398,20.310966 14.045298,20.310966 13.518198,20.310966 13.088298,20.739966 13.088298,21.268066 Z M 4.455158,21.268066 C 4.455158,22.473166 5.435978,23.453966 6.641068,23.453966 7.846168,23.453966 8.826978,22.473166 8.826978,21.268066 8.826978,20.062966 7.846168,19.082166 6.641068,19.082166 5.435978,19.082166 4.455158,20.062966 4.455158,21.268066 Z M 8.534508,11.020766 H 9.482248 C 9.621768,11.020766 9.736498,10.907066 9.736498,10.766466 9.736498,10.626966 9.622808,10.512266 9.482248,10.512266 H 8.534508 C 8.394978,10.512266 8.280258,10.625966 8.280258,10.766466 8.280258,10.906066 8.393948,11.020766 8.534508,11.020766 Z M 0.648602,15.255166 V 17.700466 H 23.577398 V 15.255166 Z M 10.196398,12.029566 H 3.085678 V 14.747666 H 10.196398 Z M 19.148798,21.717866 C 19.396798,21.717866 19.598398,21.516266 19.598398,21.268266 19.598398,21.020266 19.396798,20.818666 19.148798,20.818666 18.900798,20.818666 18.699198,21.020266 18.699198,21.268266 18.699198,21.516266 18.900798,21.717866 19.148798,21.717866 Z M 16.596998,21.717866 C 16.845098,21.717866 17.046598,21.516266 17.046598,21.268266 17.046598,21.020266 16.845098,20.818666 16.596998,20.818666 16.348998,20.818666 16.147398,21.020266 16.147398,21.268266 16.147398,21.516266 16.348998,21.717866 16.596998,21.717866 Z"
     id="path1"
     style="fill:#000000;stroke-width:0.264583" />
</svg>
