<?xml version="1.0" encoding="UTF-8" standalone="no"?>
<!-- Created with Inkscape (http://www.inkscape.org/) -->

<svg
   width="86.021004"
   height="86.021004"
   viewBox="0 0 86.021004 86.021004"
   version="1.1"
   id="svg1"
   inkscape:version="1.4.2 (ebf0e940d0, 2025-05-08)"
   sodipodi:docname="minerspants.svg"
   xmlns:inkscape="http://www.inkscape.org/namespaces/inkscape"
   xmlns:sodipodi="http://sodipodi.sourceforge.net/DTD/sodipodi-0.dtd"
   xmlns="http://www.w3.org/2000/svg"
   xmlns:svg="http://www.w3.org/2000/svg">
  <sodipodi:namedview
     id="namedview1"
     pagecolor="#ffffff"
     bordercolor="#000000"
     borderopacity="0.25"
     inkscape:showpageshadow="2"
     inkscape:pageopacity="0.0"
     inkscape:pagecheckerboard="0"
     inkscape:deskcolor="#d1d1d1"
     inkscape:document-units="px"
     inkscape:zoom="4.8041667"
     inkscape:cx="35.906331"
     inkscape:cy="52.35039"
     inkscape:window-width="2256"
     inkscape:window-height="1427"
     inkscape:window-x="0"
     inkscape:window-y="0"
     inkscape:window-maximized="1"
     inkscape:current-layer="svg1" />
  <path
     id="polygon1"
     style="fill:#000000"
     d="M 26.6094 -1.8e-06 L 26.6094 3.74609 L 32.1621 3.74609 L 32.1621 -1.8e-06 L 26.6094 -1.8e-06 Z M 53.8594 0.0019513 L 53.8594 3.74805 L 59.4141 3.74805 L 59.4141 0.0019513 L 53.8594 0.0019513 Z M 22.8828 5.74609 L 22.8828 9.4707 L 33.1621 9.4707 L 33.1641 9.4707 L 52.8594 9.4707 L 63.1367 9.4707 L 63.1367 5.74609 L 60.4121 5.74609 L 52.8594 5.74609 L 33.1621 5.74609 L 25.6094 5.74609 L 22.8828 5.74609 Z M 22.2988 11.4707 L 19.9004 13.8281 C 18.6134 15.0931 17.7816 16.7745 17.5566 18.5645 L 13.1094 54.0137 L 37.7324 54.0137 L 40.6367 30.1641 L 40.1504 30.1641 C 36.8724 30.1641 34.0532 28.1768 32.8242 25.3418 C 32.4012 24.3688 32.1641 23.2969 32.1641 22.1699 L 32.1641 11.4707 L 22.2988 11.4707 Z M 34.166 11.4707 L 34.166 22.1699 C 34.166 23.0169 34.3432 23.8217 34.6602 24.5527 C 35.5832 26.6707 37.6944 28.1562 40.1484 28.1562 L 45.873 28.1562 C 48.966 28.1562 51.5181 25.7991 51.8281 22.7871 L 51.8262 22.7852 C 51.8462 22.5862 51.8574 22.3837 51.8574 22.1797 L 51.8574 11.4707 L 34.166 11.4707 Z M 53.8594 11.4727 L 53.8594 22.1719 C 53.8594 22.4489 53.8444 22.7202 53.8164 22.9902 C 53.4084 27.0122 50.002 30.1621 45.875 30.1621 L 45.3809 30.1621 L 48.2871 54.0156 L 72.9141 54.0156 L 68.4629 18.5664 C 68.2379 16.7764 67.407 15.0931 66.123 13.8301 L 63.7266 11.4727 L 53.8594 11.4727 Z M 19.8086 23.875 C 19.8432 23.8755 19.8787 23.8789 19.9141 23.8828 C 20.4621 23.9508 20.8502 24.449 20.7812 24.998 L 18.9277 39.7402 C 18.8647 40.2452 18.4345 40.6152 17.9375 40.6152 C 17.8965 40.6152 17.8535 40.6124 17.8105 40.6074 C 17.2625 40.5394 16.8763 40.0392 16.9453 39.4902 L 18.7969 24.748 C 18.8606 24.2352 19.2896 23.8679 19.8086 23.875 Z M 17.377 43.2344 C 17.4114 43.2348 17.4474 43.2364 17.4824 43.2402 C 18.0304 43.3092 18.4177 43.8094 18.3477 44.3574 L 17.7812 48.8711 C 17.7182 49.3761 17.288 49.7461 16.791 49.7461 C 16.75 49.7461 16.7071 49.7433 16.6641 49.7383 C 16.1161 49.6693 15.7269 49.1691 15.7969 48.6211 L 16.3652 44.1074 C 16.4299 43.5946 16.8609 43.2273 17.377 43.2344 Z M 12.8574 56.0137 L 12.041 62.5234 L 36.6953 62.5234 L 37.4883 56.0137 L 12.8574 56.0137 Z M 48.5332 56.0137 L 49.3262 62.5234 L 73.9824 62.5234 L 73.1641 56.0137 L 48.5332 56.0137 Z M 11.7891 64.5234 L 11.457 67.1641 L 36.1309 67.1641 L 36.4531 64.5234 L 11.7891 64.5234 Z M 49.5664 64.5234 L 49.8887 67.1641 L 74.5645 67.1641 L 74.2324 64.5234 L 49.5664 64.5234 Z M 11.207 69.1641 L 10.3906 75.6641 L 35.0937 75.6641 L 35.8867 69.1641 L 11.207 69.1641 Z M 50.1328 69.1641 L 50.9238 75.6641 L 75.6309 75.6641 L 74.8164 69.1641 L 50.1328 69.1641 Z M 10.1406 77.6641 L 9.0918 86.0176 L 33.834 86.0176 L 34.8516 77.6641 L 10.1406 77.6641 Z M 51.168 77.6641 L 52.1855 86.0215 L 76.9316 86.0215 L 75.8828 77.6641 L 51.168 77.6641 Z" />
  <defs
     id="defs1" />
</svg>
