<?xml version="1.0" encoding="UTF-8" standalone="no"?>
<!-- Created with Inkscape (http://www.inkscape.org/) -->

<svg
   width="86.25"
   height="86.25"
   viewBox="0 0 86.25 86.25"
   version="1.1"
   id="svg1"
   inkscape:version="1.4.2 (ebf0e940d0, 2025-05-08)"
   sodipodi:docname="mitts.svg"
   xmlns:inkscape="http://www.inkscape.org/namespaces/inkscape"
   xmlns:sodipodi="http://sodipodi.sourceforge.net/DTD/sodipodi-0.dtd"
   xmlns="http://www.w3.org/2000/svg"
   xmlns:svg="http://www.w3.org/2000/svg">
  <sodipodi:namedview
     id="namedview1"
     pagecolor="#ffffff"
     bordercolor="#000000"
     borderopacity="0.25"
     inkscape:showpageshadow="2"
     inkscape:pageopacity="0.0"
     inkscape:pagecheckerboard="0"
     inkscape:deskcolor="#d1d1d1"
     inkscape:document-units="px"
     inkscape:zoom="6.7941176"
     inkscape:cx="-19.722944"
     inkscape:cy="68.95671"
     inkscape:window-width="2256"
     inkscape:window-height="1427"
     inkscape:window-x="0"
     inkscape:window-y="0"
     inkscape:window-maximized="1"
     inkscape:current-layer="svg1" />
  <defs
     id="defs1" />
  <path
     d="M 80.6257 63.75 L 80.6257 71.25 C 80.6257 74.3438 78.0945 76.875 75.0007 76.875 L 61.8757 76.875 L 61.8757 73.125 C 61.8757 69.8984 60.2429 67.0508 57.7507 65.3633 C 59.1023 63.0391 60.2273 60.6211 61.1257 58.125 L 75.0007 58.125 C 78.0945 58.125 80.6257 60.6562 80.6257 63.75 Z"
     id="path1"
     style="fill:#000000" />
  <path
     d="M 82.5007 18.75 L 82.5007 33.805 C 82.5007 41.1175 80.5124 48.282 76.7624 54.543 C 76.1803 54.4492 75.6022 54.375 75.0007 54.375 L 62.2857 54.375 C 63.2427 50.7383 63.7505 46.9688 63.7505 43.18 L 63.7505 28.125 C 63.7505 17.398 56.2114 8.39802 46.1455 6.16802 C 49.5752 2.37892 54.5283 1.5e-05 60.0005 1.5e-05 L 63.7505 1.5e-05 C 74.0625 1.5e-05 82.5005 8.43751 82.5005 18.75 Z"
     id="path2"
     style="fill:#000000" />
  <path
     d="M 22.5007 67.5 L 52.5007 67.5 C 55.6062 67.5 58.1257 70.6055 58.1257 73.125 L 58.1257 80.625 C 58.1257 83.7305 55.6062 86.25 52.5007 86.25 L 22.5007 86.25 C 19.3952 86.25 16.8757 83.1445 16.8757 80.625 L 16.8757 73.125 C 16.8757 70.0195 19.3952 67.5 22.5007 67.5 Z"
     id="path3"
     style="fill:#000000" />
  <path
     d="M 60.0007 28.125 L 60.0007 43.191 C 60.0007 50.4918 58.0163 57.656 54.2624 63.921 C 53.6803 63.8272 53.1022 63.753 52.5007 63.753 L 22.4967 63.753 C 21.4655 63.753 20.4733 63.96 19.5319 64.2765 L 18.7623 63.546 C 14.4693 59.6085 11.0748 54.921 8.67234 49.632 L 4.13714 39.542 C 3.2387 37.5928 3.94964 35.2295 5.76994 34.085 C 7.62544 32.9405 10.2152 33.4092 11.5277 35.0967 L 17.1722 42.3897 C 17.7894 43.1592 18.5824 43.7569 19.4847 44.0967 C 19.7113 44.21 19.9535 44.2842 20.2152 44.3584 C 20.4027 44.3975 20.5902 44.4326 20.7777 44.4717 C 23.4965 44.8857 25.8011 46.7959 26.6839 49.3662 C 27.0199 50.3427 28.0901 50.8467 29.0823 50.5303 C 30.0589 50.1904 30.5628 49.1241 30.2268 48.1319 C 28.8752 44.2139 25.4846 41.4014 21.301 40.7647 C 21.2463 40.7452 21.1135 40.71 21.0588 40.71 C 20.9846 40.6748 20.926 40.6358 20.8518 40.6162 C 20.5705 40.5225 20.3284 40.335 20.1369 40.0928 L 18.7503 38.292 L 18.7503 28.132 C 18.7503 17.82 27.1877 9.38201 37.5002 9.38201 L 41.2502 9.38201 C 51.5623 9.38201 60.0002 17.8195 60.0002 28.132 Z"
     id="path4"
     style="fill:#000000" />
</svg>
