<?xml version="1.0" encoding="UTF-8" standalone="no"?>
<!-- Created with Inkscape (http://www.inkscape.org/) -->

<svg
   width="770.45099"
   height="770.45099"
   viewBox="0 0 770.45099 770.45098"
   version="1.1"
   id="svg1"
   inkscape:version="1.4.2 (ebf0e940d0, 2025-05-08)"
   sodipodi:docname="mitts.svg"
   xmlns:inkscape="http://www.inkscape.org/namespaces/inkscape"
   xmlns:sodipodi="http://sodipodi.sourceforge.net/DTD/sodipodi-0.dtd"
   xmlns="http://www.w3.org/2000/svg"
   xmlns:svg="http://www.w3.org/2000/svg">
  <sodipodi:namedview
     id="namedview1"
     pagecolor="#ffffff"
     bordercolor="#000000"
     borderopacity="0.25"
     inkscape:showpageshadow="2"
     inkscape:pageopacity="0.0"
     inkscape:pagecheckerboard="0"
     inkscape:deskcolor="#d1d1d1"
     inkscape:document-units="px"
     inkscape:zoom="0.42463235"
     inkscape:cx="166.02597"
     inkscape:cy="924.329"
     inkscape:window-width="2256"
     inkscape:window-height="1427"
     inkscape:window-x="0"
     inkscape:window-y="0"
     inkscape:window-maximized="1"
     inkscape:current-layer="svg1" />
  <defs
     id="defs1" />
  <path
     class="fil0"
     d="M 240.545 703.4 C 241.615 696.54 242.385 689.49 242.805 682.24 C 243.175 675.54 243.265 668.88 243.045 662.3 C 241.225 656.33 238.085 650.93 233.975 646.47 C 229.655 641.79 224.175 638.1 217.945 635.84 C 214.735 634.67 211.415 633.91 208.125 633.58 C 204.795 633.26 201.375 633.34 197.995 633.83 C 190.385 634.95 182.965 634.21 176.135 631.73 C 169.305 629.25 163.135 625.05 157.815 619.06 C 155.515 616.52 153.075 614.4 150.415 612.59 C 147.665 610.71 144.635 609.14 141.455 608 C 138.235 606.84 134.935 606.07 131.645 605.74 C 128.285 605.41 124.875 605.49 121.505 605.98 C 113.885 607.11 106.475 606.36 99.6555 603.88 C 92.8155 601.4 86.6355 597.2 81.3355 591.22 C 79.0255 588.67 76.6155 586.56 73.7355 584.6 C 70.9155 582.73 68.0155 581.26 64.9655 580.16 C 58.7455 577.9 52.1855 577.2 45.8255 578.01 C 39.8255 578.77 33.9755 580.88 28.7755 584.25 C 24.2555 589.29 19.9855 594.49 16.0555 599.78 C 11.8755 605.41 7.91549 611.3 4.12549 617.57 C 1.83549 621.53 0.53549 625.41 0.13549 629.34 C -0.28451 633.42 0.27549 637.68 1.77549 641.96 C 3.27549 646.21 5.51549 649.85 8.38549 652.75 C 11.2655 655.66 14.8955 657.95 19.1355 659.48 L 202.035 726.05 C 206.305 727.6 210.545 728.2 214.635 727.82 C 218.675 727.45 222.725 726.09 226.625 723.8 C 230.515 721.51 233.675 718.6 236.125 715 C 238.435 711.49 239.885 707.65 240.545 703.4 Z M 514.005 495.03 C 516.445 490.34 519.495 486.01 523.065 482.15 C 529.335 475.31 537.295 469.94 546.265 466.68 C 550.895 465 555.715 463.92 560.535 463.43 C 565.445 462.94 570.365 463.05 575.115 463.75 C 579.715 464.42 584.125 464.01 588.075 462.58 C 592.025 461.14 595.675 458.62 598.985 454.9 C 602.325 451.25 605.855 448.16 609.735 445.53 C 613.705 442.8 618.085 440.52 622.745 438.83 C 627.345 437.15 632.145 436.06 636.955 435.59 C 641.885 435.09 646.825 435.2 651.595 435.91 C 656.195 436.58 660.615 436.16 664.565 434.73 C 668.535 433.28 672.185 430.78 675.235 427.34 C 678.445 423.72 682.155 420.44 686.235 417.67 C 690.255 414.95 694.645 412.67 699.245 411 C 708.195 407.75 717.705 406.76 726.925 407.93 C 732.625 408.65 738.215 410.2 743.515 412.57 C 771.945 324.73 741.675 230.72 689.525 159.34 C 665.305 126.18 636.385 97.9198 606.445 77.4798 C 576.975 57.3598 546.655 44.8398 519.155 42.8098 C 490.615 40.6998 464.975 50.0298 446.535 74.1398 C 438.705 84.3698 435.005 97.2898 435.435 110.77 C 435.865 124.48 440.615 138.82 449.625 151.68 C 499.255 222.34 515.945 265.2 516.015 289.81 C 516.055 301.79 512.405 310.29 506.535 316 C 500.575 321.81 492.645 324.38 484.175 324.61 C 468.565 325.07 450.085 317.04 440.335 307.78 C 431.775 300.44 424.955 298.24 420.245 300.02 C 416.445 301.45 413.295 305.69 411.145 312 C 408.485 319.81 407.515 330.28 408.635 342.5 C 412.615 385.75 442.375 448.39 514.005 495.03 Z M 527.655 530.38 C 528.065 537.54 528.835 544.59 529.905 551.44 C 530.585 555.86 532.145 559.83 534.465 563.23 C 536.755 566.64 539.915 569.53 543.825 571.84 C 547.725 574.13 551.775 575.49 555.835 575.85 C 559.905 576.23 564.165 575.65 568.415 574.1 L 751.305 507.52 C 755.345 506.06 758.835 503.91 761.835 500.99 C 764.915 497.87 767.175 494.23 768.675 489.99 C 770.175 485.73 770.735 481.47 770.315 477.38 C 769.905 473.33 768.525 469.29 766.185 465.41 C 762.515 459.34 758.565 453.44 754.405 447.83 C 750.465 442.54 746.205 437.34 741.665 432.3 C 736.485 428.93 730.625 426.83 724.625 426.06 C 718.275 425.25 711.705 425.95 705.485 428.2 C 702.255 429.37 699.215 430.94 696.485 432.8 C 693.705 434.68 691.155 436.95 688.935 439.45 C 683.795 445.23 677.615 449.46 670.805 451.93 C 663.995 454.4 656.565 455.16 648.945 454.04 C 645.565 453.54 642.145 453.46 638.825 453.79 C 635.505 454.11 632.195 454.86 628.985 456.03 C 625.815 457.18 622.795 458.75 620.035 460.64 C 617.385 462.42 614.955 464.54 612.635 467.1 C 607.345 473.07 601.155 477.29 594.315 479.78 C 587.485 482.26 580.065 483 572.465 481.88 C 569.085 481.39 565.665 481.31 562.325 481.63 C 559.045 481.96 555.725 482.71 552.505 483.88 C 546.325 486.13 540.845 489.82 536.515 494.52 C 532.365 498.97 529.215 504.37 527.395 510.34 C 527.185 516.98 527.265 523.68 527.655 530.38 Z M 256.445 646.98 C 328.075 600.35 357.835 537.7 361.815 494.45 C 362.935 482.23 361.965 471.76 359.305 463.95 C 357.155 457.64 354.005 453.4 350.205 451.97 C 345.495 450.19 338.675 452.39 330.115 459.73 C 320.365 468.99 301.885 477.03 286.275 476.57 C 277.805 476.35 269.875 473.77 263.915 467.96 C 258.045 462.25 254.395 453.75 254.435 441.77 C 254.505 417.17 271.175 374.31 320.815 303.62 C 329.835 290.77 334.585 276.43 335.015 262.72 C 335.445 249.24 331.745 236.32 323.915 226.09 C 305.475 201.98 279.835 192.65 251.335 194.76 C 223.795 196.8 193.475 209.31 164.005 229.43 C 134.065 249.88 105.145 278.13 80.9255 311.29 C 28.7755 382.66 -1.48451 476.69 26.9355 564.52 C 32.2355 562.15 37.8355 560.59 43.5255 559.88 C 52.7655 558.7 62.2555 559.7 71.2055 562.95 C 75.6155 564.56 79.8155 566.7 83.9755 569.45 C 88.0855 572.24 91.6155 575.32 94.9855 579.03 C 98.2855 582.72 101.935 585.25 105.895 586.68 C 109.835 588.11 114.245 588.53 118.855 587.85 C 123.645 587.15 128.565 587.04 133.475 587.54 C 138.295 588.03 143.105 589.12 147.695 590.79 C 152.345 592.48 156.725 594.74 160.725 597.47 C 164.555 600.07 168.095 603.16 171.465 606.87 C 174.775 610.58 178.425 613.1 182.375 614.53 C 186.325 615.96 190.735 616.37 195.345 615.7 C 200.105 615 205.025 614.9 209.915 615.38 C 214.745 615.87 219.575 616.95 224.185 618.63 C 233.135 621.88 241.055 627.26 247.365 634.08 C 250.945 637.95 253.995 642.28 256.445 646.98 Z"
     id="path1"
     style="fill:#000000;fill-rule:nonzero;image-rendering:optimizeQuality;shape-rendering:geometricPrecision;text-rendering:geometricPrecision" />
</svg>
