<?xml version="1.0" encoding="UTF-8" standalone="no"?>
<!-- Created with Inkscape (http://www.inkscape.org/) -->

<svg
   width="25.737"
   height="25.737"
   viewBox="0 0 25.736999 25.737"
   version="1.1"
   id="svg1"
   inkscape:version="1.4.2 (ebf0e940d0, 2025-05-08)"
   sodipodi:docname="moose.svg"
   xmlns:inkscape="http://www.inkscape.org/namespaces/inkscape"
   xmlns:sodipodi="http://sodipodi.sourceforge.net/DTD/sodipodi-0.dtd"
   xmlns="http://www.w3.org/2000/svg"
   xmlns:svg="http://www.w3.org/2000/svg">
  <sodipodi:namedview
     id="namedview1"
     pagecolor="#ffffff"
     bordercolor="#000000"
     borderopacity="0.25"
     inkscape:showpageshadow="2"
     inkscape:pageopacity="0.0"
     inkscape:pagecheckerboard="0"
     inkscape:deskcolor="#d1d1d1"
     inkscape:document-units="px"
     inkscape:zoom="5.8104576"
     inkscape:cx="35.797525"
     inkscape:cy="34.334645"
     inkscape:window-width="2256"
     inkscape:window-height="1427"
     inkscape:window-x="0"
     inkscape:window-y="0"
     inkscape:window-maximized="1"
     inkscape:current-layer="svg1" />
  <defs
     id="defs1" />
  <path
     d="M 0.234274 22.3017 L 0.304553 23.1544 C 0.304553 23.1544 0.39757 23.5285 0.725188 23.5285 L 1.92822 23.5285 C 1.92822 23.5285 1.8228 22.8629 1.20371 22.278 C 1.20371 22.278 1.63572 17.53 4.20515 16.0457 C 4.20515 16.0457 4.37154 16.9325 3.553 17.5412 C 2.7334 18.15 4.60411 19.1928 4.95447 21.6465 C 4.95447 21.6465 4.82631 22.5115 5.33997 22.3007 C 5.33997 22.3007 5.39888 23.1885 5.71412 23.2588 L 7.45045 23.2888 C 7.45045 23.2888 4.662 20.2212 4.90796 18.363 C 4.90796 18.363 5.00201 17.7791 5.6676 17.4401 C 6.33319 17.1011 6.92953 15.8391 6.92953 15.8391 C 6.92953 15.8391 10.2596 16.1316 11.043 15.7688 C 11.043 15.7688 10.5345 17.6974 10.582 18.2111 C 10.5976 18.3868 10.3629 18.7899 10.3981 19.4648 C 10.3981 19.4648 10.0126 21.3933 9.67874 21.8574 C 9.34594 22.3225 9.98571 22.3927 9.98571 22.3927 C 9.98571 22.3927 9.73043 23.2847 10.3981 23.5937 C 10.4446 23.6154 11.6983 23.5958 11.6983 23.5958 C 11.6983 23.5958 10.888 22.4982 10.8621 22.0517 C 10.8353 21.6052 10.9676 19.7738 11.3003 19.317 C 11.6331 18.8612 11.4409 18.8963 11.5463 18.6679 C 11.6517 18.4405 12.7028 16.3104 12.7028 16.3104 C 12.7028 16.3104 14.2097 16.8189 14.1229 17.2303 C 14.0351 17.6416 12.2471 18.9129 12.2915 19.2281 C 12.3349 19.5433 11.7572 19.5526 11.7572 19.5526 C 11.7572 19.5526 11.2135 20.5169 11.4502 21.1298 C 11.6869 21.7437 14.7017 17.8608 15.0872 17.5537 C 15.4727 17.2478 15.4902 16.607 14.9735 16.2132 C 14.4567 15.8184 13.9069 15.2902 13.9069 15.2902 C 13.9069 15.2902 15.3786 14.9161 15.0872 12.941 C 15.0872 12.941 15.9016 12.1979 16.0049 11.9168 C 15.9812 12.0336 15.9326 12.3364 16.0153 12.5328 L 16.1207 12.4356 C 16.1207 12.4356 16.1559 12.9441 15.9285 13.1105 C 15.9285 13.1105 17.2783 13.032 17.0943 11.9799 C 17.0943 11.9799 17.2255 12.2951 17.2255 12.2517 C 17.2255 12.2083 17.8477 11.5592 17.6369 11.0156 C 17.6369 11.0156 17.8643 11.4104 18.0317 11.5065 C 18.1981 11.6026 18.4348 11.953 18.5402 11.9623 C 18.6456 11.9706 19.1273 11.9706 19.1448 11.7608 L 20.013 11.7608 C 20.013 11.7608 20.5649 11.4362 20.3199 10.998 C 20.074 10.5598 20.197 10.043 20.2063 9.87559 C 20.2145 9.7092 19.829 8.82345 18.6994 8.45552 C 18.6994 8.45552 18.9619 8.21368 18.8275 7.9739 C 18.6932 7.73412 18.6405 7.54808 18.6405 7.54808 C 18.6405 7.54808 21.2759 7.81679 22.3973 7.62456 C 23.5197 7.43233 24.9387 6.95898 24.7992 6.06394 C 24.7992 6.06394 26.1841 4.24081 25.5878 3.94315 C 25.5878 3.94315 25.4183 3.84393 25.2261 4.463 C 25.0338 5.08313 24.5832 5.36319 24.5832 5.36319 C 24.5832 5.36319 24.8695 3.88526 24.577 3.96069 C 24.2845 4.03717 24.2266 5.13478 23.9693 5.21746 C 23.7119 5.29911 24.238 4.68004 23.8638 4.65625 C 23.4897 4.63247 23.4546 4.85469 23.4546 4.85469 C 23.4525 4.85573 23.2189 4.38754 22.8096 4.57564 C 22.4004 4.7627 22.4707 5.14822 22.3187 4.7627 C 22.1668 4.37721 22.4004 3.95655 22.1781 3.93898 C 21.957 3.92037 21.8991 4.47021 21.7699 4.39993 C 21.6417 4.32966 21.6293 3.69921 21.5012 3.69921 C 21.373 3.69921 21.1394 4.2718 20.9989 4.2718 C 20.8583 4.2718 20.8232 3.54729 20.508 3.60621 C 20.1927 3.66409 20.4025 4.15501 20.1927 4.14363 C 19.9819 4.13226 19.9819 3.64135 19.7607 3.66408 C 19.5385 3.68785 19.5974 4.09609 19.5385 4.09609 C 19.4796 4.09609 19.3163 3.67545 19.1179 3.72194 C 18.9195 3.76843 19.0125 3.96689 18.966 3.94415 C 18.9184 3.92141 18.7675 3.41188 18.5691 3.60204 C 18.4192 3.7457 18.2776 4.65212 19.0879 5.76004 C 18.7727 5.83031 18.3003 6.04219 17.8415 6.66023 C 17.6885 6.62612 17.519 6.61062 17.3361 6.63232 C 17.1025 6.65919 16.9568 6.66126 16.8586 6.65506 C 16.8131 6.5145 16.6942 6.24784 16.4452 6.20651 C 16.347 6.18997 16.2333 6.16517 16.1196 6.13726 C 16.7263 5.64323 17.3288 5.03551 16.9971 4.78128 C 16.9971 4.78128 16.8214 4.63555 16.2839 5.25464 C 15.7465 5.87371 15.2607 5.57606 14.6303 6.01429 C 14.6303 6.01429 14.4608 5.97295 14.7233 5.54714 C 14.9858 5.12029 15.424 4.32034 15.0974 4.29037 C 14.7708 4.26143 14.2851 5.59881 14.0226 5.47065 C 13.7601 5.34249 15.1036 3.67127 14.5838 3.46664 C 14.0639 3.262 14.2737 5.1668 13.2051 4.90428 C 12.1354 4.64176 13.912 3.61237 13.4448 3.42634 C 12.9777 3.23928 12.6614 4.69449 12.1715 4.55392 C 11.6806 4.41336 11.9958 2.78968 11.7685 2.70184 C 11.5411 2.61399 11.354 3.76533 11.2724 3.6899 C 11.1907 3.61341 11.1029 2.5034 10.9396 2.49205 C 10.7763 2.48068 10.6068 3.21656 10.4662 3.2114 C 10.3257 3.2052 10.3846 2.34116 10.1562 2.33496 C 9.92878 2.32876 10.0807 3.14112 9.91121 3.11218 C 9.74171 3.08324 9.64869 2.0776 9.35 2.13653 C 9.05235 2.1944 9.44302 3.11837 9.21564 3.12975 C 8.98827 3.14112 8.75469 2.17166 8.42086 2.24712 C 8.08807 2.3236 8.22863 6.5302 14.1642 7.39406 C 14.1642 7.39406 14.6665 7.2535 15.1925 7.4354 C 15.1925 7.4354 14.4215 8.22399 13.3694 8.17126 C 12.3172 8.11855 12.4402 7.17495 11.231 7.80436 C 10.0218 8.43378 9.61871 9.67814 8.70714 9.76601 C 7.79557 9.85386 7.16512 9.85386 6.48091 9.76601 C 5.79776 9.67816 4.50066 8.87201 2.93999 10.1339 C 1.37937 11.3928 1.65946 12.0067 1.7132 12.3043 C 1.76591 12.602 2.11939 14.2773 2.0026 15.0206 C 1.93232 15.467 1.73595 16.3497 1.0166 16.7714 C 0.298313 17.192 1.50235 19.0172 0.100907 21.5421 C 0.099874 21.5421 -0.197781 22.1022 0.234233 22.3017 Z M 18.6083 7.00853 C 18.879 6.80182 19.2491 6.47317 19.401 6.14038 C 19.6222 6.38636 19.8878 6.63647 20.2154 6.88864 C 20.2154 6.88864 19.6532 7.22453 18.6083 7.00853 Z M 15.1274 6.8659 C 15.1274 6.8659 15.3506 6.71914 15.6462 6.50107 C 15.7361 6.6871 15.8746 6.86487 16.0886 6.94136 C 15.8808 7.00647 15.5842 7.01784 15.1274 6.86591 Z"
     id="path1"
     style="fill:#000000;stroke-width:0.264583" />
</svg>
