<?xml version="1.0" encoding="UTF-8" standalone="no"?>
<!-- Created with Inkscape (http://www.inkscape.org/) -->

<svg
   width="464"
   height="464"
   viewBox="0 0 464 464"
   version="1.1"
   id="svg1"
   inkscape:version="1.4.2 (ebf0e940d0, 2025-05-08)"
   sodipodi:docname="mukluks.svg"
   xmlns:inkscape="http://www.inkscape.org/namespaces/inkscape"
   xmlns:sodipodi="http://sodipodi.sourceforge.net/DTD/sodipodi-0.dtd"
   xmlns="http://www.w3.org/2000/svg"
   xmlns:svg="http://www.w3.org/2000/svg">
  <sodipodi:namedview
     id="namedview1"
     pagecolor="#ffffff"
     bordercolor="#000000"
     borderopacity="0.25"
     inkscape:showpageshadow="2"
     inkscape:pageopacity="0.0"
     inkscape:pagecheckerboard="0"
     inkscape:deskcolor="#d1d1d1"
     inkscape:document-units="px"
     inkscape:zoom="1.2010417"
     inkscape:cx="239.79185"
     inkscape:cy="481.66522"
     inkscape:window-width="2256"
     inkscape:window-height="1427"
     inkscape:window-x="0"
     inkscape:window-y="0"
     inkscape:window-maximized="1"
     inkscape:current-layer="svg1" />
  <defs
     id="defs1" />
  <path
     id="polygon1"
     style="fill:#000000"
     d="M 104 0 C 76.394 0 52.23375 17.631266 43.59375 43.447266 L 69.3125 60.59375 C 74.7875 64.24375 78.453422 69.902187 79.607422 76.242188 L 104 94.322266 L 128.39258 76.242188 C 129.54758 69.902188 133.2135 64.24375 138.6875 60.59375 L 164.40625 43.447266 C 155.76925 17.634266 131.608 0 104 0 z M 360 0 C 332.394 0 308.23375 17.631266 299.59375 43.447266 L 325.3125 60.59375 C 330.7875 64.24375 334.45342 69.902187 335.60742 76.242188 L 360 94.322266 L 384.39258 76.242188 C 385.54758 69.902188 389.2135 64.24375 394.6875 60.59375 L 420.40625 43.447266 C 411.76925 17.634266 387.608 0 360 0 z M 20.28125 48 C 17.92125 48 16 49.92125 16 52.28125 L 16 172.36914 L 64 214.36914 L 64 80.5625 C 64 77.8815 62.6685 75.39325 60.4375 73.90625 L 22.65625 48.71875 C 21.95125 48.24875 21.12925 48 20.28125 48 z M 187.71875 48 C 186.87075 48 186.04975 48.249703 185.34375 48.720703 L 147.5625 73.90625 C 145.3315 75.39325 144 77.8815 144 80.5625 L 144 214.36914 L 192 172.36914 L 192 52.28125 C 192 49.92125 190.07875 48 187.71875 48 z M 276.28125 48 C 273.92125 48 272 49.92125 272 52.28125 L 272 172.36914 L 320 214.36914 L 320 80.5625 C 320 77.8815 318.6685 75.39325 316.4375 73.90625 L 278.65625 48.71875 C 277.95125 48.24875 277.12925 48 276.28125 48 z M 443.71875 48 C 442.87075 48 442.04975 48.249703 441.34375 48.720703 L 403.5625 73.90625 C 401.3315 75.39325 400 77.8815 400 80.5625 L 400 214.36914 L 448 172.36914 L 448 52.28125 C 448 49.92125 446.07875 48 443.71875 48 z M 80 96.449219 L 80 112.11328 L 90.566406 104.28125 L 80 96.449219 z M 128 96.449219 L 117.43555 104.28125 L 128 112.11328 L 128 96.449219 z M 336 96.449219 L 336 112.11328 L 346.56641 104.28125 L 336 96.449219 z M 384 96.449219 L 373.43555 104.28125 L 384 112.11328 L 384 96.449219 z M 104 114.23828 L 85.054688 128.28125 L 104 142.32422 L 122.94531 128.28125 L 104 114.23828 z M 360 114.23828 L 341.05469 128.28125 L 360 142.32422 L 378.94531 128.28125 L 360 114.23828 z M 80 144.44922 L 80 160.11328 L 90.566406 152.28125 L 80 144.44922 z M 128 144.44922 L 117.43555 152.28125 L 128 160.11328 L 128 144.44922 z M 336 144.44922 L 336 160.11328 L 346.56641 152.28125 L 336 144.44922 z M 384 144.44922 L 373.43555 152.28125 L 384 160.11328 L 384 144.44922 z M 104 162.23828 L 85.054688 176.28125 L 104 190.32422 L 122.94531 176.28125 L 104 162.23828 z M 360 162.23828 L 341.05469 176.28125 L 360 190.32422 L 378.94531 176.28125 L 360 162.23828 z M 80 192.44922 L 80 208.11328 L 90.566406 200.28125 L 80 192.44922 z M 128 192.44922 L 117.43555 200.28125 L 128 208.11328 L 128 192.44922 z M 336 192.44922 L 336 208.11328 L 346.56641 200.28125 L 336 192.44922 z M 384 192.44922 L 373.43555 200.28125 L 384 208.11328 L 384 192.44922 z M 16 193.63086 L 16 260.45508 L 58.810547 244.40234 C 61.914547 243.23734 64 240.22911 64 236.91211 L 64 235.63086 L 16 193.63086 z M 192 193.63086 L 144 235.63086 L 144 236.91211 C 144 240.22811 146.08545 243.23734 149.18945 244.40234 L 192 260.45508 L 192 193.63086 z M 272 193.63086 L 272 260.45508 L 314.81055 244.40234 C 317.91455 243.23734 320 240.22911 320 236.91211 L 320 235.63086 L 272 193.63086 z M 448 193.63086 L 400 235.63086 L 400 236.91211 C 400 240.22811 402.08545 243.23734 405.18945 244.40234 L 448 260.45508 L 448 193.63086 z M 104 210.23828 L 80 228.02734 L 80 236.91016 C 80 246.85816 73.742734 255.88981 64.427734 259.38281 L 16 277.54297 L 16 290.80664 C 16 303.57164 14.977313 316.26016 12.945312 328.78516 C 35.715312 303.41216 68.653 288 104 288 C 139.347 288 172.28469 303.41311 195.05469 328.78711 C 193.02269 316.26111 192 303.57264 192 290.80664 L 192 277.54297 L 143.57227 259.38281 C 134.25727 255.89081 128 246.85916 128 236.91016 L 128 228.02734 L 104 210.23828 z M 360 210.23828 L 336 228.02734 L 336 236.91016 C 336 246.85816 329.74273 255.88981 320.42773 259.38281 L 272 277.54297 L 272 290.80664 C 272 303.57164 270.97731 316.26016 268.94531 328.78516 C 291.71531 303.41216 324.653 288 360 288 C 395.347 288 428.28469 303.41311 451.05469 328.78711 C 449.02269 316.26111 448 303.57264 448 290.80664 L 448 277.54297 L 399.57227 259.38281 C 390.25727 255.89081 384 246.85916 384 236.91016 L 384 228.02734 L 360 210.23828 z M 104 304 C 59.558 304 19.492234 332.02777 4.2402344 373.75977 C 34.626234 390.92077 69.094 400 104 400 C 138.906 400 173.37377 390.92077 203.75977 373.75977 C 188.50777 332.02777 148.442 304 104 304 z M 360 304 C 315.558 304 275.49223 332.02777 260.24023 373.75977 C 290.62623 390.92077 325.094 400 360 400 C 394.906 400 429.37377 390.92077 459.75977 373.75977 C 444.50777 332.02777 404.442 304 360 304 z M 0.0078125 389.70703 C 0.1098125 414.88603 12.754 437.14984 32 450.58984 L 32 432 L 48 432 L 48 459.08008 C 53.092 461.03008 58.447 462.44037 64 463.23438 L 64 432 L 80 432 L 80 464 L 96 464 L 96 432 L 112 432 L 112 464 L 128 464 L 128 432 L 144 432 L 144 463.23438 C 149.553 462.44038 154.908 461.03008 160 459.08008 L 160 432 L 176 432 L 176 450.58984 C 195.246 437.14984 207.89119 414.88603 207.99219 389.70703 C 176.10919 406.91903 140.273 416 104 416 C 67.727 416 31.890813 406.91903 0.0078125 389.70703 z M 256.00781 389.70703 C 256.10981 414.88603 268.754 437.14984 288 450.58984 L 288 432 L 304 432 L 304 459.08008 C 309.092 461.03008 314.447 462.44037 320 463.23438 L 320 432 L 336 432 L 336 464 L 352 464 L 352 432 L 368 432 L 368 464 L 384 464 L 384 432 L 400 432 L 400 463.23438 C 405.553 462.44038 410.908 461.03008 416 459.08008 L 416 432 L 432 432 L 432 450.58984 C 451.246 437.14984 463.89119 414.88603 463.99219 389.70703 C 432.10919 406.91903 396.273 416 360 416 C 323.728 416 287.89081 406.91903 256.00781 389.70703 z " />
</svg>
