<?xml version="1.0" encoding="UTF-8" standalone="no"?>
<!-- Created with Inkscape (http://www.inkscape.org/) -->

<svg
   width="54"
   height="54"
   viewBox="0 0 54 54"
   version="1.1"
   id="svg1"
   inkscape:version="1.4.2 (ebf0e940d0, 2025-05-08)"
   sodipodi:docname="peacoat.svg"
   xmlns:inkscape="http://www.inkscape.org/namespaces/inkscape"
   xmlns:sodipodi="http://sodipodi.sourceforge.net/DTD/sodipodi-0.dtd"
   xmlns="http://www.w3.org/2000/svg"
   xmlns:svg="http://www.w3.org/2000/svg">
  <sodipodi:namedview
     id="namedview1"
     pagecolor="#ffffff"
     bordercolor="#000000"
     borderopacity="0.25"
     inkscape:showpageshadow="2"
     inkscape:pageopacity="0.0"
     inkscape:pagecheckerboard="0"
     inkscape:deskcolor="#d1d1d1"
     inkscape:document-units="px"
     inkscape:zoom="6.7941176"
     inkscape:cx="70.207792"
     inkscape:cy="63.658009"
     inkscape:window-width="2256"
     inkscape:window-height="1427"
     inkscape:window-x="0"
     inkscape:window-y="0"
     inkscape:window-maximized="1"
     inkscape:current-layer="svg1" />
  <defs
     id="defs1" />
  <path
     id="path4"
     style="fill:#000000"
     d="M 41.748 2.25977 L 43.9004 6.55273 C 44.0559 6.86368 44.0387 7.23307 43.8551 7.52826 C 43.6714 7.82346 43.3477 8.00209 43 8 C 42.9503 8.0001 42.9006 7.99618 42.8516 7.98828 L 33.7109 6.61914 L 41.5762 12.1836 C 41.89 12.4053 42.0491 12.7872 41.9854 13.1662 C 41.9217 13.5451 41.6465 13.8541 41.2773 13.9609 L 21 19.7734 L 21 53 L 40 53 L 40 17 C 39.9991 16.5089 40.355 16.0898 40.8398 16.0111 C 41.3245 15.9324 41.7947 16.2174 41.9492 16.6836 L 45.9492 28.6836 C 45.983 28.7856 46.0002 28.8925 46 29 L 46 47 L 54 47 L 54 22.1914 L 46.2852 2.9082 Z M 23.5684 23.002 C 24.3692 23.0385 24.9998 23.6983 25 24.5 C 25 24.8978 24.842 25.2794 24.5607 25.5607 C 24.2794 25.842 23.8978 26 23.5 26 C 22.9541 26.0028 22.4498 25.7089 22.1832 25.2325 C 21.9167 24.756 21.93 24.1724 22.218 23.7087 C 22.5059 23.2449 23.0232 22.9742 23.5684 23.002 Z M 27.2695 23.002 C 28.0696 23.0395 28.6991 23.699 28.6992 24.5 C 28.6992 24.8978 28.5412 25.2794 28.2599 25.5607 C 27.9786 25.842 27.597 26 27.1992 26 C 26.6535 26.0022 26.1497 25.7078 25.8836 25.2314 C 25.6175 24.7549 25.6312 24.1715 25.9193 23.7081 C 26.2074 23.2446 26.7245 22.9742 27.2695 23.002 Z M 23.5684 30.002 C 24.3692 30.0385 24.9998 30.6983 25 31.5 C 25 31.8978 24.842 32.2794 24.5607 32.5607 C 24.2794 32.842 23.8978 33 23.5 33 C 22.9541 33.0028 22.4498 32.7089 22.1832 32.2325 C 21.9167 31.756 21.93 31.1724 22.218 30.7087 C 22.5059 30.2449 23.0232 29.9742 23.5684 30.002 Z M 27.2695 30.002 C 28.0696 30.0395 28.6991 30.699 28.6992 31.5 C 28.6992 31.8978 28.5412 32.2794 28.2599 32.5607 C 27.9786 32.842 27.597 33 27.1992 33 C 26.6535 33.0022 26.1497 32.7078 25.8836 32.2314 C 25.6175 31.7549 25.6312 31.1715 25.9193 30.7081 C 26.2074 30.2446 26.7245 29.9742 27.2695 30.002 Z M 23.5684 37.002 C 24.3692 37.0385 24.9998 37.6983 25 38.5 C 25 38.8978 24.842 39.2794 24.5607 39.5607 C 24.2794 39.842 23.8978 40 23.5 40 C 22.9541 40.0028 22.4498 39.7089 22.1832 39.2325 C 21.9167 38.756 21.93 38.1724 22.218 37.7087 C 22.5059 37.2449 23.0232 36.9742 23.5684 37.002 Z M 27.2695 37.002 C 28.0696 37.0395 28.6991 37.699 28.6992 38.5 C 28.6992 38.8978 28.5412 39.2794 28.2599 39.5607 C 27.9786 39.842 27.597 40 27.1992 40 C 26.6535 40.0022 26.1497 39.7078 25.8836 39.2314 C 25.6175 38.7549 25.6312 38.1715 25.9193 37.7081 C 26.2074 37.2446 26.7245 36.9742 27.2695 37.002 Z M 37.3418 37.252 L 38.6582 38.752 L 30.6582 45.752 L 29.3418 44.252 Z M 23.5684 44.002 C 24.3692 44.0385 24.9998 44.6983 25 45.5 C 25 45.8978 24.842 46.2794 24.5607 46.5607 C 24.2794 46.842 23.8978 47 23.5 47 C 22.9541 47.0028 22.4498 46.7089 22.1832 46.2325 C 21.9167 45.756 21.93 45.1724 22.218 44.7087 C 22.5059 44.2449 23.0232 43.9742 23.5684 44.002 Z M 27.2695 44.002 C 28.0696 44.0395 28.6991 44.699 28.6992 45.5 C 28.6992 45.8978 28.5412 46.2794 28.2599 46.5607 C 27.9786 46.842 27.597 47 27.1992 47 C 26.6535 47.0022 26.1497 46.7078 25.8836 46.2314 C 25.6175 45.7549 25.6312 45.1715 25.9193 44.7081 C 26.2074 44.2446 26.7245 43.9742 27.2695 44.002 Z" />
  <path
     id="path1"
     style="fill:#000000"
     d="M 22.877 1 L 25.1895 4.44141 C 25.2075 4.47303 25.2238 4.50563 25.2383 4.53906 L 26.9688 7.14453 L 28.4121 5.07812 L 28.7324 4.59961 C 28.7532 4.54444 28.7794 4.49145 28.8105 4.44141 L 31.123 1 Z M 20.5176 1.07812 L 14.6602 1.91602 L 12.7559 5.72656 L 22.6309 4.24805 Z M 33.4824 1.07812 L 31.3691 4.24805 L 41.2441 5.72656 L 39.3398 1.91602 Z M 12.252 2.25977 L 7.71484 2.9082 L 0 22.1914 L 0 47 L 8 47 L 8 29 C 7.99981 28.8925 8.01696 28.7856 8.05078 28.6836 L 12.0508 16.6836 C 12.2053 16.2174 12.6755 15.9324 13.1602 16.0111 C 13.645 16.0898 14.0009 16.5089 14 17 L 14 53 L 19 53 L 19 44.3008 L 15.168 38.5527 L 16.832 37.4414 L 19 40.6992 L 19 18.8535 C 19.0005 18.6487 19.0639 18.4489 19.1816 18.2812 L 20.4082 16.5234 L 12.6836 13.9492 C 12.3259 13.8298 12.0659 13.5193 12.011 13.1463 C 11.9561 12.7732 12.1157 12.401 12.4238 12.1836 L 20.3164 6.61523 L 11.1484 7.98828 C 11.0994 7.99618 11.0497 8.0001 11 8 C 10.6534 8.00005 10.3315 7.8206 10.1492 7.52576 C 9.967 7.23092 9.95044 6.86274 10.1055 6.55273 Z M 29.9355 6.40039 L 27.8359 9.55469 L 27.8242 9.56836 L 27.8164 9.58008 L 22.8164 16.5801 L 22.8066 16.5898 L 22.293 17.3242 L 38.7246 12.6133 Z M 24.0742 6.41406 L 15.1934 12.6777 L 21.6055 14.8145 L 25.7363 8.90625 Z M 0 49 L 0 53 L 8 53 L 8 49 Z M 46 49 L 46 53 L 54 53 L 54 49 Z" />
</svg>
