<?xml version="1.0" encoding="UTF-8" standalone="no"?>
<!-- Created with Inkscape (http://www.inkscape.org/) -->

<svg
   width="26.402"
   height="26.402"
   viewBox="0 0 26.402 26.402"
   version="1.1"
   id="svg1"
   inkscape:version="1.4.2 (ebf0e940d0, 2025-05-08)"
   sodipodi:docname="poisonwolf.svg"
   xmlns:inkscape="http://www.inkscape.org/namespaces/inkscape"
   xmlns:sodipodi="http://sodipodi.sourceforge.net/DTD/sodipodi-0.dtd"
   xmlns="http://www.w3.org/2000/svg"
   xmlns:svg="http://www.w3.org/2000/svg">
  <sodipodi:namedview
     id="namedview1"
     pagecolor="#ffffff"
     bordercolor="#000000"
     borderopacity="0.25"
     inkscape:showpageshadow="2"
     inkscape:pageopacity="0.0"
     inkscape:pagecheckerboard="0"
     inkscape:deskcolor="#d1d1d1"
     inkscape:document-units="px"
     inkscape:zoom="9.6083333"
     inkscape:cx="-2.0294883"
     inkscape:cy="46.99046"
     inkscape:window-width="2256"
     inkscape:window-height="1427"
     inkscape:window-x="0"
     inkscape:window-y="0"
     inkscape:window-maximized="1"
     inkscape:current-layer="svg1" />
  <defs
     id="defs1" />
  <path
     d="M 25.461 10.581 C 25.485 10.652 25.511 10.706 25.479 10.675 L 24.376 9.572 C 24.337 9.533 24.274 9.533 24.235 9.572 C 24.196 9.611 24.196 9.674 24.235 9.713 L 25.296 10.774 C 25.151 10.889 24.767 11.098 24.231 10.641 C 24.231 10.641 20.51 10.47 19.809 11.856 C 19.809 11.856 19.675 11.185 19.869 10.962 C 19.869 10.962 16.861 12.785 17.457 14.052 C 17.457 14.052 20.066 15.599 20.737 16.624 C 21.408 17.649 21.338 19.667 20.992 20.478 C 20.992 20.478 20.193 20.215 20.336 19.559 C 20.479 18.904 20.629 17.119 17.368 15.418 C 17.368 15.418 15.439 14.524 15.206 13.62 C 15.206 13.62 14.993 14.045 15.813 15.052 L 15.421 14.959 C 15.421 14.959 15.738 15.257 15.645 16.375 C 15.552 17.493 15.365 19.636 15.85 20.382 C 15.85 20.382 16.744 20.699 16.838 21.183 L 15.384 21.183 C 15.384 21.183 15.682 20.848 15.216 20.419 C 14.75 19.99 14.732 19.697 14.694 19.138 C 14.657 18.579 14.359 18.579 14.359 18.579 C 14.359 18.579 13.978 12.811 14.537 12.047 C 14.537 12.047 12.021 12.624 11.015 11.991 C 11.015 11.991 11.275 14.716 11.345 15.741 C 11.415 16.766 11.697 17.743 12.413 18.428 C 13.129 19.114 14.858 20.232 15.097 20.859 L 13.829 20.844 C 13.829 20.844 11.429 18.428 11.265 18.428 C 11.101 18.428 10.743 18.294 10.713 17.668 C 10.684 17.042 10.117 15.111 8.775 14.086 C 7.434 13.061 5.216 11.142 5.216 11.142 C 5.216 11.142 6.446 12.577 6.204 12.931 L 4.862 14.328 C 4.862 14.328 2.043 17.343 1.491 18.447 C 0.94 19.55 0.627 20.221 0.895 20.549 C 1.163 20.877 1.417 20.877 1.432 21.249 L 0.478 21.279 C 0.478 21.279 0.507 20.847 0 20.653 L 0.88 17.85 C 0.88 17.85 1.059 16.777 1.536 16.27 C 1.536 16.27 3.617 15.82 4.363 13.118 C 4.363 13.118 5.071 11.943 4.27 10.714 C 4.27 10.714 3.916 7.825 5.723 6.968 C 7.531 6.11 9.535 5.521 11.701 6.08 C 13.868 6.639 15.903 5.493 15.903 5.493 C 15.903 5.493 16.098 5.983 15.823 6.055 C 15.823 6.055 17.505 6.174 18.209 5.351 C 18.209 5.351 18.772 5.721 18.402 5.888 C 18.402 5.888 20.008 5.937 20.402 5.555 C 20.402 5.555 20.534 6.028 20.212 6.159 C 20.212 6.159 21.429 6.706 21.739 6.474 L 23.766 5.123 L 23.894 7.185 C 23.894 7.185 24.753 8.042 24.753 8.694 C 24.753 8.694 25.51 9.498 25.869 9.877 C 25.811 9.894 25.741 9.919 25.677 9.958 C 25.64 9.98 25.604 10.007 25.572 10.038 C 25.293 9.763 24.682 9.172 24.206 8.769 C 23.916 8.524 23.692 8.491 23.532 8.528 C 23.301 8.581 23.186 8.789 23.166 8.83 C 23.163 8.835 23.162 8.839 23.162 8.839 C 23.116 8.957 23.281 9.078 23.344 8.92 L 23.345 8.918 C 23.358 8.892 23.429 8.757 23.577 8.723 C 23.697 8.695 23.859 8.738 24.077 8.922 C 24.564 9.334 25.195 9.947 25.459 10.206 C 25.453 10.222 25.447 10.238 25.443 10.255 C 25.419 10.343 25.417 10.45 25.461 10.581 Z M 5.148 7.099 C 5.063 7.171 4.982 7.248 4.907 7.331 C 4.479 7.804 4.249 8.426 4.136 9.046 C 4.116 9.157 4.099 9.269 4.086 9.381 C 4.07 9.515 4.059 9.65 4.051 9.785 C 4.04 9.999 4.039 10.214 4.048 10.428 L 4.072 10.743 C 4.078 10.784 4.098 10.815 4.119 10.849 C 4.138 10.879 4.157 10.91 4.174 10.941 C 4.233 11.044 4.284 11.153 4.325 11.264 C 4.395 11.453 4.436 11.651 4.448 11.851 C 4.462 12.081 4.437 12.313 4.379 12.536 C 4.347 12.657 4.306 12.776 4.254 12.89 C 4.239 12.923 4.224 12.955 4.207 12.987 C 4.196 13.008 4.182 13.028 4.174 13.051 C 4.162 13.085 4.155 13.12 4.145 13.154 C 4.128 13.212 4.11 13.27 4.091 13.328 C 4.035 13.499 3.97 13.668 3.897 13.834 C 3.617 14.462 3.203 15.031 2.662 15.46 C 2.419 15.652 2.153 15.816 1.869 15.941 C 1.782 15.98 1.693 16.014 1.602 16.044 C 1.573 16.053 1.545 16.061 1.516 16.069 C 1.486 16.077 1.458 16.083 1.431 16.1 C 1.406 16.115 1.387 16.136 1.368 16.157 L 1.308 16.229 C 1.142 14.774 2.283 13.436 2.283 13.436 C 2.078 13.602 1.445 13.611 1.33 13.654 C 1.315 13.661 2.524 11.992 2.524 11.992 C 2.112 12.273 1.677 12.418 1.673 12.459 C 1.673 12.461 1.674 12.461 1.673 12.461 L 1.673 12.459 C 1.665 12.415 1.538 11.807 1.918 10.866 C 2.361 9.771 3.153 9.5 3.153 9.5 L 2.896 9.523 C 3.4 8.24 4.351 7.505 5.154 7.094 Z M 17.396 8.064 C 17.396 8.064 16.335 8.907 15.623 10.12 C 15.141 10.94 14.82 11.927 15.076 12.938 C 15.089 12.991 15.143 13.024 15.197 13.01 C 15.25 12.997 15.283 12.942 15.269 12.889 C 15.028 11.931 15.339 10.998 15.795 10.222 C 16.489 9.041 17.521 8.221 17.521 8.221 C 17.564 8.186 17.571 8.123 17.537 8.08 C 17.502 8.037 17.439 8.03 17.396 8.064 Z M 6.976 9.214 C 6.976 9.214 7.897 9.388 8.846 9.866 C 9.473 10.182 10.113 10.631 10.503 11.254 C 10.533 11.301 10.594 11.315 10.641 11.286 C 10.688 11.257 10.702 11.195 10.673 11.148 C 10.263 10.494 9.594 10.019 8.936 9.688 C 7.96 9.195 7.013 9.018 7.013 9.018 C 6.959 9.007 6.906 9.043 6.896 9.097 C 6.886 9.152 6.922 9.204 6.976 9.214 Z M 26.032 10.048 L 26.054 10.07 C 26.165 10.186 26.402 10.548 26.402 10.548 C 26.402 10.548 26.227 10.843 25.884 10.869 C 25.855 10.824 25.863 10.763 25.863 10.763 C 25.942 10.563 25.651 10.517 25.651 10.517 C 25.509 10.096 26.032 10.048 26.032 10.048 Z M 23.506 7.816 C 23.506 7.816 23.608 6.615 23.435 6.106 C 23.262 5.597 21.929 6.91 21.929 6.91 C 21.929 6.91 22.036 7.666 22.774 7.195 C 23.253 6.889 23.506 7.816 23.506 7.816 Z"
     id="path1"
     style="fill:#000000" />
</svg>
