<?xml version="1.0" encoding="UTF-8" standalone="no"?>
<!-- Created with Inkscape (http://www.inkscape.org/) -->

<svg
   width="482.61801"
   height="482.61801"
   viewBox="0 0 482.61801 482.61801"
   version="1.1"
   id="svg1"
   inkscape:version="1.4.2 (ebf0e940d0, 2025-05-08)"
   sodipodi:docname="ptarmigan.svg"
   xmlns:inkscape="http://www.inkscape.org/namespaces/inkscape"
   xmlns:sodipodi="http://sodipodi.sourceforge.net/DTD/sodipodi-0.dtd"
   xmlns="http://www.w3.org/2000/svg"
   xmlns:svg="http://www.w3.org/2000/svg">
  <sodipodi:namedview
     id="namedview1"
     pagecolor="#ffffff"
     bordercolor="#000000"
     borderopacity="0.25"
     inkscape:showpageshadow="2"
     inkscape:pageopacity="0.0"
     inkscape:pagecheckerboard="0"
     inkscape:deskcolor="#d1d1d1"
     inkscape:document-units="px"
     inkscape:zoom="0.84926471"
     inkscape:cx="336.7619"
     inkscape:cy="453.92208"
     inkscape:window-width="2256"
     inkscape:window-height="1427"
     inkscape:window-x="0"
     inkscape:window-y="0"
     inkscape:window-maximized="1"
     inkscape:current-layer="svg1" />
  <defs
     id="defs1" />
  <path
     d="M 196.53 377.752 L 194.454 382.392 C 193.494 384.539 193.676 386.903 194.956 388.878 C 196.236 390.852 198.319 391.984 200.672 391.984 L 207.5 391.984 C 207.691 390.675 208.044 389.38 208.562 388.127 L 211.894 380.062 C 209.886 379.888 207.904 379.687 205.982 379.427 C 202.734 378.987 199.587 378.42 196.53 377.752 Z"
     id="path1"
     style="fill:#000000" />
  <path
     d="M 339.258 388.229 C 327.216 377.349 309.883 371.609 287.747 371.151 C 265.919 377.328 244.066 380.616 224.836 380.616 C 223.322 380.616 221.829 380.59 220.349 380.549 L 215.956 391.182 C 214.893 393.756 215.171 396.559 216.719 398.874 C 218.267 401.188 220.752 402.516 223.537 402.516 L 325.003 402.516 C 316.045 394.239 302.507 389.454 287.264 389.454 C 285.055 389.454 283.264 387.663 283.264 385.454 C 283.264 383.245 285.055 381.454 287.264 381.454 C 307.659 381.454 325.551 389.229 335.601 402.314 C 338.66 401.647 340.582 399.389 341.405 397.249 C 342.383 394.709 342.332 391.006 339.258 388.229 Z"
     id="path2"
     style="fill:#000000" />
  <path
     d="M 425.498 143.121 C 425.357 141.482 426.234 139.924 427.709 139.194 C 441.154 132.54 448.232 123.156 449.357 110.546 C 442.31 92.333 424.469 80.102 404.932 80.102 C 378.371 80.102 360.759 111.647 357.232 128.536 C 352.569 150.864 332.149 167.701 309.731 167.701 C 302.652 167.701 292.594 164.428 279.861 160.285 C 251.171 150.95 207.817 136.842 163.95 150.582 C 113.853 166.275 68.7101 204.184 57.9771 229.743 C 56.1801 234.022 54.5191 240.063 56.8101 244.547 C 59.0611 248.956 68.0791 249.911 82.2051 247.234 C 114.412 241.133 161.759 218.33 162.234 218.1 C 164.224 217.139 166.614 217.97 167.577 219.958 C 168.539 221.946 167.707 224.338 165.719 225.301 C 163.876 226.193 123.026 245.867 90.5511 253.617 C 96.2801 259.715 106.455 269.731 116.03 275.073 L 165.772 245.974 C 167.679 244.857 170.128 245.499 171.244 247.407 C 172.359 249.314 171.718 251.763 169.811 252.879 L 125.227 278.96 C 139.779 283.561 158.587 283.907 166.228 282.52 C 173.596 281.181 191.582 269.287 197.891 264.816 C 199.693 263.539 202.19 263.964 203.468 265.767 C 204.745 267.57 204.32 270.066 202.517 271.343 C 200.253 272.948 181.611 286.024 170.484 289.648 C 169.977 293.604 169.395 302.087 172.575 308.016 L 206.013 283.493 C 207.795 282.185 210.298 282.572 211.604 284.353 C 212.911 286.135 212.525 288.638 210.744 289.944 L 178.681 313.458 C 190.236 318.045 215.331 312.556 232.86 300.675 C 251.229 288.225 257.253 265.721 257.312 265.495 C 257.868 263.357 260.057 262.078 262.19 262.63 C 264.328 263.186 265.611 265.37 265.055 267.508 C 264.807 268.46 259.262 289.127 242.384 303.456 C 248.343 306.107 258.756 308.826 270.654 303.505 C 289.82 294.934 316.761 251.927 311.329 219.076 C 306.072 187.281 247.915 176.447 247.329 176.341 C 245.155 175.949 243.71 173.87 244.1 171.696 C 244.49 169.522 246.565 168.076 248.742 168.467 C 251.365 168.937 313.045 180.417 319.221 217.771 C 325.299 254.524 295.718 301.06 273.919 310.808 C 267.775 313.556 261.949 314.561 256.714 314.561 C 246.769 314.561 238.96 310.935 235.135 308.733 C 222.34 316.767 203.968 323.217 189.027 323.218 C 180.703 323.218 173.448 321.218 168.818 316.375 C 161.985 309.228 161.705 297.855 162.292 291.011 C 160.356 291.144 158.198 291.218 155.873 291.218 C 143.421 291.218 126.296 289.148 114.353 283.234 C 100.861 276.551 86.1671 260.811 81.4311 255.498 C 76.6741 256.305 72.4371 256.711 68.7141 256.711 C 62.8801 256.711 58.3121 255.71 54.9431 253.715 C 43.5571 285.094 25.1151 311.063 0.00011 331.079 C 14.4891 333.087 29.9111 329.715 46.8781 320.876 C 48.2911 320.139 50.0071 320.312 51.2451 321.316 C 52.4831 322.32 53.0071 323.963 52.5791 325.498 L 49.7171 335.753 C 62.2771 334.297 72.2921 329.946 80.2141 322.531 C 81.3021 321.512 82.8671 321.182 84.2731 321.677 C 85.6801 322.171 86.6951 323.406 86.9071 324.881 L 87.8941 331.737 C 99.2431 330.489 109.936 325.192 119.013 316.28 C 119.904 315.405 121.151 314.995 122.391 315.176 C 123.627 315.356 124.709 316.103 125.314 317.197 C 125.572 317.661 151.986 364.05 207.054 371.499 C 262.683 379.028 356.165 348.161 385.967 301.414 C 403.698 273.601 404.155 248.77 404.558 226.863 C 404.813 212.972 405.034 200.975 409.68 190.58 C 414.575 179.626 422.832 172.54 430.818 165.687 C 436.344 160.945 441.621 156.406 445.594 150.794 C 436.116 148.902 428.74 146.729 428.347 146.613 C 426.769 146.146 425.639 144.76 425.498 143.121 Z M 403.042 129.03 C 397.737 129.03 393.437 124.73 393.437 119.425 C 393.437 114.12 397.737 109.82 403.042 109.82 C 408.347 109.82 412.647 114.12 412.647 119.425 C 412.647 124.73 408.346 129.03 403.042 129.03 Z"
     id="path3"
     style="fill:#000000" />
  <path
     d="M 482.432 139.305 C 480.573 132.504 467.172 122.676 456.585 116.382 C 454.467 126.496 448.803 134.861 439.668 141.371 C 459.047 146.052 478.844 147.581 482.18 142.111 C 482.508 141.574 482.833 140.77 482.432 139.305 Z"
     id="path4"
     style="fill:#000000" />
</svg>
