<?xml version="1.0" encoding="UTF-8" standalone="no"?>
<!-- Created with Inkscape (http://www.inkscape.org/) -->

<svg
   width="87.509003"
   height="87.509003"
   viewBox="0 0 87.509003 87.509003"
   version="1.1"
   id="svg1"
   inkscape:version="1.4.2 (ebf0e940d0, 2025-05-08)"
   sodipodi:docname="qualitytools.svg"
   xmlns:inkscape="http://www.inkscape.org/namespaces/inkscape"
   xmlns:sodipodi="http://sodipodi.sourceforge.net/DTD/sodipodi-0.dtd"
   xmlns="http://www.w3.org/2000/svg"
   xmlns:svg="http://www.w3.org/2000/svg">
  <path
     style="fill:#000000"
     d="M 65.626701,52.525701 V 54.799101 C 65.626701,55.916301 65.181391,56.986601 64.396201,57.775701 63.607141,58.564761 62.536801,59.006201 61.419601,59.006201 H 60.114901 C 58.997701,59.006201 57.927401,58.564791 57.138301,57.775701 56.349241,56.986641 55.907801,55.916301 55.907801,54.799101 V 52.525701 H 31.602801 V 54.799101 C 31.602801,55.916301 31.157491,56.986601 30.372301,57.775701 29.583241,58.564761 28.512901,59.006201 27.395701,59.006201 H 26.091001 C 24.973801,59.006201 23.903501,58.564791 23.114401,57.775701 22.325341,56.986641 21.883901,55.916301 21.883901,54.799101 V 52.525701 H 0.008901 V 75.213701 H 87.5089 V 52.525701 Z"
     id="path1" />
  <sodipodi:namedview
     id="namedview1"
     pagecolor="#ffffff"
     bordercolor="#000000"
     borderopacity="0.25"
     inkscape:showpageshadow="2"
     inkscape:pageopacity="0.0"
     inkscape:pagecheckerboard="0"
     inkscape:deskcolor="#d1d1d1"
     inkscape:document-units="px"
     inkscape:zoom="9.6083333"
     inkscape:cx="47.875109"
     inkscape:cy="67.181266"
     inkscape:window-width="2256"
     inkscape:window-height="1427"
     inkscape:window-x="0"
     inkscape:window-y="0"
     inkscape:window-maximized="1"
     inkscape:current-layer="svg1" />
  <defs
     id="defs1" />
  <path
     style="fill:#000000"
     d="M 19.445701,28.502401 V 13.916401 C 19.445701,13.017961 20.172261,12.295301 21.066801,12.295301 H 66.433801 C 67.332241,12.295301 68.054901,13.021861 68.054901,13.916401 V 28.502401 H 64.812701 V 15.537401 H 22.679701 V 28.502401 H 19.437501 Z"
     id="path5" />
  <path
     style="fill:#000000;stroke-width:0.894427"
     d="M 87.5007,48.533061 V 41.901781 C 87.5007,40.586181 86.97726,39.308021 86.0124,38.245541 L 75.3324,26.498341 H 12.168401 L 1.488401,38.245541 C 0.523561,39.308021 1.01e-4,40.589301 1.01e-4,41.901781 V 48.533061 H 21.875101 V 46.714341 C 21.875101,45.820581 22.320411,44.964341 23.105601,44.333061 23.894661,43.701813 24.965001,43.345541 26.082201,43.345541 H 27.386901 C 28.504101,43.345541 29.574401,43.701789 30.363501,44.333061 31.152561,44.964309 31.594001,45.820581 31.594001,46.714341 V 48.533061 H 55.899001 V 46.714341 C 55.899001,45.820581 56.344311,44.964341 57.129501,44.333061 57.918561,43.701813 58.988901,43.345541 60.106101,43.345541 H 61.410801 C 62.528001,43.345541 63.598301,43.701789 64.387401,44.333061 65.176461,44.964309 65.617901,45.820581 65.617901,46.714341 V 48.533061 Z"
     id="path4" />
  <path
     style="fill:#000000"
     d="M 62.383701,47.014001 V 54.803101 C 62.383701,55.060911 62.282141,55.307011 62.098541,55.486691 61.918851,55.666381 61.668851,55.767941 61.414951,55.767941 H 60.110251 C 59.852441,55.767941 59.606341,55.666381 59.426661,55.486691 59.246971,55.307001 59.141501,55.057001 59.141501,54.803101 V 47.014001 C 59.141501,46.756191 59.243061,46.510091 59.426661,46.330411 59.606351,46.150721 59.852441,46.045251 60.110251,46.045251 H 61.414951 C 61.672761,46.045251 61.918861,46.146811 62.098541,46.330411 62.278231,46.510101 62.383701,46.760101 62.383701,47.014001 Z"
     id="path3" />
  <path
     style="fill:#000000"
     d="M 28.356701,47.014001 V 54.803101 C 28.356701,55.060911 28.255141,55.307011 28.071541,55.486691 27.891851,55.666381 27.645761,55.767941 27.387951,55.767941 H 26.083251 C 25.825441,55.767941 25.579341,55.666381 25.399661,55.486691 25.219971,55.307001 25.114501,55.057001 25.114501,54.803101 V 47.014001 C 25.114501,46.756191 25.216061,46.510091 25.399661,46.330411 25.579351,46.150721 25.829351,46.045251 26.083251,46.045251 H 27.387951 C 27.645761,46.045251 27.891861,46.146811 28.071541,46.330411 28.251231,46.510101 28.356701,46.760101 28.356701,47.014001 Z"
     id="path2" />
</svg>
