<?xml version="1.0" encoding="UTF-8" standalone="no"?>
<!-- Created with Inkscape (http://www.inkscape.org/) -->

<svg
   width="448.34698"
   height="448.34698"
   viewBox="0 0 448.34698 448.34698"
   version="1.1"
   id="svg1"
   inkscape:version="1.4.2 (ebf0e940d0, 2025-05-08)"
   sodipodi:docname="rabbithat.svg"
   xmlns:inkscape="http://www.inkscape.org/namespaces/inkscape"
   xmlns:sodipodi="http://sodipodi.sourceforge.net/DTD/sodipodi-0.dtd"
   xmlns="http://www.w3.org/2000/svg"
   xmlns:svg="http://www.w3.org/2000/svg">
  <sodipodi:namedview
     id="namedview1"
     pagecolor="#ffffff"
     bordercolor="#000000"
     borderopacity="0.25"
     inkscape:showpageshadow="2"
     inkscape:pageopacity="0.0"
     inkscape:pagecheckerboard="0"
     inkscape:deskcolor="#d1d1d1"
     inkscape:document-units="px"
     inkscape:zoom="1.2010417"
     inkscape:cx="306.40069"
     inkscape:cy="330.9627"
     inkscape:window-width="2256"
     inkscape:window-height="1427"
     inkscape:window-x="0"
     inkscape:window-y="0"
     inkscape:window-maximized="1"
     inkscape:current-layer="svg1" />
  <defs
     id="defs1" />
  <path
     id="path1"
     style="fill:#000000;stroke-width:4.16381"
     d="M 63.357422 195.39258 C 64.277422 288.27258 77.517812 353.80273 99.007812 371.30273 C 105.46981 376.65173 112.25141 381.60009 119.31641 386.12109 C 121.50641 387.49109 123.66688 388.76117 125.79688 389.95117 L 139.95703 396.5918 C 147.40703 399.3718 154.12758 400.59242 160.01758 400.23242 C 169.52758 399.65242 177.01641 394.85273 182.81641 385.55273 C 186.54641 379.65273 191.05625 370.24141 196.15625 359.44141 L 198.28711 354.90234 C 213.85711 321.82234 234.95656 276.90109 263.22656 255.12109 L 263.13672 254.60156 L 262.95703 253.54297 C 262.82703 252.77297 262.67734 252.02172 262.52734 251.26172 C 262.45734 250.89172 262.37711 250.53234 262.28711 250.15234 C 262.13711 249.42234 261.95687 248.70266 261.79688 247.97266 C 261.70687 247.63266 261.63687 247.30266 261.54688 246.97266 C 261.33687 246.13266 261.11672 245.32148 260.88672 244.52148 C 260.82672 244.33148 260.78656 244.14117 260.72656 243.95117 C 260.44656 242.95117 260.12664 241.95125 259.80664 241.03125 C 259.74664 240.82125 259.67766 240.63188 259.59766 240.42188 C 259.34766 239.69188 259.07687 238.97219 258.79688 238.24219 C 258.69687 237.95219 258.57703 237.65133 258.45703 237.36133 L 257.69727 235.57227 L 257.29688 234.66211 C 257.02687 234.08211 256.7468 233.51117 256.4668 232.95117 C 256.3368 232.68117 256.21641 232.41234 256.06641 232.15234 C 255.72641 231.48234 255.36609 230.82234 254.99609 230.15234 L 254.77734 229.74219 C 254.32734 228.97219 253.85695 228.23219 253.37695 227.49219 C 253.25695 227.30219 253.12633 227.12141 252.98633 226.94141 C 252.62633 226.40141 252.25672 225.88109 251.88672 225.37109 L 251.34766 224.66211 C 251.00766 224.22211 250.64711 223.78133 250.28711 223.36133 L 249.70703 222.66211 C 249.33703 222.23211 248.94664 221.82187 248.55664 221.42188 C 248.37664 221.22188 248.18633 221.01203 247.98633 220.83203 C 247.49633 220.32203 246.98727 219.8318 246.44727 219.3418 C 246.37727 219.2718 246.29703 219.19109 246.20703 219.12109 L 245.78711 219.27148 C 245.26711 219.49148 244.72773 219.69258 244.17773 219.89258 L 243.07617 220.26172 C 242.47617 220.45172 241.85656 220.61172 241.22656 220.76172 C 240.88656 220.85172 240.53797 220.95125 240.16797 221.03125 C 239.41797 221.19125 238.64742 221.32141 237.85742 221.44141 L 237.06641 221.57227 C 235.99641 221.72227 234.90781 221.83234 233.75781 221.90234 L 233.00781 221.90234 C 232.18781 221.90234 231.38711 221.97266 230.53711 221.97266 L 230.25781 221.97266 L 229.37695 221.97266 C 228.49695 221.97266 227.61656 221.91109 226.72656 221.87109 L 225.51758 221.78125 C 224.65758 221.72125 223.77695 221.63148 222.87695 221.52148 L 221.72656 221.39258 C 220.45656 221.23258 219.16789 221.0425 217.83789 220.8125 L 214.51758 220.24219 L 213.44727 220.05273 L 210.94727 219.62109 L 209.51758 219.38281 L 207.1875 218.98242 L 205.44727 218.69141 L 203.08789 218.29297 L 201.49609 218.02148 L 198.87695 217.58203 L 196.98633 217.25195 L 194.52734 216.8418 L 192.52734 216.50195 L 189.76758 216.03125 L 187.99609 215.74219 L 185.08789 215.25195 L 182.98633 214.90234 L 179.98633 214.40234 L 178.33789 214.12109 L 174.66797 213.51172 L 173.26758 213.28125 L 169.41797 212.65234 L 167.95703 212.41211 L 164.04688 211.77148 L 162.61719 211.53125 L 157.77734 210.74219 L 157.35742 210.67188 L 152.45703 209.87109 L 151.69727 209.74219 C 140.48727 207.90219 128.90781 206.01211 117.50781 204.16211 L 116.6875 204.02148 L 106.20703 202.32227 L 105.28711 202.17188 L 94.617188 200.44141 L 79.027344 197.92188 L 78.246094 197.80273 C 73.056094 196.95273 68.067422 196.15258 63.357422 195.39258 z " />
  <path
     d="M 161.467 199.742 L 175.757 202.122 L 181.917 203.122 C 197.417 205.692 211.027 207.982 220.917 209.692 C 230.807 211.402 237.917 210.692 241.677 207.692 C 244.267 205.602 245.987 202.132 246.787 197.362 C 246.907 196.672 246.997 195.962 247.087 195.232 L 247.087 195.232 C 247.147 194.592 247.207 193.942 247.247 193.232 C 247.287 192.522 247.307 191.852 247.317 191.122 C 247.507 182.532 245.797 172.262 244.147 162.322 C 243.147 156.472 242.147 150.412 241.587 144.842 C 239.727 127.262 236.687 109.212 227.117 96.3125 C 221.307 88.4625 213.387 83.0025 203.047 79.7225 C 202.047 79.4225 201.047 79.1225 200.047 78.8525 C 199.267 78.6425 198.467 78.4425 197.647 78.2625 C 160.967 69.9125 150.647 67.8225 93.297 56.2625 L 85.357 54.6525 C 78.9644 53.3277 72.4779 52.5052 65.957 52.1925 C 31.257 50.7825 28.857 70.7625 28.707 73.0525 C 28.6758 73.4829 28.5849 73.907 28.437 74.3125 C 28.217 74.9425 5.92697 137.862 0.43697 157.722 C -3.56303 172.052 21.167 176.932 23.047 177.282 L 33.347 178.922 L 57.417 182.812 C 84.367 187.162 123.787 193.542 158.877 199.312 Z"
     id="path2"
     style="fill:#000000" />
  <path
     d="M 381.957 18.8425 C 344.237 6.62247 289.617 0.17247 224.027 0.17247 C 126.387 0.17247 89.157 29.1725 77.587 41.7625 C 78.777 41.9125 79.997 42.1125 81.227 42.3025 L 83.107 42.5825 C 84.997 42.8925 86.937 43.2425 88.907 43.6425 L 96.907 45.2325 C 153.097 56.5425 164.797 58.8925 201.707 67.3025 C 203.187 67.6425 204.617 68.0225 206.027 68.4325 L 206.917 68.6925 C 208.287 69.1025 209.627 69.5325 210.917 69.9925 L 211.547 70.2225 C 212.737 70.6525 213.917 71.1225 215.067 71.6025 L 215.697 71.8725 C 216.937 72.4225 218.137 72.9925 219.317 73.5925 L 220.067 73.9725 C 221.247 74.6025 222.407 75.2425 223.507 75.9125 L 223.577 75.9125 C 224.697 76.6125 225.787 77.3425 226.857 78.0925 L 227.527 78.5825 C 228.527 79.3425 229.527 80.1025 230.527 80.9225 L 230.977 81.3025 C 231.857 82.0625 232.707 82.8225 233.527 83.6325 C 233.627 83.7325 233.747 83.8325 233.867 83.9325 L 234.967 82.9325 L 235.967 82.0025 L 238.067 80.1325 L 238.817 79.4825 C 239.817 78.6325 240.817 77.7725 241.817 76.9125 L 242.637 76.2225 C 243.397 75.5558 244.17 74.9158 244.957 74.3025 L 246.177 73.3025 C 246.867 72.7325 247.567 72.1725 248.277 71.6125 L 249.637 70.6125 C 250.357 70.0525 251.067 69.5025 251.797 68.9625 C 252.257 68.6125 252.717 68.2525 253.197 67.9025 L 255.537 66.1825 C 255.987 65.8725 256.417 65.5425 256.877 65.1825 C 257.877 64.4525 258.877 63.7325 259.977 63.0025 L 260.677 62.5125 C 261.957 61.6325 263.267 60.7625 264.597 59.8925 C 265.017 59.6225 265.427 59.3725 265.837 59.1025 C 266.777 58.4925 267.727 57.8925 268.687 57.3025 C 269.207 56.9725 269.747 56.6625 270.277 56.3025 C 271.157 55.7625 272.037 55.2325 272.947 54.7125 L 274.647 53.7125 C 275.557 53.1925 276.467 52.7125 277.387 52.1625 L 279.087 51.2225 C 280.087 50.6725 281.087 50.1425 282.147 49.6025 L 283.637 48.8225 C 285.177 48.0425 286.737 47.2725 288.307 46.5325 C 321.307 30.8625 354.857 26.4625 388.097 33.4325 C 389.617 33.7625 391.097 34.0925 392.617 34.4325 L 393.737 34.7125 C 395.217 35.0725 396.737 35.4525 398.137 35.8625 L 398.207 35.8625 C 399.637 36.2625 401.037 36.6925 402.437 37.1325 L 403.507 37.4725 C 404.907 37.9425 406.307 38.4025 407.677 38.8925 L 407.807 38.9525 C 409.147 39.4325 410.477 39.9525 411.807 40.4525 L 412.807 40.8625 C 414.147 41.4125 415.457 41.9725 416.807 42.5525 L 416.987 42.6325 C 418.237 43.1925 419.477 43.7725 420.697 44.3625 L 421.697 44.8525 C 422.967 45.4825 424.217 46.1225 425.437 46.7825 L 425.647 46.9025 C 426.827 47.5425 427.977 48.2025 429.117 48.9025 L 430.027 49.4425 C 431.217 50.1625 432.397 50.8825 433.557 51.6425 L 433.777 51.7925 C 434.557 52.3025 435.327 52.7925 436.087 53.3425 C 427.447 39.2925 409.357 27.7025 381.957 18.8425 Z"
     id="path3"
     style="fill:#000000" />
  <path
     d="M 432.037 66.1225 C 431.547 65.7225 431.037 65.3325 430.527 64.9425 C 430.017 64.5525 429.377 64.0825 428.797 63.6525 C 428.217 63.2225 427.797 62.9125 427.257 62.5425 C 426.717 62.1725 426.047 61.7125 425.437 61.3125 C 424.827 60.9125 424.437 60.6125 423.867 60.3125 C 423.297 60.0125 422.617 59.5225 421.987 59.1325 C 421.357 58.7425 420.917 58.4725 420.377 58.1325 C 419.837 57.7925 419.077 57.3925 418.377 57.0125 L 416.807 56.1225 C 416.137 55.7625 415.467 55.4225 414.807 55.1225 C 414.147 54.8225 413.707 54.5525 413.137 54.2725 C 412.567 53.9925 411.737 53.6125 411.037 53.2725 C 410.337 52.9325 409.917 52.7525 409.337 52.4925 C 408.757 52.2325 407.877 51.8725 407.147 51.5625 L 405.447 50.8525 C 404.687 50.5525 403.907 50.2725 403.147 49.9825 L 401.437 49.3425 L 398.957 48.4925 C 398.387 48.2925 397.837 48.0925 397.257 47.9225 C 396.407 47.6525 395.547 47.4025 394.677 47.1425 C 394.137 46.9825 393.607 46.8125 393.057 46.6625 C 392.057 46.3925 391.117 46.1425 390.137 45.8925 L 388.747 45.5325 C 387.297 45.1725 385.837 44.8425 384.347 44.5325 C 383.347 44.3225 382.347 44.1125 381.347 43.9225 L 380.197 43.7225 L 378.317 43.3925 L 376.977 43.1925 L 375.307 42.9325 L 373.887 42.7625 L 372.327 42.5525 L 370.877 42.4025 L 369.357 42.2525 L 367.887 42.1225 L 366.407 42.0025 L 364.957 41.9425 L 363.507 41.8625 L 361.957 41.8025 L 360.557 41.8025 L 359.047 41.8025 L 354.817 41.8025 L 353.307 41.8025 L 351.977 41.8025 C 351.47 41.8025 350.964 41.8258 350.457 41.8725 L 349.157 41.9425 L 347.637 42.0425 L 346.367 42.1425 L 344.847 42.2725 L 343.597 42.4025 L 342.087 42.5625 L 340.847 42.7125 L 339.337 42.9125 L 338.127 43.0825 L 336.607 43.3125 L 335.447 43.5025 L 333.907 43.7725 L 332.777 43.9825 L 331.237 44.2725 L 330.147 44.5025 L 328.597 44.8325 L 327.537 45.0625 L 325.977 45.4225 L 324.977 45.6825 C 324.437 45.8125 323.907 45.9425 323.387 46.0825 L 322.467 46.3225 C 321.917 46.4725 321.367 46.6125 320.817 46.7725 L 320.007 47.0025 C 319.427 47.1625 318.847 47.3325 318.277 47.5025 L 317.637 47.6925 L 315.747 48.2825 L 315.587 48.2825 C 312.427 49.2958 309.337 50.3958 306.317 51.5825 L 306.107 51.6625 L 304.257 52.4025 L 303.717 52.6125 L 302.037 53.3225 L 301.367 53.6025 L 299.787 54.3025 L 299.037 54.6325 L 297.527 55.3225 L 296.737 55.6925 L 295.277 56.3825 L 294.457 56.7825 L 293.057 57.4725 L 292.227 57.8925 L 290.857 58.5925 C 290.577 58.7325 290.287 58.8725 290.027 59.0225 L 288.667 59.7325 L 287.837 60.1725 L 286.527 60.8925 L 285.697 61.3425 L 284.397 62.0725 L 283.577 62.5425 L 282.297 63.2725 L 281.497 63.7525 L 280.247 64.4925 L 279.427 64.9825 L 278.207 65.7425 L 277.417 66.2325 L 276.197 67.0025 C 275.927 67.1625 275.677 67.3325 275.427 67.5025 L 274.217 68.2825 L 273.457 68.7725 L 272.277 69.5525 C 272.027 69.7225 271.767 69.8925 271.527 70.0625 C 271.127 70.3225 270.737 70.5825 270.347 70.8525 L 269.627 71.3525 C 269.237 71.6225 268.847 71.8725 268.467 72.1525 L 267.767 72.6425 L 266.607 73.4525 L 265.967 73.9325 C 265.577 74.2125 265.177 74.4925 264.807 74.7725 L 264.177 75.2425 L 263.017 76.1025 L 262.477 76.5125 C 262.057 76.8125 261.657 77.1325 261.257 77.4325 L 260.857 77.7425 L 259.547 78.7425 L 259.397 78.8625 C 257.397 80.4525 255.397 82.0525 253.507 83.6225 L 253.087 83.9725 L 252.087 84.8525 C 251.927 84.9925 251.757 85.1425 251.577 85.2825 L 250.657 86.0825 L 250.057 86.5925 L 249.207 87.3325 L 248.577 87.8825 L 247.757 88.6225 C 247.547 88.7925 247.337 88.9825 247.147 89.1725 L 246.357 89.8825 L 245.747 90.4525 L 244.987 91.1425 L 244.377 91.7125 L 243.647 92.4025 L 243.047 92.9625 L 242.327 93.6325 L 241.967 93.9825 C 242.247 94.4325 242.517 94.9025 242.787 95.3525 C 243.057 95.8025 243.247 96.0925 243.477 96.4825 C 243.837 97.1125 244.177 97.7625 244.477 98.4025 L 245.017 99.4025 C 245.497 100.332 245.937 101.292 246.377 102.242 L 246.597 102.752 C 246.997 103.652 247.387 104.552 247.747 105.472 C 247.907 105.852 248.047 106.252 248.197 106.652 C 248.447 107.302 248.707 107.952 248.947 108.652 L 249.397 110.022 C 249.607 110.632 249.817 111.242 250.007 111.872 C 250.157 112.352 250.307 112.872 250.437 113.312 L 250.977 115.142 C 251.107 115.632 251.227 116.142 251.367 116.622 C 251.507 117.102 251.677 117.842 251.847 118.462 C 252.017 119.082 252.087 119.462 252.187 119.962 C 252.287 120.462 252.467 121.192 252.607 121.822 C 252.747 122.452 252.827 122.822 252.937 123.332 L 253.297 125.222 C 253.397 125.722 253.487 126.222 253.577 126.732 C 253.667 127.242 253.817 128.012 253.917 128.652 C 253.987 129.142 254.077 129.652 254.157 130.132 C 254.277 130.802 254.367 131.472 254.467 132.132 C 254.537 132.602 254.617 133.072 254.677 133.542 C 254.777 134.252 254.867 134.962 254.957 135.672 L 255.137 136.972 C 255.237 137.752 255.327 138.532 255.417 139.312 L 255.547 140.402 C 255.677 141.532 255.797 142.672 255.917 143.812 C 256.487 149.102 257.427 154.762 258.417 160.752 L 259.047 164.532 C 259.047 164.872 259.147 165.192 259.207 165.532 L 259.657 168.362 C 259.727 168.792 259.787 169.222 259.847 169.652 C 259.977 170.502 260.097 171.342 260.237 172.172 C 260.297 172.662 260.357 173.172 260.427 173.612 L 260.737 175.962 L 260.917 177.482 C 260.987 178.222 261.077 178.982 261.157 179.712 C 261.217 180.232 261.257 180.712 261.307 181.272 L 261.487 183.412 L 261.577 184.982 C 261.577 185.672 261.647 186.342 261.667 186.982 C 261.687 187.622 261.667 187.982 261.667 188.552 L 261.667 189.842 L 296.357 189.842 C 296.487 189.422 296.607 189.002 296.747 188.582 L 297.107 187.492 C 297.177 187.222 297.287 186.952 297.377 186.682 L 297.527 186.272 C 297.807 185.442 298.097 184.662 298.387 183.882 C 298.432 183.739 298.485 183.599 298.547 183.462 C 298.607 183.332 298.647 183.202 298.707 183.082 C 298.767 182.962 298.887 182.592 299.007 182.342 C 300.097 179.682 301.477 176.692 303.077 173.542 L 303.747 172.242 C 303.997 171.802 304.197 171.432 304.387 171.052 C 304.877 170.122 305.387 169.272 305.837 168.422 L 305.927 168.262 L 306.627 167.042 L 307.027 166.332 C 307.042 166.285 307.066 166.241 307.097 166.202 C 307.197 166.012 307.317 165.832 307.407 165.652 C 307.497 165.472 307.507 165.462 307.567 165.382 L 308.567 163.732 C 308.667 163.542 308.837 163.282 308.997 163.012 L 309.367 162.402 C 309.877 161.552 310.367 160.742 310.907 159.922 C 312.157 157.922 313.437 156.002 314.697 154.152 C 315.147 153.462 315.697 152.752 316.147 152.032 L 316.237 151.902 C 320.368 145.911 324.814 140.142 329.557 134.622 L 329.767 134.382 C 329.957 134.152 330.157 133.912 330.367 133.692 C 330.757 133.272 331.097 132.882 331.437 132.482 C 331.777 132.082 332.267 131.572 332.647 131.182 C 333.857 129.872 335.057 128.642 336.147 127.602 C 338.147 125.662 340.337 123.252 342.597 120.692 C 351.327 110.852 362.217 98.6125 380.487 97.6125 C 382.235 97.508 383.989 97.508 385.737 97.6125 C 399.937 98.6125 415.527 106.372 433.287 121.392 C 434.687 122.579 436.044 123.762 437.357 124.942 L 437.477 125.042 C 439.827 113.812 441.817 97.6225 441.877 74.8925 L 441.117 74.1025 C 440.657 73.6325 440.197 73.1725 439.717 72.7025 C 439.237 72.2325 438.717 71.7025 438.207 71.2625 L 436.767 70.1225 C 436.227 69.6425 435.707 69.1825 435.177 68.7225 L 433.717 67.4625 C 433.157 67.0325 432.607 66.5925 432.037 66.1225 Z"
     id="path4"
     style="fill:#000000" />
  <path
     d="M 435.497 141.612 C 432.604 138.406 429.54 135.358 426.317 132.482 C 425.157 131.436 423.95 130.389 422.697 129.342 C 406.137 115.342 392.307 108.532 381.487 109.112 C 370.097 109.742 362.137 118.702 354.437 127.372 C 352.007 130.122 349.697 132.712 347.297 135.002 C 346.387 135.872 345.377 136.922 344.297 138.112 L 343.297 139.202 C 342.967 139.562 342.597 139.992 342.177 140.442 L 341.807 140.872 L 341.537 141.182 C 340.537 142.362 339.537 143.592 338.437 144.872 C 335.307 148.712 332.087 153.012 328.947 157.522 L 328.877 157.642 C 328.417 158.292 327.967 158.952 327.517 159.642 C 326.297 161.442 325.077 163.302 323.867 165.222 C 323.387 165.952 322.947 166.662 322.507 167.382 L 322.077 168.112 L 320.747 170.322 C 320.587 170.612 320.407 170.912 320.227 171.202 L 319.887 171.822 C 319.647 172.222 319.427 172.612 319.197 173.022 C 319.169 173.082 319.135 173.139 319.097 173.192 C 318.647 173.982 318.217 174.762 317.797 175.552 C 317.607 175.922 317.367 176.382 317.107 176.842 C 316.947 177.132 316.747 177.512 316.567 177.842 C 315.06 180.796 313.794 183.529 312.767 186.042 C 312.667 186.272 312.617 186.392 312.577 186.522 L 312.337 187.132 L 312.337 187.132 L 312.337 187.192 C 312.057 187.902 311.797 188.602 311.557 189.282 L 311.377 189.822 C 311.317 189.972 311.257 190.122 311.217 190.272 C 311.177 190.422 311.067 190.772 310.977 191.012 L 310.767 191.682 C 310.697 191.912 310.637 192.152 310.577 192.382 C 310.517 192.612 310.367 193.052 310.277 193.382 C 310.187 193.712 310.147 193.922 310.087 194.162 L 310.027 194.402 C 310.034 194.456 310.034 194.509 310.027 194.562 C 309.968 194.752 309.925 194.946 309.897 195.142 L 309.897 195.372 C 309.807 195.712 309.767 196.032 309.707 196.372 C 309.647 196.712 309.647 196.722 309.637 196.872 C 309.625 196.994 309.605 197.114 309.577 197.232 L 309.577 197.512 L 309.577 197.722 C 309.584 197.842 309.584 197.963 309.577 198.082 L 309.577 198.232 L 309.577 198.742 L 309.577 199.252 L 309.577 200.132 C 309.577 206.052 312.347 206.132 315.017 206.132 L 315.207 206.132 C 315.447 206.132 340.207 206.962 366.207 206.292 C 413.887 205.072 421.907 200.172 423.037 199.202 C 424.657 197.782 426.557 196.312 428.537 194.772 C 433.537 190.872 439.267 186.442 443.267 181.062 C 446.677 176.492 448.347 171.902 448.347 167.062 L 448.347 166.202 C 447.657 158.862 443.467 150.582 435.497 141.612 Z"
     id="path5"
     style="fill:#000000" />
  <path
     id="path6"
     style="fill:#000000"
     d="M 442.51758 199.69141 C 441.05758 200.87141 439.63688 201.96172 438.29688 203.01172 C 436.44687 204.37172 434.70789 205.73164 433.33789 206.93164 C 428.66789 210.93164 416.64703 216.45242 366.20703 217.73242 L 360.74609 217.85156 L 360.17773 217.85156 C 358.52473 217.88556 356.88481 217.90887 355.25781 217.92188 L 354.64648 217.92188 L 349.64648 217.92188 L 336.58789 217.92188 L 331.42773 217.92188 L 331.15625 217.92188 L 329.51758 217.92188 L 329.45703 217.92188 L 324.72656 217.8418 L 324.63672 217.8418 C 318.76672 217.7418 314.93688 217.62156 314.29688 217.60156 L 314.23633 217.60156 C 313.50333 217.60156 312.78789 217.56895 312.08789 217.50195 L 311.36719 217.42188 L 310.00781 217.26172 L 309.1875 217.10156 L 308.03711 216.88281 L 307.2168 216.66211 C 306.8768 216.57211 306.5268 216.47133 306.2168 216.36133 C 305.9068 216.25133 305.6975 216.17203 305.4375 216.08203 C 305.1775 215.99203 304.79609 215.85266 304.49609 215.72266 L 303.74609 215.37109 L 302.89648 214.94141 C 302.65648 214.81141 302.43703 214.67125 302.20703 214.53125 C 301.97703 214.39125 301.68727 214.22297 301.44727 214.04297 C 301.20727 213.86297 301.01664 213.7325 300.80664 213.5625 C 300.56564 213.3945 300.33519 213.20972 300.11719 213.01172 C 299.90719 212.85172 299.72711 212.66219 299.53711 212.49219 C 299.34711 212.32219 299.11773 212.08109 298.92773 211.87109 C 298.73773 211.66109 298.58797 211.49297 298.41797 211.29297 C 298.22597 211.07997 298.04495 210.85409 297.87695 210.62109 L 297.42773 209.98242 C 297.27773 209.75242 297.1168 209.50195 296.9668 209.25195 C 296.8168 209.00195 296.71766 208.8025 296.59766 208.5625 C 296.47766 208.3225 296.34656 208.04148 296.22656 207.77148 C 296.10656 207.50148 296.01773 207.28297 295.92773 207.04297 C 295.83773 206.80297 295.71719 206.47164 295.61719 206.18164 L 295.39648 205.40234 L 295.17773 204.49219 C 295.11773 204.21219 295.07734 203.94211 295.02734 203.66211 C 294.97734 203.38211 294.92648 203.01211 294.89648 202.66211 L 294.80664 201.80273 L 294.80664 201.39258 L 260.56641 201.39258 C 260.56641 201.53258 260.47727 201.6725 260.44727 201.8125 C 260.32727 202.2825 260.19664 202.72211 260.05664 203.16211 C 259.91664 203.60211 259.78695 204.09125 259.62695 204.53125 C 259.46695 204.97125 259.31648 205.37148 259.14648 205.77148 C 258.97648 206.17148 258.80742 206.63297 258.60742 207.04297 C 258.40742 207.45297 258.23711 207.81141 258.03711 208.19141 C 257.83711 208.57141 257.60695 208.98109 257.37695 209.37109 C 257.14695 209.76109 256.94703 210.07109 256.70703 210.37109 C 256.57703 210.57109 256.45641 210.79219 256.31641 210.99219 L 256.49609 211.16211 C 256.77609 211.40211 257.03687 211.65258 257.29688 211.89258 C 257.78687 212.34258 258.29781 212.80148 258.75781 213.27148 C 259.05781 213.55148 259.33719 213.85234 259.61719 214.15234 C 259.89719 214.45234 260.47797 215.05172 260.91797 215.51172 L 261.76758 216.51172 C 262.16758 216.98172 262.55703 217.45141 262.95703 217.94141 L 263.76758 218.94141 C 264.15758 219.44141 264.52648 219.94242 264.89648 220.48242 C 265.13648 220.83242 265.38648 221.18297 265.64648 221.54297 C 266.01648 222.10297 266.39609 222.67219 266.74609 223.24219 C 266.95609 223.59219 267.17672 223.91219 267.38672 224.24219 C 267.81672 224.95219 268.21672 225.68188 268.63672 226.42188 C 268.75672 226.65187 268.88734 226.87133 269.02734 227.11133 C 269.53734 228.11133 270.02758 229.11133 270.51758 230.11133 C 270.66758 230.41133 270.79727 230.74133 270.94727 231.11133 C 271.27727 231.82133 271.58727 232.54297 271.94727 233.29297 C 272.12727 233.71297 272.28703 234.14227 272.45703 234.57227 C 272.70703 235.23227 272.9768 235.90227 273.2168 236.57227 C 273.3968 237.04227 273.54703 237.51242 273.70703 237.98242 L 274.37695 239.98242 L 274.82617 241.47266 C 275.03317 242.13966 275.22625 242.8365 275.40625 243.5625 C 275.55625 244.0625 275.68664 244.56203 275.80664 245.08203 C 275.99664 245.82203 276.16766 246.57203 276.34766 247.33203 C 276.44766 247.83203 276.56773 248.33227 276.67773 248.82227 C 276.85773 249.67227 277.0175 250.53258 277.1875 251.39258 C 277.2575 251.82258 277.34773 252.25164 277.42773 252.68164 C 277.64773 253.99164 277.85664 255.32164 278.05664 256.68164 C 281.82664 284.01164 277.44672 321.49227 265.38672 365.07227 L 265.32617 365.28125 C 265.32617 365.43125 265.25727 365.59195 265.19727 365.75195 C 264.40727 368.64195 263.55727 371.64234 262.69727 374.65234 C 258.95727 387.91234 255.0775 401.6525 252.9375 413.5625 C 250.0575 429.4225 250.71766 439.7725 254.84766 444.5625 C 254.84766 444.5625 259.16789 449.18266 268.58789 447.97266 C 269.21789 447.97266 269.85656 447.97109 270.47656 447.87109 C 283.80656 446.87109 299.67641 440.06164 319.06641 427.18164 C 322.37641 424.99164 325.89766 422.55289 329.84766 419.71289 C 336.17766 415.14289 354.43766 395.52141 386.84766 312.19141 C 389.67766 304.92141 393.56633 300.54219 398.48633 294.99219 C 406.14633 286.37219 416.63781 274.56219 432.00781 241.99219 C 438.36581 228.75919 441.94258 214.36241 442.51758 199.69141 z " />
</svg>
