<?xml version="1.0" encoding="UTF-8" standalone="no"?>
<!-- Created with Inkscape (http://www.inkscape.org/) -->

<svg
   width="19.584999"
   height="19.584999"
   viewBox="0 0 19.584999 19.584999"
   version="1.1"
   id="svg1"
   inkscape:version="1.4.2 (ebf0e940d0, 2025-05-08)"
   sodipodi:docname="rabbit.svg"
   xmlns:inkscape="http://www.inkscape.org/namespaces/inkscape"
   xmlns:sodipodi="http://sodipodi.sourceforge.net/DTD/sodipodi-0.dtd"
   xmlns="http://www.w3.org/2000/svg"
   xmlns:svg="http://www.w3.org/2000/svg">
  <sodipodi:namedview
     id="namedview1"
     pagecolor="#ffffff"
     bordercolor="#000000"
     borderopacity="0.25"
     inkscape:showpageshadow="2"
     inkscape:pageopacity="0.0"
     inkscape:pagecheckerboard="0"
     inkscape:deskcolor="#d1d1d1"
     inkscape:document-units="px"
     inkscape:zoom="9.6083333"
     inkscape:cx="1.0928014"
     inkscape:cy="53.963573"
     inkscape:window-width="2256"
     inkscape:window-height="1427"
     inkscape:window-x="0"
     inkscape:window-y="0"
     inkscape:window-maximized="1"
     inkscape:current-layer="svg1" />
  <defs
     id="defs1" />
  <path
     d="M 17.636459,16.011273 C 17.219876,16.926087 16.678715,17.210073 16.298339,17.287752 15.854945,17.378796 15.401588,17.229513 15.014489,16.914666 15.013112,17.116923 14.949527,17.291721 14.818226,17.457204 14.792144,17.490009 14.751968,17.509449 14.709038,17.509449 H 9.0056171 C 8.920559,17.509449 8.8569335,17.433714 8.8683221,17.351337 8.9828399,16.538988 9.3887066,16.131801 10.105322,15.975066 9.7242167,15.673746 9.3960614,15.262509 8.8904189,15.160044 8.5327958,16.080933 8.0592779,16.750641 7.4304263,17.461902 7.4029592,17.492763 7.3634555,17.510097 7.3219268,17.508801 7.3152281,17.508801 6.6053198,17.484663 5.5894259,17.508801 5.5231193,17.509449 5.4668648,17.465952 5.4514586,17.402286 5.3114906,16.807584 5.684528,16.289913 6.3013349,16.389705 6.8223917,15.926871 6.9851288,15.449376 6.8706029,14.718027 5.2712984,13.770408 4.2532499,12.096057 3.8421101,9.7393382 2.9493686,9.8505107 2.2856732,9.441971 2.0137643,8.9664686 1.7666415,8.5331672 1.8208872,8.0368964 2.1591026,7.6350554 2.8556111,6.1784081 3.8494892,5.3633537 5.2465691,5.1195437 4.9987739,3.7948211 5.3034959,2.7801098 6.1527161,2.1051141 6.1788386,2.0850212 6.2096429,2.0743066 6.2438006,2.0756471 6.6409436,2.0890413 6.928931,2.229684 7.1003837,2.4915505 7.3883711,2.3120594 7.7533652,2.1975481 8.214806,2.1787909 8.2583435,2.1767813 8.3012006,2.1962035 8.3286596,2.2303604 8.8175675,2.8404791 8.9381117,3.4432244 8.7070511,4.1283062 8.5181834,4.6895309 8.0955902,5.3110439 7.2986231,6.1951346 7.5397115,6.7168637 7.6642895,7.1816417 7.6723328,7.5781205 8.2168229,7.7957837 8.7030335,7.7890931 9.3640583,7.7783768 9.6038183,7.7750315 9.8757434,7.7710058 10.178465,7.7777045 14.43866,7.8714701 17.305655,10.623396 16.765223,14.854674 16.995587,14.775618 17.232026,14.811096 17.424239,14.963781 17.72159,15.199572 17.809313,15.630816 17.63654,16.011273 Z"
     fill-rule="evenodd"
     id="path1"
     style="fill:#000000;stroke-width:0.171449" />
</svg>
