<?xml version="1.0" encoding="UTF-8" standalone="no"?>
<!-- Created with Inkscape (http://www.inkscape.org/) -->

<svg
   width="60"
   height="60"
   viewBox="0 0 60 60"
   version="1.1"
   id="svg1"
   inkscape:version="1.4.2 (ebf0e940d0, 2025-05-08)"
   sodipodi:docname="rabbitpelt.svg"
   xmlns:inkscape="http://www.inkscape.org/namespaces/inkscape"
   xmlns:sodipodi="http://sodipodi.sourceforge.net/DTD/sodipodi-0.dtd"
   xmlns="http://www.w3.org/2000/svg"
   xmlns:svg="http://www.w3.org/2000/svg">
  <sodipodi:namedview
     id="namedview1"
     pagecolor="#ffffff"
     bordercolor="#000000"
     borderopacity="0.25"
     inkscape:showpageshadow="2"
     inkscape:pageopacity="0.0"
     inkscape:pagecheckerboard="0"
     inkscape:deskcolor="#d1d1d1"
     inkscape:document-units="px"
     inkscape:zoom="9.6083335"
     inkscape:cx="9.8872505"
     inkscape:cy="48.135299"
     inkscape:window-width="2256"
     inkscape:window-height="1427"
     inkscape:window-x="0"
     inkscape:window-y="0"
     inkscape:window-maximized="1"
     inkscape:current-layer="svg1" />
  <defs
     id="defs1" />
  <path
     d="M 17.945164,38.986939 C 17.408327,39.373585 16.891997,39.803364 16.391791,40.261994 L 19.73881,43.609012 C 20.197439,43.108806 20.627217,42.592476 21.013865,42.05564 Z"
     id="path1"
     style="fill:#000000;stroke-width:0.774597" />
  <path
     d="M 13.761071,43.288129 16.712676,46.239732 C 17.261956,45.866946 17.79766,45.45937 18.312715,45.011348 L 14.989456,41.688088 C 14.541434,42.203144 14.133857,42.738847 13.761071,43.288129 Z"
     id="path2"
     style="fill:#000000;stroke-width:0.774597" />
  <path
     d="M 21.217369,36.60229 C 20.678131,37.013404 20.129131,37.418999 19.592722,37.80607 L 22.19431,40.407658 C 22.581378,39.871247 22.986976,39.32225 23.398087,38.783009 Z"
     id="path3"
     style="fill:#000000;stroke-width:0.774597" />
  <path
     d="M 12.590526,45.303808 12.356191,45.802033 C 12.013243,46.53106 12.033183,47.217096 12.408235,47.592145 12.783283,47.967193 13.469318,47.987135 14.198345,47.644188 L 14.696574,47.409853 C 14.775345,47.37266 14.851994,47.324858 14.930199,47.285686 L 12.714269,45.069754 C 12.67552,45.148384 12.62772,45.225034 12.590526,45.303808 Z"
     id="path4"
     style="fill:#000000;stroke-width:0.774597" />
  <path
     id="path5"
     style="fill:#000000;stroke-width:0.774597"
     d="M 54.013644,5.9867326 52.794161,6.399673 C 54.066955,4.4904862 50.295549,7.1034812 50.795756,5.3763043 50.91257,4.9726863 49.617311,5.9810453 49.746145,5.5696513 49.119507,3.8865972 45.068542,5.9870176 46.043502,3.7121143 46.057091,3.6803822 46.0608,3.6546272 46.058694,3.6389182 46.05847,3.6378738 46.057613,3.6329827 46.057313,3.6320119 L 46.055932,3.6306309 C 46.055485,3.629812 46.053688,3.6258544 46.05317,3.625107 46.052579,3.6244352 46.049689,3.6215651 46.049026,3.6209647 H 46.046264 C 46.045463,3.6205093 46.041612,3.6185888 46.04074,3.6182021 L 46.039359,3.6168211 C 45.83924,3.5678561 44.300466,4.8820048 44.083767,4.9095007 44.082215,4.9095572 44.079626,4.9096138 44.078243,4.9095021 L 44.076862,4.9081211 44.074099,4.908119 44.072718,4.906738 44.071337,4.905357 44.069956,4.903976 44.068574,4.9025944 44.067193,4.9012134 44.065812,4.8998324 V 4.8970697 4.8943092 4.8915472 C 44.065742,4.8767411 44.075266,4.8524301 44.096195,4.8169687 L 42.985818,5.0130819 C 43.650911,2.3507004 40.193884,4.6601812 41.930682,2.8061352 41.768082,2.9731899 41.600876,3.1456716 41.542602,3.2107876 39.70461,2.7736776 36.06303,3.2059171 34.358286,2.3793856 33.833755,2.1249679 32.96797,2.4245386 32.301876,3.0906353 L 25.359247,10.033263 C 24.629515,10.762996 24.352778,11.695746 24.715671,12.204304 L 26.022161,14.035599 C 26.930227,15.305704 26.238226,17.639565 24.414597,19.463194 L 18.67626,25.201531 C 17.441652,26.436139 15.886024,27.204221 14.615918,27.204082 L 8.8306259,27.202699 C 8.4349289,27.202982 7.9509069,27.441603 7.5669489,27.82556 7.4085569,27.983953 7.2753749,28.156995 7.1705839,28.3407 L 2.4708077,36.564958 C 2.1390335,37.145351 2.2781864,37.702251 2.7539265,37.767868 L 8.7574319,38.550936 C 10.872953,38.826564 12.709398,39.621995 14.115975,40.851795 14.39231,40.539817 14.677306,40.232459 14.974998,39.934767 15.841205,39.068559 16.771909,38.287269 17.74404,37.610427 19.283835,36.538172 22.072052,34.533662 23.438183,33.167531 L 24.287538,34.01689 C 23.873883,34.430547 23.358028,34.884841 22.794604,35.35238 L 24.647998,37.205774 C 25.115537,36.642353 25.569834,36.126498 25.98349,35.712839 L 26.832848,36.562196 C 25.466718,37.928326 23.462916,40.715837 22.389953,42.25634 21.713109,43.228469 20.931112,44.159882 20.065613,45.02538 19.768629,45.322365 19.46194,45.606687 19.149967,45.883025 20.380472,47.288895 21.174769,49.125621 21.450826,51.241568 L 22.233891,57.245071 C 22.295975,57.724346 22.857538,57.85968 23.436802,57.52819 L 31.661061,52.828415 C 31.842929,52.724612 32.016427,52.591822 32.174815,52.43343 32.558774,52.049471 32.798105,51.564741 32.797681,51.169753 L 32.796299,45.384458 C 32.796156,44.114353 33.564239,42.558727 34.798848,41.324118 L 40.537185,35.585781 C 42.360813,33.762154 44.695101,33.070576 45.964782,33.97822 L 47.794695,35.283328 C 48.303672,35.646638 49.237384,35.370865 49.967116,34.641132 L 56.909745,27.698502 C 57.575838,27.032408 57.874988,26.1662 57.620995,25.642092 56.793293,23.937553 55.817303,21.70434 55.376758,19.87061 55.444737,19.80954 55.627688,19.631806 55.800747,19.463194 54.059033,21.091343 57.654669,16.348251 54.985916,17.015942 L 55.182028,15.905563 C 54.614646,16.24045 55.45292,15.123994 54.87267,15.372471 52.575845,16.356623 56.073426,10.886853 54.421061,10.258376 54.012634,10.38594 55.023343,9.0904609 54.622695,9.2060019 52.896223,9.7055029 55.508513,5.9348062 53.599324,7.2075977 Z M 46.945339,12.392127 47.793317,13.240104 30.358714,30.674706 29.510738,29.826728 Z M 34.327903,4.4592723 35.175879,5.3072482 33.761666,6.7214611 32.91369,5.8734852 Z M 54.69313,24.824499 55.541107,25.672475 54.126893,27.086689 53.278916,26.238714 Z M 38.094076,8.7088189 38.943433,9.5581759 35.845698,12.655911 34.99634,11.806555 Z M 50.348291,20.990655 51.196267,21.838631 48.098532,24.936368 47.250556,24.088391 Z M 39.265221,13.097852 40.114578,13.947209 37.015461,17.046325 36.166105,16.196969 Z M 46.05317,19.885801 46.902528,20.735159 43.803411,23.834275 42.954054,22.984917 Z M 33.903917,8.2779269 34.75189,9.1259009 31.923464,11.954327 31.075489,11.106353 Z M 50.874479,25.248489 51.722454,26.096464 48.894027,28.924891 48.046051,28.076915 Z M 31.358605,14.217898 32.206582,15.065875 27.963941,19.308514 27.115965,18.460538 Z M 44.934504,27.793797 45.78248,28.641773 41.53984,32.884414 40.691864,32.036437 Z M 40.519231,25.588231 41.367207,26.436206 38.29571,29.507701 37.447736,28.659726 Z M 33.664989,18.764375 34.512965,19.612351 31.415229,22.710085 30.567254,21.862109 Z M 29.095037,23.268037 29.944394,24.117392 25.701753,28.360033 24.852395,27.510676 Z M 35.882985,30.055986 36.732344,30.905344 32.489702,35.147985 31.640345,34.298626 Z M 25.983489,22.984918 26.832847,23.834275 18.347567,32.319555 17.498208,31.470199 Z M 36.166105,33.167532 37.015461,34.016888 28.530179,42.50217 27.680822,41.652813 Z M 21.459112,24.117395 22.307087,24.965368 20.892875,26.379583 20.044899,25.531607 Z M 35.035008,37.693291 35.882985,38.541266 34.468773,39.955481 33.620797,39.107505 Z M 14.388044,31.188461 15.23602,32.036435 12.407592,34.864863 11.559616,34.01689 Z M 17.781328,34.581745 18.630684,35.431102 17.216472,36.845316 16.367115,35.995959 Z M 24.569278,41.369693 25.418634,42.219051 24.004422,43.633266 23.155063,42.783908 Z M 27.963942,44.764359 28.811918,45.612335 25.983489,48.440762 25.135515,47.592785 Z M 10.852511,30.481354 11.700485,31.329332 7.4578449,35.571971 6.6098691,34.723994 Z M 28.671047,48.299893 29.519024,49.147869 25.276382,53.390509 24.428406,52.542534 Z" />
</svg>
