<?xml version="1.0" encoding="UTF-8" standalone="no"?>
<!-- Created with Inkscape (http://www.inkscape.org/) -->

<svg
   width="804.06702"
   height="804.06702"
   viewBox="0 0 804.06701 804.06702"
   version="1.1"
   id="svg1"
   inkscape:version="1.4.2 (ebf0e940d0, 2025-05-08)"
   sodipodi:docname="rabbithat.svg"
   xmlns:inkscape="http://www.inkscape.org/namespaces/inkscape"
   xmlns:sodipodi="http://sodipodi.sourceforge.net/DTD/sodipodi-0.dtd"
   xmlns="http://www.w3.org/2000/svg"
   xmlns:svg="http://www.w3.org/2000/svg">
  <sodipodi:namedview
     id="namedview1"
     pagecolor="#ffffff"
     bordercolor="#000000"
     borderopacity="0.25"
     inkscape:showpageshadow="2"
     inkscape:pageopacity="0.0"
     inkscape:pagecheckerboard="0"
     inkscape:deskcolor="#d1d1d1"
     inkscape:document-units="px"
     inkscape:zoom="0.42463235"
     inkscape:cx="330.87446"
     inkscape:cy="879.58442"
     inkscape:window-width="2256"
     inkscape:window-height="1427"
     inkscape:window-x="0"
     inkscape:window-y="0"
     inkscape:window-maximized="1"
     inkscape:current-layer="svg1" />
  <defs
     id="defs1" />
  <path
     class="fil0"
     d="M 558.72538,259.99996 C 557.72538,254.99996 560.72538,249.99996 563.72538,245.99996 560.72538,242.99996 560.72538,239.99996 560.72538,237.99996 561.72538,232.99996 564.72538,229.99996 568.72538,227.99996 567.72538,223.99996 569.72538,220.99996 570.72538,219.99996 575.72538,212.99996 588.72538,213.99996 596.72538,215.99996 596.72538,214.99996 597.72538,212.99996 598.72538,211.99996 600.72538,208.99996 604.72538,205.99996 608.72538,204.99996 615.72538,203.99996 620.72538,206.99996 624.72538,209.99996 626.72538,206.99996 629.72538,204.99996 633.72538,203.99996 640.72538,202.99996 645.72538,206.99996 647.72538,208.99996 649.72538,209.99996 650.72538,210.99996 650.72538,211.99996 650.72538,210.99996 651.72538,210.99996 652.72538,209.99996 654.72538,208.99996 657.72538,206.99996 661.72538,206.99996 667.72538,206.99996 671.72538,208.99996 674.72538,212.99996 676.72538,210.99996 679.72538,209.99996 683.72538,209.99996 690.72538,207.99996 694.72538,209.99996 697.72538,211.99996 698.72538,212.99996 699.72538,213.99996 700.72538,213.99996 701.72538,214.99996 702.72538,214.99996 702.72538,214.99996 704.72538,213.99996 706.72538,213.99996 710.72538,213.99996 717.72538,213.99996 721.72538,216.99996 723.72538,220.99996 732.72538,220.99996 742.72538,222.99996 744.72538,229.99996 745.72538,232.99996 744.72538,234.99996 742.72538,236.99996 747.72538,240.99996 750.72538,244.99996 750.72538,249.99996 750.72538,251.99996 749.72538,253.99996 747.72538,256.99996 748.72538,258.99996 749.72538,260.99996 749.72538,263.99996 750.72538,269.99996 746.72538,272.99996 745.72538,273.99996 745.72538,273.99996 745.72538,273.99996 745.72538,273.99996 745.72538,274.99996 746.72538,276.99996 746.72538,278.99996 748.72538,282.99996 750.72538,287.99996 749.72538,293.99996 749.72538,295.99996 748.72538,296.99996 747.72538,297.99996 747.72538,297.99996 748.72538,297.99996 748.72538,298.99996 750.72538,301.99996 755.72538,309.99996 750.72538,316.99996 754.72538,321.99996 757.72538,328.99996 756.72538,334.99996 755.72538,336.99996 754.72538,338.99996 753.72538,340.99996 754.72538,343.99996 756.72538,347.99996 755.72538,350.99996 754.72538,355.99996 751.72538,357.99996 749.72538,359.99996 749.72538,359.99996 749.72538,360.99996 750.72538,360.99996 752.72538,363.99996 755.72538,367.99996 755.72538,370.99996 756.72538,376.99996 754.72538,380.99996 753.72538,382.99996 754.72538,384.99996 755.72538,387.99996 755.72538,390.99996 755.72538,393.99996 753.72538,396.99996 751.72538,398.99996 752.72538,401.99996 753.72538,403.99996 752.72538,406.99996 752.72538,407.99996 751.72538,409.99996 749.72538,411.99996 750.72538,412.99996 749.72538,414.99996 748.72538,415.99996 747.72538,417.99996 745.72538,418.99996 742.72538,418.99996 740.72538,418.99996 737.72538,418.99996 734.72538,419.99996 732.72538,420.99996 729.72538,420.99996 725.72538,421.99996 725.72538,421.99996 725.72538,421.99996 725.72538,421.99996 724.72538,421.99996 724.72538,421.99996 724.72538,421.99996 723.72538,424.99996 721.72538,426.99996 717.72538,427.99996 716.72538,428.99996 714.72538,428.99996 713.72538,427.99996 712.72538,428.99996 712.72538,428.99996 712.72538,428.99996 708.72538,430.99996 704.72538,430.99996 700.72538,428.99996 699.72538,429.99996 699.72538,429.99996 698.72538,430.99996 693.72538,433.99996 687.72538,431.99996 682.72538,428.99996 681.72538,429.99996 680.72538,431.99996 678.72538,431.99996 672.72538,435.99996 665.72538,432.99996 660.72538,431.99996 658.72538,430.99996 657.72538,430.99996 657.72538,430.99996 657.72538,430.99996 656.72538,431.99996 656.72538,431.99996 654.72538,432.99996 652.72538,434.99996 647.72538,436.99996 642.72538,437.99996 639.72538,435.99996 637.72538,434.99996 636.72538,434.99996 636.72538,433.99996 636.72538,433.99996 635.72538,433.99996 635.72538,433.99996 635.72538,433.99996 634.72538,434.99996 634.72538,434.99996 633.72538,434.99996 630.72538,436.99996 625.72538,438.99996 620.72538,438.99996 618.72538,438.99996 616.72538,438.99996 614.72538,436.99996 613.72538,436.99996 613.72538,435.99996 612.72538,434.99996 609.72538,435.99996 607.72538,435.99996 605.72538,435.99996 602.72538,435.99996 599.72538,435.99996 597.72538,435.99996 596.72538,434.99996 595.72538,434.99996 594.72538,434.99996 592.72538,434.99996 591.72538,434.99996 591.72538,434.99996 588.72538,434.99996 585.72538,434.99996 582.72538,431.99996 581.72538,430.99996 580.72538,428.99996 580.72538,427.99996 578.72538,426.99996 577.72538,426.99996 576.72538,425.99996 572.72538,420.99996 573.72538,414.99996 576.72538,407.99996 574.72538,407.99996 572.72538,406.99996 570.72538,404.99996 567.72538,398.99996 570.72538,392.99996 573.72538,387.99996 573.72538,386.99996 574.72538,384.99996 575.72538,383.99996 575.72538,383.99996 575.72538,382.99996 575.72538,382.99996 572.72538,381.99996 568.72538,379.99996 567.72538,372.99996 566.72538,367.99996 568.72538,363.99996 570.72538,361.99996 571.72538,360.99996 571.72538,360.99996 571.72538,359.99996 571.72538,358.99996 570.72538,357.99996 569.72538,356.99996 569.72538,356.99996 568.72538,355.99996 568.72538,355.99996 564.72538,351.99996 564.72538,348.99996 566.72538,342.99996 566.72538,341.99996 567.72538,339.99996 568.72538,338.99996 565.72538,336.99996 561.72538,334.99996 561.72538,327.99996 561.72538,323.99996 563.72538,319.99996 566.72538,314.99996 563.72538,313.99996 560.72538,310.99996 560.72538,305.99996 559.72538,300.99996 562.72538,296.99996 565.72538,292.99996 562.72538,291.99996 558.72538,288.99996 557.72538,281.99996 557.72538,275.99996 560.72538,271.99996 563.72538,267.99996 561.72538,265.99996 559.72538,262.99996 558.72538,259.99996 Z M 141.72538,128.99996 C 136.72538,128.99996 129.72538,128.99996 121.72538,130.99996 118.72538,131.99996 117.72538,133.99996 116.72538,134.99996 V 134.99996 C 115.72538,135.99996 115.72538,135.99996 114.72538,134.99996 113.72538,133.99996 111.72538,131.99996 108.72538,131.99996 H 106.72538 C 102.72538,131.99996 97.725381,130.99996 93.725381,134.99996 92.725381,135.99996 91.725381,137.99996 91.725381,139.99996 90.725381,139.99996 88.725381,139.99996 87.725381,138.99996 82.725381,138.99996 74.725381,137.99996 69.725381,143.99996 63.725381,139.99996 58.725381,138.99996 53.725381,140.99996 45.725381,144.99996 43.725381,155.99996 42.725381,165.99996 36.725381,165.99996 32.725381,167.99996 29.725381,170.99996 25.725381,174.99996 26.725381,180.99996 28.725381,186.99996 28.725381,190.99996 29.725381,194.99996 28.725381,197.99996 28.725381,198.99996 26.725381,200.99996 24.725381,201.99996 21.725381,205.99996 16.725381,210.99996 17.725381,217.99996 18.725381,221.99996 20.725381,224.99996 23.725381,226.99996 24.725381,227.99996 25.725381,228.99996 25.725381,229.99996 17.725381,235.99996 9.7253813,248.99996 13.725381,258.99996 14.725381,263.99996 17.725381,264.99996 19.725381,265.99996 20.725381,266.99996 20.725381,266.99996 20.725381,266.99996 20.725381,266.99996 21.725381,267.99996 21.725381,267.99996 20.725381,268.99996 19.725381,270.99996 18.725381,271.99996 15.725381,273.99996 12.725381,277.99996 12.725381,280.99996 9.7253813,290.99996 14.725381,294.99996 17.725381,297.99996 19.725381,299.99996 19.725381,299.99996 18.725381,303.99996 17.725381,306.99996 15.725381,309.99996 12.725381,313.99996 8.7253813,318.99996 4.7253813,324.99996 3.7253813,332.99996 V 336.99996 H 7.7253813 C 12.725381,338.99996 13.725381,339.99996 13.725381,339.99996 13.725381,340.99996 11.725381,344.99996 10.725381,347.99996 L 9.7253813,350.99996 C 5.7253813,358.99996 2.7253813,366.99996 6.7253813,371.99996 7.7253813,373.99996 8.7253813,374.99996 11.725381,375.99996 10.725381,378.99996 9.7253813,381.99996 8.7253813,384.99996 5.7253813,390.99996 2.7253813,398.99996 4.7253813,406.99996 V 410.99996 H 8.7253813 C 8.7253813,410.99996 9.7253813,410.99996 10.725381,411.99996 10.725381,411.99996 10.725381,411.99996 10.725381,411.99996 10.725381,412.99996 10.725381,413.99996 10.725381,415.99996 10.725381,421.99996 10.725381,427.99996 14.725381,431.99996 18.725381,434.99996 23.725381,436.99996 32.725381,436.99996 35.725381,436.99996 36.725381,436.99996 38.725381,435.99996 39.725381,435.99996 40.725381,435.99996 40.725381,435.99996 40.725381,435.99996 40.725381,436.99996 42.725381,438.99996 43.725381,440.99996 44.725381,443.99996 44.725381,445.99996 45.725381,450.99996 45.725381,455.99996 50.725381,459.99996 55.725381,463.99996 61.725381,462.99996 65.725381,462.99996 67.725381,462.99996 68.725381,461.99996 70.725381,461.99996 71.725381,462.99996 72.725381,462.99996 73.725381,462.99996 73.725381,464.99996 74.725381,466.99996 75.725381,469.99996 77.725381,472.99996 77.725381,473.99996 78.725381,474.99996 79.725381,478.99996 81.725381,479.99996 85.725381,478.99996 85.725381,478.99996 87.725381,478.99996 89.725381,478.99996 91.725381,478.99996 92.725381,480.99996 94.725381,482.99996 95.725381,483.99996 96.725381,484.99996 97.725381,485.99996 97.725381,492.99996 96.725381,500.99996 96.725381,507.99996 95.725381,513.99996 95.725381,519.99996 95.725381,523.99996 95.725381,534.99996 95.725381,546.99996 95.725381,559.99996 95.725381,602.99996 95.725381,652.99996 108.72538,687.99996 119.72538,716.99996 150.72538,728.99996 182.72538,732.99996 127.72538,680.99996 138.72538,525.99996 141.72538,489.99996 135.72538,487.99996 128.72538,483.99996 122.72538,479.99996 120.72538,482.99996 118.72538,482.99996 116.72538,483.99996 113.72538,483.99996 110.72538,482.99996 106.72538,480.99996 V 480.99996 C 106.72538,480.99996 106.72538,480.99996 106.72538,480.99996 V 480.99996 480.99996 H 105.72538 V 480.99996 C 104.72538,479.99996 103.72538,478.99996 101.72538,476.99996 99.725381,473.99996 95.725381,469.99996 90.725381,469.99996 88.725381,469.99996 87.725381,469.99996 85.725381,469.99996 85.725381,468.99996 84.725381,467.99996 84.725381,465.99996 82.725381,462.99996 82.725381,461.99996 82.725381,460.99996 81.725381,453.99996 77.725381,453.99996 71.725381,452.99996 68.725381,452.99996 66.725381,452.99996 64.725381,453.99996 60.725381,453.99996 58.725381,453.99996 56.725381,452.99996 54.725381,450.99996 54.725381,448.99996 53.725381,444.99996 53.725381,441.99996 52.725381,437.99996 50.725381,433.99996 45.725381,427.99996 43.725381,426.99996 37.725381,426.99996 36.725381,426.99996 34.725381,427.99996 32.725381,427.99996 25.725381,427.99996 22.725381,425.99996 21.725381,424.99996 19.725381,423.99996 19.725381,419.99996 19.725381,415.99996 19.725381,412.99996 19.725381,410.99996 19.725381,407.99996 V 402.99996 L 14.725381,403.99996 C 14.725381,403.99996 13.725381,402.99996 13.725381,402.99996 13.725381,402.99996 13.725381,402.99996 12.725381,402.99996 12.725381,397.99996 14.725381,392.99996 16.725381,387.99996 18.725381,382.99996 21.725381,376.99996 20.725381,370.99996 V 365.99996 L 15.725381,366.99996 C 14.725381,366.99996 14.725381,366.99996 13.725381,366.99996 13.725381,365.99996 14.725381,362.99996 17.725381,354.99996 L 19.725381,351.99996 C 21.725381,345.99996 24.725381,340.99996 21.725381,335.99996 20.725381,332.99996 17.725381,330.99996 13.725381,329.99996 14.725381,325.99996 17.725381,322.99996 19.725381,318.99996 22.725381,315.99996 25.725381,311.99996 27.725381,305.99996 30.725381,296.99996 25.725381,292.99996 22.725381,290.99996 20.725381,288.99996 19.725381,287.99996 20.725381,282.99996 21.725381,281.99996 23.725381,279.99996 24.725381,277.99996 27.725381,274.99996 29.725381,272.99996 30.725381,269.99996 30.725381,262.99996 26.725381,259.99996 24.725381,258.99996 22.725381,257.99996 22.725381,256.99996 21.725381,255.99996 19.725381,249.99996 27.725381,238.99996 33.725381,235.99996 L 36.725381,234.99996 35.725381,231.99996 C 35.725381,226.99996 32.725381,222.99996 29.725381,220.99996 28.725381,218.99996 26.725381,217.99996 26.725381,216.99996 26.725381,213.99996 27.725381,211.99996 31.725381,208.99996 33.725381,206.99996 36.725381,203.99996 37.725381,200.99996 39.725381,195.99996 38.725381,189.99996 37.725381,184.99996 36.725381,181.99996 35.725381,177.99996 36.725381,176.99996 36.725381,175.99996 38.725381,174.99996 46.725381,175.99996 H 50.725381 V 170.99996 C 51.725381,153.99996 55.725381,149.99996 57.725381,149.99996 59.725381,148.99996 63.725381,150.99996 68.725381,154.99996 L 74.725381,159.99996 76.725381,151.99996 C 77.725381,147.99996 78.725381,147.99996 86.725381,148.99996 89.725381,148.99996 93.725381,149.99996 96.725381,148.99996 L 101.72538,147.99996 100.72538,143.99996 C 100.72538,141.99996 100.72538,140.99996 100.72538,140.99996 101.72538,140.99996 103.72538,140.99996 105.72538,140.99996 H 107.72538 C 107.72538,140.99996 108.72538,141.99996 109.72538,141.99996 110.72538,142.99996 113.72538,144.99996 117.72538,144.99996 121.72538,143.99996 123.72538,141.99996 124.72538,139.99996 131.72538,137.99996 136.72538,137.99996 141.72538,137.99996 144.72538,137.99996 146.72538,137.99996 149.72538,137.99996 150.72538,137.99996 150.72538,138.99996 151.72538,138.99996 152.72538,137.99996 152.72538,137.99996 153.72538,136.99996 V 136.99996 136.99996 C 154.72538,136.99996 154.72538,136.99996 155.72538,135.99996 162.72538,132.99996 170.72538,139.99996 178.72538,145.99996 178.72538,145.99996 178.72538,145.99996 178.72538,145.99996 179.72538,143.99996 180.72538,141.99996 182.72538,140.99996 190.72538,136.99996 201.72538,143.99996 210.72538,150.99996 211.72538,147.99996 213.72538,144.99996 216.72538,143.99996 219.72538,141.99996 225.72538,139.99996 233.72538,143.99996 237.72538,145.99996 240.72538,149.99996 243.72538,152.99996 244.72538,153.99996 245.72538,154.99996 246.72538,155.99996 248.72538,150.99996 252.72538,145.99996 263.72538,147.99996 268.72538,149.99996 274.72538,152.99996 277.72538,157.99996 283.72538,152.99996 290.72538,147.99996 298.72538,148.99996 306.72538,149.99996 308.72538,153.99996 308.72538,157.99996 328.72538,152.99996 343.72538,150.99996 349.72538,158.99996 351.72538,159.99996 352.72538,162.99996 352.72538,165.99996 355.72538,164.99996 359.72538,164.99996 362.72538,163.99996 374.72538,160.99996 385.72538,158.99996 401.72538,165.99996 403.72538,166.99996 404.72538,167.99996 404.72538,169.99996 416.72538,165.99996 438.72538,160.99996 445.72538,168.99996 447.72538,170.99996 448.72538,172.99996 448.72538,175.99996 469.72538,174.99996 491.72538,175.99996 498.72538,185.99996 499.72538,187.99996 500.72538,189.99996 500.72538,192.99996 510.72538,194.99996 526.72538,199.99996 528.72538,209.99996 529.72538,212.99996 528.72538,216.99996 525.72538,219.99996 531.72538,223.99996 534.72538,229.99996 535.72538,235.99996 537.72538,245.99996 534.72538,248.99996 529.72538,252.99996 529.72538,252.99996 529.72538,253.99996 528.72538,253.99996 533.72538,258.99996 535.72538,263.99996 534.72538,268.99996 533.72538,274.99996 529.72538,277.99996 522.72538,282.99996 525.72538,285.99996 528.72538,289.99996 529.72538,294.99996 531.72538,305.99996 524.72538,309.99996 520.72538,311.99996 520.72538,312.99996 519.72538,312.99996 518.72538,312.99996 519.72538,314.99996 520.72538,315.99996 521.72538,317.99996 525.72538,325.99996 530.72538,335.99996 525.72538,341.99996 523.72538,343.99996 522.72538,344.99996 520.72538,345.99996 520.72538,345.99996 521.72538,346.99996 521.72538,346.99996 525.72538,353.99996 530.72538,361.99996 527.72538,368.99996 525.72538,372.99996 522.72538,374.99996 519.72538,375.99996 522.72538,382.99996 524.72538,388.99996 522.72538,392.99996 520.72538,398.99996 515.72538,400.99996 511.72538,401.99996 515.72538,406.99996 517.72538,414.99996 514.72538,419.99996 513.72538,421.99996 511.72538,424.99996 508.72538,425.99996 509.72538,429.99996 511.72538,434.99996 510.72538,440.99996 510.72538,442.99996 508.72538,444.99996 506.72538,445.99996 508.72538,449.99996 508.72538,451.99996 507.72538,453.99996 504.72538,459.99996 500.72538,460.99996 498.72538,460.99996 498.72538,460.99996 498.72538,460.99996 498.72538,460.99996 498.72538,460.99996 497.72538,460.99996 497.72538,460.99996 498.72538,469.99996 495.72538,479.99996 488.72538,484.99996 488.72538,484.99996 487.72538,484.99996 486.72538,485.99996 479.72538,550.99996 466.72538,718.99996 486.72538,753.99996 498.72538,775.99996 514.72538,794.99996 573.72538,798.99996 603.72538,792.99996 625.72538,781.99996 627.72538,780.99996 627.72538,780.99996 627.72538,780.99996 627.72538,780.99996 V 779.99996 C 626.72538,719.99996 625.72538,628.99996 652.72538,563.99996 685.72538,480.99996 767.72538,476.99996 791.72538,476.99996 817.72538,185.99996 788.72538,93.999961 651.72538,35.999961 527.72538,-18.000039 418.72538,-3.9095686e-5 346.72538,17.999961 235.72538,45.999961 165.72538,105.99996 145.72538,125.99996 145.72538,126.99996 145.72538,127.99996 145.72538,128.99996 144.72538,128.99996 143.72538,128.99996 141.72538,128.99996 Z M 475.72538,759.99996 C 452.72538,719.99996 469.72538,539.99996 473.72538,492.99996 468.72538,497.99996 460.72538,496.99996 453.72538,495.99996 452.72538,495.99996 451.72538,495.99996 450.72538,495.99996 448.72538,499.99996 445.72538,501.99996 443.72538,502.99996 441.72538,503.99996 438.72538,504.99996 435.72538,503.99996 434.72538,516.99996 431.72538,546.99996 428.72538,578.99996 430.72538,581.99996 431.72538,584.99996 430.72538,588.99996 428.72538,598.99996 426.72538,608.99996 425.72538,618.99996 424.72538,636.99996 423.72538,651.99996 423.72538,660.99996 423.72538,662.99996 422.72538,663.99996 421.72538,664.99996 419.72538,720.99996 429.72538,754.99996 433.72538,761.99996 461.72538,794.99996 498.72538,804.99996 531.72538,803.99996 502.72538,795.99996 487.72538,779.99996 475.72538,759.99996 Z M 414.72538,496.99996 C 413.72538,498.99996 412.72538,499.99996 411.72538,500.99996 401.72538,506.99996 382.72538,501.99996 370.72538,495.99996 369.72538,499.99996 367.72538,502.99996 365.72538,503.99996 361.72538,505.99996 357.72538,506.99996 353.72538,506.99996 342.72538,506.99996 330.72538,502.99996 318.72538,496.99996 317.72538,500.99996 315.72538,502.99996 313.72538,503.99996 303.72538,510.99996 285.72538,503.99996 265.72538,493.99996 265.72538,494.99996 263.72538,495.99996 262.72538,496.99996 254.72538,503.99996 238.72538,497.99996 218.72538,489.99996 217.72538,489.99996 215.72538,488.99996 214.72538,488.99996 214.72538,488.99996 214.72538,488.99996 214.72538,488.99996 214.72538,490.99996 213.72538,492.99996 212.72538,493.99996 211.72538,494.99996 210.72538,495.99996 208.72538,495.99996 200.72538,496.99996 181.72538,491.99996 172.72538,483.99996 170.72538,487.99996 167.72538,490.99996 164.72538,491.99996 162.72538,492.99996 159.72538,492.99996 156.72538,492.99996 155.72538,492.99996 154.72538,492.99996 153.72538,492.99996 149.72538,534.99996 138.72538,708.99996 207.72538,734.99996 236.72538,735.99996 260.72538,731.99996 261.72538,731.99996 262.72538,731.99996 263.72538,730.99996 264.72538,731.99996 318.72538,733.99996 329.72538,698.99996 338.72538,648.99996 339.72538,643.99996 340.72538,637.99996 341.72538,632.99996 353.72538,579.99996 395.72538,569.99996 417.72538,571.99996 419.72538,540.99996 422.72538,511.99996 423.72538,501.99996 420.72538,499.99996 417.72538,498.99996 414.72538,496.99996 Z M 789.72538,488.99996 C 766.72538,488.99996 693.72538,492.99996 663.72538,567.99996 637.72538,630.99996 638.72538,719.99996 639.72538,778.99996 651.72538,779.99996 668.72538,777.99996 675.72538,771.99996 681.72538,764.99996 685.72538,720.99996 684.72538,677.99996 683.72538,564.99996 724.72538,547.99996 767.72538,538.99996 775.72538,536.99996 783.72538,534.99996 786.72538,531.99996 800.72538,513.99996 792.72538,497.99996 791.72538,495.99996 790.72538,493.99996 789.72538,490.99996 789.72538,488.99996 Z"
     id="path1"
     style="fill:#000000;fill-rule:nonzero;image-rendering:optimizeQuality;shape-rendering:geometricPrecision;text-rendering:geometricPrecision" />
</svg>
