<?xml version="1.0" encoding="UTF-8" standalone="no"?>
<!-- Created with Inkscape (http://www.inkscape.org/) -->

<svg
   width="19.584999"
   height="19.584999"
   viewBox="0 0 19.584999 19.584999"
   version="1.1"
   id="svg1"
   inkscape:version="1.4.2 (ebf0e940d0, 2025-05-08)"
   sodipodi:docname="rabbit.svg"
   xmlns:inkscape="http://www.inkscape.org/namespaces/inkscape"
   xmlns:sodipodi="http://sodipodi.sourceforge.net/DTD/sodipodi-0.dtd"
   xmlns="http://www.w3.org/2000/svg"
   xmlns:svg="http://www.w3.org/2000/svg">
  <sodipodi:namedview
     id="namedview1"
     pagecolor="#ffffff"
     bordercolor="#000000"
     borderopacity="0.25"
     inkscape:showpageshadow="2"
     inkscape:pageopacity="0.0"
     inkscape:pagecheckerboard="0"
     inkscape:deskcolor="#d1d1d1"
     inkscape:document-units="px"
     inkscape:zoom="9.6083333"
     inkscape:cx="-12.905464"
     inkscape:cy="53.963573"
     inkscape:window-width="2256"
     inkscape:window-height="1427"
     inkscape:window-x="0"
     inkscape:window-y="0"
     inkscape:window-maximized="1"
     inkscape:current-layer="svg1" />
  <defs
     id="defs1" />
  <path
     d="M 19.4764 17.47 C 18.9621 18.5994 18.294 18.95 17.8244 19.0459 C 17.277 19.1583 16.7173 18.974 16.2394 18.5853 C 16.2377 18.835 16.1592 19.0508 15.9971 19.2551 C 15.9649 19.2956 15.9153 19.3196 15.8623 19.3196 L 8.82104 19.3196 C 8.71603 19.3196 8.63748 19.2261 8.65154 19.1244 C 8.79292 18.1215 9.29399 17.6188 10.1787 17.4253 C 9.7082 17.0533 9.30307 16.5456 8.67882 16.4191 C 8.23731 17.556 7.65272 18.3828 6.87636 19.2609 C 6.84245 19.299 6.79368 19.3204 6.74241 19.3188 C 6.73414 19.3188 5.85771 19.289 4.60352 19.3188 C 4.52166 19.3196 4.45221 19.2659 4.43319 19.1873 C 4.26039 18.4531 4.72093 17.814 5.48242 17.9372 C 6.1257 17.3658 6.32661 16.7763 6.18522 15.8734 C 4.21077 14.7035 2.95392 12.6364 2.44634 9.72687 C 1.34419 9.86412 0.524813 9.35975 0.189123 8.77271 C -0.115967 8.23777 -0.048997 7.62509 0.368553 7.12899 C 1.22844 5.33066 2.45545 4.32442 4.18024 4.02342 C 3.87432 2.38796 4.25052 1.13523 5.29894 0.301902 C 5.33119 0.277096 5.36922 0.263868 5.41139 0.265523 C 5.90169 0.282059 6.25723 0.455692 6.4689 0.778984 C 6.82444 0.55739 7.27505 0.416018 7.84473 0.392861 C 7.89848 0.39038 7.95139 0.414358 7.98529 0.456527 C 8.58888 1.20976 8.7377 1.95389 8.45244 2.79967 C 8.21927 3.49254 7.69755 4.25984 6.71364 5.35131 C 7.01128 5.99542 7.16508 6.56922 7.17501 7.0587 C 7.84722 7.32742 8.44748 7.31916 9.26356 7.30593 C 9.55956 7.3018 9.89527 7.29683 10.269 7.3051 C 15.5285 7.42086 19.068 10.8183 18.4008 16.0421 C 18.6852 15.9445 18.9771 15.9883 19.2144 16.1768 C 19.5815 16.4679 19.6898 17.0003 19.4765 17.47 Z"
     fill-rule="evenodd"
     id="path1"
     style="fill:#000000;stroke-width:0.211666" />
</svg>
