<?xml version="1.0" encoding="UTF-8" standalone="no"?>
<!-- Created with Inkscape (http://www.inkscape.org/) -->

<svg
   width="19.584999"
   height="19.584999"
   viewBox="0 0 19.584999 19.584999"
   version="1.1"
   id="svg1"
   inkscape:version="1.4.3 (0d15f75042, 2025-12-25)"
   sodipodi:docname="rabbit.svg"
   xmlns:inkscape="http://www.inkscape.org/namespaces/inkscape"
   xmlns:sodipodi="http://sodipodi.sourceforge.net/DTD/sodipodi-0.dtd"
   xmlns="http://www.w3.org/2000/svg"
   xmlns:svg="http://www.w3.org/2000/svg">
  <sodipodi:namedview
     id="namedview1"
     pagecolor="#ffffff"
     bordercolor="#000000"
     borderopacity="0.25"
     inkscape:showpageshadow="2"
     inkscape:pageopacity="0.0"
     inkscape:pagecheckerboard="0"
     inkscape:deskcolor="#d1d1d1"
     inkscape:document-units="px"
     inkscape:zoom="9.6083333"
     inkscape:cx="1.0928014"
     inkscape:cy="53.963573"
     inkscape:window-width="2256"
     inkscape:window-height="1427"
     inkscape:window-x="0"
     inkscape:window-y="0"
     inkscape:window-maximized="1"
     inkscape:current-layer="svg1" />
  <defs
     id="defs1" />
  <path
     d="M 1.9485383,16.011273 C 2.3651213,16.926087 2.9062823,17.210073 3.2866583,17.287752 3.7300523,17.378796 4.1834093,17.229513 4.5705083,16.914666 4.5718853,17.116923 4.6354703,17.291721 4.7667713,17.457204 4.7928533,17.490009 4.8330293,17.509449 4.8759593,17.509449 H 10.57938 C 10.664438,17.509449 10.728064,17.433714 10.716675,17.351337 10.602157,16.538988 10.196291,16.131801 9.4796753,15.975066 9.8607806,15.673746 10.188936,15.262509 10.694578,15.160044 11.052201,16.080933 11.525719,16.750641 12.154571,17.461902 12.182038,17.492763 12.221542,17.510097 12.26307,17.508801 12.269769,17.508801 12.979677,17.484663 13.995571,17.508801 14.061878,17.509449 14.118132,17.465952 14.133539,17.402286 14.273507,16.807584 13.900469,16.289913 13.283662,16.389705 12.762606,15.926871 12.599868,15.449376 12.714394,14.718027 14.313699,13.770408 15.331747,12.096057 15.742887,9.7393382 16.635629,9.8505107 17.299324,9.441971 17.571233,8.9664686 17.818356,8.5331672 17.76411,8.0368964 17.425895,7.6350554 16.729386,6.1784081 15.735508,5.3633537 14.338428,5.1195437 14.586223,3.7948211 14.281501,2.7801098 13.432281,2.1051141 13.406159,2.0850212 13.375354,2.0743066 13.341197,2.0756471 12.944054,2.0890413 12.656066,2.229684 12.484614,2.4915505 12.196626,2.3120594 11.831632,2.1975481 11.370191,2.1787909 11.326654,2.1767813 11.283797,2.1962035 11.256338,2.2303604 10.76743,2.8404791 10.646886,3.4432244 10.877946,4.1283062 11.066814,4.6895309 11.489407,5.3110439 12.286374,6.1951346 12.045286,6.7168637 11.920708,7.1816417 11.912664,7.5781205 11.368174,7.7957837 10.881964,7.7890931 10.220939,7.7783768 9.981179,7.7750315 9.7092539,7.7710058 9.4065323,7.7777045 5.1463373,7.8714701 2.2793423,10.623396 2.8197743,14.854674 2.5894103,14.775618 2.3529713,14.811096 2.1607583,14.963781 1.8634073,15.199572 1.7756843,15.630816 1.9484573,16.011273 Z"
     fill-rule="evenodd"
     id="path1"
     style="fill:#000000;stroke-width:0.171449" />
</svg>
