<?xml version="1.0" encoding="UTF-8" standalone="no"?>
<!-- Created with Inkscape (http://www.inkscape.org/) -->

<svg
   width="448.34698"
   height="448.34698"
   viewBox="0 0 448.34698 448.34698"
   version="1.1"
   id="svg1"
   inkscape:version="1.4.2 (ebf0e940d0, 2025-05-08)"
   sodipodi:docname="rabbithat.svg"
   xmlns:inkscape="http://www.inkscape.org/namespaces/inkscape"
   xmlns:sodipodi="http://sodipodi.sourceforge.net/DTD/sodipodi-0.dtd"
   xmlns="http://www.w3.org/2000/svg"
   xmlns:svg="http://www.w3.org/2000/svg">
  <sodipodi:namedview
     id="namedview1"
     pagecolor="#ffffff"
     bordercolor="#000000"
     borderopacity="0.25"
     inkscape:showpageshadow="2"
     inkscape:pageopacity="0.0"
     inkscape:pagecheckerboard="0"
     inkscape:deskcolor="#d1d1d1"
     inkscape:document-units="px"
     inkscape:zoom="1.6985294"
     inkscape:cx="296.13853"
     inkscape:cy="329.99134"
     inkscape:window-width="2256"
     inkscape:window-height="1427"
     inkscape:window-x="0"
     inkscape:window-y="0"
     inkscape:window-maximized="1"
     inkscape:current-layer="svg1" />
  <defs
     id="defs1" />
  <path
     d="M 139.957 344.012 C 136.407 344.012 133.537 346.282 133.537 349.072 C 133.537 351.302 135.397 353.182 137.947 353.852 L 138.307 353.852 C 138.614 353.904 138.918 353.974 139.217 354.062 C 139.457 354.062 139.707 354.122 139.967 354.122 C 143.497 354.122 146.377 351.852 146.377 349.062 C 146.377 346.272 143.497 344.012 139.957 344.012 Z"
     id="path1"
     style="fill:#000000" />
  <path
     d="M 161.467 199.742 L 175.757 202.122 L 181.917 203.122 C 197.417 205.692 211.027 207.982 220.917 209.692 C 230.807 211.402 237.917 210.692 241.677 207.692 C 244.267 205.602 245.987 202.132 246.787 197.362 C 246.907 196.672 246.997 195.962 247.087 195.232 L 247.087 195.232 C 247.147 194.592 247.207 193.942 247.247 193.232 C 247.287 192.522 247.307 191.852 247.317 191.122 C 247.507 182.532 245.797 172.262 244.147 162.322 C 243.147 156.472 242.147 150.412 241.587 144.842 C 239.727 127.262 236.687 109.212 227.117 96.3125 C 221.307 88.4625 213.387 83.0025 203.047 79.7225 C 202.047 79.4225 201.047 79.1225 200.047 78.8525 C 199.267 78.6425 198.467 78.4425 197.647 78.2625 C 160.967 69.9125 150.647 67.8225 93.297 56.2625 L 85.357 54.6525 C 78.9644 53.3277 72.4779 52.5052 65.957 52.1925 C 31.257 50.7825 28.857 70.7625 28.707 73.0525 C 28.6758 73.4829 28.5849 73.907 28.437 74.3125 C 28.217 74.9425 5.92697 137.862 0.43697 157.722 C -3.56303 172.052 21.167 176.932 23.047 177.282 L 33.347 178.922 L 57.417 182.812 C 84.367 187.162 123.787 193.542 158.877 199.312 Z"
     id="path2"
     style="fill:#000000" />
  <path
     d="M 381.957 18.8425 C 344.237 6.62247 289.617 0.17247 224.027 0.17247 C 126.387 0.17247 89.157 29.1725 77.587 41.7625 C 78.777 41.9125 79.997 42.1125 81.227 42.3025 L 83.107 42.5825 C 84.997 42.8925 86.937 43.2425 88.907 43.6425 L 96.907 45.2325 C 153.097 56.5425 164.797 58.8925 201.707 67.3025 C 203.187 67.6425 204.617 68.0225 206.027 68.4325 L 206.917 68.6925 C 208.287 69.1025 209.627 69.5325 210.917 69.9925 L 211.547 70.2225 C 212.737 70.6525 213.917 71.1225 215.067 71.6025 L 215.697 71.8725 C 216.937 72.4225 218.137 72.9925 219.317 73.5925 L 220.067 73.9725 C 221.247 74.6025 222.407 75.2425 223.507 75.9125 L 223.577 75.9125 C 224.697 76.6125 225.787 77.3425 226.857 78.0925 L 227.527 78.5825 C 228.527 79.3425 229.527 80.1025 230.527 80.9225 L 230.977 81.3025 C 231.857 82.0625 232.707 82.8225 233.527 83.6325 C 233.627 83.7325 233.747 83.8325 233.867 83.9325 L 234.967 82.9325 L 235.967 82.0025 L 238.067 80.1325 L 238.817 79.4825 C 239.817 78.6325 240.817 77.7725 241.817 76.9125 L 242.637 76.2225 C 243.397 75.5558 244.17 74.9158 244.957 74.3025 L 246.177 73.3025 C 246.867 72.7325 247.567 72.1725 248.277 71.6125 L 249.637 70.6125 C 250.357 70.0525 251.067 69.5025 251.797 68.9625 C 252.257 68.6125 252.717 68.2525 253.197 67.9025 L 255.537 66.1825 C 255.987 65.8725 256.417 65.5425 256.877 65.1825 C 257.877 64.4525 258.877 63.7325 259.977 63.0025 L 260.677 62.5125 C 261.957 61.6325 263.267 60.7625 264.597 59.8925 C 265.017 59.6225 265.427 59.3725 265.837 59.1025 C 266.777 58.4925 267.727 57.8925 268.687 57.3025 C 269.207 56.9725 269.747 56.6625 270.277 56.3025 C 271.157 55.7625 272.037 55.2325 272.947 54.7125 L 274.647 53.7125 C 275.557 53.1925 276.467 52.7125 277.387 52.1625 L 279.087 51.2225 C 280.087 50.6725 281.087 50.1425 282.147 49.6025 L 283.637 48.8225 C 285.177 48.0425 286.737 47.2725 288.307 46.5325 C 321.307 30.8625 354.857 26.4625 388.097 33.4325 C 389.617 33.7625 391.097 34.0925 392.617 34.4325 L 393.737 34.7125 C 395.217 35.0725 396.737 35.4525 398.137 35.8625 L 398.207 35.8625 C 399.637 36.2625 401.037 36.6925 402.437 37.1325 L 403.507 37.4725 C 404.907 37.9425 406.307 38.4025 407.677 38.8925 L 407.807 38.9525 C 409.147 39.4325 410.477 39.9525 411.807 40.4525 L 412.807 40.8625 C 414.147 41.4125 415.457 41.9725 416.807 42.5525 L 416.987 42.6325 C 418.237 43.1925 419.477 43.7725 420.697 44.3625 L 421.697 44.8525 C 422.967 45.4825 424.217 46.1225 425.437 46.7825 L 425.647 46.9025 C 426.827 47.5425 427.977 48.2025 429.117 48.9025 L 430.027 49.4425 C 431.217 50.1625 432.397 50.8825 433.557 51.6425 L 433.777 51.7925 C 434.557 52.3025 435.327 52.7925 436.087 53.3425 C 427.447 39.2925 409.357 27.7025 381.957 18.8425 Z"
     id="path3"
     style="fill:#000000" />
  <path
     d="M 432.037 66.1225 C 431.547 65.7225 431.037 65.3325 430.527 64.9425 C 430.017 64.5525 429.377 64.0825 428.797 63.6525 C 428.217 63.2225 427.797 62.9125 427.257 62.5425 C 426.717 62.1725 426.047 61.7125 425.437 61.3125 C 424.827 60.9125 424.437 60.6125 423.867 60.3125 C 423.297 60.0125 422.617 59.5225 421.987 59.1325 C 421.357 58.7425 420.917 58.4725 420.377 58.1325 C 419.837 57.7925 419.077 57.3925 418.377 57.0125 L 416.807 56.1225 C 416.137 55.7625 415.467 55.4225 414.807 55.1225 C 414.147 54.8225 413.707 54.5525 413.137 54.2725 C 412.567 53.9925 411.737 53.6125 411.037 53.2725 C 410.337 52.9325 409.917 52.7525 409.337 52.4925 C 408.757 52.2325 407.877 51.8725 407.147 51.5625 L 405.447 50.8525 C 404.687 50.5525 403.907 50.2725 403.147 49.9825 L 401.437 49.3425 L 398.957 48.4925 C 398.387 48.2925 397.837 48.0925 397.257 47.9225 C 396.407 47.6525 395.547 47.4025 394.677 47.1425 C 394.137 46.9825 393.607 46.8125 393.057 46.6625 C 392.057 46.3925 391.117 46.1425 390.137 45.8925 L 388.747 45.5325 C 387.297 45.1725 385.837 44.8425 384.347 44.5325 C 383.347 44.3225 382.347 44.1125 381.347 43.9225 L 380.197 43.7225 L 378.317 43.3925 L 376.977 43.1925 L 375.307 42.9325 L 373.887 42.7625 L 372.327 42.5525 L 370.877 42.4025 L 369.357 42.2525 L 367.887 42.1225 L 366.407 42.0025 L 364.957 41.9425 L 363.507 41.8625 L 361.957 41.8025 L 360.557 41.8025 L 359.047 41.8025 L 354.817 41.8025 L 353.307 41.8025 L 351.977 41.8025 C 351.47 41.8025 350.964 41.8258 350.457 41.8725 L 349.157 41.9425 L 347.637 42.0425 L 346.367 42.1425 L 344.847 42.2725 L 343.597 42.4025 L 342.087 42.5625 L 340.847 42.7125 L 339.337 42.9125 L 338.127 43.0825 L 336.607 43.3125 L 335.447 43.5025 L 333.907 43.7725 L 332.777 43.9825 L 331.237 44.2725 L 330.147 44.5025 L 328.597 44.8325 L 327.537 45.0625 L 325.977 45.4225 L 324.977 45.6825 C 324.437 45.8125 323.907 45.9425 323.387 46.0825 L 322.467 46.3225 C 321.917 46.4725 321.367 46.6125 320.817 46.7725 L 320.007 47.0025 C 319.427 47.1625 318.847 47.3325 318.277 47.5025 L 317.637 47.6925 L 315.747 48.2825 L 315.587 48.2825 C 312.427 49.2958 309.337 50.3958 306.317 51.5825 L 306.107 51.6625 L 304.257 52.4025 L 303.717 52.6125 L 302.037 53.3225 L 301.367 53.6025 L 299.787 54.3025 L 299.037 54.6325 L 297.527 55.3225 L 296.737 55.6925 L 295.277 56.3825 L 294.457 56.7825 L 293.057 57.4725 L 292.227 57.8925 L 290.857 58.5925 C 290.577 58.7325 290.287 58.8725 290.027 59.0225 L 288.667 59.7325 L 287.837 60.1725 L 286.527 60.8925 L 285.697 61.3425 L 284.397 62.0725 L 283.577 62.5425 L 282.297 63.2725 L 281.497 63.7525 L 280.247 64.4925 L 279.427 64.9825 L 278.207 65.7425 L 277.417 66.2325 L 276.197 67.0025 C 275.927 67.1625 275.677 67.3325 275.427 67.5025 L 274.217 68.2825 L 273.457 68.7725 L 272.277 69.5525 C 272.027 69.7225 271.767 69.8925 271.527 70.0625 C 271.127 70.3225 270.737 70.5825 270.347 70.8525 L 269.627 71.3525 C 269.237 71.6225 268.847 71.8725 268.467 72.1525 L 267.767 72.6425 L 266.607 73.4525 L 265.967 73.9325 C 265.577 74.2125 265.177 74.4925 264.807 74.7725 L 264.177 75.2425 L 263.017 76.1025 L 262.477 76.5125 C 262.057 76.8125 261.657 77.1325 261.257 77.4325 L 260.857 77.7425 L 259.547 78.7425 L 259.397 78.8625 C 257.397 80.4525 255.397 82.0525 253.507 83.6225 L 253.087 83.9725 L 252.087 84.8525 C 251.927 84.9925 251.757 85.1425 251.577 85.2825 L 250.657 86.0825 L 250.057 86.5925 L 249.207 87.3325 L 248.577 87.8825 L 247.757 88.6225 C 247.547 88.7925 247.337 88.9825 247.147 89.1725 L 246.357 89.8825 L 245.747 90.4525 L 244.987 91.1425 L 244.377 91.7125 L 243.647 92.4025 L 243.047 92.9625 L 242.327 93.6325 L 241.967 93.9825 C 242.247 94.4325 242.517 94.9025 242.787 95.3525 C 243.057 95.8025 243.247 96.0925 243.477 96.4825 C 243.837 97.1125 244.177 97.7625 244.477 98.4025 L 245.017 99.4025 C 245.497 100.332 245.937 101.292 246.377 102.242 L 246.597 102.752 C 246.997 103.652 247.387 104.552 247.747 105.472 C 247.907 105.852 248.047 106.252 248.197 106.652 C 248.447 107.302 248.707 107.952 248.947 108.652 L 249.397 110.022 C 249.607 110.632 249.817 111.242 250.007 111.872 C 250.157 112.352 250.307 112.872 250.437 113.312 L 250.977 115.142 C 251.107 115.632 251.227 116.142 251.367 116.622 C 251.507 117.102 251.677 117.842 251.847 118.462 C 252.017 119.082 252.087 119.462 252.187 119.962 C 252.287 120.462 252.467 121.192 252.607 121.822 C 252.747 122.452 252.827 122.822 252.937 123.332 L 253.297 125.222 C 253.397 125.722 253.487 126.222 253.577 126.732 C 253.667 127.242 253.817 128.012 253.917 128.652 C 253.987 129.142 254.077 129.652 254.157 130.132 C 254.277 130.802 254.367 131.472 254.467 132.132 C 254.537 132.602 254.617 133.072 254.677 133.542 C 254.777 134.252 254.867 134.962 254.957 135.672 L 255.137 136.972 C 255.237 137.752 255.327 138.532 255.417 139.312 L 255.547 140.402 C 255.677 141.532 255.797 142.672 255.917 143.812 C 256.487 149.102 257.427 154.762 258.417 160.752 L 259.047 164.532 C 259.047 164.872 259.147 165.192 259.207 165.532 L 259.657 168.362 C 259.727 168.792 259.787 169.222 259.847 169.652 C 259.977 170.502 260.097 171.342 260.237 172.172 C 260.297 172.662 260.357 173.172 260.427 173.612 L 260.737 175.962 L 260.917 177.482 C 260.987 178.222 261.077 178.982 261.157 179.712 C 261.217 180.232 261.257 180.712 261.307 181.272 L 261.487 183.412 L 261.577 184.982 C 261.577 185.672 261.647 186.342 261.667 186.982 C 261.687 187.622 261.667 187.982 261.667 188.552 L 261.667 189.842 L 296.357 189.842 C 296.487 189.422 296.607 189.002 296.747 188.582 L 297.107 187.492 C 297.177 187.222 297.287 186.952 297.377 186.682 L 297.527 186.272 C 297.807 185.442 298.097 184.662 298.387 183.882 C 298.432 183.739 298.485 183.599 298.547 183.462 C 298.607 183.332 298.647 183.202 298.707 183.082 C 298.767 182.962 298.887 182.592 299.007 182.342 C 300.097 179.682 301.477 176.692 303.077 173.542 L 303.747 172.242 C 303.997 171.802 304.197 171.432 304.387 171.052 C 304.877 170.122 305.387 169.272 305.837 168.422 L 305.927 168.262 L 306.627 167.042 L 307.027 166.332 C 307.042 166.285 307.066 166.241 307.097 166.202 C 307.197 166.012 307.317 165.832 307.407 165.652 C 307.497 165.472 307.507 165.462 307.567 165.382 L 308.567 163.732 C 308.667 163.542 308.837 163.282 308.997 163.012 L 309.367 162.402 C 309.877 161.552 310.367 160.742 310.907 159.922 C 312.157 157.922 313.437 156.002 314.697 154.152 C 315.147 153.462 315.697 152.752 316.147 152.032 L 316.237 151.902 C 320.368 145.911 324.814 140.142 329.557 134.622 L 329.767 134.382 C 329.957 134.152 330.157 133.912 330.367 133.692 C 330.757 133.272 331.097 132.882 331.437 132.482 C 331.777 132.082 332.267 131.572 332.647 131.182 C 333.857 129.872 335.057 128.642 336.147 127.602 C 338.147 125.662 340.337 123.252 342.597 120.692 C 351.327 110.852 362.217 98.6125 380.487 97.6125 C 382.235 97.508 383.989 97.508 385.737 97.6125 C 399.937 98.6125 415.527 106.372 433.287 121.392 C 434.687 122.579 436.044 123.762 437.357 124.942 L 437.477 125.042 C 439.827 113.812 441.817 97.6225 441.877 74.8925 L 441.117 74.1025 C 440.657 73.6325 440.197 73.1725 439.717 72.7025 C 439.237 72.2325 438.717 71.7025 438.207 71.2625 L 436.767 70.1225 C 436.227 69.6425 435.707 69.1825 435.177 68.7225 L 433.717 67.4625 C 433.157 67.0325 432.607 66.5925 432.037 66.1225 Z"
     id="path4"
     style="fill:#000000" />
  <path
     d="M 435.497 141.612 C 432.604 138.406 429.54 135.358 426.317 132.482 C 425.157 131.436 423.95 130.389 422.697 129.342 C 406.137 115.342 392.307 108.532 381.487 109.112 C 370.097 109.742 362.137 118.702 354.437 127.372 C 352.007 130.122 349.697 132.712 347.297 135.002 C 346.387 135.872 345.377 136.922 344.297 138.112 L 343.297 139.202 C 342.967 139.562 342.597 139.992 342.177 140.442 L 341.807 140.872 L 341.537 141.182 C 340.537 142.362 339.537 143.592 338.437 144.872 C 335.307 148.712 332.087 153.012 328.947 157.522 L 328.877 157.642 C 328.417 158.292 327.967 158.952 327.517 159.642 C 326.297 161.442 325.077 163.302 323.867 165.222 C 323.387 165.952 322.947 166.662 322.507 167.382 L 322.077 168.112 L 320.747 170.322 C 320.587 170.612 320.407 170.912 320.227 171.202 L 319.887 171.822 C 319.647 172.222 319.427 172.612 319.197 173.022 C 319.169 173.082 319.135 173.139 319.097 173.192 C 318.647 173.982 318.217 174.762 317.797 175.552 C 317.607 175.922 317.367 176.382 317.107 176.842 C 316.947 177.132 316.747 177.512 316.567 177.842 C 315.06 180.796 313.794 183.529 312.767 186.042 C 312.667 186.272 312.617 186.392 312.577 186.522 L 312.337 187.132 L 312.337 187.132 L 312.337 187.192 C 312.057 187.902 311.797 188.602 311.557 189.282 L 311.377 189.822 C 311.317 189.972 311.257 190.122 311.217 190.272 C 311.177 190.422 311.067 190.772 310.977 191.012 L 310.767 191.682 C 310.697 191.912 310.637 192.152 310.577 192.382 C 310.517 192.612 310.367 193.052 310.277 193.382 C 310.187 193.712 310.147 193.922 310.087 194.162 L 310.027 194.402 C 310.034 194.456 310.034 194.509 310.027 194.562 C 309.968 194.752 309.925 194.946 309.897 195.142 L 309.897 195.372 C 309.807 195.712 309.767 196.032 309.707 196.372 C 309.647 196.712 309.647 196.722 309.637 196.872 C 309.625 196.994 309.605 197.114 309.577 197.232 L 309.577 197.512 L 309.577 197.722 C 309.584 197.842 309.584 197.963 309.577 198.082 L 309.577 198.232 L 309.577 198.742 L 309.577 199.252 L 309.577 200.132 C 309.577 206.052 312.347 206.132 315.017 206.132 L 315.207 206.132 C 315.447 206.132 340.207 206.962 366.207 206.292 C 413.887 205.072 421.907 200.172 423.037 199.202 C 424.657 197.782 426.557 196.312 428.537 194.772 C 433.537 190.872 439.267 186.442 443.267 181.062 C 446.677 176.492 448.347 171.902 448.347 167.062 L 448.347 166.202 C 447.657 158.862 443.467 150.582 435.497 141.612 Z"
     id="path5"
     style="fill:#000000" />
  <path
     d="M 433.337 206.932 C 428.667 210.932 416.647 216.452 366.207 217.732 L 360.747 217.852 L 360.177 217.852 C 358.524 217.886 356.884 217.909 355.257 217.922 L 354.647 217.922 L 349.647 217.922 L 336.587 217.922 L 331.427 217.922 L 331.157 217.922 L 329.517 217.922 L 329.457 217.922 L 324.727 217.842 L 324.637 217.842 C 318.767 217.742 314.937 217.622 314.297 217.602 L 314.237 217.602 C 313.504 217.602 312.787 217.569 312.087 217.502 L 311.367 217.422 L 310.007 217.262 L 309.187 217.102 L 308.037 216.882 L 307.217 216.662 C 306.877 216.572 306.527 216.472 306.217 216.362 C 305.907 216.252 305.697 216.172 305.437 216.082 C 305.177 215.992 304.797 215.852 304.497 215.722 L 303.747 215.372 L 302.897 214.942 C 302.657 214.812 302.437 214.672 302.207 214.532 C 301.977 214.392 301.687 214.222 301.447 214.042 C 301.207 213.862 301.017 213.732 300.807 213.562 C 300.566 213.394 300.335 213.21 300.117 213.012 C 299.907 212.852 299.727 212.662 299.537 212.492 C 299.347 212.322 299.117 212.082 298.927 211.872 C 298.737 211.662 298.587 211.492 298.417 211.292 C 298.225 211.079 298.045 210.855 297.877 210.622 L 297.427 209.982 C 297.277 209.752 297.117 209.502 296.967 209.252 C 296.817 209.002 296.717 208.802 296.597 208.562 C 296.477 208.322 296.347 208.042 296.227 207.772 C 296.107 207.502 296.017 207.282 295.927 207.042 C 295.837 206.802 295.717 206.472 295.617 206.182 L 295.397 205.402 L 295.177 204.492 C 295.117 204.212 295.077 203.942 295.027 203.662 C 294.977 203.382 294.927 203.012 294.897 202.662 L 294.807 201.802 L 294.807 201.392 L 260.567 201.392 C 260.567 201.532 260.477 201.672 260.447 201.812 C 260.327 202.282 260.197 202.722 260.057 203.162 C 259.917 203.602 259.787 204.092 259.627 204.532 C 259.467 204.972 259.317 205.372 259.147 205.772 C 258.977 206.172 258.807 206.632 258.607 207.042 C 258.407 207.452 258.237 207.812 258.037 208.192 C 257.837 208.572 257.607 208.982 257.377 209.372 C 257.147 209.762 256.947 210.072 256.707 210.372 C 256.577 210.572 256.457 210.792 256.317 210.992 L 256.497 211.162 C 256.777 211.402 257.037 211.652 257.297 211.892 C 257.787 212.342 258.297 212.802 258.757 213.272 C 259.057 213.552 259.337 213.852 259.617 214.152 C 259.897 214.452 260.477 215.052 260.917 215.512 L 261.767 216.512 C 262.167 216.982 262.557 217.452 262.957 217.942 L 263.767 218.942 C 264.157 219.442 264.527 219.942 264.897 220.482 C 265.137 220.832 265.387 221.182 265.647 221.542 C 266.017 222.102 266.397 222.672 266.747 223.242 C 266.957 223.592 267.177 223.912 267.387 224.242 C 267.817 224.952 268.217 225.682 268.637 226.422 C 268.757 226.652 268.887 226.872 269.027 227.112 C 269.537 228.112 270.027 229.112 270.517 230.112 C 270.667 230.412 270.797 230.742 270.947 231.112 C 271.277 231.822 271.587 232.542 271.947 233.292 C 272.127 233.712 272.287 234.142 272.457 234.572 C 272.707 235.232 272.977 235.902 273.217 236.572 C 273.397 237.042 273.547 237.512 273.707 237.982 L 274.377 239.982 L 274.827 241.472 C 275.034 242.139 275.227 242.836 275.407 243.562 C 275.557 244.062 275.687 244.562 275.807 245.082 C 275.997 245.822 276.167 246.572 276.347 247.332 C 276.447 247.832 276.567 248.332 276.677 248.822 C 276.857 249.672 277.017 250.532 277.187 251.392 C 277.257 251.822 277.347 252.252 277.427 252.682 C 277.647 253.992 277.857 255.322 278.057 256.682 C 281.827 284.012 277.447 321.492 265.387 365.072 L 265.327 365.282 C 265.327 365.432 265.257 365.592 265.197 365.752 C 264.407 368.642 263.557 371.642 262.697 374.652 C 258.957 387.912 255.077 401.652 252.937 413.562 C 250.057 429.422 250.717 439.772 254.847 444.562 C 254.847 444.562 259.167 449.182 268.587 447.972 C 269.217 447.972 269.857 447.972 270.477 447.872 C 283.807 446.872 299.677 440.062 319.067 427.182 C 322.377 424.992 325.897 422.552 329.847 419.712 C 336.177 415.142 354.437 395.522 386.847 312.192 C 389.677 304.922 393.567 300.542 398.487 294.992 C 406.147 286.372 416.637 274.562 432.007 241.992 C 438.365 228.759 441.942 214.363 442.517 199.692 C 441.057 200.872 439.637 201.962 438.297 203.012 C 436.447 204.372 434.707 205.732 433.337 206.932 Z M 293.957 424.692 L 293.957 424.692 C 292.789 424.838 291.614 424.911 290.437 424.912 L 289.157 424.912 C 285.902 424.761 282.705 424.005 279.727 422.682 C 279.708 422.689 279.686 422.689 279.667 422.682 C 277.356 421.652 275.257 420.201 273.477 418.402 C 272.257 417.192 271.244 415.79 270.477 414.252 C 269.558 412.411 269.079 410.381 269.077 408.322 C 269.077 399.132 278.647 391.672 290.407 391.672 C 302.167 391.672 311.747 399.132 311.747 408.322 C 311.767 416.522 304.067 423.372 293.957 424.692 Z"
     id="path6"
     style="fill:#000000" />
  <path
     d="M 290.697 403.222 C 289.591 403.212 288.497 403.451 287.497 403.922 C 287.36 403.981 287.226 404.048 287.097 404.122 C 285.63 404.815 284.59 406.175 284.307 407.772 L 284.307 408.282 C 284.393 410.06 285.445 411.648 287.047 412.422 C 287.622 412.737 288.238 412.969 288.877 413.112 C 289.167 413.184 289.461 413.238 289.757 413.272 C 290.089 413.311 290.423 413.331 290.757 413.332 C 292.395 413.355 293.995 412.835 295.307 411.852 C 295.593 411.624 295.857 411.369 296.097 411.092 C 296.198 410.975 296.291 410.851 296.377 410.722 C 296.889 410.011 297.169 409.159 297.177 408.282 C 297.117 405.492 294.237 403.222 290.697 403.222 Z"
     id="path7"
     style="fill:#000000" />
  <path
     d="M 263.227 255.122 L 263.137 254.602 L 262.957 253.542 C 262.827 252.772 262.677 252.022 262.527 251.262 C 262.457 250.892 262.377 250.532 262.287 250.152 C 262.137 249.422 261.957 248.702 261.797 247.972 C 261.707 247.632 261.637 247.302 261.547 246.972 C 261.337 246.132 261.117 245.322 260.887 244.522 C 260.827 244.332 260.787 244.142 260.727 243.952 C 260.447 242.952 260.127 241.952 259.807 241.032 C 259.747 240.822 259.677 240.632 259.597 240.422 C 259.347 239.692 259.077 238.972 258.797 238.242 C 258.697 237.952 258.577 237.652 258.457 237.362 L 257.697 235.572 L 257.297 234.662 C 257.027 234.082 256.747 233.512 256.467 232.952 C 256.337 232.682 256.217 232.412 256.067 232.152 C 255.727 231.482 255.367 230.822 254.997 230.152 L 254.777 229.742 C 254.327 228.972 253.857 228.232 253.377 227.492 C 253.257 227.302 253.127 227.122 252.987 226.942 C 252.627 226.402 252.257 225.882 251.887 225.372 L 251.347 224.662 C 251.007 224.222 250.647 223.782 250.287 223.362 L 249.707 222.662 C 249.337 222.232 248.947 221.822 248.557 221.422 C 248.377 221.222 248.187 221.012 247.987 220.832 C 247.497 220.322 246.987 219.832 246.447 219.342 C 246.377 219.272 246.297 219.192 246.207 219.122 L 246.207 219.122 L 245.787 219.272 C 245.267 219.492 244.727 219.692 244.177 219.892 L 243.077 220.262 C 242.477 220.452 241.857 220.612 241.227 220.762 C 240.887 220.852 240.537 220.952 240.167 221.032 C 239.417 221.192 238.647 221.322 237.857 221.442 L 237.067 221.572 C 235.997 221.722 234.907 221.832 233.757 221.902 L 233.007 221.902 C 232.187 221.902 231.387 221.972 230.537 221.972 L 230.257 221.972 L 229.377 221.972 C 228.497 221.972 227.617 221.912 226.727 221.872 L 225.517 221.782 C 224.657 221.722 223.777 221.632 222.877 221.522 L 221.727 221.392 C 220.457 221.232 219.167 221.042 217.837 220.812 L 214.517 220.242 L 213.447 220.052 L 210.947 219.622 L 209.517 219.382 L 207.187 218.982 L 205.447 218.692 L 203.087 218.292 L 201.497 218.022 L 198.877 217.582 L 196.987 217.252 L 194.527 216.842 L 192.527 216.502 L 189.767 216.032 L 187.997 215.742 L 185.087 215.252 L 182.987 214.902 L 179.987 214.402 L 178.337 214.122 L 174.667 213.512 L 173.267 213.282 L 169.417 212.652 L 167.957 212.412 L 164.047 211.772 L 162.617 211.532 L 157.777 210.742 L 157.357 210.672 L 152.457 209.872 L 151.697 209.742 C 140.487 207.902 128.907 206.012 117.507 204.162 L 116.687 204.022 L 106.207 202.322 L 105.287 202.172 L 94.617 200.442 L 94.617 200.442 L 79.027 197.922 L 78.247 197.802 C 73.057 196.952 68.067 196.152 63.357 195.392 C 64.277 288.272 77.517 353.802 99.007 371.302 C 105.469 376.651 112.252 381.601 119.317 386.122 C 121.507 387.492 123.667 388.762 125.797 389.952 L 139.957 396.592 C 147.407 399.372 154.127 400.592 160.017 400.232 C 169.527 399.652 177.017 394.852 182.817 385.552 C 186.547 379.652 191.057 370.242 196.157 359.442 L 198.287 354.902 C 213.857 321.822 234.957 276.902 263.227 255.122 Z M 143.287 365.452 L 143.287 365.452 C 142.119 365.597 140.944 365.67 139.767 365.672 C 136.043 365.709 132.355 364.938 128.957 363.412 C 128.938 363.419 128.916 363.419 128.897 363.412 C 122.597 360.522 118.357 355.172 118.357 349.042 C 118.357 339.852 127.907 332.392 139.687 332.392 C 151.467 332.392 161.017 339.852 161.017 349.042 C 161.047 357.272 153.357 364.122 143.287 365.452 Z"
     id="path8"
     style="fill:#000000" />
</svg>
