<?xml version="1.0" encoding="UTF-8" standalone="no"?>
<!-- Created with Inkscape (http://www.inkscape.org/) -->

<svg
   width="45.397999"
   height="45.397999"
   viewBox="0 0 45.397999 45.397999"
   version="1.1"
   id="svg1"
   inkscape:version="1.4.2 (ebf0e940d0, 2025-05-08)"
   sodipodi:docname="radio.svg"
   xmlns:inkscape="http://www.inkscape.org/namespaces/inkscape"
   xmlns:sodipodi="http://sodipodi.sourceforge.net/DTD/sodipodi-0.dtd"
   xmlns="http://www.w3.org/2000/svg"
   xmlns:svg="http://www.w3.org/2000/svg">
  <sodipodi:namedview
     id="namedview1"
     pagecolor="#ffffff"
     bordercolor="#000000"
     borderopacity="0.25"
     inkscape:showpageshadow="2"
     inkscape:pageopacity="0.0"
     inkscape:pagecheckerboard="0"
     inkscape:deskcolor="#d1d1d1"
     inkscape:document-units="px"
     inkscape:zoom="9.6083333"
     inkscape:cx="14.050304"
     inkscape:cy="22.948829"
     inkscape:window-width="2256"
     inkscape:window-height="1427"
     inkscape:window-x="0"
     inkscape:window-y="0"
     inkscape:window-maximized="1"
     inkscape:current-layer="svg1" />
  <defs
     id="defs1" />
  <path
     d="M 29.566004,12.064977 H 18.997991 V 0.9999944 C 18.997991,0.4469744 18.550987,7.4049072e-6 17.998004,7.4049072e-6 17.444984,7.4049072e-6 16.997979,0.4469744 16.997979,0.9999944 V 12.334004 C 14.05898,13.163988 11.900001,15.860001 11.900001,19.065002 V 19.781979 H 10.397979 C 9.5329959,19.781979 8.8320069,20.483988 8.8320069,21.347988 V 23.734987 C 8.8320069,24.600007 9.5329959,25.300996 10.397979,25.300996 H 11.900001 V 28.44099 H 10.397979 C 9.5329959,28.44099 8.8320069,29.142999 8.8320069,30.006999 V 32.393998 C 8.8320069,33.25898 9.5329959,33.960007 10.397979,33.960007 H 11.900001 V 38.398987 C 11.900001,42.264007 15.035006,45.397991 18.899988,45.397991 H 29.566004 C 33.43299,45.397991 36.565992,42.264007 36.565992,38.398987 V 19.065002 C 36.565992,15.199982 33.43299,12.064977 29.566004,12.064977 Z M 30.469009,41.012001 H 17.998004 C 17.444984,41.012001 16.997979,40.563976 16.997979,40.011976 16.997979,39.459976 17.444984,39.011988 17.998004,39.011988 H 30.469009 C 31.021992,39.011988 31.468996,39.459976 31.468996,40.011976 31.468996,40.563976 31.021009,41.012001 30.469009,41.012001 Z M 30.469009,36.160977 H 17.998004 C 17.444984,36.160977 16.997979,35.71299 16.997979,35.16099 16.997979,34.60899 17.444984,34.161002 17.998004,34.161002 H 30.469009 C 31.021992,34.161002 31.468996,34.60899 31.468996,35.16099 31.468996,35.71299 31.021009,36.160977 30.469009,36.160977 Z M 30.469009,31.309009 H 17.998004 C 17.444984,31.309009 16.997979,30.860983 16.997979,30.308983 16.997979,29.756001 17.444984,29.308996 17.998004,29.308996 H 30.469009 C 31.021992,29.308996 31.468996,29.756001 31.468996,30.308983 31.468996,30.860983 31.021009,31.309009 30.469009,31.309009 Z M 32.813979,24.973991 H 15.651976 V 17.189979 H 32.813979 Z"
     id="path1"
     style="fill:#000000;stroke-width:0.999999" />
</svg>
