<?xml version="1.0" encoding="UTF-8" standalone="no"?>
<!-- Created with Inkscape (http://www.inkscape.org/) -->

<svg
   width="95"
   height="95"
   viewBox="0 0 95 95"
   version="1.1"
   id="svg1"
   inkscape:version="1.4.2 (ebf0e940d0, 2025-05-08)"
   sodipodi:docname="radio.svg"
   xmlns:inkscape="http://www.inkscape.org/namespaces/inkscape"
   xmlns:sodipodi="http://sodipodi.sourceforge.net/DTD/sodipodi-0.dtd"
   xmlns="http://www.w3.org/2000/svg"
   xmlns:svg="http://www.w3.org/2000/svg">
  <sodipodi:namedview
     id="namedview1"
     pagecolor="#ffffff"
     bordercolor="#000000"
     borderopacity="0.25"
     inkscape:showpageshadow="2"
     inkscape:pageopacity="0.0"
     inkscape:pagecheckerboard="0"
     inkscape:deskcolor="#d1d1d1"
     inkscape:document-units="px"
     inkscape:zoom="4.8041667"
     inkscape:cx="35.281873"
     inkscape:cy="73.998266"
     inkscape:window-width="2256"
     inkscape:window-height="1427"
     inkscape:window-x="0"
     inkscape:window-y="0"
     inkscape:window-maximized="1"
     inkscape:current-layer="svg1" />
  <defs
     id="defs1" />
  <path
     d="M 24.357092,26.934104 C 24.051428,26.617698 23.675939,26.449729 23.283849,26.449729 23.221838,26.449729 23.158849,26.453635 23.096349,26.462424 22.597326,26.530295 22.151037,26.863791 21.87174,27.377463 20.108556,30.621116 19.104162,34.378928 18.96549,38.244163 18.814611,42.361838 19.649084,46.42678 21.379553,50.000022 21.644201,50.546897 22.088537,50.914084 22.598791,51.006858 23.048498,51.089866 23.497717,50.944358 23.860998,50.600608 L 24.340002,50.14553 C 25.001623,49.5176 25.172521,48.413108 24.74674,47.518577 23.43131,44.758323 22.795568,41.621604 22.908361,38.448264 23.01676,35.479026 23.780432,32.589377 25.117346,30.090842 25.590002,29.206565 25.464514,28.0801 24.819006,27.412131 Z"
     id="path1"
     style="fill:#000000" />
  <path
     d="M 5.1955322,37.56478 C 5.4865472,29.502219 7.8993282,22.12728 11.780798,16.142173 12.469274,15.080527 12.363317,13.58834 11.509985,12.704185 L 10.885229,12.056907 C 9.9365592,11.073936 8.4732412,11.249595 7.7061522,12.428428 3.1867422,19.373191 0.36844415,27.936851 0.03433815,37.307151 -0.32595285,47.27468 2.1667232,56.607139 6.6770992,64.236655 7.4003662,65.460166 8.8584342,65.719138 9.8467772,64.780784 L 10.492345,64.167991 C 11.373754,63.331199 11.539465,61.852988 10.896642,60.760215 7.0269522,54.182639 4.8846192,46.143821 5.1955322,37.56478 Z"
     id="path2"
     style="fill:#000000" />
  <path
     d="M 18.91593,22.854026 C 19.558508,21.810569 19.409826,20.368003 18.586767,19.513816 17.627111,18.517905 16.132665,18.701804 15.383581,19.918662 12.272924,24.972251 10.350866,31.100852 10.109167,37.779136 9.8542842,44.880759 11.54093,51.558921 14.616735,57.107871 15.318273,58.373313 16.810705,58.64553 17.812902,57.693931 18.661535,56.888083 18.874487,55.462485 18.279089,54.392051 15.661108,49.685447 14.226599,44.020041 14.44425,37.991599 14.649511,32.335715 16.278784,27.136374 18.91593,22.854026 Z"
     id="path3"
     style="fill:#000000" />
  <path
     d="M 73.12821,27.377463 C 72.848913,26.863791 72.402624,26.530295 71.9036,26.462424 71.8411,26.453635 71.778112,26.449729 71.7161,26.449729 71.324011,26.449729 70.948522,26.617698 70.642858,26.934104 L 70.180944,27.412131 C 69.535436,28.0801 69.409948,29.206565 69.882604,30.090842 71.219518,32.589377 71.98319,35.479026 72.091589,38.448264 72.204382,41.621604 71.56864,44.758323 70.25321,47.518577 69.827429,48.413108 69.998327,49.5176 70.659948,50.14553 L 71.138952,50.600608 C 71.502233,50.944358 71.951452,51.089866 72.401159,51.006858 72.911413,50.914084 73.355749,50.546897 73.620397,50.000022 75.350866,46.42678 76.185339,42.361838 76.03446,38.244163 75.895788,34.378928 74.891393,30.621116 73.12821,27.377463 Z"
     id="path4"
     style="fill:#000000" />
  <path
     d="M 94.96561,37.307151 C 94.63151,27.936851 91.81321,19.373191 87.2938,12.428428 86.52671,11.249595 85.06339,11.073936 84.11472,12.056907 L 83.48997,12.704185 C 82.636633,13.58834 82.530676,15.080527 83.21915,16.142173 87.10062,22.12728 89.5134,29.502219 89.80442,37.56478 90.11533,46.143821 87.973,54.182639 84.10331,60.760215 83.46049,61.852988 83.6262,63.331199 84.5076,64.167991 L 85.15317,64.780784 C 86.14152,65.719138 87.59958,65.460166 88.32285,64.236655 92.83323,56.607139 95.3259,47.27468 94.96561,37.307151 Z"
     id="path5"
     style="fill:#000000" />
  <path
     d="M 84.89078,37.779136 C 84.64908,31.100852 82.727026,24.972251 79.616369,19.918662 78.867285,18.701804 77.372839,18.517905 76.413183,19.513816 75.590124,20.368003 75.441442,21.810569 76.08402,22.854026 78.721166,27.136375 80.350439,32.335715 80.5557,37.991599 80.773351,44.020042 79.338842,49.685447 76.720861,54.392051 76.125463,55.462485 76.338415,56.888084 77.187048,57.693931 78.189245,58.64553 79.681677,58.373313 80.383215,57.107871 83.45902,51.558921 85.14567,44.880759 84.89078,37.779136 Z"
     id="path6"
     style="fill:#000000" />
  <path
     d="M 65.334509,79.712607 H 54.076452 C 52.074743,79.712607 50.452001,77.733664 50.452001,75.292624 V 62.425071 H 55.043005 C 60.756506,62.425071 65.388159,57.793418 65.388159,52.079917 V 50.81655 H 60.352941 C 59.020727,50.81655 57.940832,49.736655 57.940832,48.404441 57.940832,47.072288 59.020727,45.992332 60.352941,45.992332 H 65.388159 V 40.795249 H 60.352941 C 59.020727,40.795249 57.940832,39.715293 57.940832,38.383079 57.940832,37.050925 59.020727,35.97103 60.352941,35.97103 H 65.388159 V 30.773887 H 60.352941 C 59.020727,30.773887 57.940832,29.693992 57.940832,28.361777 57.940832,27.029624 59.020727,25.949668 60.352941,25.949668 H 65.379186 C 65.28391,20.318625 60.696813,15.781272 55.043005,15.781272 H 39.956945 C 34.303137,15.781272 29.716039,20.318625 29.620764,25.949668 H 34.64707 C 35.979223,25.949668 37.059118,27.029624 37.059118,28.361777 37.059118,29.693992 35.979223,30.773887 34.64707,30.773887 H 29.611791 V 35.97103 H 34.64707 C 35.979223,35.97103 37.059118,37.050925 37.059118,38.383079 37.059118,39.715293 35.979223,40.795249 34.64707,40.795249 H 29.611791 V 45.992332 H 34.64707 C 35.979223,45.992332 37.059118,47.072288 37.059118,48.404441 37.059118,49.736655 35.979223,50.81655 34.64707,50.81655 H 29.611791 V 52.079917 C 29.611791,57.793418 34.243444,62.425071 39.956945,62.425071 H 44.547949 V 75.292625 C 44.547949,77.733665 42.925207,79.712607 40.923498,79.712607 H 29.665441 C 27.528967,79.712607 25.797094,81.444602 25.797094,83.580955 H 69.202856 C 69.202856,81.444602 67.470983,79.712607 65.334509,79.712607 Z"
     id="path7"
     style="fill:#000000" />
</svg>
