<?xml version="1.0" encoding="UTF-8" standalone="no"?>
<!-- Created with Inkscape (http://www.inkscape.org/) -->

<svg
   width="79.426003"
   height="79.426003"
   viewBox="0 0 79.426003 79.426003"
   version="1.1"
   id="svg1"
   inkscape:version="1.4.2 (ebf0e940d0, 2025-05-08)"
   sodipodi:docname="range.svg"
   xmlns:inkscape="http://www.inkscape.org/namespaces/inkscape"
   xmlns:sodipodi="http://sodipodi.sourceforge.net/DTD/sodipodi-0.dtd"
   xmlns="http://www.w3.org/2000/svg"
   xmlns:svg="http://www.w3.org/2000/svg">
  <sodipodi:namedview
     id="namedview1"
     pagecolor="#ffffff"
     bordercolor="#000000"
     borderopacity="0.25"
     inkscape:showpageshadow="2"
     inkscape:pageopacity="0.0"
     inkscape:pagecheckerboard="0"
     inkscape:deskcolor="#d1d1d1"
     inkscape:document-units="px"
     inkscape:zoom="9.6083333"
     inkscape:cx="38.091934"
     inkscape:cy="40.017346"
     inkscape:window-width="2256"
     inkscape:window-height="1427"
     inkscape:window-x="0"
     inkscape:window-y="0"
     inkscape:window-maximized="1"
     inkscape:current-layer="svg1" />
  <defs
     id="defs1" />
  <path
     d="M 1.8721823,25.220705 V 68.50977 H 77.551855 V 25.220705 H 69.778425 L 64.499105,30.205078 64.497177,30.207032 V 30.208986 C 64.496233,30.209658 64.492302,30.212202 64.491319,30.21289 H 64.489354 L 64.487388,30.214844 C 64.441392,30.257843 64.391955,30.296077 64.338966,30.330078 64.331974,30.335078 64.323546,30.338752 64.315533,30.343752 64.263527,30.37575 64.209404,30.402781 64.153429,30.425783 64.145417,30.42878 64.139937,30.430594 64.131924,30.433595 64.074929,30.454594 64.015212,30.472377 63.954211,30.484377 L 63.936636,30.486327 C 63.875634,30.497329 63.813121,30.503906 63.749133,30.503906 H 40.014758 39.409278 15.674903 C 15.610916,30.503906 15.548402,30.496328 15.487401,30.486327 L 15.469826,30.484377 C 15.408824,30.472377 15.349108,30.454594 15.292075,30.433595 15.2841,30.430594 15.278619,30.42878 15.270607,30.425783 15.213612,30.402781 15.159489,30.37575 15.108503,30.343752 15.10049,30.338752 15.093045,30.335078 15.08507,30.330078 15.032043,30.296077 14.983627,30.256846 14.93661,30.214844 H 14.934682 L 14.932717,30.21289 14.930752,30.21094 C 14.930752,30.21094 14.928824,30.208986 14.928824,30.208986 14.928824,30.208986 14.926859,30.207032 14.926859,30.207032 L 14.924893,30.205078 9.6456123,25.220705 Z"
     style="fill:#000000;stroke-width:3.77953"
     id="path23" />
  <path
     d="M 12.827256,70.693354 16.10849,73.792982 H 39.409278 40.014758 63.315546 L 66.596781,70.693354 Z"
     style="fill:#000000;stroke-width:3.77953"
     id="path22" />
  <path
     d="M 21.852654,11.439455 C 20.525624,11.439455 19.44638,12.518703 19.44638,13.845702 19.44638,15.172702 20.525624,16.251954 21.852654,16.251954 23.179646,16.251954 24.25889,15.172702 24.25889,13.845702 24.25889,12.519704 23.179646,11.439455 21.852654,11.439455 Z"
     style="fill:#000000;stroke-width:3.77953"
     id="path21" />
  <path
     d="M 9.7764593,11.439455 C 8.4494673,11.439455 7.3702233,12.518703 7.3702233,13.845702 7.3702233,15.172702 8.4494673,16.251954 9.7764593,16.251954 11.103451,16.251954 12.182733,15.172702 12.182733,13.845702 12.182733,12.519704 11.103451,11.439455 9.7764593,11.439455 Z"
     style="fill:#000000;stroke-width:3.77953"
     id="path20" />
  <path
     d="M 1.8741093,70.693354 V 76.744151 C 1.8741093,78.222135 3.0777753,79.425763 4.5557593,79.425763 H 74.87217 C 76.350154,79.425763 77.55382,78.222135 77.55382,76.744151 V 70.693354 H 69.78039 L 64.499105,75.679685 64.497177,75.68165 C 64.496308,75.682292 64.492188,75.684938 64.491319,75.685543 L 64.489354,75.687508 C 64.443357,75.730519 64.392976,75.76873 64.338966,75.802746 64.331974,75.807735 64.324491,75.812422 64.317499,75.81639 64.265492,75.848403 64.211407,75.876447 64.153429,75.898444 64.146437,75.90143 64.138954,75.903244 64.131924,75.906267 64.074929,75.927244 64.01714,75.944063 63.956138,75.955061 L 63.938563,75.958992 C 63.877562,75.96999 63.814141,75.976567 63.749133,75.976567 H 40.014758 39.409278 15.674903 C 15.610916,75.976567 15.548402,75.96897 15.487401,75.958992 L 15.469826,75.955061 C 15.408824,75.94308 15.349108,75.927244 15.292075,75.906267 15.285082,75.903244 15.277599,75.90143 15.270607,75.898444 15.213612,75.875426 15.160509,75.84742 15.108503,75.81639 15.101511,75.812422 15.094027,75.806752 15.086997,75.802746 15.034008,75.76873 14.983627,75.730519 14.93661,75.687508 L 14.934682,75.685543 14.932717,75.683578 C 14.931848,75.682973 14.92769,75.680327 14.926859,75.679685 L 9.6475773,70.693354 Z"
     style="fill:#000000;stroke-width:3.77953"
     id="path19" />
  <path
     d="M 33.526481,0 C 32.880484,0 32.354601,0.525876 32.354601,1.171877 V 2.873046 H 34.557725 V 2.146484 H 34.559653 C 34.559653,1.543484 35.048459,1.054689 35.651483,1.054689 36.254469,1.054689 36.743275,1.543484 36.743275,2.146484 V 2.873046 H 38.618261 V 2.146484 C 38.618261,1.543484 39.107067,1.054689 39.710053,1.054689 40.313076,1.054689 40.80381,1.543484 40.80381,2.146484 V 2.873046 H 42.678796 V 2.146484 C 42.678796,1.543484 43.167602,1.054689 43.770626,1.054689 44.373612,1.054689 44.862418,1.543484 44.862418,2.146484 V 2.873046 H 47.065543 V 1.171877 C 47.065543,0.525876 46.539659,0 45.893662,0 Z"
     style="fill:#000000;stroke-width:3.77953"
     id="path18" />
  <path
     d="M 56.503023,0 C 55.857026,0 55.331143,0.525876 55.331143,1.171877 V 2.873046 H 57.53234 V 2.146484 H 57.534267 C 57.534267,1.543484 58.023073,1.054689 58.626059,1.054689 59.229083,1.054689 59.719817,1.543484 59.719817,2.146484 V 2.873046 H 61.59484 V 2.146484 C 61.59484,1.543484 62.083609,1.054689 62.686633,1.054689 63.289618,1.054689 63.778425,1.543484 63.778425,2.146484 V 2.873046 H 65.655376 V 2.146484 C 65.655376,1.543484 66.144182,1.054689 66.747168,1.054689 67.350154,1.054689 67.83896,1.543484 67.83896,2.146484 V 2.873046 H 70.040157 V 1.171877 C 70.040157,0.525876 69.514274,0 68.868277,0 Z"
     style="fill:#000000;stroke-width:3.77953"
     id="path17" />
  <path
     d="M 10.551867,0 C 9.9058703,0 9.3799863,0.525876 9.3799863,1.171877 V 2.873046 H 11.581145 V 2.146484 H 11.583111 C 11.583111,1.543484 12.071917,1.054689 12.674903,1.054689 13.277889,1.054689 13.766695,1.543484 13.766695,2.146484 V 2.873046 H 15.643646 V 2.146484 C 15.643646,1.543484 16.132453,1.054689 16.735438,1.054689 17.338462,1.054689 17.827231,1.543484 17.827231,2.146484 V 2.873046 H 19.702254 V 2.146484 C 19.702254,1.543484 20.19106,1.054689 20.794046,1.054689 21.397032,1.054689 21.887804,1.543484 21.887804,2.146484 V 2.873046 H 24.088963 V 1.171877 C 24.088963,0.525876 23.563079,0 22.917083,0 Z"
     style="fill:#000000;stroke-width:3.77953"
     id="path16" />
  <path
     d="M 12.827256,25.220705 16.10849,28.31836 H 39.409278 40.014758 63.315546 L 66.596781,25.220705 Z"
     style="fill:#000000;stroke-width:3.77953"
     id="path15" />
  <path
     d="M 57.571382,11.439455 C 56.24439,11.439455 55.165146,12.518703 55.165146,13.845702 55.165146,15.172702 56.24439,16.251954 57.571382,16.251954 58.898374,16.251954 59.977656,15.172702 59.977656,13.845702 59.977656,12.519704 58.897392,11.439455 57.571382,11.439455 Z"
     style="fill:#000000;stroke-width:3.77953"
     id="path14" />
  <path
     d="M 69.647578,11.439455 C 68.320548,11.439455 67.241303,12.518703 67.241303,13.845702 67.241303,15.172702 68.320548,16.251954 69.647578,16.251954 70.97457,16.251954 72.053814,15.172702 72.053814,13.845702 72.052793,12.519704 70.973549,11.439455 69.647578,11.439455 Z"
     style="fill:#000000;stroke-width:3.77953"
     id="path13" />
  <path
     d="M 32.356528,10.314452 V 17.376953 H 47.06747 V 10.314452 Z"
     style="fill:#000000;stroke-width:3.77953"
     id="path12" />
  <path
     d="M 4.5537943,5.058595 C 3.0758103,5.058595 1.8721823,6.260281 1.8721823,7.73828 V 23.035155 H 77.551855 V 7.73828 C 77.551855,6.259283 76.349209,5.058595 74.870204,5.058595 Z M 9.7784243,7.123045 C 10.38141,7.123045 10.870216,7.612845 10.870216,8.214845 V 9.386718 C 12.875218,9.878718 14.366317,11.689705 14.366317,13.845702 14.366317,16.001703 12.874235,17.812687 10.870216,18.304687 V 19.533203 C 10.870216,20.137202 10.380427,20.624999 9.7784243,20.624999 9.1744183,20.624999 8.6866323,20.137202 8.6866323,19.533203 V 18.304687 C 6.6806103,17.812687 5.1866383,16.001703 5.1866383,13.845702 5.1866383,11.689705 6.6806103,9.878718 8.6866323,9.386718 V 8.214845 C 8.6866323,7.611844 9.1744183,7.123045 9.7784243,7.123045 Z M 21.852654,7.123045 C 22.456623,7.123045 22.944446,7.612845 22.944446,8.214845 V 9.386718 C 24.950431,9.878718 26.442475,11.689705 26.442475,13.845702 26.442475,16.001703 24.950431,17.812687 22.944446,18.304687 V 19.533203 C 22.944446,20.137202 22.456623,20.624999 21.852654,20.624999 21.249631,20.624999 20.760824,20.137202 20.760824,19.533203 V 18.304687 C 18.75586,17.812687 17.262796,16.001703 17.262796,13.845702 17.262796,11.689705 18.756843,9.878718 20.760824,9.386718 V 8.214845 C 20.760824,7.611844 21.250651,7.123045 21.852654,7.123045 Z M 57.573347,7.123045 C 58.176333,7.123045 58.66514,7.612845 58.66514,8.214845 V 9.386718 C 60.670141,9.878718 62.16124,11.689705 62.16124,13.845702 62.16124,16.001703 60.669121,17.812687 58.66514,18.304687 V 19.533203 C 58.66514,20.137202 58.175351,20.624999 57.573347,20.624999 56.969341,20.624999 56.481555,20.137202 56.481555,19.533203 V 18.304687 C 54.475533,17.812687 52.981562,16.001703 52.981562,13.845702 52.981562,11.689705 54.475533,9.878718 56.481555,9.386718 V 8.214845 C 56.481555,7.611844 56.969341,7.123045 57.573347,7.123045 Z M 69.647578,7.123045 C 70.251546,7.123045 70.73937,7.612845 70.73937,8.214845 V 9.386718 C 72.745354,9.878718 74.237398,11.689705 74.237398,13.845702 74.237398,16.001703 72.746374,17.812687 70.73937,18.304687 V 19.533203 C 70.73937,20.137202 70.251546,20.624999 69.647578,20.624999 69.044554,20.624999 68.555748,20.137202 68.555748,19.533203 V 18.304687 C 66.550746,17.812687 65.057719,16.001703 65.057719,13.845702 65.057719,11.689705 66.551766,9.878718 68.555748,9.386718 V 8.214845 C 68.555748,7.611844 69.045574,7.123045 69.647578,7.123045 Z M 31.264736,8.13086 H 48.159262 C 48.762286,8.13086 49.251092,8.620656 49.251092,9.222656 V 18.468749 C 49.251092,19.07175 48.761265,19.560548 48.159262,19.560548 H 31.264736 C 30.66175,19.560548 30.172944,19.070752 30.172944,18.468749 V 9.222656 C 30.172944,8.619655 30.662733,8.13086 31.264736,8.13086 Z"
     style="fill:#000000;stroke-width:3.77953"
     id="path11" />
</svg>
