<?xml version="1.0" encoding="UTF-8" standalone="no"?>
<!-- Created with Inkscape (http://www.inkscape.org/) -->

<svg
   width="77.116997"
   height="77.116997"
   viewBox="0 0 77.116997 77.116997"
   version="1.1"
   id="svg1"
   inkscape:version="1.4.2 (ebf0e940d0, 2025-05-08)"
   sodipodi:docname="recipe.svg"
   xmlns:inkscape="http://www.inkscape.org/namespaces/inkscape"
   xmlns:sodipodi="http://sodipodi.sourceforge.net/DTD/sodipodi-0.dtd"
   xmlns="http://www.w3.org/2000/svg"
   xmlns:svg="http://www.w3.org/2000/svg">
  <sodipodi:namedview
     id="namedview1"
     pagecolor="#ffffff"
     bordercolor="#000000"
     borderopacity="0.25"
     inkscape:showpageshadow="2"
     inkscape:pageopacity="0.0"
     inkscape:pagecheckerboard="0"
     inkscape:deskcolor="#d1d1d1"
     inkscape:document-units="px"
     inkscape:zoom="2.4020833"
     inkscape:cx="174.64007"
     inkscape:cy="18.733738"
     inkscape:window-width="2256"
     inkscape:window-height="1427"
     inkscape:window-x="0"
     inkscape:window-y="0"
     inkscape:window-maximized="1"
     inkscape:current-layer="svg1" />
  <defs
     id="defs1" />
  <path
     fill-rule="evenodd"
     clip-rule="evenodd"
     d="M 12.7026 38.3863 C 11.8788 36.9218 11.0632 35.4395 10.2086 33.9791 C 10.0353 33.6826 9.74206 33.4412 9.46666 33.2217 C 8.40718 32.3785 8.38774 31.3328 9.47233 30.5228 C 10.6144 29.669 11.9744 29.3604 13.3417 29.1531 C 18.7209 28.3358 24.1034 28.3155 29.4672 29.2689 C 30.4359 29.4406 31.3942 29.7986 32.2884 30.2174 C 32.7687 30.4426 33.1997 30.9213 33.4791 31.3895 C 33.8274 31.9719 33.5342 32.7122 32.8173 33.1925 C 32.3313 33.5182 32.0373 33.9361 31.7959 34.4432 C 31.1374 35.8234 30.4562 37.1931 29.7879 38.5572 C 30.5728 40.0184 30.3509 41.0001 28.8087 41.6222 C 27.4884 42.1544 26.0555 42.4986 24.6404 42.689 C 21.4814 43.1142 18.3167 43.0162 15.1982 42.2799 C 14.5842 42.1349 13.9727 41.9122 13.4114 41.6238 C 11.8473 40.8211 11.631 39.7884 12.7026 38.3863 Z M 31.1682 31.8731 C 26.3414 30.3989 14.2044 30.4256 11.2252 31.899 C 16.0026 33.3221 26.1259 33.3205 31.1682 31.8731 Z"
     id="path3"
     style="fill:#000000;stroke-width:0.81" />
  <path
     fill-rule="evenodd"
     clip-rule="evenodd"
     d="M 77.0628 11.1939 L 77.0628 14.0739 C 77.0628 27.5149 77.0148 40.9589 77.1168 54.403 C 77.1318 56.471 76.6068 57.4159 74.5428 58.0389 C 66.9078 60.345 59.3518 62.904 51.7428 65.3039 C 50.5338 65.686 49.2158 65.9149 47.9498 65.917 C 35.6898 65.9389 23.4288 65.8959 11.1688 65.874 C 7.49184 65.869 3.81484 65.874 -0.000157 65.874 L -0.000157 11.1939 L 77.0628 11.1939 Z M 69.9098 18.215 L 7.02484 18.215 L 7.02484 58.768 L 47.0078 58.768 C 47.5818 55.5349 48.1328 52.422 48.6998 49.231 C 55.8638 48.716 62.8878 48.211 69.9088 47.7079 C 69.9098 37.712 69.9098 27.9929 69.9098 18.215 Z M 52.0308 57.8769 C 57.1708 56.216 62.0388 54.6419 66.9058 53.067 C 62.3568 52.962 57.8838 53.2459 53.4168 53.5929 C 53.1068 53.6169 52.6558 54.086 52.5758 54.4209 C 52.3298 55.4669 52.2288 56.547 52.0308 57.8769 Z"
     id="path8"
     style="fill:#000000" />
  <path
     fill-rule="evenodd"
     clip-rule="evenodd"
     d="M 21.1833 27.0203 C 20.8553 26.4987 20.5523 26.0168 20.2048 25.4627 C 21.0821 24.9386 20.8536 24.2526 20.4997 23.53 C 20.0388 22.5896 19.7399 21.6241 20.2591 20.5995 C 20.3069 20.5055 20.3579 20.4116 20.4171 20.3241 C 20.4511 20.2739 20.5037 20.239 20.5807 20.1669 C 20.9962 20.4618 21.4134 20.7485 21.8159 21.0539 C 21.9002 21.1171 21.9544 21.2467 21.9795 21.3552 C 22.1091 21.9198 22.2217 22.4892 22.3481 23.0554 C 22.3708 23.1575 22.4323 23.2498 22.4728 23.3478 C 23.1767 25.0188 22.8325 26.0435 21.1833 27.0203 Z"
     id="path22"
     style="fill:#000000;stroke-width:0.81" />
  <path
     fill-rule="evenodd"
     clip-rule="evenodd"
     d="M 24.9142 27.0171 C 24.5918 26.5019 24.2897 26.0208 23.943 25.4692 C 24.8397 24.9208 24.5643 24.2088 24.2095 23.4831 C 23.6733 22.3855 23.4294 21.2888 24.2816 20.1499 C 24.7263 20.4642 25.158 20.7582 25.5743 21.0733 C 25.6521 21.1316 25.6861 21.2701 25.7072 21.3787 C 25.8044 21.8639 25.8611 22.358 25.9874 22.8351 C 26.079 23.1793 26.279 23.4936 26.3932 23.8338 C 26.8444 25.1727 26.3932 26.1674 24.9142 27.0171 Z"
     id="path23"
     style="fill:#000000;stroke-width:0.81" />
  <path
     fill-rule="evenodd"
     clip-rule="evenodd"
     d="M 17.2767 26.9847 C 16.9656 26.4938 16.6514 25.9965 16.3403 25.5064 C 17.062 24.7369 17.0823 24.6073 16.6481 23.6313 C 16.2763 22.7946 15.8802 21.957 16.2067 21.0077 C 16.3071 20.7161 16.4659 20.4448 16.6157 20.1256 C 16.8919 20.3152 17.1042 20.452 17.3067 20.6027 C 17.7246 20.9129 18.1466 21.1049 18.077 21.8542 C 18.0227 22.4398 18.4933 23.0708 18.7185 23.6864 C 19.249 25.1355 18.7485 26.3059 17.2767 26.9847 Z"
     id="path25"
     style="fill:#000000;stroke-width:0.81" />
  <path
     fill-rule="evenodd"
     clip-rule="evenodd"
     d="M 36.7568 41.591 L 36.7568 38.4879 L 65.1468 38.4879 L 65.1468 41.591 L 36.7568 41.591 Z"
     id="path47"
     style="fill:#000000" />
  <path
     fill-rule="evenodd"
     clip-rule="evenodd"
     d="M 65.1988 24.4439 L 65.1988 27.5059 L 36.8318 27.5059 L 36.8318 24.4439 L 65.1988 24.4439 Z"
     id="path48"
     style="fill:#000000" />
  <path
     fill-rule="evenodd"
     clip-rule="evenodd"
     d="M 36.7278 34.2319 L 36.7278 31.3199 L 65.1988 31.3199 L 65.1988 34.2319 L 36.7278 34.2319 Z"
     id="path49"
     style="fill:#000000" />
  <path
     fill-rule="evenodd"
     clip-rule="evenodd"
     d="M 12.0958 55.433 L 12.0958 52.447 L 40.5428 52.447 L 40.5428 55.433 L 12.0958 55.433 Z"
     id="path50"
     style="fill:#000000" />
  <path
     fill-rule="evenodd"
     clip-rule="evenodd"
     d="M 12.1318 45.653 L 40.5038 45.653 L 40.5038 48.6359 L 12.1318 48.6359 L 12.1318 45.653 Z"
     id="path51"
     style="fill:#000000" />
</svg>
