<?xml version="1.0" encoding="UTF-8" standalone="no"?>
<!-- Created with Inkscape (http://www.inkscape.org/) -->

<svg
   width="95"
   height="95"
   viewBox="0 0 95 95"
   version="1.1"
   id="svg1"
   inkscape:version="1.4.2 (ebf0e940d0, 2025-05-08)"
   sodipodi:docname="reclaimed.svg"
   xmlns:inkscape="http://www.inkscape.org/namespaces/inkscape"
   xmlns:sodipodi="http://sodipodi.sourceforge.net/DTD/sodipodi-0.dtd"
   xmlns="http://www.w3.org/2000/svg"
   xmlns:svg="http://www.w3.org/2000/svg">
  <sodipodi:namedview
     id="namedview1"
     pagecolor="#ffffff"
     bordercolor="#000000"
     borderopacity="0.25"
     inkscape:showpageshadow="2"
     inkscape:pageopacity="0.0"
     inkscape:pagecheckerboard="0"
     inkscape:deskcolor="#d1d1d1"
     inkscape:document-units="px"
     inkscape:zoom="3.3970588"
     inkscape:cx="82.718615"
     inkscape:cy="151.16017"
     inkscape:window-width="2256"
     inkscape:window-height="1427"
     inkscape:window-x="0"
     inkscape:window-y="0"
     inkscape:window-maximized="1"
     inkscape:current-layer="svg1" />
  <defs
     id="defs1" />
  <path
     id="rect1"
     d="M 75.69922,0.75 75.59961,1.050781 C 72.19961,11.350781 64.200391,27.550781 54.400391,44.550781 50.600391,51.050781 46.700781,57.45039 42.800781,63.65039 42.400781,64.25039 41.400781,64.550781 40.800781,64.050781 40.500781,63.850781 40.299219,63.55039 40.199219,63.15039 40.099219,62.75039 40.200391,62.350781 40.400391,62.050781 44.300391,56.050781 48.200391,49.65039 51.900391,43.15039 61.300391,26.85039 68.8,11.651172 72.5,1.451172 L 72.69922,0.851562 H 62.800781 L 62.699219,1.050781 C 53.899219,13.150781 45.600391,26.051562 35.900391,42.851562 35.500391,43.551562 34.600391,43.751562 33.900391,43.351562 33.600391,43.151562 33.299219,42.851172 33.199219,42.451172 33.099219,42.051172 33.100781,41.651562 33.300781,41.351562 42.600781,25.351562 50.399609,13.050781 58.599609,1.550781 L 59.099609,0.851562 H 51.400391 L 1.199219,79.550781 H 9.5 L 9.599609,79.351562 C 13.599609,73.851562 18.800781,64.95039 23.300781,57.15039 23.700781,56.45039 24.600781,56.25039 25.300781,56.65039 25.600781,56.85039 25.9,57.150781 26,57.550781 26.1,57.950781 26.000781,58.35039 25.800781,58.65039 22.100781,65.15039 17.4,73.251172 13.5,78.951172 L 13.099609,79.550781 H 22.599609 L 22.699219,79.25 C 25.999219,70.65 31.100781,60.950781 37.800781,49.050781 38.200781,48.350781 39.100781,48.151172 39.800781,48.451172 40.100781,48.651172 40.4,48.951562 40.5,49.351562 40.6,49.751562 40.600391,50.151172 40.400391,50.451172 35.000391,60.251172 29.5,70.450781 26,79.050781 L 25.800781,79.550781 H 39.900391 L 40,79.351562 C 46.8,69.651562 56.800391,51.15 64.900391,36.25 L 66.5,33.351562 C 66.7,33.051562 67.00039,32.75039 67.40039,32.65039 67.80039,32.55039 68.2,32.55 68.5,32.75 68.8,32.95 69.09922,33.25039 69.19922,33.65039 69.29922,34.05039 69.29961,34.45 69.09961,34.75 L 67.59961,37.550781 C 60.099609,51.450781 50.700391,68.651172 43.900391,78.951172 L 43.400391,79.550781 H 53.400391 L 94.09961,0.851562 H 86.5 L 86.40039,1.050781 C 83.90039,6.550781 82.00078,10.251562 78.80078,16.351562 78.40078,17.051562 77.60078,17.351172 76.80078,16.951172 76.10078,16.551172 75.79922,15.751172 76.19922,14.951172 79.19922,9.251172 80.9,5.851562 83,1.351562 L 83.30078,0.75 Z M 95,5.451172 55.400391,82.050781 55.300781,90.951172 95,13.75 Z M 58.634766,16.916015 C 58.907227,16.920117 59.175391,17.00039 59.400391,17.15039 60.100391,17.65039 60.200781,18.55039 59.800781,19.15039 55.700781,25.15039 51.499219,31.75 47.199219,38.75 46.799219,39.45 45.899219,39.65 45.199219,39.25 44.499219,38.95 44.299219,38.051562 44.699219,37.351562 49.099219,30.051562 53.400391,23.450781 57.400391,17.550781 57.712891,17.113281 58.180664,16.909179 58.634766,16.916015 Z M 0,82.550781 V 94.25 H 52.400391 V 82.550781 Z"
     style="fill:#000000" />
</svg>
