<?xml version="1.0" encoding="UTF-8" standalone="no"?>
<!-- Created with Inkscape (http://www.inkscape.org/) -->

<svg
   width="79.654999"
   height="79.654999"
   viewBox="0 0 79.654999 79.654998"
   version="1.1"
   id="svg1"
   inkscape:version="1.4.2 (ebf0e940d0, 2025-05-08)"
   sodipodi:docname="revolver.svg"
   xmlns:inkscape="http://www.inkscape.org/namespaces/inkscape"
   xmlns:sodipodi="http://sodipodi.sourceforge.net/DTD/sodipodi-0.dtd"
   xmlns="http://www.w3.org/2000/svg"
   xmlns:svg="http://www.w3.org/2000/svg">
  <sodipodi:namedview
     id="namedview1"
     pagecolor="#ffffff"
     bordercolor="#000000"
     borderopacity="0.25"
     inkscape:showpageshadow="2"
     inkscape:pageopacity="0.0"
     inkscape:pagecheckerboard="0"
     inkscape:deskcolor="#d1d1d1"
     inkscape:document-units="px"
     inkscape:zoom="3.3970588"
     inkscape:cx="60.199134"
     inkscape:cy="105.2381"
     inkscape:window-width="2256"
     inkscape:window-height="1427"
     inkscape:window-x="0"
     inkscape:window-y="0"
     inkscape:window-maximized="1"
     inkscape:current-layer="svg1" />
  <defs
     id="defs1" />
  <path
     d="M 2.5894754,21.376076 V 18.442476 H 4.8199754 L 6.5738754,20.579176 C 6.6324694,20.665114 6.7301254,20.719796 6.8434054,20.719796 H 36.941405 C 36.835935,20.821356 36.730465,20.930736 36.621095,21.044016 36.519535,21.149486 36.414065,21.258856 36.296875,21.372136 H 2.5898754 Z M 34.499475,27.559676 C 34.413538,28.204206 34.292445,28.645576 34.054165,29.028476 33.792445,29.454256 33.370575,29.837066 32.679165,30.364376 31.210365,29.790156 25.222165,29.907346 20.144165,30.004996 17.901965,30.047965 15.843365,30.087027 14.452765,30.071403 13.901985,30.06359 12.374665,28.536203 11.487965,27.645603 L 11.398121,27.555759 H 34.500121 Z M 59.198475,40.137676 C 60.690675,39.868146 62.397675,39.079076 63.409375,34.879876 63.741405,33.504876 64.323435,31.911076 65.245275,30.774376 65.874185,29.997036 66.659375,29.438476 67.631975,29.321276 67.991345,30.036116 68.229635,31.266576 68.479635,32.536076 68.702295,33.676676 68.932755,34.844676 69.284325,35.762676 70.510925,38.965776 72.350725,41.262676 74.225725,43.606476 75.378025,45.047876 76.546025,46.504876 77.585125,48.196276 78.499185,49.684576 79.135925,51.403276 79.444525,53.297876 79.733585,55.083076 79.733585,57.028376 79.389837,59.086976 77.495337,60.547876 75.342937,61.133876 73.143737,61.204176 70.967937,61.278395 68.737537,60.848706 66.655437,60.270586 66.651531,56.430786 66.526527,52.258886 65.487437,48.590586 64.479637,45.043686 62.620237,41.977286 59.198337,40.137486 Z M 67.147675,28.746676 C 67.089082,28.715426 67.026585,28.695895 66.960175,28.691988 66.885957,28.684176 66.811735,28.652926 66.757055,28.598238 66.690648,28.531832 66.671117,28.652926 66.421115,28.629488 65.077315,28.516208 61.608615,28.219328 59.581315,26.813088 57.819615,25.590388 57.147715,24.418588 56.159415,22.691988 55.823475,22.102148 55.444575,21.445888 54.991415,20.727188 H 38.159415 C 37.729725,20.844378 37.436755,21.149058 37.093015,21.504528 36.971925,21.629528 36.846925,21.758438 36.710205,21.891248 36.659424,22.027968 36.596925,22.195938 36.518795,22.391248 36.116455,23.414648 35.378195,25.285748 35.198495,27.246748 V 27.266279 C 35.096935,28.211589 34.956305,28.820979 34.616465,29.371779 34.315685,29.860059 33.870375,30.274119 33.171165,30.817079 34.425065,32.652979 34.366465,34.707679 34.300065,37.024079 L 34.288347,37.422519 C 39.386047,37.496738 39.749247,39.305319 40.296147,42.004519 40.553957,43.274019 40.850837,44.754519 41.788347,46.336519 42.436787,47.430319 43.292247,48.301319 44.315647,48.906819 45.327347,49.508379 46.503147,49.856039 47.807847,49.910719 53.745347,50.164629 55.171147,45.559119 56.112547,42.527919 56.331297,41.824799 56.522707,41.203719 56.745357,40.723219 57.073477,40.008379 57.452387,39.590419 58.010957,39.641219 58.139867,39.621688 58.268767,39.606063 58.401577,39.590438 59.835177,39.410748 61.706277,39.180278 62.776577,34.731038 63.128137,33.277938 63.749237,31.590438 64.737477,30.367738 65.382007,29.574768 66.174977,28.973238 67.147677,28.746638 Z M 39.604675,26.000576 C 43.823475,25.891196 46.260875,25.906826 47.639875,26.121666 48.850775,26.309166 49.128175,26.633386 49.139875,27.164666 49.151594,27.688106 48.323465,27.984976 46.760975,28.172466 45.081275,28.371686 42.612575,28.402936 39.460175,28.406846 39.460175,28.301376 39.460175,28.199816 39.464082,28.094346 39.475801,27.356066 39.518769,26.645146 39.608612,26.000546 Z M 39.007015,25.606046 C 39.132015,24.856046 39.323425,24.199846 39.592955,23.695846 39.643736,23.582566 39.757015,23.504436 39.889835,23.504436 H 52.842835 C 52.995175,23.504436 53.131895,23.609906 53.163145,23.762246 53.581115,25.715346 53.795955,27.590346 53.788145,29.383346 53.780332,31.168546 53.553765,32.871646 53.092835,34.477146 53.065491,34.629486 52.928775,34.742766 52.772525,34.742766 H 39.749525 C 39.601085,34.742766 39.464365,34.641206 39.429215,34.488856 39.269055,33.805266 39.112805,32.852156 38.995625,31.785756 V 31.777944 C 38.890155,30.828724 38.819845,29.789644 38.808125,28.762344 V 28.727188 28.699844 C 38.804218,28.492814 38.804218,28.285784 38.808125,28.078754 38.819844,27.219374 38.878437,26.387354 38.999535,25.645154 38.999535,25.629529 39.003441,25.609998 39.007348,25.594373 Z M 49.394015,34.090446 C 49.663545,33.852166 49.800265,33.563106 49.792455,33.219356 49.77683,32.332636 49.390115,31.797456 47.741655,31.543556 46.323655,31.324806 43.858855,31.305276 39.620555,31.414646 39.546336,30.660736 39.491645,29.859946 39.472115,29.063046 42.640115,29.063046 45.124415,29.02789 46.843215,28.824766 48.792415,28.590386 49.815915,28.102106 49.800215,27.156766 49.78459,26.270046 49.397875,25.734866 47.749415,25.480966 46.339215,25.262216 43.905615,25.242686 39.726015,25.348156 39.819765,24.898936 39.944765,24.496596 40.101015,24.164556 H 52.589015 C 52.964015,25.984856 53.155425,27.727056 53.147605,29.387256 53.139793,31.035656 52.940575,32.606056 52.534325,34.090356 Z M 39.687015,32.067046 C 43.855015,31.957666 46.269015,31.977203 47.636215,32.188136 48.847115,32.375636 49.124515,32.699856 49.136215,33.231136 49.140121,33.406916 49.042465,33.555356 48.847155,33.688166 48.597155,33.856136 48.210435,33.988946 47.694855,34.094416 H 40.007355 C 39.890165,33.539726 39.776885,32.840516 39.683135,32.067116 Z M 51.027015,38.992846 C 50.956702,39.653006 50.636395,40.906946 50.343425,41.863946 50.085615,42.707696 49.745765,43.539746 49.323925,44.149146 48.945015,44.696026 48.507515,45.051486 48.023125,45.024146 47.941094,45.02024 47.855155,45.004615 47.773125,44.977272 47.585625,44.918678 47.624685,44.606182 47.761407,44.156962 47.855157,43.852272 47.999687,43.477272 48.155937,43.082762 48.659847,41.805462 49.195037,39.973362 48.734057,38.781962 49.429367,38.817118 50.331757,38.891342 51.023157,38.992902 Z M 51.292635,38.692066 C 51.952795,38.797536 52.612935,38.934256 53.273135,39.110036 53.757515,39.238946 54.042665,39.938156 54.046575,40.895236 54.050481,41.453826 53.964544,42.117936 53.780955,42.801436 53.593455,43.485026 53.304395,44.195936 52.894235,44.848336 51.796535,46.598336 49.855135,47.961636 46.773135,47.465536 44.609035,47.117876 43.241935,45.379636 42.562235,43.551436 42.277075,42.789716 42.113015,42.012336 42.062235,41.317036 42.007548,40.602196 42.073954,39.965436 42.245825,39.500636 42.433325,38.996726 42.749735,38.680326 43.191135,38.633446 44.905935,38.465476 46.593435,38.360006 48.265335,38.410786 49.273135,38.442036 50.277035,38.527976 51.277035,38.684226 51.284847,38.684226 51.288754,38.684226 51.296566,38.688132 Z M 57.034835,22.907066 C 57.241865,22.750816 57.484055,22.543786 57.734055,22.325036 58.280935,21.852376 58.890255,21.325036 59.194955,21.274236 59.202767,21.274236 59.183236,21.285955 59.187142,21.309393 59.476202,23.082793 60.542642,23.555493 61.210542,23.852393 61.343352,23.910986 61.456632,23.961763 61.519132,24.000833 61.671472,24.098489 61.870692,24.059427 61.972252,23.907083 61.987877,23.887552 61.99569,23.864114 62.007409,23.840677 62.249599,23.184427 62.667569,22.676577 63.179309,22.301577 63.839469,21.821107 64.663709,21.555487 65.495709,21.469547 66.331649,21.38361 67.171509,21.485172 67.859009,21.739077 68.382449,21.934387 68.812129,22.211737 69.066009,22.563297 69.398039,23.016417 69.476169,23.207827 69.405849,23.258607 69.241789,23.375797 68.737879,23.375797 68.151949,23.371887 67.062149,23.364074 65.730049,23.356262 65.019149,24.211727 64.929305,24.317197 64.921493,24.465637 64.983993,24.578917 65.312113,25.242977 65.483993,25.758617 65.464463,26.254717 65.444932,26.715657 65.261343,27.192217 64.878523,27.797717 63.327723,27.594597 61.269123,27.184437 59.941023,26.258617 58.487923,25.250817 57.819923,24.258617 57.026923,22.891417 Z M 61.046535,30.375866 C 60.905915,30.516486 60.819975,30.707896 60.819975,30.922746 60.819975,31.137596 60.905912,31.328996 61.046535,31.469626 61.187158,31.610256 61.378565,31.696186 61.593415,31.696186 61.804355,31.696186 61.999665,31.610248 62.140295,31.469626 62.280925,31.329004 62.366855,31.137596 62.366855,30.922746 62.366855,30.707896 62.280918,30.516496 62.140295,30.375866 61.999672,30.235236 61.808265,30.149306 61.593415,30.149306 61.378565,30.149306 61.187165,30.235244 61.046535,30.375866 Z M 61.593415,29.493056 C 61.198885,29.493056 60.843415,29.653216 60.585615,29.911026 60.327805,30.168836 60.167645,30.524306 60.167645,30.918826 60.167645,31.313356 60.327805,31.668826 60.585615,31.926626 60.843425,32.184436 61.198895,32.344596 61.593415,32.344596 61.987935,32.344596 62.343415,32.184436 62.601215,31.926626 62.859025,31.668816 63.019185,31.313346 63.019185,30.918826 63.019185,30.524296 62.859025,30.168826 62.601215,29.911026 62.343405,29.653216 61.987935,29.493056 61.593415,29.493056 Z M 64.597315,37.641456 C 64.456695,37.782076 64.370755,37.973486 64.370755,38.188336 64.370755,38.403186 64.456692,38.594586 64.597315,38.735216 64.737938,38.875846 64.929345,38.961776 65.144195,38.961776 65.355135,38.961776 65.550445,38.875839 65.691075,38.735216 65.831705,38.594593 65.917635,38.403186 65.917635,38.188336 65.917635,37.973486 65.831697,37.782086 65.691075,37.641456 65.550453,37.500826 65.359045,37.414896 65.144195,37.414896 64.929345,37.414896 64.737945,37.500833 64.597315,37.641456 Z M 65.140285,36.762546 C 64.745755,36.762546 64.390285,36.922706 64.132485,37.180516 63.874675,37.438326 63.714515,37.793796 63.714515,38.188316 63.714515,38.582836 63.874675,38.938316 64.132485,39.196116 64.390295,39.453926 64.745765,39.614086 65.140285,39.614086 65.534805,39.614086 65.890285,39.453926 66.148085,39.196116 66.405895,38.938306 66.566055,38.582836 66.566055,38.188316 66.566055,37.793796 66.405895,37.438316 66.148085,37.180516 65.890275,36.922706 65.534805,36.762546 65.140285,36.762546 Z M 71.737985,43.973446 C 71.046575,43.153136 70.304385,42.270346 69.511385,41.219546 69.468416,41.160952 69.405915,41.114076 69.331695,41.094546 68.421535,40.848456 67.651995,40.875796 66.980095,41.168765 66.312125,41.461735 65.765295,42.008605 65.300395,42.809365 65.233989,42.922645 65.241801,43.074985 65.331645,43.180455 66.757445,44.891355 67.628545,46.586655 68.206645,48.817155 68.788675,51.074955 69.073835,53.891355 69.316045,57.817155 69.323858,57.946065 69.409795,58.067155 69.542605,58.110125 70.464485,58.407005 71.694905,58.477315 73.007405,58.313245 74.222205,58.160905 75.515205,57.801525 76.702705,57.223445 76.819895,57.172664 76.901925,57.055475 76.901925,56.922665 76.901925,55.449965 76.753485,54.067165 76.472235,52.754665 76.190985,51.442165 75.776925,50.203865 75.241735,49.024165 74.374545,47.102265 73.163635,45.664765 71.741735,43.973365 Z M 69.058285,41.700046 C 68.343445,41.524266 67.749685,41.547706 67.245785,41.766452 66.765315,41.977392 66.355165,42.371922 65.987985,42.946152 67.390285,44.672752 68.261385,46.403152 68.843485,48.657052 69.429425,50.922652 69.718485,53.707852 69.960685,57.551552 70.769275,57.766392 71.812285,57.809362 72.929485,57.668742 74.015385,57.532022 75.171685,57.219522 76.245885,56.719522 76.234166,55.367922 76.089635,54.098422 75.831825,52.895322 75.562295,51.629722 75.159945,50.438322 74.644325,49.297622 73.812295,47.453822 72.628725,46.047622 71.242025,44.395322 70.554525,43.578912 69.816225,42.700022 69.058425,41.700022 Z M 0.77728539,22.032046 H 35.953285 L 35.90641,22.153136 C 35.51188,23.157036 34.80481,24.953936 34.57441,26.903136 H 0.77741039 C 0.26179039,26.086726 7.038564e-5,25.274236 7.038564e-5,24.469536 7.038564e-5,23.664836 0.25788039,22.852336 0.77741039,22.035936 Z"
     fill-rule="evenodd"
     id="path1"
     style="fill:#000000" />
</svg>
