<?xml version="1.0" encoding="UTF-8" standalone="no"?>
<!-- Created with Inkscape (http://www.inkscape.org/) -->

<svg
   width="117.628"
   height="117.628"
   viewBox="0 0 117.628 117.628"
   version="1.1"
   id="svg1"
   inkscape:version="1.4.2 (ebf0e940d0, 2025-05-08)"
   sodipodi:docname="rifle.svg"
   xmlns:inkscape="http://www.inkscape.org/namespaces/inkscape"
   xmlns:sodipodi="http://sodipodi.sourceforge.net/DTD/sodipodi-0.dtd"
   xmlns="http://www.w3.org/2000/svg"
   xmlns:svg="http://www.w3.org/2000/svg">
  <sodipodi:namedview
     id="namedview1"
     pagecolor="#ffffff"
     bordercolor="#000000"
     borderopacity="0.25"
     inkscape:showpageshadow="2"
     inkscape:pageopacity="0.0"
     inkscape:pagecheckerboard="0"
     inkscape:deskcolor="#d1d1d1"
     inkscape:document-units="px"
     inkscape:zoom="3.3970588"
     inkscape:cx="-39.593074"
     inkscape:cy="141.15152"
     inkscape:window-width="2256"
     inkscape:window-height="1427"
     inkscape:window-x="0"
     inkscape:window-y="0"
     inkscape:window-maximized="1"
     inkscape:current-layer="svg1" />
  <defs
     id="defs1" />
  <path
     d="M 50.166,46.624999 50.157,46.748999 51.965,47.735999 Q 53.915,48.799999 55.865,49.860999 56.206,50.049999 56.551,50.235999 L 57.161,50.568999 57.381,50.690999 57.345,50.440999 A 3.127,3.127 0 0 1 57.698,48.896999 L 57.711,48.863999 A 5.091,5.091 0 0 1 58.811,47.099999 L 58.954,46.955999 58.761,46.892999 A 12.2,12.2 0 0 1 55.406,45.338999 9.1,9.1 0 0 0 53.856,44.527999 10.622,10.622 0 0 1 52.601,43.903999 L 52.543,43.867999 52.443,43.916999 A 0.266,0.266 0 0 1 52.405,43.935999 1.62,1.62 0 0 0 52.014,44.093999 0.553,0.553 0 0 1 51.833,44.193999 5.115,5.115 0 0 0 50.933,44.987999 2.358,2.358 0 0 0 50.166,46.624999 Z"
     id="path1"
     style="fill:#000000" />
  <path
     d="M 30.734,35.683999 30.654,35.783999 30.754,35.861999 A 38.012,38.012 0 0 0 37.06,39.615999 C 37.96,40.077999 38.813,40.515999 39.638,40.971999 42.191,42.388999 44.958,43.913999 48.346,45.765999 L 48.48,45.839999 48.525,45.693999 A 5.112,5.112 0 0 1 49.85,43.551999 L 49.969,43.434999 49.823,43.352999 C 48.923,42.846999 47.947,42.396999 47.006,41.962999 46.368,41.662999 45.765,41.388999 45.179,41.092999 40.914,38.925999 36.686,36.798999 32.721,34.805999 L 31.921,34.405999 31.796,34.356999 31.744,34.480999 A 0.2,0.2 0 0 1 31.729,34.512999 L 31.37,34.934999 C 31.158,35.172999 30.945,35.422999 30.734,35.683999 Z"
     id="path2"
     style="fill:#000000" />
  <path
     d="M 48.895,46.065999 48.984,46.112999 C 49.17,46.212999 49.356,46.312999 49.538,46.412999 L 49.697,46.503999 49.723,46.321999 A 2.888,2.888 0 0 1 50.611,44.657999 C 50.737,44.527999 50.866,44.398999 51.011,44.269999 L 51.128,44.162999 50.944,44.037999 C 50.785,43.928999 50.626,43.821999 50.464,43.719999 L 50.385,43.670999 50.315,43.733999 A 4.683,4.683 0 0 0 48.926,45.968999 Z"
     id="path3"
     style="fill:#000000" />
  <path
     d="M 58.214,48.836999 A 4.245,4.245 0 0 0 57.784,50.136999 L 57.746,50.663999 58.016,50.209999 A 3.242,3.242 0 0 1 59.675,48.590999 L 59.744,48.565999 59.757,48.494999 A 1.392,1.392 0 0 0 59.534,47.233999 L 59.451,47.143999 59.36,47.224999 A 4,4 0 0 0 58.295,48.648999 C 58.276,48.700999 58.247,48.763999 58.214,48.836999 Z"
     id="path4"
     style="fill:#000000" />
  <path
     d="M 59.695,49.076999 A 3.1,3.1 0 0 0 58.332,50.576999 C 58.264,50.695999 58.195,50.816999 58.123,50.935999 L 58.055,51.047999 58.171,51.110999 C 58.296,51.176999 58.422,51.246999 58.548,51.310999 L 58.939,51.522999 58.955,51.332999 A 2.544,2.544 0 0 1 60.095,49.483999 L 60.295,49.342999 60.065,49.262999 A 0.46,0.46 0 0 1 59.845,49.110999 L 59.786,49.032999 Z"
     id="path5"
     style="fill:#000000" />
  <path
     d="M 16.951,28.391999 17.093,28.463999 A 31.314,31.314 0 0 1 19.818,30.063999 C 20.666,30.601999 21.544,31.157999 22.46,31.624999 L 23.374,32.092999 C 24.953,32.900999 26.585,33.736999 28.214,34.492999 L 28.314,34.537999 28.373,34.447999 C 28.639,34.042999 28.926,33.647999 29.249,33.235999 L 29.349,33.115999 28.495,32.683999 Q 24.595,30.727999 20.695,28.777999 19.336,28.096999 17.971,27.420999 L 17.895,27.383999 17.832,27.445999 C 17.554,27.715999 17.293,27.991999 17.056,28.269999 Z"
     id="path6"
     style="fill:#000000" />
  <path
     d="M 5.238,20.083999 5.427,20.191999 V 19.973999 A 2.259,2.259 0 0 1 6.132,18.530999 L 6.242,18.416999 6.105,18.336999 A 9.843,9.843 0 0 0 4.76,17.659999 L 4.672,17.624999 4.614,17.700999 A 4.98,4.98 0 0 0 3.895,19.225999 L 3.864,19.325999 3.955,19.374999 C 4.379,19.597999 4.787,19.829999 5.238,20.083999 Z"
     id="path7"
     style="fill:#000000" />
  <path
     d="M 1.367,19.495999 1.49,19.339999 1.295,19.295999 C 1.122,19.256999 0.949,19.218999 0.776,19.187999 L 0.751,19.183999 0.725,19.190999 C 0.512,19.245999 0.338,19.298999 0.177,19.356999 L 0.07,19.443999 0,19.557999 0.059,19.629999 C 0.129,19.716999 0.202,19.801999 0.275,19.885999 0.38,20.009999 0.486,20.132999 0.585,20.261999 L 0.685,20.387999 0.785,20.264999 C 0.896,20.129999 1,19.987999 1.104,19.846999 1.188,19.727999 1.276,19.609999 1.367,19.495999 Z"
     id="path8"
     style="fill:#000000" />
  <path
     d="M 6.036,20.383999 6.189,20.641999 6.265,20.351999 A 4.286,4.286 0 0 1 6.926,18.999999 L 7.002,18.887999 6.886,18.820999 C 6.856,18.803999 6.828,18.785999 6.8,18.766999 L 6.649,18.674999 6.581,18.736999 C 5.952,19.307999 5.754,19.908999 6.036,20.383999 Z"
     id="path9"
     style="fill:#000000" />
  <path
     d="M 59.409,51.435999 A 0.23,0.23 0 0 1 59.348,51.582999 L 59.248,51.700999 59.386,51.773999 59.766,51.979999 60.109,52.166999 60.133,51.986999 A 2.927,2.927 0 0 1 61.323,50.016999 L 61.511,49.902999 61.311,49.802999 C 61.173,49.728999 61.032,49.659999 60.886,49.594999 L 60.817,49.563999 60.709,49.650999 A 2.195,2.195 0 0 0 59.409,51.435999 Z"
     id="path10"
     style="fill:#000000" />
  <path
     d="M 68.954,53.800999 69.349,54.027999 A 0.49,0.49 0 0 0 69.593,54.092999 0.5,0.5 0 0 0 70.003,53.879999 6.08,6.08 0 0 0 70.363,53.266999 L 70.491,53.030999 A 0.5,0.5 0 0 0 70.46,52.491999 L 70.329,52.319999 70.319,52.310999 A 2.04,2.04 0 0 1 70.603,52.493999 0.755,0.755 0 0 0 71.63,52.224999 0.768,0.768 0 0 0 71.361,51.198999 2.719,2.719 0 0 0 69.895,50.672999 C 68.985,50.590999 68.952,51.916999 69.761,52.132999 A 0.469,0.469 0 0 0 69.561,52.254999 C 69.313,52.510999 69.073,52.770999 68.837,53.039999 A 0.5,0.5 0 0 0 68.718,53.448999 0.508,0.508 0 0 0 68.954,53.800999 Z"
     id="path11"
     style="fill:#000000" />
  <path
     d="M 81.642,64.203999 81.729,64.251999 C 82.259,64.536999 82.829,64.841999 83.422,65.142999 L 83.536,65.201999 83.595,65.083999 A 7.15,7.15 0 0 1 84.738,63.283999 L 84.851,63.163999 84.705,63.086999 84.149,62.804999 C 83.841,62.648999 83.549,62.504999 83.3,62.365999 L 82.68,62.027999 82.615,62.113999 A 5.843,5.843 0 0 0 81.672,64.099999 Z"
     id="path12"
     style="fill:#000000" />
  <path
     d="M 69.617,55.015999 69.556,55.050999 A 2.811,2.811 0 0 0 68.412,56.563999 L 68.372,56.663999 70.043,57.575999 C 71.923,58.604999 73.807,59.709999 75.63,60.775999 77.409,61.818999 79.249,62.896999 81.084,63.904999 L 81.221,63.979999 81.265,63.830999 A 6.313,6.313 0 0 1 82.184,61.930999 L 82.267,61.815999 82.142,61.748999 Q 79.895,60.529999 77.653,59.318999 76.253,58.569999 74.853,57.826999 C 73.153,56.926999 71.396,55.988999 69.678,55.049999 Z"
     id="path13"
     style="fill:#000000" />
  <path
     d="M 85.877,66.477999 V 66.409999 L 85.82,66.371999 A 0.555,0.555 0 0 1 85.69,66.254999 L 85.602,66.188999 85.462,66.263999 85.446,66.313999 A 0.23,0.23 0 0 1 85.414,66.382999 0.676,0.676 0 0 0 85.391,67.104999 1.331,1.331 0 0 0 86.444,67.804999 H 86.622 L 86.564,67.635999 A 1.509,1.509 0 0 0 86.077,66.884999 0.492,0.492 0 0 1 85.877,66.477999 Z"
     id="path14"
     style="fill:#000000" />
  <path
     d="M 66.704,54.624999 A 7.522,7.522 0 0 0 66.344,55.435999 L 66.305,55.535999 67.961,56.440999 68.015,56.313999 A 3.423,3.423 0 0 1 69.153,54.773999 L 69.311,54.662999 69.145,54.562999 A 11.746,11.746 0 0 1 68.157,53.924999 L 68.109,53.903999 A 0.633,0.633 0 0 1 67.971,53.855999 L 67.597,53.655999 67.553,53.665999 C 67.165,53.745999 66.889,54.265999 66.724,54.582999 Z"
     id="path15"
     style="fill:#000000" />
  <path
     d="M 3.195,20.021999 3.019,19.937999 A 9.512,9.512 0 0 0 2.048,19.530999 L 1.976,19.505999 1.921,19.557999 A 4.638,4.638 0 0 0 1.345,20.257999 C 1.258,20.380999 1.17,20.502999 1.078,20.618999 L 1.003,20.712999 1.093,20.790999 A 7.816,7.816 0 0 0 1.913,21.412999 L 2.031,21.492999 2.095,21.364999 A 3.694,3.694 0 0 1 3.044,20.145999 Z"
     id="path16"
     style="fill:#000000" />
  <path
     d="M 83.952,65.407999 84.063,65.462999 C 84.178,65.517999 84.292,65.575999 84.406,65.633999 84.591,65.725999 84.776,65.819999 84.963,65.908999 L 85.01,65.929999 85.059,65.913999 A 2.5,2.5 0 0 0 85.659,65.613999 L 85.688,65.593999 85.703,65.561999 A 7.075,7.075 0 0 0 86.125,63.996999 L 86.14,63.915999 86.071,63.869999 C 85.893,63.749999 85.671,63.616999 85.347,63.437999 L 85.24,63.398999 85.175,63.489999 A 6.209,6.209 0 0 0 84.005,65.295999 Z"
     id="path17"
     style="fill:#000000" />
  <path
     d="M 60.574,52.350999 V 52.423999 L 60.638,52.458999 Q 63.112,53.796999 65.578,55.145999 L 65.885,55.313999 65.938,55.183999 A 4.083,4.083 0 0 1 66.938,53.513999 L 67.081,53.394999 66.916,53.307999 A 25.525,25.525 0 0 1 64.016,51.591999 L 63.627,51.310999 C 63.156,50.969999 62.669,50.616999 62.169,50.299999 L 62.138,50.279999 H 62.095 C 62.071,50.279999 62.052,50.285999 62.061,50.287999 A 1.008,1.008 0 0 0 61.289,50.620999 2.65,2.65 0 0 0 60.574,52.350999 Z"
     id="path18"
     style="fill:#000000" />
  <path
     d="M 54.642,52.420999 A 0.7,0.7 0 0 0 54.577,53.367999 L 54.614,53.394999 A 0.485,0.485 0 0 0 54.814,53.440999 0.727,0.727 0 0 0 55.38,53.106999 0.531,0.531 0 0 0 55.331,52.390999 0.471,0.471 0 0 0 54.642,52.420999 Z"
     id="path19"
     style="fill:#000000" />
  <path
     d="M 64.9,63.338999 64.816,63.293999 64.751,63.362999 64.711,63.402999 A 7.6,7.6 0 0 0 63.467,64.963999 L 63.367,65.109999 A 10.915,10.915 0 0 1 62.673,66.016999 L 62.306,66.467999 62.582,66.456999 C 62.929,66.441999 63.282,66.448999 63.629,66.456999 L 64.007,66.464999 64.045,66.422999 A 17.4,17.4 0 0 0 65.845,63.983999 L 65.917,63.868999 65.796,63.805999 C 65.5,63.651999 65.203,63.497999 64.9,63.338999 Z"
     id="path20"
     style="fill:#000000" />
  <path
     d="M 63.489,64.102999 63.629,63.902999 H 63.406 A 21.589,21.589 0 0 1 61.516,62.711999 C 60.931,62.311999 60.327,61.902999 59.694,61.555999 59.421,61.405999 59.143,61.264999 58.864,61.123999 A 15.189,15.189 0 0 1 57.435,60.335999 4.223,4.223 0 0 1 55.768,58.683999 L 55.668,58.449999 55.546,58.675999 C 55.224,59.275999 54.846,59.912999 54.366,60.675999 L 54.332,60.729999 54.356,60.789999 C 55.345,63.222999 58.407,64.712999 60.867,65.908999 61.161,66.051999 61.445,66.189999 61.716,66.325999 L 61.808,66.370999 61.871,66.290999 C 61.989,66.137999 62.11,65.990999 62.231,65.839999 62.523,65.476999 62.826,65.102999 63.09,64.698999 63.217,64.492999 63.351,64.295999 63.489,64.102999 Z"
     id="path21"
     style="fill:#000000" />
  <path
     d="M 58.902,60.626999 C 59.102,60.726999 59.286,60.811999 59.444,60.894999 A 23.585,23.585 0 0 1 61.59,62.221999 C 62.243,62.658999 62.919,63.110999 63.626,63.491999 L 63.681,63.506999 H 63.703 A 0.641,0.641 0 0 0 64.061,63.393999 L 64.085,63.372999 C 64.141,63.308999 64.201,63.253999 64.268,63.189999 L 64.395,63.070999 64.241,62.988999 A 72.649,72.649 0 0 1 56.841,58.225999 L 56.069,57.683999 V 57.921999 C 56.051,59.245999 57.695,60.043999 58.902,60.626999 Z"
     id="path22"
     style="fill:#000000" />
  <path
     d="M 117.411,88.175999 C 117.317,88.097999 117.224,88.028999 117.13,87.960999 L 117.009,87.871999 116.944,88.006999 A 8.247,8.247 0 0 1 115.944,89.467999 C 115.714,89.756999 115.476,90.054999 115.265,90.367999 L 114.951,90.837999 A 23.261,23.261 0 0 1 112.871,93.648999 37.172,37.172 0 0 1 107.319,98.926999 L 107.2,99.013999 107.305,99.113999 A 3.487,3.487 0 0 0 108.005,99.658999 2.4,2.4 0 0 0 109.188,100.003 1.91,1.91 0 0 0 109.709,99.930999 C 110.978,99.569999 111.87,97.930999 112.587,96.613999 112.823,96.177999 113.047,95.767999 113.257,95.452999 113.624,94.901999 113.983,94.334999 114.331,93.785999 114.831,92.985999 115.355,92.165999 115.908,91.385999 115.968,91.298999 116.094,91.148999 116.241,90.974999 116.816,90.293999 117.686,89.261999 117.625,88.585999 A 0.588,0.588 0 0 0 117.411,88.175999 Z"
     id="path23"
     style="fill:#000000" />
  <path
     d="M 112.452,93.229999 A 34.632,34.632 0 0 0 114.746,90.076999 17.335,17.335 0 0 0 116.46,87.639999 C 115.51,87.026999 114.488,86.549999 113.577,85.865999 112.567,85.106999 111.601,84.307999 110.54,83.619999 107.776,81.826999 104.949,80.104999 102.253,78.204999 A 65.559,65.559 0 0 0 95.495,73.783999 5.692,5.692 0 0 0 92.239,72.741999 13.029,13.029 0 0 1 90.346,72.841999 3.394,3.394 0 0 1 88.433,72.041999 5.34,5.34 0 0 1 86.942,70.053999 9.3,9.3 0 0 1 86.62,68.394999 1.79,1.79 0 0 1 84.74,66.454999 H 84.732 C 79.499,63.954999 74.617,60.754999 69.519,57.969999 Q 62.189,53.951999 54.835,49.973999 C 49.356,46.991999 43.877,44.005999 38.429,40.973999 35.813,39.514999 32.779,38.190999 30.398,36.325999 A 4.974,4.974 0 0 0 29.312,38.902999 24.924,24.924 0 0 1 32.358,41.037999 C 34.469,42.787999 36.883,44.182999 39.158,45.721999 41.408,47.248999 43.647,48.794999 45.969,50.210999 50.223,52.810999 54.569,55.089999 58.525,58.158999 63.006,61.634999 68.301,63.649999 73.279,66.263999 A 0.362,0.362 0 0 0 73.179,66.381999 C 72.6,67.481999 71.853,69.096999 72.112,70.375999 72.342,71.505999 73.821,72.300999 74.762,72.752999 77.504,74.068999 79.425,72.164999 80.473,69.770999 A 9.1,9.1 0 0 1 84.725,73.398999 C 85.596,75.052999 85.055,79.287999 87.377,79.712999 88.967,80.012999 90.506,80.034999 91.818,81.128999 A 70.794,70.794 0 0 1 103.108,93.383999 C 103.995,94.568999 104.957,95.705999 105.808,96.918999 106.154,97.407999 106.508,97.984999 106.917,98.500999 A 32.711,32.711 0 0 0 112.452,93.229999 Z M 53.133,51.556999 A 1.75,1.75 0 0 0 53.033,52.248999 6.131,6.131 0 0 1 53.021,53.289999 L 52.986,53.564999 52.739,53.405999 C 51.658,52.717999 49.992,52.005999 48.195,50.905999 47.288,50.376999 46.31,49.811999 45.295,49.183999 44.795,48.873999 44.269,48.551999 43.74,48.229999 43.211,47.907999 42.683,47.545999 42.14,47.195999 41.715,46.917999 41.293,46.642999 40.88,46.368999 40.467,46.094999 40.08,45.807999 39.68,45.533999 Q 38.504,44.709999 37.425,43.951999 C 36.014,42.929999 34.662,42.114999 33.561,41.351999 Q 32.732,40.784999 32.073,40.329999 C 31.656,40.007999 31.306,39.713999 31.02,39.478999 30.447,39.001999 30.145,38.723999 30.173,38.687999 A 3.7,3.7 0 0 1 31.173,39.268999 L 32.298,40.027999 C 32.743,40.301999 33.256,40.612999 33.817,40.954999 34.938,41.654999 36.317,42.429999 37.777,43.443999 38.143,43.685999 38.513,43.943999 38.894,44.194999 39.275,44.445999 39.662,44.723999 40.055,44.994999 40.448,45.265999 40.847,45.539999 41.255,45.817999 41.663,46.095999 42.082,46.358999 42.508,46.632999 43.044,46.982999 43.569,47.324999 44.09,47.662999 L 45.629,48.628999 C 46.629,49.265999 47.593,49.849999 48.488,50.398999 49.383,50.947999 50.205,51.463999 50.965,51.877999 51.339,52.088999 51.7,52.302999 52.034,52.497999 52.269,52.648999 52.488,52.797999 52.694,52.934999 52.722,52.692999 52.722,52.449999 52.742,52.234999 A 1.709,1.709 0 0 1 52.957,51.462999 C 53.215,51.081999 53.478,51.049999 53.482,51.062999 53.515,51.107999 53.295,51.214999 53.133,51.556999 Z M 55.777,53.556999 A 1.212,1.212 0 0 1 54.277,53.890999 0.251,0.251 0 0 1 54.229,53.846999 C 54.221,53.846999 54.213,53.846999 54.205,53.834999 53.084,52.920999 54.605,50.920999 55.712,51.934999 A 1.123,1.123 0 0 1 55.777,53.552999 Z M 74.701,71.869999 A 2.885,2.885 0 0 1 72.92,69.425999 6.694,6.694 0 0 1 73.825,66.757999 0.364,0.364 0 0 0 73.865,66.564999 C 75.117,67.222999 76.389,67.819999 77.665,68.415999 L 77.66,68.430999 A 3.524,3.524 0 0 1 75.94,70.990999 0.37509599,0.37509599 0 0 0 76.318,71.638999 4.28,4.28 0 0 0 78.337,68.730999 C 78.829,68.962999 79.319,69.200999 79.809,69.440999 78.877,71.634999 77.154,73.249999 74.701,71.869999 Z M 82.679,69.969999 C 82.512,69.869999 82.286,69.703999 81.959,69.540999 A 21.228,21.228 0 0 0 79.101,68.340999 C 78.791,68.224999 78.46,68.085999 78.119,67.940999 77.778,67.795999 77.463,67.626999 77.097,67.451999 76.405,67.113999 75.665,66.751999 74.886,66.366999 74.086,66.016999 73.248,65.650999 72.386,65.266999 71.524,64.882999 70.593,64.503999 69.686,64.066999 67.865,63.220999 66.148,62.281999 64.629,61.410999 63.889,60.945999 63.185,60.504999 62.529,60.094999 62.446,60.043999 62.366,59.994999 62.283,59.939999 L 62.223,59.900999 62.207,59.892999 62.183,59.872999 62.156,59.852999 62.04,59.768999 Q 61.819,59.596999 61.599,59.434999 C 61.313,59.216999 61.034,59.009999 60.772,58.806999 A 29.014,29.014 0 0 1 57.424,56.126999 25.458,25.458 0 0 1 61.038,58.416999 C 61.313,58.603999 61.595,58.802999 61.893,59.009999 62.04,59.109999 62.193,59.216999 62.343,59.323999 L 62.458,59.403999 62.49,59.422999 V 59.422999 L 62.506,59.430999 62.569,59.466999 C 62.653,59.514999 62.732,59.566999 62.816,59.613999 63.488,60.007999 64.199,60.432999 64.955,60.878999 66.482,61.713999 68.148,62.603999 69.985,63.458999 70.895,63.892999 71.794,64.265999 72.656,64.658999 73.518,65.051999 74.362,65.433999 75.156,65.799999 L 77.371,66.952999 C 77.701,67.123999 78.043,67.314999 78.357,67.469999 78.671,67.624999 78.981,67.759999 79.288,67.887999 A 15.671,15.671 0 0 1 82.095,69.321999 4.418,4.418 0 0 1 82.767,69.870999 C 82.906,70.005999 82.973,70.084999 82.957,70.104999 82.941,70.124999 82.846,70.072999 82.679,69.973999 Z M 95.041,80.269999 C 95.522,79.621999 96.035,78.997999 96.556,78.376999 96.85,78.019999 97.356,78.528999 97.056,78.876999 96.578,79.449999 96.097,80.026999 95.656,80.626999 95.387,81.003999 94.766,80.649999 95.041,80.275999 Z M 103.454,93.104999 102.619,92.104999 C 102.301,91.714999 101.943,91.265999 101.519,90.788999 100.684,89.822999 99.694,88.669999 98.592,87.388999 97.49,86.107999 96.342,84.653999 95.046,83.217999 94.604,82.704999 94.131,82.247999 93.69,81.774999 Q 93.344,81.439999 93.002,81.118999 C 92.775,80.903999 92.557,80.685999 92.31,80.490999 92.063,80.295999 91.841,80.090999 91.61,79.901999 L 91.435,79.754999 A 1.774,1.774 0 0 0 91.272,79.631999 C 91.157,79.547999 91.046,79.464999 90.934,79.384999 A 3.6,3.6 0 0 0 89.487,78.875999 H 89.463 A 2.5,2.5 0 0 0 88.831,78.919999 L 88.143,79.038999 A 5.513,5.513 0 0 1 87.435,79.122999 0.884,0.884 0 0 1 87.197,79.090999 0.727,0.727 0 0 1 86.982,78.963999 1.013,1.013 0 0 1 86.748,78.645999 4.471,4.471 0 0 1 86.394,77.492999 C 86.322,77.138999 86.278,76.816999 86.243,76.522999 A 8.165,8.165 0 0 1 86.143,74.669999 7.394,7.394 0 0 1 86.577,76.469999 C 86.632,76.755999 86.7,77.069999 86.787,77.407999 A 4.594,4.594 0 0 0 87.157,78.421999 0.685,0.685 0 0 0 87.292,78.596999 C 87.316,78.596999 87.324,78.628999 87.352,78.628999 87.42,78.644999 87.368,78.628999 87.432,78.628999 A 5.372,5.372 0 0 0 88.048,78.528999 C 88.274,78.480999 88.505,78.428999 88.748,78.380999 A 2.579,2.579 0 0 1 89.583,78.321999 4.086,4.086 0 0 1 91.272,78.869999 C 91.396,78.957999 91.523,79.048999 91.65,79.136999 91.714,79.184999 91.773,79.219999 91.85,79.279999 L 92.025,79.418999 C 92.256,79.609999 92.494,79.804999 92.737,79.999999 93.218,80.388999 93.683,80.862999 94.172,81.307999 94.621,81.788999 95.11,82.253999 95.556,82.774999 96.872,84.229999 98.025,85.689999 99.083,87.001999 100.148,88.301999 101.106,89.490999 101.894,90.492999 102.294,90.985999 102.629,91.462999 102.927,91.875999 103.225,92.288999 103.468,92.651999 103.675,92.945999 A 3.623,3.623 0 0 1 104.243,93.907999 C 104.195,93.937999 103.919,93.651999 103.454,93.110999 Z M 104.895,81.718999 A 8.792,8.792 0 0 1 102.542,79.893999 26.411,26.411 0 0 1 105.134,81.309999 C 105.934,81.746999 106.903,82.227999 107.973,82.804999 A 25.066,25.066 0 0 1 111.341,84.911999 C 112.013,85.411999 112.649,85.961999 113.257,86.446999 113.563,86.677999 113.85,86.931999 114.152,87.138999 114.454,87.345999 114.74,87.543999 115.019,87.738999 L 115.261,87.909999 115.134,88.124999 C 114.927,88.482999 114.724,88.824999 114.534,89.150999 114.344,89.476999 114.112,89.750999 113.917,90.016999 113.817,90.152999 113.722,90.283999 113.631,90.410999 113.54,90.537999 113.431,90.641999 113.337,90.752999 113.15,90.971999 112.975,91.173999 112.816,91.352999 112.152,92.052999 111.73,92.410999 111.687,92.366999 111.644,92.322999 111.973,91.881999 112.545,91.130999 112.685,90.930999 112.836,90.724999 113.003,90.494999 113.086,90.378999 113.17,90.259999 113.261,90.136999 113.352,90.013999 113.428,89.873999 113.516,89.736999 113.687,89.458999 113.889,89.176999 114.068,88.861999 114.2,88.615999 114.335,88.356999 114.478,88.094999 L 113.786,87.645999 C 113.468,87.438999 113.174,87.187999 112.852,86.953999 112.227,86.472999 111.615,85.953999 110.935,85.442999 A 28.877,28.877 0 0 0 107.671,83.342999 C 106.623,82.744999 105.669,82.215999 104.895,81.718999 Z"
     id="path24"
     style="fill:#000000" />
  <path
     d="M 12.326,24.883999 12.194,24.812999 C 11.345,24.361999 10.471,23.921999 9.627,23.495999 8.545,22.949999 7.427,22.385999 6.347,21.795999 5.957,21.580999 5.57,21.352999 5.181,21.123999 4.71,20.847999 4.223,20.560999 3.733,20.299999 L 3.651,20.255999 3.586,20.320999 3.574,20.334999 A 3.071,3.071 0 0 0 2.474,21.655999 L 2.43,21.755999 2.53,21.810999 C 3.182,22.194999 3.878,22.522999 4.55,22.840999 5.196,23.140999 5.865,23.461999 6.491,23.824999 8.153,24.791999 9.866,25.667999 11.341,26.411999 L 11.466,26.474999 11.514,26.343999 A 4.821,4.821 0 0 1 12.234,25.001999 Z"
     id="path25"
     style="fill:#000000" />
  <path
     d="M 17.449,27.165999 17.066,26.971999 V 26.971999 C 16.608,26.745999 16.146,26.478999 15.699,26.220999 A 15.835,15.835 0 0 0 13.517,25.107999 L 13.425,25.071999 13.369,25.153999 A 0.66,0.66 0 0 1 13.285,25.253999 4.918,4.918 0 0 0 12.05,27.712999 C 11.967,28.004999 11.881,28.305999 11.781,28.585999 A 0.783,0.783 0 0 1 11.723,28.701999 L 11.651,28.821999 11.778,28.879999 C 12.823,29.357999 13.762,29.795999 14.678,30.320999 14.807,30.396999 14.936,30.477999 15.062,30.558999 L 15.288,30.701999 15.325,30.524999 A 7.276,7.276 0 0 1 17.33,27.283999 Z"
     id="path26"
     style="fill:#000000" />
  <path
     d="M 31.419,34.147999 31.276,34.076999 Q 30.709,33.796999 30.141,33.508999 L 29.763,33.319999 29.7,33.398999 A 15.1,15.1 0 0 0 27.211,37.740999 L 27.173,37.840999 27.273,37.891999 C 27.781,38.162999 28.197,38.391999 28.581,38.613999 L 28.738,38.704999 28.767,38.524999 A 8.831,8.831 0 0 1 31.106,34.519999 Z"
     id="path27"
     style="fill:#000000" />
  <path
     d="M 22.155,32.129999 C 20.294,31.135999 18.597,29.854999 16.704,28.929999 A 4.07,4.07 0 0 0 15.857,30.941999 53.367,53.367 0 0 0 20.243,34.153999 C 22.343,35.346999 24.553,36.353999 26.692,37.453999 A 15.085,15.085 0 0 1 27.885,34.983999 C 25.96,34.093999 24.02,33.131999 22.155,32.129999 Z M 23.917,35.583999 C 23.129,35.201999 22.044,34.668999 20.863,34.012999 A 16.237,16.237 0 0 1 18.012,32.012999 C 17.372,31.396999 17.046,30.955999 17.102,30.891999 17.158,30.827999 17.618,31.142999 18.322,31.655999 19.03,32.140999 20.036,32.776999 21.193,33.432999 22.35,34.088999 23.416,34.684999 24.151,35.173999 24.886,35.662999 25.304,36.036999 25.251,36.112999 25.198,36.188999 24.7,35.970999 23.917,35.583999 Z"
     id="path28"
     style="fill:#000000" />
  <path
     d="M 8.725,26.067999 8.571,25.982999 8.541,26.155999 A 0.432,0.432 0 0 1 8.483,26.317999 V 26.317999 C 8.431,26.405999 8.383,26.508999 8.34,26.603999 A 36.273,36.273 0 0 0 3.356,24.126999 C 2.819,23.912999 2.585,24.782999 3.117,24.994999 A 34.925,34.925 0 0 1 10.095,28.805999 C 10.427,29.040999 10.741,28.726999 10.74,28.405999 L 10.829,28.446999 10.874,28.315999 C 10.974,28.039999 11.058,27.759999 11.141,27.479999 L 11.171,27.379999 11.079,27.332999 C 10.264,26.911999 9.446,26.463999 8.725,26.067999 Z"
     id="path29"
     style="fill:#000000" />
</svg>
