<?xml version="1.0" encoding="UTF-8" standalone="no"?>
<!-- Created with Inkscape (http://www.inkscape.org/) -->

<svg
   width="81.25"
   height="81.25"
   viewBox="0 0 81.25 81.25"
   version="1.1"
   id="svg1"
   inkscape:version="1.4.2 (ebf0e940d0, 2025-05-08)"
   sodipodi:docname="rockcache.svg"
   xmlns:inkscape="http://www.inkscape.org/namespaces/inkscape"
   xmlns:sodipodi="http://sodipodi.sourceforge.net/DTD/sodipodi-0.dtd"
   xmlns="http://www.w3.org/2000/svg"
   xmlns:svg="http://www.w3.org/2000/svg">
  <sodipodi:namedview
     id="namedview1"
     pagecolor="#ffffff"
     bordercolor="#000000"
     borderopacity="0.25"
     inkscape:showpageshadow="2"
     inkscape:pageopacity="0.0"
     inkscape:pagecheckerboard="0"
     inkscape:deskcolor="#d1d1d1"
     inkscape:document-units="px"
     inkscape:zoom="6.7941176"
     inkscape:cx="11.48052"
     inkscape:cy="80.43723"
     inkscape:window-width="2256"
     inkscape:window-height="1427"
     inkscape:window-x="0"
     inkscape:window-y="0"
     inkscape:window-maximized="1"
     inkscape:current-layer="svg1" />
  <defs
     id="defs1" />
  <path
     d="M 13.543 77.6057 C 6.0625 77.6057 0 71.5432 0 64.0627 C 0 56.5822 6.0625 50.5197 13.543 50.5197 C 21.0235 50.5197 27.086 56.5822 27.086 64.0627 C 27.086 71.5432 21.0235 77.6057 13.543 77.6057 Z M 13.543 54.7657 C 13.0547 54.7657 12.6602 55.1602 12.6602 55.6485 C 12.6602 56.1367 13.0547 56.5313 13.543 56.5313 C 15.1758 56.5313 16.7032 57.0782 17.9258 58.0196 C 19.1485 58.9571 20.0742 60.293 20.4922 61.8673 C 20.6172 62.3399 21.1016 62.6173 21.5703 62.4923 C 22.039 62.3673 22.3203 61.8829 22.1953 61.4142 C 21.6719 59.4572 20.5195 57.7931 18.9922 56.6212 C 17.4649 55.4493 15.5664 54.7696 13.5391 54.7696 Z M 40.625 77.6057 C 33.1445 77.6057 27.082 71.5432 27.082 64.0627 C 27.082 56.5822 33.1445 50.5197 40.625 50.5197 C 48.1055 50.5197 54.168 56.5822 54.168 64.0627 C 54.168 71.5432 48.1055 77.6057 40.625 77.6057 Z M 40.625 54.7657 C 40.1367 54.7657 39.7422 55.1602 39.7422 55.6485 C 39.7422 56.1367 40.1367 56.5313 40.625 56.5313 C 42.2539 56.5313 43.7852 57.0782 45.0078 58.0196 C 46.2305 58.9571 47.1562 60.293 47.5781 61.8673 C 47.7031 62.3399 48.1875 62.6173 48.6562 62.4923 C 49.1289 62.3673 49.4062 61.8829 49.2812 61.4142 C 48.7578 59.4572 47.6054 57.7931 46.0781 56.6212 C 44.5508 55.4493 42.6523 54.7696 40.625 54.7696 Z M 67.707 77.6057 C 60.2265 77.6057 54.164 71.5432 54.164 64.0627 C 54.164 56.5822 60.2265 50.5197 67.707 50.5197 C 75.1875 50.5197 81.25 56.5822 81.25 64.0627 C 81.25 71.5432 75.1875 77.6057 67.707 77.6057 Z M 67.707 54.7657 C 67.2187 54.7657 66.8242 55.1602 66.8242 55.6485 C 66.8242 56.1367 67.2187 56.5313 67.707 56.5313 C 69.3359 56.5313 70.8672 57.0782 72.0898 58.0196 C 73.3125 58.9571 74.2343 60.293 74.6562 61.8673 C 74.7812 62.3399 75.2656 62.6173 75.7343 62.4923 C 76.207 62.3673 76.4843 61.8829 76.3593 61.4142 C 75.8359 59.4572 74.6835 57.7931 73.1562 56.6212 C 71.6289 55.4493 69.7304 54.7696 67.7031 54.7696 Z M 27.082 54.1524 C 19.6015 54.1524 13.539 48.0899 13.539 40.6094 C 13.539 33.1289 19.6015 27.0664 27.082 27.0664 C 34.5625 27.0664 40.625 33.1289 40.625 40.6094 C 40.625 48.0899 34.5625 54.1524 27.082 54.1524 Z M 27.082 31.3124 C 26.5937 31.3124 26.1992 31.7069 26.1992 32.1952 C 26.1992 32.6835 26.5937 33.078 27.082 33.078 C 28.7109 33.078 30.2422 33.6249 31.4648 34.5663 C 32.6875 35.5038 33.6132 36.8397 34.0312 38.414 C 34.1562 38.8827 34.6406 39.164 35.1093 39.039 C 35.578 38.914 35.8593 38.4296 35.7343 37.9609 C 35.2109 36.0039 34.0585 34.3398 32.5312 33.1679 C 31.0039 31.996 29.1054 31.3163 27.0781 31.3163 Z M 54.164 54.1524 C 46.6835 54.1524 40.621 48.0899 40.621 40.6094 C 40.621 33.1289 46.6835 27.0664 54.164 27.0664 C 61.6445 27.0664 67.707 33.1289 67.707 40.6094 C 67.707 48.0899 61.6445 54.1524 54.164 54.1524 Z M 54.164 31.3124 C 53.6757 31.3124 53.2812 31.7069 53.2812 32.1952 C 53.2812 32.6835 53.6757 33.078 54.164 33.078 C 55.7968 33.078 57.3242 33.6249 58.5468 34.5663 C 59.7695 35.5038 60.6952 36.8397 61.1171 38.414 C 61.2421 38.8827 61.7265 39.164 62.1952 39.039 C 62.6639 38.914 62.9452 38.4296 62.8202 37.9609 C 62.2968 36.0039 61.1444 34.3398 59.6171 33.1679 C 58.0898 31.996 56.1913 31.3163 54.164 31.3163 Z M 40.621 30.7303 C 33.1405 30.7303 27.078 24.6678 27.078 17.1873 C 27.078 9.70684 33.1405 3.64434 40.621 3.64434 C 48.1015 3.64434 54.164 9.70684 54.164 17.1873 C 54.164 24.6678 48.1015 30.7303 40.621 30.7303 Z M 40.621 7.89034 C 40.1327 7.89034 39.7382 8.28487 39.7382 8.77315 C 39.7382 9.26144 40.1327 9.65597 40.621 9.65597 C 42.2499 9.65597 43.7812 10.2028 45.0038 11.1443 C 46.2265 12.0818 47.1522 13.4177 47.5741 14.992 C 47.6991 15.4607 48.1835 15.742 48.6522 15.617 C 49.1249 15.492 49.4022 15.0076 49.2772 14.5389 C 48.7538 12.5819 47.6014 10.9178 46.0741 9.74587 C 44.5468 8.57396 42.6483 7.89426 40.621 7.89426 Z"
     fill-rule="evenodd"
     id="path1"
     style="fill:#000000" />
</svg>
