<?xml version="1.0" encoding="UTF-8" standalone="no"?>
<!-- Created with Inkscape (http://www.inkscape.org/) -->

<svg
   width="78.001999"
   height="78.001999"
   viewBox="0 0 78.001999 78.001999"
   version="1.1"
   id="svg1"
   inkscape:version="1.4.2 (ebf0e940d0, 2025-05-08)"
   sodipodi:docname="rope.svg"
   xmlns:inkscape="http://www.inkscape.org/namespaces/inkscape"
   xmlns:sodipodi="http://sodipodi.sourceforge.net/DTD/sodipodi-0.dtd"
   xmlns="http://www.w3.org/2000/svg"
   xmlns:svg="http://www.w3.org/2000/svg">
  <sodipodi:namedview
     id="namedview1"
     pagecolor="#ffffff"
     bordercolor="#000000"
     borderopacity="0.25"
     inkscape:showpageshadow="2"
     inkscape:pageopacity="0.0"
     inkscape:pagecheckerboard="0"
     inkscape:deskcolor="#d1d1d1"
     inkscape:document-units="px"
     inkscape:zoom="9.6083333"
     inkscape:cx="27.059844"
     inkscape:cy="68.950564"
     inkscape:window-width="2256"
     inkscape:window-height="1427"
     inkscape:window-x="0"
     inkscape:window-y="0"
     inkscape:window-maximized="1"
     inkscape:current-layer="svg1" />
  <defs
     id="defs1" />
  <path
     d="M 78.000389,19.289457 C 78.016019,24.406657 75.980889,29.316457 72.351989,32.926457 L 72.152769,33.125677 61.367772,42.184277 57.457572,38.274077 68.391569,29.090477 C 68.415009,29.070945 68.434539,29.051414 68.454069,29.031883 73.825169,23.660783 73.825169,14.918883 68.454069,9.547883 63.082972,4.176883 54.341072,4.176783 48.970072,9.547883 48.950541,9.567414 48.93101,9.590852 48.911478,9.610383 L 39.727878,20.548383 35.817678,16.638183 44.876278,5.853183 45.075498,5.653963 V 5.650057 C 48.692698,2.032857 53.598898,0.001657 58.712498,0.001657 63.829698,0.001657 68.735499,2.032857 72.353499,5.650057 75.970699,9.267257 78.001899,14.173457 78.001899,19.291057 Z"
     id="path1"
     style="fill:#000000" />
  <path
     d="M 67.070389,27.586457 56.043392,36.848157 C 56.039485,36.848157 56.039485,36.852063 56.035579,36.85597 L 52.027779,32.84817 C 52.203559,32.81692 52.363719,32.73879 52.500439,32.62942 L 63.258439,23.59422 H 63.254533 C 63.289689,23.56297 63.324846,23.53172 63.356093,23.50047 65.621693,21.02387 65.535793,17.20747 63.164683,14.83637 60.793583,12.46527 56.973283,12.38327 54.500583,14.64887 54.465427,14.68012 54.434177,14.71137 54.406833,14.746526 L 45.371633,25.500526 C 45.262253,25.637246 45.184133,25.797406 45.152883,25.973186 L 41.145083,21.965386 41.152896,21.957573 50.414596,10.930573 C 52.621596,8.723573 55.617696,7.481373 58.742696,7.481373 61.867696,7.481373 64.859896,8.723573 67.070799,10.930573 71.668499,15.532173 71.668499,22.989573 67.070799,27.586573 Z"
     id="path2"
     style="fill:#000000" />
  <path
     d="M 63.074392,50.227457 62.074392,51.227457 C 61.105642,52.188397 59.543192,52.188397 58.574392,51.227457 L 26.773392,19.426457 C 25.812452,18.457707 25.812452,16.895257 26.773392,15.926457 L 27.773392,14.926457 C 28.742142,13.961617 30.308592,13.961617 31.273392,14.926457 L 63.074392,46.727457 C 64.039232,47.696207 64.039232,49.258657 63.074392,50.227457 Z"
     id="path3"
     style="fill:#000000" />
  <path
     d="M 57.879392,54.398457 C 57.879392,55.058617 57.621582,55.687557 57.152832,56.152357 L 56.152832,57.152357 C 55.184082,58.113297 53.621632,58.113297 52.652832,57.152357 L 20.851832,25.351357 C 20.386992,24.886517 20.125272,24.257557 20.125272,23.597457 20.125272,22.941207 20.386992,22.312257 20.851832,21.847457 L 21.851832,20.847457 C 22.820582,19.882617 24.390932,19.882617 25.359632,20.847457 L 57.160632,52.648457 H 57.156726 C 57.621566,53.113297 57.883286,53.742257 57.879386,54.398457 Z"
     id="path4"
     style="fill:#000000" />
  <path
     d="M 51.230392,62.070457 50.230392,63.070457 C 49.765552,63.539207 49.132692,63.800927 48.472592,63.800927 47.816342,63.800927 47.183492,63.539207 46.722592,63.074367 L 14.921592,31.273367 C 13.956752,30.304617 13.956752,28.742167 14.921592,27.773367 L 15.921592,26.773367 C 16.890342,25.808527 18.452792,25.808527 19.421592,26.773367 L 51.222592,58.574367 C 52.183532,59.539207 52.187432,61.101667 51.230405,62.070467 Z"
     id="path5"
     style="fill:#000000" />
  <path
     d="M 36.855392,56.035457 36.847579,56.04327 27.585879,67.07027 C 22.980379,71.62887 15.554879,71.61327 10.972879,67.027302 6.3869797,62.445302 6.3712797,55.019302 10.929911,50.414302 L 21.956911,41.152602 21.964724,41.144789 25.972524,45.152589 C 25.796744,45.183839 25.636584,45.261969 25.499864,45.371339 L 14.745864,54.406539 C 14.710708,54.437789 14.675551,54.469039 14.644304,54.500289 12.378704,56.976889 12.464604,60.793289 14.835714,63.164389 17.206814,65.535489 21.027114,65.617489 23.499814,63.351889 23.53497,63.320639 23.56622,63.289389 23.593564,63.254233 L 32.628764,52.500233 C 32.738144,52.363513 32.816264,52.203353 32.847514,52.027573 Z"
     id="path6"
     style="fill:#000000" />
  <path
     d="M 42.184392,61.367457 33.129692,72.152457 32.930472,72.351677 H 32.926565 C 28.055465,77.222777 20.953565,79.125077 14.297565,77.343877 7.6413657,75.558677 2.4425657,70.359477 0.65656574,63.702877 -1.1246343,57.046677 0.77765574,49.944877 5.6487657,45.073877 L 5.8479857,44.874657 16.632985,35.816057 20.543185,39.726257 9.6091857,48.909857 C 9.5857487,48.929389 9.5662167,48.94892 9.5466857,48.968451 4.1755857,54.339551 4.1755857,63.081451 9.5466857,68.452451 14.929485,73.823551 23.644685,73.823551 29.030685,68.452451 29.050216,68.43292 29.069747,68.409482 29.089279,68.389951 L 38.272879,57.455951 Z"
     id="path7"
     style="fill:#000000" />
</svg>
