<?xml version="1.0" encoding="UTF-8" standalone="no"?>
<!-- Created with Inkscape (http://www.inkscape.org/) -->

<svg
   width="92"
   height="92"
   viewBox="0 0 92 92"
   version="1.1"
   id="svg1"
   inkscape:version="1.4.2 (ebf0e940d0, 2025-05-08)"
   sodipodi:docname="rucksack.svg"
   xmlns:inkscape="http://www.inkscape.org/namespaces/inkscape"
   xmlns:sodipodi="http://sodipodi.sourceforge.net/DTD/sodipodi-0.dtd"
   xmlns="http://www.w3.org/2000/svg"
   xmlns:svg="http://www.w3.org/2000/svg">
  <sodipodi:namedview
     id="namedview1"
     pagecolor="#ffffff"
     bordercolor="#000000"
     borderopacity="0.25"
     inkscape:showpageshadow="2"
     inkscape:pageopacity="0.0"
     inkscape:pagecheckerboard="0"
     inkscape:deskcolor="#d1d1d1"
     inkscape:document-units="px"
     inkscape:zoom="3.3970588"
     inkscape:cx="29.584416"
     inkscape:cy="105.82684"
     inkscape:window-width="2256"
     inkscape:window-height="1427"
     inkscape:window-x="0"
     inkscape:window-y="0"
     inkscape:window-maximized="1"
     inkscape:current-layer="svg1" />
  <defs
     id="defs1" />
  <path
     d="M 44.9106 20.8 C 46.3106 21.6 47.6106 22.6 48.7106 23.5 L 49.4106 24.1 C 53.8106 27.5 59.3106 33.9 62.5106 37.8 C 62.8106 37.3 63.3106 36.9 63.9106 36.8 L 67.4106 36.5 C 68.1106 36.4 68.7106 36.8 69.0106 37.3 C 70.0106 34.5 71.2106 31.3 72.3106 29.2 C 72.0106 26.5 71.8106 24 71.6106 21.8 C 70.2106 6.2 64.0106 0 54.5106 0 L 44.5106 0 C 36.3106 0 29.5106 5.7 27.9106 13.3 C 31.5106 14.7 39.2106 17.7 44.9106 20.8 Z"
     id="path1"
     style="fill:#000000" />
  <path
     d="M 78.4106 68.8 C 78.3106 67.8 77.4106 67.1 76.5106 67.2 L 75.9106 67.3 C 75.3106 60.8 74.4106 51 73.5106 41.6 L 74.3106 41.5 C 75.3106 41.4 76.0106 40.5 75.9106 39.6 L 75.3106 32.5 C 75.2106 31.5 74.3106 30.8 73.4106 30.9 L 72.5106 30.9 C 71.5106 33 70.4106 35.9 69.3106 38.9 L 69.9106 45.2 C 70.0106 46.2 69.3106 47.1 68.3106 47.1 L 64.8106 47.4 C 63.8106 47.5 62.9106 46.8 62.9106 45.8 L 62.3106 39.1 C 59.2106 35.3 53.4106 28.4 48.8106 24.8 C 48.6106 24.6 48.3106 24.4 48.1106 24.2 C 47.0106 23.3 45.8106 22.4 44.4106 21.6 C 43.6106 21.2 42.9106 20.8 42.0106 20.4 C 43.0106 25.9 47.4106 50.9 45.9106 76.9 C 45.7106 79.9 43.9106 82.5 41.1106 83.7 C 39.9106 84.2 38.6106 84.5 37.2106 84.5 C 34.3106 84.5 31.1106 83.4 28.2106 81.2 C 28.2106 81.2 24.1106 79.9 23.2106 74 C 21.7106 64.4 17.0106 26.1 19.2106 21.7 C 20.6106 19.3 24.5106 19.6 27.5106 20.1 L 27.5106 75 C 27.5106 77 27.9106 79.3 27.9106 79.3 C 32.9106 83.5 37.7106 83.8 40.6106 82.5 C 43.0106 81.5 44.4106 79.4 44.5106 76.9 C 46.1106 48.6 40.8106 21.5 40.4106 19.7 C 35.6106 17.4 30.5106 15.4 27.6106 14.3 C 22.5106 14.3 17.7106 13.1 14.3106 19 C 10.2106 26 16.8106 71.1 17.7106 75.2 C 19.9106 85 25.9106 87.1 31.5106 87.8 C 33.7106 90.2 36.8106 91.6 41.0106 91.6 L 62.3106 92 C 70.5106 92 75.2106 86.2 76.3106 77.9 L 77.4106 77.8 C 78.4106 77.7 79.1106 76.8 79.0106 75.9 Z"
     id="path2"
     style="fill:#000000" />
</svg>
