<?xml version="1.0" encoding="UTF-8" standalone="no"?>
<!-- Created with Inkscape (http://www.inkscape.org/) -->

<svg
   width="92"
   height="92"
   viewBox="0 0 92 92"
   version="1.1"
   id="svg1"
   inkscape:version="1.4.2 (ebf0e940d0, 2025-05-08)"
   sodipodi:docname="rucksack.svg"
   xmlns:inkscape="http://www.inkscape.org/namespaces/inkscape"
   xmlns:sodipodi="http://sodipodi.sourceforge.net/DTD/sodipodi-0.dtd"
   xmlns="http://www.w3.org/2000/svg"
   xmlns:svg="http://www.w3.org/2000/svg">
  <sodipodi:namedview
     id="namedview1"
     pagecolor="#ffffff"
     bordercolor="#000000"
     borderopacity="0.25"
     inkscape:showpageshadow="2"
     inkscape:pageopacity="0.0"
     inkscape:pagecheckerboard="0"
     inkscape:deskcolor="#d1d1d1"
     inkscape:document-units="px"
     inkscape:zoom="3.3970588"
     inkscape:cx="29.584416"
     inkscape:cy="105.82684"
     inkscape:window-width="2256"
     inkscape:window-height="1427"
     inkscape:window-x="0"
     inkscape:window-y="0"
     inkscape:window-maximized="1"
     inkscape:current-layer="layer1" />
  <defs
     id="defs1" />
  <g
     inkscape:label="Layer 1"
     inkscape:groupmode="layer"
     id="layer1"
     transform="translate(-37,39)">
    <path
       d="M 81.910589,-18.2 C 83.310589,-17.4 84.610589,-16.4 85.710589,-15.5 L 86.410589,-14.9 C 90.810589,-11.5 96.310589,-5.1 99.510589,-1.2 99.810589,-1.7 100.31059,-2.1 100.91059,-2.2 L 104.41059,-2.5 C 105.11059,-2.6 105.71059,-2.2 106.01059,-1.7 107.01059,-4.5 108.21059,-7.7 109.31059,-9.8 109.01059,-12.5 108.81059,-15 108.61059,-17.2 107.21059,-32.8 101.01059,-39 91.510589,-39 H 81.510589 C 73.310589,-39 66.510589,-33.3 64.910589,-25.7 68.510589,-24.3 76.210589,-21.3 81.910589,-18.2 Z"
       id="path1"
       style="fill:#000000" />
    <path
       d="M 115.41058,29.8 C 115.31058,28.8 114.41058,28.1 113.51058,28.2 L 112.91059,28.3 C 112.31059,21.8 111.41059,12 110.51059,2.6 L 111.31059,2.5 C 112.31059,2.4 113.01058,1.5 112.91059,0.6 L 112.31059,-6.5 C 112.21059,-7.5 111.31059,-8.2 110.41059,-8.1 H 109.51059 C 108.51059,-6 107.41059,-3.1 106.31059,-0.1 L 106.91059,6.2 C 107.01059,7.2 106.31059,8.1 105.31059,8.1 L 101.81059,8.4 C 100.81059,8.5 99.910589,7.8 99.910589,6.8 L 99.310589,0.1 C 96.210589,-3.7 90.410589,-10.6 85.810589,-14.2 85.610589,-14.4 85.310589,-14.6 85.110589,-14.8 84.010589,-15.7 82.810589,-16.6 81.410589,-17.4 80.610589,-17.8 79.910589,-18.2 79.010589,-18.6 80.010589,-13.1 84.410589,11.9 82.910589,37.9 82.710589,40.9 80.910589,43.5 78.110589,44.7 76.910589,45.2 75.610589,45.5 74.210589,45.5 71.310589,45.5 68.110589,44.4 65.210589,42.2 65.210589,42.2 61.110589,40.9 60.210589,35 58.710589,25.4 54.010589,-12.9 56.210589,-17.3 57.610589,-19.7 61.510589,-19.4 64.510589,-18.9 V 36 C 64.510589,38 64.910589,40.3 64.910589,40.3 69.910589,44.5 74.710589,44.8 77.610589,43.5 80.010589,42.5 81.410589,40.4 81.510589,37.9 83.110589,9.6 77.810589,-17.5 77.410589,-19.3 72.610589,-21.6 67.510589,-23.6 64.610589,-24.7 59.510589,-24.7 54.710589,-25.9 51.310589,-20 47.210589,-13 53.810589,32.1 54.710589,36.2 56.910589,46 62.910589,48.1 68.510589,48.8 70.710589,51.2 73.810589,52.6 78.010589,52.6 L 99.310589,53 C 107.51059,53 112.21059,47.2 113.31058,38.9 L 114.41058,38.8 C 115.41058,38.7 116.11058,37.8 116.01058,36.9 Z"
       id="path2"
       style="fill:#000000" />
  </g>
</svg>
