<?xml version="1.0" encoding="UTF-8" standalone="no"?>
<!-- Created with Inkscape (http://www.inkscape.org/) -->

<svg
   width="88.095001"
   height="88.095001"
   viewBox="0 0 88.095001 88.095001"
   version="1.1"
   id="svg1"
   inkscape:version="1.4.2 (ebf0e940d0, 2025-05-08)"
   sodipodi:docname="safe.svg"
   xmlns:inkscape="http://www.inkscape.org/namespaces/inkscape"
   xmlns:sodipodi="http://sodipodi.sourceforge.net/DTD/sodipodi-0.dtd"
   xmlns="http://www.w3.org/2000/svg"
   xmlns:svg="http://www.w3.org/2000/svg">
  <sodipodi:namedview
     id="namedview1"
     pagecolor="#ffffff"
     bordercolor="#000000"
     borderopacity="0.25"
     inkscape:showpageshadow="2"
     inkscape:pageopacity="0.0"
     inkscape:pagecheckerboard="0"
     inkscape:deskcolor="#d1d1d1"
     inkscape:document-units="px"
     inkscape:zoom="3.3970588"
     inkscape:cx="-9.1255411"
     inkscape:cy="114.06926"
     inkscape:window-width="2256"
     inkscape:window-height="1427"
     inkscape:window-x="0"
     inkscape:window-y="0"
     inkscape:window-maximized="1"
     inkscape:current-layer="svg1" />
  <defs
     id="defs1" />
  <path
     d="M 76.349001,82.222 70.476001,82.038 V 88.095 H 61.666001 V 82.222 H 26.612001 L 26.428001,88.095 H 17.619001 V 82.406 L 11.746001,82.222 C 10.154001,82.222 8.7780006,81.643 7.6170006,80.479 6.4520006,79.317 5.8730006,77.941 5.8730006,76.349 V 5.873 C 5.8730006,4.284 6.4520006,2.908 7.6170006,1.743 8.7780006,0.582 10.155001,0 11.746001,0 H 76.349001 C 77.938001,0 79.315001,0.582 80.479001,1.743 81.640001,2.908 82.222001,4.284 82.222001,5.873 V 76.349 C 82.222001,77.941 81.640001,79.317 80.479001,80.479 79.315001,81.643 77.938001,82.222 76.349001,82.222 Z M 73.412001,8.81 H 14.683001 V 20.372 H 11.746001 V 29.365 H 14.683001 V 52.673 H 11.746001 V 61.666 H 14.683001 V 73.412 H 73.412001 Z M 70.476001,70.476 H 17.619001 V 61.666 H 20.556001 V 52.673 H 17.619001 V 29.365 H 20.556001 V 20.372 H 17.619001 V 11.746 H 70.475001 V 70.476 Z M 48.177001,31.476 C 45.911001,29.213 43.130001,28.08 39.826001,28.08 36.522001,28.08 33.738001,29.213 31.475001,31.476 29.209001,33.741 28.079001,36.523 28.079001,39.827 28.079001,43.13 29.209001,45.915 31.475001,48.178 33.738001,50.444 36.522001,51.574 39.826001,51.574 43.130001,51.574 45.911001,50.444 48.177001,48.178 50.440001,45.915 51.573001,43.131 51.573001,39.827 51.572001,36.523 50.440001,33.741 48.177001,31.476 Z M 42.763001,43.497 C 41.906001,44.354 40.865001,44.782 39.643001,44.782 38.418001,44.782 37.377001,44.355 36.523001,43.497 35.666001,42.643 35.238001,41.601 35.238001,40.377 35.238001,39.155 35.665001,38.115 36.523001,37.257 37.377001,36.402 38.419001,35.972 39.643001,35.972 40.865001,35.972 41.906001,36.402 42.763001,37.257 43.617001,38.114 44.048001,39.155 44.048001,40.377 44.048001,41.601 43.617001,42.642 42.763001,43.497 Z M 66.071001,30.833 C 66.071001,30.099 65.796001,29.428 65.245001,28.814 64.694001,28.204 63.989001,27.897 63.135001,27.897 62.278001,27.897 61.574001,28.204 61.025001,28.814 60.474001,29.428 60.199001,30.099 60.199001,30.833 60.199001,31.934 60.686001,32.791 61.667001,33.402 V 48.819 C 60.687001,49.432 60.199001,50.287 60.199001,51.388 60.199001,52.245 60.474001,52.948 61.025001,53.498 61.575001,54.049 62.278001,54.324 63.135001,54.324 63.989001,54.324 64.695001,54.049 65.245001,53.498 65.795001,52.947 66.071001,52.245 66.071001,51.388 66.071001,50.166 65.520001,49.309 64.419001,48.819 V 33.586 C 65.521001,32.975 66.071001,32.058 66.071001,30.833 Z"
     id="path1"
     style="fill:#000000" />
</svg>
