<?xml version="1.0" encoding="UTF-8" standalone="no"?>
<!-- Created with Inkscape (http://www.inkscape.org/) -->

<svg
   width="22.798"
   height="22.798"
   viewBox="0 0 22.798001 22.798"
   version="1.1"
   id="svg1"
   inkscape:version="1.4.2 (ebf0e940d0, 2025-05-08)"
   sodipodi:docname="salt.svg"
   xmlns:inkscape="http://www.inkscape.org/namespaces/inkscape"
   xmlns:sodipodi="http://sodipodi.sourceforge.net/DTD/sodipodi-0.dtd"
   xmlns="http://www.w3.org/2000/svg"
   xmlns:svg="http://www.w3.org/2000/svg">
  <sodipodi:namedview
     id="namedview1"
     pagecolor="#ffffff"
     bordercolor="#000000"
     borderopacity="0.25"
     inkscape:showpageshadow="2"
     inkscape:pageopacity="0.0"
     inkscape:pagecheckerboard="0"
     inkscape:deskcolor="#d1d1d1"
     inkscape:document-units="px"
     inkscape:zoom="8.217228"
     inkscape:cx="31.154058"
     inkscape:cy="40.707158"
     inkscape:window-width="2256"
     inkscape:window-height="1427"
     inkscape:window-x="0"
     inkscape:window-y="0"
     inkscape:window-maximized="1"
     inkscape:current-layer="svg1" />
  <defs
     id="defs1" />
  <path
     d="M 14.9606 10.886 C 14.9657 10.8788 14.9719 10.8736 14.9771 10.8664 C 15.004 10.8323 15.036 10.8023 15.0722 10.7786 C 15.0774 10.7755 15.0794 10.7703 15.0846 10.7672 C 15.0898 10.7641 15.0898 10.7672 15.0918 10.7651 C 15.1259 10.7445 15.1621 10.729 15.2004 10.7196 L 16.0799 10.5047 L 16.8085 4.96482 L 11.8124 7.70564 L 11.8124 20.3302 L 14.9067 10.9902 C 14.9191 10.953 14.9377 10.9178 14.9604 10.8858 Z"
     id="path1"
     style="fill:#000000;stroke-width:0.264583" />
  <path
     d="M 5.26703 15.6062 L 8.44415 22.9132 L 10.9701 22.9132 L 7.38896 12.1026 Z"
     id="path2"
     style="fill:#000000;stroke-width:0.264583" />
  <path
     d="M 15.255 22.9132 L 18.0321 22.9132 L 22.6015 15.6393 L 18.275 15.968 Z"
     id="path3"
     style="fill:#000000;stroke-width:0.264583" />
  <path
     d="M 18.2173 15.1432 L 22.7978 14.7959 L 20.9684 10.1636 L 15.9445 11.3894 Z"
     id="path4"
     style="fill:#000000;stroke-width:0.264583" />
  <path
     d="M 15.409 12.1026 L 11.8279 22.9132 L 14.3539 22.9132 L 17.531 15.6062 Z"
     id="path5"
     style="fill:#000000;stroke-width:0.264583" />
  <path
     d="M 6.85347 11.3893 L 1.82957 10.1635 L 0.00021 14.7958 L 4.58068 15.1431 Z"
     id="path6"
     style="fill:#000000;stroke-width:0.264583" />
  <path
     d="M 11.4011 -0.11589 L 6.21398 4.14443 L 11.3993 6.99082 L 16.5864 4.14337 Z"
     id="path7"
     style="fill:#000000;stroke-width:0.264583" />
  <path
     d="M 6.72118 10.5056 L 7.59555 10.7174 C 7.63379 10.7268 7.66996 10.7423 7.70407 10.7629 C 7.70407 10.7629 7.70924 10.7629 7.71131 10.765 C 7.71337 10.7671 7.71854 10.7733 7.72371 10.7764 C 7.75988 10.8012 7.79192 10.8301 7.8188 10.8642 C 7.82396 10.8714 7.83016 10.8766 7.83533 10.8838 C 7.8591 10.9159 7.87667 10.9521 7.89011 10.9893 L 10.9855 20.3304 L 10.9855 7.70579 L 5.99252 4.96682 Z"
     id="path8"
     style="fill:#000000;stroke-width:0.264583" />
  <path
     d="M 0.19661 15.6393 L 4.76596 22.9132 L 7.54303 22.9132 L 4.52308 15.9679 Z"
     id="path9"
     style="fill:#000000;stroke-width:0.264583" />
</svg>
