<?xml version="1.0" encoding="UTF-8" standalone="no"?>
<!-- Created with Inkscape (http://www.inkscape.org/) -->

<svg
   width="487.814"
   height="487.814"
   viewBox="0 0 487.814 487.81399"
   version="1.1"
   id="svg1"
   inkscape:version="1.4.2 (ebf0e940d0, 2025-05-08)"
   sodipodi:docname="satchel.svg"
   xmlns:inkscape="http://www.inkscape.org/namespaces/inkscape"
   xmlns:sodipodi="http://sodipodi.sourceforge.net/DTD/sodipodi-0.dtd"
   xmlns="http://www.w3.org/2000/svg"
   xmlns:svg="http://www.w3.org/2000/svg">
  <sodipodi:namedview
     id="namedview1"
     pagecolor="#ffffff"
     bordercolor="#000000"
     borderopacity="0.25"
     inkscape:showpageshadow="2"
     inkscape:pageopacity="0.0"
     inkscape:pagecheckerboard="0"
     inkscape:deskcolor="#d1d1d1"
     inkscape:document-units="px"
     inkscape:zoom="1.2010417"
     inkscape:cx="358.02255"
     inkscape:cy="263.52125"
     inkscape:window-width="2256"
     inkscape:window-height="1427"
     inkscape:window-x="0"
     inkscape:window-y="0"
     inkscape:window-maximized="1"
     inkscape:current-layer="svg1" />
  <defs
     id="defs1" />
  <path
     d="M 172.679 147.971 C 174.542 152.305 177.983 155.655 182.366 157.401 C 186.747 159.148 191.549 159.083 195.884 157.219 L 212.434 150.102 L 176.629 66.8446 L 160.079 73.9626 C 151.132 77.8106 146.983 88.2206 150.831 97.1676 Z"
     id="path1"
     style="fill:#000000" />
  <path
     d="M 273.87 123.68 C 282.816 119.832 286.965 109.423 283.117 100.475 L 261.269 49.6706 C 258.396 42.9916 251.866 38.9856 245.018 38.9856 C 242.693 38.9856 240.332 39.4466 238.064 40.4226 L 183.977 63.6836 L 219.782 146.941 Z"
     id="path2"
     style="fill:#000000" />
  <path
     d="M 309.277 190.107 L 165.173 270.481 C 141.476 283.699 101.835 310.96 102.606 345.027 C 102.76 351.833 104.422 359.207 107.289 366.768 C 115.993 367.24 125.159 367.126 134.586 366.414 C 166.405 364.013 217.712 353.559 281.438 317.391 C 345.163 281.224 380.445 242.533 398.821 216.445 C 407.63 203.94 413.359 193.168 416.826 185.73 C 413.257 181.859 409.489 178.583 405.579 176.044 C 397.146 170.569 387.37 168.398 377.167 168.398 C 352.79 168.397 325.983 180.789 309.277 190.107 Z"
     id="path3"
     style="fill:#000000" />
  <path
     d="M 373.107 85.4046 C 399.785 88.0336 425.269 98.2236 448.93 115.681 C 450.808 112.143 452.395 108.658 453.668 105.241 C 461.131 85.2016 458.14 67.3166 444.791 52.0706 C 427.027 40.0396 404.292 32.8806 377.664 31.0936 C 343.487 28.8006 305.487 35.5786 270.21 50.2076 L 291.031 98.7496 C 319.664 87.3566 347.255 82.8566 373.107 85.4046 Z"
     id="path4"
     style="fill:#000000" />
  <path
     d="M 465.559 71.1076 C 464.828 70.1976 464.074 69.3076 463.309 68.4266 C 467.14 80.6276 466.438 93.8726 461.164 108.032 C 453.77 127.884 436.939 149.585 412.369 171.015 C 429.561 183.462 442.322 206.585 449.518 230.895 C 481.805 186.262 508.376 124.393 465.559 71.1076 Z"
     id="path5"
     style="fill:#000000" />
  <path
     d="M 200.514 415.922 C 203.951 422.083 208.681 426.976 213.834 429.699 C 218.425 432.124 222.72 432.473 225.932 430.683 C 229.143 428.892 231.103 425.053 231.452 419.873 C 231.843 414.058 230.166 407.462 226.729 401.301 C 224.173 396.72 220.792 392.735 217.085 389.899 C 209.749 392.305 202.68 394.391 195.901 396.191 C 195.179 402.127 196.831 409.318 200.514 415.922 Z"
     id="path6"
     style="fill:#000000" />
  <path
     d="M 431.93 238.964 C 411.197 268.546 371.686 312.206 301.201 352.211 C 274.001 367.649 248.709 378.833 225.819 386.917 C 228.827 389.893 231.501 393.433 233.716 397.405 C 237.897 404.901 239.928 413.071 239.434 420.411 C 238.898 428.386 235.487 434.515 229.83 437.67 C 227.251 439.108 224.392 439.825 221.373 439.825 C 217.771 439.825 213.944 438.804 210.099 436.773 C 203.595 433.336 197.71 427.315 193.53 419.819 C 189.631 412.828 187.623 405.143 187.764 398.247 C 168.723 402.539 150.247 405.52 132.563 406.659 C 142.525 417.703 154.301 427.561 166.862 434.758 C 186.733 446.142 219.58 457.156 253.253 457.158 C 273.341 457.159 293.719 453.241 311.822 443.143 L 379.13 405.602 C 427.579 378.579 446.959 314.403 448.165 277.86 C 448.723 260.943 445.625 243.026 440.002 226.752 C 437.458 230.824 434.772 234.909 431.93 238.964 Z"
     id="path7"
     style="fill:#000000" />
  <path
     d="M 297.251 345.253 C 366.44 305.983 405.117 263.28 425.379 234.372 C 429.357 228.696 433.038 222.965 436.375 217.304 C 432.467 208.092 427.744 199.652 422.435 192.528 C 418.744 200.012 413.23 209.88 405.361 221.052 C 386.513 247.809 350.399 287.449 285.386 324.348 C 220.371 361.247 167.823 371.929 135.187 374.392 L 110.807 374.936 C 114.732 383.033 119.924 391.185 126.047 398.95 C 129.445 398.832 132.896 398.661 136.358 398.408 C 171.568 395.833 228.062 384.522 297.251 345.253 Z"
     id="path8"
     style="fill:#000000" />
  <path
     d="M 97.4201 326.858 C 88.6961 329.687 79.6321 331.083 70.7901 331.083 C 54.4111 331.083 38.7961 326.308 27.5111 317.043 C 11.6411 304.014 8.35112 279.806 9.23212 258.102 C 1.93012 278.854 -1.14788 298.895 0.38312 317.136 C 2.79912 345.943 14.2201 368.469 34.3281 384.091 C 56.4061 401.242 87.5131 408.561 120.529 404.562 C 105.716 386.147 95.0511 364.757 94.6081 345.207 C 94.4631 338.832 95.4931 332.715 97.4201 326.858 Z"
     id="path9"
     style="fill:#000000" />
  <path
     d="M 32.5861 310.86 C 33.5691 311.667 34.5981 312.43 35.6621 313.158 C 49.0631 256.213 92.1481 204.212 167.079 154.445 C 166.43 153.387 165.828 152.293 165.329 151.132 L 145.218 104.371 C 104.343 127.17 67.0461 160.938 39.8421 199.856 C 32.2051 210.782 25.6181 221.783 20.1121 232.71 C 16.1371 255.111 12.6291 294.476 32.5861 310.86 Z"
     id="path10"
     style="fill:#000000" />
</svg>
