<?xml version="1.0" encoding="UTF-8" standalone="no"?>
<!-- Created with Inkscape (http://www.inkscape.org/) -->

<svg
   width="488"
   height="488"
   viewBox="0 0 488 488"
   version="1.1"
   id="svg1"
   inkscape:version="1.4.2 (ebf0e940d0, 2025-05-08)"
   sodipodi:docname="woolshirt.svg"
   xmlns:inkscape="http://www.inkscape.org/namespaces/inkscape"
   xmlns:sodipodi="http://sodipodi.sourceforge.net/DTD/sodipodi-0.dtd"
   xmlns="http://www.w3.org/2000/svg"
   xmlns:svg="http://www.w3.org/2000/svg">
  <sodipodi:namedview
     id="namedview1"
     pagecolor="#ffffff"
     bordercolor="#000000"
     borderopacity="0.25"
     inkscape:showpageshadow="2"
     inkscape:pageopacity="0.0"
     inkscape:pagecheckerboard="0"
     inkscape:deskcolor="#d1d1d1"
     inkscape:document-units="px"
     inkscape:zoom="1.2010417"
     inkscape:cx="213.56461"
     inkscape:cy="366.76496"
     inkscape:window-width="2256"
     inkscape:window-height="1427"
     inkscape:window-x="0"
     inkscape:window-y="0"
     inkscape:window-maximized="1"
     inkscape:current-layer="svg1" />
  <defs
     id="defs1" />
  <path
     id="path1"
     d="M 185.42871,0 201.56153,19.35156 C 207.34953,17.75256 222.21103,14.35547 243.99903,14.35547 265.78703,14.35547 280.65243,17.75256 286.44043,19.35156 L 302.57129,0 Z M 311.19629,2.14453 289.7334,27.89453 325.69043,52.20117 C 325.97043,49.68317 326.12793,47.1037 326.12793,44.4707 326.12793,23.4857 316.22829,8.43753 311.19629,2.14453 Z M 176.80176,2.14648 C 171.77276,8.43448 161.87207,23.4827 161.87207,44.4707 161.87207,47.1057 162.02667,49.68613 162.30567,52.20313 L 198.26661,27.89453 Z M 243.99903,22.35547 C 226.84803,22.35547 214.12293,24.59269 207.25293,26.17969 L 225.34278,47.88086 H 262.65723 L 280.74707,26.17969 C 273.87807,24.59269 261.15103,22.35547 243.99903,22.35547 Z M 156.16504,26.04688 C 148.37804,28.36788 134.92067,32.69739 120.05566,38.90039 V 79.11914 C 135.05167,70.11614 149.37367,65.10006 156.05567,63.03906 154.71967,57.27206 153.87207,51.0397 153.87207,44.4707 153.87207,37.7397 154.76404,31.58488 156.16504,26.04688 Z M 331.83497,26.04688 C 333.23597,31.58488 334.12793,37.7397 334.12793,44.4707 334.12793,51.0397 333.28034,57.27302 331.94434,63.04102 338.62634,65.10202 352.94834,70.11809 367.94434,79.12109 V 38.90039 C 353.07934,32.69739 339.62296,28.36788 331.83497,26.04688 Z M 203.417,34.07031 163.78028,60.86523 C 167.02928,75.09423 173.64353,86.373703 177.31153,91.845703 L 218.04395,51.61719 Z M 284.58301,34.07031 269.95606,51.61719 310.68067,91.839844 C 314.34567,86.357844 320.95696,75.06037 324.20997,60.85937 Z M 112.05566,42.36719 C 89.294665,52.62219 65.100977,67.00153 53.750977,85.019531 L 81.059567,117.24023 C 88.769571,103.33423 100.23366,92.517063 112.05566,84.289062 Z M 375.94434,42.36719 V 84.289062 C 387.76634,92.517062 399.23043,103.33423 406.94043,117.24023 L 434.24903,85.019531 C 422.89803,67.00153 398.70534,52.62219 375.94434,42.36719 Z M 227.46973,55.88086 V 157.25781 H 260.53028 V 55.88086 Z M 219.47168,61.45312 179.61036,100.82031 C 178.80636,101.61331 177.71011,102.02375 176.57911,101.96875 175.45211,101.90575 174.40339,101.37014 173.69239,100.49414 173.46239,100.21014 171.75653,98.076125 169.43653,94.453125 V 157.25781 H 219.47168 Z M 268.52832,61.45312 V 157.25781 H 318.56543 V 94.453125 C 316.24443,98.075125 314.53762,100.21014 314.30762,100.49414 313.59762,101.37014 312.5479,101.90575 311.4209,101.96875 311.3469,101.97275 311.27515,101.97461 311.20215,101.97461 310.15315,101.97461 309.14065,101.56131 308.38965,100.82031 Z M 158.20411,70.77734 C 151.26911,72.97934 135.59467,78.61131 120.05566,88.695312 V 157.25781 H 161.43457 V 79.34375 C 160.29157,76.68275 159.19311,73.82134 158.20411,70.77734 Z M 329.7959,70.7793 C 328.8069,73.8213 327.70843,76.68275 326.56543,79.34375 V 157.25781 H 367.94434 V 88.695312 C 352.40534,78.61131 336.7309,72.9803 329.7959,70.7793 Z M 243.99903,72.89844 C 248.81003,72.89844 252.70997,76.79837 252.70997,81.60937 252.70997,86.420375 248.81003,90.320313 243.99903,90.320312 239.18803,90.320312 235.28809,86.420375 235.28809,81.60937 235.28809,76.79837 239.18903,72.89844 243.99903,72.89844 Z M 49.958007,92.917969 C 44.764007,107.70997 40.336507,138.85241 36.645507,179.56641 L 66.885747,189.27148 C 69.555747,160.08248 72.957087,136.77011 77.288087,125.16211 Z M 438.04004,92.917969 410.71192,125.16211 C 415.04292,136.77011 418.44426,160.08248 421.11426,189.27148 L 451.3545,179.56641 C 447.6635,138.85241 443.23404,107.70997 438.04004,92.917969 Z M 112.05566,94.330078 C 101.98866,102.03708 92.65879,111.76636 86.63379,123.81836 L 112.05566,153.8125 Z M 375.94434,94.330078 V 153.8125 L 401.36621,123.81836 C 395.34021,111.76636 386.01134,102.03608 375.94434,94.330078 Z M 83.338867,132.30273 C 79.797867,144.50673 76.944507,165.74772 74.645507,191.76172 L 112.05566,203.76758 V 166.18555 Z M 404.66114,132.30273 375.94434,166.18555 V 203.76758 L 413.3545,191.76172 C 411.0565,165.74772 408.20214,144.50673 404.66114,132.30273 Z M 120.05566,165.25781 V 254.33594 H 161.43457 V 165.25781 Z M 169.43457,165.25781 V 254.33594 H 219.46973 V 165.25781 Z M 227.46973,165.25781 V 254.33594 H 260.53028 V 165.25781 Z M 268.53028,165.25781 V 254.33594 H 318.56543 V 165.25781 Z M 326.56543,165.25781 V 254.33594 H 367.94434 V 165.25781 Z M 243.99903,180.79492 C 248.81003,180.79492 252.70997,184.69486 252.70997,189.50586 252.70997,194.31686 248.81003,198.2168 243.99903,198.2168 239.18803,198.2168 235.28809,194.31686 235.28809,189.50586 235.28809,184.69486 239.18903,180.79492 243.99903,180.79492 Z M 35.926757,187.73828 C 34.045757,209.69128 32.366746,234.13156 30.885746,260.10156 L 61.887697,265.3457 C 63.021697,241.4527 64.427897,218.19136 66.170897,197.44336 Z M 452.07325,187.73828 421.82911,197.44336 C 423.57111,218.19136 424.97831,241.4527 426.11231,265.3457 L 457.11426,260.10156 C 455.63326,234.13156 453.95325,209.69028 452.07325,187.73828 Z M 73.952147,199.93945 C 72.298147,220.32845 70.954307,243.19236 69.862307,266.69336 L 112.05566,273.83008 V 212.16797 Z M 414.04786,199.94141 375.94434,212.16992 V 273.83008 L 418.1377,266.69531 C 417.0447,243.19331 415.70186,220.32941 414.04786,199.94141 Z M 120.05566,262.33594 V 351.41211 H 161.43457 V 262.33594 Z M 169.43457,262.33594 V 351.41211 H 219.46973 V 262.33594 Z M 227.46973,262.33594 V 351.41211 H 260.53028 V 262.33594 Z M 268.53028,262.33594 V 351.41211 H 318.56543 V 262.33594 Z M 326.56543,262.33594 V 351.41211 H 367.94434 V 262.33594 Z M 30.436526,268.14062 C 29.261526,289.56162 28.216756,311.92208 27.301756,334.70508 L 59.170897,339.17969 C 59.762897,317.87669 60.528607,295.46248 61.516607,273.39648 Z M 457.56348,268.14062 426.4834,273.39648 C 427.4724,295.46148 428.23515,317.87669 428.82715,339.17969 L 460.69629,334.70508 C 459.78229,311.92308 458.73848,289.56162 457.56348,268.14062 Z M 69.497067,274.74609 C 68.533067,296.72809 67.781287,319.07569 67.196287,340.30469 L 112.05566,346.60352 V 281.94336 Z M 418.50293,274.74609 375.94434,281.94336 V 346.60352 L 420.80371,340.30469 C 420.21772,319.07569 419.46693,296.72809 418.50293,274.74609 Z M 243.99903,288.69141 C 248.81003,288.69141 252.70997,292.59134 252.70997,297.40234 252.70997,302.21334 248.81003,306.11328 243.99903,306.11328 239.18803,306.11328 235.28809,302.21334 235.28809,297.40234 235.28809,292.59134 239.18903,288.69141 243.99903,288.69141 Z M 26.987306,342.73828 C 26.187306,363.44728 25.491366,384.4438 24.901366,405.3418 L 57.725587,407.06641 C 57.991587,389.64941 58.383057,369.14856 58.956057,347.22656 Z M 461.0127,342.73828 429.04395,347.22656 C 429.61695,369.14856 430.00842,389.64941 430.27442,407.06641 L 463.09864,405.3418 C 462.50764,384.4438 461.8127,363.44728 461.0127,342.73828 Z M 66.981447,348.35352 C 66.417447,370.02252 66.025887,390.28228 65.754887,407.48828 L 112.05566,409.92383 V 354.68164 Z M 421.01856,348.35352 375.94434,354.68164 V 409.92383 L 422.24512,407.48828 C 421.97412,390.28228 421.58156,370.02252 421.01856,348.35352 Z M 120.05566,359.41016 V 437.90625 C 121.16466,441.42825 122.66766,444.98228 124.55567,448.48828 H 161.43457 V 359.41016 Z M 169.43457,359.41211 V 448.49023 H 219.46973 V 359.41211 Z M 227.46973,359.41211 V 448.49023 H 260.53028 V 359.41211 Z M 268.53028,359.41211 V 448.49023 H 318.56543 V 359.41211 Z M 326.56543,359.41211 V 448.49023 H 363.44434 C 365.33234,444.98423 366.83534,441.4292 367.94434,437.9082 V 359.41211 Z M 243.99903,396.58789 C 248.81003,396.58789 252.70997,400.48783 252.70997,405.29883 252.70997,410.10983 248.81003,414.00977 243.99903,414.00977 239.18803,414.00977 235.28809,410.10983 235.28809,405.29883 235.28809,400.48783 239.18903,396.58789 243.99903,396.58789 Z M 24.680666,413.3418 C 24.374666,424.6618 24.098536,435.93747 23.852536,447.10547 23.794536,449.75747 24.782696,452.2622 26.637696,454.1582 28.494696,456.0562 30.982646,457.10352 33.639646,457.10352 H 57.182617 C 57.221617,450.09652 57.329397,435.08027 57.608397,415.07227 Z M 463.31934,413.3418 430.39161,415.07227 C 430.67061,435.07927 430.77743,450.09552 430.81543,457.10352 H 454.36036 C 457.01836,457.10352 459.50336,456.0572 461.36036,454.1582 463.21436,452.2622 464.20546,449.75747 464.14747,447.10547 463.90247,435.93847 463.62534,424.6628 463.31934,413.3418 Z M 65.635747,415.49414 C 65.346747,435.43514 65.231477,450.33252 65.188477,457.10352 H 93.495118 C 103.72912,457.10352 112.05566,448.77892 112.05566,438.54492 V 417.93555 Z M 422.36426,415.49414 375.94434,417.93359 V 438.54297 C 375.94434,448.77697 384.26989,457.10352 394.50489,457.10352 H 422.81348 C 422.76948,450.33352 422.65226,435.43614 422.36426,415.49414 Z M 129.61817,456.49023 C 137.02417,466.62123 147.76057,475.71114 161.43457,481.49414 V 456.49023 Z M 169.43457,456.49023 V 484.38867 C 177.04457,486.68867 185.40936,488 194.48536,488 H 219.46973 V 456.49023 Z M 227.46973,456.49023 V 488 H 260.53028 V 456.49023 Z M 268.53028,456.49023 V 488 H 293.51465 C 302.58965,488 310.95543,486.68767 318.56543,484.38867 V 456.49023 Z M 326.56543,456.49023 V 481.49414 C 340.23943,475.71014 350.97584,466.62123 358.38184,456.49023 Z M 37.639647,465.10352 V 488 H 89.495118 V 465.10352 Z M 398.50489,465.10352 V 488 H 450.36036 V 465.10352 Z" />
</svg>
