<?xml version="1.0" encoding="UTF-8" standalone="no"?>
<!-- Created with Inkscape (http://www.inkscape.org/) -->

<svg
   width="23.813999"
   height="23.813999"
   viewBox="0 0 23.814 23.813999"
   version="1.1"
   id="svg1"
   inkscape:version="1.4.2 (ebf0e940d0, 2025-05-08)"
   sodipodi:docname="toolbox.svg"
   xmlns:inkscape="http://www.inkscape.org/namespaces/inkscape"
   xmlns:sodipodi="http://sodipodi.sourceforge.net/DTD/sodipodi-0.dtd"
   xmlns="http://www.w3.org/2000/svg"
   xmlns:svg="http://www.w3.org/2000/svg">
  <sodipodi:namedview
     id="namedview1"
     pagecolor="#ffffff"
     bordercolor="#000000"
     borderopacity="0.25"
     inkscape:showpageshadow="2"
     inkscape:pageopacity="0.0"
     inkscape:pagecheckerboard="0"
     inkscape:deskcolor="#d1d1d1"
     inkscape:document-units="px"
     inkscape:zoom="5.8104576"
     inkscape:cx="12.735658"
     inkscape:cy="37.260404"
     inkscape:window-width="2256"
     inkscape:window-height="1427"
     inkscape:window-x="0"
     inkscape:window-y="0"
     inkscape:window-maximized="1"
     inkscape:current-layer="svg1" />
  <defs
     id="defs1">
    <inkscape:path-effect
       effect="fillet_chamfer"
       id="path-effect1"
       is_visible="true"
       lpeversion="1"
       nodesatellites_param="F,0,0,1,0,0,0,1 @ F,0,0,1,0,0,0,1 @ F,0,0,1,0,0,0,1 @ F,0,0,1,0,0,0,1 @ F,0,0,1,0,0,0,1 @ F,0,0,1,0,0,0,1 @ F,0,0,1,0,0,0,1 @ F,0,0,1,0,0,0,1 @ F,0,0,1,0,0,0,1 @ F,0,0,1,0,0,0,1 @ F,0,0,1,0,0,0,1 @ F,0,0,1,0,0,0,1 @ F,0,0,1,0,0,0,1 @ F,0,0,1,0,0,0,1 @ F,0,0,1,0,0,0,1 @ F,0,0,1,0,0,0,1 @ F,0,0,1,0,0,0,1 @ F,0,0,1,0,0,0,1 @ F,0,0,1,0,0,0,1 @ F,0,0,1,0,0,0,1 @ F,0,0,1,0,0,0,1 @ F,0,0,1,0,0,0,1 @ F,0,0,1,0,0,0,1 @ F,0,0,1,0,0,0,1 @ F,0,0,1,0,0,0,1 @ F,0,0,1,0,0,0,1 @ F,0,0,1,0,0,0,1 @ F,0,0,1,0,0,0,1 @ F,0,0,1,0,0,0,1 @ F,0,0,1,0,0,0,1 @ F,0,0,1,0,0,0,1 @ F,0,0,1,0,0,0,1 | F,0,0,1,0,0,0,1 @ F,0,0,1,0,0,0,1 @ F,0,0,1,0,0,0,1 @ F,0,0,1,0,0,0,1 @ F,0,0,1,0,0,0,1 @ F,0,0,1,0,0,0,1 @ F,0,0,1,0,0,0,1 @ F,0,0,1,0,0,0,1 @ F,0,0,1,0,0,0,1 @ F,0,0,1,0,0,0,1 @ F,0,0,1,0,0,0,1 @ F,0,0,1,0,0,0,1 @ F,0,0,1,0,0,0,1 @ F,0,0,1,0,0,0,1 @ F,0,0,1,0,0,0,1 | F,0,0,1,0,0,0,1 @ F,0,0,1,0,0,0,1 @ F,0,0,1,0,0,0,1 @ F,0,0,1,0,0,0,1"
       radius="0"
       unit="px"
       method="auto"
       mode="F"
       chamfer_steps="1"
       flexible="false"
       use_knot_distance="true"
       apply_no_radius="true"
       apply_with_radius="true"
       only_selected="false"
       hide_knots="false" />
  </defs>
  <path
     d="M 0.000134 12.7525 L 0.000134 10.1387 C 0.000134 8.29798 1.49254 6.80547 3.33335 6.80547 L 6.75336 6.80547 L 6.75336 6.17192 C 6.75336 5.98899 6.90115 5.84119 7.08409 5.84119 L 7.71763 5.84119 L 7.71763 5.27689 C 7.71763 4.7591 7.9233 4.26301 8.29022 3.89714 C 8.65608 3.53127 9.15218 3.32559 9.66893 3.32559 L 14.1452 3.32559 C 14.6619 3.32559 15.159 3.53126 15.5239 3.89714 C 15.8897 4.26301 16.0965 4.7591 16.0965 5.27689 L 16.0965 5.84119 L 16.73 5.84119 C 16.9129 5.84119 17.0607 5.98899 17.0607 6.17192 L 17.0607 6.80547 L 20.4807 6.80547 C 22.3214 6.80547 23.814 8.29788 23.814 10.1387 L 23.814 12.7525 L 13.6844 12.7525 L 13.6844 13.4139 L 23.814 13.4139 L 23.814 19.0548 C 23.814 19.4362 23.6631 19.8011 23.3944 20.0698 C 23.1246 20.3395 22.7598 20.4894 22.3794 20.4894 L 1.43608 20.4894 C 1.05574 20.4894 0.690908 20.3385 0.421165 20.0698 C 0.152454 19.8011 0.001562 19.4362 0.001562 19.0548 L 0.001562 13.4139 L 10.1322 13.4139 L 10.1322 12.7525 Z M 8.3779 5.84236 L 9.01248 5.84236 C 9.19541 5.84236 9.34321 5.99015 9.34321 6.17309 L 9.34321 6.80663 L 14.4695 6.80663 L 14.4695 6.17309 C 14.4695 5.99015 14.6173 5.84236 14.8002 5.84236 L 15.4348 5.84236 L 15.4348 5.27805 C 15.4348 4.93595 15.2984 4.60834 15.0565 4.36648 C 14.8147 4.12464 14.486 3.98821 14.145 3.98821 L 9.66875 3.98821 C 9.32767 3.98821 8.99904 4.1236 8.75718 4.36648 C 8.51534 4.60833 8.37891 4.93595 8.37891 5.27805 L 8.37891 5.84236 Z M 13.0227 13.9555 L 13.0227 11.3262 L 10.7902 11.3262 L 10.7902 13.9555 Z"
     fill-rule="evenodd"
     id="path1"
     style="fill:#000000;stroke-width:0.264583" />
</svg>
