<?xml version="1.0" encoding="UTF-8" standalone="no"?>
<!-- Created with Inkscape (http://www.inkscape.org/) -->

<svg
   width="64"
   height="64"
   viewBox="0 0 64 64"
   version="1.1"
   id="svg1"
   inkscape:version="1.4.2 (ebf0e940d0, 2025-05-08)"
   sodipodi:docname="simpleparka.svg"
   xmlns:inkscape="http://www.inkscape.org/namespaces/inkscape"
   xmlns:sodipodi="http://sodipodi.sourceforge.net/DTD/sodipodi-0.dtd"
   xmlns="http://www.w3.org/2000/svg"
   xmlns:svg="http://www.w3.org/2000/svg">
  <sodipodi:namedview
     id="namedview1"
     pagecolor="#ffffff"
     bordercolor="#000000"
     borderopacity="0.25"
     inkscape:showpageshadow="2"
     inkscape:pageopacity="0.0"
     inkscape:pagecheckerboard="0"
     inkscape:deskcolor="#d1d1d1"
     inkscape:document-units="px"
     inkscape:zoom="3.3970588"
     inkscape:cx="42.831169"
     inkscape:cy="59.904762"
     inkscape:window-width="2256"
     inkscape:window-height="1427"
     inkscape:window-x="0"
     inkscape:window-y="0"
     inkscape:window-maximized="1"
     inkscape:current-layer="svg1" />
  <defs
     id="defs1" />
  <path
     d="M 61,51.28 V 48.01 C 61,43.3 60.53,38.56 59.61,33.93 57.84,25.1 54.47,16.78 49.6,9.2 L 49.32,8.76 C 48.21,7.03 46.32,6 44.27,6 H 43.91 C 43.96,5.67 44,5.34 44,5 44,3.38 42.73,2.09 40.46,1.23 40.4,1.19 40.33,1.17 40.27,1.15 38.22,0.41 35.41,0 32,0 28.59,0 25.78,0.41 23.73,1.15 23.67,1.17 23.6,1.19 23.54,1.23 21.27,2.09 20,3.38 20,5 20,5.34 20.04,5.67 20.09,6 H 19.73 C 17.68,6 15.79,7.03 14.67,8.76 L 14.4,9.2 C 9.53,16.78 6.16,25.1 4.39,33.93 3.47,38.56 3,43.3 3,48.01 V 51.28 C 2.41,51.63 2,52.26 2,53 V 55 C 2,56.1 2.9,57 4,57 H 13 V 58 C 11.9,58 11,58.9 11,60 V 62 C 11,63.1 11.9,64 13,64 H 51 C 52.1,64 53,63.1 53,62 V 60 C 53,58.9 52.1,58 51,58 V 57 H 60 C 61.1,57 62,56.1 62,55 V 53 C 62,52.26 61.59,51.63 61,51.28 Z M 43,41 H 48.89 C 48.94,41.93 48.97,42.86 48.98,43.79 L 42,43.1 V 42 C 42,41.45 42.45,41 43,41 Z M 49,45.8 V 53 H 44 C 43.45,53 43,52.55 43,52 V 45.21 Z M 32,2 C 35.11,2 37.38,2.34 38.97,2.81 38.95,3.07 38.92,3.32 38.87,3.57 38.63,4.72 38.12,5.79 37.39,6.66 36.65,7.55 35.69,8.24 34.63,8.67 34.08,8.89 33.5,9 32.93,9 H 31.07 C 30.5,9 29.92,8.89 29.37,8.67 28.31,8.24 27.35,7.55 26.61,6.66 25.88,5.79 25.37,4.72 25.13,3.58 25.08,3.33 25.05,3.07 25.03,2.81 26.62,2.34 28.89,2 32,2 Z M 23.12,3.62 C 23.14,3.74 23.15,3.85 23.17,3.97 23.47,5.45 24.13,6.82 25.07,7.94 26.03,9.08 27.26,9.98 28.63,10.53 29.43,10.84 30.25,11 31.07,11 H 32.93 C 33.75,11 34.57,10.84 35.37,10.53 36.74,9.98 37.97,9.08 38.93,7.94 39.87,6.82 40.53,5.45 40.83,3.96 40.85,3.85 40.86,3.73 40.88,3.62 41.65,4.09 42,4.59 42,5 42,5.55 41.9,6.09 41.71,6.61 41.53,7.09 41.29,7.54 40.97,7.94 L 40.56,8.45 C 39.14,10.23 37.27,11.62 35.15,12.46 34.26,12.82 33.32,13 32.36,13 H 31.64 C 30.68,13 29.74,12.82 28.85,12.46 26.73,11.62 24.86,10.23 23.44,8.45 L 23.03,7.94 C 22.71,7.54 22.47,7.09 22.29,6.61 22.1,6.09 22,5.55 22,5 22,4.59 22.35,4.09 23.12,3.62 Z M 33,14.97 V 58 H 31 V 14.97 C 31.21,14.98 31.42,15 31.64,15 H 32.36 C 32.58,15 32.79,14.98 33,14.97 Z M 21,41 C 21.55,41 22,41.45 22,42 V 43.1 L 15.02,43.79 C 15.03,42.86 15.06,41.93 15.11,41 Z M 21,45.21 V 52 C 21,52.55 20.55,53 20,53 H 15 V 45.8 Z M 11,44.86 C 11,42.93 11.07,40.99 11.21,39.08 11.74,31.59 13.31,24.21 15.88,17.15 L 16.06,16.66 C 16.25,16.14 16.82,15.87 17.34,16.06 17.86,16.25 18.13,16.82 17.94,17.34 L 17.76,17.84 C 15.26,24.72 13.72,31.92 13.2,39.22 13.07,41.08 13,42.98 13,44.86 V 51 H 11 Z M 4,55 V 53 H 13 V 55 Z M 51,62 H 13 V 60 H 51 Z M 50.8,39.22 C 50.28,31.92 48.74,24.72 46.24,17.83 L 46.06,17.34 C 45.87,16.82 46.14,16.25 46.66,16.06 47.18,15.87 47.75,16.14 47.94,16.66 L 48.12,17.15 C 50.69,24.21 52.26,31.59 52.79,39.08 52.93,40.99 53,42.93 53,44.86 V 51 H 51 V 44.86 C 51,42.98 50.93,41.08 50.8,39.22 Z M 60,55 H 51 V 53 H 60 Z"
     id="path1"
     style="fill:#000000" />
</svg>
