<?xml version="1.0" encoding="UTF-8" standalone="no"?>
<!-- Created with Inkscape (http://www.inkscape.org/) -->

<svg
   width="125.078"
   height="125.078"
   viewBox="0 0 125.07801 125.078"
   version="1.1"
   id="svg1"
   inkscape:version="1.4.2 (ebf0e940d0, 2025-05-08)"
   sodipodi:docname="skiboots.svg"
   xmlns:inkscape="http://www.inkscape.org/namespaces/inkscape"
   xmlns:sodipodi="http://sodipodi.sourceforge.net/DTD/sodipodi-0.dtd"
   xmlns="http://www.w3.org/2000/svg"
   xmlns:svg="http://www.w3.org/2000/svg">
  <sodipodi:namedview
     id="namedview1"
     pagecolor="#ffffff"
     bordercolor="#000000"
     borderopacity="0.25"
     inkscape:showpageshadow="2"
     inkscape:pageopacity="0.0"
     inkscape:pagecheckerboard="0"
     inkscape:deskcolor="#d1d1d1"
     inkscape:document-units="px"
     inkscape:zoom="3.3970588"
     inkscape:cx="42.831169"
     inkscape:cy="76.38961"
     inkscape:window-width="2256"
     inkscape:window-height="1427"
     inkscape:window-x="0"
     inkscape:window-y="0"
     inkscape:window-maximized="1"
     inkscape:current-layer="svg1" />
  <defs
     id="defs1" />
  <path
     id="path1"
     d="M 26.5391 22.8485 C 24.5291 22.8485 22.7789 24.6483 23.1289 26.8583 L 24.6289 36.2587 L 48.3496 32.6493 L 48.3594 32.6396 C 49.5594 32.4596 50.7591 32.5679 51.8691 32.9579 C 51.5091 28.9079 50.7391 26.2782 47.2891 26.2782 C 46.6391 26.2782 45.8893 26.3693 45.0293 26.5693 C 44.0693 26.7893 43.05 26.8896 42 26.8896 C 37.33 26.8896 31.9705 24.9591 27.9805 23.1591 C 27.5005 22.9391 27.0191 22.8485 26.5391 22.8485 Z M 49.75 34.0595 C 49.3695 34.0417 48.9846 34.0606 48.5996 34.1181 L 24.2188 37.829 C 23.6487 37.909 23.1486 38.2089 22.8086 38.6689 C 22.4686 39.1289 22.3395 39.6887 22.4395 40.2587 L 22.8691 42.7392 L 30.1797 41.2685 C 30.4397 41.2185 30.7087 41.1884 30.9688 41.1884 C 32.8588 41.1884 34.5087 42.5393 34.8887 44.3993 L 35.3691 46.7997 C 35.5791 47.8497 35.3693 48.9097 34.7793 49.7997 C 34.1893 50.6897 33.2902 51.2987 32.2402 51.5087 L 24.6289 53.038 L 25.1699 56.1591 L 32.8691 54.6083 C 33.1291 54.5583 33.4002 54.5282 33.6602 54.5282 C 35.5502 54.5282 37.2001 55.8792 37.5801 57.7392 L 38.0586 60.1396 C 38.2686 61.1896 38.0588 62.2496 37.4688 63.1396 C 36.8787 64.0296 35.9797 64.6385 34.9297 64.8485 L 26.9395 66.4579 L 27.6992 70.8485 L 27.9395 70.9091 L 27.9297 70.8896 C 31.9397 71.8096 34.6686 72.4383 36.8086 73.3583 C 38.2686 70.5983 41.1602 68.7196 44.4902 68.7196 C 48.6002 68.7196 52.0495 71.5982 52.9395 75.4482 L 55.1504 74.1591 C 58.0204 72.4791 59.5598 69.2694 59.0898 65.9794 L 55.209 39.0282 C 54.989 37.4882 54.1797 36.1282 52.9297 35.1982 C 51.9922 34.5007 50.8914 34.1129 49.75 34.0595 Z M 30.959 42.6786 C 30.799 42.6786 30.629 42.6994 30.459 42.7294 L 20.1504 44.8095 C 18.8004 45.0795 17.9192 46.3989 18.1992 47.7489 L 18.6797 50.1493 C 18.9197 51.3393 19.9589 52.1493 21.1289 52.1493 C 21.2889 52.1493 21.4589 52.1285 21.6289 52.0985 L 31.9395 50.0185 C 33.2895 49.7485 34.1687 48.429 33.8887 47.079 L 33.4102 44.6786 C 33.1702 43.4886 32.129 42.6786 30.959 42.6786 Z M 33.6504 56.0185 C 33.4904 56.0185 33.3204 56.0393 33.1504 56.0693 L 22.8398 58.1493 C 21.4898 58.4193 20.6087 59.7388 20.8887 61.0888 L 21.3691 63.4892 C 21.6091 64.6792 22.6503 65.4892 23.8203 65.4892 C 23.9803 65.4892 24.1503 65.4684 24.3203 65.4384 L 34.6289 63.3583 C 35.9789 63.0883 36.8601 61.7689 36.5801 60.4189 L 36.0996 58.0185 C 35.8596 56.8285 34.8204 56.0185 33.6504 56.0185 Z M 20.2695 69.9384 C 19.9695 69.9384 19.6689 70.0093 19.3789 70.1493 L 16.3086 71.6591 C 15.3086 72.1491 14.8987 73.3485 15.3887 74.3485 L 17.9004 79.4482 C 18.2504 80.1582 18.9592 80.5692 19.6992 80.5692 C 19.9992 80.5692 20.2998 80.4983 20.5898 80.3583 L 23.6602 78.8486 C 24.6602 78.3585 25.0701 77.1591 24.5801 76.1591 L 22.0703 71.0595 C 21.7203 70.3495 21.0095 69.9384 20.2695 69.9384 Z M 44.4805 70.2196 C 42.576 70.2192 40.7493 70.9754 39.4025 72.3219 C 38.0556 73.6684 37.2989 75.4948 37.2988 77.3993 C 37.2989 79.3038 38.0556 81.1302 39.4025 82.4767 C 40.7493 83.8232 42.576 84.5795 44.4805 84.579 C 48.4456 84.5788 51.66 81.3645 51.6602 77.3993 C 51.66 73.4342 48.4456 70.2198 44.4805 70.2196 Z M 27.0801 72.2294 C 26.2701 72.4894 25.4887 72.7485 24.7188 73.0185 L 25.9395 75.5087 C 26.3495 76.3487 26.4194 77.2984 26.1094 78.1884 C 25.8094 79.0784 25.1798 79.7879 24.3398 80.2079 L 21.2695 81.7196 C 20.7895 81.9596 20.2587 82.079 19.7188 82.079 C 18.3687 82.079 17.1603 81.3281 16.5703 80.1181 L 15.1094 77.1396 C 14.2094 77.6196 13.3796 78.099 12.5996 78.579 L 14.8203 82.0087 C 15.3303 82.7987 15.4986 83.7293 15.3086 84.6493 C 15.1086 85.5693 14.5691 86.3483 13.7891 86.8583 L 10.9102 88.7196 C 10.3402 89.0896 9.68 89.288 9 89.288 C 7.8 89.288 6.69883 88.6884 6.04883 87.6884 L 4.61914 85.4794 C 3.18914 87.3794 2.45961 89.0889 2.09961 90.4189 C 1.86961 91.2589 2.04984 92.1385 2.58984 92.8486 C 2.72984 93.0285 2.87883 93.189 3.04883 93.329 C 3.27883 93.299 3.51977 93.2587 3.75976 93.2587 L 56.8789 93.2587 C 57.0689 93.0687 57.27 92.8681 57.5 92.6181 C 57.76 92.3381 58.0186 92.048 58.3086 91.788 C 61.3586 88.928 62.7803 82.6696 58.0703 73.7196 C 57.4503 74.3896 56.7202 74.9682 55.9102 75.4482 L 53.1602 77.0595 C 53.1602 77.1695 53.1797 77.2893 53.1797 77.3993 C 53.1797 82.1893 49.29 86.079 44.5 86.079 C 39.71 86.079 35.8203 82.1893 35.8203 77.3993 C 35.8203 76.4693 35.9702 75.5792 36.2402 74.7392 C 34.2402 73.8692 31.6194 73.2685 27.6094 72.3485 Z M 8.76953 77.1493 C 8.39953 77.1493 8.01969 77.2496 7.67969 77.4696 L 4.79883 79.329 C 3.86883 79.929 3.59898 81.1783 4.20898 82.1083 L 7.29883 86.8778 C 7.67883 87.4678 8.33023 87.7997 8.99023 87.7997 C 9.36023 87.7997 9.74008 87.6994 10.0801 87.4794 L 12.959 85.6181 C 13.889 85.0181 14.1588 83.7688 13.5488 82.8388 L 10.459 78.0692 C 10.079 77.4792 9.42953 77.1493 8.76953 77.1493 Z M 3.74023 94.7489 C 1.68023 94.7489 0 96.4192 0 98.4892 C 0 100.559 1.67023 102.229 3.74023 102.229 L 58.7988 102.229 C 60.8588 102.229 62.5391 100.559 62.5391 98.4892 C 62.5391 96.4192 60.8688 94.7489 58.7988 94.7489 Z"
     style="fill:#000000" />
  <path
     id="path1-6"
     d="M 89.0781 22.8485 C 87.0681 22.8485 85.318 24.6483 85.668 26.8583 L 87.168 36.2587 L 110.889 32.6493 L 110.898 32.6396 C 112.098 32.4596 113.298 32.5679 114.408 32.9579 C 114.048 28.9079 113.278 26.2782 109.828 26.2782 C 109.178 26.2782 108.428 26.3693 107.568 26.5693 C 106.608 26.7893 105.589 26.8896 104.539 26.8896 C 99.8691 26.8896 94.5095 24.9591 90.5195 23.1591 C 90.0395 22.9391 89.5581 22.8485 89.0781 22.8485 Z M 112.289 34.0595 C 111.909 34.0417 111.524 34.0606 111.139 34.1181 L 86.7578 37.829 C 86.1878 37.909 85.6877 38.2089 85.3477 38.6689 C 85.0077 39.1289 84.8785 39.6887 84.9785 40.2587 L 85.4082 42.7392 L 92.7187 41.2685 C 92.9787 41.2185 93.2478 41.1884 93.5078 41.1884 C 95.3978 41.1884 97.0477 42.5393 97.4277 44.3993 L 97.9082 46.7997 C 98.1182 47.8497 97.9084 48.9097 97.3184 49.7997 C 96.7284 50.6897 95.8293 51.2987 94.7793 51.5087 L 87.168 53.038 L 87.709 56.1591 L 95.4082 54.6083 C 95.6682 54.5583 95.9392 54.5282 96.1992 54.5282 C 98.0892 54.5282 99.7391 55.8792 100.119 57.7392 L 100.598 60.1396 C 100.808 61.1896 100.598 62.2496 100.008 63.1396 C 99.4178 64.0296 98.5187 64.6385 97.4687 64.8485 L 89.4785 66.4579 L 90.2383 70.8485 L 90.4785 70.9091 L 90.4687 70.8896 C 94.4787 71.8096 97.2077 72.4383 99.3477 73.3583 C 100.808 70.5983 103.699 68.7196 107.029 68.7196 C 111.139 68.7196 114.589 71.5982 115.479 75.4482 L 117.689 74.1591 C 120.559 72.4791 122.099 69.2694 121.629 65.9794 L 117.748 39.0282 C 117.528 37.4882 116.719 36.1282 115.469 35.1982 C 114.531 34.5007 113.43 34.1129 112.289 34.0595 Z M 93.498 42.6786 C 93.338 42.6786 93.168 42.6994 92.998 42.7294 L 82.6894 44.8095 C 81.3394 45.0795 80.4583 46.3989 80.7383 47.7489 L 81.2187 50.1493 C 81.4587 51.3393 82.498 52.1493 83.668 52.1493 C 83.828 52.1493 83.998 52.1285 84.168 52.0985 L 94.4785 50.0185 C 95.8285 49.7485 96.7077 48.429 96.4277 47.079 L 95.9492 44.6786 C 95.7092 43.4886 94.668 42.6786 93.498 42.6786 Z M 96.1894 56.0185 C 96.0294 56.0185 95.8594 56.0393 95.6894 56.0693 L 85.3789 58.1493 C 84.0289 58.4193 83.1477 59.7388 83.4277 61.0888 L 83.9082 63.4892 C 84.1482 64.6792 85.1894 65.4892 86.3594 65.4892 C 86.5194 65.4892 86.6894 65.4684 86.8594 65.4384 L 97.168 63.3583 C 98.518 63.0883 99.3991 61.7689 99.1191 60.4189 L 98.6387 58.0185 C 98.3987 56.8285 97.3594 56.0185 96.1894 56.0185 Z M 82.8086 69.9384 C 82.5086 69.9384 82.208 70.0093 81.918 70.1493 L 78.8477 71.6591 C 77.8477 72.1491 77.4377 73.3485 77.9277 74.3485 L 80.4394 79.4482 C 80.7895 80.1582 81.4983 80.5692 82.2383 80.5692 C 82.5383 80.5692 82.8389 80.4983 83.1289 80.3583 L 86.1992 78.8486 C 87.1992 78.3585 87.6091 77.1591 87.1191 76.1591 L 84.6094 71.0595 C 84.2594 70.3495 83.5486 69.9384 82.8086 69.9384 Z M 107.02 70.2196 C 105.115 70.2192 103.288 70.9754 101.942 72.3219 C 100.595 73.6684 99.838 75.4948 99.8379 77.3993 C 99.838 79.3038 100.595 81.1302 101.942 82.4767 C 103.288 83.8232 105.115 84.5795 107.02 84.579 C 110.985 84.5788 114.199 81.3645 114.199 77.3993 C 114.199 73.4342 110.985 70.2198 107.02 70.2196 Z M 89.6191 72.2294 C 88.8091 72.4894 88.0278 72.7485 87.2578 73.0185 L 88.4785 75.5087 C 88.8885 76.3487 88.9584 77.2984 88.6484 78.1884 C 88.3484 79.0784 87.7189 79.7879 86.8789 80.2079 L 83.8086 81.7196 C 83.3286 81.9596 82.7978 82.079 82.2578 82.079 C 80.9078 82.079 79.6994 81.3281 79.1094 80.1181 L 77.6484 77.1396 C 76.7484 77.6196 75.9187 78.099 75.1387 78.579 L 77.3594 82.0087 C 77.8694 82.7987 78.0377 83.7293 77.8477 84.6493 C 77.6477 85.5693 77.1081 86.3483 76.3281 86.8583 L 73.4492 88.7196 C 72.8792 89.0896 72.2191 89.288 71.5391 89.288 C 70.3391 89.288 69.2379 88.6884 68.5879 87.6884 L 67.1582 85.4794 C 65.7282 87.3794 64.9987 89.0889 64.6387 90.4189 C 64.4087 91.2589 64.5889 92.1385 65.1289 92.8486 C 65.2689 93.0285 65.4179 93.189 65.5879 93.329 C 65.8179 93.299 66.0588 93.2587 66.2988 93.2587 L 119.418 93.2587 C 119.608 93.0687 119.809 92.8681 120.039 92.6181 C 120.299 92.3381 120.558 92.048 120.848 91.788 C 123.898 88.928 125.319 82.6696 120.609 73.7196 C 119.989 74.3896 119.259 74.9682 118.449 75.4482 L 115.699 77.0595 C 115.699 77.1695 115.719 77.2893 115.719 77.3993 C 115.719 82.1893 111.829 86.079 107.039 86.079 C 102.249 86.079 98.3594 82.1893 98.3594 77.3993 C 98.3594 76.4693 98.5093 75.5792 98.7793 74.7392 C 96.7793 73.8692 94.1584 73.2685 90.1484 72.3485 Z M 71.3086 77.1493 C 70.9386 77.1493 70.5587 77.2496 70.2187 77.4696 L 67.3379 79.329 C 66.4079 79.929 66.138 81.1783 66.748 82.1083 L 69.8379 86.8778 C 70.2179 87.4678 70.8693 87.7997 71.5293 87.7997 C 71.8993 87.7997 72.2791 87.6994 72.6191 87.4794 L 75.498 85.6181 C 76.428 85.0181 76.6979 83.7688 76.0879 82.8388 L 72.998 78.0692 C 72.618 77.4792 71.9686 77.1493 71.3086 77.1493 Z M 66.2793 94.7489 C 64.2193 94.7489 62.5391 96.4192 62.5391 98.4892 C 62.5391 100.559 64.2093 102.229 66.2793 102.229 L 121.338 102.229 C 123.398 102.229 125.078 100.559 125.078 98.4892 C 125.078 96.4192 123.408 94.7489 121.338 94.7489 Z"
     style="fill:#000000" />
</svg>
