<?xml version="1.0" encoding="UTF-8" standalone="no"?>
<!-- Created with Inkscape (http://www.inkscape.org/) -->

<svg
   width="61"
   height="61"
   viewBox="0 0 61 61"
   version="1.1"
   id="svg1"
   inkscape:version="1.4.2 (ebf0e940d0, 2025-05-08)"
   sodipodi:docname="skijacket.svg"
   xmlns:inkscape="http://www.inkscape.org/namespaces/inkscape"
   xmlns:sodipodi="http://sodipodi.sourceforge.net/DTD/sodipodi-0.dtd"
   xmlns="http://www.w3.org/2000/svg"
   xmlns:svg="http://www.w3.org/2000/svg">
  <sodipodi:namedview
     id="namedview1"
     pagecolor="#ffffff"
     bordercolor="#000000"
     borderopacity="0.25"
     inkscape:showpageshadow="2"
     inkscape:pageopacity="0.0"
     inkscape:pagecheckerboard="0"
     inkscape:deskcolor="#d1d1d1"
     inkscape:document-units="px"
     inkscape:zoom="54.352941"
     inkscape:cx="41.460498"
     inkscape:cy="46.529221"
     inkscape:window-width="2256"
     inkscape:window-height="1427"
     inkscape:window-x="0"
     inkscape:window-y="0"
     inkscape:window-maximized="1"
     inkscape:current-layer="svg1"
     showgrid="true" />
  <defs
     id="defs1" />
  <path
     id="path1"
     style="fill:#000000"
     d="M 30.5 0 C 27.39 0 24.51 0.5601563 23 1.4101562 L 24.720703 6.5800781 C 26.360703 6.2100781 28.38 6 30.5 6 C 32.8 6 34.950391 6.2399219 36.650391 6.6699219 L 38.789062 1.859375 C 38.699064 1.849375 38.599297 1.8197656 38.529297 1.7597656 C 37.239297 0.70976565 34.02 0 30.5 0 z M 21.201172 1.7148438 C 20.71416 1.6945313 20.245313 1.8015625 19.789062 2.0390625 C 17.659063 3.1690625 16.479141 6.779375 16.119141 8.109375 L 24.75 9.8398438 L 22.099609 1.890625 C 21.792109 1.785625 21.493379 1.7270312 21.201172 1.7148438 z M 40.767578 1.7148438 C 40.483164 1.7265039 40.184141 1.785625 39.869141 1.890625 L 36.349609 9.8203125 L 44.939453 8.0996094 C 44.729453 6.8196094 43.989844 3.1907813 42.089844 2.0507812 C 41.677344 1.8070314 41.241602 1.6954102 40.767578 1.7148438 z M 30.5 7 C 28.49 7 26.589064 7.1990625 25.039062 7.5390625 L 25.859375 10 L 35.169922 10 L 36.240234 7.5996094 C 34.640234 7.2196094 32.64 7 30.5 7 z M 15.490234 9.0097656 C 14.680234 9.1897656 5.03 12.130313 5 49.320312 C 5.48 49.880313 7.5992186 51.989219 10.949219 50.699219 C 11.759219 38.759219 14.710391 19.339922 15.150391 16.419922 C 15.200391 16.149922 15.450703 15.969766 15.720703 16.009766 C 16.000703 16.049766 16.180625 16.300078 16.140625 16.580078 C 14.480625 27.380078 10.509844 56.109297 12.089844 59.279297 C 12.109844 59.309297 12.120859 59.339141 12.130859 59.369141 C 12.890859 60.009141 19.05 60.840469 28 60.980469 L 28 14.560547 L 24.980469 26.619141 C 24.930469 26.849141 24.72 27 24.5 27 C 24.46 27 24.420859 27.000234 24.380859 26.990234 C 24.110859 26.920234 23.949531 26.650859 24.019531 26.380859 L 27.859375 11 L 25.5 11 C 25.48 11 25.459453 10.990234 25.439453 10.990234 L 25.400391 10.990234 L 15.490234 9.0097656 z M 45.509766 9.0097656 L 35.599609 10.990234 L 35.560547 10.990234 C 35.540547 10.990234 35.52 11 35.5 11 L 33.140625 11 L 36.990234 26.380859 C 37.050234 26.650859 36.889141 26.920234 36.619141 26.990234 C 36.579141 27.000234 36.54 27 36.5 27 C 36.28 27 36.069766 26.849141 36.009766 26.619141 L 33 14.560547 L 33 60.980469 C 42.03 60.840469 48.249531 59.999141 49.019531 59.369141 L 49.050781 59.279297 C 49.510781 58.359297 49.500703 55.280859 49.220703 51.130859 L 49.220703 51.119141 C 48.520703 40.939141 46.189766 24.240078 45.009766 16.580078 C 44.959766 16.300078 45.149922 16.049766 45.419922 16.009766 C 45.699922 15.959766 45.950234 16.149922 45.990234 16.419922 C 46.440234 19.339922 49.399219 38.82 50.199219 50.75 C 53.469219 51.92 55.53 49.870313 56 49.320312 C 55.97 12.190312 46.349766 9.1997656 45.509766 9.0097656 z M 29 11 L 29 60.990234 C 29.49 61.000234 29.99 61 30.5 61 C 31.01 61 31.51 61.000234 32 60.990234 L 32 11 L 29 11 z M 23.046875 31.382812 A 0.64999998 0.64999998 0 0 1 23.578125 31.603516 A 0.64999998 0.64999998 0 0 1 23.517578 32.519531 L 17.521484 37.78125 A 0.64999998 0.64999998 0 0 1 16.603516 37.722656 A 0.64999998 0.64999998 0 0 1 16.664062 36.804688 L 22.660156 31.542969 A 0.64999998 0.64999998 0 0 1 23.046875 31.382812 z M 37.943359 31.457031 A 0.64999998 0.64999998 0 0 1 38.414062 31.617188 L 44.410156 36.878906 A 0.64999998 0.64999998 0 0 1 44.470703 37.794922 A 0.64999998 0.64999998 0 0 1 43.552734 37.855469 L 37.556641 32.59375 A 0.64999998 0.64999998 0 0 1 37.496094 31.675781 A 0.64999998 0.64999998 0 0 1 37.943359 31.457031 z M 15.5 43 L 25.5 43 C 25.78 43 26 43.22 26 43.5 L 26 50.5 C 26 50.78 25.78 51 25.5 51 L 15.5 51 C 15.22 51 15 50.78 15 50.5 L 15 43.5 C 15 43.22 15.22 43 15.5 43 z M 35.5 43 L 45.5 43 C 45.78 43 46 43.22 46 43.5 L 46 50.5 C 46 50.78 45.78 51 45.5 51 L 35.5 51 C 35.22 51 35 50.78 35 50.5 L 35 43.5 C 35 43.22 35.22 43 35.5 43 z M 16 44 L 16 50 L 25 50 L 25 44 L 16 44 z M 36 44 L 36 50 L 45 50 L 45 44 L 36 44 z M 20.5 46 C 21.33 46 22 46.67 22 47.5 C 22 48.278125 21.411804 48.91554 20.654297 48.992188 C 20.603796 48.997297 20.551875 49 20.5 49 C 20.39625 49 20.29502 48.988691 20.197266 48.96875 C 20.148389 48.958779 20.099739 48.948176 20.052734 48.933594 C 20.00573 48.919011 19.960898 48.901758 19.916016 48.882812 C 19.871133 48.863867 19.827668 48.841418 19.785156 48.818359 C 19.700132 48.772241 19.61897 48.719282 19.544922 48.658203 C 19.507898 48.627664 19.473359 48.594453 19.439453 48.560547 C 19.405547 48.526641 19.372336 48.492102 19.341797 48.455078 C 19.311257 48.418054 19.282783 48.379736 19.255859 48.339844 C 19.228936 48.299951 19.2047 48.257356 19.181641 48.214844 C 19.135522 48.129819 19.095571 48.041274 19.066406 47.947266 C 19.051824 47.900261 19.041221 47.851611 19.03125 47.802734 C 19.021279 47.753857 19.012922 47.704797 19.007812 47.654297 C 19.002703 47.603796 19 47.551875 19 47.5 C 19 47.448125 19.002703 47.396204 19.007812 47.345703 C 19.012922 47.295203 19.021279 47.246143 19.03125 47.197266 C 19.041221 47.148389 19.051824 47.099739 19.066406 47.052734 C 19.080989 47.00573 19.098242 46.960898 19.117188 46.916016 C 19.136133 46.871133 19.158582 46.827668 19.181641 46.785156 C 19.2047 46.742644 19.228936 46.700049 19.255859 46.660156 C 19.282783 46.620264 19.311257 46.581946 19.341797 46.544922 C 19.372336 46.507898 19.405547 46.473359 19.439453 46.439453 C 19.507266 46.371641 19.580371 46.309707 19.660156 46.255859 C 19.739941 46.202012 19.82625 46.155078 19.916016 46.117188 C 19.960898 46.098242 20.00573 46.080989 20.052734 46.066406 C 20.099739 46.051824 20.148389 46.041221 20.197266 46.03125 C 20.246143 46.021279 20.295203 46.012923 20.345703 46.007812 C 20.396204 46.002703 20.448125 46 20.5 46 z M 40.5 46 C 41.33 46 42 46.67 42 47.5 C 42 48.278125 41.411804 48.91554 40.654297 48.992188 C 40.603796 48.997297 40.551875 49 40.5 49 C 40.39625 49 40.29502 48.988691 40.197266 48.96875 C 40.148389 48.958779 40.099739 48.948176 40.052734 48.933594 C 40.00573 48.919011 39.960898 48.901758 39.916016 48.882812 C 39.871133 48.863867 39.827668 48.841418 39.785156 48.818359 C 39.742644 48.7953 39.700049 48.771064 39.660156 48.744141 C 39.540479 48.663369 39.433416 48.56615 39.341797 48.455078 C 39.280718 48.38103 39.227759 48.299868 39.181641 48.214844 C 39.158582 48.172332 39.136133 48.128867 39.117188 48.083984 C 39.098242 48.039102 39.080989 47.99427 39.066406 47.947266 C 39.051824 47.900261 39.041221 47.851611 39.03125 47.802734 C 39.021279 47.753857 39.012923 47.704797 39.007812 47.654297 C 39.002703 47.603796 39 47.551875 39 47.5 C 39 47.448125 39.002703 47.396204 39.007812 47.345703 C 39.012923 47.295203 39.021279 47.246143 39.03125 47.197266 C 39.041221 47.148389 39.051824 47.099739 39.066406 47.052734 C 39.080989 47.00573 39.098242 46.960898 39.117188 46.916016 C 39.136133 46.871133 39.158582 46.827668 39.181641 46.785156 C 39.2047 46.742644 39.228936 46.700049 39.255859 46.660156 C 39.282783 46.620264 39.311257 46.581946 39.341797 46.544922 C 39.402876 46.470874 39.470874 46.402876 39.544922 46.341797 C 39.581946 46.311257 39.620264 46.282783 39.660156 46.255859 C 39.700049 46.228936 39.742644 46.2047 39.785156 46.181641 C 39.827668 46.158582 39.871133 46.136133 39.916016 46.117188 C 39.960898 46.098242 40.00573 46.080989 40.052734 46.066406 C 40.193748 46.022659 40.344375 46 40.5 46 z " />
  <path
     style="fill:#000000;stroke:none;stroke-width:1.3;stroke-linecap:round;stroke-linejoin:round;stroke-miterlimit:3.9;stroke-dasharray:none;paint-order:stroke fill markers"
     d="M 18.471862,45.922078 18.582251,49.362554 22.832251,49.344156 22.556277,45.462121 Z"
     id="path5" />
  <path
     style="fill:#000000;stroke:none;stroke-width:1.3;stroke-linecap:round;stroke-linejoin:round;stroke-miterlimit:3.9;stroke-dasharray:none;paint-order:stroke fill markers"
     d="M 38.452381,45.48052 C 38.433983,45.572511 38.415585,49.141775 38.415585,49.141775 L 42.426407,49.270563 42.683983,45.79329 Z"
     id="path6" />
</svg>
