<?xml version="1.0" encoding="UTF-8" standalone="no"?>
<!-- Created with Inkscape (http://www.inkscape.org/) -->

<svg
   width="87.499001"
   height="87.499001"
   viewBox="0 0 87.499001 87.499001"
   version="1.1"
   id="svg1"
   inkscape:version="1.4.2 (ebf0e940d0, 2025-05-08)"
   sodipodi:docname="skillet.svg"
   xmlns:inkscape="http://www.inkscape.org/namespaces/inkscape"
   xmlns:sodipodi="http://sodipodi.sourceforge.net/DTD/sodipodi-0.dtd"
   xmlns="http://www.w3.org/2000/svg"
   xmlns:svg="http://www.w3.org/2000/svg">
  <sodipodi:namedview
     id="namedview1"
     pagecolor="#ffffff"
     bordercolor="#000000"
     borderopacity="0.25"
     inkscape:showpageshadow="2"
     inkscape:pageopacity="0.0"
     inkscape:pagecheckerboard="0"
     inkscape:deskcolor="#d1d1d1"
     inkscape:document-units="px"
     inkscape:zoom="9.6083333"
     inkscape:cx="62.029489"
     inkscape:cy="50.008673"
     inkscape:window-width="2256"
     inkscape:window-height="1427"
     inkscape:window-x="0"
     inkscape:window-y="0"
     inkscape:window-maximized="1"
     inkscape:current-layer="svg1" />
  <defs
     id="defs1" />
  <path
     d="M 60.608757,53.933818 C 60.819655,54.617421 60.93682,55.344035 60.93682,56.097938 V 56.101717 C 60.93682,65.461113 53.35093,73.046738 43.991837,73.046738 H 16.944823 C 7.5854235,73.046738 -1.7534612e-4,65.46081 -1.7534612e-4,56.101717 V 56.097938 C -1.7534612e-4,52.082341 3.253722,48.828432 7.2693227,48.828432 H 53.667314 C 54.554029,48.828432 55.409525,48.988684 56.194609,49.277667 56.205947,49.273887 56.213507,49.266328 56.224845,49.258769 L 82.786836,33.633748 C 84.275138,32.75875 86.19306,33.258819 87.068058,34.743153 87.943056,36.231456 87.442987,38.149377 85.958653,39.024375 Z M 46.116725,40.367846 C 47.335547,41.58663 47.335547,43.57092 46.116725,44.789742 44.897941,46.008527 42.913651,46.008527 41.694829,44.789742 37.874558,40.965541 38.050344,36.684243 39.483957,32.148734 40.265185,29.691739 41.456643,27.148722 42.023043,24.617534 42.425374,22.836318 42.49178,21.047241 41.327724,19.344148 40.351169,17.922252 40.714458,15.976929 42.140247,15.000337 43.562143,14.023783 45.507428,14.387071 46.48402,15.812822 49.964549,20.894851 48.25745,26.351846 46.296555,31.617824 45.726262,33.149024 45.163755,34.653049 44.91767,36.117843 44.663686,37.621717 44.816001,39.070939 46.116876,40.367846 Z M 30.694741,40.367846 C 31.913525,41.58663 31.913525,43.57092 30.694741,44.789742 29.472026,46.008527 27.491629,46.008527 26.272845,44.789742 22.45254,40.965541 22.62444,36.684243 24.061942,32.148734 24.839281,29.691739 26.034659,27.148722 26.601059,24.617534 26.999497,22.836318 27.069796,21.047241 25.905739,19.344148 24.92917,17.922252 25.292435,15.976929 26.714331,15.000337 28.14012,14.023783 30.085405,14.387071 31.058105,15.812822 34.542527,20.894851 32.835428,26.351846 30.87442,31.617824 30.304127,33.149024 29.74162,34.653049 29.491604,36.117843 29.241777,37.621717 29.394092,39.070939 30.694703,40.367846 Z M 15.370741,40.367846 C 16.58954,41.58663 16.58954,43.57092 15.370741,44.789742 14.151941,46.008527 12.171541,46.008527 10.952741,44.789742 7.1324396,40.965541 7.30434,36.684243 8.7418418,32.148734 9.523089,29.691739 10.71064,27.148722 11.28094,24.617534 11.679382,22.836318 11.749692,21.047241 10.585632,19.344148 9.6090695,17.922252 9.9723502,15.976929 11.398132,15.000337 12.820032,14.023783 14.765332,14.387071 15.741932,15.812822 19.222431,20.894851 17.511431,26.351846 15.55443,31.617824 14.98021,33.149024 14.417733,34.653049 14.171633,36.117843 13.921617,37.621717 14.070077,39.070939 15.370831,40.367846 Z"
     fill-rule="evenodd"
     id="path1"
     style="fill:#000000;stroke-width:0.999999" />
</svg>
