<?xml version="1.0" encoding="UTF-8" standalone="no"?>
<!-- Created with Inkscape (http://www.inkscape.org/) -->

<svg
   width="72.000999"
   height="72.000999"
   viewBox="0 0 72.000999 72.001"
   version="1.1"
   id="svg1"
   inkscape:version="1.4.2 (ebf0e940d0, 2025-05-08)"
   sodipodi:docname="snowpants.svg"
   xmlns:inkscape="http://www.inkscape.org/namespaces/inkscape"
   xmlns:sodipodi="http://sodipodi.sourceforge.net/DTD/sodipodi-0.dtd"
   xmlns="http://www.w3.org/2000/svg"
   xmlns:svg="http://www.w3.org/2000/svg">
  <sodipodi:namedview
     id="namedview1"
     pagecolor="#ffffff"
     bordercolor="#000000"
     borderopacity="0.25"
     inkscape:showpageshadow="2"
     inkscape:pageopacity="0.0"
     inkscape:pagecheckerboard="0"
     inkscape:deskcolor="#d1d1d1"
     inkscape:document-units="px"
     inkscape:zoom="6.7941176"
     inkscape:cx="11.701299"
     inkscape:cy="68.95671"
     inkscape:window-width="2256"
     inkscape:window-height="1427"
     inkscape:window-x="0"
     inkscape:window-y="0"
     inkscape:window-maximized="1"
     inkscape:current-layer="svg1" />
  <defs
     id="defs1" />
  <path
     d="M 13.2805,71.628 C 13.46831,71.8644 13.72831,71.9988 14.0005,72 H 26.0005 C 26.4683,72.017759 26.8837,71.643839 27.0005,71.099999 L 36.0005,29.916 45.0005,71.099999 C 45.1173,71.643839 45.5327,72.017759 46.0005,72 H 58.0005 C 58.2657,72 58.5201,71.873519 58.7076,71.64852 58.8951,71.423519 59.0005,71.11824 59.0005,70.799999 L 57.0005,8.4 C 57.2657,8.4 57.5201,8.273568 57.7076,8.048532 57.8951,7.823484 58.0005,7.518264 58.0005,7.2 V 2.4 C 58.0005,2.081736 57.8951,1.776516 57.7076,1.551468 57.5201,1.326432 57.2657,1.2 57.0005,1.2 H 51.0005 C 51.0005,0.8817408 50.8951,0.576516 50.7076,0.3514716 50.5201,0.1264284 50.2657,0 50.0005,0 H 46.0005 C 45.7353,0 45.4809,0.1264284 45.2934,0.3514716 45.1059,0.576516 45.0005,0.8817408 45.0005,1.2 H 40.0005 C 40.0005,0.8817408 39.8951,0.576516 39.7076,0.3514716 39.5201,0.1264284 39.2657,0 39.0005,0 H 33.0005 C 32.7353,0 32.4809,0.1264284 32.2934,0.3514716 32.1059,0.576516 32.0005,0.8817408 32.0005,1.2 H 27.0005 C 27.0005,0.8817408 26.8951,0.576516 26.7076,0.3514716 26.5201,0.1264284 26.2657,0 26.0005,0 H 22.0005 C 21.7353,0 21.4809,0.1264284 21.2934,0.3514716 21.1059,0.576516 21.0005,0.8817408 21.0005,1.2 H 15.0005 C 14.73528,1.2 14.48093,1.326432 14.29339,1.551468 14.10586,1.776516 14.0005,2.081736 14.0005,2.4 V 7.2 C 14.0005,7.518264 14.10586,7.823484 14.29339,8.048532 14.48093,8.273568 14.73528,8.4 15.0005,8.4 L 13.0005,70.799999 C 13.00153,71.108999 13.10182,71.405519 13.2805,71.628 Z M 56.7405,62.399999 H 45.1905 L 44.6705,60 H 56.6705 Z M 56.1705,44.399999 H 41.2405 L 40.7205,42 H 56.0905 Z M 51.0005,3.6 H 56.0005 V 6 H 51.0005 Z M 49.0005,14.4 H 55.2305 L 55.6605,28.103999 C 51.6705,26.407319 49.0029,21.879719 49.0005,16.799999 Z M 40.0005,3.6 H 45.0005 V 6 H 40.0005 Z M 55.9405,37.2 56.0005,39.6 H 40.1905 L 39.6705,37.2 Z M 39.0005,23.256 36.0005,25.199999 V 9.6 H 39.0005 Z M 34.0005,2.4 H 38.0005 V 7.2 H 34.0005 Z M 27.0005,3.6 H 32.0005 V 6 H 27.0005 Z M 23.0005,14.4 V 16.799999 C 22.9981,21.879719 20.3305,26.407319 16.3405,28.103999 L 16.7705,14.4 Z M 16.0005,3.6 H 21.0005 V 6 H 16.0005 Z M 16.0605,37.2 H 32.3305 L 31.8105,39.6 H 16.0005 Z M 15.9105,42 H 31.2805 L 30.7605,44.399999 H 15.8305 Z M 15.3405,60 H 27.3405 L 26.8205,62.399999 H 15.2605 Z"
     id="path1"
     style="fill:#000000;stroke-width:1.09545" />
</svg>
