<?xml version="1.0" encoding="UTF-8" standalone="no"?>
<!-- Created with Inkscape (http://www.inkscape.org/) -->

<svg
   width="92.988998"
   height="92.988998"
   viewBox="0 0 92.988998 92.988999"
   version="1.1"
   id="svg1"
   inkscape:version="1.4.2 (ebf0e940d0, 2025-05-08)"
   sodipodi:docname="socks.svg"
   xmlns:inkscape="http://www.inkscape.org/namespaces/inkscape"
   xmlns:sodipodi="http://sodipodi.sourceforge.net/DTD/sodipodi-0.dtd"
   xmlns="http://www.w3.org/2000/svg"
   xmlns:svg="http://www.w3.org/2000/svg">
  <sodipodi:namedview
     id="namedview1"
     pagecolor="#ffffff"
     bordercolor="#000000"
     borderopacity="0.25"
     inkscape:showpageshadow="2"
     inkscape:pageopacity="0.0"
     inkscape:pagecheckerboard="0"
     inkscape:deskcolor="#d1d1d1"
     inkscape:document-units="px"
     inkscape:zoom="4.8041667"
     inkscape:cx="80.138769"
     inkscape:cy="98.352125"
     inkscape:window-width="2256"
     inkscape:window-height="1427"
     inkscape:window-x="0"
     inkscape:window-y="0"
     inkscape:window-maximized="1"
     inkscape:current-layer="svg1" />
  <defs
     id="defs1" />
  <path
     d="M 66.435071,0.68309075 65.849131,-1.7231092 C 65.579601,-2.8169092 64.673331,-3.5825092 63.603031,-3.7114092 L 66.946831,13.116591 C 67.056211,13.659561 66.704641,14.186891 66.161671,14.292391 66.095265,14.308016 66.028861,14.311922 65.966361,14.311922 65.497611,14.311922 65.083551,13.983802 64.985891,13.507232 L 61.603091,-3.5157682 59.513291,-3.2071782 62.853091,14.093822 C 62.958561,14.636792 62.603091,15.160222 62.060121,15.265722 61.997621,15.27744 61.931211,15.285253 61.868711,15.285253 61.399961,15.285253 60.978091,14.953223 60.888241,14.472753 L 57.528841,-2.9142472 55.626541,-2.6329972 58.532741,15.047003 C 58.622584,15.593873 58.251491,16.105603 57.708521,16.195403 57.653833,16.203216 57.599141,16.211028 57.544461,16.211028 57.063991,16.211028 56.638211,15.863368 56.560081,15.375088 L 53.649881,-2.3359122 51.724081,-2.0507522 54.278781,15.734248 C 54.356906,16.281118 53.978001,16.788948 53.431121,16.867048 53.384246,16.87486 53.333465,16.87486 53.286591,16.87486 52.798311,16.87486 52.368621,16.51549 52.298311,16.01549 L 49.743611,-1.7615102 47.747511,-1.4646302 50.310011,16.37137 C 50.388136,16.91825 50.009231,17.42607 49.462351,17.50417 49.415476,17.511982 49.364695,17.511982 49.317821,17.511982 48.829541,17.511982 48.399851,17.152602 48.329541,16.652602 L 45.786541,-1.0623982 C 44.755341,-0.59364825 44.095141,0.50790175 44.247441,1.6798018 L 46.388041,17.921802 C 47.473941,27.601502 42.208341,40.569802 37.114641,53.112802 36.544331,54.523002 35.974041,55.925302 35.419341,57.308102 32.880241,63.855002 32.532641,72.566102 39.927141,75.538102 40.106831,75.612321 40.317761,75.670912 40.532611,75.706072 50.887611,77.510772 55.161611,70.405272 58.958611,62.319072 L 59.747671,60.455772 C 63.728171,51.080772 67.485971,42.221772 73.520671,36.525772 78.512871,31.744572 78.262871,27.353872 72.598791,20.337772 70.598791,17.802572 68.575391,9.4857718 66.434691,0.68177175 Z"
     id="path1"
     style="fill:#000000"
     transform="translate(5.0000003,17)" />
  <path
     d="M 46.189071,-3.2579092 48.118771,-3.5430692 C 47.786741,-6.2578692 47.478151,-9.2539692 47.177361,-12.156369 L 46.857051,-15.230569 C 46.751581,-16.222759 45.942991,-16.964969 44.954751,-17.000069 L 45.794591,-3.1600692 C 45.931311,-3.1913192 46.056311,-3.2381942 46.189121,-3.2577252 Z"
     id="path2"
     style="fill:#000000"
     transform="translate(5.0000003,17)" />
  <path
     d="M 43.193071,30.101091 C 44.271171,25.745591 44.798571,21.686991 44.403971,18.163091 L 42.267271,1.9440908 C 42.056331,0.34249075 42.708681,-1.1848092 43.857071,-2.1770092 V -2.1809152 L 42.958631,-16.985915 40.845331,-16.962478 41.814081,0.63152175 C 41.845331,1.1823018 41.423451,1.6549218 40.868771,1.6862218 H 40.814084 C 40.286744,1.6862218 39.845334,1.2721618 39.817994,0.74091175 L 38.845334,-16.943088 36.923434,-16.91965 37.411714,0.99034975 C 37.427339,1.5411298 36.989834,2.0020498 36.439054,2.0176498 H 36.41171 C 35.87265,2.0176498 35.42733,1.5879598 35.41171,1.0449898 L 34.92343,-16.89601 32.97813,-16.872572 33.10704,1.0964278 C 33.110946,1.6472078 32.66563,2.1003278 32.11485,2.1042278 H 32.107037 C 31.560157,2.1042278 31.110947,1.6589178 31.107037,1.1120378 L 30.978127,-16.852962 28.958627,-16.829524 29.087537,1.1904758 C 29.091443,1.7412558 28.646127,2.1943758 28.095347,2.1982758 H 28.087534 C 27.540654,2.1982758 27.091444,1.7529658 27.087534,1.2060858 L 26.958624,-16.797914 C 25.915624,-16.747133 25.071924,-15.879944 25.068024,-14.829114 L 24.989899,2.1978858 C 24.755519,11.932286 17.786799,24.072886 11.044899,35.806886 10.287089,37.127186 9.5331988,38.439686 8.7948988,39.740486 5.3807988,45.908486 3.8651988,54.517486 10.857399,58.443486 10.990209,58.517705 11.150369,58.588016 11.306619,58.638796 21.376619,61.880996 26.572619,55.400496 31.439619,47.888796 L 32.470819,46.162196 C 35.994219,40.244196 39.318519,34.654196 43.185819,30.115196 43.181913,30.107384 43.189726,30.103477 43.193632,30.099571 Z"
     id="path3"
     style="fill:#000000"
     transform="translate(5.0000003,17)" />
</svg>
