<?xml version="1.0" encoding="UTF-8" standalone="no"?>
<!-- Created with Inkscape (http://www.inkscape.org/) -->

<svg
   width="83.036003"
   height="83.036003"
   viewBox="0 0 83.036003 83.036003"
   version="1.1"
   id="svg1"
   inkscape:version="1.4.2 (ebf0e940d0, 2025-05-08)"
   sodipodi:docname="spelunker.svg"
   xmlns:inkscape="http://www.inkscape.org/namespaces/inkscape"
   xmlns:sodipodi="http://sodipodi.sourceforge.net/DTD/sodipodi-0.dtd"
   xmlns="http://www.w3.org/2000/svg"
   xmlns:svg="http://www.w3.org/2000/svg">
  <sodipodi:namedview
     id="namedview1"
     pagecolor="#ffffff"
     bordercolor="#000000"
     borderopacity="0.25"
     inkscape:showpageshadow="2"
     inkscape:pageopacity="0.0"
     inkscape:pagecheckerboard="0"
     inkscape:deskcolor="#d1d1d1"
     inkscape:document-units="px"
     inkscape:zoom="4.8041667"
     inkscape:cx="23.417173"
     inkscape:cy="60.468344"
     inkscape:window-width="2256"
     inkscape:window-height="1427"
     inkscape:window-x="0"
     inkscape:window-y="0"
     inkscape:window-maximized="1"
     inkscape:current-layer="svg1" />
  <defs
     id="defs1" />
  <path
     d="M 57.051402,56.8017 C 56.926402,59.0048 56.418592,60.8017 55.215502,62.0829 54.106102,63.2626 52.426402,63.9774 50.039702,64.2587 50.016264,63.1571 49.567042,62.1025 48.785802,61.3251 47.985022,60.52041 46.895202,60.0712 45.758502,60.0712 H 37.274102 C 36.141302,60.0712 35.051402,60.52042 34.246802,61.3251 33.465552,62.10635 33.016302,63.1649 32.996802,64.2743 30.348402,63.98524 28.559302,63.1766 27.438202,61.8095 26.227302,60.3329 25.817102,58.2626 25.813202,55.7236 25.801484,50.2744 27.711602,42.8256 29.239002,34.1106 H 53.657002 C 54.028092,36.2317 57.239002,53.5286 57.051502,56.8016 Z M 44.660402,55.6845 C 44.785402,55.33684 44.851812,54.96184 44.851812,54.5712 44.851812,54.12198 44.644782,53.3329 44.301032,52.4618 43.640872,50.7782 42.539332,48.6766 42.539332,48.6766 42.340112,48.29769 41.945582,48.05941 41.515932,48.05941 41.086242,48.05941 40.695622,48.29769 40.496432,48.6766 40.496432,48.6766 39.394832,50.7782 38.730832,52.4618 38.390992,53.33289 38.180052,54.122 38.180052,54.5712 38.180052,55.20011 38.355832,55.79 38.660522,56.29 36.930022,55.38766 35.730822,53.6064 35.805022,51.5478 35.828459,50.91108 35.332362,50.3759 34.695622,50.3525 34.058902,50.329062 33.523722,50.82906 33.500322,51.4658 33.344072,55.7353 36.949522,59.2275 41.223022,59.2275 45.484722,59.2275 48.945722,55.7666 48.945722,51.5048 48.945722,50.2939 48.348062,48.5517 47.457422,46.7314 45.555122,42.8369 42.387122,38.4619 42.387122,38.4619 42.105872,38.07518 41.617592,37.90331 41.156622,38.0244 40.695682,38.14549 40.355842,38.54002 40.305062,39.01268 39.996472,41.81738 37.711262,44.17288 35.984762,46.37988 35.590232,46.87988 35.680072,47.60648 36.180072,47.99708 36.683982,48.39161 37.410572,48.30177 37.801172,47.80177 39.238672,45.96197 40.933972,43.98537 41.890972,41.80567 42.930072,43.36817 44.351872,45.62987 45.383172,47.74317 46.090202,49.18847 46.637072,50.54397 46.637072,51.50487 46.637072,53.18847 45.867542,54.69237 44.660472,55.68457 Z M 41.515902,51.829 C 41.742462,52.31338 41.965122,52.82509 42.152622,53.3056 42.363562,53.83294 42.547152,54.29779 42.547152,54.5712 42.547152,55.13761 42.086212,55.5985 41.515952,55.5985 40.949542,55.5985 40.488652,55.13756 40.488652,54.5712 40.488652,54.29776 40.672242,53.83292 40.883182,53.3056 41.066772,52.82513 41.293342,52.31341 41.515992,51.829 Z M 35.301102,65.368 V 64.3524 C 35.301102,63.82896 35.508132,63.3251 35.879222,62.954 36.250312,62.58681 36.750312,62.37588 37.273722,62.37588 H 45.758122 C 46.281562,62.37588 46.785422,62.58682 47.156522,62.954 47.523712,63.32509 47.730742,63.829 47.730742,64.3524 V 65.368 Z M 28.082302,28.809 V 13.461 C 28.082302,6.0274 34.105702,0 41.543302,0 48.976902,0 55.004302,6.0273 55.004302,13.461 V 28.809 H 55.578522 C 56.230862,28.809 56.851922,29.06681 57.312922,29.52775 57.773862,29.98869 58.031672,30.60975 58.031672,31.26215 V 31.80121 H 25.004672 V 31.26215 C 25.004672,30.60981 25.262482,29.98875 25.723422,29.52775 26.180452,29.06681 26.805422,28.809 27.457822,28.809 Z M 52.695302,28.809 V 13.461 C 52.695302,7.3008 47.703102,2.309 41.543302,2.309 35.379202,2.309 30.387302,7.3012 30.387302,13.461 V 28.809 Z M 38.254302,21.7426 V 20.0551 C 38.254302,19.53166 38.461332,19.0278 38.832432,18.6606 39.203522,18.28951 39.703522,18.08248 40.226932,18.08248 H 42.805032 C 43.332372,18.08248 43.832332,18.28951 44.203432,18.6606 44.574522,19.02779 44.777652,19.53169 44.777652,20.0551 V 21.7426 H 47.359652 C 49.351852,21.7426 50.965152,23.3559 50.965152,25.3442 V 26.5004 H 32.070152 V 25.3442 C 32.070152,23.3559 33.683452,21.7426 35.671752,21.7426 Z M 55.836302,75.9696 H 27.195302 V 73.5048 C 27.195302,70.286 29.804702,67.6767 33.023402,67.6767 H 50.011402 C 53.230202,67.6767 55.835602,70.2861 55.835602,73.5048 Z M 58.117502,78.2782 C 58.586252,78.2782 59.035472,78.4657 59.367502,78.79773 59.699532,79.12976 59.887032,79.57898 59.887032,80.04773 V 81.26653 C 59.887032,81.73528 59.699532,82.18841 59.367502,82.52043 59.035472,82.85246 58.586252,83.03605 58.117502,83.03605 H 24.918502 C 24.449752,83.03605 23.996622,82.85246 23.668502,82.52043 23.332562,82.1884 23.148972,81.73527 23.148972,81.26653 V 80.04773 C 23.148972,79.57898 23.332562,79.12976 23.668502,78.79773 23.996622,78.4657 24.449752,78.2782 24.918502,78.2782 Z"
     fill-rule="evenodd"
     id="path1"
     style="fill:#000000" />
</svg>
