<?xml version="1.0" encoding="UTF-8" standalone="no"?>
<!-- Created with Inkscape (http://www.inkscape.org/) -->

<svg
   width="88.849998"
   height="88.849998"
   viewBox="0 0 88.849998 88.849998"
   version="1.1"
   id="svg1"
   inkscape:version="1.4.2 (ebf0e940d0, 2025-05-08)"
   sodipodi:docname="sportbow.svg"
   xmlns:inkscape="http://www.inkscape.org/namespaces/inkscape"
   xmlns:sodipodi="http://sodipodi.sourceforge.net/DTD/sodipodi-0.dtd"
   xmlns="http://www.w3.org/2000/svg"
   xmlns:svg="http://www.w3.org/2000/svg">
  <sodipodi:namedview
     id="namedview1"
     pagecolor="#ffffff"
     bordercolor="#000000"
     borderopacity="0.25"
     inkscape:showpageshadow="2"
     inkscape:pageopacity="0.0"
     inkscape:pagecheckerboard="0"
     inkscape:deskcolor="#d1d1d1"
     inkscape:document-units="px"
     inkscape:zoom="9.6083333"
     inkscape:cx="12.020815"
     inkscape:cy="43.972246"
     inkscape:window-width="2256"
     inkscape:window-height="1427"
     inkscape:window-x="0"
     inkscape:window-y="0"
     inkscape:window-maximized="1"
     inkscape:current-layer="svg1" />
  <defs
     id="defs1" />
  <path
     d="M 55.620499,86.998 C 54.838499,86.998 54.066499,86.896 53.307499,86.716 V 2.133 C 54.067499,1.952 54.838499,1.85 55.620499,1.85 56.132499,1.85 56.546499,1.436 56.546499,0.925 56.546499,0.414 56.132499,0 55.620499,0 44.934499,0 35.988499,15.168 33.879499,35.303 32.964499,35.616 32.303499,36.474 32.303499,37.494 V 48.73 C 32.303499,49.66 32.852499,50.457 33.641499,50.829 35.198499,72.301 44.459499,88.85 55.620499,88.85 56.132499,88.85 56.546499,88.436 56.546499,87.924 56.546499,87.412 56.131499,86.998 55.620499,86.998 Z M 35.491499,50.887 C 36.347499,50.544 36.953499,49.709 36.953499,48.731 V 37.494 C 36.953499,36.605 36.449499,35.842 35.716499,35.451 37.469499,18.439 44.096499,5.177 52.381499,2.395 V 86.454 C 43.693499,83.537 36.823499,69.095 35.491499,50.887 Z"
     id="path1"
     style="fill:#000000" />
</svg>
