<?xml version="1.0" encoding="UTF-8" standalone="no"?>
<!-- Created with Inkscape (http://www.inkscape.org/) -->

<svg
   width="56.650002"
   height="56.650002"
   viewBox="0 0 56.650002 56.650002"
   version="1.1"
   id="svg1"
   inkscape:version="1.4.2 (ebf0e940d0, 2025-05-08)"
   sodipodi:docname="stim.svg"
   xmlns:inkscape="http://www.inkscape.org/namespaces/inkscape"
   xmlns:sodipodi="http://sodipodi.sourceforge.net/DTD/sodipodi-0.dtd"
   xmlns="http://www.w3.org/2000/svg"
   xmlns:svg="http://www.w3.org/2000/svg">
  <sodipodi:namedview
     id="namedview1"
     pagecolor="#ffffff"
     bordercolor="#000000"
     borderopacity="0.25"
     inkscape:showpageshadow="2"
     inkscape:pageopacity="0.0"
     inkscape:pagecheckerboard="0"
     inkscape:deskcolor="#d1d1d1"
     inkscape:document-units="px"
     inkscape:zoom="3.3970588"
     inkscape:cx="29.584416"
     inkscape:cy="115.8355"
     inkscape:window-width="2256"
     inkscape:window-height="1427"
     inkscape:window-x="0"
     inkscape:window-y="0"
     inkscape:window-maximized="1"
     inkscape:current-layer="svg1" />
  <defs
     id="defs1" />
  <path
     d="M 56.312501,11.968751 44.692501,0.34875076 C 44.242501,-0.10124924 43.492501,-0.10124924 43.032501,0.34875076 L 41.252501,2.1287508 45.982501,6.8587508 42.742501,11.718751 C 42.692501,11.788751 42.702501,11.878751 42.762501,11.938751 L 44.722501,13.898751 C 44.782501,13.958751 44.872501,13.968751 44.942501,13.918751 L 49.802501,10.678751 54.532501,15.408751 56.312501,13.628751 C 56.762501,13.168751 56.762501,12.418751 56.312501,11.968751 Z"
     id="path1"
     style="fill:#000000" />
  <path
     d="M 5.9325008,43.618751 2.2125008,49.308751 C 1.8325008,49.778751 1.8625008,50.458751 2.2925008,50.878751 L 3.3225008,51.908751 C 3.3225008,51.908751 3.3225008,51.908751 3.3225008,51.908751 L 0.29250076,54.938751 C -0.09749924,55.328751 -0.09749924,55.958751 0.29250076,56.348751 0.49250076,56.548751 0.74250076,56.638751 1.0025008,56.638751 1.2625008,56.638751 1.5125008,56.538751 1.7125008,56.348751 L 4.7425008,53.318751 C 4.7425008,53.318751 4.7425008,53.318751 4.7425008,53.318751 L 5.7725008,54.348751 C 6.2025008,54.778751 6.8825008,54.808751 7.3425008,54.428751 L 13.042501,50.708751 C 11.702501,49.668751 10.442501,48.568751 9.2625008,47.388751 8.0825008,46.208751 6.9725008,44.938751 5.9425008,43.608751 Z"
     id="path2"
     style="fill:#000000" />
  <path
     d="M 46.052501,15.588751 C 45.502501,15.948751 44.832501,16.038751 44.232501,15.858751 43.892501,15.758751 43.572501,15.568751 43.302501,15.308751 L 41.352501,13.358751 C 41.092501,13.098751 40.902501,12.778751 40.802501,12.438751 40.622501,11.828751 40.712501,11.158751 41.072501,10.608751 L 43.402501,7.1187508 39.832501,3.5487508 5.5225008,37.868751 C 5.1425008,38.248751 5.0625008,38.848751 5.3425008,39.318751 7.1625008,42.198751 9.0825008,44.398751 10.672501,45.988751 13.032501,48.348751 15.372501,50.068751 17.332501,51.308751 17.802501,51.588751 18.402501,51.528751 18.792501,51.138751 L 53.112501,16.828751 49.542501,13.258751 Z M 21.342501,43.378751 C 21.142501,43.578751 20.892501,43.668751 20.632501,43.668751 20.372501,43.668751 20.122501,43.568751 19.922501,43.378751 L 13.282501,36.738751 C 12.892501,36.348751 12.892501,35.718751 13.282501,35.328751 13.672501,34.938751 14.302501,34.938751 14.692501,35.328751 L 21.332501,41.968751 C 21.722501,42.358751 21.722501,42.988751 21.332501,43.378751 Z M 27.982501,36.738751 C 27.782501,36.938751 27.532501,37.028751 27.272501,37.028751 27.012501,37.028751 26.762501,36.928751 26.562501,36.738751 L 19.922501,30.098751 C 19.532501,29.708751 19.532501,29.078751 19.922501,28.688751 20.312501,28.298751 20.942501,28.298751 21.332501,28.688751 L 27.972501,35.328751 C 28.362501,35.718751 28.362501,36.348751 27.972501,36.738751 Z M 34.622501,30.098751 C 34.422501,30.298751 34.172501,30.388751 33.912501,30.388751 33.652501,30.388751 33.402501,30.288751 33.202501,30.098751 L 26.562501,23.458751 C 26.172501,23.068751 26.172501,22.438751 26.562501,22.048751 26.952501,21.658751 27.582501,21.658751 27.972501,22.048751 L 34.612501,28.688751 C 35.002501,29.078751 35.002501,29.708751 34.612501,30.098751 Z M 41.262501,23.458751 C 41.062501,23.658751 40.812501,23.748751 40.552501,23.748751 40.292501,23.748751 40.042501,23.648751 39.842501,23.458751 L 33.202501,16.818751 C 32.812501,16.428751 32.812501,15.798751 33.202501,15.408751 33.592501,15.018751 34.222501,15.018751 34.612501,15.408751 L 41.252501,22.048751 C 41.642501,22.438751 41.642501,23.068751 41.252501,23.458751 Z"
     id="path3"
     style="fill:#000000" />
</svg>
