<?xml version="1.0" encoding="UTF-8" standalone="no"?>
<!-- Created with Inkscape (http://www.inkscape.org/) -->

<svg
   width="916"
   height="916"
   viewBox="0 0 916 916"
   version="1.1"
   id="svg1"
   inkscape:version="1.4.2 (ebf0e940d0, 2025-05-08)"
   sodipodi:docname="suitcase.svg"
   xmlns:inkscape="http://www.inkscape.org/namespaces/inkscape"
   xmlns:sodipodi="http://sodipodi.sourceforge.net/DTD/sodipodi-0.dtd"
   xmlns="http://www.w3.org/2000/svg"
   xmlns:svg="http://www.w3.org/2000/svg">
  <sodipodi:namedview
     id="namedview1"
     pagecolor="#ffffff"
     bordercolor="#000000"
     borderopacity="0.25"
     inkscape:showpageshadow="2"
     inkscape:pageopacity="0.0"
     inkscape:pagecheckerboard="0"
     inkscape:deskcolor="#d1d1d1"
     inkscape:document-units="px"
     inkscape:zoom="0.84926471"
     inkscape:cx="515.74026"
     inkscape:cy="624.65801"
     inkscape:window-width="2256"
     inkscape:window-height="1427"
     inkscape:window-x="0"
     inkscape:window-y="0"
     inkscape:window-maximized="1"
     inkscape:current-layer="svg1" />
  <defs
     id="defs1">
    <inkscape:path-effect
       effect="fillet_chamfer"
       id="path-effect3"
       is_visible="true"
       lpeversion="1"
       nodesatellites_param="F,0,0,1,0,0,0,1 @ F,0,0,1,0,0,0,1 @ F,0,0,1,0,0,0,1 @ F,0,0,1,0,0,0,1 @ F,0,0,1,0,0,0,1 @ F,0,0,1,0,0,0,1 @ F,0,0,1,0,0,0,1 @ F,0,0,1,0,0,0,1 @ F,0,0,1,0,0,0,1 @ F,0,0,1,0,0,0,1 @ F,0,0,1,0,0,0,1 @ F,0,0,1,0,0,0,1 @ F,0,0,1,0,0,0,1 | F,0,0,1,0,0,0,1 @ F,0,0,1,0,0,0,1 @ F,0,0,1,0,0,0,1 @ F,0,0,1,0,0,0,1 @ F,0,0,1,0,0,0,1 @ F,0,0,1,0,0,0,1 @ F,0,0,1,0,0,0,1 @ F,0,0,1,0,0,0,1 @ F,0,0,1,0,0,0,1 @ F,0,0,1,0,0,0,1 @ F,0,0,1,0,0,0,1 @ F,0,0,1,0,0,0,1 @ F,0,0,1,0,0,0,1 @ F,0,0,1,0,0,0,1 @ F,0,0,1,0,0,0,1 @ F,0,0,1,0,0,0,1 @ F,0,0,1,0,0,0,1 @ F,0,0,1,0,0,0,1 @ F,0,0,1,0,0,0,1 @ F,0,0,1,0,0,0,1 @ F,0,0,1,0,0,0,1 @ F,0,0,1,0,0,0,1 @ F,0,0,1,0,0,0,1 @ F,0,0,1,0,0,0,1 @ F,0,0,1,0,0,0,1 @ F,0,0,1,0,0,0,1 @ F,0,0,1,0,0,0,1 @ F,0,0,1,0,0,0,1 @ F,0,0,1,0,0,0,1 @ F,0,0,1,0,0,0,1 @ F,0,0,1,0,0,0,1 @ F,0,0,1,0,0,0,1 @ F,0,0,1,0,0,0,1 @ F,0,0,1,0,0,0,1 @ F,0,0,1,0,0,0,1 @ F,0,0,1,0,0,0,1 @ F,0,0,1,0,0,0,1 @ F,0,0,1,0,0,0,1 @ F,0,0,1,0,0,0,1 @ F,0,0,1,0,0,0,1 @ F,0,0,1,0,0,0,1 @ F,0,0,1,0,0,0,1 @ F,0,0,1,0,0,0,1 @ F,0,0,1,0,0,0,1 @ F,0,0,1,0,0,0,1 @ F,0,0,1,0,0,0,1 @ F,0,0,1,0,0,0,1 @ F,0,0,1,0,0,0,1 @ F,0,0,1,0,0,0,1 @ F,0,0,1,0,0,0,1 @ F,0,0,1,0,0,0,1 @ F,0,0,1,0,0,0,1 @ F,0,0,1,0,0,0,1 @ F,0,0,1,0,0,0,1 @ F,0,0,1,0,0,0,1 @ F,0,0,1,0,0,0,1 @ F,0,0,1,0,0,0,1 @ F,0,0,1,0,0,0,1 @ F,0,0,1,0,0,0,1 @ F,0,0,1,0,0,0,1 @ F,0,0,1,0,0,0,1 @ F,0,0,1,0,0,0,1 @ F,0,0,1,0,0,0,1 @ F,0,0,1,0,0,0,1 @ F,0,0,1,0,0,0,1 @ F,0,0,1,0,0,0,1 @ F,0,0,1,0,0,0,1 @ F,0,0,1,0,0,0,1 @ F,0,0,1,0,0,0,1 @ F,0,0,1,0,0,0,1 @ F,0,0,1,0,0,0,1 @ F,0,0,1,0,0,0,1 @ F,0,0,1,0,0,0,1 @ F,0,0,1,0,0,0,1 @ F,0,0,1,0,0,0,1 @ F,0,0,1,0,0,0,1 @ F,0,0,1,0,0,0,1 @ F,0,0,1,0,0,0,1 @ F,0,0,1,0,0,0,1 @ F,0,0,1,0,0,0,1 @ F,0,0,1,0,0,0,1 @ F,0,0,1,0,0,0,1 @ F,0,0,1,0,0,0,1 @ F,0,0,1,0,0,0,1 @ F,0,0,1,0,0,0,1 @ F,0,0,1,0,0,0,1 @ F,0,0,1,0,0,0,1"
       radius="0"
       unit="px"
       method="auto"
       mode="F"
       chamfer_steps="1"
       flexible="false"
       use_knot_distance="true"
       apply_no_radius="true"
       apply_with_radius="true"
       only_selected="false"
       hide_knots="false" />
  </defs>
  <path
     d="M 229 871.451 L 687 871.451 L 687 193.45 L 631 193.45 C 631.2 169.35 631.7 145.15 630.9 121.15 C 629.6 78.7501 595.1 44.9501 552.6 44.4501 C 543.3 44.3501 534 44.5501 524.7 44.5501 L 365.7 44.5501 C 335.8 44.5501 306.1 60.0501 293.2 87.8501 C 287.5 100.15 284.9 112.45 284.9 125.95 L 284.9 193.45 C 265.9 193.35 247.6 193.15 228.9 193.45 L 228.9 871.451 Z M 571 148.65 L 571 193.45 L 345 193.45 L 345 120.65 C 345 120.85 344.9 121.05 344.9 121.25 C 344.7 122.05 344.6 122.85 344.5 123.55 C 344.5 123.15 344.6 122.85 344.6 122.45 C 344.6 122.55 344.5 122.75 344.5 122.85 C 344.6 122.15 344.6 121.35 344.7 120.65 C 344.8 119.85 344.9 119.05 345 118.25 C 344.9 118.55 344.7 118.85 344.6 119.15 C 344.7 118.85 344.9 118.55 345 118.25 L 345 118.05 C 345.1 117.95 345.1 117.75 345.2 117.65 C 345.2 117.45 345.3 117.15 345.3 116.95 C 345.2 117.15 345.1 117.35 345 117.45 C 345 116.85 345.3 116.25 345.4 115.65 L 345.4 116.45 C 345.4 116.15 345.5 115.95 345.5 115.65 C 345.5 116.05 345.4 116.35 345.4 116.75 C 345.4 116.35 345.5 116.05 345.5 115.65 C 345.5 116.05 345.4 116.45 345.4 116.85 C 346.2 115.35 346.7 113.85 347.4 112.35 C 347.4 112.25 347.6 112.25 347.6 112.15 C 347.4 112.65 347.2 113.25 347 113.75 C 346.8 114.35 346.6 114.85 346.4 115.35 C 347 114.25 347.6 113.15 348.3 112.05 L 347.3 113.05 C 347.7 112.65 348.1 112.15 348.5 111.75 C 348.6 111.55 348.7 111.35 348.9 111.15 C 349.9 109.65 351.1 108.75 350.8 109.25 C 351.1 108.95 351.4 108.55 351.8 108.25 C 347.4 111.15 351.4 108.25 353.1 107.05 C 352.7 107.35 352.3 107.75 351.9 108.15 C 353.2 107.25 354.6 106.45 356.1 105.75 L 352.8 106.95 C 354.6 106.15 356.4 105.45 358.3 104.65 C 357.7 104.75 357.1 104.75 356.4 104.85 C 357.1 104.75 357.7 104.65 358.4 104.55 C 358.9 104.35 359.4 104.15 360 103.85 C 359.5 104.05 359 104.25 358.6 104.45 C 360.6 104.15 362.5 103.95 364.4 103.65 C 363.3 103.85 362.2 104.05 361.1 104.35 C 367.5 103.95 374 104.35 380.3 104.35 L 531.3 104.35 C 539.1 104.35 547.3 103.85 555.2 104.35 C 554.1 104.15 553 103.85 551.9 103.75 C 552.1 103.75 552.4 103.85 552.6 103.85 C 552.4 103.85 552.1 103.75 551.9 103.75 C 553.4 103.95 554.9 104.15 556.3 104.35 C 556.8 104.45 557.2 104.45 557.7 104.55 C 557.7 104.55 557.6 104.55 557.5 104.45 C 557.2 104.45 556.9 104.15 556.5 104.05 C 556.4 104.05 556.3 103.95 556.2 103.95 C 556.3 103.95 556.4 104.05 556.4 104.05 L 556.3 104.05 L 556.4 104.05 C 556.7 104.25 557.1 104.35 557.4 104.55 C 557.5 104.55 557.5 104.65 557.6 104.65 C 558.3 104.75 558.9 104.85 559.6 104.95 C 559 104.85 558.4 104.75 557.7 104.75 C 559.5 105.55 561.4 106.25 563.2 107.05 C 562.1 106.65 561 106.25 559.9 105.85 C 561 106.45 562.1 107.05 563.2 107.75 C 562.9 107.45 562.6 107.15 562.2 106.75 C 562.6 107.15 563 107.55 563.5 107.95 C 563.7 108.05 563.9 108.25 564.1 108.35 C 565.6 109.35 566.5 110.55 566 110.25 C 566.3 110.55 566.6 110.85 567 111.25 C 564.1 106.85 567 110.85 568.2 112.55 C 567.9 112.15 567.5 111.75 567 111.35 C 567.9 112.65 568.7 114.05 569.4 115.55 C 569.1 114.45 568.6 113.35 568.2 112.25 C 569 114.05 569.8 115.95 570.5 117.75 C 570.4 117.15 570.4 116.45 570.3 115.85 C 570.4 116.55 570.5 117.15 570.6 117.85 C 570.8 118.35 571 118.85 571.2 119.35 C 571 118.85 570.8 118.45 570.6 117.95 C 570.9 119.85 571.1 121.85 571.4 123.75 C 571.4 123.45 571.3 123.25 571.3 122.95 C 571.2 122.25 571 121.45 570.9 120.75 C 572 129.95 571 139.45 571 148.65 Z"
     id="path1"
     style="fill:#000000;stroke-width:0.99999938599" />
  <path
     d="M 87.1999 193.45 C 86.2999 193.45 85.4999 193.55 84.5999 193.75 C 56.7999 194.75 31.6999 208.55 15.5999 231.25 C 5.09992 245.85 -8e-05 263.95 -8e-05 281.85 L -8e-05 320.95 L -8e-05 771.85 L -8e-05 783.75 C 0.09993 804.85 7.39992 824.45 20.6999 840.75 C 36.8999 860.45 62.0999 871.35 87.3999 871.55 C 96.9999 871.65 106.6 871.45 116.2 871.45 L 169 871.45 L 169 193.45 Z"
     id="path2"
     style="fill:#000000;stroke-width:0.999999" />
  <path
     d="M 916 782.55 C 916 813.75 900.5 842.85 873.6 859.15 C 857.9 868.65 840.4 871.45 822.5 871.45 L 747 871.45 L 747 193.45 L 806.1 193.45 C 813.6 193.45 821.1 193.45 828.6 193.55 C 876.2 193.95 915.1 232.65 915.9 280.15 L 915.9 280.85 L 915.9 698.85 C 916 726.75 916 754.65 916 782.55 Z"
     id="path3"
     style="fill:#000000;stroke-width:0.999999" />
</svg>
