<?xml version="1.0" encoding="UTF-8" standalone="no"?>
<!-- Created with Inkscape (http://www.inkscape.org/) -->

<svg
   width="95.997002"
   height="95.997002"
   viewBox="0 0 95.997002 95.997002"
   version="1.1"
   id="svg1"
   inkscape:version="1.4.2 (ebf0e940d0, 2025-05-08)"
   sodipodi:docname="survivalknife.svg"
   xmlns:inkscape="http://www.inkscape.org/namespaces/inkscape"
   xmlns:sodipodi="http://sodipodi.sourceforge.net/DTD/sodipodi-0.dtd"
   xmlns="http://www.w3.org/2000/svg"
   xmlns:svg="http://www.w3.org/2000/svg">
  <sodipodi:namedview
     id="namedview1"
     pagecolor="#ffffff"
     bordercolor="#000000"
     borderopacity="0.25"
     inkscape:showpageshadow="2"
     inkscape:pageopacity="0.0"
     inkscape:pagecheckerboard="0"
     inkscape:deskcolor="#d1d1d1"
     inkscape:document-units="px"
     inkscape:zoom="1.6985294"
     inkscape:cx="73.887446"
     inkscape:cy="241.09091"
     inkscape:window-width="2256"
     inkscape:window-height="1427"
     inkscape:window-x="0"
     inkscape:window-y="0"
     inkscape:window-maximized="1"
     inkscape:current-layer="svg1" />
  <defs
     id="defs1" />
  <path
     d="M 53.008885,64.247186 32.668885,43.899186 32.568885,43.799186 34.348885,42.019186 A 5.541,5.541 0 0 1 42.178885,42.019186 1.966,1.966 0 0 0 43.508885,42.569186 1.909,1.909 0 0 0 44.868885,39.319186 L 43.318885,37.779186 A 3.368,3.368 0 0 1 43.318885,33.039186 3.286,3.286 0 0 1 45.688885,32.069186 3.322,3.322 0 0 1 48.048885,33.049186 L 49.598885,34.599186 A 1.908,1.908 0 0 0 50.938885,35.149186 H 50.948885 A 1.909,1.909 0 0 0 52.298885,31.899186 L 50.748885,30.349186 A 3.356,3.356 0 0 1 50.738885,25.619186 3.425,3.425 0 0 1 55.478885,25.619186 L 57.028885,27.169186 A 1.907,1.907 0 0 0 59.718885,27.169186 1.92,1.92 0 0 0 59.718885,24.479186 L 58.168885,22.929186 A 3.368,3.368 0 0 1 58.168885,18.189186 3.279,3.279 0 0 1 60.538885,17.219186 3.322,3.322 0 0 1 62.898885,18.199186 L 64.448885,19.749186 A 1.908,1.908 0 0 0 65.788885,20.299186 H 65.798885 A 1.909,1.909 0 0 0 67.148885,17.049186 L 65.993885,15.887186 A 3.9,3.9 0 0 1 65.993885,10.377186 7.394,7.394 0 0 1 71.173885,8.2271859 C 85.873885,8.2171859 93.023885,0.41718589 93.103885,0.33718589 A 0.983,0.983 0 0 1 94.113885,0.03718589 1,1 0 0 1 94.823885,0.81718589 C 98.593885,20.699186 64.468885,53.777186 53.008885,64.247186 Z"
     id="path1"
     style="fill:#000000" />
  <path
     d="M 51.668885,71.557186 A 4.128,4.128 0 0 1 45.828885,71.557186 L 25.428885,51.157186 A 4.143,4.143 0 0 1 25.438885,45.317186 4.328,4.328 0 0 1 28.388885,44.117186 4.082,4.082 0 0 1 31.268885,45.317186 L 51.668885,65.727186 A 4.122,4.122 0 0 1 51.668885,71.557186 Z"
     id="path2"
     style="fill:#000000" />
  <path
     d="M 41.338885,69.887186 18.293885,92.937186 A 10.583,10.583 0 0 1 10.843885,95.997186 H 10.753885 A 9.767,9.767 0 0 1 3.7138848,93.037186 10.037,10.037 0 0 1 0.88388475,86.057186 10.305,10.305 0 0 1 2.0938848,81.277186 5.71,5.71 0 0 1 5.8238848,78.427186 3.807,3.807 0 0 0 7.5638848,77.727186 2.806,2.806 0 0 0 8.3438848,76.177186 5.718,5.718 0 0 1 9.9038848,72.877186 L 10.903885,71.877186 A 5.847,5.847 0 0 1 14.283885,70.167186 2.7,2.7 0 0 0 15.903885,69.387186 2.793,2.793 0 0 0 16.693885,67.757186 5.777,5.777 0 0 1 18.393885,64.387186 L 19.233885,63.547186 A 5.777,5.777 0 0 1 22.603885,61.847186 2.787,2.787 0 0 0 25.043885,59.157186 3.6,3.6 0 0 1 26.123885,56.657186 L 27.123885,55.667186 Z"
     id="path3"
     style="fill:#000000" />
</svg>
