<?xml version="1.0" encoding="UTF-8" standalone="no"?>
<!-- Created with Inkscape (http://www.inkscape.org/) -->

<svg
   width="74.998001"
   height="74.998001"
   viewBox="0 0 74.998001 74.998001"
   version="1.1"
   id="svg1"
   inkscape:version="1.4.2 (ebf0e940d0, 2025-05-08)"
   sodipodi:docname="sweater.svg"
   xmlns:inkscape="http://www.inkscape.org/namespaces/inkscape"
   xmlns:sodipodi="http://sodipodi.sourceforge.net/DTD/sodipodi-0.dtd"
   xmlns="http://www.w3.org/2000/svg"
   xmlns:svg="http://www.w3.org/2000/svg">
  <sodipodi:namedview
     id="namedview1"
     pagecolor="#ffffff"
     bordercolor="#000000"
     borderopacity="0.25"
     inkscape:showpageshadow="2"
     inkscape:pageopacity="0.0"
     inkscape:pagecheckerboard="0"
     inkscape:deskcolor="#d1d1d1"
     inkscape:document-units="px"
     inkscape:zoom="6.7941176"
     inkscape:cx="29.142857"
     inkscape:cy="87.207792"
     inkscape:window-width="2256"
     inkscape:window-height="1427"
     inkscape:window-x="0"
     inkscape:window-y="0"
     inkscape:window-maximized="1"
     inkscape:current-layer="svg1" />
  <defs
     id="defs1" />
  <path
     d="M 16.0808 73.6654 L 15.2331 59.2704 C 15.112 57.204 15.1706 57.0438 15.2761 54.9657 C 15.5612 49.4071 15.0964 42.2817 14.6941 37.6257 C 12.6121 48.3017 12.7175 57.3097 12.8074 59.9737 C 12.823 60.4659 12.8425 60.7823 12.8308 61.2549 L 12.5027 72.1219 C 12.4949 72.3875 12.3777 72.6023 12.155 72.7508 C 8.53002 75.6727 3.62382 74.4305 3.61202 74.4266 C 3.29171 74.3172 3.08077 74.1453 3.02218 73.7899 C 2.74093 72.6922 -0.790324 58.5009 0.162776 46.6219 C 0.924496 37.1453 2.22138 31.6019 2.77998 29.5399 C 7.06518 32.0047 15.565 36.5282 21.979 37.5985 C 22.0454 37.6102 22.1157 37.6141 22.186 37.6141 C 34.924 38.0359 42.748 38.0359 55.491 37.6102 C 57.3621 37.5633 62.0379 35.8172 63.8738 35.0594 C 66.5144 33.9696 69.8816 32.2742 72.5496 30.8524 C 73.1902 33.5438 74.198 38.7118 74.8348 46.6184 C 75.827 58.9664 71.9715 73.8134 71.9598 73.8564 C 71.8817 74.1689 71.6395 74.3915 71.3192 74.4384 C 70.7098 74.5751 66.1708 75.4775 62.784 72.6962 C 62.5926 72.497 62.4832 72.3485 62.4988 72.0517 L 62.1707 61.2357 C 62.159 60.8372 62.1707 60.5951 62.1863 60.1849 C 62.2762 57.9271 62.4363 49.3139 60.2879 38.5009 C 59.8661 43.1845 59.3817 50.4269 59.784 55.9889 C 59.8465 56.8561 59.8934 57.0787 59.8465 57.8951 L 58.9129 73.7111 C 58.8973 74.1173 58.5379 74.4572 58.1317 74.4455 L 16.8617 74.4455 C 16.432 74.4455 16.0765 74.09 16.0804 73.6603 Z M 23.4167 29.5914 L 23.3737 29.857 Z M 2.77968 29.5445 C 2.83046 29.3609 2.87343 29.2046 2.90859 29.0796 C 2.92031 29.0367 2.93203 28.9976 2.94375 28.9546 C 7.41645 31.4937 15.5727 35.7358 21.8267 36.7866 L 21.8463 36.7906 C 21.858 36.7906 21.8658 36.7945 21.8775 36.7945 C 21.9244 36.8023 21.9752 36.8062 22.026 36.8101 L 22.0885 36.8101 L 22.19 36.8101 C 28.5416 37.021 33.682 37.1265 38.831 37.1265 C 43.9912 37.1265 49.14 37.021 55.511 36.8062 L 55.511 36.8101 C 55.5345 36.8101 55.5579 36.8062 55.5813 36.8062 C 56.4095 36.771 57.6477 36.4702 58.9524 36.0718 C 60.9094 35.4781 63.054 34.6577 64.1633 34.2007 C 65.8352 33.5093 67.8 32.5796 69.6945 31.6265 C 70.6281 31.1578 71.5383 30.6851 72.3898 30.2398 C 72.4367 30.4312 72.4875 30.6382 72.5422 30.8609 C 69.8742 32.2789 66.511 33.9781 63.8664 35.0679 C 62.0305 35.8257 57.3547 37.5718 55.4836 37.6187 C 42.7416 38.0406 34.9176 38.0445 22.1786 37.6226 C 22.1122 37.6265 22.0379 37.6226 21.9715 37.607 C 15.5574 36.5367 7.05755 32.0132 2.77255 29.5484 Z M 3.43984 27.4429 C 3.7875 26.439 4.35781 24.8648 5.13124 22.9898 C 8.96714 25.2125 17.0922 29.5953 23.2212 30.6226 L 23.2408 30.6265 C 23.2525 30.6265 23.2603 30.6304 23.272 30.6304 C 23.315 30.6382 23.3619 30.6421 23.4087 30.646 C 23.4595 30.6499 23.5103 30.6499 23.565 30.6499 C 29.3658 30.8413 34.057 30.939 38.76 30.939 C 43.4709 30.939 48.1741 30.8413 53.99 30.646 L 53.99 30.6499 C 54.0134 30.6499 54.0369 30.646 54.0603 30.646 C 54.8259 30.6109 55.9548 30.3374 57.1501 29.9741 C 58.9392 29.4312 60.9001 28.6811 61.9157 28.2632 C 63.443 27.6343 65.2399 26.7788 66.9704 25.9077 C 68.1618 25.3101 69.3142 24.7085 70.3298 24.1616 C 71.0681 26.0249 71.5642 27.4702 71.7946 28.1694 C 71.8532 28.3491 71.9118 28.5249 71.9665 28.7007 C 71.822 28.7788 71.6735 28.8569 71.5212 28.9351 C 70.7165 29.3609 69.865 29.7984 69.0017 30.232 C 67.1423 31.1656 65.2165 32.0797 63.572 32.7593 C 62.4861 33.2085 60.3923 34.0054 58.5017 34.5835 C 57.3064 34.9468 56.2048 35.2202 55.5251 35.2514 L 55.4587 35.2514 L 55.4587 35.2553 C 49.0876 35.4663 43.9547 35.5718 38.8297 35.5757 C 33.7242 35.5757 28.6067 35.4702 22.2677 35.2632 C 22.2247 35.2593 22.1817 35.2553 22.1388 35.2593 L 22.1231 35.2593 L 22.0997 35.2553 L 21.9708 36.0249 L 22.0997 35.2553 C 16.3614 34.2983 8.8847 30.5053 4.39669 27.9936 C 4.05686 27.8022 3.73653 27.6226 3.43186 27.4468 Z M 5.74454 21.5445 C 5.85392 21.2945 5.9672 21.0406 6.08048 20.7867 C 6.61564 19.5953 7.21718 18.3375 7.88128 17.064 L 7.92034 16.9898 C 10.5453 18.5679 18.8893 23.357 24.9473 24.3687 C 25.002 24.3804 25.0606 24.3843 25.1153 24.3804 C 35.4943 24.7241 41.8693 24.7241 52.2523 24.3765 C 53.7796 24.3374 57.5882 22.9156 59.0843 22.2984 C 61.764 21.1929 65.3577 19.3179 67.6312 18.0757 C 68.2562 19.3218 68.8148 20.5366 69.3109 21.6773 C 69.4633 22.0288 69.6117 22.3726 69.7484 22.7085 C 68.6976 23.2749 67.5023 23.8999 66.2836 24.5132 C 64.5883 25.3647 62.8305 26.2007 61.3305 26.8179 C 60.3383 27.228 58.4321 27.9546 56.7055 28.4781 C 55.6235 28.8062 54.6235 29.0562 54.0102 29.0835 L 53.9477 29.0835 L 53.9477 29.0874 C 48.1313 29.2789 43.4437 29.3765 38.7637 29.3804 C 34.1035 29.3804 29.4356 29.2867 23.6507 29.0953 C 23.6077 29.0914 23.5648 29.0874 23.5218 29.0914 L 23.5023 29.0874 L 23.4163 29.5914 L 23.4984 29.0874 C 17.5023 28.0874 9.42037 23.689 5.74437 21.5444 Z M 8.65864 15.6187 C 9.65864 13.8218 10.7797 12.0406 12.0063 10.4117 C 13.3344 8.65779 14.7915 7.07579 16.3774 5.84139 C 16.4634 5.77889 16.5337 5.73592 16.6352 5.70467 L 29.3543 0.896069 C 29.6199 0.794509 29.7293 0.755439 29.8191 0.720289 C 31.1316 0.212479 32.0808 0.587479 31.698 1.93909 C 31.616 2.20081 31.5027 2.57581 31.4167 3.06409 C 30.8347 6.29459 32.0027 8.48209 33.8151 9.64999 C 34.9206 10.3609 36.2643 10.7047 37.6042 10.6852 C 38.944 10.6657 40.2722 10.2828 41.3503 9.53679 C 43.1237 8.31019 44.2136 6.04849 43.5144 2.74379 C 43.409 2.23988 43.2879 1.89223 43.2097 1.66569 C 42.8465 0.610989 43.4832 -0.021811 44.6317 0.482089 C 44.8504 0.579745 45.159 0.716469 45.5535 0.864899 L 58.4085 5.7243 C 58.5179 5.77117 58.5882 5.80633 58.6741 5.88836 C 61.9788 8.48606 64.7601 12.6384 66.9125 16.6854 C 64.678 17.9159 61.1038 19.7792 58.4905 20.8573 C 56.3461 21.7401 54.1273 22.4862 52.1429 22.8221 C 41.3659 23.1814 35.9479 23.1814 25.1658 22.8221 C 19.3221 21.8338 11.1389 17.1073 8.66585 15.6151 Z"
     id="path1"
     style="fill:#000000" />
</svg>
