<?xml version="1.0" encoding="UTF-8" standalone="no"?>
<!-- Created with Inkscape (http://www.inkscape.org/) -->

<svg
   width="417.76801"
   height="417.76801"
   viewBox="0 0 417.768 417.76801"
   version="1.1"
   id="svg1"
   inkscape:version="1.4.2 (ebf0e940d0, 2025-05-08)"
   sodipodi:docname="timberwolf.svg"
   xmlns:inkscape="http://www.inkscape.org/namespaces/inkscape"
   xmlns:sodipodi="http://sodipodi.sourceforge.net/DTD/sodipodi-0.dtd"
   xmlns="http://www.w3.org/2000/svg"
   xmlns:svg="http://www.w3.org/2000/svg">
  <sodipodi:namedview
     id="namedview1"
     pagecolor="#ffffff"
     bordercolor="#000000"
     borderopacity="0.25"
     inkscape:showpageshadow="2"
     inkscape:pageopacity="0.0"
     inkscape:pagecheckerboard="0"
     inkscape:deskcolor="#d1d1d1"
     inkscape:document-units="px"
     inkscape:zoom="0.60052083"
     inkscape:cx="390.49436"
     inkscape:cy="380.50304"
     inkscape:window-width="2256"
     inkscape:window-height="1427"
     inkscape:window-x="0"
     inkscape:window-y="0"
     inkscape:window-maximized="1"
     inkscape:current-layer="svg1" />
  <defs
     id="defs1" />
  <path
     d="M 320.502 3.777 C 318.002 5.377 315.602 7.177 315.202 7.877 C 314.802 8.477 308.102 14.377 300.302 20.877 C 282.702 35.477 278.502 40.077 272.202 51.877 C 266.302 62.877 257.902 72.377 249.402 77.677 L 243.302 81.377 L 248.302 81.877 C 253.002 82.477 253.102 82.477 250.202 83.377 C 235.402 87.677 214.702 97.777 198.402 108.777 C 192.802 112.477 185.702 116.377 182.702 117.377 C 178.302 118.877 177.602 119.377 179.202 119.977 C 180.302 120.377 182.402 120.777 184.002 120.777 C 187.702 120.877 187.402 121.977 182.602 126.377 C 176.802 131.577 166.402 136.177 151.402 140.277 C 144.402 142.177 136.602 144.677 134.002 145.877 L 129.202 147.977 L 132.202 144.777 C 133.902 142.977 136.602 140.277 138.202 138.677 L 141.202 135.677 L 136.702 136.277 C 132.602 136.777 132.402 136.777 134.102 135.377 C 135.202 134.577 137.502 133.577 139.402 133.277 C 143.902 132.377 143.502 131.377 138.302 129.977 C 127.202 127.177 110.202 129.277 92.802 135.377 C 87.202 137.377 84.002 138.177 85.202 137.277 C 87.902 135.177 100.802 129.077 107.702 126.677 L 113.202 124.877 L 108.202 125.377 C 99.502 126.377 84.802 130.777 75.902 134.877 C 59.902 142.377 53.202 149.077 48.402 162.377 C 43.602 175.877 42.602 185.577 41.702 225.377 C 40.802 263.277 40.402 267.177 36.702 277.177 C 34.802 282.377 27.102 293.877 24.502 295.477 L 27.802 287.377 C 35.802 271.877 36.602 266.877 37.702 226.377 C 38.202 206.277 39.202 188.277 40.102 182.377 C 40.902 176.877 41.402 172.277 41.202 172.077 C 41.002 171.877 37.902 175.277 34.202 179.577 C 22.802 192.977 16.802 204.777 12.602 222.577 C 10.002 233.477 5.802 263.877 6.902 263.877 C 7.302 263.877 10.002 261.677 12.802 258.877 L 18.002 253.977 L 17.402 260.777 C 15.902 276.577 10.602 300.177 4.402 318.877 C 2.502 324.377 1.402 328.877 1.902 328.877 C 3.702 328.877 12.302 324.077 14.102 321.977 C 15.202 320.777 16.302 319.877 16.702 319.877 C 17.102 319.877 13.502 329.677 8.602 341.577 C 3.702 353.477 -0.098 363.377 0.002 363.377 C 0.102 363.477 1.602 363.177 3.302 362.777 C 8.102 361.377 15.802 355.877 19.202 351.177 C 20.802 348.877 22.402 346.977 22.702 346.977 C 23.002 346.877 23.102 354.577 22.902 363.877 C 22.602 382.877 23.902 393.577 28.302 407.677 C 31.402 417.177 31.202 417.077 43.702 416.677 L 52.202 416.377 L 51.902 413.477 C 51.302 408.477 48.802 404.777 44.602 402.977 C 39.902 401.077 39.702 400.277 43.602 399.377 C 49.602 398.077 53.702 403.177 53.702 411.677 L 53.702 416.577 L 57.002 415.977 C 59.702 415.377 60.202 414.877 60.502 411.977 C 61.202 405.077 56.902 399.677 49.102 397.777 C 45.502 396.877 44.602 396.077 43.302 392.877 C 40.402 385.577 39.402 375.977 40.002 360.477 C 40.902 336.277 45.902 320.877 56.202 309.877 C 76.102 288.677 85.002 273.377 87.702 255.377 C 88.802 247.977 88.402 220.077 87.102 214.377 C 86.702 212.777 87.002 212.777 88.402 214.877 C 90.902 218.477 99.602 227.277 100.202 226.777 C 100.402 226.477 99.902 223.877 99.102 220.877 C 97.302 214.277 96.002 192.877 97.402 192.877 C 97.902 192.877 99.002 194.777 99.702 197.077 C 103.502 209.977 114.602 226.677 127.702 239.277 C 133.302 244.677 138.102 248.877 138.302 248.677 C 138.402 248.477 138.002 246.477 137.202 244.377 C 134.902 237.977 135.402 237.377 140.002 241.577 C 146.502 247.577 161.702 257.277 161.702 255.377 C 161.702 255.077 159.402 251.377 156.602 247.277 C 153.802 243.077 151.702 239.577 151.902 239.377 C 152.102 239.177 155.802 241.777 160.202 245.077 C 173.802 255.377 197.102 269.777 198.202 268.677 C 198.402 268.477 196.602 264.377 194.102 259.677 C 190.002 251.577 184.702 238.977 184.702 236.977 C 184.702 236.477 186.702 236.677 189.202 237.477 C 191.702 238.177 193.702 238.577 193.702 238.377 C 193.702 238.077 192.402 235.677 190.702 233.077 C 187.402 227.677 181.702 215.477 181.702 213.877 C 181.702 210.577 196.502 222.977 200.202 229.277 C 206.602 240.177 208.302 251.077 210.202 294.377 C 212.202 341.377 214.202 362.977 217.802 379.877 C 219.302 386.777 224.702 402.777 227.302 407.977 C 231.402 416.177 230.502 415.877 251.802 415.877 L 270.702 415.877 L 270.702 413.577 C 270.602 409.977 267.102 403.177 264.202 401.277 C 262.802 400.377 258.602 398.777 255.002 397.777 C 245.802 395.177 244.002 393.777 242.302 387.577 C 239.202 376.577 238.202 361.877 238.302 326.877 C 238.402 297.577 238.702 290.477 240.402 279.677 L 242.402 266.977 L 250.902 258.677 C 256.602 253.077 260.202 248.577 261.902 244.877 C 264.402 239.577 266.502 231.877 265.402 231.877 C 265.102 231.877 260.602 236.677 255.502 242.577 C 246.302 253.177 246.202 253.277 245.602 250.377 C 244.502 245.377 244.602 228.577 245.802 222.377 C 248.402 208.077 258.202 197.877 269.202 197.877 C 279.502 197.877 287.202 209.477 289.202 228.177 C 290.002 235.977 290.602 235.877 296.302 227.477 C 298.102 224.877 301.502 221.377 303.802 219.777 C 306.202 218.277 310.002 215.077 312.402 212.777 L 316.702 208.577 L 316.702 211.577 C 316.702 213.277 316.002 216.577 315.202 218.877 C 314.402 221.277 313.802 223.377 314.002 223.577 C 314.802 224.277 319.802 219.577 321.102 217.077 C 321.802 215.577 323.202 211.477 324.102 207.877 C 325.102 204.277 328.702 196.177 332.302 189.777 C 335.802 183.377 338.702 177.677 338.702 176.977 C 338.702 175.177 340.302 175.677 342.002 178.077 L 343.702 176.877 C 343.802 167.477 348.202 155.977 355.802 144.677 C 358.002 141.577 359.402 138.777 358.902 138.577 C 355.702 136.677 345.302 135.377 333.702 135.377 C 320.902 135.377 319.902 135.477 314.402 138.177 C 308.402 141.177 304.502 145.677 303.202 151.077 C 302.202 155.077 301.202 153.777 299.702 146.877 C 297.702 137.377 300.302 126.177 306.002 119.977 L 308.202 117.577 L 304.202 118.277 C 302.002 118.677 297.802 120.077 295.002 121.377 C 291.502 122.977 289.702 123.377 289.702 122.577 C 289.702 119.777 296.002 110.877 301.202 106.077 L 306.902 100.877 L 303.402 100.877 C 300.602 100.877 292.402 102.677 283.002 105.477 L 282.302 101.577 C 284.202 96.077 290.602 88.477 295.602 85.977 C 300.502 83.477 305.202 82.277 317.602 80.377 C 323.702 79.577 330.302 77.877 333.502 76.377 C 336.502 74.977 339.102 73.977 339.302 74.177 C 339.502 74.277 337.402 76.977 334.702 80.177 C 329.102 86.677 328.102 88.977 329.702 91.877 C 332.002 96.177 342.402 98.777 357.302 98.877 C 361.202 98.877 366.402 99.477 368.902 100.277 C 374.802 101.977 390.102 112.477 399.402 121.177 L 406.802 127.977 L 401.502 130.377 C 393.302 134.177 386.702 133.777 375.002 128.877 C 363.402 123.877 360.602 123.277 356.702 124.877 C 353.302 126.277 352.702 127.877 355.702 127.877 C 356.802 127.877 362.302 129.577 368.002 131.777 C 391.602 140.577 398.702 139.577 411.102 125.377 C 420.702 114.377 419.902 109.277 408.902 111.377 C 402.902 112.477 401.402 112.477 401.002 111.177 C 400.702 110.477 402.302 109.177 404.602 108.277 L 408.702 106.677 L 400.702 101.977 C 381.702 90.977 379.002 87.677 377.302 72.977 C 375.602 59.577 374.802 58.477 357.002 45.177 C 351.302 40.977 346.502 36.777 346.102 35.677 C 345.802 34.577 346.502 32.277 347.702 30.077 C 351.402 23.877 364.002 7.777 367.202 5.277 C 368.802 3.977 369.702 2.877 369.002 2.877 C 368.402 2.877 364.702 5.277 361.002 8.077 C 357.202 10.977 350.002 16.477 344.902 20.377 L 335.802 27.377 L 336.402 32.077 C 337.102 37.677 336.802 37.977 320.802 50.177 C 309.902 58.577 306.802 60.177 303.102 59.277 C 291.202 56.277 300.102 26.977 318.602 7.977 C 322.102 4.377 324.402 2.877 326.202 2.877 C 327.702 2.877 328.602 2.477 328.202 1.877 C 327.202 0.277 325.402 0.677 320.502 3.777 Z M 357.402 77.677 C 358.802 78.577 361.002 83.877 360.302 84.677 C 360.002 84.877 358.602 84.177 357.102 82.977 C 355.602 81.777 352.602 80.577 350.502 80.277 C 346.602 79.577 346.402 78.477 350.202 77.577 C 353.402 76.777 356.102 76.877 357.402 77.677 Z M 231.802 102.877 C 219.702 114.877 213.902 130.577 215.102 147.977 C 215.402 152.677 216.802 161.777 218.202 168.177 C 219.602 174.577 220.702 182.477 220.702 185.677 C 220.702 191.277 218.402 201.277 216.902 202.277 C 216.502 202.477 216.202 198.977 216.102 194.577 C 216.102 188.377 215.502 185.177 213.802 181.177 C 210.002 172.577 208.702 172.377 208.702 180.477 C 208.702 189.377 207.502 187.977 204.302 175.477 C 201.302 163.977 200.902 152.777 203.302 143.477 C 207.102 128.277 219.302 109.877 231.702 100.577 C 235.102 97.977 238.102 95.877 238.302 95.877 C 238.602 95.877 235.602 98.977 231.802 102.877 Z M 272.102 130.077 C 271.202 132.777 270.002 150.877 270.702 150.877 C 270.902 150.877 273.302 148.777 275.902 146.177 L 280.702 141.477 L 280.702 144.977 C 280.702 149.777 285.002 157.977 289.702 162.277 C 292.902 165.177 308.302 173.877 310.202 173.877 C 310.502 173.877 310.702 172.077 310.702 169.877 C 310.702 158.777 323.302 147.977 342.502 142.477 C 347.602 140.977 347.802 141.077 347.202 142.677 C 346.702 143.577 344.402 149.577 342.002 155.877 C 338.002 166.477 328.302 183.877 326.502 183.877 C 326.002 183.877 325.702 182.877 325.602 181.577 C 325.602 179.777 325.302 179.877 324.402 182.577 C 323.002 186.277 321.702 187.777 321.702 185.777 C 321.602 184.977 320.702 186.477 319.502 189.077 C 317.402 193.977 315.702 195.277 315.702 192.077 C 315.702 191.177 314.602 192.977 313.302 196.077 C 310.602 202.577 306.302 208.477 301.202 212.277 L 297.702 214.977 L 298.402 210.677 C 299.702 203.477 299.102 198.577 296.202 191.977 C 293.702 186.377 293.202 185.877 292.102 187.377 C 290.902 188.877 290.002 187.577 284.702 176.777 L 278.702 164.377 L 279.302 170.577 C 279.602 174.077 279.502 176.877 279.002 176.877 C 277.402 176.877 267.302 158.377 265.802 152.877 C 264.102 146.177 265.302 138.977 269.202 132.277 C 272.002 127.477 273.302 126.577 272.102 130.077 Z M 254.502 401.477 C 257.102 403.277 258.702 406.077 259.802 410.577 C 260.802 415.377 259.402 415.377 256.902 410.477 C 254.502 405.977 248.702 401.877 244.802 401.877 C 243.602 401.877 242.902 401.377 243.202 400.877 C 244.202 399.277 252.002 399.677 254.502 401.477 Z"
     id="path1"
     style="fill:#000000" />
  <path
     d="M 322.002 7.577 C 315.602 13.277 306.902 27.077 305.302 34.377 L 306.402 35.277 C 308.702 32.577 315.702 27.877 317.502 27.877 C 318.402 27.877 317.902 28.977 316.302 30.977 C 314.802 32.677 312.902 35.477 312.002 37.177 C 310.602 39.877 305.702 53.477 305.702 54.677 C 305.702 57.077 320.202 48.277 329.602 40.077 L 334.002 36.277 L 332.902 31.777 C 332.302 29.277 331.502 22.777 331.102 17.277 C 330.202 3.977 328.302 2.077 322.002 7.577 Z"
     id="path2"
     style="fill:#000000" />
  <path
     d="M 366.602 9.577 C 358.102 19.377 350.802 33.377 352.702 36.777 C 353.402 38.277 358.302 42.577 364.402 47.177 C 366.202 48.477 368.702 42.177 368.702 36.177 C 368.802 33.577 369.502 27.777 370.302 23.377 C 372.902 9.677 373.202 5.877 371.402 5.877 C 370.602 5.877 368.402 7.577 366.602 9.577 Z"
     id="path3"
     style="fill:#000000" />
  <path
     d="M 162.202 119.977 C 160.602 120.477 152.902 121.377 145.202 121.977 C 137.502 122.477 131.102 123.177 130.902 123.277 C 130.802 123.477 134.702 124.377 139.602 125.277 C 149.602 127.077 161.002 127.277 167.702 125.777 C 175.302 124.077 175.402 124.077 172.202 121.377 C 169.002 118.777 167.002 118.477 162.202 119.977 Z"
     id="path4"
     style="fill:#000000" />
  <path
     d="M 301.102 246.177 C 295.602 252.477 289.102 258.377 281.102 264.477 C 268.302 274.077 264.702 278.777 264.702 285.777 C 264.702 290.477 262.802 288.577 261.202 282.177 L 259.902 277.377 L 258.402 280.877 C 254.902 289.077 253.402 297.377 253.402 308.877 C 253.402 319.077 253.802 322.177 257.502 336.377 C 259.702 345.177 262.502 357.277 263.702 363.377 C 266.302 377.077 268.902 385.277 273.702 394.877 C 275.702 398.977 278.002 404.077 278.602 406.077 C 279.302 408.177 281.502 411.177 283.502 412.877 L 287.202 415.877 L 304.402 415.877 L 321.702 415.877 L 321.102 413.077 C 319.002 404.177 314.302 399.977 304.002 397.577 C 296.302 395.877 292.902 393.677 291.202 389.477 C 287.402 380.377 285.202 335.677 287.602 316.377 C 290.402 294.877 296.602 270.577 305.102 248.177 C 307.502 241.977 309.402 236.877 309.302 236.877 C 309.202 236.877 305.502 241.077 301.102 246.177 Z M 305.502 401.477 C 308.102 403.277 310.202 406.977 311.202 411.577 C 312.102 416.077 310.402 415.677 308.302 410.977 C 306.502 406.677 302.202 403.477 296.802 402.377 C 294.402 401.877 293.802 401.377 294.802 400.777 C 297.002 399.377 303.102 399.777 305.502 401.477 Z"
     id="path5"
     style="fill:#000000" />
  <path
     d="M 104.402 253.577 C 102.302 260.077 97.502 271.877 93.702 279.877 C 87.302 293.277 86.702 295.077 85.702 304.377 C 84.502 316.177 83.302 320.177 80.002 324.677 L 77.602 327.977 L 80.102 335.677 C 81.502 339.877 85.802 354.377 89.702 367.877 C 97.202 393.777 102.302 406.277 108.102 412.277 L 111.402 415.877 L 123.102 415.877 C 134.602 415.877 134.702 415.877 134.702 413.477 C 134.702 408.777 129.602 403.377 123.202 401.377 C 121.602 400.877 121.502 400.577 122.702 399.877 C 125.202 398.277 129.302 398.777 131.902 400.877 C 134.702 402.977 137.202 410.777 136.202 413.977 C 135.502 415.977 137.202 416.577 139.302 415.077 C 143.902 412.077 142.502 403.977 136.802 400.177 C 134.102 398.377 132.002 397.877 126.702 397.877 C 121.502 397.877 119.402 397.377 117.502 395.977 C 109.402 389.577 101.002 352.977 103.602 335.877 C 105.202 325.877 106.402 323.477 114.602 314.377 C 123.502 304.577 129.802 294.677 134.102 283.677 C 139.402 270.577 139.402 270.677 134.102 266.877 C 127.302 261.977 117.202 252.377 113.102 246.777 C 111.102 244.077 109.202 241.877 108.902 241.877 C 108.502 241.877 106.502 247.177 104.402 253.577 Z"
     id="path6"
     style="fill:#000000" />
</svg>
