<?xml version="1.0" encoding="UTF-8" standalone="no"?>
<!-- Created with Inkscape (http://www.inkscape.org/) -->

<svg
   width="440"
   height="440"
   viewBox="0 0 440 440"
   version="1.1"
   id="svg1"
   inkscape:version="1.4.2 (ebf0e940d0, 2025-05-08)"
   sodipodi:docname="toque.svg"
   xmlns:inkscape="http://www.inkscape.org/namespaces/inkscape"
   xmlns:sodipodi="http://sodipodi.sourceforge.net/DTD/sodipodi-0.dtd"
   xmlns="http://www.w3.org/2000/svg"
   xmlns:svg="http://www.w3.org/2000/svg">
  <sodipodi:namedview
     id="namedview1"
     pagecolor="#ffffff"
     bordercolor="#000000"
     borderopacity="0.25"
     inkscape:showpageshadow="2"
     inkscape:pageopacity="0.0"
     inkscape:pagecheckerboard="0"
     inkscape:deskcolor="#d1d1d1"
     inkscape:document-units="px"
     inkscape:zoom="1.6985294"
     inkscape:cx="207.2381"
     inkscape:cy="225.19481"
     inkscape:window-width="2256"
     inkscape:window-height="1427"
     inkscape:window-x="0"
     inkscape:window-y="0"
     inkscape:window-maximized="1"
     inkscape:current-layer="svg1" />
  <defs
     id="defs1" />
  <path
     d="M 158.742 79.798 C 159.27 79.624 159.797 79.445 160.327 79.275 C 161.198 78.996 162.071 78.73 162.945 78.463 C 163.406 78.322 163.865 78.175 164.327 78.038 C 165.53 77.681 166.736 77.338 167.945 77.004 C 168.08 76.967 168.214 76.926 168.348 76.889 C 169.688 76.523 171.032 76.172 172.378 75.835 C 172.836 75.72 173.296 75.615 173.754 75.504 C 174.649 75.287 175.543 75.07 176.441 74.865 C 176.99 74.74 177.542 74.624 178.093 74.504 C 178.904 74.327 179.714 74.149 180.527 73.983 C 181.114 73.863 181.702 73.751 182.29 73.636 C 183.071 73.484 183.852 73.331 184.635 73.189 C 185.241 73.078 185.848 72.974 186.456 72.869 C 187.225 72.736 187.995 72.605 188.766 72.481 C 189.382 72.382 189.998 72.289 190.616 72.195 C 191.384 72.08 192.152 71.967 192.922 71.861 C 193.541 71.776 194.16 71.693 194.78 71.613 C 195.552 71.514 196.326 71.42 197.1 71.33 C 197.719 71.258 198.337 71.187 198.957 71.121 C 199.739 71.038 200.523 70.961 201.307 70.887 C 201.918 70.829 202.53 70.771 203.142 70.719 C 203.948 70.651 204.755 70.591 205.562 70.532 C 206.154 70.489 206.746 70.443 207.339 70.406 C 208.184 70.352 209.029 70.309 209.876 70.266 C 210.435 70.238 210.994 70.204 211.554 70.181 C 212.494 70.141 213.436 70.115 214.378 70.088 C 214.844 70.075 215.308 70.055 215.774 70.046 C 217.184 70.016 218.596 70 220.01 70 C 221.424 70 222.836 70.017 224.246 70.046 C 224.712 70.056 225.177 70.075 225.642 70.088 C 226.584 70.114 227.527 70.141 228.467 70.181 C 229.029 70.205 229.588 70.238 230.15 70.267 C 230.994 70.309 231.837 70.352 232.678 70.406 C 233.273 70.444 233.866 70.489 234.459 70.532 C 235.267 70.591 236.073 70.651 236.879 70.719 C 237.49 70.771 238.1 70.83 238.711 70.887 C 239.496 70.961 240.281 71.038 241.065 71.121 C 241.683 71.187 242.3 71.258 242.918 71.329 C 243.693 71.419 244.469 71.514 245.242 71.613 C 245.862 71.693 246.48 71.775 247.099 71.861 C 247.869 71.967 248.638 72.08 249.406 72.195 C 250.022 72.288 250.637 72.382 251.253 72.48 C 252.026 72.604 252.798 72.735 253.569 72.868 C 254.173 72.973 254.779 73.076 255.383 73.187 C 256.168 73.331 256.95 73.482 257.734 73.636 C 258.32 73.75 258.906 73.862 259.491 73.982 C 260.307 74.149 261.122 74.328 261.936 74.506 C 262.483 74.626 263.031 74.74 263.577 74.864 C 264.481 75.07 265.382 75.289 266.283 75.508 C 266.735 75.618 267.188 75.721 267.64 75.834 C 268.986 76.171 270.328 76.521 271.667 76.887 C 271.834 76.933 271.999 76.983 272.166 77.029 C 273.343 77.354 274.519 77.688 275.69 78.036 C 276.161 78.176 276.628 78.325 277.098 78.468 C 277.962 78.732 278.827 78.996 279.69 79.272 C 280.225 79.444 280.758 79.625 281.294 79.801 C 281.914 80.006 282.536 80.204 283.155 80.415 C 284.388 75.375 285.011 70.208 285.011 65 C 285.011 29.159 255.852 0 220.011 0 C 184.17 0 155.011 29.159 155.011 65 C 155.011 70.208 155.634 75.375 156.865 80.417 C 157.489 80.204 158.116 80.004 158.742 79.798 Z"
     id="path1"
     style="fill:#000000" />
  <path
     d="M 212.156 382.067 C 175.599 382.067 140.354 386.211 110.232 394.049 C 99.2027 396.919 88.7537 400.299 79.0347 404.128 C 78.8747 404.191 78.7127 404.254 78.5537 404.317 C 77.0117 404.928 75.4877 405.55 73.9837 406.184 C 87.6517 427.451 141.489 440 220.53 440 C 298.024 440 351.496 427.894 366.293 407.354 C 354.564 402.94 341.624 398.984 327.73 395.574 C 291.73 386.737 251.765 382.067 212.156 382.067 Z"
     id="path2"
     style="fill:#000000" />
  <path
     d="M 42.5217 303.763 C 43.0827 303.391 43.6597 303.025 44.2327 302.657 C 44.9617 302.189 45.6907 301.722 46.4387 301.261 C 47.0297 300.897 47.6347 300.538 48.2377 300.178 C 48.9997 299.724 49.7657 299.271 50.5477 298.823 C 51.1677 298.469 51.7977 298.118 52.4287 297.767 C 53.2247 297.326 54.0277 296.885 54.8427 296.451 C 55.4887 296.106 56.1407 295.765 56.7977 295.426 C 57.6307 294.995 58.4727 294.567 59.3247 294.143 C 59.9907 293.812 60.6607 293.483 61.3377 293.156 C 62.2127 292.733 63.0977 292.314 63.9907 291.899 C 64.6727 291.582 65.3577 291.266 66.0507 290.954 C 66.9677 290.539 67.8977 290.131 68.8337 289.724 C 69.5287 289.422 70.2247 289.12 70.9307 288.822 C 71.8947 288.415 72.8727 288.014 73.8547 287.615 C 74.5587 287.33 75.2597 287.043 75.9727 286.761 C 76.9887 286.359 78.0207 285.965 79.0557 285.573 C 79.7607 285.304 80.4597 285.035 81.1727 284.771 C 82.2517 284.373 83.3487 283.983 84.4457 283.593 C 85.1377 283.347 85.8237 283.098 86.5237 282.856 C 87.6887 282.454 88.8727 282.061 90.0567 281.668 C 90.7137 281.45 91.3627 281.229 92.0247 281.015 C 93.3307 280.592 94.6587 280.182 95.9877 279.772 C 96.5487 279.599 97.0997 279.421 97.6647 279.251 C 99.3247 278.75 101.008 278.261 102.703 277.779 C 102.952 277.709 103.194 277.633 103.443 277.563 C 107.379 276.455 111.406 275.4 115.516 274.399 C 116.051 274.268 116.597 274.145 117.135 274.017 C 118.643 273.657 120.155 273.298 121.685 272.953 C 122.395 272.793 123.118 272.64 123.833 272.483 C 125.208 272.181 126.583 271.879 127.975 271.588 C 128.778 271.42 129.592 271.261 130.401 271.097 C 131.72 270.83 133.039 270.564 134.372 270.308 C 135.243 270.141 136.122 269.981 136.999 269.818 C 138.287 269.579 139.576 269.34 140.877 269.112 C 141.794 268.95 142.719 268.796 143.643 268.638 C 144.923 268.421 146.205 268.206 147.496 267.998 C 148.447 267.846 149.404 267.699 150.361 267.552 C 151.638 267.355 152.918 267.161 154.205 266.974 C 155.187 266.831 156.173 266.694 157.16 266.556 C 158.442 266.378 159.728 266.203 161.019 266.035 C 162.021 265.904 163.027 265.776 164.035 265.651 C 164.159 265.636 164.281 265.62 164.405 265.604 C 164.726 265.026 165.162 264.506 165.702 264.086 C 168.369 262.011 171.052 259.834 173.645 257.73 C 173.651 257.725 173.657 257.72 173.663 257.716 L 126.308 246.622 C 124.194 246.127 122.641 244.324 122.465 242.159 C 122.289 239.995 123.529 237.965 125.535 237.134 L 145.093 229.036 L 120.921 198.521 C 119.646 196.911 119.485 194.686 120.515 192.909 C 121.545 191.133 123.556 190.164 125.588 190.473 L 164.103 196.292 L 161.211 175.441 C 160.912 173.284 162.043 171.181 164.007 170.242 C 165.972 169.304 168.318 169.742 169.808 171.329 L 188.426 191.153 L 177.923 141.885 C 177.486 139.835 178.374 137.718 180.148 136.6 C 181.922 135.482 184.204 135.566 185.865 136.846 L 202.482 149.605 L 216.882 113.34 C 217.639 111.438 219.481 110.001 221.528 110.001 L 221.538 110.001 C 223.59 110.001 225.431 111.451 226.182 113.359 L 240.407 149.711 L 257.21 136.88 C 258.876 135.608 261.155 135.509 262.925 136.633 C 264.694 137.756 265.574 139.862 265.131 141.91 L 254.499 191.085 L 273.049 171.331 C 274.533 169.749 276.871 169.305 278.834 170.235 C 280.795 171.164 281.934 173.253 281.65 175.405 L 278.905 196.299 L 317.468 190.471 C 319.504 190.16 321.517 191.134 322.545 192.914 C 323.573 194.695 323.406 196.925 322.123 198.533 L 297.783 229.043 L 317.32 237.132 C 319.325 237.963 320.566 239.992 320.39 242.155 C 320.215 244.319 318.663 246.122 316.551 246.619 L 270.267 257.5 L 279.756 264.132 C 279.804 264.165 279.844 264.206 279.89 264.24 C 280.975 264.351 282.055 264.468 283.132 264.586 C 284.109 264.692 285.083 264.802 286.054 264.915 C 287.216 265.051 288.371 265.191 289.525 265.336 C 290.485 265.455 291.445 265.575 292.398 265.701 C 293.552 265.852 294.697 266.012 295.84 266.172 C 296.774 266.303 297.708 266.433 298.636 266.569 C 299.788 266.739 300.929 266.917 302.071 267.094 C 302.973 267.235 303.878 267.373 304.773 267.52 C 305.934 267.709 307.084 267.909 308.233 268.107 C 309.09 268.254 309.952 268.399 310.801 268.551 C 312.005 268.768 313.195 268.995 314.385 269.221 C 315.161 269.368 315.946 269.511 316.717 269.662 C 318.094 269.933 319.452 270.217 320.811 270.501 C 321.378 270.62 321.955 270.732 322.519 270.854 C 324.424 271.262 326.311 271.684 328.177 272.118 C 328.695 272.239 329.198 272.367 329.713 272.489 C 331.062 272.81 332.41 273.133 333.738 273.467 C 334.458 273.649 335.163 273.839 335.876 274.025 C 336.981 274.312 338.089 274.597 339.178 274.894 C 339.945 275.102 340.697 275.319 341.454 275.532 C 342.472 275.817 343.489 276.102 344.492 276.396 C 345.268 276.624 346.033 276.858 346.801 277.09 C 347.764 277.382 348.728 277.673 349.677 277.973 C 350.45 278.216 351.212 278.466 351.977 278.715 C 352.899 279.016 353.82 279.317 354.728 279.624 C 355.489 279.882 356.24 280.144 356.99 280.406 C 357.883 280.719 358.771 281.033 359.65 281.352 C 360.389 281.621 361.122 281.893 361.851 282.166 C 362.717 282.491 363.578 282.82 364.43 283.152 C 365.147 283.431 365.859 283.713 366.565 283.998 C 367.409 284.337 368.243 284.681 369.072 285.027 C 369.762 285.316 370.451 285.606 371.132 285.9 C 371.952 286.254 372.761 286.614 373.567 286.975 C 374.229 287.272 374.892 287.569 375.545 287.871 C 376.35 288.244 377.139 288.622 377.927 289.002 C 378.554 289.304 379.184 289.604 379.8 289.91 C 380.596 290.306 381.374 290.708 382.153 291.11 C 382.735 291.412 383.324 291.711 383.897 292.016 C 384.697 292.443 385.477 292.878 386.257 293.313 C 386.782 293.606 387.318 293.894 387.833 294.19 C 388.681 294.676 389.503 295.171 390.326 295.667 C 390.75 295.922 391.185 296.172 391.603 296.43 C 392.763 297.146 393.896 297.871 395.005 298.607 C 395.07 298.65 395.14 298.691 395.204 298.735 C 396.341 299.491 397.451 300.257 398.534 301.034 C 399.858 292.429 400.528 283.704 400.528 274.999 C 400.528 196.349 349.67 115.791 284.744 91.601 C 264.085 83.903 242.306 80 220.011 80 C 197.717 80 175.936 83.903 155.276 91.602 C 90.3497 115.791 39.4917 196.35 39.4917 275 C 39.4917 284.748 40.3307 294.507 41.9897 304.106 C 42.1627 303.99 42.3477 303.878 42.5217 303.763 Z"
     id="path3"
     style="fill:#000000" />
  <path
     d="M 257.094 250.325 L 299.159 240.436 L 287.818 235.741 C 286.367 235.139 285.282 233.891 284.889 232.37 C 284.496 230.849 284.842 229.231 285.823 228.003 L 306.355 202.265 L 273.829 207.18 C 272.277 207.415 270.702 206.906 269.581 205.805 C 268.459 204.705 267.92 203.142 268.125 201.584 L 269.714 189.491 L 249.446 211.074 C 247.91 212.712 245.468 213.125 243.477 212.078 C 241.488 211.034 240.439 208.791 240.914 206.595 L 252.487 153.068 L 241.212 161.677 C 239.966 162.63 238.346 162.941 236.835 162.52 C 235.324 162.099 234.099 160.993 233.524 159.534 L 221.5 128.966 L 209.324 159.553 C 208.744 161.011 207.513 162.111 206.001 162.526 C 204.488 162.94 202.869 162.622 201.626 161.665 L 190.542 153.123 L 201.946 206.611 C 202.414 208.806 201.362 211.044 199.374 212.084 C 197.385 213.125 194.947 212.712 193.411 211.077 L 173.276 189.634 L 174.929 201.551 C 175.146 203.114 174.613 204.686 173.491 205.795 C 172.369 206.903 170.79 207.417 169.23 207.182 L 136.639 202.257 L 157.046 228.019 C 158.02 229.248 158.36 230.863 157.966 232.38 C 157.572 233.898 156.488 235.143 155.04 235.743 L 143.719 240.431 L 185.962 250.327 C 187.837 250.766 189.294 252.244 189.706 254.126 C 190.118 256.008 189.412 257.959 187.892 259.142 C 185.958 260.646 184.017 262.204 182.107 263.748 C 183.115 263.66 184.123 263.572 185.135 263.489 C 186.468 263.381 187.806 263.281 189.146 263.182 C 190.199 263.105 191.25 263.026 192.308 262.953 C 193.67 262.861 195.038 262.78 196.408 262.698 C 197.452 262.635 198.494 262.57 199.542 262.513 C 200.947 262.437 202.359 262.373 203.77 262.308 C 204.793 262.261 205.812 262.209 206.838 262.168 C 208.315 262.108 209.799 262.063 211.283 262.015 C 212.252 261.984 213.217 261.947 214.188 261.92 C 215.052 261.897 215.921 261.883 216.788 261.863 C 217.324 261.851 217.861 261.842 218.398 261.832 C 218.653 261.827 218.908 261.822 219.164 261.817 C 219.972 261.802 220.776 261.781 221.586 261.77 C 221.999 261.764 222.414 261.763 222.827 261.758 C 223.934 261.745 225.041 261.742 226.148 261.737 C 227.111 261.731 228.07 261.717 229.035 261.717 C 231.387 261.717 233.727 261.733 236.056 261.763 C 236.833 261.774 237.603 261.791 238.377 261.805 C 239.925 261.832 241.473 261.855 243.01 261.895 C 243.57 261.91 244.126 261.922 244.685 261.938 C 244.703 261.939 244.72 261.925 244.737 261.925 C 245.081 261.935 245.421 261.918 245.763 261.93 C 247.142 261.973 248.522 261.954 249.891 262.008 C 250.754 262.042 251.61 262 252.468 262 L 252.474 262 C 252.583 262 252.692 262.133 252.801 262.138 C 254.104 262.198 255.407 262.378 256.701 262.447 C 257.697 262.501 258.685 262.561 259.676 262.62 C 259.843 262.63 260.011 262.639 260.178 262.648 L 255.375 259.292 C 253.759 258.162 252.957 256.188 253.329 254.251 C 253.699 252.313 255.175 250.776 257.094 250.325 Z"
     id="path4"
     style="fill:#000000" />
  <path
     d="M 411.377 327.85 C 408.124 323.001 403.876 318.259 398.75 313.881 C 374.325 293.021 329.58 278.811 274.704 273.762 C 274.615 273.758 274.525 273.77 274.435 273.761 C 265.266 272.917 255.873 272.333 246.36 272.012 C 246.31 272.011 246.26 272.009 246.212 272.007 C 244.472 271.949 242.726 271.902 240.978 271.861 C 240.462 271.849 239.943 271.84 239.425 271.83 C 237.97 271.801 236.513 271.774 235.053 271.757 C 234.079 271.746 233.1 271.743 232.122 271.738 C 231.087 271.731 230.052 271.72 229.015 271.72 C 227.159 271.72 225.3 271.737 223.443 271.756 C 223.01 271.761 222.575 271.76 222.142 271.765 C 220.753 271.784 219.365 271.818 217.977 271.846 C 216.993 271.867 216.006 271.882 215.024 271.909 C 213.82 271.941 212.618 271.986 211.416 272.026 C 210.235 272.065 209.053 272.102 207.875 272.149 C 206.851 272.191 205.828 272.242 204.804 272.289 C 203.415 272.353 202.026 272.417 200.643 272.492 C 199.847 272.535 199.051 272.585 198.256 272.632 C 196.602 272.73 194.949 272.83 193.304 272.944 C 192.794 272.978 192.284 273.017 191.775 273.053 C 189.775 273.197 187.78 273.347 185.796 273.513 C 185.661 273.524 185.526 273.535 185.391 273.547 C 124.159 278.714 70.3137 294.509 41.6417 316.666 C 36.8427 320.374 32.7057 324.266 29.3457 328.232 C 17.8737 341.773 19.2457 380.788 28.6807 401.144 C 31.8747 408.037 35.6717 411.989 39.0977 411.989 C 40.2637 411.989 41.5547 411.564 42.9367 410.725 C 49.7227 406.607 57.1827 402.709 65.1077 399.144 C 65.1277 399.135 65.1487 399.126 65.1687 399.118 C 66.6247 398.463 68.1017 397.823 69.5887 397.191 C 69.9647 397.032 70.3447 396.874 70.7227 396.715 C 71.9887 396.185 73.2647 395.663 74.5527 395.15 C 74.8147 395.046 75.0747 394.94 75.3377 394.837 C 101.042 384.688 131.008 377.809 163.914 374.447 C 163.995 374.438 164.075 374.426 164.156 374.418 C 168.47 373.98 172.834 373.593 177.247 373.276 C 177.427 373.262 177.607 373.234 177.787 373.222 C 179.832 373.077 181.889 372.912 183.954 372.794 C 184.112 372.785 184.269 372.71 184.427 372.701 C 188.924 372.448 193.468 371.999 198.055 371.999 L 198.088 371.999 C 202.732 371.999 207.417 371.868 212.147 371.868 C 214.675 371.868 217.203 371.999 219.73 371.999 L 219.746 371.999 C 271.787 372.999 323.506 381.407 364.575 396.02 C 364.777 396.092 364.979 396.229 365.181 396.301 C 366.614 396.815 368.034 397.343 369.441 397.871 C 369.793 398.003 370.148 398.148 370.498 398.281 C 372.127 398.9 373.743 399.557 375.334 400.196 C 383.565 403.499 391.16 407.083 397.907 410.724 C 399.315 411.485 400.63 411.997 401.813 411.997 L 401.815 411.997 C 405.696 411.997 408.843 407.498 410.8 403.829 C 421.248 384.244 421.562 343.028 411.377 327.85 Z"
     id="path5"
     style="fill:#000000" />
</svg>
