<?xml version="1.0" encoding="UTF-8" standalone="no"?>
<!-- Created with Inkscape (http://www.inkscape.org/) -->

<svg
   width="21.704"
   height="21.704"
   viewBox="0 0 21.704 21.704001"
   version="1.1"
   id="svg1"
   inkscape:version="1.4.2 (ebf0e940d0, 2025-05-08)"
   sodipodi:docname="trader.svg"
   xmlns:inkscape="http://www.inkscape.org/namespaces/inkscape"
   xmlns:sodipodi="http://sodipodi.sourceforge.net/DTD/sodipodi-0.dtd"
   xmlns="http://www.w3.org/2000/svg"
   xmlns:svg="http://www.w3.org/2000/svg">
  <sodipodi:namedview
     id="namedview1"
     pagecolor="#ffffff"
     bordercolor="#000000"
     borderopacity="0.25"
     inkscape:showpageshadow="2"
     inkscape:pageopacity="0.0"
     inkscape:pagecheckerboard="0"
     inkscape:deskcolor="#d1d1d1"
     inkscape:document-units="mm"
     inkscape:zoom="8.217228"
     inkscape:cx="13.569053"
     inkscape:cy="22.696218"
     inkscape:window-width="2256"
     inkscape:window-height="1427"
     inkscape:window-x="0"
     inkscape:window-y="0"
     inkscape:window-maximized="1"
     inkscape:current-layer="svg1" />
  <defs
     id="defs1" />
  <path
     d="M 9.70375 2.41243 L 13.5857 1.2063 L 9.70375 0.00017 Z"
     id="path1"
     style="fill:#000000;stroke-width:0.264583" />
  <path
     d="M 9.78021 0.00112 C 9.59625 0.00112 9.44639 0.14995 9.44639 0.33495 L 9.44639 17.046 C 9.44639 17.1339 9.48153 17.2186 9.54457 17.2817 C 9.60659 17.3437 9.69134 17.3788 9.78022 17.3788 C 9.86807 17.3788 9.95385 17.3437 10.0159 17.2817 C 10.0779 17.2186 10.113 17.1339 10.113 17.046 L 10.113 0.33495 C 10.113 0.24606 10.0779 0.16131 10.0159 0.09827 C 9.95385 0.03626 9.86807 0.00112 9.78022 0.00112 Z"
     id="path2"
     style="fill:#000000;stroke-width:0.264583" />
  <path
     d="M 1.25877 15.8525 L 3.30414 19.3436 C 3.49844 19.2951 3.69585 19.2651 3.89326 19.2651 C 4.48547 19.2651 4.9299 19.5679 5.29576 19.8005 C 5.66163 20.033 5.94791 20.1953 6.21249 20.1953 C 6.47708 20.1953 6.76439 20.033 7.12922 19.8005 C 7.49509 19.5679 7.93951 19.2651 8.53173 19.2651 C 9.12394 19.2651 9.56836 19.5679 9.93423 19.8005 C 10.3001 20.033 10.5864 20.1953 10.851 20.1953 C 11.1166 20.1953 11.4029 20.033 11.7677 19.8005 C 12.1335 19.5679 12.578 19.2651 13.1702 19.2651 C 13.7624 19.2651 14.2068 19.5679 14.5727 19.8005 C 14.9386 20.033 15.2248 20.1953 15.4905 20.1953 C 15.7551 20.1953 16.0424 20.033 16.4072 19.8005 C 16.7731 19.5679 17.2175 19.2651 17.8097 19.2651 C 18.0071 19.2651 18.2045 19.2951 18.3988 19.3436 L 20.4442 15.8525 Z"
     id="path3"
     style="fill:#000000;stroke-width:0.264583" />
  <path
     d="M 10.1276 14.9666 L 20.4506 14.9666 C 18.4476 10.3674 14.7724 6.32641 10.1276 2.60769 C 10.1276 2.60769 11.1797 7.08709 11.1797 9.95596 C 11.1797 12.8248 10.1276 14.9666 10.1276 14.9666 Z"
     id="path4"
     style="fill:#000000;stroke-width:0.264583" />
  <path
     d="M 9.44657 14.9666 L 2.89205 14.9666 L 9.44657 6.18883 Z"
     id="path5"
     style="fill:#000000;stroke-width:0.264583" />
  <path
     d="M 3.89323 19.8707 C 3.30101 19.8707 2.70983 20.1373 2.2127 20.3823 C 1.71558 20.6273 1.33111 20.8712 1.33111 20.8712 C 1.23086 20.9363 1.15851 21.0376 1.13268 21.1543 C 1.10684 21.2711 1.12854 21.3941 1.19262 21.4954 C 1.2567 21.5967 1.35902 21.668 1.4758 21.6939 C 1.59259 21.7197 1.71558 21.698 1.81688 21.6339 C 1.81688 21.6339 2.16414 21.4138 2.61269 21.1926 C 3.06124 20.9725 3.6297 20.774 3.89428 20.774 C 4.15989 20.774 4.44617 20.9363 4.81101 21.1688 C 5.17687 21.4014 5.62129 21.7042 6.21351 21.7042 C 6.80573 21.7042 7.25015 21.4014 7.61602 21.1688 C 7.98188 20.9363 8.26816 20.774 8.5338 20.774 C 8.79942 20.774 9.0857 20.9363 9.45053 21.1688 C 9.8164 21.4014 10.2608 21.7042 10.853 21.7042 C 11.4453 21.7042 11.8897 21.4014 12.2555 21.1688 C 12.6214 20.9363 12.9077 20.774 13.1723 20.774 C 13.4379 20.774 13.7242 20.9363 14.0901 21.1688 C 14.4559 21.4014 14.9003 21.7042 15.4926 21.7042 C 16.0848 21.7042 16.5292 21.4014 16.8951 21.1688 C 17.2609 20.9363 17.5472 20.774 17.8118 20.774 C 18.0764 20.774 18.6448 20.9725 19.0934 21.1926 C 19.5419 21.4127 19.8892 21.6339 19.8892 21.6339 L 19.8871 21.6339 C 19.9884 21.698 20.1114 21.7197 20.2282 21.6939 C 20.345 21.668 20.4473 21.5967 20.5114 21.4954 C 20.5755 21.3941 20.5972 21.2712 20.5713 21.1543 C 20.5455 21.0376 20.4731 20.9363 20.3729 20.8712 C 20.3729 20.8712 19.9884 20.6262 19.4913 20.3823 C 18.9942 20.1373 18.403 19.8707 17.8108 19.8707 C 17.2185 19.8707 16.7741 20.1735 16.4083 20.406 C 16.0424 20.6386 15.7561 20.8009 15.4915 20.8009 C 15.2259 20.8009 14.9396 20.6386 14.5738 20.406 C 14.2079 20.1735 13.7635 19.8707 13.1713 19.8707 C 12.579 19.8707 12.1346 20.1735 11.7687 20.406 C 11.4029 20.6386 11.1166 20.8009 10.852 20.8009 C 10.5864 20.8009 10.3001 20.6386 9.93529 20.406 C 9.56942 20.1735 9.125 19.8707 8.53279 19.8707 C 7.94057 19.8707 7.49615 20.1735 7.13028 20.406 C 6.76442 20.6386 6.47814 20.8009 6.2125 20.8009 C 5.94685 20.8009 5.6606 20.6386 5.29576 20.406 C 4.9299 20.1735 4.48548 19.8707 3.89326 19.8707 Z"
     id="path6"
     style="fill:#000000;stroke-width:0.264583" />
</svg>
