<?xml version="1.0" encoding="UTF-8" standalone="no"?>
<!-- Created with Inkscape (http://www.inkscape.org/) -->

<svg
   width="85.724998"
   height="85.724998"
   viewBox="0 0 85.724998 85.724999"
   version="1.1"
   id="svg1"
   inkscape:version="1.4.2 (ebf0e940d0, 2025-05-08)"
   sodipodi:docname="antenna.svg"
   xmlns:inkscape="http://www.inkscape.org/namespaces/inkscape"
   xmlns:sodipodi="http://sodipodi.sourceforge.net/DTD/sodipodi-0.dtd"
   xmlns="http://www.w3.org/2000/svg"
   xmlns:svg="http://www.w3.org/2000/svg">
  <sodipodi:namedview
     id="namedview1"
     pagecolor="#ffffff"
     bordercolor="#000000"
     borderopacity="0.25"
     inkscape:showpageshadow="2"
     inkscape:pageopacity="0.0"
     inkscape:pagecheckerboard="0"
     inkscape:deskcolor="#d1d1d1"
     inkscape:document-units="px"
     inkscape:zoom="4.8041667"
     inkscape:cx="61.613183"
     inkscape:cy="93.564614"
     inkscape:window-width="2256"
     inkscape:window-height="1427"
     inkscape:window-x="0"
     inkscape:window-y="0"
     inkscape:window-maximized="1"
     inkscape:current-layer="svg1" />
  <defs
     id="defs1" />
  <path
     d="M 18.8784 6.10848 C 20.2729 4.71397 20.2729 2.45228 18.8784 1.05767 C 17.4839 -0.336825 15.2222 -0.336825 13.8276 1.05767 C -2.1884 17.0697 -2.1884 43.1237 13.8276 59.1357 C 14.5268 59.8349 15.4409 60.1826 16.351 60.1826 C 17.2651 60.1826 18.1791 59.8349 18.8744 59.1357 C 20.2689 57.7412 20.2689 55.4795 18.8744 54.0849 C 5.6474 40.8579 5.6474 19.3389 18.8783 6.10787 Z"
     id="path1"
     style="fill:#000000" />
  <path
     d="M 61.8034 49.0465 C 61.1237 49.7262 60.1979 50.0817 59.2682 50.0817 C 58.3737 50.0817 57.4479 49.7262 56.7682 49.0465 C 55.3737 47.652 55.3737 45.3668 56.7682 43.9762 C 64.4127 36.3317 64.4127 23.8712 56.7682 16.2262 C 55.3737 14.8317 55.3737 12.5465 56.7682 11.1559 C 58.1627 9.76137 60.4127 9.76137 61.8034 11.1559 C 72.2294 21.6169 72.2294 38.5819 61.8034 49.0469 Z"
     id="path2"
     style="fill:#000000" />
  <path
     d="M 83.9094 30.0815 C 83.9094 41.0815 79.6594 51.4015 71.9094 59.1515 C 71.1946 59.8312 70.3039 60.1867 69.3742 60.1867 C 68.4797 60.1867 67.5539 59.8312 66.839 59.1515 C 65.4445 57.757 65.4445 55.4718 66.839 54.0812 C 73.2687 47.6867 76.7687 39.1862 76.7687 30.0812 C 76.7687 21.0109 73.2687 12.5112 66.839 6.11618 C 65.4445 4.72168 65.4445 2.43647 66.839 1.04587 C 68.2687 -0.348625 70.5187 -0.348625 71.9093 1.04587 C 79.6593 8.79588 83.9093 19.1159 83.9093 30.0809 Z"
     id="path3"
     style="fill:#000000" />
  <path
     d="M 26.4444 50.0815 C 25.5499 50.0815 24.6241 49.726 23.9092 49.0463 C 13.4792 38.5813 13.4792 21.6163 23.9092 11.1513 C 25.3389 9.75677 27.5889 9.75677 28.9795 11.1513 C 30.374 12.5458 30.374 14.831 28.9795 16.2216 C 21.335 23.8661 21.335 36.3266 28.9795 43.9716 C 30.374 45.3661 30.374 47.6513 28.9795 49.0419 C 28.2647 49.7255 27.374 50.081 26.4443 50.081 Z"
     id="path4"
     style="fill:#000000" />
  <path
     d="M 50.5144 39.9015 C 53.4441 37.6163 55.3699 34.0812 55.3699 30.0812 C 55.3699 23.2257 49.7644 17.6162 42.8699 17.6162 C 35.9754 17.6162 30.3699 23.2217 30.3699 30.0812 C 30.3699 34.0812 32.2996 37.6164 35.1902 39.9015 L 24.0882 81.2255 C 23.5882 83.12 24.7327 85.081 26.6234 85.62 C 26.9437 85.6903 27.2289 85.7254 27.5531 85.7254 C 29.1234 85.7254 30.5883 84.6902 31.0179 83.0809 L 35.0179 68.1859 L 50.7329 68.1859 L 54.6977 83.0809 C 55.1274 84.6864 56.5922 85.7254 58.1625 85.7254 C 58.4476 85.7254 58.768 85.6903 59.0922 85.62 C 60.9867 85.0848 62.1274 83.1552 61.6274 81.2255 Z M 36.9094 61.0465 L 41.9094 42.5115 C 42.2297 42.5115 42.5539 42.5818 42.8742 42.5818 C 43.1945 42.5818 43.5188 42.5115 43.8391 42.5115 L 48.8039 61.0465 Z"
     id="path5"
     style="fill:#000000" />
</svg>
