<?xml version="1.0" encoding="UTF-8" standalone="no"?>
<!-- Created with Inkscape (http://www.inkscape.org/) -->

<svg
   width="21.179001"
   height="21.179001"
   viewBox="0 0 21.179001 21.179001"
   version="1.1"
   id="svg1"
   inkscape:version="1.4.2 (ebf0e940d0, 2025-05-08)"
   sodipodi:docname="trunk.svg"
   xmlns:inkscape="http://www.inkscape.org/namespaces/inkscape"
   xmlns:sodipodi="http://sodipodi.sourceforge.net/DTD/sodipodi-0.dtd"
   xmlns="http://www.w3.org/2000/svg"
   xmlns:svg="http://www.w3.org/2000/svg">
  <sodipodi:namedview
     id="namedview1"
     pagecolor="#ffffff"
     bordercolor="#000000"
     borderopacity="0.25"
     inkscape:showpageshadow="2"
     inkscape:pageopacity="0.0"
     inkscape:pagecheckerboard="0"
     inkscape:deskcolor="#d1d1d1"
     inkscape:document-units="px"
     inkscape:zoom="5.8104576"
     inkscape:cx="67.636669"
     inkscape:cy="36.916197"
     inkscape:window-width="2256"
     inkscape:window-height="1427"
     inkscape:window-x="0"
     inkscape:window-y="0"
     inkscape:window-maximized="1"
     inkscape:current-layer="svg1" />
  <defs
     id="defs1" />
  <path
     d="M 16.607 9.31377 L 21.1731 9.31377 L 21.1731 10.6956 L 16.607 10.6956 L 16.607 9.31377 Z"
     id="path1"
     style="fill:#000000;stroke-width:0.264583" />
  <path
     d="M 16.8808 2.99261 L 6.35647 2.99261 C 8.04829 3.84268 9.0283 5.76325 8.8793 7.62881 L 8.8793 8.77212 L 11.2905 8.77212 C 11.3316 8.24548 11.1878 7.67907 11.41 7.18827 C 11.8009 6.69395 12.4862 6.94087 13.0294 6.88077 C 14.0371 6.89044 15.047 6.86129 16.0534 6.89558 C 16.7677 7.05906 16.5853 7.86907 16.607 8.41116 C 16.4568 8.89019 16.9112 8.76457 17.2324 8.77212 L 21.1732 8.77212 C 21.1671 7.55536 21.291 6.25623 20.615 5.17273 C 19.8762 3.84266 18.402 2.98336 16.8808 2.99261 Z"
     id="path2"
     style="fill:#000000;stroke-width:0.264583" />
  <path
     d="M 8.88033 9.31377 L 11.2916 9.31377 L 11.2916 10.6956 L 8.88033 10.6956 L 8.88033 9.31377 Z"
     id="path3"
     style="fill:#000000;stroke-width:0.264583" />
  <path
     d="M 15.9135 12.4464 C 16.2105 12.2363 16.0041 11.7454 16.0655 11.4086 L 16.0655 7.57752 C 15.8584 7.27549 15.3646 7.48441 15.0276 7.42249 L 11.9882 7.42249 C 11.6866 7.63181 11.8948 8.12527 11.8331 8.46343 L 11.8331 12.2945 C 12.0449 12.591 12.536 12.3854 12.8741 12.4464 C 13.8872 12.4464 14.9004 12.4464 15.9135 12.4464 Z M 13.9498 8.59648 C 15.1001 8.60238 14.8946 10.0119 14.3804 10.4422 C 14.4068 10.6948 14.7664 11.1842 14.5659 11.2754 L 13.2284 11.2754 C 13.3431 10.9485 13.4578 10.6215 13.5726 10.2946 C 12.7151 9.93472 13.0206 8.55927 13.9498 8.59648 Z"
     id="path4"
     style="fill:#000000;stroke-width:0.264583" />
  <path
     d="M 16.607 12.2943 C 16.6096 12.985 15.8556 13.0315 15.3402 12.9878 C 14.1763 12.9787 13.0106 13.006 11.8478 12.974 C 11.1316 12.8142 11.3127 12.0024 11.2915 11.4605 C 11.3897 11.045 10.8033 11.314 10.5619 11.238 L 8.88028 11.238 L 8.88028 18.1876 L 21.1731 18.1876 L 21.1731 11.238 L 16.6069 11.238 C 16.6069 11.5901 16.6069 11.9422 16.607 12.2943 Z"
     id="path5"
     style="fill:#000000;stroke-width:0.264583" />
  <path
     d="M 1.63234 11.2381 L 6.71207 11.2381 L 6.71207 18.1876 L 1.63234 18.1876 L 1.63234 11.2381 Z"
     id="path6"
     style="fill:#000000;stroke-width:0.264583" />
  <path
     d="M 7.25473 11.2381 L 8.33892 11.2381 L 8.33892 18.1876 L 7.25473 18.1876 L 7.25473 11.2381 Z"
     id="path7"
     style="fill:#000000;stroke-width:0.264583" />
  <path
     d="M 0.00647 9.31377 L 8.33767 9.31377 L 8.33767 10.6956 L 0.00647 10.6956 L 0.00647 9.31377 Z"
     id="path8"
     style="fill:#000000;stroke-width:0.264583" />
  <path
     d="M 0.00647 11.2381 L 1.09066 11.2381 L 1.09066 18.1876 L 0.00647 18.1876 L 0.00647 11.2381 Z"
     id="path9"
     style="fill:#000000;stroke-width:0.264583" />
  <path
     d="M 4.17366 2.99261 C 1.88815 2.93259 -0.13238 5.03657 0.00642 7.31619 L 0.00642 8.77217 L 1.09164 8.77217 C 1.12366 7.60468 0.90287 6.31055 1.69611 5.32671 C 2.73088 3.83324 5.10807 3.65608 6.35093 4.98221 C 7.15766 5.72503 7.31314 6.85098 7.25471 7.88953 C 7.31603 8.15719 7.12689 8.67533 7.35893 8.77227 L 8.33992 8.77227 C 8.32848 7.43803 8.48204 5.99351 7.63809 4.84976 C 6.88605 3.70432 5.54398 2.9845 4.17366 2.99261 Z"
     id="path10"
     style="fill:#000000;stroke-width:0.264583" />
  <path
     d="M 4.17366 4.62139 C 2.71125 4.57852 1.47446 5.97888 1.63221 7.42031 L 1.63221 8.77206 L 6.71194 8.77206 C 6.66749 7.68052 6.92672 6.44242 6.13175 5.54529 C 5.65896 4.96571 4.92189 4.61607 4.17366 4.62139 Z"
     id="path11"
     style="fill:#000000;stroke-width:0.264583" />
</svg>
