<?xml version="1.0" encoding="UTF-8" standalone="no"?>
<!-- Created with Inkscape (http://www.inkscape.org/) -->

<svg
   width="512"
   height="512"
   viewBox="0 0 512 512"
   version="1.1"
   id="svg1"
   inkscape:version="1.4.2 (ebf0e940d0, 2025-05-08)"
   sodipodi:docname="underwear.svg"
   xmlns:inkscape="http://www.inkscape.org/namespaces/inkscape"
   xmlns:sodipodi="http://sodipodi.sourceforge.net/DTD/sodipodi-0.dtd"
   xmlns="http://www.w3.org/2000/svg"
   xmlns:svg="http://www.w3.org/2000/svg">
  <sodipodi:namedview
     id="namedview1"
     pagecolor="#ffffff"
     bordercolor="#000000"
     borderopacity="0.25"
     inkscape:showpageshadow="2"
     inkscape:pageopacity="0.0"
     inkscape:pagecheckerboard="0"
     inkscape:deskcolor="#d1d1d1"
     inkscape:document-units="px"
     inkscape:zoom="0.42463235"
     inkscape:cx="74.181818"
     inkscape:cy="531.04762"
     inkscape:window-width="2256"
     inkscape:window-height="1427"
     inkscape:window-x="0"
     inkscape:window-y="0"
     inkscape:window-maximized="1"
     inkscape:current-layer="svg1" />
  <defs
     id="defs1" />
  <path
     id="rect1"
     d="M 198.369 0 L 198.369 12.0664 L 314.211 12.0664 L 314.211 0 Z M 196.031 22.4746 C 194.507 25.6356 192.319 29.2696 189.729 33.5606 C 179.306 50.8315 161.865 79.739 159.442 125.291 C 157.473 162.275 171.139 219.655 181.119 261.551 C 187.214 287.138 191.618 305.626 191.223 313.6 C 190.898 320.083 188.66 327.547 186.072 336.191 C 180.044 356.318 171.785 383.881 179.24 423.535 C 183.153 444.351 186.065 458.877 188.404 470.549 C 192.068 488.828 194.095 498.944 195.637 512 L 216.891 512 C 218.339 493.174 223.73 424.391 227.127 398.861 C 228.7 387.069 231.247 376.421 233.709 366.123 C 237.548 350.076 241.171 334.919 240.815 317.008 C 240.186 284.796 250.374 118.533 250.807 111.471 C 250.811 111.402 250.833 111.338 250.84 111.27 C 250.858 111.083 250.891 110.904 250.928 110.723 C 250.962 110.565 250.996 110.408 251.043 110.256 C 251.098 110.081 251.164 109.914 251.234 109.748 C 251.297 109.605 251.356 109.464 251.43 109.328 C 251.519 109.164 251.62 109.012 251.725 108.859 C 251.807 108.739 251.89 108.62 251.981 108.508 C 252.105 108.357 252.24 108.218 252.379 108.082 C 252.476 107.988 252.57 107.896 252.674 107.809 C 252.826 107.681 252.989 107.567 253.156 107.457 C 253.269 107.383 253.38 107.308 253.498 107.242 C 253.667 107.149 253.843 107.073 254.022 106.998 C 254.161 106.94 254.298 106.884 254.443 106.838 C 254.612 106.785 254.784 106.749 254.959 106.713 C 255.13 106.678 255.3 106.647 255.475 106.629 C 255.544 106.622 255.609 106.6 255.68 106.596 C 255.789 106.589 255.891 106.609 255.998 106.609 C 256.105 106.609 256.209 106.589 256.318 106.596 C 256.389 106.6 256.454 106.622 256.524 106.629 C 256.704 106.648 256.877 106.679 257.051 106.715 C 257.218 106.75 257.382 106.785 257.543 106.836 C 257.703 106.886 257.856 106.948 258.012 107.014 C 258.17 107.081 258.326 107.148 258.477 107.23 C 258.621 107.308 258.755 107.397 258.891 107.488 C 259.032 107.584 259.17 107.679 259.301 107.787 C 259.428 107.893 259.545 108.009 259.662 108.125 C 259.779 108.241 259.895 108.359 260 108.486 C 260.107 108.616 260.203 108.755 260.299 108.896 C 260.391 109.032 260.48 109.168 260.559 109.312 C 260.639 109.46 260.705 109.614 260.772 109.77 C 260.839 109.928 260.902 110.085 260.953 110.25 C 261.002 110.405 261.037 110.565 261.07 110.727 C 261.107 110.906 261.14 111.085 261.158 111.27 C 261.165 111.338 261.188 111.4 261.192 111.469 C 261.626 118.531 271.812 284.795 271.182 317.006 C 270.827 334.919 274.451 350.076 278.289 366.123 C 280.751 376.42 283.298 387.069 284.871 398.859 C 288.269 424.39 293.658 493.173 295.106 512 L 316.361 512 C 317.902 498.941 319.931 488.819 323.596 470.535 C 325.936 458.866 328.847 444.344 332.758 423.535 C 340.22 383.881 331.96 356.318 325.928 336.191 C 323.342 327.548 321.105 320.083 320.779 313.602 C 320.383 305.626 324.787 287.14 330.881 261.555 C 340.86 219.659 354.527 162.277 352.559 125.291 C 350.136 79.738 332.695 50.8315 322.272 33.5606 C 319.682 29.2696 317.496 25.6346 315.971 22.4746 Z"
     style="fill:#000000" />
</svg>
