<?xml version="1.0" encoding="UTF-8" standalone="no"?>
<!-- Created with Inkscape (http://www.inkscape.org/) -->

<svg
   width="95.998001"
   height="95.998001"
   viewBox="0 0 95.998001 95.998001"
   version="1.1"
   id="svg1"
   inkscape:version="1.4.2 (ebf0e940d0, 2025-05-08)"
   sodipodi:docname="urban.svg"
   xmlns:inkscape="http://www.inkscape.org/namespaces/inkscape"
   xmlns:sodipodi="http://sodipodi.sourceforge.net/DTD/sodipodi-0.dtd"
   xmlns="http://www.w3.org/2000/svg"
   xmlns:svg="http://www.w3.org/2000/svg">
  <sodipodi:namedview
     id="namedview1"
     pagecolor="#ffffff"
     bordercolor="#000000"
     borderopacity="0.25"
     inkscape:showpageshadow="2"
     inkscape:pageopacity="0.0"
     inkscape:pagecheckerboard="0"
     inkscape:deskcolor="#d1d1d1"
     inkscape:document-units="px"
     inkscape:zoom="9.6083333"
     inkscape:cx="11.03209"
     inkscape:cy="73.009541"
     inkscape:window-width="2256"
     inkscape:window-height="1427"
     inkscape:window-x="0"
     inkscape:window-y="0"
     inkscape:window-maximized="1"
     inkscape:current-layer="svg1" />
  <defs
     id="defs1" />
  <path
     d="M 37.45791,0.07767 C 37.18791,0.17767 36.37791,0.57767 35.83791,0.88767 35.05791,1.32767 34.31791,2.12767 33.95791,2.91767 33.69791,3.47767 33.85791,4.34767 34.30791,4.82767 34.55791,5.09767 35.79791,5.72767 36.70791,6.03767 37.00791,6.14767 37.50791,6.31767 37.81791,6.42767 38.55791,6.69767 41.02791,7.39767 41.82791,7.55767 42.17791,7.62767 42.92791,7.74767 43.50791,7.80767 44.08791,7.86767 44.82791,7.96767 45.15791,8.02767 45.85791,8.14767 46.64791,8.24767 46.70791,8.22767 46.72791,8.20767 46.75791,8.04767 46.77791,7.85767 46.79791,7.66767 46.84791,7.45767 46.90791,7.36767 L 47.00791,7.21767 45.80791,6.07767 C 45.14791,5.44767 44.35791,4.63767 44.04791,4.27767 43.73791,3.90767 43.23791,3.34767 42.93791,3.02767 42.63791,2.69767 42.15791,2.17767 41.89791,1.86767 41.49791,1.40767 41.28791,1.21767 40.83791,0.93767 40.17791,0.50767 39.59791,0.21767 39.17791,0.08767 38.79791,-0.02233 37.75791,-0.03233 37.45791,0.07767 Z"
     id="path1"
     style="stroke-width:0.1;fill:#000000" />
  <path
     d="M 56.80791,0.09767 C 56.29791,0.26767 56.06791,0.37767 55.48791,0.72767 54.81791,1.12767 54.51791,1.38767 54.01791,1.97767 53.79791,2.22767 53.35791,2.72767 53.03791,3.08767 52.70791,3.44767 52.15791,4.06767 51.80791,4.46767 51.45791,4.86767 50.68791,5.64767 50.08791,6.20767 L 49.00791,7.21767 49.10791,7.38767 C 49.15791,7.47767 49.21791,7.69767 49.24791,7.87767 49.26791,8.05767 49.30791,8.21767 49.31791,8.22767 49.37791,8.25767 50.09791,8.16767 51.00791,8.00767 51.44791,7.92767 52.10791,7.83767 52.46791,7.80767 53.24791,7.73767 53.97791,7.61767 54.60791,7.46767 55.69791,7.19767 57.73791,6.59767 58.34791,6.37767 58.70791,6.24767 59.15791,6.07767 59.34791,6.01767 59.53791,5.95767 60.10791,5.70767 60.62791,5.45767 61.38791,5.09767 61.58791,4.97767 61.72791,4.79767 62.16791,4.22767 62.28791,3.44767 62.02791,2.87767 61.79791,2.38767 61.32791,1.76767 60.95791,1.43767 60.59791,1.11767 59.76791,0.62767 58.94791,0.23767 58.50791,0.02767 58.46791,0.02767 57.80791,0.01767 57.25791,-0.00233 57.05791,0.01767 56.80791,0.09767 Z"
     id="path2"
     style="stroke-width:0.1;fill:#000000" />
  <path
     d="M 34.72791,6.17767 C 34.08791,6.33767 33.01791,6.88767 32.43791,7.34767 30.20791,9.11767 29.00791,12.52767 29.57791,15.46767 29.62791,15.71767 29.67791,15.94767 29.69791,15.98767 29.86791,16.27767 31.02791,16.94767 32.47791,17.58767 32.96791,17.80767 33.10791,18.16767 32.80791,18.45767 32.69791,18.57767 32.62791,18.59767 32.45791,18.57767 32.02791,18.52767 30.03791,17.60767 29.52791,17.23767 L 29.23791,17.01767 28.92791,17.25767 C 28.33791,17.69767 27.60791,18.64767 27.05791,19.67767 25.95791,21.71767 25.37791,24.21767 25.53791,26.17767 25.63791,27.34767 25.90791,28.27767 26.48791,29.49767 L 26.85791,30.25767 27.97791,30.79767 C 29.04791,31.31767 29.83791,31.60767 30.78791,31.84767 31.36791,31.98767 32.76791,32.18767 33.21791,32.18767 33.66791,32.18767 33.79791,32.24767 33.89791,32.50767 34.00791,32.76767 33.91791,33.04767 33.68791,33.16767 33.43791,33.28767 32.76791,33.27767 31.71791,33.10767 30.11791,32.85767 29.14791,32.54767 27.69791,31.80767 26.77791,31.33767 26.75791,31.33767 26.61791,31.42767 26.35791,31.58767 25.86791,32.12767 25.54791,32.59767 23.96791,34.92767 23.56791,38.17767 24.46791,41.40767 24.56791,41.77767 24.71791,42.24767 24.79791,42.44767 24.92791,42.79767 24.94791,42.81767 25.20791,42.91767 25.69791,43.09767 26.95791,43.39767 27.82791,43.54767 28.50791,43.66767 28.92791,43.69767 29.85791,43.71767 31.28791,43.74767 31.34791,43.74767 31.56791,43.96767 31.70791,44.11767 31.73791,44.17767 31.73791,44.40767 31.73791,44.64767 31.71791,44.69767 31.54791,44.84767 L 31.35791,45.01767 30.36791,45.05767 C 28.88791,45.11767 27.31791,44.95767 25.95791,44.60767 25.54791,44.50767 25.17791,44.40767 25.12791,44.38767 25.05791,44.35767 24.99791,44.43767 24.88791,44.74767 24.51791,45.71767 24.33791,46.80767 24.33791,48.00767 24.33791,49.95767 24.76791,51.51767 25.72791,53.03767 26.00791,53.47767 26.07791,53.55767 26.23791,53.57767 27.41791,53.78767 29.37791,53.95767 30.61791,53.95767 31.31791,53.95767 31.37791,53.94767 31.33791,53.85767 31.15791,53.38767 30.93791,51.52767 30.98791,50.78767 31.05791,49.67767 31.37791,48.15767 31.85791,46.71767 32.31791,45.33767 32.57791,44.86767 33.31791,44.10767 L 33.75791,43.65767 33.77791,43.09767 C 33.86791,41.25767 34.89791,37.79767 35.81791,36.27767 36.17791,35.67767 36.39791,35.55767 36.77791,35.74767 37.14791,35.92767 37.15791,36.12767 36.81791,36.73767 36.54791,37.23767 35.99791,38.53767 35.64791,39.54767 35.35791,40.35767 34.82791,42.64767 34.81791,43.08767 L 34.80791,43.42767 35.20791,43.52767 C 36.24791,43.77767 37.35791,43.91767 39.42791,44.04767 40.17791,44.09767 41.39791,44.18767 42.13791,44.24767 42.87791,44.31767 43.95791,44.36767 44.53791,44.37767 45.16791,44.38767 45.64791,44.41767 45.71791,44.45767 45.78791,44.48767 45.90791,44.58767 45.98791,44.69767 46.25791,45.00767 46.15791,45.54767 45.77791,45.73767 45.61791,45.82767 45.43791,45.83767 44.47791,45.83767 43.86791,45.83767 42.90791,45.79767 42.33791,45.73767 41.76791,45.67767 40.73791,45.60767 40.02791,45.55767 39.31791,45.50767 38.39791,45.42767 37.97791,45.38767 36.55791,45.22767 34.77791,44.85767 34.39791,44.63767 L 34.21791,44.52767 34.06791,44.69767 C 33.72791,45.09767 33.15791,46.39767 32.64791,47.91767 32.06791,49.67767 31.92791,50.86767 32.12791,52.46767 32.17791,52.86767 32.27791,53.38767 32.35791,53.62767 L 32.49791,54.05767 33.00791,54.17767 C 34.22791,54.46767 36.85791,54.75767 39.24791,54.88767 40.14791,54.92767 41.20791,54.99767 41.58791,55.03767 42.55791,55.11767 44.22791,55.11767 44.52791,55.03767 45.12791,54.87767 45.60791,55.46767 45.28791,55.97767 45.01791,56.40767 44.22791,56.52767 42.03791,56.46767 38.58791,56.38767 35.39791,56.12767 33.38791,55.75767 L 32.76791,55.64767 32.49791,55.92767 C 32.21791,56.22767 32.11791,56.36767 31.01791,58.20767 30.05791,59.78767 29.91791,60.06767 29.81791,60.67767 29.34791,63.25767 29.41791,65.41767 30.00791,66.85767 30.11791,67.13767 30.14791,67.14767 30.73791,67.45767 32.26791,68.24767 33.40791,68.50767 38.47791,69.21767 42.15791,69.72767 42.61791,69.77767 43.84791,69.73767 44.91791,69.70767 44.98791,69.71767 45.15791,70.03767 45.33791,70.38767 45.17791,70.75767 44.73791,70.95767 44.48791,71.06767 44.34791,71.07767 43.21791,71.09767 41.72791,71.12767 41.11791,71.07767 38.42791,70.70767 33.70791,70.05767 31.88791,69.67767 30.57791,69.02767 30.20791,68.83767 30.08791,68.80767 30.05791,68.86767 29.86791,69.14767 29.42791,69.98767 29.16791,70.58767 28.54791,72.00767 28.14791,73.41767 28.00791,74.79767 27.91791,75.62767 27.96791,76.96767 28.09791,77.46767 28.19791,77.83767 28.20791,77.84767 28.51791,78.03767 31.13791,79.59767 33.82791,80.48767 38.13791,81.23767 40.28791,81.61767 41.70791,81.76767 43.41791,81.82767 44.77791,81.86767 44.84791,81.88767 45.06791,82.24767 45.20791,82.47767 45.20791,82.66767 45.06791,82.89767 44.86791,83.21767 44.77791,83.22767 42.81791,83.18767 40.85791,83.14767 40.33791,83.09767 38.79791,82.85767 35.49791,82.32767 32.56791,81.58767 30.72791,80.81767 30.38791,80.66767 29.74791,80.37767 29.31791,80.16767 28.63791,79.82767 28.52791,79.78767 28.49791,79.87767 28.30791,80.36767 27.94791,81.49767 27.81791,81.99767 27.58791,82.97767 27.49791,83.69767 27.45791,84.99767 27.40791,86.91767 27.52791,87.65767 28.11791,88.84767 28.58791,89.78767 29.49791,90.91767 30.69791,92.04767 31.92791,93.19767 32.97791,93.76767 35.04791,94.42767 37.47791,95.18767 39.33791,95.58767 41.44791,95.80767 42.17791,95.88767 45.10791,95.99767 46.30791,95.99767 H 46.77791 L 46.78791,81.74767 C 46.79791,73.90767 46.81791,60.29767 46.83791,51.49767 46.85791,40.85767 46.85791,35.48767 46.81791,35.47767 46.78791,35.46767 44.69791,35.44767 42.16791,35.43767 37.75791,35.40767 36.86791,35.37767 36.47791,35.22767 36.19791,35.12767 35.81791,34.76767 35.69791,34.50767 35.47791,34.02767 35.60791,32.58767 35.87791,32.33767 35.93791,32.28767 36.13791,32.20767 36.32791,32.15767 36.60791,32.07767 37.07791,32.05767 39.39791,32.05767 40.90791,32.04767 43.26791,32.02767 44.66791,31.99767 46.94791,31.95767 47.18791,31.93767 47.15791,31.85767 47.13791,31.80767 47.10791,30.09767 47.09791,28.05767 47.08791,26.01767 47.05791,23.43767 47.02791,22.32767 46.99791,21.21767 46.93791,19.08767 46.90791,17.60767 46.87791,16.12767 46.82791,14.61767 46.79791,14.26767 46.76791,13.91767 46.72791,12.52767 46.72791,11.20767 L 46.70791,8.78767 46.19791,8.71767 C 45.91791,8.67767 45.40791,8.59767 45.05791,8.52767 44.71791,8.46767 43.95791,8.36767 43.37791,8.30767 42.79791,8.23767 42.03791,8.12767 41.68791,8.05767 40.72791,7.84767 38.31791,7.15767 37.50791,6.84767 37.11791,6.69767 36.68791,6.54767 36.56791,6.50767 36.43791,6.46767 36.15791,6.34767 35.92791,6.24767 35.41791,6.03767 35.30791,6.02767 34.72791,6.17767 Z M 35.31791,15.22767 C 35.56791,15.43767 35.62791,15.69767 35.50791,16.02767 35.25791,16.68767 35.04791,18.69767 35.04791,20.41767 35.03791,21.77767 35.05791,21.87767 35.28791,23.49767 35.57791,25.51767 35.86791,27.06767 36.09791,27.84767 36.19791,28.16767 36.47791,28.94767 36.72791,29.56767 37.21791,30.78767 37.25791,31.00767 37.07791,31.33767 36.92791,31.60767 36.65791,31.73767 36.29791,31.71767 35.80791,31.67767 35.75791,31.59767 34.91791,29.44767 34.46791,28.29767 34.16791,27.04767 33.84791,24.93767 33.28791,21.36767 33.18791,19.34767 33.50791,17.59767 33.59791,17.10767 34.01791,15.76767 34.17791,15.44767 34.30791,15.20767 34.58791,15.04767 34.87791,15.04767 35.06791,15.04767 35.16791,15.08767 35.31791,15.22767 Z"
     id="path3"
     style="stroke-width:0.1;fill:#000000" />
  <path
     d="M 60.19791,6.21767 C 60.04791,6.29767 59.74791,6.41767 59.53791,6.48767 59.32791,6.55767 58.86791,6.72767 58.49791,6.86767 57.87791,7.10767 55.81791,7.70767 54.76791,7.96767 54.13791,8.12767 53.42791,8.23767 52.45791,8.33767 51.99791,8.37767 51.35791,8.46767 51.02791,8.53767 50.48791,8.63767 49.56791,8.76767 49.38791,8.76767 49.33791,8.76767 49.31791,9.27767 49.32791,10.93767 49.32791,12.38767 49.29791,13.54767 49.23791,14.40767 49.18791,15.11767 49.14791,16.25767 49.14791,16.93767 49.13791,17.61767 49.11791,18.78767 49.08791,19.54767 49.05791,20.30767 49.00791,23.31767 48.97791,26.25767 48.94791,29.18767 48.90791,31.66767 48.88791,31.76767 L 48.85791,31.93767 51.35791,31.98767 C 52.73791,32.00767 55.09791,32.03767 56.62791,32.04767 58.98791,32.05767 59.44791,32.06767 59.72791,32.14767 59.90791,32.19767 60.09791,32.26767 60.13791,32.30767 60.27791,32.41767 60.39791,32.92767 60.42791,33.51767 60.46791,34.23767 60.39791,34.53767 60.08791,34.84767 59.58791,35.33767 59.13791,35.40767 56.27791,35.41767 55.09791,35.42767 53.01791,35.43767 51.65791,35.43767 L 49.17791,35.44767 49.18791,46.88767 C 49.19791,53.18767 49.21791,66.80767 49.23791,77.16767 L 49.26791,95.99767 50.93791,95.96767 C 54.08791,95.90767 55.61791,95.75767 57.87791,95.25767 59.51791,94.89767 61.91791,94.15767 62.86791,93.72767 64.30791,93.06767 65.58791,91.97767 67.06791,90.14767 67.77791,89.26767 68.26791,88.25767 68.47791,87.25767 68.59791,86.63767 68.61791,84.44767 68.49791,83.54767 68.35791,82.43767 67.94791,80.84767 67.57791,80.01767 L 67.47791,79.76767 66.57791,80.20767 C 64.23791,81.35767 61.67791,82.09767 57.73791,82.75767 55.94791,83.05767 55.13791,83.12767 53.22791,83.17767 51.35791,83.21767 51.22791,83.20767 51.01791,82.96767 50.86791,82.80767 50.82791,82.44767 50.94791,82.23767 51.11791,81.90767 51.27791,81.86767 52.63791,81.82767 54.67791,81.75767 56.74791,81.48767 59.37791,80.95767 62.79791,80.25767 64.71791,79.59767 67.14791,78.24767 67.81791,77.87767 67.81791,77.86767 67.90791,77.58767 68.24791,76.48767 68.09791,74.24767 67.55791,72.42767 67.25791,71.40767 66.51791,69.71767 66.08791,69.03767 L 65.93791,68.79767 65.58791,68.96767 C 64.24791,69.63767 62.72791,69.97767 58.37791,70.58767 55.08791,71.04767 54.44791,71.10767 52.85791,71.07767 51.39791,71.05767 51.25791,71.02767 50.97791,70.69767 50.74791,70.42767 50.75791,70.12767 51.01791,69.86767 L 51.20791,69.67767 52.19791,69.70767 C 53.43791,69.74767 53.88791,69.70767 57.38791,69.21767 61.34791,68.65767 63.00791,68.35767 64.03791,67.99767 64.47791,67.83767 65.75791,67.23767 65.89791,67.10767 65.94791,67.06767 66.04791,66.81767 66.13791,66.56767 66.64791,65.02767 66.68791,63.46767 66.28791,60.93767 66.14791,60.06767 66.07791,59.91767 64.96791,58.07767 63.98791,56.46767 63.82791,56.22767 63.53791,55.89767 L 63.28791,55.61767 62.65791,55.73767 C 61.49791,55.95767 59.20791,56.20767 57.57791,56.29767 54.02791,56.50767 51.95791,56.50767 51.33791,56.32767 50.91791,56.20767 50.64791,55.93767 50.64791,55.66767 50.64791,55.27767 50.89791,54.99767 51.25791,54.99767 51.34791,54.99767 51.64791,55.02767 51.92791,55.06767 52.39791,55.12767 54.41791,55.07767 54.86791,54.98767 54.94791,54.96767 55.54791,54.93767 56.20791,54.90767 57.91791,54.82767 58.82791,54.75767 60.22791,54.59767 61.86791,54.40767 63.17791,54.19767 63.43791,54.06767 63.58791,53.98767 63.76791,53.35767 63.88791,52.45767 64.02791,51.40767 64.02791,50.96767 63.88791,50.03767 63.71791,48.86767 63.24791,47.35767 62.61791,45.91767 62.31791,45.22767 61.92791,44.57767 61.82791,44.57767 61.79791,44.57767 61.69791,44.61767 61.60791,44.65767 61.51791,44.69767 61.13791,44.81767 60.76791,44.90767 59.54791,45.20767 58.08791,45.41767 56.37791,45.52767 55.87791,45.55767 54.65791,45.64767 53.66791,45.72767 51.61791,45.88767 50.56791,45.89767 50.25791,45.73767 49.73791,45.45767 49.74791,44.74767 50.26791,44.47767 50.40791,44.40767 50.65791,44.37767 51.49791,44.37767 52.07791,44.36767 52.97791,44.31767 53.49791,44.26767 54.01791,44.22767 55.23791,44.12767 56.20791,44.06767 58.65791,43.90767 59.50791,43.80767 61.07791,43.46767 61.18791,43.43767 61.20791,43.40767 61.20791,43.07767 61.20791,42.87767 61.15791,42.51767 61.09791,42.28767 61.03791,42.04767 60.90791,41.49767 60.80791,41.04767 60.70791,40.59767 60.53791,39.95767 60.41791,39.61767 60.08791,38.66767 59.34791,36.88767 59.14791,36.58767 58.91791,36.23767 58.91791,36.01767 59.12791,35.83767 59.46791,35.55767 59.75791,35.59767 60.03791,35.97767 60.57791,36.68767 61.37791,38.69767 61.81791,40.42767 62.04791,41.31767 62.31791,42.93767 62.28791,43.31767 62.26791,43.65767 62.27791,43.65767 62.51791,43.87767 63.22791,44.50767 63.74791,45.38767 64.16791,46.65767 64.84791,48.69767 65.14791,50.51767 65.02791,51.76767 64.94791,52.55767 64.81791,53.41767 64.73791,53.68767 64.70791,53.79767 64.67791,53.89767 64.67791,53.92767 64.67791,53.98767 65.91791,53.98767 66.98791,53.91767 67.87791,53.85767 69.81791,53.61767 69.92791,53.54767 70.03791,53.47767 70.51791,52.69767 70.80791,52.09767 71.14791,51.39767 71.35791,50.75767 71.52791,49.81767 71.69791,48.93767 71.69791,47.18767 71.54791,46.36767 71.43791,45.73767 71.21791,44.96767 71.05791,44.61767 L 70.95791,44.37767 70.56791,44.48767 C 69.09791,44.91767 67.89791,45.06767 66.11791,45.06767 64.52791,45.05767 64.42791,45.03767 64.27791,44.60767 64.20791,44.39767 64.20791,44.35767 64.29791,44.17767 64.47791,43.79767 64.55791,43.78767 66.01791,43.74767 67.73791,43.69767 68.94791,43.49767 70.67791,42.96767 L 71.05791,42.85767 71.23791,42.36767 C 72.11791,39.97767 72.24791,37.21767 71.57791,34.99767 71.22791,33.83767 70.57791,32.63767 69.89791,31.91767 69.30791,31.28767 69.30791,31.28767 68.78791,31.57767 67.71791,32.17767 66.46791,32.67767 65.39791,32.91767 64.63791,33.08767 63.26791,33.26767 62.78791,33.24767 62.23791,33.22767 62.08791,33.11767 62.08791,32.71767 62.08791,32.50767 62.11791,32.43767 62.24791,32.32767 62.38791,32.21767 62.46791,32.19767 62.79791,32.19767 63.21791,32.19767 64.52791,32.02767 65.11791,31.88767 65.98791,31.68767 67.07791,31.28767 68.09791,30.77767 L 69.15791,30.25767 69.47791,29.61767 C 70.14791,28.29767 70.42791,27.21767 70.47791,25.84767 70.53791,24.22767 70.27791,22.80767 69.60791,21.10767 68.94791,19.40767 67.89791,17.84767 66.98791,17.19767 L 66.76791,17.03767 66.41791,17.27767 C 65.82791,17.69767 63.81791,18.60767 63.49791,18.60767 63.26791,18.60767 63.06791,18.39767 63.06791,18.16767 63.06791,17.85767 63.17791,17.74767 63.78791,17.48767 65.06791,16.94767 66.05791,16.35767 66.27791,16.01767 66.56791,15.56767 66.62791,13.31767 66.36791,12.15767 65.72791,9.18767 63.80791,6.92767 61.32791,6.22767 60.72791,6.02767 60.55791,6.02767 60.19791,6.21767 Z M 61.53791,15.12767 C 61.62791,15.16767 61.74791,15.27767 61.79791,15.36767 61.94791,15.60767 62.42791,17.09767 62.53791,17.69767 62.66791,18.39767 62.70791,20.12767 62.62791,21.23767 62.47791,23.45767 61.79791,27.43767 61.36791,28.71767 61.11791,29.41767 60.37791,31.26767 60.26791,31.41767 59.85791,31.98767 58.92791,31.75767 58.81791,31.04767 58.78791,30.89767 58.86791,30.65767 59.13791,29.95767 60.08791,27.56767 60.24791,26.91767 60.77791,23.16767 60.96791,21.78767 60.98791,21.54767 60.98791,20.44767 60.97791,19.05767 60.75791,16.78767 60.55791,16.22767 60.42791,15.83767 60.41791,15.61767 60.53791,15.39767 60.70791,15.07767 61.18791,14.95767 61.53791,15.12767 Z"
     id="path4"
     style="stroke-width:0.1;fill:#000000" />
  <path
     d="M 47.31791,32.62767 C 47.00791,32.68767 46.80791,32.79767 46.67791,32.99767 46.60791,33.10767 46.58791,33.27767 46.60791,33.94767 46.62791,35.07767 46.54791,35.00767 48.00791,35.01767 49.08791,35.02767 49.14791,35.01767 49.26791,34.90767 49.42791,34.74767 49.47791,34.38767 49.43791,33.65767 49.39791,32.97767 49.32791,32.82767 48.96791,32.70767 48.67791,32.60767 47.67791,32.56767 47.31791,32.62767 Z"
     id="path5"
     style="stroke-width:0.1;fill:#000000" />
  <path
     d="M 26.45791,54.66767 C 26.30791,54.82767 26.29791,54.89767 26.20791,56.73767 26.13791,58.36767 26.13791,58.43767 26.42791,58.61767 26.56791,58.70767 26.73791,58.71767 28.29791,58.71767 29.69791,58.71767 30.03791,58.69767 30.11791,58.63767 30.22791,58.53767 30.62791,57.73767 30.62791,57.62767 30.60791,57.45767 30.72791,56.05767 30.78791,55.73767 30.81791,55.54767 30.87791,55.36767 30.90791,55.32767 30.99791,55.22767 31.28791,55.24767 31.33791,55.34767 31.35791,55.39767 31.34791,55.69767 31.30791,56.00767 31.27791,56.31767 31.25791,56.58767 31.25791,56.59767 31.26791,56.60767 31.38791,56.42767 31.51791,56.19767 31.64791,55.97767 31.82791,55.68767 31.92791,55.56767 32.11791,55.33767 32.14791,55.08767 32.01791,54.95767 31.91791,54.85767 31.54791,54.82767 29.61791,54.74767 28.79791,54.71767 27.88791,54.64767 27.57791,54.60767 26.78791,54.50767 26.60791,54.50767 26.45791,54.66767 Z M 27.29791,56.51767 27.30791,57.84767 27.16791,57.94767 C 27.03791,58.02767 27.01791,58.02767 26.87791,57.93767 L 26.72791,57.83767 26.74791,56.57767 C 26.76791,55.33767 26.77791,55.31767 26.89791,55.21767 26.98791,55.13767 27.06791,55.11767 27.15791,55.15767 27.27791,55.19767 27.27791,55.20767 27.29791,56.51767 Z M 28.33791,55.27767 C 28.44791,55.33767 28.44791,55.37767 28.40791,56.57767 28.38791,57.26767 28.34791,57.86767 28.31791,57.91767 28.23791,58.06767 28.04791,58.09767 27.90791,57.97767 27.79791,57.87767 27.79791,57.84767 27.82791,56.66767 27.85791,55.75767 27.88791,55.42767 27.95791,55.32767 28.05791,55.19767 28.16791,55.17767 28.33791,55.27767 Z M 29.43791,55.37767 C 29.53791,55.51767 29.51791,57.81767 29.41791,57.93767 29.31791,58.04767 29.11791,58.03767 28.99791,57.90767 28.89791,57.79767 28.89791,57.70767 28.92791,56.65767 28.95791,55.78767 28.98791,55.49767 29.05791,55.39767 29.15791,55.23767 29.32791,55.22767 29.43791,55.37767 Z M 30.39791,55.38767 C 30.49791,55.48767 30.50791,55.54767 30.47791,55.78767 30.45791,55.94767 30.41791,56.48767 30.40791,56.98767 30.35791,57.95767 30.31791,58.07767 30.07791,58.07767 29.82791,58.07767 29.77791,57.89767 29.80791,57.06767 29.82791,55.99767 29.90791,55.49767 30.05791,55.36767 30.20791,55.23767 30.24791,55.23767 30.39791,55.38767 Z"
     id="path6"
     style="stroke-width:0.1;fill:#000000" />
  <path
     d="M 68.41791,54.61767 C 68.16791,54.65767 67.52791,54.70767 66.98791,54.72767 65.10791,54.80767 64.16791,54.86767 64.04791,54.92767 63.95791,54.96767 63.93791,55.04767 63.93791,55.20767 63.93791,55.32767 63.95791,55.43767 63.98791,55.45767 64.06791,55.49767 64.36791,55.95767 64.54791,56.29767 64.68791,56.56767 64.69791,56.57767 64.71791,56.42767 64.72791,56.34767 64.70791,56.09767 64.67791,55.87767 64.59791,55.40767 64.64791,55.26767 64.89791,55.26767 65.10791,55.26767 65.14791,55.34767 65.22791,55.82767 65.28791,56.18767 65.38791,57.47767 65.36791,57.60767 65.35791,57.63767 65.45791,57.88767 65.58791,58.14767 65.89791,58.77767 65.83791,58.75767 67.86791,58.72767 69.55791,58.70767 69.62791,58.69767 69.77791,58.39767 69.86791,58.21767 69.86791,57.42767 69.74791,55.81767 69.71791,55.39767 69.68791,55.00767 69.68791,54.92767 69.68791,54.84767 69.62791,54.73767 69.54791,54.66767 69.39791,54.51767 69.17791,54.50767 68.41791,54.61767 Z M 69.17791,55.24767 C 69.20791,55.30767 69.24791,55.90767 69.26791,56.58767 L 69.30791,57.83767 69.17791,57.92767 C 69.02791,58.01767 68.80791,57.99767 68.76791,57.87767 68.71791,57.75767 68.70791,55.29767 68.74791,55.21767 68.81791,55.11767 69.11791,55.13767 69.17791,55.24767 Z M 68.03791,55.28767 C 68.10791,55.36767 68.23791,57.22767 68.20791,57.65767 68.19791,57.88767 68.16791,57.94767 68.03791,58.01767 67.89791,58.09767 67.87791,58.09767 67.77791,58.00767 67.67791,57.91767 67.66791,57.78767 67.61791,56.74767 67.56791,55.47767 67.56791,55.40767 67.65791,55.29767 67.73791,55.18767 67.95791,55.18767 68.03791,55.28767 Z M 65.98791,55.36767 C 66.13791,55.48767 66.21791,56.16767 66.21791,57.24767 66.21791,57.98767 66.18791,58.08767 65.94791,58.08767 65.70791,58.08767 65.63791,57.87767 65.60791,57.11767 65.59791,56.73767 65.57791,56.20767 65.55791,55.94767 65.52791,55.54767 65.53791,55.45767 65.61791,55.37767 65.73791,55.23767 65.83791,55.24767 65.98791,55.36767 Z M 66.92791,55.33767 C 66.99791,55.39767 67.03791,55.54767 67.07791,56.07767 67.19791,57.57767 67.13791,58.01767 66.82791,58.01767 66.57791,58.01767 66.55791,57.91767 66.53791,56.65767 66.51791,55.62767 66.52791,55.44767 66.60791,55.36767 66.70791,55.24767 66.78791,55.23767 66.92791,55.33767 Z"
     id="path7"
     style="stroke-width:0.1;fill:#000000" />
</svg>
