<?xml version="1.0" encoding="UTF-8" standalone="no"?>
<!-- Created with Inkscape (http://www.inkscape.org/) -->

<svg
   width="83.375"
   height="83.375"
   viewBox="0 0 83.375 83.375"
   version="1.1"
   id="svg1"
   inkscape:version="1.4.2 (ebf0e940d0, 2025-05-08)"
   sodipodi:docname="vaughns.svg"
   xmlns:inkscape="http://www.inkscape.org/namespaces/inkscape"
   xmlns:sodipodi="http://sodipodi.sourceforge.net/DTD/sodipodi-0.dtd"
   xmlns="http://www.w3.org/2000/svg"
   xmlns:svg="http://www.w3.org/2000/svg">
  <sodipodi:namedview
     id="namedview1"
     pagecolor="#ffffff"
     bordercolor="#000000"
     borderopacity="0.25"
     inkscape:showpageshadow="2"
     inkscape:pageopacity="0.0"
     inkscape:pagecheckerboard="0"
     inkscape:deskcolor="#d1d1d1"
     inkscape:document-units="px"
     inkscape:zoom="9.6083333"
     inkscape:cx="42.046834"
     inkscape:cy="38.976583"
     inkscape:window-width="2256"
     inkscape:window-height="1427"
     inkscape:window-x="0"
     inkscape:window-y="0"
     inkscape:window-maximized="1"
     inkscape:current-layer="svg1" />
  <defs
     id="defs1" />
  <path
     fill-rule="evenodd"
     clip-rule="evenodd"
     d="M 65.703917,17.142886 50.405088,27.15314 C 50.656065,26.629703 51.150206,26.094058 51.961729,25.520328 L 65.466612,16.683902 65.659971,16.557437 83.374815,4.9661286 82.006655,2.8757966 80.983213,3.5457186 80.507627,2.8196436 79.603331,3.4114406 79.679502,4.3992336 35.917784,33.033023 36.277159,33.581363 35.029112,34.164859 33.084776,36.7923 C 32.751768,36.798648 32.415831,36.806461 32.26544,36.736636 31.947081,36.605777 31.751768,36.30939 31.751768,36.30939 L 31.322081,36.590152 32.214659,37.95441 24.628721,48.168277 C 24.628721,48.168277 23.794737,49.095035 22.352354,49.023746 20.883604,48.946597 20.965635,49.040836 20.965635,49.040836 L 0.41973704,67.14191 C 0.41973704,67.14191 -0.39471596,67.9715 0.24590904,68.949527 0.88555704,69.928043 8.645323,80.072086 8.645323,80.072086 8.645323,80.072086 9.51837,81.598453 10.845518,79.225894 12.197081,76.859683 24.669737,58.747379 24.669737,58.747379 24.669737,58.747379 26.047667,57.42316 27.402159,57.002261 28.757628,56.582339 29.564268,56.519351 29.564268,56.519351 29.564268,56.519351 30.766417,56.221011 30.605284,54.971011 30.427549,53.730777 29.408018,47.412906 33.063292,44.492496 33.117979,44.836734 33.239073,45.180972 33.442198,45.492984 L 33.85919,46.130191 C 34.218565,46.678531 34.7713,47.036929 35.383604,47.165347 35.972471,47.288394 36.631651,47.195133 37.195128,46.826968 L 39.536925,45.294742 C 40.084776,44.935367 40.449034,44.359195 40.573057,43.76984 40.700987,43.157047 40.592589,42.508121 40.23419,41.958804 L 39.817198,41.321597 C 39.48712,40.817691 39.008604,40.474918 38.464659,40.322086 47.560362,33.354312 64.188292,20.717105 64.188292,20.717105 64.188292,20.717105 66.411924,19.261539 65.900206,17.670718 65.837706,17.478824 65.771299,17.310855 65.703917,17.142886 Z M 28.380674,55.81232 C 27.192198,55.869937 26.73126,56.234683 26.73126,56.234683 27.736143,54.794254 28.667784,53.337711 28.98126,51.77814 29.153135,51.813297 29.339659,51.840152 29.526182,51.866031 29.526182,51.866031 29.632627,54.166812 29.742979,54.62482 29.841612,55.067203 29.585752,55.743961 28.380674,55.81232 Z M 39.031065,41.836246 39.448057,42.473453 C 39.660948,42.799625 39.732237,43.197574 39.655088,43.566226 39.578917,43.932925 39.364073,44.285953 39.023253,44.509097 L 36.681456,46.041324 C 36.340635,46.264468 35.931456,46.319644 35.564268,46.242984 35.196104,46.165347 34.858213,45.941715 34.645323,45.615543 L 34.228331,44.978336 C 34.005674,44.637515 33.935362,44.23859 34.01251,43.871402 34.0213,43.822574 34.04669,43.76398 34.058409,43.714175 34.408995,43.442203 34.808409,43.116031 35.279112,42.766422 35.366026,42.963687 35.473448,43.126773 35.618956,43.285465 36.133604,43.943179 36.882628,44.343082 37.739073,44.586246 L 38.003721,43.693668 C 37.302549,43.49689 36.725401,43.196597 36.340635,42.70734 36.219542,42.553531 36.11212,42.389957 36.040831,42.183414 L 37.188292,41.284488 C 37.48419,41.154117 37.808409,41.132144 38.103331,41.194156 38.471495,41.270328 38.807432,41.494449 39.031065,41.836246 Z"
     id="path1"
     style="fill:#000000" />
</svg>
