<?xml version="1.0" encoding="UTF-8" standalone="no"?>
<!-- Created with Inkscape (http://www.inkscape.org/) -->

<svg
   width="88.140999"
   height="88.140999"
   viewBox="0 0 88.140999 88.140999"
   version="1.1"
   id="svg1"
   inkscape:version="1.4.2 (ebf0e940d0, 2025-05-08)"
   sodipodi:docname="vice.svg"
   xmlns:inkscape="http://www.inkscape.org/namespaces/inkscape"
   xmlns:sodipodi="http://sodipodi.sourceforge.net/DTD/sodipodi-0.dtd"
   xmlns="http://www.w3.org/2000/svg"
   xmlns:svg="http://www.w3.org/2000/svg">
  <sodipodi:namedview
     id="namedview1"
     pagecolor="#ffffff"
     bordercolor="#000000"
     borderopacity="0.25"
     inkscape:showpageshadow="2"
     inkscape:pageopacity="0.0"
     inkscape:pagecheckerboard="0"
     inkscape:deskcolor="#d1d1d1"
     inkscape:document-units="px"
     inkscape:zoom="4.8041667"
     inkscape:cx="13.529922"
     inkscape:cy="108.5516"
     inkscape:window-width="2256"
     inkscape:window-height="1427"
     inkscape:window-x="0"
     inkscape:window-y="0"
     inkscape:window-maximized="1"
     inkscape:current-layer="svg1" />
  <defs
     id="defs1" />
  <path
     d="M 41.2134 11.192 L 41.2134 27.684 L 46.1001 27.684 L 46.1001 11.192 Z M 21.6394 14.3248 L 21.6394 24.5548 L 13.9324 24.5548 C 12.2058 24.5548 10.8308 26.0236 10.8308 27.754 L 10.8308 49.379 C 10.8308 52.3673 13.1785 54.9063 16.1511 54.9063 L 53.6981 54.9063 C 56.6747 54.9063 59.0183 52.3711 59.0183 49.379 L 59.0183 25.59 L 68.6825 25.59 L 68.6825 57.625 C 68.6825 64.5781 63.2996 70.555 56.3935 70.555 L 13.4485 70.555 C 6.54225 70.555 1.15945 64.5823 1.15945 57.625 L 1.16726 22.035 C 1.16726 17.8905 4.36256 14.3241 8.47586 14.3241 Z M 19.1003 76.9068 L 50.7523 76.9068 L 50.7523 72.6685 L 19.1003 72.6685 Z M 9.42835 88.1408 L 60.4244 88.1408 L 60.4244 83.5783 C 60.4244 81.0705 58.3697 79.0158 55.8619 79.0158 L 13.9909 79.0158 C 11.4831 79.0158 9.42835 81.0705 9.42835 83.5783 Z M 77.1944 2.34385 C 77.1944 3.20322 77.6279 3.98835 78.3311 4.40245 L 78.3311 9.08605 L 80.4365 9.08605 L 80.4365 4.40245 C 82.4013 3.25015 81.6513 0.000149 79.3819 0.000149 C 78.1358 0.000149 77.1944 1.08215 77.1944 2.34395 Z M 77.1944 36.5588 C 77.1944 39.6447 81.5694 39.6447 81.5694 36.5588 C 81.5694 35.6995 81.1358 34.9143 80.4326 34.5002 L 80.4326 29.7893 L 78.3272 29.7893 L 78.3272 34.5002 C 77.6279 34.9143 77.1944 35.7033 77.1944 36.5588 Z M 78.0889 27.6838 L 81.8272 27.6838 L 81.8272 11.1918 L 76.9405 11.1918 L 76.9405 27.6838 Z M 74.8311 23.4807 L 74.8311 15.3948 L 48.2101 15.3948 L 48.2101 23.4807 Z M 83.9366 15.3987 L 83.9366 23.4846 C 87.5186 23.4846 86.9483 23.6682 86.9483 16.8479 C 86.9483 15.0667 85.0264 15.3987 83.9366 15.3987 Z M 23.7526 11.1917 L 23.7526 27.6837 L 28.6393 27.6837 L 28.6393 11.1917 Z"
     fill-rule="evenodd"
     id="path1"
     style="fill:#000000" />
</svg>
