<?xml version="1.0" encoding="UTF-8" standalone="no"?>
<!-- Created with Inkscape (http://www.inkscape.org/) -->

<svg
   width="79.648003"
   height="79.648003"
   viewBox="0 0 79.648003 79.648003"
   version="1.1"
   id="svg1"
   inkscape:version="1.4.2 (ebf0e940d0, 2025-05-08)"
   sodipodi:docname="wardens.svg"
   xmlns:inkscape="http://www.inkscape.org/namespaces/inkscape"
   xmlns:sodipodi="http://sodipodi.sourceforge.net/DTD/sodipodi-0.dtd"
   xmlns="http://www.w3.org/2000/svg"
   xmlns:svg="http://www.w3.org/2000/svg">
  <sodipodi:namedview
     id="namedview1"
     pagecolor="#ffffff"
     bordercolor="#000000"
     borderopacity="0.25"
     inkscape:showpageshadow="2"
     inkscape:pageopacity="0.0"
     inkscape:pagecheckerboard="0"
     inkscape:deskcolor="#d1d1d1"
     inkscape:document-units="px"
     inkscape:zoom="4.8041667"
     inkscape:cx="25.290546"
     inkscape:cy="120.41631"
     inkscape:window-width="2256"
     inkscape:window-height="1427"
     inkscape:window-x="0"
     inkscape:window-y="0"
     inkscape:window-maximized="1"
     inkscape:current-layer="svg1" />
  <defs
     id="defs1" />
  <path
     d="M 53.404161,18.837404 68.556161,14.759304 C 69.892061,19.982004 68.728041,20.317904 66.083461,21.079604 L 54.880461,24.314004 Z M 7.7911648,39.075404 C 8.5997548,41.594904 9.9942608,44.130104 11.923961,46.012904 13.838061,47.884004 16.279461,49.118404 19.201261,49.087104 20.685661,49.071479 21.712961,49.493354 22.466861,50.173004 23.154361,50.790194 23.642661,51.633904 24.056661,52.563604 19.353561,57.653404 20.470761,62.106604 21.603561,66.625604 22.505901,70.231104 23.423861,73.883404 21.115281,77.898604 20.037181,78.199384 16.056681,78.949404 12.169981,79.351704 8.3105848,79.754044 4.5918848,79.863424 4.2558848,78.918114 4.2519748,78.910302 4.2558848,78.92202 4.2558848,78.910302 0.5800848,66.996302 2.9863848,58.472302 5.2792848,50.340302 6.3339848,46.602002 7.3651848,42.945802 7.7909848,39.070302 Z M 19.850161,19.669404 C 19.377501,21.810004 18.506361,24.177204 13.506361,25.298304 13.45558,25.310023 13.521986,25.294398 13.404801,25.321742 10.213401,26.071742 8.7642048,28.220142 8.1978048,30.567842 8.0063948,31.356902 7.9165548,32.169442 7.8892148,32.962342 7.9556148,33.767032 7.9868648,34.560042 7.9907748,35.341242 8.0728048,36.059992 8.1899948,36.716242 8.3110848,37.251442 L 8.3501448,37.419412 C 9.0103048,40.220212 10.455643,43.204612 12.607943,45.306112 14.350143,47.009212 16.557143,48.130312 19.189943,48.103012 20.955543,48.08348 22.193843,48.603012 23.123543,49.438912 24.033703,50.255322 24.623543,51.360812 25.119643,52.552212 26.811043,56.614712 30.256343,58.493612 33.873543,58.552212 35.467343,58.579556 37.100143,58.255342 38.627443,57.614712 40.158643,56.970182 41.588343,56.009212 42.779743,54.755312 45.881343,51.501412 47.385243,46.278712 44.932043,39.630312 44.912512,39.57953 44.896887,39.532655 44.885168,39.481872 44.752358,38.989682 44.853918,38.493592 45.103918,38.079572 45.346108,37.681132 45.728918,37.356912 46.185918,37.188952 46.244511,37.169421 46.303108,37.14989 46.365608,37.134265 L 52.463308,35.493665 C 52.740648,35.419446 52.963308,35.235855 53.096118,35.005385 53.228928,34.774915 53.275808,34.489755 53.197678,34.208505 L 52.287518,30.829605 C 52.225018,30.603045 52.205487,30.384295 52.221112,30.161635 52.236737,29.942885 52.291424,29.724135 52.381272,29.509295 L 53.998472,25.688995 C 54.045346,25.575715 54.07269,25.466335 54.080503,25.353055 54.088315,25.243675 54.076596,25.126495 54.04144,25.005395 L 51.15864,14.294395 49.97114,9.8841954 49.932077,9.7435754 C 49.857858,9.4662354 49.674267,9.2435754 49.443797,9.1107654 49.213327,8.9779554 48.928177,8.9310754 48.646917,9.0092054 L 21.974917,16.188905 C 20.478817,16.614685 20.236617,17.778705 19.959317,19.114705 19.924161,19.282675 19.889004,19.454545 19.853847,19.622515 19.849941,19.63814 19.846035,19.653765 19.842129,19.665484 Z M 18.873601,19.532684 C 18.455631,21.349084 17.639201,23.325684 13.440001,24.302184 13.022031,22.095184 11.416601,21.747484 10.143101,21.474084 9.9946608,21.442834 9.8462208,21.411584 9.7524808,21.388146 8.6899848,21.130336 8.0376848,20.724086 7.6938848,20.267046 7.4829448,19.985796 7.3970048,19.681106 7.4048248,19.384236 7.4126348,19.075646 7.5220148,18.759236 7.7095148,18.470176 7.9907648,18.032676 8.4438948,17.665486 8.9751148,17.466276 9.7915208,18.161586 10.686011,18.895976 11.678211,19.395976 12.803211,19.966286 14.033711,20.231916 15.393011,19.825666 15.600041,19.774885 15.756291,19.587386 15.764101,19.364726 15.779727,18.860816 16.037541,18.505356 16.393011,18.313926 16.600041,18.200646 16.838321,18.138146 17.084421,18.130336 17.338331,18.118617 17.600041,18.161586 17.846141,18.259246 18.326611,18.454556 18.736761,18.872526 18.877341,19.528746 Z M 71.061601,4.7236844 51.057601,10.110384 51.389631,11.336984 53.155231,17.887784 68.788231,13.680784 77.245231,11.403484 C 77.358511,9.9776844 77.249138,8.6182844 76.905391,7.3214844 76.561641,6.0284844 75.979611,4.7941844 75.155391,3.6261844 L 71.069491,4.7277844 Z M 70.331131,3.8994644 64.542031,5.4580644 65.479531,1.3447644 C 65.5225,1.1494544 65.616251,0.98148441 65.741251,0.84867441 65.866251,0.71586441 66.034221,0.62211441 66.225631,0.56742441 L 68.206131,0.03617441 C 68.487381,-0.03804459 68.768631,0.00492441 69.003011,0.13773441 69.233481,0.27054441 69.417071,0.49320441 69.491291,0.77054441 L 70.331131,3.8955444 Z M 42.632131,45.399464 C 42.815721,47.325264 42.542287,49.247164 41.495431,51.001064 40.729811,52.278364 39.667331,53.235464 38.436831,53.938564 37.026631,54.743254 35.401631,55.215864 33.764931,55.454164 31.511031,55.782284 29.940731,54.997134 28.804031,53.668964 27.714231,52.395564 27.057931,50.629864 26.593131,48.895564 26.569693,48.801814 26.573599,48.708064 26.597037,48.622124 27.163447,46.153324 28.913437,44.235424 31.147837,42.809624 33.983737,41.001024 37.616637,39.977624 40.569737,39.626024 40.796297,39.598681 41.007237,39.731494 41.085357,39.934614 41.835357,41.641614 42.452557,43.516614 42.632257,45.403414 Z M 14.214131,33.426464 C 14.436791,33.039744 14.811791,32.735054 15.280531,32.610054 15.749271,32.485054 16.225841,32.559273 16.616431,32.781934 17.003151,33.004594 17.307841,33.379594 17.436741,33.848334 17.561741,34.317084 17.487522,34.793644 17.264861,35.184234 17.042201,35.570954 16.667201,35.875644 16.198461,36.004544 15.729711,36.129544 15.253151,36.055325 14.862561,35.832664 14.475841,35.610004 14.171151,35.235004 14.046151,34.766264 13.921151,34.297524 13.99537,33.820954 14.218031,33.430364 Z M 14.991471,31.664764 C 15.011002,31.656951 15.030534,31.653045 15.050065,31.649139 15.768815,31.465549 16.499265,31.582732 17.100865,31.930389 17.702425,32.274139 18.171165,32.848359 18.374265,33.563189 18.382077,33.58272 18.385983,33.602252 18.389889,33.621783 18.573479,34.340533 18.456296,35.070983 18.108639,35.672583 17.757079,36.281963 17.175049,36.758483 16.444539,36.953783 15.714069,37.149093 14.971839,37.031908 14.366439,36.680343 13.757059,36.328783 13.284439,35.746753 13.085239,35.016243 12.889929,34.285773 13.007114,33.543543 13.358679,32.938143 13.702429,32.336583 14.276649,31.867843 14.991479,31.664743 Z M 8.7258748,51.023764 C 8.5032148,51.414384 8.4250948,51.887044 8.5539948,52.359664 8.6789948,52.828414 8.9836848,53.203414 9.3704008,53.426064 9.7610208,53.648724 10.233681,53.726844 10.706301,53.597944 11.175051,53.472944 11.550051,53.168254 11.772701,52.777634 11.995351,52.387014 12.073481,51.914354 11.944581,51.441734 11.819581,50.972984 11.514891,50.597984 11.124271,50.375334 10.733641,50.152674 10.260991,50.074554 9.7883708,50.203454 9.3196208,50.328454 8.9446248,50.633144 8.7219748,51.023764 Z M 9.5383708,49.254264 C 8.8079048,49.449574 8.2258748,49.926134 7.8742748,50.535464 7.5227148,51.144834 7.4055248,51.887064 7.6008348,52.613564 7.7961448,53.344034 8.2727148,53.926064 8.8820348,54.277664 9.4913508,54.629264 10.233631,54.746414 10.960131,54.551104 11.690601,54.355794 12.272631,53.879234 12.624231,53.269904 12.975791,52.660534 13.092981,51.918304 12.897671,51.191804 12.702361,50.461334 12.225791,49.879304 11.616471,49.527704 11.007151,49.176104 10.264871,49.058954 9.5383708,49.254264 Z M 37.850371,30.168264 33.522271,31.332364 C 32.967581,31.480804 32.397271,31.390958 31.936371,31.125334 31.471531,30.859714 31.108241,30.414394 30.959811,29.859734 30.811371,29.305044 30.901217,28.734734 31.166841,28.273834 31.432461,27.808994 31.877781,27.449614 32.432441,27.297274 L 42.588441,24.562874 C 42.850161,24.492562 43.006411,24.223034 42.936101,23.961314 42.865788,23.699594 42.596261,23.543344 42.334541,23.613654 L 32.178541,26.348054 C 31.623851,26.496494 31.053541,26.406647 30.592641,26.141024 30.127801,25.875404 29.764511,25.430084 29.616081,24.875424 29.467641,24.316834 29.557487,23.750424 29.823111,23.289524 30.084831,22.832494 30.522331,22.473114 31.065311,22.320774 31.080936,22.316868 31.100467,22.312961 31.116092,22.309055 L 41.245092,19.582455 C 41.506812,19.512143 41.663062,19.242615 41.592752,18.980895 41.522439,18.719175 41.252912,18.562925 40.991192,18.633235 L 30.858192,21.359835 C 30.842568,21.363741 30.823036,21.367648 30.807411,21.371554 30.260531,21.512174 29.701911,21.418429 29.244911,21.156714 28.780071,20.891094 28.420691,20.445774 28.268351,19.891114 28.119911,19.332524 28.209757,18.766114 28.475381,18.305214 28.741001,17.840374 29.186321,17.477094 29.740981,17.328654 L 35.178481,15.863854 40.276181,14.492754 C 40.741021,14.367754 41.213681,14.441973 41.604281,14.668534 41.991001,14.891194 42.295691,15.262284 42.420691,15.727134 43.268351,19.266234 44.377691,22.832634 45.283991,26.368134 45.408991,26.832974 45.334772,27.305634 45.108211,27.696234 44.885551,28.082954 44.514461,28.387644 44.049611,28.512644 41.983211,29.008734 39.912911,29.594644 37.842611,30.184544 Z M 33.768371,32.289364 30.932471,33.054984 C 30.91294,33.062796 30.893409,33.066703 30.873878,33.070609 30.159038,33.254199 29.432478,33.133109 28.830878,32.789359 28.233218,32.445609 27.760578,31.875299 27.561378,31.164359 27.553565,31.144827 27.549659,31.125296 27.545752,31.105765 L 24.686352,20.488765 C 24.491042,19.762205 24.612133,19.023965 24.959792,18.418465 25.311352,17.809085 25.889482,17.336465 26.615992,17.141165 L 39.994992,13.539565 C 40.014523,13.531752 40.034055,13.527846 40.053586,13.52394 40.768426,13.34035 41.494986,13.46144 42.096586,13.80519 42.694246,14.14894 43.166886,14.71925 43.366086,15.43019 43.373899,15.449721 43.377805,15.469252 43.381711,15.488783 L 46.233311,26.074783 C 46.241124,26.094314 46.24503,26.113845 46.248937,26.133377 46.432527,26.848217 46.311437,27.574777 45.967687,28.176377 45.623937,28.774037 45.053627,29.246677 44.342687,29.445877 44.323155,29.453689 44.303624,29.457595 44.284093,29.461502 L 43.932533,29.555252 33.772533,32.289652 H 33.76472 Z M 30.698071,27.254164 C 30.549631,27.418224 30.424631,27.594004 30.315261,27.785414 29.920731,28.469004 29.787921,29.301014 30.006671,30.117414 30.221511,30.906474 30.721511,31.539314 31.369971,31.933814 31.127781,31.992408 30.889501,32.051004 30.647311,32.105694 30.182471,32.230694 29.709811,32.156475 29.319211,31.929914 28.932491,31.707254 28.627801,31.336164 28.502801,30.871314 L 25.639501,20.230314 C 25.514501,19.765474 25.58872,19.292814 25.815281,18.902214 26.037941,18.515494 26.409031,18.210804 26.873881,18.085804 L 27.573101,17.898304 C 27.225441,18.554554 27.112161,19.335804 27.311381,20.101404 27.315287,20.120935 27.319193,20.140466 27.327005,20.159998 27.553565,20.960778 28.080915,21.605298 28.756705,21.991998 28.944205,22.101378 29.147325,22.191218 29.354365,22.257618 29.205925,22.421678 29.080925,22.597458 28.971555,22.788868 28.580935,23.464648 28.448115,24.284968 28.655145,25.089668 28.659051,25.109199 28.662957,25.128731 28.670769,25.152168 28.897329,25.952948 29.424679,26.593568 30.100469,26.984168 30.287969,27.093548 30.491089,27.183388 30.698129,27.249788 Z M 34.319171,42.266164 C 32.971471,44.945864 34.455891,49.188064 34.940261,50.578664 34.983229,50.699754 35.237141,50.410694 35.123851,50.590383 34.944161,50.879443 34.756661,51.063043 34.569161,51.164603 34.326971,51.293513 34.061351,51.277883 33.787911,51.164603 33.455881,51.027883 33.119941,50.750543 32.803531,50.395073 32.186341,49.703663 31.694131,48.746673 31.502731,47.938073 31.326951,47.184163 31.178511,46.527873 31.088671,45.891173 31.00664,45.316953 30.967581,44.738873 30.991015,44.090373 31.209765,43.930213 31.436325,43.777873 31.670705,43.629433 32.491015,43.105993 33.385505,42.648963 34.315205,42.262233 Z"
     fill-rule="evenodd"
     id="path1"
     style="fill:#000000" />
</svg>
