<?xml version="1.0" encoding="UTF-8" standalone="no"?>
<!-- Created with Inkscape (http://www.inkscape.org/) -->

<svg
   width="89"
   height="89"
   viewBox="0 0 88.999999 89"
   version="1.1"
   id="svg1"
   inkscape:version="1.4.2 (ebf0e940d0, 2025-05-08)"
   sodipodi:docname="windbreaker.svg"
   xmlns:inkscape="http://www.inkscape.org/namespaces/inkscape"
   xmlns:sodipodi="http://sodipodi.sourceforge.net/DTD/sodipodi-0.dtd"
   xmlns="http://www.w3.org/2000/svg"
   xmlns:svg="http://www.w3.org/2000/svg">
  <sodipodi:namedview
     id="namedview1"
     pagecolor="#ffffff"
     bordercolor="#000000"
     borderopacity="0.25"
     inkscape:showpageshadow="2"
     inkscape:pageopacity="0.0"
     inkscape:pagecheckerboard="0"
     inkscape:deskcolor="#d1d1d1"
     inkscape:document-units="px"
     inkscape:zoom="4.8041667"
     inkscape:cx="11.344319"
     inkscape:cy="88.152646"
     inkscape:window-width="2256"
     inkscape:window-height="1427"
     inkscape:window-x="0"
     inkscape:window-y="0"
     inkscape:window-maximized="1"
     inkscape:current-layer="svg1" />
  <defs
     id="defs1" />
  <path
     d="M 47.579928,17.391 48.408048,24.2816 C 48.517428,25.16051 48.236168,26.0433 47.646328,26.7113 47.056488,27.37146 46.216628,27.7504 45.326028,27.7504 H 44.997908 V 88.9804 C 57.138912,88.82024 64.087912,82.4687 65.126912,81.4492 65.087842,77.6875 65.705032,72.5078 66.626912,64.7382 66.826132,63.0468 67.048792,61.2499 67.267532,59.3085 68.556632,48.1485 70.165932,35.9565 71.279232,27.8085 71.318292,27.54678 71.349542,27.29678 71.380792,27.04678 71.380792,26.988186 71.400322,26.9374 71.400322,26.8749 71.978442,22.6249 72.400322,19.6366 72.529222,18.7147 71.029222,17.6366 62.900322,11.9061 58.017222,10.7655 L 47.28722,16.4647 C 47.41613,16.74595 47.51769,17.05454 47.55675,17.37486 Z M 49.611128,64.063 C 49.611128,63.78175 49.829878,63.563 50.111128,63.563 H 61.009132 C 61.290382,63.563 61.509132,63.78175 61.509132,64.063 V 69.563 C 61.509132,69.77394 61.380222,69.95362 61.188822,70.03175 L 55.739622,72.09035 C 55.681022,72.109881 55.618532,72.1216 55.559932,72.1216 55.501332,72.1216 55.438842,72.109881 55.380242,72.09035 L 49.931038,70.03175 C 49.739628,69.961438 49.610728,69.77003 49.610728,69.563 Z"
     id="path1"
     style="fill:#000000" />
  <path
     d="M 19.470928,41.039 C 19.529522,41.49994 19.592018,41.96088 19.650618,42.4179 19.662336,42.51946 19.681868,42.61712 19.68968,42.71868 19.748274,43.1679 19.81077,43.61712 19.86156,44.07028 19.873279,44.17184 19.881091,44.26169 19.900623,44.35934 19.959216,44.80856 20.021713,45.25778 20.072493,45.71874 20.092025,45.84765 20.103743,45.96874 20.123275,46.09765 20.174056,46.49609 20.224835,46.89843 20.271715,47.29685 20.291246,47.48826 20.322496,47.68747 20.342028,47.87497 20.392809,48.25388 20.431872,48.62497 20.482648,49.00387 20.513898,49.22262 20.533429,49.44528 20.560773,49.66403 20.599835,49.99216 20.638898,50.31247 20.681863,50.6445 20.720925,50.94528 20.752175,51.23434 20.791233,51.53512 20.822483,51.81637 20.861546,52.10543 20.892793,52.38668 20.931856,52.67574 20.963106,52.95699 20.994353,53.24606 21.033415,53.54684 21.064665,53.84762 21.103723,54.13668 21.142786,54.47652 21.181849,54.81637 21.224813,55.14838 21.256063,55.37885 21.275595,55.5976 21.302938,55.82807 21.353719,56.20698 21.392782,56.58979 21.443558,56.96867 21.46309,57.17961 21.49434,57.39055 21.513871,57.58976 21.584183,58.16007 21.642781,58.73036 21.713091,59.30066 V 59.359254 59.410035 C 21.931841,61.288935 22.154501,63.089735 22.353711,64.781135 23.275591,72.519435 23.892811,77.679135 23.853711,81.441135 24.892811,82.460635 31.865411,88.800535 43.982711,88.972335 V 27.749335 H 43.654591 C 42.763971,27.749335 41.924091,27.370425 41.334291,26.710235 40.744451,26.050075 40.463201,25.159435 40.572571,24.280535 L 41.400701,17.389935 C 41.439763,17.061815 41.541321,16.761025 41.670231,16.479775 L 30.940231,10.780575 C 26.061331,11.921175 17.928231,17.651675 16.428231,18.729775 16.678231,20.479775 17.986831,29.768775 19.439931,40.928775 19.439931,40.967837 19.45165,41.006899 19.459462,41.049865 Z M 27.490428,64.059 C 27.490428,63.77775 27.709178,63.559 27.990428,63.559 H 38.888428 C 39.169678,63.559 39.388428,63.77775 39.388428,64.059 V 69.559 C 39.388428,69.76994 39.259518,69.94962 39.068118,70.02775 L 33.618918,72.08635 C 33.560324,72.105881 33.497828,72.1176 33.439228,72.1176 33.380628,72.1176 33.318138,72.105881 33.259538,72.08635 L 27.810338,70.02775 C 27.618928,69.957437 27.490028,69.76603 27.490028,69.559 Z"
     id="path2"
     style="fill:#000000" />
  <path
     d="M 15.571928,82.91 C 16.341458,80.8397 20.571928,69.101 20.732128,59.41 18.943028,43.89 16.521228,26.379 15.700928,20.558 13.892328,25.9564 8.919728,43.437 6.5798281,77.749 6.4782681,79.2998 6.8181081,81.5498 7.2282681,82.9092 Z"
     id="path3"
     style="fill:#000000" />
  <path
     d="M 7.3729281,83.91 H 15.412028 V 88.9998 H 7.3729281 Z"
     id="path4"
     style="fill:#000000" />
  <path
     d="M 38.392928,69.219 V 64.5588 H 28.490628 V 69.219 L 33.443728,71.0901 Z"
     id="path5"
     style="fill:#000000" />
  <path
     d="M 44.001928,14.699 V 7.0388 L 32.251928,2.5896 31.560518,9.949 42.251518,15.6287 C 42.712458,15.14042 43.321818,14.80058 44.001518,14.68729 Z"
     id="path6"
     style="fill:#000000" />
  <path
     d="M 73.431932,82.91 H 81.771732 C 82.181892,81.5506 82.521732,79.3006 82.420172,77.7498 80.092072,43.4408 75.111572,25.9688 73.299072,20.5698 72.478762,26.3901 70.060772,43.9218 68.267872,59.4288 68.428032,69.0577 72.658472,80.8388 73.439772,82.9088 Z"
     id="path7"
     style="fill:#000000" />
  <path
     d="M 73.591932,83.91 H 81.631032 V 88.9998 H 73.591932 Z"
     id="path8"
     style="fill:#000000" />
  <path
     d="M 60.513932,69.219 V 64.5588 H 50.611632 V 69.219 L 55.560832,71.0901 Z"
     id="path9"
     style="fill:#000000" />
  <path
     d="M 45.001928,14.699 C 45.681618,14.80838 46.291028,15.14822 46.751928,15.64041 L 57.442932,9.96071 56.751522,2.60131 45.001518,7.05051 V 14.71071 Z"
     id="path10"
     style="fill:#000000" />
  <path
     d="M 56.052932,1.7891 C 54.693532,1.12894 51.361532,0 44.501928,0 37.642328,0 34.310928,1.1289 32.950928,1.7891 L 44.501928,6.1602 Z"
     id="path11"
     style="fill:#000000" />
  <path
     d="M 46.899928,26.039 C 47.298368,25.58978 47.489768,24.9882 47.411648,24.3906 L 46.583528,17.5 C 46.454618,16.4414 45.564028,15.6484 44.493728,15.6484 43.423428,15.6484 42.532828,16.44918 42.403928,17.5 L 41.575808,24.3906 C 41.505495,24.99216 41.696898,25.5898 42.087528,26.039 42.485968,26.48822 43.056278,26.74994 43.657828,26.74994 H 45.306228 C 45.907788,26.74994 46.478128,26.48822 46.876528,26.039 Z"
     id="path12"
     style="fill:#000000" />
</svg>
