<?xml version="1.0" encoding="UTF-8" standalone="no"?>
<!-- Created with Inkscape (http://www.inkscape.org/) -->

<svg
   width="69.962997"
   height="69.962997"
   viewBox="0 0 69.962998 69.962997"
   version="1.1"
   id="svg1"
   inkscape:version="1.4.2 (ebf0e940d0, 2025-05-08)"
   sodipodi:docname="wolfpants.svg"
   xmlns:inkscape="http://www.inkscape.org/namespaces/inkscape"
   xmlns:sodipodi="http://sodipodi.sourceforge.net/DTD/sodipodi-0.dtd"
   xmlns="http://www.w3.org/2000/svg"
   xmlns:svg="http://www.w3.org/2000/svg">
  <sodipodi:namedview
     id="namedview1"
     pagecolor="#ffffff"
     bordercolor="#000000"
     borderopacity="0.25"
     inkscape:showpageshadow="2"
     inkscape:pageopacity="0.0"
     inkscape:pagecheckerboard="0"
     inkscape:deskcolor="#d1d1d1"
     inkscape:document-units="px"
     inkscape:zoom="27.17647"
     inkscape:cx="35.711039"
     inkscape:cy="11.406926"
     inkscape:window-width="2256"
     inkscape:window-height="1427"
     inkscape:window-x="0"
     inkscape:window-y="0"
     inkscape:window-maximized="1"
     inkscape:current-layer="svg1" />
  <defs
     id="defs1" />
  <path
     fill="#000000"
     d="M 46.7113 64.8803 C 44.8113 58.2803 45.3113 52.3803 44.9113 45.5803 C 44.7113 41.4803 44.8113 37.3803 45.3113 33.2803 C 45.7113 30.2803 45.7113 26.7803 46.0113 23.6803 C 46.4113 20.0803 46.5113 14.0803 46.3113 10.4803 C 46.2113 7.08033 46.0113 3.68033 45.8113 0.38033 C 45.8113 0.08033 45.4113 -0.11967 45.2113 0.08033 C 41.2113 3.08033 28.5113 3.08033 24.7113 0.08033 C 24.5113 -0.11967 24.1113 0.08033 24.1113 0.38033 C 23.9113 3.78033 23.7113 7.08033 23.6113 10.4803 C 23.4113 14.0803 23.6113 20.0803 23.9113 23.6803 C 24.2113 26.7803 24.3113 30.1803 24.6113 33.2803 C 25.1113 37.3803 25.2113 41.4803 25.0113 45.5803 C 24.6113 52.3803 25.1113 58.2803 23.2113 64.8803 C 22.9113 65.7803 22.6113 66.8803 22.9113 67.7803 C 23.2113 68.8803 24.4113 69.6803 25.6113 69.8803 C 26.8113 70.0803 28.0113 69.8803 29.2113 69.6803 C 30.7113 69.3803 32.2113 69.0803 33.2113 67.9803 C 34.3113 66.6803 34.3113 64.6803 34.1113 62.9803 C 33.1113 50.5803 32.6113 38.1803 32.7113 25.7803 C 32.7113 23.1803 32.8113 20.5803 33.6113 18.0803 C 33.9113 17.3803 34.4113 16.0803 34.7113 15.2803 C 34.8113 14.9803 35.2113 14.9803 35.3113 15.2803 C 35.6113 16.0803 36.1113 17.3803 36.4113 18.0803 C 37.3113 20.4803 37.3113 23.1803 37.3113 25.7803 C 37.4113 38.1803 36.9113 50.5803 35.9113 62.9803 C 35.8113 64.6803 35.7113 66.6803 36.8113 67.9803 C 37.8113 69.0803 39.4113 69.3803 40.8113 69.6803 C 42.0113 69.8803 43.2113 70.0803 44.4113 69.8803 C 45.6113 69.6803 46.7113 68.8803 47.1113 67.7803 C 47.3113 66.7803 47.0113 65.7803 46.7113 64.8803 Z M 25.4113 4.88033 L 25.4113 2.88033 C 25.4113 2.68033 25.5113 2.58033 25.7113 2.68033 C 26.8113 2.98033 28.0113 3.18033 29.2113 3.38033 C 29.3113 3.38033 29.4113 3.48033 29.4113 3.58033 L 29.4113 5.48033 C 29.4113 5.58033 29.3113 5.78033 29.1113 5.68033 C 27.9113 5.48033 26.7113 5.28033 25.6113 4.98033 C 25.5113 5.08033 25.4113 4.98033 25.4113 4.88033 Z M 30.3113 5.78033 L 30.3113 3.88033 C 30.3113 3.78033 30.4113 3.58033 30.6113 3.68033 C 33.6113 4.08033 36.6113 4.08033 39.5113 3.78033 C 39.6113 3.78033 39.8113 3.88033 39.8113 3.98033 L 39.8113 5.88033 C 39.8113 5.98033 39.7113 6.08033 39.6113 6.08033 C 36.6113 6.38033 33.6113 6.38033 30.6113 5.98033 C 30.4113 5.98033 30.3113 5.88033 30.3113 5.78033 Z M 44.4113 5.18033 C 43.2113 5.48033 42.1113 5.68033 40.9113 5.88033 C 40.8113 5.88033 40.6113 5.78033 40.6113 5.68033 L 40.6113 3.68033 C 40.6113 3.58033 40.7113 3.48033 40.8113 3.48033 C 42.0113 3.28033 43.1113 3.08033 44.3113 2.78033 C 44.5113 2.78033 44.6113 2.88033 44.6113 2.98033 L 44.6113 4.98033 C 44.6113 5.08033 44.5113 5.18033 44.4113 5.18033 Z"
     id="path1"
     style="fill:#000000" />
  <path
     style="fill:#000000;stroke:#000000;stroke-width:0;stroke-linecap:round;stroke-linejoin:round;stroke-miterlimit:3.9;paint-order:stroke fill markers"
     d="M 25.498699,2.4978318 26.175195,4.0069385 26.851691,2.9141371 27.424111,4.4752819 27.996531,3.1743279 28.516913,4.7354727 29.349523,3.2784042 Z"
     id="path2" />
  <path
     style="fill:#000000;stroke:#000000;stroke-width:0;stroke-linecap:round;stroke-linejoin:round;stroke-miterlimit:3.9;paint-order:stroke fill markers"
     d="M 44.48222,2.5628793 43.805724,4.0719863 43.129228,2.9791843 42.556808,4.5403293 41.984388,3.2393753 41.464006,4.8005203 40.631396,3.3434513 Z"
     id="path2-1" />
  <path
     style="fill:#000000;stroke:#000000;stroke-width:0;stroke-linecap:round;stroke-linejoin:round;stroke-miterlimit:3.9;paint-order:stroke fill markers"
     d="M 30.430736,3.5324676 31.277057,5.1515152 31.865801,3.6796537 32.564935,5.409091 33.227273,3.8268399 33.926407,5.5194806 34.478355,3.9004329 35.103896,5.482684 35.692641,4.0108225 36.428572,5.4458875 36.87013,3.8636364 37.495671,5.482684 38.010823,3.7900433 38.857143,5.3722944 39.519481,3.7900433 Z"
     id="path3" />
</svg>
