<?xml version="1.0" encoding="UTF-8" standalone="no"?>
<!-- Created with Inkscape (http://www.inkscape.org/) -->

<svg
   width="79.989998"
   height="79.989998"
   viewBox="0 0 79.989998 79.989998"
   version="1.1"
   id="svg1"
   inkscape:version="1.4.2 (ebf0e940d0, 2025-05-08)"
   sodipodi:docname="wolfhat.svg"
   xmlns:inkscape="http://www.inkscape.org/namespaces/inkscape"
   xmlns:sodipodi="http://sodipodi.sourceforge.net/DTD/sodipodi-0.dtd"
   xmlns="http://www.w3.org/2000/svg"
   xmlns:svg="http://www.w3.org/2000/svg">
  <sodipodi:namedview
     id="namedview1"
     pagecolor="#ffffff"
     bordercolor="#000000"
     borderopacity="0.25"
     inkscape:showpageshadow="2"
     inkscape:pageopacity="0.0"
     inkscape:pagecheckerboard="0"
     inkscape:deskcolor="#d1d1d1"
     inkscape:document-units="px"
     inkscape:zoom="4.8041667"
     inkscape:cx="-11.240243"
     inkscape:cy="104.38855"
     inkscape:window-width="2256"
     inkscape:window-height="1427"
     inkscape:window-x="0"
     inkscape:window-y="0"
     inkscape:window-maximized="1"
     inkscape:current-layer="svg1" />
  <defs
     id="defs1" />
  <path
     d="M 39.995 50.99 L 39.835 50.99 C 38.625 50.99 37.185 50.48 35.455 49.44 C 34.265 49.52 30.735 51.26 27.705 53.03 C 30.505 56.12 35.465 57.57 39.995 57.57 C 44.525 57.57 49.495 56.12 52.285 53.03 C 49.275 51.26 45.745 49.53 44.535 49.44 C 42.805 50.48 41.365 50.99 40.155 50.99 L 39.995 50.99 Z"
     id="path1"
     style="fill:#000000" />
  <path
     d="M 7.995 63.62 L 7.995 79.99 L 71.995 79.99 L 71.995 63.62 C 71.995 58.98 69.355 54.74 65.185 52.71 L 59.645 50.01 L 55.935 48.69 C 55.825 49.5 55.615 50.26 55.335 50.98 L 55.435 52.16 C 55.485 52.72 55.205 53.26 54.725 53.56 C 54.485 53.71 54.215 53.78 53.935 53.78 C 53.845 53.78 53.765 53.76 53.685 53.75 C 50.725 57.3 45.365 59.09 39.995 59.09 C 34.625 59.09 29.275 57.3 26.305 53.75 C 26.225 53.76 26.135 53.78 26.055 53.78 C 25.785 53.78 25.505 53.71 25.265 53.56 C 24.785 53.26 24.515 52.72 24.555 52.16 L 24.655 50.98 C 24.375 50.26 24.165 49.5 24.055 48.69 L 20.345 50.01 L 14.805 52.71 C 10.635 54.74 7.995 58.98 7.995 63.62 Z"
     id="path2"
     style="fill:#000000" />
  <path
     d="M 26.055 52.28 C 26.055 52.28 33.165 47.95 35.535 47.95 C 35.755 47.95 35.925 47.99 36.055 48.06 C 37.405 48.89 38.765 49.5 39.835 49.5 L 39.995 49.5 L 40.155 49.5 C 41.225 49.5 42.585 48.9 43.935 48.06 C 44.065 47.98 44.235 47.95 44.455 47.95 C 46.825 47.95 53.935 52.28 53.935 52.28 L 53.305 44.48 L 63.815 45.41 L 59.645 36.88 L 66.615 35.89 L 60.635 27.59 C 62.695 20.42 59.295 15 59.295 15 C 65.865 10 64.435 0.05 64.435 0.05 C 64.055 0.02 63.675 0 63.315 0 C 56.395 0 51.755 5.75 51.755 5.75 C 48.115 3.09 43.835 2.69 41.575 2.69 C 40.595 2.69 39.995 2.77 39.995 2.77 C 39.995 2.77 39.395 2.69 38.415 2.69 C 36.155 2.69 31.875 3.09 28.235 5.75 C 28.235 5.75 23.595 0 16.675 0 C 16.305 0 15.935 0.02 15.555 0.05 C 15.555 0.05 14.125 10 20.695 15 C 20.695 15 17.295 20.41 19.355 27.59 L 13.375 35.89 L 20.345 36.88 L 16.175 45.41 L 26.685 44.48 Z M 43.785 23.06 C 43.945 22.46 44.425 22.02 45.035 21.91 L 52.395 20.58 C 53.005 20.47 53.625 20.72 53.985 21.24 C 54.345 21.76 54.365 22.42 54.045 22.96 L 52.415 25.71 C 51.835 26.69 50.855 27.36 49.725 27.55 C 49.515 27.58 49.305 27.6 49.095 27.6 C 48.185 27.6 47.295 27.28 46.595 26.67 L 44.285 24.69 C 43.815 24.29 43.625 23.66 43.785 23.07 Z M 42.365 32.48 C 43.565 32.48 44.595 33.17 45.055 34.28 C 45.515 35.39 45.275 36.6 44.425 37.45 L 42.055 39.82 C 41.505 40.37 40.775 40.67 39.995 40.67 C 39.215 40.67 38.485 40.37 37.935 39.82 L 35.565 37.45 C 34.715 36.6 34.475 35.39 34.935 34.28 C 35.395 33.17 36.425 32.48 37.625 32.48 Z M 25.945 22.96 C 25.625 22.42 25.645 21.76 26.005 21.24 C 26.365 20.72 26.975 20.47 27.595 20.58 L 34.955 21.91 C 35.565 22.02 36.045 22.46 36.205 23.06 C 36.365 23.66 36.175 24.28 35.705 24.68 L 33.395 26.66 C 32.695 27.26 31.805 27.59 30.895 27.59 C 30.685 27.59 30.475 27.57 30.265 27.54 C 29.145 27.35 28.165 26.69 27.575 25.7 L 25.945 22.95 Z"
     id="path3"
     style="fill:#000000" />
  <path
     d="M 34.695 23.38 L 27.335 22.05 L 27.335 22.05 L 27.315 22.05 C 27.295 22.05 27.275 22.05 27.245 22.09 L 28.875 24.93 C 29.235 25.53 29.825 25.94 30.515 26.05 C 31.205 26.16 31.895 25.97 32.425 25.52 L 34.735 23.54 L 34.825 22.64 Z"
     id="path4"
     style="fill:#000000" />
  <path
     d="M 49.485 26.06 C 50.175 25.95 50.765 25.54 51.125 24.94 L 52.755 22.19 L 52.665 22.06 L 45.305 23.39 L 45.265 23.55 L 47.575 25.53 C 48.105 25.98 48.795 26.18 49.485 26.06 Z"
     id="path5"
     style="fill:#000000" />
  <path
     d="M 37.625 33.98 C 37.035 33.98 36.545 34.31 36.325 34.85 C 36.095 35.4 36.215 35.97 36.635 36.39 L 39.005 38.76 C 39.555 39.31 40.455 39.31 41.005 38.76 L 43.375 36.39 C 43.795 35.97 43.905 35.4 43.685 34.85 C 43.455 34.3 42.975 33.98 42.385 33.98 L 37.645 33.98 Z"
     id="path6"
     style="fill:#000000" />
</svg>
