<?xml version="1.0" encoding="UTF-8" standalone="no"?>
<!-- Created with Inkscape (http://www.inkscape.org/) -->

<svg
   width="92.155998"
   height="92.155998"
   viewBox="0 0 92.155998 92.155998"
   version="1.1"
   id="svg1"
   inkscape:version="1.4.2 (ebf0e940d0, 2025-05-08)"
   sodipodi:docname="wolfhat.svg"
   xmlns:inkscape="http://www.inkscape.org/namespaces/inkscape"
   xmlns:sodipodi="http://sodipodi.sourceforge.net/DTD/sodipodi-0.dtd"
   xmlns="http://www.w3.org/2000/svg"
   xmlns:svg="http://www.w3.org/2000/svg">
  <sodipodi:namedview
     id="namedview1"
     pagecolor="#ffffff"
     bordercolor="#000000"
     borderopacity="0.25"
     inkscape:showpageshadow="2"
     inkscape:pageopacity="0.0"
     inkscape:pagecheckerboard="0"
     inkscape:deskcolor="#d1d1d1"
     inkscape:document-units="px"
     inkscape:zoom="16"
     inkscape:cx="40"
     inkscape:cy="47.90625"
     inkscape:window-width="2256"
     inkscape:window-height="1427"
     inkscape:window-x="0"
     inkscape:window-y="0"
     inkscape:window-maximized="1"
     inkscape:current-layer="svg1"
     showgrid="true">
    <inkscape:grid
       id="grid1"
       units="px"
       originx="-13.999838"
       originy="5.8600021e-05"
       spacingx="1"
       spacingy="1"
       empcolor="#0099e5"
       empopacity="0.30196078"
       color="#0099e5"
       opacity="0.14901961"
       empspacing="10"
       enabled="true"
       visible="true" />
  </sodipodi:namedview>
  <defs
     id="defs1" />
  <path
     id="polygon1"
     d="M 8.691568,5.8600022e-5 C 8.227579,0.0062476 7.808756,0.33365235 7.715006,0.79302735 7.645006,1.1330273 7.603912,1.4429492 7.593912,1.7129492 5.443912,0.80294932 3.164068,0.6731836 1.254068,0.7031836 0.77406801,0.7131836 0.37531801,1.0534971 0.28531801,1.5234961 -0.55468199,6.1234971 0.48414601,10.843418 3.084146,14.693418 2.614146,14.663418 2.153756,14.683731 1.683756,14.763731 1.143756,14.843731 0.78367801,15.342874 0.85367801,15.882871 1.563678,21.202872 5.265084,26.812715 10.795084,30.972715 10.205084,33.552715 9.9212403,36.244093 9.894693,39.003965 9.0001621,132.00006 18.000162,75.000059 36.000162,74.000059 59.246256,81.976621 36.000162,69.39459 36.000162,69.39459 33.88269,66.286457 27.965006,56.725763 27.965006,47.132871 27.965006,46.342872 27.994849,45.543731 28.05485,44.763731 28.064849,44.693731 28.074381,44.622793 28.074381,44.552793 28.474381,39.892793 29.824847,35.563495 30.80485,34.023497 31.164849,33.443497 31.794537,33.103575 32.484537,33.103575 H 59.394693 C 60.084693,33.103575 60.714381,33.443494 61.074381,34.023497 61.934381,35.373497 63.424381,39.562793 63.824381,44.552793 63.894381,45.382793 63.933756,46.233575 63.933756,47.103575 63.933756,56.446753 58.21203,65.914694 56.000162,69.222715 56.000162,69.222715 32.615396,82.046934 56.000162,74.000059 76.000162,80.000059 81.852976,128.0953 81.894693,39.003965 81.895948,36.323965 81.595318,33.703653 81.035318,31.183653 86.755322,26.913653 90.574852,21.212874 91.304852,15.882871 91.374852,15.342875 91.005002,14.843731 90.465002,14.763731 90.005002,14.683731 89.534612,14.663418 89.064612,14.693418 91.674612,10.843418 92.715392,6.1234971 91.865392,1.5234961 91.785392,1.0534971 91.374692,0.7131836 90.894692,0.7031836 88.984692,0.6731836 86.704852,0.8029493 84.55485,1.7129492 84.544847,1.4429492 84.513756,1.1330273 84.433756,0.79302735 84.333756,0.30302735 83.875162,-0.03603515 83.375162,0.00396485 78.415162,0.44396485 70.544693,3.2032617 64.644693,8.2832617 59.174693,4.9332617 52.754693,3.0039648 45.894693,3.0039648 39.124693,3.0039648 32.785396,4.8824021 27.365396,8.1524024 21.525396,3.132402 13.885318,0.45396485 8.785318,0.00396485 8.754068,0.00146485 8.722501,-3.5439998e-4 8.691568,5.8600022e-5 Z M 12.933756,11.283262 C 15.709693,11.398106 17.914224,12.20584 20.164224,13.86334 17.914224,16.16334 15.974693,18.763809 14.394693,21.593809 11.684693,19.233809 10.385474,16.242637 9.945474,11.392637 11.020474,11.282637 12.008443,11.244981 12.933756,11.283262 Z M 79.213053,11.310606 C 80.150865,11.259512 81.14274,11.287637 82.20524,11.392637 81.75524,16.182637 80.304068,19.393028 77.504068,21.793028 75.944068,18.943028 74.015318,16.333495 71.785318,14.023497 74.072818,12.335997 76.399615,11.463887 79.213053,11.310606 Z M 30.164224,12.683653 C 31.164224,12.683653 31.984537,13.492244 31.984537,14.492247 31.984537,15.502244 31.164224,16.312559 30.164224,16.312559 29.154225,16.312559 28.343912,15.502246 28.343912,14.492247 28.343912,13.492247 29.154225,12.683653 30.164224,12.683653 Z M 61.715006,12.683653 C 62.725006,12.683653 63.535318,13.492244 63.535318,14.492247 63.535318,15.502244 62.725006,16.312559 61.715006,16.312559 60.715006,16.312559 59.894693,15.502246 59.894693,14.492247 59.894693,13.492247 60.715006,12.683653 61.715006,12.683653 Z M 32.933756,18.392637 C 33.000142,18.392539 33.067428,18.398418 33.134928,18.412168 L 39.164224,19.623106 C 39.714223,19.733106 40.06524,20.262793 39.95524,20.802793 39.85524,21.272793 39.434771,21.603575 38.974771,21.603575 38.904771,21.603575 38.8436,21.59209 38.7736,21.58209 L 32.744303,20.373106 C 32.204303,20.263106 31.85524,19.733418 31.95524,19.193418 32.05149,18.720918 32.469049,18.393321 32.933756,18.392637 Z M 58.945474,18.392637 C 59.410043,18.393321 59.826723,18.720918 59.914224,19.193418 60.024224,19.733418 59.674928,20.263106 59.134928,20.373106 L 53.103678,21.58209 C 53.033678,21.59209 52.974459,21.603575 52.904459,21.603575 52.434459,21.603575 52.02399,21.272793 51.92399,20.802793 51.81399,20.262793 52.165006,19.733106 52.715006,19.623106 L 58.744303,18.412168 C 58.811803,18.398418 58.879108,18.392539 58.945474,18.392637 Z M 43.644693,18.562559 H 48.234537 C 48.964537,18.562559 49.60399,18.973106 49.92399,19.623106 50.23399,20.283106 50.155472,21.043575 49.695474,21.603575 L 47.394693,24.472715 C 47.284693,24.612715 47.153834,24.73209 47.013834,24.83209 47.363834,26.15209 48.724381,26.913809 50.074381,27.093809 50.614381,27.163809 51.003756,27.66295 50.933756,28.21295 50.863756,28.71295 50.435474,29.08209 49.945474,29.08209 49.895474,29.08209 49.854849,29.082325 49.80485,29.072325 48.164849,28.852325 46.805477,28.093494 45.945474,27.023497 45.075474,28.093497 43.714381,28.852325 42.074381,29.072325 42.024381,29.082325 41.983756,29.08209 41.933756,29.08209 41.443756,29.08209 41.015474,28.71295 40.945474,28.21295 40.875474,27.66295 41.254849,27.163809 41.80485,27.093809 43.15485,26.913809 44.513678,26.15209 44.853678,24.83209 44.713678,24.73209 44.594537,24.612715 44.484537,24.472715 L 42.183756,21.603575 C 41.723756,21.043575 41.64524,20.283106 41.95524,19.623106 42.26524,18.973106 42.914693,18.562559 43.644693,18.562559 Z M 43.914224,20.562559 45.933756,23.093809 47.965006,20.562559 Z M 21.908365,22.017637 C 22.263341,22.008426 22.612351,22.190606 22.80485,22.513731 23.08485,22.993731 22.915474,23.602874 22.445474,23.882871 20.425473,25.052872 18.924928,26.532872 17.884928,28.382871 19.164928,28.502872 20.434459,28.383731 21.654459,28.013731 22.084459,27.893731 22.555084,28.063184 22.795084,28.453184 23.025084,28.833184 22.97399,29.332168 22.67399,29.662168 20.56399,31.922168 19.334068,34.483262 19.004068,37.283262 20.224068,37.393262 21.294615,36.932637 22.314615,35.892637 22.654615,35.542637 23.203912,35.493495 23.593912,35.773497 24.003912,36.053497 24.13399,36.583262 23.92399,37.033262 22.51399,39.943262 21.85524,43.002403 21.95524,46.152403 23.31524,45.832403 24.715396,45.113262 26.115396,44.033262 26.035396,44.863262 25.984771,45.702559 25.974771,46.562559 24.364771,47.572559 22.735396,48.162559 21.115396,48.312559 H 21.0236 C 20.793601,48.312559 20.564928,48.23209 20.384928,48.08209 20.174928,47.91209 20.0536,47.672403 20.0236,47.402403 19.783599,44.552403 20.095006,41.752559 20.965006,39.062559 19.935006,39.372559 18.833756,39.382325 17.683756,39.072325 17.223756,38.952325 16.915475,38.522793 16.945474,38.052793 17.075474,35.292793 17.933834,32.732168 19.513834,30.412168 18.413834,30.472168 17.29399,30.382637 16.17399,30.142637 15.88399,30.082637 15.634303,29.892871 15.494303,29.632871 15.354303,29.362872 15.345006,29.053496 15.465006,28.773497 16.655006,25.993496 18.663756,23.762403 21.433756,22.152403 21.583756,22.064903 21.747013,22.021824 21.908365,22.017637 Z M 69.9611,22.017637 C 70.122453,22.021824 70.283756,22.064903 70.433756,22.152403 73.203756,23.762403 75.214459,25.993497 76.404459,28.773497 76.524459,29.053497 76.515162,29.362872 76.375162,29.632871 76.245162,29.892872 75.995474,30.082637 75.695474,30.142637 74.575473,30.382637 73.453678,30.472168 72.353678,30.412168 73.933678,32.732168 74.793756,35.292793 74.933756,38.052793 74.953756,38.522793 74.645476,38.952325 74.195474,39.072325 73.035476,39.382325 71.934223,39.372559 70.914224,39.062559 71.774224,41.752559 72.083912,44.552403 71.843912,47.402403 71.823912,47.672403 71.694537,47.91209 71.484537,48.08209 71.304537,48.23209 71.083912,48.312559 70.843912,48.312559 H 70.754068 C 69.124068,48.162559 67.53399,47.582325 65.92399,46.572325 65.91399,45.712325 65.865318,44.863262 65.785318,44.033262 67.195318,45.133262 68.554225,45.832403 69.914224,46.152403 70.014222,43.002403 69.355473,39.943262 67.945474,37.033262 67.735474,36.583262 67.873597,36.053494 68.2736,35.773497 68.673602,35.493496 69.224615,35.542637 69.564615,35.892637 70.584615,36.932637 71.645396,37.393262 72.865396,37.283262 72.545396,34.483262 71.31524,31.922168 69.20524,29.662168 68.89524,29.332168 68.844146,28.833184 69.084146,28.453184 69.314146,28.063184 69.785006,27.893731 70.215006,28.013731 71.445006,28.383731 72.704537,28.502871 73.984537,28.382871 72.944537,26.532871 71.443756,25.052872 69.433756,23.882871 68.953756,23.602871 68.794615,22.993731 69.064615,22.513731 69.257115,22.190606 69.606121,22.008426 69.9611,22.017637 Z M 38.974771,22.636778 C 39.365709,22.63959 39.737193,22.871465 39.894693,23.253965 40.104693,23.763965 39.863678,24.352559 39.353678,24.562559 L 33.324381,27.052793 C 33.194381,27.102793 33.063756,27.132873 32.933756,27.132871 32.543756,27.132871 32.173834,26.893731 32.013834,26.513731 31.803834,26.003731 32.04485,25.413184 32.55485,25.203184 L 38.584146,22.71295 C 38.711646,22.66045 38.844459,22.63584 38.974771,22.636778 Z M 52.896646,22.636778 C 53.026021,22.63584 53.157818,22.66045 53.285318,22.71295 L 59.324381,25.203184 C 59.834381,25.413184 60.075396,26.003731 59.865396,26.513731 59.705396,26.893731 59.333756,27.132873 58.933756,27.132871 58.813756,27.132871 58.684848,27.102793 58.55485,27.052793 L 52.5236,24.562559 C 52.013597,24.352559 51.774537,23.763965 51.984537,23.253965 52.142037,22.871465 52.508521,22.63959 52.896646,22.636778 Z"
     sodipodi:nodetypes="cccccccccsccscccssccsccsccccccccccscccscccsscccsssssssssssscccscccsscccscccsssccccccscccsccccccsccccsccccccccccccccsccccccccccssccccccccccscccccsccccccccsssccscccsscccsccss" />
</svg>
