<?xml version="1.0" encoding="UTF-8" standalone="no"?>
<!-- Created with Inkscape (http://www.inkscape.org/) -->

<svg
   width="60.724998"
   height="60.724998"
   viewBox="0 0 60.724998 60.724999"
   version="1.1"
   id="svg1"
   inkscape:version="1.4.2 (ebf0e940d0, 2025-05-08)"
   sodipodi:docname="wolfcoat.svg"
   xmlns:inkscape="http://www.inkscape.org/namespaces/inkscape"
   xmlns:sodipodi="http://sodipodi.sourceforge.net/DTD/sodipodi-0.dtd"
   xmlns="http://www.w3.org/2000/svg"
   xmlns:svg="http://www.w3.org/2000/svg">
  <sodipodi:namedview
     id="namedview1"
     pagecolor="#ffffff"
     bordercolor="#000000"
     borderopacity="0.25"
     inkscape:showpageshadow="2"
     inkscape:pageopacity="0.0"
     inkscape:pagecheckerboard="0"
     inkscape:deskcolor="#d1d1d1"
     inkscape:document-units="px"
     inkscape:zoom="4.8041667"
     inkscape:cx="36.947095"
     inkscape:cy="93.564614"
     inkscape:window-width="2256"
     inkscape:window-height="1427"
     inkscape:window-x="0"
     inkscape:window-y="0"
     inkscape:window-maximized="1"
     inkscape:current-layer="svg1" />
  <defs
     id="defs1" />
  <path
     class="st0"
     d="M 6.9530926,14.724951 C 6.4530926,18.424951 6.5530926,22.324951 6.0530926,25.924951 5.1530926,33.424951 5.0530926,41.024951 4.3530926,48.524951 6.0530926,48.324951 6.0530926,48.624951 6.9530926,49.524951 9.5530926,47.524951 9.4530926,48.924951 10.253093,49.724951 10.753093,49.524951 11.153093,49.224951 11.453093,49.124951 L 12.453093,48.724951 C 12.453093,48.724951 12.553093,48.624951 12.653093,48.624951 12.753093,48.624951 12.753093,48.624951 12.853093,48.524951 L 12.753093,30.024951 C 12.653093,28.124951 11.853093,25.224951 12.953093,24.724951 13.953093,26.824951 13.453093,48.024951 13.953093,52.524951 15.653093,51.924951 15.253093,52.624951 16.453093,53.424951 17.453093,52.924951 17.553093,52.524951 18.853093,52.224951 20.653093,51.824951 19.953093,52.624951 21.153093,53.024951 22.353093,49.824951 23.553093,51.824951 25.053093,52.324951 25.853093,51.824951 26.053093,51.224951 27.453093,51.524951 28.153093,51.624951 28.253093,51.824951 28.553093,52.224951 28.753093,52.424951 28.953093,52.824951 29.353093,52.724951 29.853093,50.324951 29.053093,46.824951 29.253093,44.024951 L 28.353093,18.624951 C 23.553093,19.724951 25.353093,18.524951 23.553093,18.624951 21.253093,18.624951 21.453093,19.924951 19.553093,17.324951 18.253093,17.524951 17.853093,17.624951 17.353093,16.524951 16.353093,14.524951 15.753093,16.124951 14.953093,14.824951 14.453093,13.924951 15.053093,13.524951 14.653093,12.924951 14.253093,12.324951 13.553093,12.524951 13.253093,11.524951 12.953093,10.724951 13.353093,9.8249506 13.453093,9.1249506 11.853093,9.3249506 10.253093,10.224951 8.9530926,10.824951 7.2530926,11.624951 7.3530926,12.524951 6.9530926,14.724951 Z M 19.753093,43.324951 C 19.953093,42.124951 19.853093,42.724951 20.253093,42.424951 21.053093,43.524951 19.953093,46.024951 19.453093,47.124951 19.053093,48.124951 17.753093,50.324951 16.853093,49.424951 17.453093,47.924951 18.453093,49.624951 19.753093,43.324951 Z"
     id="path1"
     style="clip-rule:evenodd;fill-rule:evenodd;fill:#000000" />
  <path
     class="st0"
     d="M 22.853093,6.4249506 C 23.953093,6.8249506 24.953093,6.5249506 24.753093,8.1249506 24.453093,9.6249506 24.553093,9.0249506 26.353093,9.4249506 L 26.653093,10.824951 C 27.853093,10.524951 28.353093,11.024951 29.253093,10.624951 30.553093,10.024951 30.153093,10.224951 31.553093,10.624951 32.853093,8.2249506 32.053093,9.0249506 34.553093,9.0249506 35.353093,7.4249506 34.753093,8.2249506 36.253093,7.5249506 35.853093,6.6249506 35.053093,5.5249506 36.653093,4.8249506 L 35.553093,1.3249506 C 34.553093,1.8249506 35.453093,0.92495059 34.553093,2.0249506 34.053093,2.6249506 34.653093,2.3249506 33.853093,2.6249506 33.053093,1.6249506 34.053093,1.8249506 32.853093,1.3249506 32.453093,1.9249506 32.453093,2.4249506 31.853093,2.8249506 31.053093,2.3249506 31.353093,2.1249506 31.153093,1.2249506 28.753093,0.72495059 29.453093,2.2249506 28.353093,3.0249506 27.653093,2.3249506 27.953093,1.7249506 27.353093,0.82495059 25.253093,0.82495059 26.153093,1.8249506 25.053093,2.5249506 24.253093,1.8249506 24.753093,1.7249506 23.853093,1.2249506 22.653093,0.72495059 20.253093,1.5249506 20.953093,2.9249506 L 22.953093,3.1249506 C 23.753093,4.7249506 22.653093,4.5249506 22.853093,6.4249506 Z"
     id="path2"
     style="clip-rule:evenodd;fill-rule:evenodd;fill:#000000" />
  <path
     class="st0"
     d="M 24.053093,7.4249506 C 20.953093,6.8249506 22.353093,6.0249506 22.453093,3.7249506 21.753093,3.6249506 20.853093,3.7249506 20.553093,3.6249506 19.853093,3.3249506 20.153093,2.6249506 19.953093,1.7249506 19.853093,1.6249506 19.553093,1.5249506 19.353093,1.4249506 L 18.553093,0.72495059 C 16.953093,0.12495059 16.853093,1.6249506 16.753093,2.1249506 13.253093,2.6249506 14.453093,5.1249506 14.553093,5.4249506 13.953093,5.8249506 13.253093,6.1249506 13.253093,7.1249506 13.253093,8.5249506 13.853093,7.8249506 14.753093,8.7249506 13.653093,11.924951 13.653093,10.924951 15.853093,12.124951 16.053093,14.224951 14.953093,14.624951 18.153093,14.724951 V 16.424951 C 19.753093,16.624951 19.653093,16.024951 20.753093,15.724951 20.853093,18.024951 20.653093,18.224951 24.053093,17.224951 24.653093,17.524951 25.153093,18.124951 26.153093,18.024951 26.953093,17.924951 27.653093,17.724951 28.353093,17.424951 28.553093,15.824951 28.553093,13.124951 28.353093,11.624951 27.753093,11.224951 27.253093,11.624951 26.753093,11.624951 25.953093,11.524951 26.153093,11.424951 25.953093,10.724951 25.253093,8.9249506 26.353093,10.824951 23.753093,9.4249506 23.653093,8.5249506 23.953093,8.5249506 24.053093,7.4249506 Z"
     id="path3"
     style="clip-rule:evenodd;fill-rule:evenodd;fill:#000000" />
  <path
     class="st0"
     d="M 30.553093,11.024951 C 29.153093,10.724951 30.353093,11.124951 29.153093,11.524951 29.153093,13.124951 29.153093,17.824951 29.553093,18.824951 30.553093,18.824951 30.953093,18.324951 31.453093,17.824951 32.253093,18.124951 31.553093,18.124951 32.653093,18.224951 33.153093,17.624951 32.953093,17.524951 33.653093,17.324951 34.353093,17.724951 34.653093,18.924951 35.653093,18.024951 35.953093,17.724951 36.053093,17.324951 36.453093,17.124951 37.653093,16.424951 37.253093,18.424951 38.553093,17.524951 39.653093,16.724951 37.953093,16.924951 41.953093,15.724951 L 42.053093,13.424951 C 42.453093,13.124951 42.653093,13.124951 43.153093,12.824951 43.753093,8.4249506 45.353093,9.6249506 42.853093,7.4249506 43.153093,6.3249506 43.553093,7.0249506 43.353093,5.5249506 42.953093,5.1249506 42.253093,4.7249506 41.653093,4.4249506 41.653093,3.7249506 41.753093,2.6249506 41.553093,2.0249506 40.953093,1.8249506 40.553093,2.0249506 39.953093,1.6249506 39.253093,1.1249506 39.753093,0.92495059 39.353093,0.12495059 38.153093,-0.07504941 38.753093,-0.07504941 38.153093,0.42495059 L 36.953093,1.2249506 C 37.053093,2.3249506 37.053093,1.7249506 37.453093,2.6249506 37.053093,3.2249506 36.653093,3.0249506 36.853093,3.8249506 37.453093,4.7249506 37.753093,4.0249506 37.753093,5.3249506 L 36.753093,5.6249506 C 36.653093,7.7249506 37.553093,6.3249506 37.153093,8.5249506 L 35.653093,8.6249506 34.953093,10.024951 C 31.953093,9.9249506 33.353093,9.0249506 32.053093,11.724951 30.653093,11.524951 31.453093,11.224951 30.553093,11.024951 Z"
     id="path4"
     style="clip-rule:evenodd;fill-rule:evenodd;fill:#000000" />
  <path
     class="st0"
     d="M 33.753093,18.624951 C 32.553093,19.324951 33.353093,19.224951 31.653093,19.324951 30.853093,19.324951 29.753093,19.924951 29.353093,20.124951 29.553093,22.724951 29.453093,25.524951 29.653093,28.024951 29.853093,31.324951 30.253093,40.724951 30.053093,43.824951 29.953093,46.524951 30.253093,49.124951 30.353093,51.724951 33.153093,51.724951 31.853093,52.024951 33.053093,53.124951 34.553093,49.924951 36.153093,51.524951 37.653093,52.024951 38.553093,49.624951 40.453093,51.224951 41.553093,52.224951 41.853093,52.524951 41.653093,52.324951 41.953093,52.524951 43.553093,51.424951 43.153093,51.424951 44.853093,52.224951 45.453093,51.724951 45.553093,51.424951 46.453093,51.224951 46.353093,49.924951 46.053093,49.024951 45.953093,47.824951 45.853093,46.624951 45.953093,45.324951 45.953093,44.024951 46.153093,39.224951 45.253093,30.424951 45.253093,25.924951 45.253093,24.724951 45.253093,23.324951 46.153093,22.924951 46.153093,23.024951 46.453093,34.224951 46.553093,35.624951 L 47.053093,48.924951 C 47.953093,48.624951 47.553093,48.124951 48.253093,47.624951 49.153093,46.924951 49.653093,47.624951 50.153093,47.624951 50.753093,47.624951 50.853093,47.124951 51.753093,47.024951 53.053093,46.824951 52.653093,47.324951 53.253093,48.024951 54.153093,47.524951 53.853093,47.224951 54.853093,47.124951 L 55.553093,47.024951 C 55.553093,47.024951 55.653093,47.024951 55.753093,46.924951 55.353093,44.024951 54.953093,39.124951 54.253093,36.624951 54.953093,36.024951 54.553093,36.524951 54.953093,36.424951 55.253093,34.224951 53.653093,26.024951 53.253093,23.024951 L 51.453093,13.424951 C 51.253093,12.324951 51.253093,11.024951 51.053093,9.9249506 51.053093,9.9249506 50.953093,9.8249506 50.853093,9.8249506 L 44.353093,7.0249506 C 45.653093,9.6249506 45.653093,7.1249506 44.253093,12.424951 43.953093,13.724951 43.753093,13.124951 43.053093,14.024951 42.953093,16.924951 42.653093,16.124951 40.453093,17.124951 38.653093,17.924951 39.553093,19.224951 36.753093,18.124951 35.453093,19.724951 35.453093,19.724951 33.753093,18.624951 Z M 38.953093,43.724951 C 38.753093,42.524951 38.353093,42.124951 39.153093,41.624951 39.653093,42.124951 39.453093,41.824951 39.553093,42.624951 40.053093,44.824951 39.653093,43.724951 40.753093,45.824951 41.553093,47.424951 41.653093,47.424951 42.653093,48.324951 43.353093,49.024951 42.953093,48.024951 43.153093,49.124951 41.453093,49.424951 40.553093,47.424951 39.853093,46.024951 39.353093,45.224951 39.153093,44.824951 38.953093,43.724951 Z"
     id="path5"
     style="clip-rule:evenodd;fill-rule:evenodd;fill:#000000" />
  <path
     class="st0"
     d="M 37.653093,53.424951 C 36.553093,53.024951 36.753093,51.824951 34.853093,52.424951 34.053093,52.724951 33.753093,54.024951 33.253093,54.724951 31.653093,54.024951 32.553093,52.424951 30.753093,52.924951 30.253093,53.824951 30.853093,55.724951 31.053093,56.924951 L 31.853093,60.624951 C 32.753093,60.124951 32.653093,59.424951 33.153093,58.624951 34.353093,58.724951 34.353093,59.624951 35.053093,60.024951 36.553093,60.724951 36.453093,59.224951 36.753093,58.524951 39.053093,58.524951 38.053093,60.024951 39.953093,60.624951 40.853093,59.924951 40.553093,59.724951 41.253093,59.024951 42.353093,59.324951 42.253093,59.724951 42.953093,60.324951 44.853093,60.324951 44.453093,59.424951 44.953093,58.224951 46.453093,58.324951 45.253093,59.324951 47.553093,59.324951 48.253093,57.924951 47.753093,57.624951 47.653093,55.724951 47.553093,53.924951 47.453093,53.324951 46.053093,52.724951 45.353093,53.424951 45.553093,53.324951 44.953093,54.124951 44.153093,53.724951 44.253093,53.324951 43.653093,52.824951 42.353093,53.224951 42.753093,53.824951 41.653093,54.124951 40.653093,53.124951 41.253093,52.024951 38.853093,51.924951 38.453093,52.524951 38.453093,53.024951 37.653093,53.424951 Z"
     id="path6"
     style="clip-rule:evenodd;fill-rule:evenodd;fill:#000000" />
  <path
     class="st0"
     d="M 30.553093,58.924951 C 30.553093,58.724951 30.053093,54.624951 29.753093,54.024951 29.253093,53.924951 30.153093,54.224951 28.953093,54.124951 28.253093,52.924951 28.453093,52.324951 26.753093,52.224951 25.853093,52.824951 26.353093,53.024951 25.053093,53.324951 23.953093,53.224951 23.653093,50.124951 21.653093,54.024951 19.853093,53.724951 20.953093,52.424951 18.953093,53.124951 17.853093,53.524951 17.653093,54.124951 16.653093,54.524951 15.653093,54.224951 15.853093,53.524951 14.953093,53.124951 L 13.953093,54.324951 13.853093,54.424951 C 12.753093,56.024951 13.353093,55.424951 13.553093,56.224951 13.553093,56.224951 13.553093,58.724951 14.853093,60.024951 16.853093,59.524951 15.153093,59.024951 16.853093,58.524951 17.653093,59.424951 17.153093,59.824951 18.153093,60.724951 19.853093,60.624951 19.553093,60.124951 20.053093,58.724951 21.053093,58.924951 20.553093,58.724951 21.253093,59.724951 22.753093,61.724951 23.653093,59.824951 24.753093,58.624951 26.053093,59.424951 25.953093,60.724951 28.153093,60.324951 28.853093,59.924951 28.453093,58.824951 29.753093,58.324951 L 30.353093,59.624951 C 30.653093,59.224951 30.453093,59.624951 30.553093,58.924951 Z"
     id="path7"
     style="clip-rule:evenodd;fill-rule:evenodd;fill:#000000" />
  <path
     class="st0"
     d="M 12.253093,56.224951 C 12.353093,54.124951 13.153093,54.224951 13.153093,53.024951 13.153093,52.024951 12.853093,50.424951 12.453093,49.724951 11.253093,50.024951 11.053093,50.624951 10.053093,50.824951 9.4530926,50.424951 9.9530926,50.824951 9.4530926,50.224951 L 9.0530926,49.624951 C 9.0530926,49.624951 8.9530926,49.524951 8.9530926,49.524951 7.4530926,49.824951 8.0530926,50.324951 7.0530926,50.824951 5.9530926,50.024951 6.7530926,49.424951 4.8530926,49.324951 3.5530926,52.024951 3.2530926,52.524951 4.2530926,54.824951 4.5530926,55.624951 4.6530926,55.824951 5.6530926,55.724951 6.0530926,54.624951 5.6530926,53.824951 6.7530926,53.624951 7.2530926,55.324951 5.8530926,56.624951 8.1530926,56.824951 8.6530926,56.124951 8.3530926,55.824951 8.9530926,55.424951 10.053093,56.824951 8.8530926,57.824951 12.253093,56.224951 Z"
     id="path8"
     style="clip-rule:evenodd;fill-rule:evenodd;fill:#000000" />
  <path
     class="st0"
     d="M 47.353093,50.524951 C 47.553093,52.024951 47.953093,52.724951 48.453093,54.024951 48.953093,55.224951 49.253093,56.024951 50.953093,55.924951 51.253093,55.524951 51.453093,54.824951 51.753093,54.324951 52.653093,54.424951 53.153093,55.624951 53.953093,56.124951 54.653093,55.124951 53.953093,54.924951 54.753093,54.224951 55.553093,54.224951 55.453093,54.724951 56.053093,54.924951 58.453093,55.724951 55.853093,50.524951 55.753093,50.324951 55.153093,48.924951 55.953093,49.124951 55.053093,48.424951 53.353093,49.124951 54.453093,50.024951 53.053093,50.224951 52.153093,49.724951 52.753093,49.224951 51.953093,48.324951 50.353093,48.824951 51.353093,49.724951 50.253093,49.924951 49.253093,49.324951 50.253093,49.124951 49.153093,48.624951 47.853093,49.524951 49.653093,49.324951 47.553093,50.424951 47.553093,50.424951 47.453093,50.424951 47.353093,50.524951 Z"
     id="path9"
     style="clip-rule:evenodd;fill-rule:evenodd;fill:#000000" />
  <path
     style="fill:#000000;stroke:none;stroke-width:2;stroke-linecap:round;stroke-linejoin:round;stroke-miterlimit:3.9;paint-order:stroke fill markers"
     d="M 18.429589,39.916712 15.65422,50.185575 22.523258,49.699886 23.286484,41.026859 Z"
     id="path10" />
  <path
     style="fill:#000000;stroke:none;stroke-width:2;stroke-linecap:round;stroke-linejoin:round;stroke-miterlimit:3.9;paint-order:stroke fill markers"
     d="M 41.465149,39.084101 35.706259,42.830849 37.787785,48.034665 41.950838,50.463112 46.099261,48.918304 Z"
     id="path11" />
</svg>
