<?xml version="1.0" encoding="UTF-8" standalone="no"?>
<!-- Created with Inkscape (http://www.inkscape.org/) -->

<svg
   width="77.654999"
   height="77.654999"
   viewBox="0 0 77.655 77.654999"
   version="1.1"
   id="svg1"
   inkscape:version="1.4.2 (ebf0e940d0, 2025-05-08)"
   sodipodi:docname="wolfpants.svg"
   xmlns:inkscape="http://www.inkscape.org/namespaces/inkscape"
   xmlns:sodipodi="http://sodipodi.sourceforge.net/DTD/sodipodi-0.dtd"
   xmlns="http://www.w3.org/2000/svg"
   xmlns:svg="http://www.w3.org/2000/svg">
  <sodipodi:namedview
     id="namedview1"
     pagecolor="#ffffff"
     bordercolor="#000000"
     borderopacity="0.25"
     inkscape:showpageshadow="2"
     inkscape:pageopacity="0.0"
     inkscape:pagecheckerboard="0"
     inkscape:deskcolor="#d1d1d1"
     inkscape:document-units="px"
     inkscape:zoom="13.588235"
     inkscape:cx="40.844156"
     inkscape:cy="37.642857"
     inkscape:window-width="2256"
     inkscape:window-height="1427"
     inkscape:window-x="0"
     inkscape:window-y="0"
     inkscape:window-maximized="1"
     inkscape:current-layer="svg1"
     showgrid="true">
    <inkscape:grid
       id="grid1"
       units="px"
       originx="0"
       originy="0"
       spacingx="1"
       spacingy="1"
       empcolor="#0099e5"
       empopacity="0.30196078"
       color="#0099e5"
       opacity="0.14901961"
       empspacing="10"
       enabled="true"
       visible="true" />
  </sodipodi:namedview>
  <defs
     id="defs1" />
  <path
     id="path3"
     style="baseline-shift:baseline;display:inline;enable-background:accumulate;fill:#000000;opacity:1;overflow:visible;stop-color:#000000;stop-opacity:1;stroke-width:1.1;vector-effect:none"
     d="M 40.475 1.3148 C 40.1975 1.3148 39.8509 1.46393 39.5589 1.88907 L 38.8246 2.95964 L 38.0511 1.93161 C 37.7708 1.55947 37.4435 1.42351 37.18 1.42351 C 36.9477 1.42351 36.0964 1.80125 35.6351 2.10649 L 35.1546 2.42554 L 34.6742 2.10649 C 34.2129 1.80125 33.3616 1.42351 33.1293 1.42351 C 32.8814 1.42351 32.4115 1.66424 32.0687 1.94343 L 31.5101 2.39718 L 30.9515 1.94343 C 30.6099 1.66521 30.1368 1.42351 29.889 1.42351 C 29.6412 1.42351 29.1713 1.66424 28.8285 1.94343 L 28.2699 2.39718 L 27.7113 1.94343 C 27.3697 1.66521 26.8966 1.42351 26.6488 1.42351 C 26.401 1.42351 25.931 1.66424 25.5882 1.94343 L 25.0296 2.39718 L 24.4711 1.94343 C 24.1283 1.66424 23.6583 1.42351 23.4105 1.42351 C 23.1781 1.42351 22.3269 1.80126 21.8656 2.10649 L 21.3851 2.42554 L 20.9046 2.10649 C 20.4434 1.80125 19.5921 1.42351 19.3597 1.42351 C 18.8239 1.42351 17.93 1.88806 17.93 4.13419 C 17.93 6.38031 18.8227 6.84251 19.3597 6.84251 C 19.5921 6.84251 20.4434 6.46476 20.9046 6.15952 L 21.3851 5.84048 L 21.8656 6.15952 C 22.3269 6.46476 23.1781 6.84251 23.4105 6.84251 C 23.6605 6.84251 24.13 6.6027 24.4711 6.32495 L 25.0296 5.8712 L 25.5882 6.32495 C 25.9293 6.6027 26.3988 6.84251 26.6488 6.84251 C 26.8988 6.84251 27.3714 6.60173 27.7113 6.32495 L 28.2699 5.8712 L 28.8285 6.32495 C 29.1695 6.6027 29.639 6.84251 29.889 6.84251 C 30.139 6.84251 30.6117 6.60173 30.9515 6.32495 L 31.5101 5.8712 L 32.0687 6.32495 C 32.4097 6.6027 32.8793 6.84251 33.1293 6.84251 C 33.3616 6.84251 34.2129 6.46476 34.6742 6.15952 L 35.1546 5.84048 L 35.6351 6.15952 C 36.0964 6.46476 36.9477 6.84251 37.18 6.84251 C 37.4575 6.84251 37.8041 6.69337 38.0961 6.26823 L 38.8304 5.19767 L 39.6039 6.22569 C 39.8851 6.59898 40.2139 6.73616 40.475 6.73616 C 40.7053 6.73616 41.5569 6.35717 42.0199 6.05081 L 42.5004 5.73177 L 42.9808 6.05081 C 43.4447 6.35779 44.2934 6.73616 44.5238 6.73616 C 44.7716 6.73616 45.2447 6.49446 45.5863 6.21624 L 46.1449 5.76249 L 46.7035 6.21624 C 47.0463 6.49543 47.5162 6.73616 47.764 6.73616 C 48.0118 6.73616 48.4849 6.49446 48.8265 6.21624 L 49.3851 5.76249 L 49.9437 6.21624 C 50.2865 6.49543 50.7564 6.73616 51.0043 6.73616 C 51.2521 6.73616 51.7251 6.49446 52.0668 6.21624 L 52.6254 5.76249 L 53.1839 6.21624 C 53.5267 6.49543 53.9967 6.73616 54.2445 6.73616 C 54.4748 6.73616 55.3264 6.35717 55.7894 6.05081 L 56.2699 5.73177 L 56.7504 6.05081 C 57.2133 6.35717 58.0649 6.73616 58.2953 6.73616 C 58.8311 6.73616 59.725 6.2716 59.725 4.02548 C 59.725 1.77934 58.8311 1.3148 58.2953 1.3148 C 58.0649 1.3148 57.2133 1.69378 56.7504 2.00015 L 56.2699 2.31919 L 55.7894 2.00015 C 55.3264 1.69378 54.4748 1.3148 54.2445 1.3148 C 53.9967 1.3148 53.5267 1.55553 53.1839 1.83472 L 52.6254 2.28847 L 52.0668 1.83472 C 51.7251 1.5565 51.2521 1.3148 51.0043 1.3148 C 50.7564 1.3148 50.2865 1.55553 49.9437 1.83472 L 49.3851 2.28847 L 48.8265 1.83472 C 48.4849 1.5565 48.0118 1.3148 47.764 1.3148 C 47.5162 1.3148 47.0463 1.55553 46.7035 1.83472 L 46.1449 2.28847 L 45.5863 1.83472 C 45.2447 1.5565 44.7716 1.3148 44.5238 1.3148 C 44.2934 1.3148 43.4447 1.69317 42.9808 2.00015 L 42.5004 2.31919 L 42.0199 2.00015 C 41.5569 1.69378 40.7053 1.3148 40.475 1.3148 Z" />
  <path
     id="path2"
     style="fill:#000000"
     d="M 21.4349 7.7915 L 20.845 8.38134 C 19.4075 9.82274 18.6068 11.7407 18.6068 13.7915 L 18.386 50 L 29.4423 60 L 36 66 L 36.6068 31.7915 C 36.6263 30.6901 37.5052 29.7915 38.6068 29.7915 C 39.7083 29.7915 40.6068 30.6899 40.6068 31.7915 L 41 66 L 46 61.3781 L 58.5332 50 L 58.6068 13.7915 C 58.6109 11.7524 57.806 9.82274 56.3685 8.38134 L 55.7786 7.7915 L 46.6068 7.7915 L 44.6068 7.7915 L 40.6068 7.7915 L 36.6068 7.7915 L 32.6068 7.7915 L 30.6068 7.7915 Z" />
  <path
     id="path4"
     style="fill:#000000"
     d="M 58.607422,51.310547 44.607422,64.041016 40.607422,67.669922 V 71.292969 C 40.872784,71.214263 41.145665,71.173828 41.417969,71.173828 42.240392,71.173828 42.834463,71.507931 43.367187,71.791016 H 43.517578 C 44.050058,71.50809 44.645115,71.173828 45.466797,71.173828 46.173959,71.173828 46.62942,71.486715 47.087891,71.748047 47.546305,71.486798 48.000064,71.173828 48.707031,71.173828 49.414192,71.173828 49.869654,71.486715 50.328125,71.748047 50.786538,71.486798 51.240299,71.173828 51.947266,71.173828 52.654991,71.173828 53.109722,71.486472 53.568359,71.748047 54.026773,71.486798 54.480533,71.173828 55.1875,71.173828 56.009923,71.173828 56.603994,71.507931 57.136719,71.791016 H 57.287109 C 57.673272,71.585879 58.092713,71.354191 58.607422,71.242188 Z M 41.417969,73.173828 C 40.881997,73.173828 39.988281,73.557847 39.988281,75.414063 39.988281,77.270272 40.881997,77.654297 41.417969,77.654297 41.649303,77.654297 42.500553,77.340732 42.962891,77.087891 L 43.443359,76.826172 43.921875,77.087891 C 44.384213,77.340732 45.235464,77.654297 45.466797,77.654297 45.714846,77.654297 46.187206,77.456816 46.529297,77.226563 L 47.087891,76.849609 47.646484,77.226563 C 47.988575,77.456815 48.458982,77.654297 48.707031,77.654297 48.95508,77.654297 49.42744,77.456816 49.769531,77.226563 L 50.328125,76.849609 50.886719,77.226563 C 51.22881,77.456815 51.699218,77.654297 51.947266,77.654297 52.195315,77.654297 52.667675,77.456816 53.009766,77.226563 L 53.568359,76.849609 54.125,77.226563 C 54.467091,77.456815 54.939451,77.654297 55.1875,77.654297 55.418833,77.654297 56.270085,77.340732 56.732422,77.087891 L 57.212891,76.826172 57.691406,77.087891 C 58.153744,77.340732 59.006948,77.654297 59.238281,77.654297 59.774253,77.654297 60.667969,77.270273 60.667969,75.414063 60.667969,73.557847 59.774253,73.173828 59.238281,73.173828 59.006948,73.173828 58.153744,73.487393 57.691406,73.740234 L 57.212891,74.003906 56.732422,73.740234 C 56.270085,73.487393 55.418833,73.173828 55.1875,73.173828 54.939451,73.173828 54.467091,73.373262 54.125,73.603516 L 53.568359,73.978516 53.009766,73.603516 C 52.667675,73.373262 52.195315,73.173828 51.947266,73.173828 51.699218,73.173828 51.22881,73.373262 50.886719,73.603516 L 50.328125,73.978516 49.769531,73.603516 C 49.42744,73.373262 48.95508,73.173828 48.707031,73.173828 48.458982,73.173828 47.988575,73.373262 47.646484,73.603516 L 47.087891,73.978516 46.529297,73.603516 C 46.187206,73.373262 45.714846,73.173828 45.466797,73.173828 45.235464,73.173828 44.384213,73.487393 43.921875,73.740234 L 43.443359,74.003906 42.962891,73.740234 C 42.500553,73.487393 41.649303,73.173828 41.417969,73.173828 Z" />
  <path
     id="path4-2"
     style="fill:#000000"
     d="M 18.174547,51.311249 32.174547,64.041718 36.174547,67.670624 V 71.293671 C 35.909185,71.214965 35.636304,71.17453 35.364,71.17453 34.541577,71.17453 33.947506,71.508633 33.414782,71.791718 H 33.264391 C 32.731911,71.508792 32.136854,71.17453 31.315172,71.17453 30.60801,71.17453 30.152549,71.487417 29.694078,71.748749 29.235664,71.4875 28.781905,71.17453 28.074938,71.17453 27.367777,71.17453 26.912315,71.487417 26.453844,71.748749 25.995431,71.4875 25.54167,71.17453 24.834703,71.17453 24.126978,71.17453 23.672247,71.487174 23.21361,71.748749 22.755196,71.4875 22.301436,71.17453 21.594469,71.17453 20.772046,71.17453 20.177975,71.508633 19.64525,71.791718 H 19.49486 C 19.108697,71.586581 18.689256,71.354893 18.174547,71.24289 Z M 35.364,73.17453 C 35.899972,73.17453 36.793688,73.558549 36.793688,75.414765 36.793688,77.270974 35.899972,77.654999 35.364,77.654999 35.132666,77.654999 34.281416,77.341434 33.819078,77.088593 L 33.33861,76.826874 32.860094,77.088593 C 32.397756,77.341434 31.546505,77.654999 31.315172,77.654999 31.067123,77.654999 30.594763,77.457518 30.252672,77.227265 L 29.694078,76.850311 29.135485,77.227265 C 28.793394,77.457517 28.322987,77.654999 28.074938,77.654999 27.826889,77.654999 27.354529,77.457518 27.012438,77.227265 L 26.453844,76.850311 25.89525,77.227265 C 25.553159,77.457517 25.082751,77.654999 24.834703,77.654999 24.586654,77.654999 24.114294,77.457518 23.772203,77.227265 L 23.21361,76.850311 22.656969,77.227265 C 22.314878,77.457517 21.842518,77.654999 21.594469,77.654999 21.363136,77.654999 20.511884,77.341434 20.049547,77.088593 L 19.569078,76.826874 19.090563,77.088593 C 18.628225,77.341434 17.775021,77.654999 17.543688,77.654999 17.007716,77.654999 16.114,77.270975 16.114,75.414765 16.114,73.558549 17.007716,73.17453 17.543688,73.17453 17.775021,73.17453 18.628225,73.488095 19.090563,73.740936 L 19.569078,74.004608 20.049547,73.740936 C 20.511884,73.488095 21.363136,73.17453 21.594469,73.17453 21.842518,73.17453 22.314878,73.373964 22.656969,73.604218 L 23.21361,73.979218 23.772203,73.604218 C 24.114294,73.373964 24.586654,73.17453 24.834703,73.17453 25.082751,73.17453 25.553159,73.373964 25.89525,73.604218 L 26.453844,73.979218 27.012438,73.604218 C 27.354529,73.373964 27.826889,73.17453 28.074938,73.17453 28.322987,73.17453 28.793394,73.373964 29.135485,73.604218 L 29.694078,73.979218 30.252672,73.604218 C 30.594763,73.373964 31.067123,73.17453 31.315172,73.17453 31.546505,73.17453 32.397756,73.488095 32.860094,73.740936 L 33.33861,74.004608 33.819078,73.740936 C 34.281416,73.488095 35.132666,73.17453 35.364,73.17453 Z" />
</svg>
