<?xml version="1.0" encoding="UTF-8" standalone="no"?>
<!-- Created with Inkscape (http://www.inkscape.org/) -->

<svg
   width="132.295"
   height="132.295"
   viewBox="0 0 132.29499 132.295"
   version="1.1"
   id="svg1"
   inkscape:version="1.4.2 (ebf0e940d0, 2025-05-08)"
   sodipodi:docname="wolf.svg"
   xmlns:inkscape="http://www.inkscape.org/namespaces/inkscape"
   xmlns:sodipodi="http://sodipodi.sourceforge.net/DTD/sodipodi-0.dtd"
   xmlns="http://www.w3.org/2000/svg"
   xmlns:svg="http://www.w3.org/2000/svg">
  <sodipodi:namedview
     id="namedview1"
     pagecolor="#ffffff"
     bordercolor="#000000"
     borderopacity="0.25"
     inkscape:showpageshadow="2"
     inkscape:pageopacity="0.0"
     inkscape:pagecheckerboard="0"
     inkscape:deskcolor="#d1d1d1"
     inkscape:document-units="mm"
     inkscape:zoom="1.0271535"
     inkscape:cx="249.71925"
     inkscape:cy="202.98816"
     inkscape:window-width="2256"
     inkscape:window-height="1427"
     inkscape:window-x="0"
     inkscape:window-y="0"
     inkscape:window-maximized="1"
     inkscape:current-layer="svg1" />
  <defs
     id="defs1" />
  <path
     d="M 131.921 17.7126 C 131.339 16.813 127.212 19.2471 127.212 19.2471 C 126.974 17.448 127.37 15.6224 128.349 14.1142 L 128.429 14.0084 C 128.588 13.7703 128.588 13.4792 128.482 13.2411 C 127.926 12.1299 125.995 8.82257 124.037 10.3042 C 121.973 11.8653 117.025 18.083 117.025 18.083 C 117.025 18.083 115.676 18.1624 114.644 18.7709 C 113.639 19.353 110.569 22.5015 110.569 22.5015 L 109.59 23.6392 C 107.844 25.703 105.648 27.3169 103.188 28.4017 C 102.235 28.8251 101.256 29.2749 100.436 29.6982 C 99.9067 29.9892 99.9861 30.7565 100.568 30.9153 L 103.505 31.6826 C 103.505 31.6826 99.2188 40.1492 91.2284 44.4619 C 88.5825 45.8907 82.7617 47.2665 79.6925 47.8486 C 76.6498 48.4307 68.1567 49.8859 68.1567 49.8859 C 61.3305 50.759 52.8109 52.1613 47.4134 55.4157 C 44.9263 56.8974 42.2011 57.9822 39.423 58.8024 C 35.7188 59.9136 32.729 61.5805 29.3688 63.9617 C 16.3513 73.1692 12.6471 91.5578 4.6e-05 101.321 C 5.7415 101.109 11.3507 98.5692 15.3194 94.4153 C 15.4517 95.5001 15.6105 96.5584 15.7428 97.6432 C 19.4734 95.5794 22.4896 92.2192 24.1036 88.2769 C 24.1036 89.0971 24.3946 89.8909 24.8973 90.5524 C 28.3369 88.3828 30.5594 84.4405 30.6388 80.3659 C 31.3267 80.9744 31.9882 81.583 32.6761 82.1915 C 34.5017 80.3924 34.4488 77.5084 35.1632 75.0478 C 35.9305 72.349 37.7296 70.0736 39.9786 68.4067 C 39.7934 69.0946 39.6346 69.809 39.5023 70.5234 C 39.0525 72.693 38.8409 74.8626 38.788 77.0586 C 38.735 79.1224 38.735 81.1861 38.5234 83.2234 C 38.1265 87.1921 36.8565 91.108 35.6659 94.8915 C 35.1103 96.6378 34.5282 98.3311 33.8403 100.024 L 33.6021 102.326 C 33.6021 102.326 32.5967 105.104 31.9088 110.449 C 31.2209 115.794 28.5221 121.694 29.8715 121.958 C 31.2209 122.223 37.3328 122.726 38.3382 121.958 C 38.6557 121.72 38.5763 121.165 38.2853 120.556 C 37.0153 117.725 36.5125 114.603 37.0417 111.56 C 37.518 108.756 38.2588 105.607 39.37 103.676 C 41.7513 99.5217 50.218 93.8597 50.218 93.8597 L 50.218 98.9396 C 49.9798 101.03 50.2709 103.12 51.0382 105.078 C 53.1548 110.37 56.9119 118.704 57.9967 118.916 C 59.3461 119.18 67.9715 120.265 68.1038 118.307 C 68.2096 116.64 67.7069 115.132 65.8019 114.524 C 64.6378 114.153 63.4207 115.291 61.3834 113.836 C 60.4309 113.148 59.4784 110.475 58.7111 107.856 C 57.7057 104.284 58.1025 100.448 59.7959 97.1405 L 62.1771 92.4838 C 65.2728 86.3984 71.4111 82.4296 78.2638 82.0592 C 84.3757 81.7417 90.9638 81.5036 92.2338 81.7947 C 92.9217 81.9534 94.0065 84.1759 95.1707 87.1392 C 95.6205 84.7051 97.2609 83.7261 97.2609 83.7261 C 95.9115 89.0442 96.8375 91.743 97.0757 92.4044 C 97.8165 90.2613 99.6951 88.9649 99.6951 88.9649 C 99.0865 90.7111 98.1076 93.7538 98.6103 97.1934 C 99.1659 95.6059 100.409 94.4682 100.409 94.4682 C 100.092 95.7117 99.3511 98.0136 99.3246 99.3101 C 99.3246 99.4424 99.3246 99.6011 99.3511 99.7334 C 99.8803 101.559 100.198 102.855 100.198 103.094 C 100.145 104.946 100.277 111.904 100.409 116.402 L 100.436 116.402 C 99.8803 119.207 100.859 121.456 101.627 121.614 C 103.161 121.932 109.564 122.144 110.728 121.191 C 111.654 120.424 108.744 117.408 107.738 116.27 C 106.707 113.121 106.865 105.157 107.13 102.062 C 107.791 94.574 109.908 81.3184 110.569 79.6251 C 111.257 77.9317 113.903 76.6617 115.305 74.889 C 119.036 70.153 119.698 60.3634 120.412 59.4109 C 120.491 59.3051 121.708 60.7603 124.407 60.3105 C 123.243 58.4584 122.502 56.4211 122.899 54.0663 C 122.925 53.934 123.349 55.8919 125.809 56.2888 C 124.143 52.7963 124.804 49.0657 124.883 49.2509 C 125.386 50.3886 126.868 51.6321 128.058 52.0819 C 126.577 49.4361 125.73 41.6574 125.836 41.7897 C 126.762 43.1126 127.291 43.4565 128.799 43.483 C 126.497 41.1017 125.624 36.0482 125.704 36.2069 C 126.418 37.6621 127.953 37.8474 127.926 37.7944 C 126.1 34.5665 125.942 32.1588 125.942 31.0476 C 125.942 28.9309 129.884 24.7769 129.884 24.7769 C 129.884 24.7769 133.429 19.9615 131.921 17.7126 Z"
     id="path1"
     style="fill:#000000;stroke-width:0.264583" />
</svg>
