<?xml version="1.0" encoding="UTF-8" standalone="no"?>
<!-- Created with Inkscape (http://www.inkscape.org/) -->

<svg
   width="1357.433"
   height="1357.433"
   viewBox="0 0 1357.433 1357.433"
   version="1.1"
   id="svg1"
   inkscape:version="1.4.2 (ebf0e940d0, 2025-05-08)"
   sodipodi:docname="woodwright.svg"
   xmlns:inkscape="http://www.inkscape.org/namespaces/inkscape"
   xmlns:sodipodi="http://sodipodi.sourceforge.net/DTD/sodipodi-0.dtd"
   xmlns="http://www.w3.org/2000/svg"
   xmlns:svg="http://www.w3.org/2000/svg">
  <sodipodi:namedview
     id="namedview1"
     pagecolor="#ffffff"
     bordercolor="#000000"
     borderopacity="0.25"
     inkscape:showpageshadow="2"
     inkscape:pageopacity="0.0"
     inkscape:pagecheckerboard="0"
     inkscape:deskcolor="#d1d1d1"
     inkscape:document-units="px"
     inkscape:zoom="0.84939742"
     inkscape:cx="158.34755"
     inkscape:cy="678.71645"
     inkscape:window-width="2256"
     inkscape:window-height="1427"
     inkscape:window-x="0"
     inkscape:window-y="0"
     inkscape:window-maximized="1"
     inkscape:current-layer="svg1" />
  <defs
     id="defs1" />
  <path
     d="M 537.00866,685.29962 C 537.00866,685.29962 537.00866,698.46629 550.17533,830.27295 563.29506,961.39295 668.80067,1107.0196 747.85533,1199.2862 826.92866,1291.5409 813.76199,1357.4329 813.76199,1357.4329 813.76199,1357.4329 853.74599,1317.8969 827.40733,1252.0116 801.03799,1186.0996 617.00733,935.70495 617.00733,817.07828 V 685.30229 672.12002 540.34402 C 617.00733,421.71869 801.03399,171.3307 827.40733,105.43737 853.74599,39.530702 814.00066,4.1699219e-5 814.00066,4.1699219e-5 814.00066,4.1699219e-5 827.04226,65.885372 747.96999,158.16003 668.91267,250.4147 563.35666,396.02669 550.23666,527.14669 537.0648,658.94935 537.00226,672.12002 537.00226,672.12002 Z"
     id="path1"
     style="fill:#000000;stroke-width:1.33333" />
  <path
     d="M 825.00866,62.699642 H 809.00866 V 1310.6996 H 825.00866 Z"
     id="path2"
     style="fill:#000000;stroke-width:1.33333" />
  <path
     d="M 521.00867,798.69962 C 521.00867,816.36095 535.34733,830.69962 553.00866,830.69962 H 601.00866 C 618.67,830.69962 633.00866,816.36095 633.00866,798.69962 V 590.69962 C 633.00866,573.03829 618.67,558.69962 601.00866,558.69962 H 553.00866 C 535.34733,558.69962 521.00867,573.03829 521.00867,590.69962 Z"
     id="path3"
     style="fill:#000000;stroke-width:1.33333" />
</svg>
