<?xml version="1.0" encoding="UTF-8" standalone="no"?>
<!-- Created with Inkscape (http://www.inkscape.org/) -->

<svg
   width="26.474001"
   height="26.474001"
   viewBox="0 0 26.474001 26.474001"
   version="1.1"
   id="svg1"
   inkscape:version="1.4.2 (ebf0e940d0, 2025-05-08)"
   sodipodi:docname="woodworking.svg"
   xmlns:inkscape="http://www.inkscape.org/namespaces/inkscape"
   xmlns:sodipodi="http://sodipodi.sourceforge.net/DTD/sodipodi-0.dtd"
   xmlns="http://www.w3.org/2000/svg"
   xmlns:svg="http://www.w3.org/2000/svg">
  <sodipodi:namedview
     id="namedview1"
     pagecolor="#ffffff"
     bordercolor="#000000"
     borderopacity="0.25"
     inkscape:showpageshadow="2"
     inkscape:pageopacity="0.0"
     inkscape:pagecheckerboard="0"
     inkscape:deskcolor="#d1d1d1"
     inkscape:document-units="px"
     inkscape:zoom="4.108614"
     inkscape:cx="92.001829"
     inkscape:cy="80.684144"
     inkscape:window-width="2256"
     inkscape:window-height="1427"
     inkscape:window-x="0"
     inkscape:window-y="0"
     inkscape:window-maximized="1"
     inkscape:current-layer="svg1" />
  <defs
     id="defs1" />
  <path
     d="M 26.0524 8.27386 L 8.87296 8.27386 C 9.2618 9.07419 9.04627 9.99166 9.1024 10.8526 C 9.08244 12.3806 9.14511 13.9123 9.06565 15.4377 C 9.23132 16.0281 8.14444 16.8844 8.90873 17.1122 C 9.32114 17.4409 9.87659 17.393 10.0866 16.8697 C 10.3414 16.5077 10.5963 16.1456 10.8511 15.7835 C 11.3735 15.8769 11.8844 16.0864 12.4155 16.0923 C 12.8665 15.7859 13.1903 15.3215 13.5858 14.9463 C 14.1218 15.0421 14.6457 15.2576 15.1905 15.2658 C 15.6409 14.9637 15.965 14.4928 16.3619 14.1195 C 16.8982 14.2152 17.4225 14.4311 17.9676 14.4386 C 18.4184 14.1324 18.7417 13.6679 19.1369 13.2927 C 19.6729 13.3885 20.1968 13.604 20.7416 13.6122 C 21.1916 13.3104 21.5147 12.8391 21.9109 12.4659 C 22.4464 12.5616 22.9699 12.7772 23.5142 12.7854 C 23.9632 12.4853 24.2848 12.0151 24.6798 11.6432 C 25.1663 11.7419 25.6399 11.9368 26.1356 11.9674 C 26.6601 11.7517 26.4012 11.1017 26.4637 10.6584 C 26.4444 9.94819 26.5037 9.23016 26.4312 8.52531 C 26.3712 8.37484 26.2073 8.26846 26.0524 8.27386 Z"
     id="path1"
     style="fill:#000000;stroke-width:0.264583" />
  <path
     d="M 7.44871 8.27386 C 5.18856 8.28503 2.92617 8.25151 0.667435 8.29065 C -0.103475 8.4431 0.00311 9.29927 0.0073 9.89185 C 0.018441 12.4395 -0.015017 14.9894 0.02409 17.5356 C 0.17654 18.3065 1.03271 18.1999 1.62529 18.1957 C 2.90685 18.1757 4.19259 18.2391 5.47111 18.1575 C 7.17594 17.936 8.44781 16.2437 8.27553 14.5494 C 8.26446 12.6779 8.29775 10.8041 8.25874 8.934 C 8.18797 8.55825 7.83133 8.26689 7.44871 8.27386 Z M 4.96824 14.8884 C 5.03087 16.1614 3.41048 17.0226 2.38987 16.2598 C 1.50941 15.7208 1.66919 14.6359 1.66095 13.7582 C 1.69321 12.8694 1.58649 11.9666 1.73526 11.0893 C 2.05318 9.86587 3.83433 9.51621 4.59074 10.5291 C 5.18385 11.2824 4.90173 12.2807 4.96824 13.1635 L 4.96824 14.8884 Z"
     id="path2"
     style="fill:#000000;stroke-width:0.264583" />
</svg>
