<?xml version="1.0" encoding="UTF-8" standalone="no"?>
<!-- Created with Inkscape (http://www.inkscape.org/) -->

<svg
   width="87.661003"
   height="87.661003"
   viewBox="0 0 87.661003 87.661003"
   version="1.1"
   id="svg1"
   inkscape:version="1.4.2 (ebf0e940d0, 2025-05-08)"
   sodipodi:docname="woolmitts.svg"
   xmlns:inkscape="http://www.inkscape.org/namespaces/inkscape"
   xmlns:sodipodi="http://sodipodi.sourceforge.net/DTD/sodipodi-0.dtd"
   xmlns="http://www.w3.org/2000/svg"
   xmlns:svg="http://www.w3.org/2000/svg">
  <sodipodi:namedview
     id="namedview1"
     pagecolor="#ffffff"
     bordercolor="#000000"
     borderopacity="0.25"
     inkscape:showpageshadow="2"
     inkscape:pageopacity="0.0"
     inkscape:pagecheckerboard="0"
     inkscape:deskcolor="#d1d1d1"
     inkscape:document-units="px"
     inkscape:zoom="4.8041667"
     inkscape:cx="19.878578"
     inkscape:cy="115.42064"
     inkscape:window-width="2256"
     inkscape:window-height="1427"
     inkscape:window-x="0"
     inkscape:window-y="0"
     inkscape:window-maximized="1"
     inkscape:current-layer="svg1" />
  <defs
     id="defs1" />
  <path
     d="M 18.285 81.3594 L 20.8514 81.3594 L 20.8514 77.5117 C 20.8514 76.9805 21.2811 76.5508 21.8123 76.5508 C 22.3436 76.5508 22.7733 76.9805 22.7733 77.5117 L 22.7733 81.3594 L 25.3397 81.3594 L 25.3397 77.5117 C 25.3397 76.9805 25.7694 76.5508 26.3006 76.5508 C 26.8319 76.5508 27.2616 76.9805 27.2616 77.5117 L 27.2616 81.3594 L 29.828 81.3594 L 29.828 77.5117 C 29.828 76.9805 30.2576 76.5508 30.7889 76.5508 C 31.3201 76.5508 31.7498 76.9805 31.7498 77.5117 L 31.7498 81.1953 C 33.4178 80.7031 34.6365 79.1641 34.6365 77.3398 L 34.6365 74.8007 C 34.6365 72.5819 32.8318 70.7773 30.6131 70.7773 L 4.02714 70.7734 C 1.80834 70.7734 0.003737 72.5781 0.003737 74.7968 L 0.003737 77.3359 C 0.003737 79.1601 1.22254 80.6992 2.89044 81.1914 L 2.89044 77.5078 C 2.89044 76.9766 3.32013 76.5469 3.85138 76.5469 C 4.38263 76.5469 4.81232 76.9766 4.81232 77.5078 L 4.81232 81.3555 L 7.37872 81.3555 L 7.37872 77.5078 C 7.37872 76.9766 7.80841 76.5469 8.33966 76.5469 C 8.87091 76.5469 9.3006 76.9766 9.3006 77.5078 L 9.3006 81.3555 L 11.867 81.3555 L 11.867 77.5078 C 11.867 76.9766 12.2967 76.5469 12.8279 76.5469 C 13.3592 76.5469 13.7889 76.9766 13.7889 77.5078 L 13.7889 81.3555 L 16.3553 81.3555 L 16.3553 77.5078 C 16.3553 76.9766 16.785 76.5469 17.3162 76.5469 C 17.8475 76.5469 18.2772 76.9766 18.2772 77.5078 Z"
     id="path1"
     style="fill:#000000" />
  <path
     d="M 5.352 29.3984 L 29.293 29.3984 C 22.6289 23.0195 12.094 22.9375 5.352 29.3984 Z"
     id="path2"
     style="fill:#000000" />
  <path
     d="M 3.3945 34.8094 L 7.707 37.4344 L 12.0195 34.8094 C 12.3281 34.6219 12.7148 34.6219 13.0195 34.8094 L 17.332 37.4344 L 21.6445 34.8094 C 21.9531 34.6219 22.3398 34.6219 22.6445 34.8094 L 26.957 37.4344 L 31.2695 34.8094 C 31.5781 34.6219 31.9648 34.6219 32.2695 34.8094 L 33.4336 35.5165 C 32.832 34.0009 32.0195 32.5907 31.0352 31.3212 L 3.6172 31.3212 C 2.6172 32.6142 1.8125 34.0243 1.2188 35.5243 L 2.3946 34.8094 C 2.69929 34.6219 3.08601 34.6219 3.3946 34.8094 Z"
     id="path3"
     style="fill:#000000" />
  <path
     d="M 4.027 68.8484 L 30.625 68.8484 C 32.8438 68.8484 34.6484 67.0437 34.6484 64.825 L 34.6484 60.1883 C 34.6484 59.95 34.7421 59.6922 34.9296 59.5086 L 45.2736 49.1646 C 46.6252 47.813 46.6252 45.6216 45.2736 44.2701 C 43.9259 42.9224 41.7306 42.9224 40.3791 44.2701 L 33.4025 51.2467 C 33.0275 51.6217 32.4182 51.6217 32.0431 51.2467 C 31.6681 50.8717 31.6681 50.2624 32.0431 49.8873 L 34.6486 47.2818 L 34.6486 44.7466 L 31.7619 42.9888 C 27.2892 45.6568 27.4299 45.7544 26.9494 45.7544 C 26.469 45.7544 26.6252 45.6646 22.1369 42.9888 L 17.8244 45.6138 C 17.5159 45.8013 17.1291 45.8013 16.8244 45.6138 L 12.5119 42.9888 L 8.20335 45.6138 C 7.89476 45.8013 7.50804 45.8013 7.20335 45.6138 L 2.89085 42.9888 L 0.000247 44.7466 L 0.000247 64.8246 C 0.004153 67.0434 1.80885 68.848 4.02755 68.848 Z M 27.121 60.7625 C 26.746 60.3875 26.746 59.7781 27.121 59.4031 C 27.496 59.0281 28.1054 59.0281 28.4804 59.4031 L 29.2968 60.2195 L 30.1132 59.4031 C 30.4882 59.0281 31.0976 59.0281 31.4726 59.4031 C 31.8476 59.7781 31.8476 60.3875 31.4726 60.7625 L 30.6562 61.5789 L 31.4726 62.3953 C 31.8476 62.7703 31.8476 63.3797 31.4726 63.7547 C 31.2851 63.9422 31.039 64.036 30.7929 64.036 C 30.5468 64.036 30.3007 63.9422 30.1132 63.7547 L 29.2968 62.9383 L 28.4804 63.7547 C 28.2929 63.9422 28.0468 64.036 27.8007 64.036 C 26.9531 64.036 26.5116 63.0008 27.121 62.3915 L 27.9374 61.5751 Z M 19.1366 60.7625 C 18.7616 60.3875 18.7616 59.7781 19.1366 59.4031 C 19.5116 59.0281 20.121 59.0281 20.496 59.4031 L 21.3124 60.2195 L 22.1288 59.4031 C 22.5038 59.0281 23.1132 59.0281 23.4882 59.4031 C 23.8632 59.7781 23.8632 60.3875 23.4882 60.7625 L 22.6718 61.5789 L 23.4882 62.3953 C 23.8632 62.7703 23.8632 63.3797 23.4882 63.7547 C 23.1132 64.1298 22.5038 64.1297 22.1288 63.7547 L 21.3124 62.9383 L 20.496 63.7547 C 20.3085 63.9422 20.0624 64.036 19.8163 64.036 C 18.9686 64.036 18.5272 63.0008 19.1366 62.3915 L 19.953 61.5751 Z M 11.1561 60.7625 C 10.7811 60.3875 10.7811 59.7781 11.1561 59.4031 C 11.5311 59.0281 12.1405 59.0281 12.5155 59.4031 L 13.3319 60.2195 L 14.1483 59.4031 C 14.5233 59.0281 15.1327 59.0281 15.5077 59.4031 C 15.8827 59.7781 15.8827 60.3875 15.5077 60.7625 L 14.6913 61.5789 L 15.5077 62.3953 C 16.1171 63.0047 15.6757 64.0398 14.828 64.0398 C 14.5819 64.0398 14.3358 63.9461 14.1483 63.7586 L 13.3319 62.9422 L 12.5155 63.7586 C 12.1405 64.1336 11.5311 64.1336 11.1561 63.7586 C 10.7811 63.3836 10.7811 62.7742 11.1561 62.3992 L 11.9725 61.5828 Z M 3.1717 60.7625 C 2.7967 60.3875 2.7967 59.7781 3.1717 59.4031 C 3.5467 59.0281 4.15608 59.0281 4.5311 59.4031 L 5.34751 60.2195 L 6.16392 59.4031 C 6.53892 59.0281 7.1483 59.0281 7.52332 59.4031 C 7.89834 59.7781 7.89832 60.3875 7.52332 60.7625 L 6.70691 61.5789 L 7.52332 62.3953 C 8.1327 63.0047 7.69129 64.0398 6.84363 64.0398 C 6.59754 64.0398 6.35144 63.9461 6.16394 63.7586 L 5.34753 62.9422 L 4.53112 63.7586 C 4.34362 63.9461 4.09753 64.0398 3.85143 64.0398 C 3.00377 64.0398 2.56233 63.0046 3.17174 62.3953 L 3.98815 61.5789 Z"
     id="path4"
     style="fill:#000000" />
  <path
     d="M 58.371 11.1136 L 82.312 11.1136 C 75.5737 4.66052 65.039 4.73472 58.371 11.1136 Z"
     id="path5"
     style="fill:#000000" />
  <path
     d="M 83.637 52.4924 L 57.043 52.4924 C 54.8242 52.4924 53.0196 54.2971 53.0196 56.5158 L 53.0196 59.0549 C 53.0196 60.8791 54.2384 62.4182 55.9063 62.9104 L 55.9063 59.2268 C 55.9063 58.6956 56.336 58.2659 56.8672 58.2659 C 57.3985 58.2659 57.8282 58.6956 57.8282 59.2268 L 57.8282 63.0745 L 60.3946 63.0745 L 60.3946 59.2268 C 60.3946 58.6956 60.8243 58.2659 61.3555 58.2659 C 61.8868 58.2659 62.3165 58.6956 62.3165 59.2268 L 62.3165 63.0745 L 64.8829 63.0745 L 64.8829 59.2268 C 64.8829 58.6956 65.3126 58.2659 65.8438 58.2659 C 66.3751 58.2659 66.8047 58.6956 66.8047 59.2268 L 66.8047 63.0745 L 69.3711 63.0745 L 69.3711 59.2268 C 69.3711 58.6956 69.8008 58.2659 70.3321 58.2659 C 70.8633 58.2659 71.293 58.6956 71.293 59.2268 L 71.293 63.0745 L 73.8594 63.0745 L 73.8594 59.2268 C 73.8594 58.6956 74.2891 58.2659 74.8204 58.2659 C 75.3516 58.2659 75.7813 58.6956 75.7813 59.2268 L 75.7813 63.0745 L 78.3477 63.0745 L 78.3477 59.2268 C 78.3477 58.6956 78.7774 58.2659 79.3086 58.2659 C 79.8399 58.2659 80.2696 58.6956 80.2696 59.2268 L 80.2696 63.0745 L 82.836 63.0745 L 82.836 59.2268 C 82.836 58.6956 83.2657 58.2659 83.7969 58.2659 C 84.3282 58.2659 84.7579 58.6956 84.7579 59.2268 L 84.7579 62.9104 C 86.4259 62.4182 87.6446 60.8792 87.6446 59.0549 L 87.6446 56.5158 C 87.6602 54.297 85.8555 52.4924 83.6368 52.4924 Z"
     id="path6"
     style="fill:#000000" />
  <path
     d="M 3.3945 41.0434 L 7.707 43.6684 L 12.0195 41.0434 C 12.3281 40.8559 12.7148 40.8559 13.0195 41.0434 L 17.332 43.6684 L 21.6445 41.0434 C 21.9531 40.8559 22.3398 40.8559 22.6445 41.0434 L 26.957 43.6684 L 31.2695 41.0434 C 31.5781 40.8559 31.9648 40.8559 32.2695 41.0434 L 34.6523 42.4965 C 34.6367 42.1371 34.7421 40.5004 34.2695 38.2817 L 31.7695 36.7583 C 27.289 39.4302 27.4375 39.5239 26.957 39.5239 C 26.4804 39.5239 26.6367 39.4341 22.1445 36.7583 L 17.832 39.3833 C 17.5234 39.5708 17.1367 39.5708 16.832 39.3833 L 12.5195 36.7583 L 8.20699 39.3833 C 7.8984 39.5708 7.51168 39.5708 7.20699 39.3833 L 2.89449 36.7583 L 0.386687 38.2856 C 0.136687 39.4653 0.003877 40.6762 0.003877 41.9106 L 0.003877 42.5005 L 2.39058 41.0474 C 2.69917 40.856 3.08589 40.856 3.39448 41.0435 Z"
     id="path7"
     style="fill:#000000" />
  <path
     d="M 79.961 27.4734 C 79.4805 27.4734 79.6368 27.3836 75.1485 24.7078 L 70.836 27.3328 C 70.5274 27.5203 70.1407 27.5203 69.836 27.3328 L 65.5235 24.7078 L 61.211 27.3328 C 60.9024 27.5203 60.5157 27.5203 60.211 27.3328 L 55.8985 24.7078 L 53.0118 26.4656 L 53.0118 29.0008 L 55.6173 31.6063 C 55.9923 31.9813 55.9923 32.5907 55.6173 32.9657 C 55.2423 33.3407 54.6329 33.3407 54.2579 32.9657 L 47.2813 25.9891 C 45.9336 24.6414 43.7383 24.6414 42.3868 25.9891 C 41.0352 27.3407 41.0352 29.5321 42.3868 30.8836 L 52.7308 41.2276 C 52.9066 41.4034 53.012 41.6612 53.012 41.9073 L 53.012 46.544 C 53.012 48.7628 54.8167 50.5674 57.0354 50.5674 L 83.6334 50.5674 C 85.8522 50.5674 87.6569 48.7627 87.6569 46.544 L 87.6608 26.466 L 84.7702 24.7082 C 80.2975 27.3762 80.4421 27.4738 79.9616 27.4738 Z M 60.543 44.1144 C 60.918 44.4894 60.918 45.0988 60.543 45.4738 C 60.3555 45.6613 60.1094 45.7551 59.8633 45.7551 C 59.6172 45.7551 59.3711 45.6613 59.1836 45.4738 L 58.3672 44.6574 L 57.5508 45.4738 C 57.3633 45.6613 57.1172 45.7551 56.8711 45.7551 C 56.625 45.7551 56.3789 45.6613 56.1914 45.4738 C 55.8164 45.0988 55.8164 44.4894 56.1914 44.1144 L 57.0078 43.298 L 56.1914 42.4816 C 55.8164 42.1066 55.8164 41.4972 56.1914 41.1222 C 56.5664 40.7472 57.1758 40.7472 57.5508 41.1222 L 58.3672 41.9386 L 59.1836 41.1222 C 59.5586 40.7472 60.168 40.7472 60.543 41.1222 C 60.9181 41.4972 60.918 42.1066 60.543 42.4816 L 59.7266 43.298 Z M 68.5274 44.1144 C 68.9024 44.4894 68.9024 45.0988 68.5274 45.4738 C 68.3399 45.6613 68.0938 45.7551 67.8477 45.7551 C 67.6016 45.7551 67.3555 45.6613 67.168 45.4738 L 66.3516 44.6574 L 65.5352 45.4738 C 65.3477 45.6613 65.1016 45.7551 64.8555 45.7551 C 64.6094 45.7551 64.3633 45.6613 64.1758 45.4738 C 63.8008 45.0988 63.8008 44.4894 64.1758 44.1144 L 64.9922 43.298 L 64.1758 42.4816 C 63.8008 42.1066 63.8008 41.4972 64.1758 41.1222 C 64.5508 40.7472 65.1602 40.7472 65.5352 41.1222 L 66.3516 41.9386 L 67.168 41.1222 C 67.543 40.7472 68.1524 40.7472 68.5274 41.1222 C 68.9025 41.4972 68.9024 42.1066 68.5274 42.4816 L 67.711 43.298 Z M 76.5079 44.1144 C 76.8829 44.4894 76.8829 45.0988 76.5079 45.4738 C 76.3204 45.6613 76.0743 45.7551 75.8282 45.7551 C 75.5821 45.7551 75.336 45.6613 75.1485 45.4738 L 74.3321 44.6574 L 73.5157 45.4738 C 73.3282 45.6613 73.0821 45.7551 72.836 45.7551 C 72.5899 45.7551 72.3438 45.6613 72.1563 45.4738 C 71.7813 45.0988 71.7813 44.4894 72.1563 44.1144 L 72.9727 43.298 L 72.1563 42.4816 C 71.7813 42.1066 71.7813 41.4972 72.1563 41.1222 C 72.5313 40.7472 73.1407 40.7472 73.5157 41.1222 L 74.3321 41.9386 L 75.1485 41.1222 C 75.5235 40.7472 76.1329 40.7472 76.5079 41.1222 C 76.883 41.4972 76.8829 42.1066 76.5079 42.4816 L 75.6915 43.298 Z M 84.4923 44.1144 C 84.8673 44.4894 84.8673 45.0988 84.4923 45.4738 C 84.3048 45.6613 84.0587 45.7551 83.8126 45.7551 C 83.5665 45.7551 83.3204 45.6613 83.1329 45.4738 L 82.3165 44.6574 L 81.5001 45.4738 C 81.3126 45.6613 81.0665 45.7551 80.8204 45.7551 C 80.5743 45.7551 80.3282 45.6613 80.1407 45.4738 C 79.7657 45.0988 79.7657 44.4894 80.1407 44.1144 L 80.9571 43.298 L 80.1407 42.4816 C 79.7657 42.1066 79.7657 41.4972 80.1407 41.1222 C 80.5157 40.7472 81.1251 40.7472 81.5001 41.1222 L 82.3165 41.9386 L 83.1329 41.1222 C 83.5079 40.7472 84.1173 40.7472 84.4923 41.1222 C 84.8674 41.4972 84.8673 42.1066 84.4923 42.4816 L 83.6759 43.298 Z"
     id="path8"
     style="fill:#000000" />
  <path
     d="M 87.277 20.0004 L 84.7692 18.4731 C 80.2887 21.145 80.4372 21.2387 79.9567 21.2387 C 79.4801 21.2387 79.6364 21.1489 75.1442 18.4731 L 70.8317 21.0981 C 70.5231 21.2856 70.1364 21.2856 69.8317 21.0981 L 65.5192 18.4731 L 61.2067 21.0981 C 60.8981 21.2856 60.5114 21.2856 60.2067 21.0981 L 55.8942 18.4731 L 53.3942 19.9965 C 52.9176 22.2231 53.027 23.8598 53.0114 24.2113 L 55.3942 22.7582 C 55.7028 22.5707 56.0895 22.5707 56.3942 22.7582 L 60.7067 25.3832 L 65.0192 22.7582 C 65.3278 22.5707 65.7145 22.5707 66.0192 22.7582 L 70.3317 25.3832 L 74.6442 22.7582 C 74.9528 22.5707 75.3395 22.5707 75.6442 22.7582 L 79.9567 25.3832 L 84.2692 22.7582 C 84.5778 22.5707 84.9606 22.5707 85.2692 22.7582 L 87.6559 24.2113 L 87.6559 23.6215 C 87.6598 22.391 87.527 21.1801 87.277 20.0004 Z"
     id="path9"
     style="fill:#000000" />
  <path
     d="M 56.406 16.5274 L 60.7185 19.1524 L 65.031 16.5274 C 65.3396 16.3399 65.7263 16.3399 66.031 16.5274 L 70.3435 19.1524 L 74.656 16.5274 C 74.9646 16.3399 75.3513 16.3399 75.656 16.5274 L 79.9685 19.1524 L 84.281 16.5274 C 84.5896 16.3399 84.9763 16.3399 85.281 16.5274 L 86.4568 17.2423 C 85.8631 15.7423 85.0584 14.3321 84.0584 13.0392 L 56.6404 13.0392 C 55.656 14.3087 54.8435 15.7189 54.242 17.2345 L 55.4061 16.5274 C 55.7108 16.3399 56.0975 16.3399 56.4061 16.5274 Z"
     id="path10"
     style="fill:#000000" />
</svg>
