<?xml version="1.0" encoding="UTF-8" standalone="no"?>
<!-- Created with Inkscape (http://www.inkscape.org/) -->

<svg
   width="22.743"
   height="22.743"
   viewBox="0 0 22.743 22.743"
   version="1.1"
   id="svg1"
   inkscape:version="1.4.2 (ebf0e940d0, 2025-05-08)"
   sodipodi:docname="workbench.svg"
   xmlns:inkscape="http://www.inkscape.org/namespaces/inkscape"
   xmlns:sodipodi="http://sodipodi.sourceforge.net/DTD/sodipodi-0.dtd"
   xmlns="http://www.w3.org/2000/svg"
   xmlns:svg="http://www.w3.org/2000/svg">
  <sodipodi:namedview
     id="namedview1"
     pagecolor="#ffffff"
     bordercolor="#000000"
     borderopacity="0.25"
     inkscape:showpageshadow="2"
     inkscape:pageopacity="0.0"
     inkscape:pagecheckerboard="0"
     inkscape:deskcolor="#d1d1d1"
     inkscape:document-units="px"
     inkscape:zoom="11.620915"
     inkscape:cx="25.084083"
     inkscape:cy="7.7016311"
     inkscape:window-width="2256"
     inkscape:window-height="1427"
     inkscape:window-x="0"
     inkscape:window-y="0"
     inkscape:window-maximized="1"
     inkscape:current-layer="svg1" />
  <defs
     id="defs1" />
  <path
     d="M 15.158024,11.740068 C 15.467057,11.740068 15.708894,11.982956 15.708894,12.290939 15.709926,12.599972 15.455672,12.842843 15.158024,12.842843 H 14.617488 C 14.308455,12.842843 14.066617,12.599955 14.066617,12.291972 14.066617,11.982939 14.309505,11.741102 14.617488,11.741102 Z"
     style="fill:#000000"
     id="path5" />
  <path
     d="M 15.158024,14.992583 C 15.467057,14.992583 15.708894,15.235471 15.708894,15.543453 15.709926,15.852487 15.455672,16.095358 15.158024,16.095358 H 14.617488 C 14.308455,16.095358 14.066617,15.85247 14.066617,15.544487 14.066617,15.235454 14.309505,14.993616 14.617488,14.993616 Z"
     style="fill:#000000"
     id="path4" />
  <path
     id="path6-5"
     style="fill:#000000"
     d="M 7.6049299,2.855627 C 7.9139629,2.855627 8.1557999,3.0985148 8.1557999,3.4064978 V 7.1768103 C 1.1546839,7.1520925 8.1469889,7.1755869 1.1557099,7.1437374 V 3.4064978 C 1.1557099,3.0974644 1.3985979,2.855627 1.7065809,2.855627 H 3.6750109 Z M 7.0530249,3.9584021 H 6.1931289 V 7.1334021 H 7.0530249 Z M 5.0800189,3.9584021 H 4.2201229 V 7.1334021 H 5.0800189 Z M 3.1173479,3.9584021 H 2.2574519 V 7.1334021 H 3.1173479 Z" />
  <path
     d="M 22.412361,7.0767863 C 22.610799,7.1656704 22.74309,7.3641072 22.74309,7.5956177 V 10.671399 C 22.74309,10.980433 22.500203,11.22227 22.19222,11.22227 H 21.122518 V 19.336503 C 21.122518,19.645536 20.87963,19.887373 20.571647,19.887373 H 18.410538 C 18.101505,19.887373 17.859668,19.644486 17.859668,19.336503 V 17.715931 H 11.366007 C 11.056973,17.715931 10.815136,17.473043 10.815136,17.16506 V 11.211935 H 4.8837159 V 19.326167 C 4.8837159,19.635201 4.6408279,19.877038 4.3328449,19.877038 H 2.1717369 C 1.8627039,19.877038 1.6208659,19.63415 1.6208659,19.326167 V 11.211935 H 0.55116394 C 0.24213094,11.211935 2.9293765e-4,10.969047 2.9293765e-4,10.661064 V 7.5956177 C -0.01107606,7.2865843 0.23179394,7.0437134 0.53979494,7.0437134 H 15.412272 C 22.40355,7.0755629 15.411245,7.0520685 22.412361,7.0767863 Z M 17.848299,11.210901 H 11.916877 V 13.360641 H 17.848299 Z M 17.848299,14.463416 H 11.916877 V 16.613156 H 17.848299 Z"
     style="fill:#000000"
     id="path13" />
</svg>
