<?xml version="1.0" encoding="UTF-8" standalone="no"?>
<!-- Created with Inkscape (http://www.inkscape.org/) -->

<svg
   width="488.017"
   height="488.017"
   viewBox="0 0 488.01699 488.017"
   version="1.1"
   id="svg1"
   inkscape:version="1.4.2 (ebf0e940d0, 2025-05-08)"
   sodipodi:docname="wrap.svg"
   xmlns:inkscape="http://www.inkscape.org/namespaces/inkscape"
   xmlns:sodipodi="http://sodipodi.sourceforge.net/DTD/sodipodi-0.dtd"
   xmlns="http://www.w3.org/2000/svg"
   xmlns:svg="http://www.w3.org/2000/svg">
  <sodipodi:namedview
     id="namedview1"
     pagecolor="#ffffff"
     bordercolor="#000000"
     borderopacity="0.25"
     inkscape:showpageshadow="2"
     inkscape:pageopacity="0.0"
     inkscape:pagecheckerboard="0"
     inkscape:deskcolor="#d1d1d1"
     inkscape:document-units="px"
     inkscape:zoom="1.9261624"
     inkscape:cx="244.0085"
     inkscape:cy="243.74892"
     inkscape:window-width="2256"
     inkscape:window-height="1427"
     inkscape:window-x="0"
     inkscape:window-y="0"
     inkscape:window-maximized="1"
     inkscape:current-layer="svg1" />
  <defs
     id="defs1" />
  <path
     d="M 115.013 450.96 C 108.263 448.04 102.413 445.46 97.9035 443.41 C 82.0935 436.22 68.3235 432.58 56.9935 432.58 C 52.3735 432.58 47.5635 433.23 43.9735 434.78 C 41.3535 435.92 40.8335 439.44 42.9535 441.37 C 53.6035 451.08 69.6135 461.02 88.0835 462.17 C 96.0335 462.67 105.873 460.12 114.943 456.5 C 117.423 455.51 117.463 452.01 115.013 450.95 Z"
     id="path1"
     style="fill:#000000" />
  <path
     d="M 399.923 462.17 C 418.384 461.01 434.404 451.08 445.043 441.37 C 447.154 439.44 446.644 435.92 444.024 434.78 C 440.443 433.23 435.634 432.58 431.003 432.58 C 419.663 432.58 405.904 436.22 390.094 443.41 C 385.574 445.46 379.733 448.04 372.983 450.96 C 370.534 452.02 370.573 455.52 373.053 456.51 C 382.123 460.13 391.964 462.67 399.913 462.18 Z"
     id="path2"
     style="fill:#000000" />
  <path
     d="M 37.3335 424.62 C 46.1335 420.23 66.0435 415.75 102.863 432.49 C 127.533 443.7 193.243 471 225.543 484.35 C 237.363 489.24 250.624 489.24 262.453 484.35 C 294.754 470.99 360.464 443.7 385.134 432.49 C 421.954 415.75 441.863 420.24 450.673 424.63 C 454.303 426.44 458.613 424.29 459.324 420.3 C 460.134 415.8 460.024 410.62 459.134 404.93 C 458.793 402.78 457.293 400.99 455.243 400.25 C 439.584 394.61 413.884 392.85 375.134 410.47 C 350.923 421.47 285.464 448.67 253.244 461.99 C 247.334 464.43 240.694 464.43 234.784 461.99 C 202.553 448.67 137.093 421.47 112.893 410.47 C 74.1435 392.85 48.4335 394.61 32.7735 400.25 C 30.7235 400.99 29.2235 402.77 28.8835 404.92 C 27.9935 410.61 27.8835 415.79 28.6935 420.29 C 29.4035 424.28 33.7135 426.43 37.3435 424.62 Z"
     id="path3"
     style="fill:#000000" />
  <path
     d="M 202.093 285.18 C 303.474 242.61 322.673 243.19 365.384 188.98 C 371.714 180.94 372.293 169.79 366.844 161.14 C 348.764 132.42 303.563 71.59 244.004 71.59 C 184.443 71.59 139.253 132.4 121.173 161.13 C 115.683 169.86 116.263 181.12 122.693 189.17 C 136.213 206.09 160.163 232.12 192.913 247.73 C 194.423 248.45 196.173 248.48 197.723 247.85 L 221.194 238.27 C 223.853 237.19 223.613 233.37 220.844 232.59 C 192.303 224.54 168.333 203.58 154.443 189.1 C 146.323 180.64 145.403 167.58 152.343 158.12 C 169.173 135.17 203.903 95.79 244.004 95.79 C 284.103 95.79 319.053 135.42 335.823 158.34 C 342.744 167.8 341.833 180.82 333.774 189.33 C 315.274 208.87 293.433 221.93 274.163 229.65 C 274.134 229.66 274.103 229.68 274.063 229.7 C 273.323 230 199.453 260.03 192.433 263 C 180.353 268.26 172.053 279.67 170.793 292.78 C 166.133 341 165.503 365.61 169.353 418.16 C 169.513 420.41 170.923 422.38 173.003 423.26 L 185.643 428.56 C 189.783 430.29 194.283 427.04 193.943 422.57 C 189.663 366.92 190.143 344.05 194.873 295.11 C 195.293 290.74 198.063 286.94 202.093 285.19 Z"
     id="path4"
     style="fill:#000000" />
  <path
     d="M 38.7335 386.14 C 44.4435 384.94 50.4635 384.33 56.7735 384.33 C 88.7935 384.33 112.313 397.51 152.703 414.67 C 154.763 415.55 157.023 413.93 156.873 411.69 C 153.633 364.47 154.283 338.87 158.853 291.61 C 160.023 279.48 165.713 268.44 174.483 260.49 C 177.483 257.77 177.033 252.97 173.563 250.88 C 152.153 238.02 131.733 219.69 113.313 196.65 C 103.713 184.64 102.773 167.81 110.973 154.78 C 130.803 123.27 178.763 59.58 244.004 59.58 C 309.244 59.58 357.163 123.22 376.993 154.73 C 385.134 167.67 384.253 184.42 374.803 196.42 C 330.333 252.85 308.923 253.52 210.193 294.8 C 208.153 295.65 206.743 297.57 206.533 299.77 C 201.783 349.33 201.753 371.25 206.843 433.36 C 207.053 435.92 208.683 438.17 211.053 439.15 L 239.274 450.85 C 239.444 450.92 243.654 452.95 248.643 450.88 C 276.983 439.16 345.553 410.71 370.154 399.52 C 394.543 388.43 423.034 380.61 449.264 386.13 C 451.594 386.62 453.514 384.34 452.663 382.12 C 438.514 345.36 405.813 298.73 376.034 267.38 C 373.974 265.21 370.634 264.9 368.203 266.64 C 365.113 268.85 357.693 274.18 336.524 289.7 C 333.853 291.65 330.103 291.09 328.134 288.4 C 326.173 285.73 326.754 281.98 329.423 280.02 C 356.363 260.28 384.144 244.01 424.993 190.36 C 436.954 174.65 438.224 153.25 428.094 136.31 C 397.784 85.65 337.173 0 243.993 0 C 150.813 0 89.7935 86.12 59.9835 136.04 C 49.8135 153.08 50.9835 174.6 63.0035 190.38 C 96.0835 233.79 118.453 250.14 139.943 267.63 C 142.513 269.72 142.903 273.5 140.813 276.07 C 139.053 278.23 135.313 279.33 132.373 276.94 C 128.513 273.79 124.303 270.44 120.033 266.96 C 117.603 264.98 114.053 265.19 111.893 267.46 C 82.1335 298.8 49.4835 345.39 35.3435 382.12 C 34.4935 384.34 36.4135 386.63 38.7435 386.14 Z M 241.844 331.77 C 235.163 331.77 229.743 326.35 229.743 319.67 C 229.743 312.99 235.163 307.57 241.844 307.57 C 248.524 307.57 253.944 312.99 253.944 319.67 C 253.944 326.35 248.524 331.77 241.844 331.77 Z"
     id="path5"
     style="fill:#000000" />
  <path
     style="fill:#000000;paint-order:stroke fill markers;stroke:#000000;stroke-linecap:round;stroke-linejoin:round;stroke-miterlimit:3.9;stroke-width:0.0"
     d="M 221.97 307.24 L 225.099 331.648 L 258.588 347.143 L 262.21 292.361 Z"
     id="path6" />
</svg>
