<?xml version="1.0" encoding="UTF-8"?>
<svg xmlns="http://www.w3.org/2000/svg" xmlns:xlink="http://www.w3.org/1999/xlink"
     width="337.5" height="425.0" viewBox="0 0 337.5 425.0">
<defs>
</defs>
<rect x="0" y="0" width="337.5" height="425.0" fill="white" />
<g id="import" transform="translate(3.125, 3.125) scale(1.9244092063736433)">
<path d="M2.43402,10.4241 C2.43402,10.2654,2.30173,10.1066,2.11652,10.1066 L0.317357,10.1066 C0.158607,10.1066,-0.0001423,10.2389,-0.0001423,10.4241 L-0.0001423,23.9179 C-0.0001423,24.0766,0.132149,24.2354,0.317357,24.2354 L2.11652,24.2354 C2.27527,24.2354,2.43402,24.1031,2.43402,23.9179 L2.43402,21.272 L23.5477,21.272 L23.5477,23.9179 C23.5477,24.0766,23.68,24.2354,23.8652,24.2354 L25.6644,24.2354 C25.8232,24.2354,25.9819,24.1031,25.9819,23.9179 L25.9819,18.8643 L2.46048,18.8643 L2.46048,10.4241 Z" fill="black" stroke="none" stroke-width="0" opacity="1.0" />
<path d="M23.389,14.5252 L11.959,12.0645 C10.9536,11.8529,10.0276,12.6202,10.0276,13.6256 L10.0276,17.8589 L25.9554,17.8589 L25.9554,17.7002 C25.9554,16.1656,24.8971,14.8427,23.389,14.5252 Z" fill="black" stroke="none" stroke-width="0" opacity="1.0" />
<path d="M6.11172,10.186 L8.9163,10.186 C9.0486,10.186,9.15443,10.0802,9.15443,9.94788 L9.15443,9.10121 C9.15443,8.96892,9.0486,8.86309,8.9163,8.86309 L7.59339,8.86309 L9.0486,6.13788 C9.20735,5.84684,8.99568,5.52934,8.67818,5.52934 L6.08527,5.52934 C5.95298,5.52934,5.84714,5.63518,5.84714,5.76747 L5.84714,6.61413 C5.84714,6.74642,5.95298,6.85226,6.08527,6.85226 L7.22297,6.85226 L5.76777,9.57746 C5.58256,9.84205,5.79423,10.186,6.11172,10.186 Z" fill="black" stroke="none" stroke-width="0" opacity="1.0" />
<path d="M10.8742,7.51371 L13.1761,7.51371 C13.3084,7.51371,13.4142,7.40788,13.4142,7.27559 L13.4142,6.66705 C13.4142,6.53476,13.3084,6.42892,13.1761,6.42892 L12.1178,6.42892 L13.3348,4.17997 C13.4671,3.94184,13.2819,3.67726,13.0173,3.67726 L10.9007,3.67726 C10.7684,3.67726,10.6626,3.78309,10.6626,3.91539 L10.6626,4.52393 C10.6626,4.65622,10.7684,4.76205,10.9007,4.76205 L11.8003,4.76205 L10.5832,7.01101 C10.4244,7.22267,10.6096,7.51371,10.8742,7.51371 Z" fill="black" stroke="none" stroke-width="0" opacity="1.0" />
<path d="M15.0282,4.84143 L16.8273,4.84143 C16.9596,4.84143,17.0655,4.73559,17.0655,4.6033 L17.0655,4.20643 C17.0655,4.07414,16.9596,3.9683,16.8273,3.9683 L16.0071,3.9683 L16.9861,2.16914 C17.0919,1.98393,16.9596,1.74581,16.748,1.74581 L15.0811,1.74581 C14.9488,1.74581,14.843,1.85164,14.843,1.98393 L14.843,2.3808 C14.843,2.5131,14.9488,2.61893,15.0811,2.61893 L15.7425,2.61893 L14.7636,4.41809 C14.6842,4.6033,14.8165,4.84143,15.0282,4.84143 Z" fill="black" stroke="none" stroke-width="0" opacity="1.0" />
</g>
<text x="28.125" y="64.93055555555556" font-size="16.666666666666664" font-family="Arial" text-anchor="middle" fill="black">bed</text>
<text x="28.125" y="81.59722222222223" font-size="15.0" font-family="Courier New" text-anchor="middle" fill="black">"bed"</text>
<g id="import" transform="translate(59.375, 3.125) scale(6.749460043196544)">
<path d="M105.59506,148.10189 A1.0583333,1.0583333,0.0,0,0,104.3972,148.65671 L103.99504,149.46104 A0.52910316,0.52910316,0.0,0,1,103.52175,149.75353 H102.129 A0.26455423,0.26455423,0.0,0,1,101.86441,149.48895 V147.3723 H101.33525 V152.1348 H101.86441 V150.28272 H108.21441 V152.1348 H108.74358 V149.70218 A1.0584286,1.0584286,0.0,0,0,107.93652,148.67408 Z" fill="black" stroke="none" stroke-width="0.264583" transform="translate(-101.33525,-144.72735)" opacity="1.0" />
<path d="M104.94549,147.2418 A0.21260064,0.21260064,0.0,0,0,105.25238,147.2418 L106.36627,146.1305 A0.86801059,0.86801059,0.0,0,0,106.62557,145.57492 A0.82486234,0.82486234,0.0,0,0,106.38482,144.94253 C106.36628,144.92405,106.34774,144.90816,106.32661,144.88961 A0.7641537,0.7641537,0.0,0,0,105.30794,144.96105 L105.19419,145.07482 A0.13404056,0.13404056,0.0,0,1,105.00369,145.07482 L104.88988,144.96106 A0.76120624,0.76120624,0.0,0,0,103.87127,144.88963 C103.85008,144.90817,103.83154,144.92406,103.81306,144.94254 A0.82468507,0.82468507,0.0,0,0,103.57225,145.57494 A0.86833868,0.86833868,0.0,0,0,103.83154,146.13052 Z" fill="black" stroke="none" stroke-width="0.264583" transform="translate(-101.33525,-144.72735)" opacity="1.0" />
</g>
<text x="84.375" y="64.93055555555556" font-size="5.769230769230769" font-family="Arial" text-anchor="middle" fill="black">bear hide bed</text>
<text x="84.375" y="81.59722222222223" font-size="8.333333333333332" font-family="Courier New" text-anchor="middle" fill="black">"bearbed"</text>
<g id="import" transform="translate(115.625, 3.125) scale(2.1984786527722817)">
<path d="M15.158024,11.740068 C15.467057,11.740068,15.708894,11.982956,15.708894,12.290939 C15.709926,12.599972,15.455672,12.842843,15.158024,12.842843 H14.617488 C14.308455,12.842843,14.066617,12.599955,14.066617,12.291972 C14.066617,11.982939,14.309505,11.741102,14.617488,11.741102 Z" fill="black" stroke="none" stroke-width="0" opacity="1.0" />
<path d="M15.158024,14.992583 C15.467057,14.992583,15.708894,15.235471,15.708894,15.543453 C15.709926,15.852487,15.455672,16.095358,15.158024,16.095358 H14.617488 C14.308455,16.095358,14.066617,15.85247,14.066617,15.544487 C14.066617,15.235454,14.309505,14.993616,14.617488,14.993616 Z" fill="black" stroke="none" stroke-width="0" opacity="1.0" />
<path d="M7.6049299,2.855627 C7.9139629,2.855627,8.1557999,3.0985148,8.1557999,3.4064978 V7.1768103 C1.1546839,7.1520925,8.1469889,7.1755869,1.1557099,7.1437374 V3.4064978 C1.1557099,3.0974644,1.3985979,2.855627,1.7065809,2.855627 H3.6750109 Z M7.0530249,3.9584021 H6.1931289 V7.1334021 H7.0530249 Z M5.0800189,3.9584021 H4.2201229 V7.1334021 H5.0800189 Z M3.1173479,3.9584021 H2.2574519 V7.1334021 H3.1173479 Z" fill="black" stroke="none" stroke-width="0" opacity="1.0" />
<path d="M22.412361,7.0767863 C22.610799,7.1656704,22.74309,7.3641072,22.74309,7.5956177 V10.671399 C22.74309,10.980433,22.500203,11.22227,22.19222,11.22227 H21.122518 V19.336503 C21.122518,19.645536,20.87963,19.887373,20.571647,19.887373 H18.410538 C18.101505,19.887373,17.859668,19.644486,17.859668,19.336503 V17.715931 H11.366007 C11.056973,17.715931,10.815136,17.473043,10.815136,17.16506 V11.211935 H4.8837159 V19.326167 C4.8837159,19.635201,4.6408279,19.877038,4.3328449,19.877038 H2.1717369 C1.8627039,19.877038,1.6208659,19.63415,1.6208659,19.326167 V11.211935 H0.55116394 C0.24213094,11.211935,0.00029293765,10.969047,0.00029293765,10.661064 V7.5956177 C-0.01107606,7.2865843,0.23179394,7.0437134,0.53979494,7.0437134 H15.412272 C22.40355,7.0755629,15.411245,7.0520685,22.412361,7.0767863 Z M17.848299,11.210901 H11.916877 V13.360641 H17.848299 Z M17.848299,14.463416 H11.916877 V16.613156 H17.848299 Z" fill="black" stroke="none" stroke-width="0" opacity="1.0" />
</g>
<text x="140.625" y="64.93055555555556" font-size="8.333333333333332" font-family="Arial" text-anchor="middle" fill="black">workbench</text>
<text x="140.625" y="81.59722222222223" font-size="6.818181818181818" font-family="Courier New" text-anchor="middle" fill="black">"workbench"</text>
<g id="import" transform="translate(171.875, 3.125) scale(1.0416666666666667)">
<path d="M47.6963,11.7592 C47.5054,11.5683,47.2538,11.4642,46.9848,11.4642 L45.9393,11.4642 L45.9393,10.0673 C45.9393,9.51195,45.4881,9.06075,44.9328,9.06075 C44.3774,9.06075,43.9263,9.51195,43.9263,10.0673 L43.9263,11.4642 L41.3059,11.4642 L41.3059,10.4057 C41.3059,9.73755,40.7636,9.19525,40.0954,9.19525 L31.3839,9.19525 L31.3839,6.56184 C31.3839,5.76791,30.7375,5.12149,29.9436,5.12149 C29.1497,5.12149,28.5032,5.76791,28.5032,6.56184 L28.5032,9.19525 L18.9978,9.19525 L18.9978,6.56184 C18.9978,5.76791,18.3514,5.12149,17.5575,5.12149 C16.7635,5.12149,16.1171,5.76791,16.1171,6.56184 L16.1171,9.19525 L1.21038,9.19525 C0.542262,9.19525,-3.77494e-05,9.73755,-3.77494e-05,10.4057 L-3.77494e-05,14.5315 C-3.77494e-05,15.1996,0.542262,15.7419,1.21038,15.7419 L8.59433,15.7419 L8.59433,41.0001 C8.59433,42.0369,9.43598,42.8786,10.4729,42.8786 C11.5097,42.8786,12.3514,42.0369,12.3514,41.0001 L12.3514,33.1996 L35.1584,33.1996 L35.1584,41.0001 C35.1584,42.0369,36.0,42.8786,37.0369,42.8786 C38.0738,42.8786,38.9154,42.0369,38.9154,41.0001 L38.9154,15.7419 L40.1041,15.7419 C40.7722,15.7419,41.3145,15.1996,41.3145,14.5315 L41.3145,13.4729 L43.9349,13.4729 L43.9349,22.5749 C43.9349,23.1302,44.3861,23.5814,44.9414,23.5814 C45.4968,23.5814,45.9479,23.1302,45.9479,22.5749 L45.9479,13.4729 L46.9935,13.4729 C47.5488,13.4729,48.0,13.0217,48.0,12.4664 C47.9913,12.2018,47.8872,11.9501,47.6963,11.7592 Z M12.3514,31.4556 L12.3514,15.7419 L35.1584,15.7419 L35.1584,31.4556 Z" fill="black" stroke="none" stroke-width="0.04338393909300001" opacity="1.0" />
</g>
<text x="196.875" y="64.93055555555556" font-size="3.947368421052632" font-family="Arial" text-anchor="middle" fill="black">furniture workbench</text>
<text x="196.875" y="81.59722222222223" font-size="6.818181818181818" font-family="Courier New" text-anchor="middle" fill="black">"furnbench"</text>
<g id="import" transform="translate(228.125, 3.125) scale(2.1581492644228795)">
<path d="M19.4063,10.8965 L3.35036,10.8965 C2.71981,10.9949,2.98365,11.7406,2.92763,12.1867 C2.84918,12.6627,2.99952,13.1828,3.55693,13.2123 C4.62139,13.5791,5.74866,13.791,6.7559,14.3012 C7.77472,14.9019,8.43083,16.0604,8.41991,17.2433 L14.3347,17.2433 C14.2982,15.6146,15.5696,14.1597,17.1442,13.844 C17.977,13.5727,18.8313,13.3552,19.6508,13.0502 C19.9771,12.6588,19.7671,12.0848,19.8269,11.6074 C19.8504,11.3004,19.8087,10.8965,19.4063,10.8965 Z" fill="black" stroke="none" stroke-width="0.264583" opacity="1.0" />
<path d="M14.3359,19.7788 L8.4211,19.7788 C7.73019,20.7196,6.99961,21.6349,6.3336,22.5917 C6.18036,23.2659,6.99983,23.1656,7.42522,23.1585 C10.3331,23.1468,13.2442,23.1819,16.1499,23.1409 C16.7811,22.8591,16.2094,22.2634,15.9484,21.9274 C15.4108,21.2115,14.8743,20.4932,14.3359,19.7788 Z" fill="black" stroke="none" stroke-width="0.264583" opacity="1.0" />
<path d="M10.5243,5.92206 C11.2874,5.90241,12.0585,5.96264,12.8164,5.88958 C13.2494,5.58592,13.0041,4.98003,13.0688,4.52553 L13.0688,0.00716 C12.6265,0.03544,12.1375,-0.04879,11.7236,0.04805 C11.186,0.58564,10.6484,1.12322,10.1109,1.66081 C10.132,2.99604,10.0682,4.33975,10.1433,5.6696 C10.2049,5.81979,10.3615,5.92453,10.5243,5.92206 Z" fill="black" stroke="none" stroke-width="0.264583" opacity="1.0" />
<path d="M8.32691,6.5298 C8.97784,7.22162,9.30398,6.08565,8.80724,5.64255 C8.69536,4.81462,7.45285,5.123,8.00658,5.89128 C8.11356,6.10378,8.21895,6.31888,8.32691,6.5298 Z" fill="black" stroke="none" stroke-width="0.264583" opacity="1.0" />
<path d="M6.63199,7.13041 C7.07592,7.20607,7.59064,7.65653,7.98965,7.28512 C8.31872,6.63819,7.43595,6.55379,7.02147,6.38861 C6.48084,6.08686,6.03733,6.87826,6.63199,7.13041 Z" fill="black" stroke="none" stroke-width="0.264583" opacity="1.0" />
<path d="M15.0894,5.13042 C14.4881,4.94273,14.395,5.72194,14.1464,6.09129 C13.8129,6.97046,15.0101,6.83765,15.0575,6.11706 C15.2018,5.80762,15.5362,5.37455,15.0894,5.13042 Z" fill="black" stroke="none" stroke-width="0.264583" opacity="1.0" />
<path d="M15.1285,7.16745 C15.3957,7.71937,16.0031,7.25915,16.4196,7.17291 C17.3347,6.85723,16.4338,5.9968,15.8472,6.49208 C15.5295,6.60557,14.9815,6.68357,15.1285,7.16745 Z" fill="black" stroke="none" stroke-width="0.264583" opacity="1.0" />
<path d="M17.7164,8.78405 C17.6157,8.16233,16.877,8.42799,16.4356,8.37064 L5.45472,8.37064 C4.833,8.47137,5.09866,9.21011,5.04131,9.6515 C4.87611,10.1682,5.31189,10.0839,5.67744,10.0698 L17.7164,10.0698 L17.7164,8.78405 Z" fill="black" stroke="none" stroke-width="0.264583" opacity="1.0" />
<path d="M8.84364,18.0704 L13.9141,18.0704 C13.8244,18.3323,14.1102,18.9698,13.7406,18.952 L8.84364,18.952 L8.84364,18.0704 Z" fill="black" stroke="none" stroke-width="0.264583" opacity="1.0" />
<path d="M19.8373,2.11973 L13.8945,2.11973 L13.8945,3.80954 L19.8373,3.80954 C20.4579,3.70998,20.194,2.97325,20.2507,2.53314 C20.2564,2.31168,20.0588,2.11411,19.8373,2.11973 Z" fill="black" stroke="none" stroke-width="0.264583" opacity="1.0" />
</g>
<text x="253.125" y="64.93055555555556" font-size="15.0" font-family="Arial" text-anchor="middle" fill="black">forge</text>
<text x="253.125" y="81.59722222222223" font-size="10.714285714285715" font-family="Courier New" text-anchor="middle" fill="black">"forge"</text>
<g id="import" transform="translate(284.375, 3.125) scale(2.0638982910922152)">
<path d="M7.859718,3.399386 V4.696456 H5.421628 V3.399386 Z M5.302758,9.682186 C5.370968,9.682186,5.434008,9.655286,5.482588,9.607786 C5.581808,9.508586,5.581808,9.348376,5.482588,9.249146 L4.811818,8.578376 C4.764278,8.530776,4.700198,8.503976,4.631988,8.503976 C4.563768,8.503976,4.500728,8.530876,4.452148,8.578376 C4.352928,8.677576,4.352928,8.837786,4.452148,8.937016 L5.122918,9.607786 C5.170458,9.655286,5.234548,9.682186,5.302758,9.682186 Z M7.979548,9.682186 C8.047758,9.682186,8.110798,9.655286,8.159378,9.607786 L8.830148,8.937016 C8.929368,8.837816,8.929368,8.677596,8.830148,8.578376 C8.782608,8.530776,8.718528,8.503976,8.650318,8.503976 C8.582108,8.503976,8.519058,8.530876,8.470478,8.578376 L7.799708,9.249146 C7.700488,9.348346,7.700488,9.508566,7.799708,9.607786 C7.847248,9.655286,7.911328,9.682186,7.979548,9.682186 Z M3.799918,10.513166 C3.660398,10.513166,3.545678,10.626866,3.545678,10.767366 C3.545678,10.906866,3.659358,11.021666,3.799918,11.021666 H4.747658 C4.887188,11.021666,5.001908,10.907966,5.001908,10.767366 C5.001908,10.627866,4.888218,10.513166,4.747658,10.513166 Z M4.279478,2.891806 H13.021098 C13.090298,2.891806,13.157498,2.920746,13.204998,2.970356 L14.661298,4.501026 H21.014398 C21.394798,4.501026,21.703798,4.191996,21.703798,3.811656 V0.689306 C21.703798,0.308968,21.394798,-6.6e-05,21.014398,-6.6e-05 H4.279538 C3.817548,-6.6e-05,3.442368,0.375113,3.442368,0.837102 V2.053576 C3.442368,2.515566,3.817548,2.890746,4.279538,2.890746 Z M19.557098,14.747566 V5.008476 H16.457498 V14.747566 Z M6.641148,11.112666 C6.781708,11.112666,6.895398,10.998966,6.895398,10.858466 V8.033736 H7.073168 C7.210628,8.033736,7.322248,7.922116,7.322248,7.784656 V6.393526 H5.961098 V7.784656 C5.961098,7.922116,6.072718,8.033736,6.210178,8.033736 H6.387948 V10.858466 C6.387948,10.998966,6.501638,11.112666,6.642198,11.112666 Z M9.012058,5.546106 C9.012058,5.358006,8.859098,5.205036,8.670978,5.205036 H4.610158 C4.422048,5.205036,4.269078,5.357996,4.269078,5.546106 C4.269078,5.734216,4.422048,5.887186,4.610158,5.887186 H8.670978 C8.859088,5.887186,9.012058,5.734226,9.012058,5.546106 Z M6.641148,22.946666 C7.566158,22.946666,8.319608,22.193266,8.319608,21.268266 C8.319608,20.343266,7.566158,19.589766,6.641148,19.589766 C5.716138,19.589766,4.962688,20.343266,4.962688,21.268266 C4.962688,22.193266,5.716138,22.946666,6.641148,22.946666 Z M14.045298,21.717866 C14.293298,21.717866,14.494798,21.516266,14.494798,21.268266 C14.494798,21.020266,14.293298,20.818666,14.045298,20.818666 C13.797198,20.818666,13.595698,21.020266,13.595698,21.268266 C13.595698,21.516266,13.797198,21.717866,14.045298,21.717866 Z M2.869778,18.207866 H21.358598 V24.225066 L2.869778,24.226066 Z M18.191798,21.268066 C18.191798,21.795166,18.620698,22.225066,19.148898,22.225066 C19.675998,22.225066,20.105898,21.796166,20.105898,21.268066 C20.105898,20.740966,19.676998,20.310966,19.148898,20.310966 C18.621698,20.310966,18.191798,20.739966,18.191798,21.268066 Z M15.639998,21.268066 C15.639998,21.795166,16.068898,22.225066,16.597098,22.225066 C17.124198,22.225066,17.554098,21.796166,17.554098,21.268066 C17.554098,20.740966,17.125198,20.310966,16.597098,20.310966 C16.069998,20.310966,15.639998,20.739966,15.639998,21.268066 Z M13.088298,21.268066 C13.088298,21.795166,13.517198,22.225066,14.045298,22.225066 C14.572398,22.225066,15.002398,21.796166,15.002398,21.268066 C15.002398,20.740966,14.573398,20.310966,14.045298,20.310966 C13.518198,20.310966,13.088298,20.739966,13.088298,21.268066 Z M4.455158,21.268066 C4.455158,22.473166,5.435978,23.453966,6.641068,23.453966 C7.846168,23.453966,8.826978,22.473166,8.826978,21.268066 C8.826978,20.062966,7.846168,19.082166,6.641068,19.082166 C5.435978,19.082166,4.455158,20.062966,4.455158,21.268066 Z M8.534508,11.020766 H9.482248 C9.621768,11.020766,9.736498,10.907066,9.736498,10.766466 C9.736498,10.626966,9.622808,10.512266,9.482248,10.512266 H8.534508 C8.394978,10.512266,8.280258,10.625966,8.280258,10.766466 C8.280258,10.906066,8.393948,11.020766,8.534508,11.020766 Z M0.648602,15.255166 V17.700466 H23.577398 V15.255166 Z M10.196398,12.029566 H3.085678 V14.747666 H10.196398 Z M19.148798,21.717866 C19.396798,21.717866,19.598398,21.516266,19.598398,21.268266 C19.598398,21.020266,19.396798,20.818666,19.148798,20.818666 C18.900798,20.818666,18.699198,21.020266,18.699198,21.268266 C18.699198,21.516266,18.900798,21.717866,19.148798,21.717866 Z M16.596998,21.717866 C16.845098,21.717866,17.046598,21.516266,17.046598,21.268266 C17.046598,21.020266,16.845098,20.818666,16.596998,20.818666 C16.348998,20.818666,16.147398,21.020266,16.147398,21.268266 C16.147398,21.516266,16.348998,21.717866,16.596998,21.717866 Z" fill="black" stroke="none" stroke-width="0.264583" opacity="1.0" />
</g>
<text x="309.375" y="64.93055555555556" font-size="5.0" font-family="Arial" text-anchor="middle" fill="black">milling machine</text>
<text x="309.375" y="81.59722222222223" font-size="8.333333333333332" font-family="Courier New" text-anchor="middle" fill="black">"milling"</text>
<g id="import" transform="translate(3.125, 109.375) scale(1.1013701286702087)">
<path d="M29.566004,12.064977 H18.997991 V0.9999944 C18.997991,0.4469744,18.550987,7.4049072e-06,17.998004,7.4049072e-06 C17.444984,7.4049072e-06,16.997979,0.4469744,16.997979,0.9999944 V12.334004 C14.05898,13.163988,11.900001,15.860001,11.900001,19.065002 V19.781979 H10.397979 C9.5329959,19.781979,8.8320069,20.483988,8.8320069,21.347988 V23.734987 C8.8320069,24.600007,9.5329959,25.300996,10.397979,25.300996 H11.900001 V28.44099 H10.397979 C9.5329959,28.44099,8.8320069,29.142999,8.8320069,30.006999 V32.393998 C8.8320069,33.25898,9.5329959,33.960007,10.397979,33.960007 H11.900001 V38.398987 C11.900001,42.264007,15.035006,45.397991,18.899988,45.397991 H29.566004 C33.43299,45.397991,36.565992,42.264007,36.565992,38.398987 V19.065002 C36.565992,15.199982,33.43299,12.064977,29.566004,12.064977 Z M30.469009,41.012001 H17.998004 C17.444984,41.012001,16.997979,40.563976,16.997979,40.011976 C16.997979,39.459976,17.444984,39.011988,17.998004,39.011988 H30.469009 C31.021992,39.011988,31.468996,39.459976,31.468996,40.011976 C31.468996,40.563976,31.021009,41.012001,30.469009,41.012001 Z M30.469009,36.160977 H17.998004 C17.444984,36.160977,16.997979,35.71299,16.997979,35.16099 C16.997979,34.60899,17.444984,34.161002,17.998004,34.161002 H30.469009 C31.021992,34.161002,31.468996,34.60899,31.468996,35.16099 C31.468996,35.71299,31.021009,36.160977,30.469009,36.160977 Z M30.469009,31.309009 H17.998004 C17.444984,31.309009,16.997979,30.860983,16.997979,30.308983 C16.997979,29.756001,17.444984,29.308996,17.998004,29.308996 H30.469009 C31.021992,29.308996,31.468996,29.756001,31.468996,30.308983 C31.468996,30.860983,31.021009,31.309009,30.469009,31.309009 Z M32.813979,24.973991 H15.651976 V17.189979 H32.813979 Z" fill="black" stroke="none" stroke-width="0.999999" opacity="1.0" />
</g>
<text x="28.125" y="171.18055555555554" font-size="6.25" font-family="Arial" text-anchor="middle" fill="black">trader radio</text>
<text x="28.125" y="187.8472222222222" font-size="10.714285714285715" font-family="Courier New" text-anchor="middle" fill="black">"radio"</text>
<g id="import" transform="translate(59.375, 109.375) scale(2.30372281607077)">
<path d="M9.70375,2.41243 L13.5857,1.2063 L9.70375,0.00017 Z" fill="black" stroke="none" stroke-width="0.264583" opacity="1.0" />
<path d="M9.78021,0.00112 C9.59625,0.00112,9.44639,0.14995,9.44639,0.33495 L9.44639,17.046 C9.44639,17.1339,9.48153,17.2186,9.54457,17.2817 C9.60659,17.3437,9.69134,17.3788,9.78022,17.3788 C9.86807,17.3788,9.95385,17.3437,10.0159,17.2817 C10.0779,17.2186,10.113,17.1339,10.113,17.046 L10.113,0.33495 C10.113,0.24606,10.0779,0.16131,10.0159,0.09827 C9.95385,0.03626,9.86807,0.00112,9.78022,0.00112 Z" fill="black" stroke="none" stroke-width="0.264583" opacity="1.0" />
<path d="M1.25877,15.8525 L3.30414,19.3436 C3.49844,19.2951,3.69585,19.2651,3.89326,19.2651 C4.48547,19.2651,4.9299,19.5679,5.29576,19.8005 C5.66163,20.033,5.94791,20.1953,6.21249,20.1953 C6.47708,20.1953,6.76439,20.033,7.12922,19.8005 C7.49509,19.5679,7.93951,19.2651,8.53173,19.2651 C9.12394,19.2651,9.56836,19.5679,9.93423,19.8005 C10.3001,20.033,10.5864,20.1953,10.851,20.1953 C11.1166,20.1953,11.4029,20.033,11.7677,19.8005 C12.1335,19.5679,12.578,19.2651,13.1702,19.2651 C13.7624,19.2651,14.2068,19.5679,14.5727,19.8005 C14.9386,20.033,15.2248,20.1953,15.4905,20.1953 C15.7551,20.1953,16.0424,20.033,16.4072,19.8005 C16.7731,19.5679,17.2175,19.2651,17.8097,19.2651 C18.0071,19.2651,18.2045,19.2951,18.3988,19.3436 L20.4442,15.8525 Z" fill="black" stroke="none" stroke-width="0.264583" opacity="1.0" />
<path d="M10.1276,14.9666 L20.4506,14.9666 C18.4476,10.3674,14.7724,6.32641,10.1276,2.60769 C10.1276,2.60769,11.1797,7.08709,11.1797,9.95596 C11.1797,12.8248,10.1276,14.9666,10.1276,14.9666 Z" fill="black" stroke="none" stroke-width="0.264583" opacity="1.0" />
<path d="M9.44657,14.9666 L2.89205,14.9666 L9.44657,6.18883 Z" fill="black" stroke="none" stroke-width="0.264583" opacity="1.0" />
<path d="M3.89323,19.8707 C3.30101,19.8707,2.70983,20.1373,2.2127,20.3823 C1.71558,20.6273,1.33111,20.8712,1.33111,20.8712 C1.23086,20.9363,1.15851,21.0376,1.13268,21.1543 C1.10684,21.2711,1.12854,21.3941,1.19262,21.4954 C1.2567,21.5967,1.35902,21.668,1.4758,21.6939 C1.59259,21.7197,1.71558,21.698,1.81688,21.6339 C1.81688,21.6339,2.16414,21.4138,2.61269,21.1926 C3.06124,20.9725,3.6297,20.774,3.89428,20.774 C4.15989,20.774,4.44617,20.9363,4.81101,21.1688 C5.17687,21.4014,5.62129,21.7042,6.21351,21.7042 C6.80573,21.7042,7.25015,21.4014,7.61602,21.1688 C7.98188,20.9363,8.26816,20.774,8.5338,20.774 C8.79942,20.774,9.0857,20.9363,9.45053,21.1688 C9.8164,21.4014,10.2608,21.7042,10.853,21.7042 C11.4453,21.7042,11.8897,21.4014,12.2555,21.1688 C12.6214,20.9363,12.9077,20.774,13.1723,20.774 C13.4379,20.774,13.7242,20.9363,14.0901,21.1688 C14.4559,21.4014,14.9003,21.7042,15.4926,21.7042 C16.0848,21.7042,16.5292,21.4014,16.8951,21.1688 C17.2609,20.9363,17.5472,20.774,17.8118,20.774 C18.0764,20.774,18.6448,20.9725,19.0934,21.1926 C19.5419,21.4127,19.8892,21.6339,19.8892,21.6339 L19.8871,21.6339 C19.9884,21.698,20.1114,21.7197,20.2282,21.6939 C20.345,21.668,20.4473,21.5967,20.5114,21.4954 C20.5755,21.3941,20.5972,21.2712,20.5713,21.1543 C20.5455,21.0376,20.4731,20.9363,20.3729,20.8712 C20.3729,20.8712,19.9884,20.6262,19.4913,20.3823 C18.9942,20.1373,18.403,19.8707,17.8108,19.8707 C17.2185,19.8707,16.7741,20.1735,16.4083,20.406 C16.0424,20.6386,15.7561,20.8009,15.4915,20.8009 C15.2259,20.8009,14.9396,20.6386,14.5738,20.406 C14.2079,20.1735,13.7635,19.8707,13.1713,19.8707 C12.579,19.8707,12.1346,20.1735,11.7687,20.406 C11.4029,20.6386,11.1166,20.8009,10.852,20.8009 C10.5864,20.8009,10.3001,20.6386,9.93529,20.406 C9.56942,20.1735,9.125,19.8707,8.53279,19.8707 C7.94057,19.8707,7.49615,20.1735,7.13028,20.406 C6.76442,20.6386,6.47814,20.8009,6.2125,20.8009 C5.94685,20.8009,5.6606,20.6386,5.29576,20.406 C4.9299,20.1735,4.48548,19.8707,3.89326,19.8707 Z" fill="black" stroke="none" stroke-width="0.264583" opacity="1.0" />
</g>
<text x="84.375" y="171.18055555555554" font-size="5.357142857142858" font-family="Arial" text-anchor="middle" fill="black">trade drop-box</text>
<text x="84.375" y="187.8472222222222" font-size="9.375" font-family="Courier New" text-anchor="middle" fill="black">"trader"</text>
<g id="import" transform="translate(3.125, 215.625) scale(4.294794708812919)">
<path d="M2.64595,10.3189 L2.64595,11.3772 C2.64595,11.5233,2.76441,11.6418,2.91053,11.6418 L8.73137,11.6418 C8.87749,11.6418,8.99595,11.5233,8.99595,11.3772 L8.99595,10.3189 Z" fill="black" stroke="none" stroke-width="0.264583" opacity="1.0" />
<path d="M2.64595,9.78971 L2.64595,6.8552 C2.64595,5.91541,3.11948,4.59629,3.71718,3.87181 L4.3922,3.05361 L4.3922,0.264705 C4.3922,0.118581,4.51066,0.000121,4.65678,0.000121 L6.98512,0.000121 C7.13124,0.000121,7.2497,0.118581,7.2497,0.264705 L7.2497,3.05361 L7.92471,3.87181 C8.52178,4.59552,8.99595,5.91654,8.99595,6.8552 L8.99595,9.78971 L7.93762,9.78971 L7.93762,7.40707 C7.93762,6.53279,7.22667,5.82096,6.35143,5.82096 L5.29047,5.82096 C4.41399,5.82096,3.70428,6.53087,3.70428,7.40707 L3.70428,9.78971 Z" fill="black" stroke="none" stroke-width="0.264583" opacity="1.0" />
<path d="M5.96469,9.78971 L5.7019,9.78971 L5.29023,9.12978 L5.69064,8.97897 C5.75571,8.95447,5.80852,8.90532,5.83764,8.84219 L6.07527,8.32699 L6.44187,9.19216 Z" fill="black" stroke="none" stroke-width="0.264583" opacity="1.0" />
<path d="M6.64189,9.78971 L7.40845,9.78971 L7.40845,7.40707 C7.40845,6.82489,6.93427,6.35012,6.35143,6.35012 L5.29047,6.35012 C4.70627,6.35012,4.23345,6.82308,4.23345,7.40707 L4.23345,9.78971 L5.07822,9.78971 L4.67042,9.13599 C4.58204,8.99432,4.64539,8.80721,4.80165,8.74835 L5.40258,8.52202 L5.84528,7.56222 C5.94148,7.35364,6.23953,7.35832,6.32915,7.56982 L6.99061,9.13087 C7.0285,9.2203,7.01434,9.3233,6.95374,9.3992 Z" fill="black" stroke="none" stroke-width="0.264583" opacity="1.0" />
</g>
<text x="28.125" y="277.43055555555554" font-size="6.25" font-family="Arial" text-anchor="middle" fill="black">1-slot stove</text>
<text x="28.125" y="294.09722222222223" font-size="7.5" font-family="Courier New" text-anchor="middle" fill="black">"potbelly"</text>
<g id="import" transform="translate(59.375, 215.625) scale(0.607120284844324)">
<path d="M78.569,11.758 L78.569,11.735 L78.569,11.727 C78.562,9.056,75.037,6.255,69.056,4.108 L69.056,19.361 C75.027,17.219,78.549,14.425,78.569,11.758 Z" fill="black" stroke="none" stroke-width="0" opacity="1.0" />
<path d="M31.146,0.52 C28.841,0.727,26.593,1.009,24.437,1.361 L24.437,22.111 C26.595,22.463,28.843,22.745,31.146,22.952 Z" fill="black" stroke="none" stroke-width="0" opacity="1.0" />
<path d="M22.223,1.75 C19.809,2.209,17.561,2.755,15.512,3.378 L15.512,20.091 C17.562,20.715,19.811,21.261,22.223,21.72 Z" fill="black" stroke="none" stroke-width="0" opacity="1.0" />
<path d="M13.298,19.362 L13.298,4.109 C7.315,6.257,3.789,9.059,3.785,11.731 L3.785,11.736 L3.785,11.75 C3.798,14.419,7.322,17.217,13.298,19.362 Z" fill="black" stroke="none" stroke-width="0" opacity="1.0" />
<path d="M48.996,0.344 C46.794,0.191,44.546,0.103,42.284,0.082 L42.284,23.387 C44.543,23.366,46.794,23.279,48.996,23.126 Z" fill="black" stroke="none" stroke-width="0" opacity="1.0" />
<path d="M66.843,3.379 C64.793,2.755,62.545,2.209,60.131,1.751 L60.131,21.721 C62.545,21.262,64.793,20.716,66.843,20.093 Z" fill="black" stroke="none" stroke-width="0" opacity="1.0" />
<path d="M57.918,1.36 C55.76,1.008,53.512,0.726,51.209,0.519 L51.209,22.95 C53.513,22.743,55.761,22.461,57.918,22.109 Z" fill="black" stroke="none" stroke-width="0" opacity="1.0" />
<path d="M40.071,0.082 C37.81,0.104,35.561,0.192,33.359,0.344 L33.359,23.126 C35.561,23.278,37.812,23.365,40.071,23.387 Z" fill="black" stroke="none" stroke-width="0" opacity="1.0" />
<path d="M64.581,30.11 L64.581,28.912 C64.581,26.98,66.153,25.409,68.084,25.409 L75.99,25.409 C77.084,22.628,77.832,19.746,78.229,16.794 C76.128,18.764,72.768,20.525,68.288,21.962 L68.284,21.963 C68.28,21.964,68.276,21.965,68.273,21.967 C65.586,22.831,62.549,23.56,59.25,24.132 L59.244,24.133 C59.234,24.135,59.224,24.137,59.214,24.138 C56.346,24.639,53.309,25.016,50.189,25.259 C47.258,25.49,44.232,25.608,41.196,25.609 C41.19,25.609,41.184,25.61,41.178,25.61 C41.172,25.61,41.166,25.609,41.16,25.609 C38.124,25.608,35.098,25.491,32.166,25.259 C29.047,25.016,26.009,24.639,23.14,24.138 C23.131,24.136,23.122,24.135,23.113,24.133 L23.105,24.132 C19.808,23.56,16.773,22.832,14.085,21.968 C14.079,21.966,14.074,21.965,14.068,21.963 L14.067,21.962 C9.587,20.525,6.228,18.763,4.126,16.794 C4.524,19.747,5.272,22.629,6.366,25.41 L14.272,25.41 C16.204,25.41,17.775,26.982,17.775,28.913 L17.775,30.111 C17.775,32.043,16.203,33.614,14.272,33.614 L10.854,33.614 C14.043,38.026,18.187,41.728,22.942,44.39 C25.18,45.644,27.55,46.666,29.987,47.427 C32.442,48.195,34.991,48.711,37.564,48.959 C39.945,49.188,42.411,49.188,44.793,48.959 C47.366,48.711,49.915,48.195,52.369,47.427 C54.806,46.666,57.176,45.644,59.414,44.39 C64.17,41.727,68.313,38.025,71.502,33.613 L68.084,33.613 C66.152,33.613,64.581,32.041,64.581,30.11 Z" fill="black" stroke="none" stroke-width="0" opacity="1.0" />
<path d="M81.065,27.621 L68.084,27.621 C67.373,27.621,66.794,28.2,66.794,28.911 L66.794,30.109 C66.794,30.82,67.373,31.399,68.084,31.399 L73.564,31.399 L73.604,31.399 L81.066,31.399 C81.777,31.399,82.356,30.82,82.356,30.109 L82.356,28.911 C82.355,28.2,81.776,27.621,81.065,27.621 Z" fill="black" stroke="none" stroke-width="0" opacity="1.0" />
<path d="M15.561,30.11 L15.561,28.912 C15.561,28.201,14.982,27.622,14.271,27.622 L1.29,27.622 C0.579,27.622,0.0,28.201,0.0,28.912 L0.0,30.11 C0.0,30.821,0.579,31.4,1.29,31.4 L8.758,31.4 L8.789,31.4 L14.271,31.4 C14.983,31.399,15.561,30.821,15.561,30.11 Z" fill="black" stroke="none" stroke-width="0" opacity="1.0" />
<path d="M54.39,49.082 L75.217,81.89 L77.203,80.744 L59.494,46.86 C57.846,47.722,56.137,48.465,54.39,49.082 Z" fill="black" stroke="none" stroke-width="0" opacity="1.0" />
<path d="M5.152,80.745 L7.138,81.891 L27.965,49.082 C26.218,48.464,24.509,47.722,22.862,46.861 Z" fill="black" stroke="none" stroke-width="0" opacity="1.0" />
<path d="M38.619,51.261 L40.028,82.273 L42.326,82.273 L43.735,51.261 C42.885,51.315,42.029,51.345,41.177,51.345 C40.325,51.345,39.469,51.315,38.619,51.261 Z" fill="black" stroke="none" stroke-width="0" opacity="1.0" />
</g>
<text x="84.375" y="277.43055555555554" font-size="6.25" font-family="Arial" text-anchor="middle" fill="black">2-slot stove</text>
<text x="84.375" y="294.09722222222223" font-size="10.714285714285715" font-family="Courier New" text-anchor="middle" fill="black">"grill"</text>
<g id="import" transform="translate(115.625, 215.625) scale(0.6295167591399508)">
<path d="M1.8721823,25.220705 V68.50977 H77.551855 V25.220705 H69.778425 L64.499105,30.205078 L64.497177,30.207032 V30.208986 C64.496233,30.209658,64.492302,30.212202,64.491319,30.21289 H64.489354 L64.487388,30.214844 C64.441392,30.257843,64.391955,30.296077,64.338966,30.330078 C64.331974,30.335078,64.323546,30.338752,64.315533,30.343752 C64.263527,30.37575,64.209404,30.402781,64.153429,30.425783 C64.145417,30.42878,64.139937,30.430594,64.131924,30.433595 C64.074929,30.454594,64.015212,30.472377,63.954211,30.484377 L63.936636,30.486327 C63.875634,30.497329,63.813121,30.503906,63.749133,30.503906 H40.014758 H39.409278 H15.674903 C15.610916,30.503906,15.548402,30.496328,15.487401,30.486327 L15.469826,30.484377 C15.408824,30.472377,15.349108,30.454594,15.292075,30.433595 C15.2841,30.430594,15.278619,30.42878,15.270607,30.425783 C15.213612,30.402781,15.159489,30.37575,15.108503,30.343752 C15.10049,30.338752,15.093045,30.335078,15.08507,30.330078 C15.032043,30.296077,14.983627,30.256846,14.93661,30.214844 H14.934682 L14.932717,30.21289 L14.930752,30.21094 C14.930752,30.21094,14.928824,30.208986,14.928824,30.208986 C14.928824,30.208986,14.926859,30.207032,14.926859,30.207032 L14.924893,30.205078 L9.6456123,25.220705 Z" fill="black" stroke="none" stroke-width="3.77953" opacity="1.0" />
<path d="M12.827256,70.693354 L16.10849,73.792982 H39.409278 H40.014758 H63.315546 L66.596781,70.693354 Z" fill="black" stroke="none" stroke-width="3.77953" opacity="1.0" />
<path d="M21.852654,11.439455 C20.525624,11.439455,19.44638,12.518703,19.44638,13.845702 C19.44638,15.172702,20.525624,16.251954,21.852654,16.251954 C23.179646,16.251954,24.25889,15.172702,24.25889,13.845702 C24.25889,12.519704,23.179646,11.439455,21.852654,11.439455 Z" fill="black" stroke="none" stroke-width="3.77953" opacity="1.0" />
<path d="M9.7764593,11.439455 C8.4494673,11.439455,7.3702233,12.518703,7.3702233,13.845702 C7.3702233,15.172702,8.4494673,16.251954,9.7764593,16.251954 C11.103451,16.251954,12.182733,15.172702,12.182733,13.845702 C12.182733,12.519704,11.103451,11.439455,9.7764593,11.439455 Z" fill="black" stroke="none" stroke-width="3.77953" opacity="1.0" />
<path d="M1.8741093,70.693354 V76.744151 C1.8741093,78.222135,3.0777753,79.425763,4.5557593,79.425763 H74.87217 C76.350154,79.425763,77.55382,78.222135,77.55382,76.744151 V70.693354 H69.78039 L64.499105,75.679685 L64.497177,75.68165 C64.496308,75.682292,64.492188,75.684938,64.491319,75.685543 L64.489354,75.687508 C64.443357,75.730519,64.392976,75.76873,64.338966,75.802746 C64.331974,75.807735,64.324491,75.812422,64.317499,75.81639 C64.265492,75.848403,64.211407,75.876447,64.153429,75.898444 C64.146437,75.90143,64.138954,75.903244,64.131924,75.906267 C64.074929,75.927244,64.01714,75.944063,63.956138,75.955061 L63.938563,75.958992 C63.877562,75.96999,63.814141,75.976567,63.749133,75.976567 H40.014758 H39.409278 H15.674903 C15.610916,75.976567,15.548402,75.96897,15.487401,75.958992 L15.469826,75.955061 C15.408824,75.94308,15.349108,75.927244,15.292075,75.906267 C15.285082,75.903244,15.277599,75.90143,15.270607,75.898444 C15.213612,75.875426,15.160509,75.84742,15.108503,75.81639 C15.101511,75.812422,15.094027,75.806752,15.086997,75.802746 C15.034008,75.76873,14.983627,75.730519,14.93661,75.687508 L14.934682,75.685543 L14.932717,75.683578 C14.931848,75.682973,14.92769,75.680327,14.926859,75.679685 L9.6475773,70.693354 Z" fill="black" stroke="none" stroke-width="3.77953" opacity="1.0" />
<path d="M33.526481,0.0 C32.880484,0.0,32.354601,0.525876,32.354601,1.171877 V2.873046 H34.557725 V2.146484 H34.559653 C34.559653,1.543484,35.048459,1.054689,35.651483,1.054689 C36.254469,1.054689,36.743275,1.543484,36.743275,2.146484 V2.873046 H38.618261 V2.146484 C38.618261,1.543484,39.107067,1.054689,39.710053,1.054689 C40.313076,1.054689,40.80381,1.543484,40.80381,2.146484 V2.873046 H42.678796 V2.146484 C42.678796,1.543484,43.167602,1.054689,43.770626,1.054689 C44.373612,1.054689,44.862418,1.543484,44.862418,2.146484 V2.873046 H47.065543 V1.171877 C47.065543,0.525876,46.539659,0.0,45.893662,0.0 Z" fill="black" stroke="none" stroke-width="3.77953" opacity="1.0" />
<path d="M56.503023,0.0 C55.857026,0.0,55.331143,0.525876,55.331143,1.171877 V2.873046 H57.53234 V2.146484 H57.534267 C57.534267,1.543484,58.023073,1.054689,58.626059,1.054689 C59.229083,1.054689,59.719817,1.543484,59.719817,2.146484 V2.873046 H61.59484 V2.146484 C61.59484,1.543484,62.083609,1.054689,62.686633,1.054689 C63.289618,1.054689,63.778425,1.543484,63.778425,2.146484 V2.873046 H65.655376 V2.146484 C65.655376,1.543484,66.144182,1.054689,66.747168,1.054689 C67.350154,1.054689,67.83896,1.543484,67.83896,2.146484 V2.873046 H70.040157 V1.171877 C70.040157,0.525876,69.514274,0.0,68.868277,0.0 Z" fill="black" stroke="none" stroke-width="3.77953" opacity="1.0" />
<path d="M10.551867,0.0 C9.9058703,0.0,9.3799863,0.525876,9.3799863,1.171877 V2.873046 H11.581145 V2.146484 H11.583111 C11.583111,1.543484,12.071917,1.054689,12.674903,1.054689 C13.277889,1.054689,13.766695,1.543484,13.766695,2.146484 V2.873046 H15.643646 V2.146484 C15.643646,1.543484,16.132453,1.054689,16.735438,1.054689 C17.338462,1.054689,17.827231,1.543484,17.827231,2.146484 V2.873046 H19.702254 V2.146484 C19.702254,1.543484,20.19106,1.054689,20.794046,1.054689 C21.397032,1.054689,21.887804,1.543484,21.887804,2.146484 V2.873046 H24.088963 V1.171877 C24.088963,0.525876,23.563079,0.0,22.917083,0.0 Z" fill="black" stroke="none" stroke-width="3.77953" opacity="1.0" />
<path d="M12.827256,25.220705 L16.10849,28.31836 H39.409278 H40.014758 H63.315546 L66.596781,25.220705 Z" fill="black" stroke="none" stroke-width="3.77953" opacity="1.0" />
<path d="M57.571382,11.439455 C56.24439,11.439455,55.165146,12.518703,55.165146,13.845702 C55.165146,15.172702,56.24439,16.251954,57.571382,16.251954 C58.898374,16.251954,59.977656,15.172702,59.977656,13.845702 C59.977656,12.519704,58.897392,11.439455,57.571382,11.439455 Z" fill="black" stroke="none" stroke-width="3.77953" opacity="1.0" />
<path d="M69.647578,11.439455 C68.320548,11.439455,67.241303,12.518703,67.241303,13.845702 C67.241303,15.172702,68.320548,16.251954,69.647578,16.251954 C70.97457,16.251954,72.053814,15.172702,72.053814,13.845702 C72.052793,12.519704,70.973549,11.439455,69.647578,11.439455 Z" fill="black" stroke="none" stroke-width="3.77953" opacity="1.0" />
<path d="M32.356528,10.314452 V17.376953 H47.06747 V10.314452 Z" fill="black" stroke="none" stroke-width="3.77953" opacity="1.0" />
<path d="M4.5537943,5.058595 C3.0758103,5.058595,1.8721823,6.260281,1.8721823,7.73828 V23.035155 H77.551855 V7.73828 C77.551855,6.259283,76.349209,5.058595,74.870204,5.058595 Z M9.7784243,7.123045 C10.38141,7.123045,10.870216,7.612845,10.870216,8.214845 V9.386718 C12.875218,9.878718,14.366317,11.689705,14.366317,13.845702 C14.366317,16.001703,12.874235,17.812687,10.870216,18.304687 V19.533203 C10.870216,20.137202,10.380427,20.624999,9.7784243,20.624999 C9.1744183,20.624999,8.6866323,20.137202,8.6866323,19.533203 V18.304687 C6.6806103,17.812687,5.1866383,16.001703,5.1866383,13.845702 C5.1866383,11.689705,6.6806103,9.878718,8.6866323,9.386718 V8.214845 C8.6866323,7.611844,9.1744183,7.123045,9.7784243,7.123045 Z M21.852654,7.123045 C22.456623,7.123045,22.944446,7.612845,22.944446,8.214845 V9.386718 C24.950431,9.878718,26.442475,11.689705,26.442475,13.845702 C26.442475,16.001703,24.950431,17.812687,22.944446,18.304687 V19.533203 C22.944446,20.137202,22.456623,20.624999,21.852654,20.624999 C21.249631,20.624999,20.760824,20.137202,20.760824,19.533203 V18.304687 C18.75586,17.812687,17.262796,16.001703,17.262796,13.845702 C17.262796,11.689705,18.756843,9.878718,20.760824,9.386718 V8.214845 C20.760824,7.611844,21.250651,7.123045,21.852654,7.123045 Z M57.573347,7.123045 C58.176333,7.123045,58.66514,7.612845,58.66514,8.214845 V9.386718 C60.670141,9.878718,62.16124,11.689705,62.16124,13.845702 C62.16124,16.001703,60.669121,17.812687,58.66514,18.304687 V19.533203 C58.66514,20.137202,58.175351,20.624999,57.573347,20.624999 C56.969341,20.624999,56.481555,20.137202,56.481555,19.533203 V18.304687 C54.475533,17.812687,52.981562,16.001703,52.981562,13.845702 C52.981562,11.689705,54.475533,9.878718,56.481555,9.386718 V8.214845 C56.481555,7.611844,56.969341,7.123045,57.573347,7.123045 Z M69.647578,7.123045 C70.251546,7.123045,70.73937,7.612845,70.73937,8.214845 V9.386718 C72.745354,9.878718,74.237398,11.689705,74.237398,13.845702 C74.237398,16.001703,72.746374,17.812687,70.73937,18.304687 V19.533203 C70.73937,20.137202,70.251546,20.624999,69.647578,20.624999 C69.044554,20.624999,68.555748,20.137202,68.555748,19.533203 V18.304687 C66.550746,17.812687,65.057719,16.001703,65.057719,13.845702 C65.057719,11.689705,66.551766,9.878718,68.555748,9.386718 V8.214845 C68.555748,7.611844,69.045574,7.123045,69.647578,7.123045 Z M31.264736,8.13086 H48.159262 C48.762286,8.13086,49.251092,8.620656,49.251092,9.222656 V18.468749 C49.251092,19.07175,48.761265,19.560548,48.159262,19.560548 H31.264736 C30.66175,19.560548,30.172944,19.070752,30.172944,18.468749 V9.222656 C30.172944,8.619655,30.662733,8.13086,31.264736,8.13086 Z" fill="black" stroke="none" stroke-width="3.77953" opacity="1.0" />
</g>
<text x="140.625" y="277.43055555555554" font-size="6.25" font-family="Arial" text-anchor="middle" fill="black">6-slot stove</text>
<text x="140.625" y="294.09722222222223" font-size="10.714285714285715" font-family="Courier New" text-anchor="middle" fill="black">"range"</text>
<g id="import" transform="translate(171.875, 215.625) scale(25.497195308516062)">
<path d="M0.000118494,0.280337 L0.000118494,1.54041 C0.0226594,1.54763,0.0773217,1.52273,0.0701227,1.55968 L0.0701227,1.68042 L0.35014,1.68042 L0.35014,1.54041 L1.61022,1.54041 L1.61022,1.68042 L1.89023,1.68042 L1.89023,1.54041 C1.91277,1.5332,1.96744,1.5581,1.96024,1.52114 L1.96024,0.280337 L0.000118494,0.280337 Z M0.140127,0.35034 L1.82023,0.35034 C1.81301,0.372883,1.83792,0.427546,1.80096,0.420346 L1.15792,0.420346 C1.15807,0.478639,1.2213,0.447553,1.25708,0.455348 L1.82023,0.455348 C1.81673,0.481163,1.82706,0.520806,1.81541,0.538477 L1.38257,0.538477 C1.40095,0.59155,1.45405,0.568595,1.49455,0.573463 L1.82023,0.573463 C1.81673,0.599278,1.82706,0.638921,1.81541,0.656592 L1.46611,0.656592 C1.47154,0.714256,1.53237,0.684151,1.5695,0.691594 L1.82023,0.691594 C1.81673,0.71741,1.82706,0.757052,1.81541,0.774723 L1.50617,0.774723 C1.47342,0.833532,1.55421,0.801642,1.58495,0.809728 L1.82023,0.809728 C1.81673,0.835543,1.82706,0.875186,1.81541,0.892857 C1.63415,0.893968,1.4525,0.890632,1.27149,0.894529 C1.24156,0.899802,1.21164,0.905073,1.18171,0.910346 C1.24463,0.924033,1.30808,0.931505,1.37251,0.927835 L1.82023,0.927835 C1.81673,0.95365,1.82706,0.993293,1.81541,1.01096 L1.49824,1.01096 C1.49213,1.06977,1.55847,1.03788,1.59288,1.04597 L1.82023,1.04597 C1.81673,1.07178,1.82705,1.11142,1.81541,1.1291 L1.48279,1.1291 C1.43326,1.18676,1.52278,1.15666,1.55282,1.1641 L1.82023,1.1641 C1.81673,1.18992,1.82706,1.22956,1.81541,1.24723 L1.41265,1.24723 C1.33892,1.30099,1.43306,1.27685,1.46446,1.28221 L1.82023,1.28221 C1.81673,1.30803,1.82706,1.34767,1.81541,1.36534 L1.17037,1.36534 C1.12906,1.42364,1.2144,1.39255,1.24464,1.40035 L1.82023,1.40035 C1.81301,1.42289,1.83792,1.47755,1.80096,1.47035 L0.140127,1.47035 C0.147346,1.44783,0.122436,1.39317,0.159397,1.40039 L0.802433,1.40039 C0.80229,1.3421,0.73906,1.37318,0.703274,1.36539 L0.140127,1.36539 C0.143626,1.33957,0.133301,1.29993,0.144945,1.28226 L0.57779,1.28226 C0.559409,1.22919,0.506311,1.25214,0.465809,1.24727 L0.140127,1.24727 C0.143626,1.22146,0.133301,1.18182,0.144945,1.16414 L0.49425,1.16414 C0.488817,1.10648,0.427985,1.13659,0.390852,1.12914 L0.140127,1.12914 C0.143626,1.10332,0.133301,1.06369,0.144945,1.04601 L0.454189,1.04601 C0.486939,0.987207,0.40615,1.01909,0.375403,1.01101 L0.140127,1.01101 C0.143626,0.985194,0.133301,0.945551,0.144945,0.92788 C0.326204,0.926769,0.507852,0.930105,0.688867,0.926208 C0.718792,0.920935,0.748717,0.915664,0.778642,0.910391 C0.71573,0.896704,0.652274,0.889232,0.587844,0.892902 L0.140127,0.892902 C0.143626,0.867087,0.133301,0.827444,0.144945,0.809773 L0.462119,0.809773 C0.468226,0.750964,0.401884,0.782854,0.367472,0.774768 L0.140127,0.774768 C0.143626,0.748953,0.133301,0.709311,0.144945,0.691639 L0.477569,0.691639 C0.527097,0.633976,0.437571,0.66408,0.407533,0.656637 L0.140127,0.656637 C0.143626,0.630822,0.133301,0.59118,0.144945,0.573508 L0.547711,0.573508 C0.621441,0.51975,0.527292,0.543885,0.495893,0.538522 L0.140127,0.538522 C0.143626,0.512707,0.133301,0.473064,0.144945,0.455393 L0.78999,0.455393 C0.831292,0.3971,0.745961,0.428186,0.715716,0.420391 L0.140127,0.420391 L0.140127,0.35034 Z" fill="black" stroke="none" stroke-width="0" opacity="1.0" />
<path d="M0.713021,0.538475 L0.80757,0.538475 C0.835391,0.57903,0.800687,0.575791,0.767303,0.573476 C0.736721,0.582025,0.732146,0.555204,0.713021,0.538475 Z" fill="black" stroke="none" stroke-width="0" opacity="1.0" />
<path d="M0.863307,0.69161 C0.842133,0.703974,0.793254,0.645858,0.832198,0.656608 C0.858929,0.649412,0.853858,0.67456,0.863307,0.69161 Z" fill="black" stroke="none" stroke-width="0" opacity="1.0" />
<path d="M1.23988,0.546415 C1.22583,0.579411,1.19414,0.574572,1.16419,0.573476 C1.12237,0.589888,1.14825,0.522507,1.17687,0.538475 C1.19104,0.543033,1.25717,0.528854,1.23988,0.546415 Z" fill="black" stroke="none" stroke-width="0" opacity="1.0" />
<path d="M1.11805,0.69161 C1.07812,0.703164,1.1099,0.63772,1.13867,0.656608 C1.1613,0.650462,1.11874,0.68622,1.11805,0.69161 Z" fill="black" stroke="none" stroke-width="0" opacity="1.0" />
<path d="M1.14004,1.24727 C1.16668,1.25218,1.20249,1.23739,1.22337,1.25465 C1.26494,1.28866,1.22336,1.28296,1.18952,1.28227 C1.15445,1.28631,1.14861,1.28229,1.14004,1.24727 Z" fill="black" stroke="none" stroke-width="0" opacity="1.0" />
<path d="M1.14742,1.16414 C1.1189,1.18276,1.07921,1.13144,1.11152,1.12914 C1.12672,1.12958,1.13578,1.15507,1.14742,1.16414 Z" fill="black" stroke="none" stroke-width="0" opacity="1.0" />
<path d="M0.720472,1.27433 C0.734522,1.24133,0.766217,1.24617,0.796166,1.24727 C0.837984,1.23086,0.812108,1.29824,0.783487,1.28227 C0.769312,1.27771,0.703186,1.29189,0.720472,1.27433 Z" fill="black" stroke="none" stroke-width="0" opacity="1.0" />
<path d="M0.850567,1.16414 C0.802256,1.17614,0.818645,1.14539,0.847124,1.12914 C0.879295,1.12138,0.851038,1.14924,0.850567,1.16414 Z" fill="black" stroke="none" stroke-width="0" opacity="1.0" />
<path d="M0.598541,0.56729 C0.550645,0.620569,0.514435,0.683286,0.492242,0.751406 C0.480375,0.787826,0.503483,0.82632,0.541206,0.832971 L0.860132,0.889206 C0.857663,0.90321,0.857663,0.917535,0.860132,0.931539 L0.541206,0.987774 C0.503483,0.994425,0.480375,1.03292,0.492242,1.06934 C0.514435,1.13746,0.550645,1.20018,0.598541,1.25345 C0.624138,1.28195,0.669027,1.2812,0.693659,1.25187 L0.901822,1.00379 C0.912715,1.01292,0.925123,1.02009,0.938485,1.02495 L0.827723,1.32927 C0.814621,1.36526,0.836403,1.40452,0.873877,1.41245 C0.943967,1.42729,1.01639,1.42729,1.08648,1.41245 C1.12395,1.40452,1.14573,1.36526,1.13263,1.32927 L1.02187,1.02495 C1.03523,1.02009,1.04764,1.01292,1.05853,1.00379 L1.2667,1.25187 C1.29133,1.2812,1.33622,1.28195,1.36181,1.25345 C1.40971,1.20018,1.44592,1.13746,1.46811,1.06934 C1.47998,1.03292,1.45687,0.994425,1.41915,0.987774 L1.10022,0.931539 C1.10269,0.917535,1.10269,0.90321,1.10022,0.889206 L1.41915,0.832971 C1.45687,0.82632,1.47998,0.787826,1.46811,0.751406 C1.44592,0.683286,1.40971,0.620569,1.36181,0.56729 C1.33622,0.538797,1.29133,0.539546,1.2667,0.568878 L1.05853,0.816959 C1.04764,0.80782,1.03523,0.800655,1.02187,0.795792 L1.13263,0.491479 C1.14573,0.455486,1.12395,0.416227,1.08648,0.408292 C1.01639,0.393451,0.943967,0.393451,0.873877,0.408292 C0.836403,0.416227,0.814621,0.455486,0.827723,0.491479 L0.938485,0.795792 C0.925123,0.800655,0.912715,0.80782,0.901822,0.816959 L0.693659,0.568878 C0.669027,0.539546,0.624138,0.538797,0.598541,0.56729 Z" fill="black" stroke="none" stroke-width="0" opacity="1.0" />
</g>
<text x="196.875" y="277.43055555555554" font-size="7.5" font-family="Arial" text-anchor="middle" fill="black">curing box</text>
<text x="196.875" y="294.09722222222223" font-size="9.375" font-family="Courier New" text-anchor="middle" fill="black">"curing"</text>
<g id="import" transform="translate(3.125, 321.875) scale(2.360829011717786)">
<path d="M16.607,9.31377 L21.1731,9.31377 L21.1731,10.6956 L16.607,10.6956 L16.607,9.31377 Z" fill="black" stroke="none" stroke-width="0.264583" opacity="1.0" />
<path d="M16.8808,2.99261 L6.35647,2.99261 C8.04829,3.84268,9.0283,5.76325,8.8793,7.62881 L8.8793,8.77212 L11.2905,8.77212 C11.3316,8.24548,11.1878,7.67907,11.41,7.18827 C11.8009,6.69395,12.4862,6.94087,13.0294,6.88077 C14.0371,6.89044,15.047,6.86129,16.0534,6.89558 C16.7677,7.05906,16.5853,7.86907,16.607,8.41116 C16.4568,8.89019,16.9112,8.76457,17.2324,8.77212 L21.1732,8.77212 C21.1671,7.55536,21.291,6.25623,20.615,5.17273 C19.8762,3.84266,18.402,2.98336,16.8808,2.99261 Z" fill="black" stroke="none" stroke-width="0.264583" opacity="1.0" />
<path d="M8.88033,9.31377 L11.2916,9.31377 L11.2916,10.6956 L8.88033,10.6956 L8.88033,9.31377 Z" fill="black" stroke="none" stroke-width="0.264583" opacity="1.0" />
<path d="M15.9135,12.4464 C16.2105,12.2363,16.0041,11.7454,16.0655,11.4086 L16.0655,7.57752 C15.8584,7.27549,15.3646,7.48441,15.0276,7.42249 L11.9882,7.42249 C11.6866,7.63181,11.8948,8.12527,11.8331,8.46343 L11.8331,12.2945 C12.0449,12.591,12.536,12.3854,12.8741,12.4464 C13.8872,12.4464,14.9004,12.4464,15.9135,12.4464 Z M13.9498,8.59648 C15.1001,8.60238,14.8946,10.0119,14.3804,10.4422 C14.4068,10.6948,14.7664,11.1842,14.5659,11.2754 L13.2284,11.2754 C13.3431,10.9485,13.4578,10.6215,13.5726,10.2946 C12.7151,9.93472,13.0206,8.55927,13.9498,8.59648 Z" fill="black" stroke="none" stroke-width="0.264583" opacity="1.0" />
<path d="M16.607,12.2943 C16.6096,12.985,15.8556,13.0315,15.3402,12.9878 C14.1763,12.9787,13.0106,13.006,11.8478,12.974 C11.1316,12.8142,11.3127,12.0024,11.2915,11.4605 C11.3897,11.045,10.8033,11.314,10.5619,11.238 L8.88028,11.238 L8.88028,18.1876 L21.1731,18.1876 L21.1731,11.238 L16.6069,11.238 C16.6069,11.5901,16.6069,11.9422,16.607,12.2943 Z" fill="black" stroke="none" stroke-width="0.264583" opacity="1.0" />
<path d="M1.63234,11.2381 L6.71207,11.2381 L6.71207,18.1876 L1.63234,18.1876 L1.63234,11.2381 Z" fill="black" stroke="none" stroke-width="0.264583" opacity="1.0" />
<path d="M7.25473,11.2381 L8.33892,11.2381 L8.33892,18.1876 L7.25473,18.1876 L7.25473,11.2381 Z" fill="black" stroke="none" stroke-width="0.264583" opacity="1.0" />
<path d="M0.00647,9.31377 L8.33767,9.31377 L8.33767,10.6956 L0.00647,10.6956 L0.00647,9.31377 Z" fill="black" stroke="none" stroke-width="0.264583" opacity="1.0" />
<path d="M0.00647,11.2381 L1.09066,11.2381 L1.09066,18.1876 L0.00647,18.1876 L0.00647,11.2381 Z" fill="black" stroke="none" stroke-width="0.264583" opacity="1.0" />
<path d="M4.17366,2.99261 C1.88815,2.93259,-0.13238,5.03657,0.00642,7.31619 L0.00642,8.77217 L1.09164,8.77217 C1.12366,7.60468,0.90287,6.31055,1.69611,5.32671 C2.73088,3.83324,5.10807,3.65608,6.35093,4.98221 C7.15766,5.72503,7.31314,6.85098,7.25471,7.88953 C7.31603,8.15719,7.12689,8.67533,7.35893,8.77227 L8.33992,8.77227 C8.32848,7.43803,8.48204,5.99351,7.63809,4.84976 C6.88605,3.70432,5.54398,2.9845,4.17366,2.99261 Z" fill="black" stroke="none" stroke-width="0.264583" opacity="1.0" />
<path d="M4.17366,4.62139 C2.71125,4.57852,1.47446,5.97888,1.63221,7.42031 L1.63221,8.77206 L6.71194,8.77206 C6.66749,7.68052,6.92672,6.44242,6.13175,5.54529 C5.65896,4.96571,4.92189,4.61607,4.17366,4.62139 Z" fill="black" stroke="none" stroke-width="0.264583" opacity="1.0" />
</g>
<text x="28.125" y="383.68055555555554" font-size="6.25" font-family="Arial" text-anchor="middle" fill="black">rustic trunk</text>
<text x="28.125" y="400.34722222222223" font-size="10.714285714285715" font-family="Courier New" text-anchor="middle" fill="black">"trunk"</text>
<g id="import" transform="translate(59.375, 321.875) scale(0.6153846153846154)">
<path d="M13.543,77.6057 C6.0625,77.6057,0.0,71.5432,0.0,64.0627 C0.0,56.5822,6.0625,50.5197,13.543,50.5197 C21.0235,50.5197,27.086,56.5822,27.086,64.0627 C27.086,71.5432,21.0235,77.6057,13.543,77.6057 Z M13.543,54.7657 C13.0547,54.7657,12.6602,55.1602,12.6602,55.6485 C12.6602,56.1367,13.0547,56.5313,13.543,56.5313 C15.1758,56.5313,16.7032,57.0782,17.9258,58.0196 C19.1485,58.9571,20.0742,60.293,20.4922,61.8673 C20.6172,62.3399,21.1016,62.6173,21.5703,62.4923 C22.039,62.3673,22.3203,61.8829,22.1953,61.4142 C21.6719,59.4572,20.5195,57.7931,18.9922,56.6212 C17.4649,55.4493,15.5664,54.7696,13.5391,54.7696 Z M40.625,77.6057 C33.1445,77.6057,27.082,71.5432,27.082,64.0627 C27.082,56.5822,33.1445,50.5197,40.625,50.5197 C48.1055,50.5197,54.168,56.5822,54.168,64.0627 C54.168,71.5432,48.1055,77.6057,40.625,77.6057 Z M40.625,54.7657 C40.1367,54.7657,39.7422,55.1602,39.7422,55.6485 C39.7422,56.1367,40.1367,56.5313,40.625,56.5313 C42.2539,56.5313,43.7852,57.0782,45.0078,58.0196 C46.2305,58.9571,47.1562,60.293,47.5781,61.8673 C47.7031,62.3399,48.1875,62.6173,48.6562,62.4923 C49.1289,62.3673,49.4062,61.8829,49.2812,61.4142 C48.7578,59.4572,47.6054,57.7931,46.0781,56.6212 C44.5508,55.4493,42.6523,54.7696,40.625,54.7696 Z M67.707,77.6057 C60.2265,77.6057,54.164,71.5432,54.164,64.0627 C54.164,56.5822,60.2265,50.5197,67.707,50.5197 C75.1875,50.5197,81.25,56.5822,81.25,64.0627 C81.25,71.5432,75.1875,77.6057,67.707,77.6057 Z M67.707,54.7657 C67.2187,54.7657,66.8242,55.1602,66.8242,55.6485 C66.8242,56.1367,67.2187,56.5313,67.707,56.5313 C69.3359,56.5313,70.8672,57.0782,72.0898,58.0196 C73.3125,58.9571,74.2343,60.293,74.6562,61.8673 C74.7812,62.3399,75.2656,62.6173,75.7343,62.4923 C76.207,62.3673,76.4843,61.8829,76.3593,61.4142 C75.8359,59.4572,74.6835,57.7931,73.1562,56.6212 C71.6289,55.4493,69.7304,54.7696,67.7031,54.7696 Z M27.082,54.1524 C19.6015,54.1524,13.539,48.0899,13.539,40.6094 C13.539,33.1289,19.6015,27.0664,27.082,27.0664 C34.5625,27.0664,40.625,33.1289,40.625,40.6094 C40.625,48.0899,34.5625,54.1524,27.082,54.1524 Z M27.082,31.3124 C26.5937,31.3124,26.1992,31.7069,26.1992,32.1952 C26.1992,32.6835,26.5937,33.078,27.082,33.078 C28.7109,33.078,30.2422,33.6249,31.4648,34.5663 C32.6875,35.5038,33.6132,36.8397,34.0312,38.414 C34.1562,38.8827,34.6406,39.164,35.1093,39.039 C35.578,38.914,35.8593,38.4296,35.7343,37.9609 C35.2109,36.0039,34.0585,34.3398,32.5312,33.1679 C31.0039,31.996,29.1054,31.3163,27.0781,31.3163 Z M54.164,54.1524 C46.6835,54.1524,40.621,48.0899,40.621,40.6094 C40.621,33.1289,46.6835,27.0664,54.164,27.0664 C61.6445,27.0664,67.707,33.1289,67.707,40.6094 C67.707,48.0899,61.6445,54.1524,54.164,54.1524 Z M54.164,31.3124 C53.6757,31.3124,53.2812,31.7069,53.2812,32.1952 C53.2812,32.6835,53.6757,33.078,54.164,33.078 C55.7968,33.078,57.3242,33.6249,58.5468,34.5663 C59.7695,35.5038,60.6952,36.8397,61.1171,38.414 C61.2421,38.8827,61.7265,39.164,62.1952,39.039 C62.6639,38.914,62.9452,38.4296,62.8202,37.9609 C62.2968,36.0039,61.1444,34.3398,59.6171,33.1679 C58.0898,31.996,56.1913,31.3163,54.164,31.3163 Z M40.621,30.7303 C33.1405,30.7303,27.078,24.6678,27.078,17.1873 C27.078,9.70684,33.1405,3.64434,40.621,3.64434 C48.1015,3.64434,54.164,9.70684,54.164,17.1873 C54.164,24.6678,48.1015,30.7303,40.621,30.7303 Z M40.621,7.89034 C40.1327,7.89034,39.7382,8.28487,39.7382,8.77315 C39.7382,9.26144,40.1327,9.65597,40.621,9.65597 C42.2499,9.65597,43.7812,10.2028,45.0038,11.1443 C46.2265,12.0818,47.1522,13.4177,47.5741,14.992 C47.6991,15.4607,48.1835,15.742,48.6522,15.617 C49.1249,15.492,49.4022,15.0076,49.2772,14.5389 C48.7538,12.5819,47.6014,10.9178,46.0741,9.74587 C44.5468,8.57396,42.6483,7.89426,40.621,7.89426 Z" fill="black" stroke="none" stroke-width="0" opacity="1.0" />
</g>
<text x="84.375" y="383.68055555555554" font-size="7.5" font-family="Arial" text-anchor="middle" fill="black">rock cache</text>
<text x="84.375" y="400.34722222222223" font-size="6.818181818181818" font-family="Courier New" text-anchor="middle" fill="black">"rockcache"</text>
<g id="import" transform="translate(115.625, 321.875) scale(0.05458515283842795)">
<path d="M229.0,871.451 L687.0,871.451 L687.0,193.45 L631.0,193.45 C631.2,169.35,631.7,145.15,630.9,121.15 C629.6,78.7501,595.1,44.9501,552.6,44.4501 C543.3,44.3501,534.0,44.5501,524.7,44.5501 L365.7,44.5501 C335.8,44.5501,306.1,60.0501,293.2,87.8501 C287.5,100.15,284.9,112.45,284.9,125.95 L284.9,193.45 C265.9,193.35,247.6,193.15,228.9,193.45 L228.9,871.451 Z M571.0,148.65 L571.0,193.45 L345.0,193.45 L345.0,120.65 C345.0,120.85,344.9,121.05,344.9,121.25 C344.7,122.05,344.6,122.85,344.5,123.55 C344.5,123.15,344.6,122.85,344.6,122.45 C344.6,122.55,344.5,122.75,344.5,122.85 C344.6,122.15,344.6,121.35,344.7,120.65 C344.8,119.85,344.9,119.05,345.0,118.25 C344.9,118.55,344.7,118.85,344.6,119.15 C344.7,118.85,344.9,118.55,345.0,118.25 L345.0,118.05 C345.1,117.95,345.1,117.75,345.2,117.65 C345.2,117.45,345.3,117.15,345.3,116.95 C345.2,117.15,345.1,117.35,345.0,117.45 C345.0,116.85,345.3,116.25,345.4,115.65 L345.4,116.45 C345.4,116.15,345.5,115.95,345.5,115.65 C345.5,116.05,345.4,116.35,345.4,116.75 C345.4,116.35,345.5,116.05,345.5,115.65 C345.5,116.05,345.4,116.45,345.4,116.85 C346.2,115.35,346.7,113.85,347.4,112.35 C347.4,112.25,347.6,112.25,347.6,112.15 C347.4,112.65,347.2,113.25,347.0,113.75 C346.8,114.35,346.6,114.85,346.4,115.35 C347.0,114.25,347.6,113.15,348.3,112.05 L347.3,113.05 C347.7,112.65,348.1,112.15,348.5,111.75 C348.6,111.55,348.7,111.35,348.9,111.15 C349.9,109.65,351.1,108.75,350.8,109.25 C351.1,108.95,351.4,108.55,351.8,108.25 C347.4,111.15,351.4,108.25,353.1,107.05 C352.7,107.35,352.3,107.75,351.9,108.15 C353.2,107.25,354.6,106.45,356.1,105.75 L352.8,106.95 C354.6,106.15,356.4,105.45,358.3,104.65 C357.7,104.75,357.1,104.75,356.4,104.85 C357.1,104.75,357.7,104.65,358.4,104.55 C358.9,104.35,359.4,104.15,360.0,103.85 C359.5,104.05,359.0,104.25,358.6,104.45 C360.6,104.15,362.5,103.95,364.4,103.65 C363.3,103.85,362.2,104.05,361.1,104.35 C367.5,103.95,374.0,104.35,380.3,104.35 L531.3,104.35 C539.1,104.35,547.3,103.85,555.2,104.35 C554.1,104.15,553.0,103.85,551.9,103.75 C552.1,103.75,552.4,103.85,552.6,103.85 C552.4,103.85,552.1,103.75,551.9,103.75 C553.4,103.95,554.9,104.15,556.3,104.35 C556.8,104.45,557.2,104.45,557.7,104.55 C557.7,104.55,557.6,104.55,557.5,104.45 C557.2,104.45,556.9,104.15,556.5,104.05 C556.4,104.05,556.3,103.95,556.2,103.95 C556.3,103.95,556.4,104.05,556.4,104.05 L556.3,104.05 L556.4,104.05 C556.7,104.25,557.1,104.35,557.4,104.55 C557.5,104.55,557.5,104.65,557.6,104.65 C558.3,104.75,558.9,104.85,559.6,104.95 C559.0,104.85,558.4,104.75,557.7,104.75 C559.5,105.55,561.4,106.25,563.2,107.05 C562.1,106.65,561.0,106.25,559.9,105.85 C561.0,106.45,562.1,107.05,563.2,107.75 C562.9,107.45,562.6,107.15,562.2,106.75 C562.6,107.15,563.0,107.55,563.5,107.95 C563.7,108.05,563.9,108.25,564.1,108.35 C565.6,109.35,566.5,110.55,566.0,110.25 C566.3,110.55,566.6,110.85,567.0,111.25 C564.1,106.85,567.0,110.85,568.2,112.55 C567.9,112.15,567.5,111.75,567.0,111.35 C567.9,112.65,568.7,114.05,569.4,115.55 C569.1,114.45,568.6,113.35,568.2,112.25 C569.0,114.05,569.8,115.95,570.5,117.75 C570.4,117.15,570.4,116.45,570.3,115.85 C570.4,116.55,570.5,117.15,570.6,117.85 C570.8,118.35,571.0,118.85,571.2,119.35 C571.0,118.85,570.8,118.45,570.6,117.95 C570.9,119.85,571.1,121.85,571.4,123.75 C571.4,123.45,571.3,123.25,571.3,122.95 C571.2,122.25,571.0,121.45,570.9,120.75 C572.0,129.95,571.0,139.45,571.0,148.65 Z" fill="black" stroke="none" stroke-width="0.99999938599" opacity="1.0" />
<path d="M87.1999,193.45 C86.2999,193.45,85.4999,193.55,84.5999,193.75 C56.7999,194.75,31.6999,208.55,15.5999,231.25 C5.09992,245.85,-8e-05,263.95,-8e-05,281.85 L-8e-05,320.95 L-8e-05,771.85 L-8e-05,783.75 C0.09993,804.85,7.39992,824.45,20.6999,840.75 C36.8999,860.45,62.0999,871.35,87.3999,871.55 C96.9999,871.65,106.6,871.45,116.2,871.45 L169.0,871.45 L169.0,193.45 Z" fill="black" stroke="none" stroke-width="0.999999" opacity="1.0" />
<path d="M916.0,782.55 C916.0,813.75,900.5,842.85,873.6,859.15 C857.9,868.65,840.4,871.45,822.5,871.45 L747.0,871.45 L747.0,193.45 L806.1,193.45 C813.6,193.45,821.1,193.45,828.6,193.55 C876.2,193.95,915.1,232.65,915.9,280.15 L915.9,280.85 L915.9,698.85 C916.0,726.75,916.0,754.65,916.0,782.55 Z" fill="black" stroke="none" stroke-width="0.999999" opacity="1.0" />
</g>
<text x="140.625" y="383.68055555555554" font-size="9.375" font-family="Arial" text-anchor="middle" fill="black">suitcase</text>
<text x="140.625" y="400.34722222222223" font-size="7.5" font-family="Courier New" text-anchor="middle" fill="black">"suitcase"</text>
<g id="import" transform="translate(171.875, 321.875) scale(0.5333333333333333)">
<path d="M60.418,4.1680155 H33.336 C24.312171,4.1680155,26.043,2.948338,26.043,11.461016 V18.754016 H33.336 V11.461016 H60.418 V18.754016 H67.711 V11.461016 C67.711,3.0259311,69.445829,4.1680155,60.418,4.1680155 Z" fill="black" stroke="none" stroke-width="0" opacity="1.0" />
<path d="M85.418,89.581985 H75.0 V20.831985 H85.418 Z" fill="black" stroke="none" stroke-width="0" opacity="1.0" />
<path d="M18.75,89.581985 H8.332 V20.831985 H18.75 Z" fill="black" stroke="none" stroke-width="0" opacity="1.0" />
<path d="M87.5,16.667985 V18.812485 C87.15625,18.769516,86.8125,18.749985,86.457,18.749985 H72.914 V16.667985 C72.914,15.523485,73.8515,14.585985,74.996,14.585985 H85.414 C86.5585,14.585985,87.496,15.523485,87.496,16.667985 Z" fill="black" stroke="none" stroke-width="0" opacity="1.0" />
<path d="M20.832,16.667985 V18.749985 H7.289 C6.93353,18.749985,6.58978,18.769516,6.246,18.812485 V16.667985 C6.246,15.523485,7.1835,14.585985,8.328,14.585985 H18.746 C19.8905,14.585985,20.828,15.523485,20.828,16.667985 Z" fill="black" stroke="none" stroke-width="0" opacity="1.0" />
<path d="M93.75,35.417985 V74.999985 H87.5 V35.417985 Z" fill="black" stroke="none" stroke-width="0" opacity="1.0" />
<path d="M20.832,35.417985 H72.914 V74.999985 H20.832 Z" fill="black" stroke="none" stroke-width="0" opacity="1.0" />
<path d="M0.0,35.417985 H6.25 V74.999985 H0.0 Z" fill="black" stroke="none" stroke-width="0" opacity="1.0" />
<path d="M93.75,77.081985 V82.288984 C93.75,85.956985,91.0312,88.995984,87.5,89.495984 V77.077985 H93.75 Z" fill="black" stroke="none" stroke-width="0" opacity="1.0" />
<path d="M20.832,77.081985 H72.914 V89.581985 H20.832 Z" fill="black" stroke="none" stroke-width="0" opacity="1.0" />
<path d="M0.0,77.081985 H6.25 V89.499985 C2.7188,88.999985,0.0,85.956985,0.0,82.292984 Z" fill="black" stroke="none" stroke-width="0" opacity="1.0" />
<path d="M93.75,28.128985 V33.335985 H87.5 V20.917985 C91.0312,21.417985,93.75,24.460985,93.75,28.124985 Z" fill="black" stroke="none" stroke-width="0" opacity="1.0" />
<path d="M20.832,20.835985 H72.914 V33.335985 L20.832,33.332078 V20.832078 Z" fill="black" stroke="none" stroke-width="0" opacity="1.0" />
<path d="M6.25,20.918016 V33.336016 L0.0,33.332109 V28.125109 C0.0,24.457109,2.7188,21.418109,6.25,20.918109 Z" fill="black" stroke="none" stroke-width="0" opacity="1.0" />
</g>
<text x="196.875" y="383.68055555555554" font-size="8.333333333333332" font-family="Arial" text-anchor="middle" fill="black">briefcase</text>
<text x="196.875" y="400.34722222222223" font-size="6.818181818181818" font-family="Courier New" text-anchor="middle" fill="black">"briefcase"</text>
</svg>