<?xml version="1.0" encoding="UTF-8"?>
<svg xmlns="http://www.w3.org/2000/svg" xmlns:xlink="http://www.w3.org/1999/xlink"
     width="562.5" height="106.25" viewBox="0 0 562.5 106.25">
<defs>
</defs>
<rect x="0" y="0" width="562.5" height="106.25" fill="white" />
<g id="import" transform="translate(3.125, 3.125) scale(0.5672728987335395)">
<path d="M41.2134,11.192 L41.2134,27.684 L46.1001,27.684 L46.1001,11.192 Z M21.6394,14.3248 L21.6394,24.5548 L13.9324,24.5548 C12.2058,24.5548,10.8308,26.0236,10.8308,27.754 L10.8308,49.379 C10.8308,52.3673,13.1785,54.9063,16.1511,54.9063 L53.6981,54.9063 C56.6747,54.9063,59.0183,52.3711,59.0183,49.379 L59.0183,25.59 L68.6825,25.59 L68.6825,57.625 C68.6825,64.5781,63.2996,70.555,56.3935,70.555 L13.4485,70.555 C6.54225,70.555,1.15945,64.5823,1.15945,57.625 L1.16726,22.035 C1.16726,17.8905,4.36256,14.3241,8.47586,14.3241 Z M19.1003,76.9068 L50.7523,76.9068 L50.7523,72.6685 L19.1003,72.6685 Z M9.42835,88.1408 L60.4244,88.1408 L60.4244,83.5783 C60.4244,81.0705,58.3697,79.0158,55.8619,79.0158 L13.9909,79.0158 C11.4831,79.0158,9.42835,81.0705,9.42835,83.5783 Z M77.1944,2.34385 C77.1944,3.20322,77.6279,3.98835,78.3311,4.40245 L78.3311,9.08605 L80.4365,9.08605 L80.4365,4.40245 C82.4013,3.25015,81.6513,0.000149,79.3819,0.000149 C78.1358,0.000149,77.1944,1.08215,77.1944,2.34395 Z M77.1944,36.5588 C77.1944,39.6447,81.5694,39.6447,81.5694,36.5588 C81.5694,35.6995,81.1358,34.9143,80.4326,34.5002 L80.4326,29.7893 L78.3272,29.7893 L78.3272,34.5002 C77.6279,34.9143,77.1944,35.7033,77.1944,36.5588 Z M78.0889,27.6838 L81.8272,27.6838 L81.8272,11.1918 L76.9405,11.1918 L76.9405,27.6838 Z M74.8311,23.4807 L74.8311,15.3948 L48.2101,15.3948 L48.2101,23.4807 Z M83.9366,15.3987 L83.9366,23.4846 C87.5186,23.4846,86.9483,23.6682,86.9483,16.8479 C86.9483,15.0667,85.0264,15.3987,83.9366,15.3987 Z M23.7526,11.1917 L23.7526,27.6837 L28.6393,27.6837 L28.6393,11.1917 Z" fill="black" stroke="none" stroke-width="0" opacity="1.0" />
</g>
<text x="28.125" y="64.93055555555556" font-size="5.357142857142858" font-family="Arial" text-anchor="middle" fill="black">workbench vice</text>
<text x="28.125" y="81.59722222222223" font-size="12.5" font-family="Courier New" text-anchor="middle" fill="black">"vice"</text>
<g id="import" transform="translate(59.375, 3.125) scale(0.625)">
<path d="M0.0,66.4998 H80.0 V73.8982 H0.0 Z" fill="black" stroke="none" stroke-width="0" opacity="1.0" />
<path d="M4.398,26.1988 V63.1988 H75.597 V26.1988 Z M20.398,45.8008 H9.0 C8.10156,45.8008,7.3008,45.00002,7.3008,44.1016 C7.3008,43.20316,8.10158,42.4024,9.0,42.4024 H20.398 C21.29644,42.4024,22.0972,43.10162,22.0972,44.1016 C22.101106,45.1016,21.30032,45.8008,20.398,45.8008 Z M47.5,43.1992 L38.8008,60.0002 C38.50002,60.60176,38.00002,61.0002,37.3008,61.0002 C37.19924,61.0002,37.00002,61.0002,36.8008,60.89864 C36.00002,60.69942,35.5,59.89864,35.6016,59.09784 L36.6016,48.49584 L34.0,48.499746 C33.39844,48.499746,32.8984,48.198966,32.6016,47.698966 C32.30082,47.198966,32.30082,46.597366,32.50004,46.097366 L41.10164,29.199366 C41.50008,28.500146,42.30084,28.097766,43.10164,28.398586 C43.90242,28.597806,44.40244,29.398586,44.30084,30.199386 L43.30084,40.801386 H46.00004 C46.6016,40.801386,47.10164,41.102166,47.39844,41.602166 C47.69922,42.102166,47.69922,42.699866,47.5,43.199866 Z M71.0,45.8008 H67.0 V49.8008 C67.0,50.69924,66.30078,51.5,65.3008,51.5 C64.40236,51.5,63.6016,50.80078,63.6016,49.8008 V45.8008 H59.6016 C58.70316,45.8008,57.9024,45.00002,57.9024,44.1016 C57.9024,43.20316,58.70318,42.4024,59.6016,42.4024 H63.6016 V38.4024 C63.6016,37.50396,64.30082,36.7032,65.3008,36.7032 C66.19924,36.7032,67.0,37.40242,67.0,38.4024 V42.4024 H71.0 C71.89844,42.4024,72.6992,43.10162,72.6992,44.1016 C72.6992,45.10158,71.89842,45.8008,71.0,45.8008 Z" fill="black" stroke="none" stroke-width="0" opacity="1.0" />
<path d="M0.0,15.3978 H80.0 V22.7962 H0.0 Z" fill="black" stroke="none" stroke-width="0" opacity="1.0" />
<path d="M6.199,6.1018 H13.0974 V12.1018 H6.199 Z" fill="black" stroke="none" stroke-width="0" opacity="1.0" />
<path d="M66.898,6.1018 H73.7964 V12.1018 H66.898 Z" fill="black" stroke="none" stroke-width="0" opacity="1.0" />
</g>
<text x="84.375" y="64.93055555555556" font-size="6.818181818181818" font-family="Arial" text-anchor="middle" fill="black">car battery</text>
<text x="84.375" y="81.59722222222223" font-size="8.333333333333332" font-family="Courier New" text-anchor="middle" fill="black">"battery"</text>
<g id="import" transform="translate(115.625, 3.125) scale(0.5832604393878201)">
<path d="M18.8784,6.10848 C20.2729,4.71397,20.2729,2.45228,18.8784,1.05767 C17.4839,-0.336825,15.2222,-0.336825,13.8276,1.05767 C-2.1884,17.0697,-2.1884,43.1237,13.8276,59.1357 C14.5268,59.8349,15.4409,60.1826,16.351,60.1826 C17.2651,60.1826,18.1791,59.8349,18.8744,59.1357 C20.2689,57.7412,20.2689,55.4795,18.8744,54.0849 C5.6474,40.8579,5.6474,19.3389,18.8783,6.10787 Z" fill="black" stroke="none" stroke-width="0" opacity="1.0" />
<path d="M61.8034,49.0465 C61.1237,49.7262,60.1979,50.0817,59.2682,50.0817 C58.3737,50.0817,57.4479,49.7262,56.7682,49.0465 C55.3737,47.652,55.3737,45.3668,56.7682,43.9762 C64.4127,36.3317,64.4127,23.8712,56.7682,16.2262 C55.3737,14.8317,55.3737,12.5465,56.7682,11.1559 C58.1627,9.76137,60.4127,9.76137,61.8034,11.1559 C72.2294,21.6169,72.2294,38.5819,61.8034,49.0469 Z" fill="black" stroke="none" stroke-width="0" opacity="1.0" />
<path d="M83.9094,30.0815 C83.9094,41.0815,79.6594,51.4015,71.9094,59.1515 C71.1946,59.8312,70.3039,60.1867,69.3742,60.1867 C68.4797,60.1867,67.5539,59.8312,66.839,59.1515 C65.4445,57.757,65.4445,55.4718,66.839,54.0812 C73.2687,47.6867,76.7687,39.1862,76.7687,30.0812 C76.7687,21.0109,73.2687,12.5112,66.839,6.11618 C65.4445,4.72168,65.4445,2.43647,66.839,1.04587 C68.2687,-0.348625,70.5187,-0.348625,71.9093,1.04587 C79.6593,8.79588,83.9093,19.1159,83.9093,30.0809 Z" fill="black" stroke="none" stroke-width="0" opacity="1.0" />
<path d="M26.4444,50.0815 C25.5499,50.0815,24.6241,49.726,23.9092,49.0463 C13.4792,38.5813,13.4792,21.6163,23.9092,11.1513 C25.3389,9.75677,27.5889,9.75677,28.9795,11.1513 C30.374,12.5458,30.374,14.831,28.9795,16.2216 C21.335,23.8661,21.335,36.3266,28.9795,43.9716 C30.374,45.3661,30.374,47.6513,28.9795,49.0419 C28.2647,49.7255,27.374,50.081,26.4443,50.081 Z" fill="black" stroke="none" stroke-width="0" opacity="1.0" />
<path d="M50.5144,39.9015 C53.4441,37.6163,55.3699,34.0812,55.3699,30.0812 C55.3699,23.2257,49.7644,17.6162,42.8699,17.6162 C35.9754,17.6162,30.3699,23.2217,30.3699,30.0812 C30.3699,34.0812,32.2996,37.6164,35.1902,39.9015 L24.0882,81.2255 C23.5882,83.12,24.7327,85.081,26.6234,85.62 C26.9437,85.6903,27.2289,85.7254,27.5531,85.7254 C29.1234,85.7254,30.5883,84.6902,31.0179,83.0809 L35.0179,68.1859 L50.7329,68.1859 L54.6977,83.0809 C55.1274,84.6864,56.5922,85.7254,58.1625,85.7254 C58.4476,85.7254,58.768,85.6903,59.0922,85.62 C60.9867,85.0848,62.1274,83.1552,61.6274,81.2255 Z M36.9094,61.0465 L41.9094,42.5115 C42.2297,42.5115,42.5539,42.5818,42.8742,42.5818 C43.1945,42.5818,43.5188,42.5115,43.8391,42.5115 L48.8039,61.0465 Z" fill="black" stroke="none" stroke-width="0" opacity="1.0" />
</g>
<text x="140.625" y="64.93055555555556" font-size="6.818181818181818" font-family="Arial" text-anchor="middle" fill="black">transmitter</text>
<text x="140.625" y="81.59722222222223" font-size="5.769230769230769" font-family="Courier New" text-anchor="middle" fill="black">"transmitter"</text>
<g id="import" transform="translate(171.875, 3.125) scale(0.6483654958711631)">
<path d="M12.7026,38.3863 C11.8788,36.9218,11.0632,35.4395,10.2086,33.9791 C10.0353,33.6826,9.74206,33.4412,9.46666,33.2217 C8.40718,32.3785,8.38774,31.3328,9.47233,30.5228 C10.6144,29.669,11.9744,29.3604,13.3417,29.1531 C18.7209,28.3358,24.1034,28.3155,29.4672,29.2689 C30.4359,29.4406,31.3942,29.7986,32.2884,30.2174 C32.7687,30.4426,33.1997,30.9213,33.4791,31.3895 C33.8274,31.9719,33.5342,32.7122,32.8173,33.1925 C32.3313,33.5182,32.0373,33.9361,31.7959,34.4432 C31.1374,35.8234,30.4562,37.1931,29.7879,38.5572 C30.5728,40.0184,30.3509,41.0001,28.8087,41.6222 C27.4884,42.1544,26.0555,42.4986,24.6404,42.689 C21.4814,43.1142,18.3167,43.0162,15.1982,42.2799 C14.5842,42.1349,13.9727,41.9122,13.4114,41.6238 C11.8473,40.8211,11.631,39.7884,12.7026,38.3863 Z M31.1682,31.8731 C26.3414,30.3989,14.2044,30.4256,11.2252,31.899 C16.0026,33.3221,26.1259,33.3205,31.1682,31.8731 Z" fill="black" stroke="none" stroke-width="0.81" opacity="1.0" />
<path d="M77.0628,11.1939 L77.0628,14.0739 C77.0628,27.5149,77.0148,40.9589,77.1168,54.403 C77.1318,56.471,76.6068,57.4159,74.5428,58.0389 C66.9078,60.345,59.3518,62.904,51.7428,65.3039 C50.5338,65.686,49.2158,65.9149,47.9498,65.917 C35.6898,65.9389,23.4288,65.8959,11.1688,65.874 C7.49184,65.869,3.81484,65.874,-0.000157,65.874 L-0.000157,11.1939 L77.0628,11.1939 Z M69.9098,18.215 L7.02484,18.215 L7.02484,58.768 L47.0078,58.768 C47.5818,55.5349,48.1328,52.422,48.6998,49.231 C55.8638,48.716,62.8878,48.211,69.9088,47.7079 C69.9098,37.712,69.9098,27.9929,69.9098,18.215 Z M52.0308,57.8769 C57.1708,56.216,62.0388,54.6419,66.9058,53.067 C62.3568,52.962,57.8838,53.2459,53.4168,53.5929 C53.1068,53.6169,52.6558,54.086,52.5758,54.4209 C52.3298,55.4669,52.2288,56.547,52.0308,57.8769 Z" fill="black" stroke="none" stroke-width="0" opacity="1.0" />
<path d="M21.1833,27.0203 C20.8553,26.4987,20.5523,26.0168,20.2048,25.4627 C21.0821,24.9386,20.8536,24.2526,20.4997,23.53 C20.0388,22.5896,19.7399,21.6241,20.2591,20.5995 C20.3069,20.5055,20.3579,20.4116,20.4171,20.3241 C20.4511,20.2739,20.5037,20.239,20.5807,20.1669 C20.9962,20.4618,21.4134,20.7485,21.8159,21.0539 C21.9002,21.1171,21.9544,21.2467,21.9795,21.3552 C22.1091,21.9198,22.2217,22.4892,22.3481,23.0554 C22.3708,23.1575,22.4323,23.2498,22.4728,23.3478 C23.1767,25.0188,22.8325,26.0435,21.1833,27.0203 Z" fill="black" stroke="none" stroke-width="0.81" opacity="1.0" />
<path d="M24.9142,27.0171 C24.5918,26.5019,24.2897,26.0208,23.943,25.4692 C24.8397,24.9208,24.5643,24.2088,24.2095,23.4831 C23.6733,22.3855,23.4294,21.2888,24.2816,20.1499 C24.7263,20.4642,25.158,20.7582,25.5743,21.0733 C25.6521,21.1316,25.6861,21.2701,25.7072,21.3787 C25.8044,21.8639,25.8611,22.358,25.9874,22.8351 C26.079,23.1793,26.279,23.4936,26.3932,23.8338 C26.8444,25.1727,26.3932,26.1674,24.9142,27.0171 Z" fill="black" stroke="none" stroke-width="0.81" opacity="1.0" />
<path d="M17.2767,26.9847 C16.9656,26.4938,16.6514,25.9965,16.3403,25.5064 C17.062,24.7369,17.0823,24.6073,16.6481,23.6313 C16.2763,22.7946,15.8802,21.957,16.2067,21.0077 C16.3071,20.7161,16.4659,20.4448,16.6157,20.1256 C16.8919,20.3152,17.1042,20.452,17.3067,20.6027 C17.7246,20.9129,18.1466,21.1049,18.077,21.8542 C18.0227,22.4398,18.4933,23.0708,18.7185,23.6864 C19.249,25.1355,18.7485,26.3059,17.2767,26.9847 Z" fill="black" stroke="none" stroke-width="0.81" opacity="1.0" />
<path d="M36.7568,41.591 L36.7568,38.4879 L65.1468,38.4879 L65.1468,41.591 L36.7568,41.591 Z" fill="black" stroke="none" stroke-width="0" opacity="1.0" />
<path d="M65.1988,24.4439 L65.1988,27.5059 L36.8318,27.5059 L36.8318,24.4439 L65.1988,24.4439 Z" fill="black" stroke="none" stroke-width="0" opacity="1.0" />
<path d="M36.7278,34.2319 L36.7278,31.3199 L65.1988,31.3199 L65.1988,34.2319 L36.7278,34.2319 Z" fill="black" stroke="none" stroke-width="0" opacity="1.0" />
<path d="M12.0958,55.433 L12.0958,52.447 L40.5428,52.447 L40.5428,55.433 L12.0958,55.433 Z" fill="black" stroke="none" stroke-width="0" opacity="1.0" />
<path d="M12.1318,45.653 L40.5038,45.653 L40.5038,48.6359 L12.1318,48.6359 L12.1318,45.653 Z" fill="black" stroke="none" stroke-width="0" opacity="1.0" />
</g>
<text x="196.875" y="64.93055555555556" font-size="6.818181818181818" font-family="Arial" text-anchor="middle" fill="black">recipe card</text>
<text x="196.875" y="81.59722222222223" font-size="9.375" font-family="Courier New" text-anchor="middle" fill="black">"recipe"</text>
<g id="import" transform="translate(228.125, 3.125) scale(0.5257623664723947)">
<path d="M4.6994126,0.00019473706 C2.2994128,0.00019473706,0.40058465,1.900976,0.40058465,4.3009759 V90.800976 C0.40058465,93.200976,2.2994128,95.099804,4.6994126,95.099804 H90.400584 C92.800584,95.099804,94.699414,93.200976,94.699414,90.800976 V4.3009759 C94.599414,1.900976,92.700974,0.00019473706,90.300974,0.00019473706 Z M8.9005846,8.5001947 H86.099802 V68.000195 H8.9005846 Z M65.000193,17.099804 A6.5999999,6.5999999,0.0,0,0,58.400584,23.699414 A6.5999999,6.5999999,0.0,0,0,65.000193,30.300976 A6.5999999,6.5999999,0.0,0,0,71.599802,23.699414 A6.5999999,6.5999999,0.0,0,0,65.000193,17.099804 Z M39.312693,26.000195 C38.750193,26.025195,38.200584,26.300976,37.900584,26.800976 L19.099802,56.800976 C18.299802,58.000976,19.100193,59.500195,20.500193,59.500195 H74.199412 C75.599412,59.500195,76.499802,57.899414,75.599802,56.699414 L62.400584,38.099804 C61.800584,37.199804,60.499412,37.100586,59.699412,37.900586 L55.000193,42.500195 C54.200193,43.200195,53.000974,43.100976,52.300974,42.300976 L40.800974,26.699414 C40.450974,26.199414,39.875193,25.975195,39.312693,26.000195 Z" fill="black" stroke="none" stroke-width="0" opacity="1.0" />
</g>
<text x="253.125" y="64.93055555555556" font-size="9.375" font-family="Arial" text-anchor="middle" fill="black">polaroid</text>
<text x="253.125" y="81.59722222222223" font-size="7.5" font-family="Courier New" text-anchor="middle" fill="black">"polaroid"</text>
<g id="import" transform="translate(284.375, 3.125) scale(0.5646272267246287)">
<path d="M27.7771,10.7031 L30.906,2.7617 C31.56225,1.0976,33.1716,0.0,34.9607,0.0 H53.1947 C54.9291,0.0,56.4994,1.0312,57.1908,2.6211 L60.7025,10.6992 H27.7765 Z M34.0701,42.0581 C34.0701,36.4448,38.6365,31.8821,44.2461,31.8821 C44.89454,31.8821,45.418,31.35866,45.418,30.7102 C45.418,30.06176,44.89456,29.5383,44.2461,29.5383 C37.3399,29.5383,31.7261,35.1555,31.7261,42.0583 C31.7261,42.70674,32.24954,43.2302,32.898,43.2302 C33.54646,43.2302,34.0699,42.70676,34.0699,42.0583 Z M0.32010064,29.3741 V20.1944 C0.32010064,16.2647,3.5349006,13.046,7.4685006,13.046 H81.0855 C85.0152,13.046,88.2339,16.2608,88.2339,20.1944 V29.3741 H65.7729 C61.4174,22.0186,53.4059,17.0691,44.2529,17.0691 C35.1006,17.0691,27.0889,22.0144,22.7329,29.3741 Z M68.8941,21.7413 C68.8941,23.8272,70.5855,25.5186,72.6714,25.5186 C74.7573,25.5186,76.4487,23.8272,76.4487,21.7413 C76.4487,19.6554,74.7573,17.964,72.6714,17.964 C70.5855,17.964,68.8941,19.6554,68.8941,21.7413 Z M10.2771,22.9444 C10.2771,24.1827,11.281,25.1866,12.5193,25.1866 H17.949 C19.1873,25.1866,20.1912,24.1827,20.1912,22.9444 V21.4717 C20.1912,20.2334,19.1873,19.2295,17.949,19.2295 H12.5193 C11.281,19.2295,10.2771,20.2334,10.2771,21.4717 Z M66.8941,42.0574 C66.8941,54.5454,56.7341,64.7054,44.2491,64.7054 C31.7611,64.7054,21.6011,54.5454,21.6011,42.0574 C21.6011,29.5694,31.7611,19.4124,44.2491,19.4124 C56.7371,19.4124,66.8941,29.5724,66.8941,42.0574 Z M61.355,42.0574 C61.355,32.6121,53.6948,24.9524,44.25,24.9524 C34.8047,24.9524,27.145,32.6126,27.145,42.0574 C27.145,51.5022,34.8052,59.1624,44.25,59.1624 C53.6953,59.1624,61.355,51.5022,61.355,42.0574 Z M76.793,10.7024 V8.2454 C76.793,7.0852,75.8555,6.1477,74.6953,6.1477 H68.1641 C67.0039,6.1477,66.0664,7.0852,66.0664,8.2454 V10.7024 Z M65.738,72.3074 V80.0808 H22.812 V72.3074 H16.4175 V85.5184 C16.4175,87.1942,17.773,88.5536,19.4527,88.5536 H69.1007 C70.7765,88.5536,72.1359,87.1942,72.1359,85.5184 V72.3074 H65.7414 Z M66.9919,31.7174 C68.4333,34.8697,69.2419,38.3697,69.2419,42.0574 C69.2419,55.8384,58.0309,67.0494,44.2539,67.0494 C30.4769,67.0494,19.2619,55.8384,19.2619,42.0574 C19.2619,38.3699,20.07049,34.8699,21.5119,31.7174 H0.32090064 V70.1744 C0.32090064,74.1041,3.5357006,77.3228,7.4693006,77.3228 H14.0748 V72.3072 H12.4615 C11.81306,72.3072,11.2896,71.78376,11.2896,71.1353 C11.2896,70.48684,11.81304,69.9634,12.4615,69.9634 H76.0905 C76.73894,69.9634,77.2624,70.48684,77.2624,71.1353 C77.2624,71.78376,76.73896,72.3072,76.0905,72.3072 H74.4772 V77.3228 H81.0827 C85.0124,77.3228,88.2311,74.108,88.2311,70.1744 V31.7174 Z" fill="black" stroke="none" stroke-width="0" opacity="1.0" />
</g>
<text x="309.375" y="64.93055555555556" font-size="12.5" font-family="Arial" text-anchor="middle" fill="black">camera</text>
<text x="309.375" y="81.59722222222223" font-size="9.375" font-family="Courier New" text-anchor="middle" fill="black">"camera"</text>
<g id="import" transform="translate(340.625, 3.125) scale(0.5882352941176471)">
<path d="M33.869141,0.0 C33.189141,0.0,32.630859,0.560234,32.630859,1.240234 V21.810547 H37.699219 V1.240234 C37.689219,0.560234,37.140938,0.0,36.460938,0.0 Z M47.910156,21.769531 C47.830156,21.769531,47.759766,21.839922,47.759766,21.919922 V25.830078 H52.699219 V21.919922 C52.699219,21.829922,52.640547,21.769531,52.560547,21.769531 Z M31.810547,22.810547 V27.849609 H38.5 V22.810547 Z M47.279297,26.820312 V27.849609 H53.189453 V26.820312 Z M30.0,28.849609 C28.72,28.849609,27.679688,29.889922,27.679688,31.169922 V48.980469 C27.679688,49.830469,27.990781,50.639297,28.550781,51.279297 C29.270781,52.099297,29.669922,53.150234,29.669922,54.240234 V82.0 C29.669922,83.66,31.019922,85.0,32.669922,85.0 H52.330078 C53.990078,85.0,55.330078,83.65,55.330078,82.0 V54.240234 C55.330078,53.150234,55.729219,52.099297,56.449219,51.279297 C57.009219,50.639297,57.320312,49.830469,57.320312,48.980469 V31.169922 C57.310313,29.889922,56.27,28.849609,55.0,28.849609 Z M31.800781,32.160156 H53.199219 C53.749219,32.160156,54.199219,32.610156,54.199219,33.160156 V48.470703 C54.199219,49.020703,53.749219,49.470703,53.199219,49.470703 H31.800781 C31.250781,49.470703,30.800781,49.020703,30.800781,48.470703 V33.160156 C30.800781,32.610156,31.250781,32.160156,31.800781,32.160156 Z M31.800781,33.160156 V48.470703 H53.199219 V33.160156 Z M31.890625,53.439453 H53.119141 C53.719141,53.439453,54.210937,53.929297,54.210938,54.529297 V55.150391 H54.199219 C54.199219,55.750391,53.709375,56.240234,53.109375,56.240234 H31.890625 C31.290625,56.240234,30.800781,55.750391,30.800781,55.150391 V54.529297 C30.800781,53.929297,31.290625,53.439453,31.890625,53.439453 Z M31.890625,54.449219 C31.840625,54.449219,31.800781,54.489063,31.800781,54.539062 V55.160156 C31.800781,55.210156,31.840625,55.25,31.890625,55.25 H53.119141 C53.169141,55.25,53.210938,55.210156,53.210938,55.160156 V54.539062 C53.200937,54.489062,53.159375,54.449219,53.109375,54.449219 Z M31.890625,57.359375 H53.119141 C53.719141,57.359375,54.210937,57.849219,54.210938,58.449219 V59.070312 H54.199219 C54.199219,59.670312,53.709375,60.160156,53.109375,60.160156 H31.890625 C31.290625,60.160156,30.800781,59.670313,30.800781,59.070312 V58.449219 C30.800781,57.849219,31.290625,57.359375,31.890625,57.359375 Z M31.890625,58.369141 C31.840625,58.369141,31.800781,58.410938,31.800781,58.460938 V59.080078 C31.800781,59.130078,31.840625,59.169922,31.890625,59.169922 H53.119141 C53.169141,59.169922,53.210938,59.130078,53.210938,59.080078 V58.460938 C53.200937,58.410937,53.159375,58.369141,53.109375,58.369141 Z M31.890625,61.279297 H53.119141 C53.719141,61.279297,54.210937,61.769141,54.210938,62.369141 V62.990234 H54.199219 C54.199219,63.590234,53.709375,64.080078,53.109375,64.080078 H31.890625 C31.290625,64.080078,30.800781,63.590234,30.800781,62.990234 V62.369141 C30.800781,61.769141,31.290625,61.279297,31.890625,61.279297 Z M31.890625,62.289062 C31.840625,62.289062,31.800781,62.330859,31.800781,62.380859 V63.0 C31.800781,63.05,31.840625,63.089844,31.890625,63.089844 H53.119141 C53.169141,63.089844,53.210938,63.05,53.210938,63.0 V62.380859 C53.200937,62.320859,53.159375,62.289063,53.109375,62.289062 Z M31.890625,65.199219 H53.119141 C53.719141,65.199219,54.210937,65.689063,54.210938,66.289062 V66.910156 H54.199219 C54.199219,67.510156,53.709375,68.0,53.109375,68.0 H31.890625 C31.290625,68.0,30.800781,67.510156,30.800781,66.910156 V66.289062 C30.800781,65.689063,31.290625,65.199219,31.890625,65.199219 Z M31.871094,66.210938 C31.829941,66.219277,31.800781,66.257031,31.800781,66.300781 V66.919922 C31.800781,66.969922,31.840625,67.009766,31.890625,67.009766 H53.119141 C53.169141,67.009766,53.210938,66.969922,53.210938,66.919922 V66.300781 C53.200937,66.240781,53.159375,66.210937,53.109375,66.210938 H31.890625 C31.884375,66.210938,31.876973,66.209746,31.871094,66.210938 Z M33.169922,69.779297 H37.789062 C38.279063,69.779297,38.679688,70.179922,38.679688,70.669922 V72.580078 C38.679688,73.070078,38.279063,73.470703,37.789062,73.470703 H33.169922 C32.679922,73.470703,32.279297,73.070078,32.279297,72.580078 V70.669922 C32.279297,70.179922,32.679922,69.779297,33.169922,69.779297 Z M40.189453,69.779297 H44.810547 C45.300547,69.779297,45.699219,70.179922,45.699219,70.669922 V72.580078 C45.699219,73.070078,45.300547,73.470703,44.810547,73.470703 H40.189453 C39.699453,73.470703,39.300781,73.070078,39.300781,72.580078 V70.669922 C39.300781,70.179922,39.699453,69.779297,40.189453,69.779297 Z M47.210938,69.779297 H51.830078 C52.320078,69.779297,52.720703,70.179922,52.720703,70.669922 V72.580078 C52.720703,73.070078,52.320078,73.470703,51.830078,73.470703 H47.210938 C46.720937,73.470703,46.320312,73.070078,46.320312,72.580078 V70.669922 C46.320312,70.179922,46.720937,69.779297,47.210938,69.779297 Z M33.279297,70.779297 V72.470703 H37.679688 V70.779297 Z M40.300781,70.779297 V72.470703 H44.699219 V70.779297 Z M47.320312,70.779297 V72.470703 H51.720703 V70.779297 Z M33.169922,74.099609 H37.789062 C38.279063,74.099609,38.679688,74.500234,38.679688,74.990234 V76.900391 C38.679688,77.390391,38.279063,77.789063,37.789062,77.789062 H33.169922 C32.679922,77.789062,32.279297,77.390391,32.279297,76.900391 V74.990234 C32.279297,74.500234,32.679922,74.099609,33.169922,74.099609 Z M40.189453,74.099609 H44.810547 C45.300547,74.099609,45.699219,74.500234,45.699219,74.990234 V76.900391 C45.699219,77.390391,45.300547,77.789063,44.810547,77.789062 H40.189453 C39.699453,77.789062,39.300781,77.390391,39.300781,76.900391 V74.990234 C39.300781,74.500234,39.699453,74.099609,40.189453,74.099609 Z M47.210938,74.099609 H51.830078 C52.320078,74.099609,52.720703,74.500234,52.720703,74.990234 V76.900391 C52.720703,77.390391,52.320078,77.789063,51.830078,77.789062 H47.210938 C46.720937,77.789062,46.320312,77.390391,46.320312,76.900391 V74.990234 C46.320312,74.500234,46.720937,74.099609,47.210938,74.099609 Z M33.279297,75.099609 V76.789062 H37.679688 V75.099609 Z M40.300781,75.099609 V76.789062 H44.699219 V75.099609 Z M47.320312,75.099609 V76.789062 H51.720703 V75.099609 Z M33.169922,78.419922 H37.789062 C38.279063,78.419922,38.679688,78.820547,38.679688,79.310547 V81.220703 C38.679688,81.710703,38.279063,82.10938,37.789062,82.10938 H33.169922 C32.679922,82.10938,32.279297,81.710703,32.279297,81.220703 V79.310547 C32.279297,78.820547,32.679922,78.419922,33.169922,78.419922 Z M40.189453,78.419922 H44.810547 C45.300547,78.419922,45.699219,78.820547,45.699219,79.310547 V81.220703 C45.699219,81.710703,45.300547,82.10938,44.810547,82.10938 H40.189453 C39.699453,82.10938,39.300781,81.710703,39.300781,81.220703 V79.310547 C39.300781,78.820547,39.699453,78.419922,40.189453,78.419922 Z M47.210938,78.419922 H51.830078 C52.320078,78.419922,52.720703,78.820547,52.720703,79.310547 V81.220703 C52.720703,81.710703,52.320078,82.10938,51.830078,82.10938 H47.210938 C46.720937,82.10938,46.320312,81.710703,46.320312,81.220703 V79.310547 C46.320312,78.820547,46.720937,78.419922,47.210938,78.419922 Z M33.279297,79.419922 V81.109375 H37.679688 V79.419922 Z M40.300781,79.419922 V81.109375 H44.699219 V79.419922 Z M47.320312,79.419922 V81.109375 H51.720703 V79.419922 Z" fill="black" stroke="none" stroke-width="0" opacity="1.0" />
</g>
<text x="365.625" y="64.93055555555556" font-size="3.125" font-family="Arial" text-anchor="middle" fill="black">handheld shortwave radio</text>
<text x="365.625" y="81.59722222222223" font-size="7.5" font-family="Courier New" text-anchor="middle" fill="black">"handheld"</text>
<g id="import" transform="translate(396.875, 3.125) scale(0.6410092131100384)">
<path d="M78.000389,19.289457 C78.016019,24.406657,75.980889,29.316457,72.351989,32.926457 L72.152769,33.125677 L61.367772,42.184277 L57.457572,38.274077 L68.391569,29.090477 C68.415009,29.070945,68.434539,29.051414,68.454069,29.031883 C73.825169,23.660783,73.825169,14.918883,68.454069,9.547883 C63.082972,4.176883,54.341072,4.176783,48.970072,9.547883 C48.950541,9.567414,48.93101,9.590852,48.911478,9.610383 L39.727878,20.548383 L35.817678,16.638183 L44.876278,5.853183 L45.075498,5.653963 V5.650057 C48.692698,2.032857,53.598898,0.001657,58.712498,0.001657 C63.829698,0.001657,68.735499,2.032857,72.353499,5.650057 C75.970699,9.267257,78.001899,14.173457,78.001899,19.291057 Z" fill="black" stroke="none" stroke-width="0" opacity="1.0" />
<path d="M67.070389,27.586457 L56.043392,36.848157 C56.039485,36.848157,56.039485,36.852063,56.035579,36.85597 L52.027779,32.84817 C52.203559,32.81692,52.363719,32.73879,52.500439,32.62942 L63.258439,23.59422 H63.254533 C63.289689,23.56297,63.324846,23.53172,63.356093,23.50047 C65.621693,21.02387,65.535793,17.20747,63.164683,14.83637 C60.793583,12.46527,56.973283,12.38327,54.500583,14.64887 C54.465427,14.68012,54.434177,14.71137,54.406833,14.746526 L45.371633,25.500526 C45.262253,25.637246,45.184133,25.797406,45.152883,25.973186 L41.145083,21.965386 L41.152896,21.957573 L50.414596,10.930573 C52.621596,8.723573,55.617696,7.481373,58.742696,7.481373 C61.867696,7.481373,64.859896,8.723573,67.070799,10.930573 C71.668499,15.532173,71.668499,22.989573,67.070799,27.586573 Z" fill="black" stroke="none" stroke-width="0" opacity="1.0" />
<path d="M63.074392,50.227457 L62.074392,51.227457 C61.105642,52.188397,59.543192,52.188397,58.574392,51.227457 L26.773392,19.426457 C25.812452,18.457707,25.812452,16.895257,26.773392,15.926457 L27.773392,14.926457 C28.742142,13.961617,30.308592,13.961617,31.273392,14.926457 L63.074392,46.727457 C64.039232,47.696207,64.039232,49.258657,63.074392,50.227457 Z" fill="black" stroke="none" stroke-width="0" opacity="1.0" />
<path d="M57.879392,54.398457 C57.879392,55.058617,57.621582,55.687557,57.152832,56.152357 L56.152832,57.152357 C55.184082,58.113297,53.621632,58.113297,52.652832,57.152357 L20.851832,25.351357 C20.386992,24.886517,20.125272,24.257557,20.125272,23.597457 C20.125272,22.941207,20.386992,22.312257,20.851832,21.847457 L21.851832,20.847457 C22.820582,19.882617,24.390932,19.882617,25.359632,20.847457 L57.160632,52.648457 H57.156726 C57.621566,53.113297,57.883286,53.742257,57.879386,54.398457 Z" fill="black" stroke="none" stroke-width="0" opacity="1.0" />
<path d="M51.230392,62.070457 L50.230392,63.070457 C49.765552,63.539207,49.132692,63.800927,48.472592,63.800927 C47.816342,63.800927,47.183492,63.539207,46.722592,63.074367 L14.921592,31.273367 C13.956752,30.304617,13.956752,28.742167,14.921592,27.773367 L15.921592,26.773367 C16.890342,25.808527,18.452792,25.808527,19.421592,26.773367 L51.222592,58.574367 C52.183532,59.539207,52.187432,61.101667,51.230405,62.070467 Z" fill="black" stroke="none" stroke-width="0" opacity="1.0" />
<path d="M36.855392,56.035457 L36.847579,56.04327 L27.585879,67.07027 C22.980379,71.62887,15.554879,71.61327,10.972879,67.027302 C6.3869797,62.445302,6.3712797,55.019302,10.929911,50.414302 L21.956911,41.152602 L21.964724,41.144789 L25.972524,45.152589 C25.796744,45.183839,25.636584,45.261969,25.499864,45.371339 L14.745864,54.406539 C14.710708,54.437789,14.675551,54.469039,14.644304,54.500289 C12.378704,56.976889,12.464604,60.793289,14.835714,63.164389 C17.206814,65.535489,21.027114,65.617489,23.499814,63.351889 C23.53497,63.320639,23.56622,63.289389,23.593564,63.254233 L32.628764,52.500233 C32.738144,52.363513,32.816264,52.203353,32.847514,52.027573 Z" fill="black" stroke="none" stroke-width="0" opacity="1.0" />
<path d="M42.184392,61.367457 L33.129692,72.152457 L32.930472,72.351677 H32.926565 C28.055465,77.222777,20.953565,79.125077,14.297565,77.343877 C7.6413657,75.558677,2.4425657,70.359477,0.65656574,63.702877 C-1.1246343,57.046677,0.77765574,49.944877,5.6487657,45.073877 L5.8479857,44.874657 L16.632985,35.816057 L20.543185,39.726257 L9.6091857,48.909857 C9.5857487,48.929389,9.5662167,48.94892,9.5466857,48.968451 C4.1755857,54.339551,4.1755857,63.081451,9.5466857,68.452451 C14.929485,73.823551,23.644685,73.823551,29.030685,68.452451 C29.050216,68.43292,29.069747,68.409482,29.089279,68.389951 L38.272879,57.455951 Z" fill="black" stroke="none" stroke-width="0" opacity="1.0" />
</g>
<text x="421.875" y="64.93055555555556" font-size="5.769230769230769" font-family="Arial" text-anchor="middle" fill="black">climbing rope</text>
<text x="421.875" y="81.59722222222223" font-size="12.5" font-family="Courier New" text-anchor="middle" fill="black">"rope"</text>
<g id="import" transform="translate(453.125, 3.125) scale(0.526133044083625)">
<path d="M55.299075,0.00027569791 C54.435012,0.0153147,53.647903,0.6705882,53.472903,1.6330882 C53.472903,1.6330882,52.473684,7.0334788,51.273684,14.033479 C50.673684,14.233479,50.173684,14.43387,49.773684,14.93387 L42.472903,22.232698 C41.772903,22.932698,40.972512,23.433088,40.072512,23.633088 C37.572512,24.333088,32.772903,25.73387,28.972903,26.43387 C21.472903,27.83387,16.272121,34.533088,15.172121,40.133088 C14.272121,44.833088,13.773683,50.833479,13.773683,51.033479 C13.673683,51.733479,13.872121,52.33387,14.172121,52.93387 C9.5721215,56.83387,10.072511,65.23426,10.572511,73.33426 C10.772511,77.03426,10.972121,80.933088,10.672121,84.133088 C10.572121,85.233088,11.373293,86.132698,12.373293,86.232698 H12.572511 C13.572511,86.232698,14.372902,85.533479,14.472902,84.533479 C14.772902,81.033479,14.573683,77.033088,14.273683,73.133088 C13.773683,65.233088,13.273683,57.033088,17.773683,55.133088 C18.373683,54.933088,18.972121,54.63426,19.672121,54.33426 C21.272122,53.73426,23.173294,52.93387,25.373294,51.93387 C26.573294,54.43387,29.072512,56.133088,32.072512,56.133088 H32.472903 L35.672122,65.83426 C35.872122,66.43426,35.972512,67.13426,36.072512,67.83426 L36.773684,81.83426 C36.873684,83.93426,38.473294,85.63387,40.373294,85.93387 L43.972903,76.83426 C44.572903,76.13426,45.072122,75.43426,45.672122,74.83426 L45.273684,67.43387 C45.173684,65.93387,44.972903,64.433479,44.472903,63.033479 L42.172122,56.033479 H45.172122 L53.972903,67.33426 L57.172122,64.33426 L56.472903,56.232698 L51.572512,49.93387 C50.172512,48.13387,47.972122,47.033088,45.672122,47.133088 H39.472903 L39.072512,44.033479 C45.972512,38.733479,52.072512,31.23387,54.072512,20.43387 L54.672122,19.83426 C55.872122,18.53426,55.972903,16.632698,54.972903,15.232698 C56.272903,7.9326978,57.273684,2.2326976,57.273684,2.2326976 C57.473684,1.2326976,56.772122,0.1334788,55.672122,0.0334788 C55.547122,0.0084788,55.422512,-0.0018732,55.299075,0.00027569791 Z M72.472899,0.33426 C71.672899,0.33426,70.872512,0.8330882,70.572512,1.6330882 L64.572512,19.732698 C64.472512,19.932698,64.472903,20.13426,64.472903,20.33426 V35.732698 C64.472903,36.132698,64.573294,36.63387,64.873294,36.93387 L68.572512,41.633088 C69.072512,42.333088,69.072512,43.333479,68.572512,44.033479 L60.773684,53.93387 C60.473684,54.33387,60.273294,54.83426,60.373294,55.33426 L61.072512,64.93387 C61.072512,65.53387,60.872903,66.133479,60.472903,66.533479 L48.472903,77.533479 C48.272903,77.733479,48.072903,78.032698,47.972903,78.232698 L42.472903,92.33426 C41.972903,93.63426,42.873684,95.033479,44.273684,95.033479 H82.773689 C83.873679,95.033479,84.773689,94.133479,84.773689,93.033479 V2.2326976 C84.673689,1.2326976,83.772119,0.3342601,82.672119,0.33426 Z M29.308841,7.3420726 A8.5995347,8.5995347,0.0,0,0,24.060794,9.0803538 A8.5995347,8.5995347,0.0,0,0,22.381106,21.125276 A8.5995347,8.5995347,0.0,0,0,34.426028,22.80301 A8.5995347,8.5995347,0.0,0,0,36.105715,10.758088 A8.5995347,8.5995347,0.0,0,0,29.308841,7.3420726 Z M48.273684,26.33426 C46.073684,31.73426,42.472903,36.133479,38.472903,39.533479 L37.572512,31.633088 C39.272512,31.233088,40.872903,30.73387,41.972903,30.43387 C44.072903,29.83387,45.873294,28.732698,47.373294,27.232698 Z M23.672122,37.83426 L24.672122,48.033479 C23.472122,48.733479,22.172903,49.232698,20.972903,49.732698 C21.172903,47.632698,21.572512,44.23387,22.072512,41.43387 C22.272512,40.23387,22.872122,39.03426,23.672122,37.83426 Z" fill="black" stroke="none" stroke-width="0" opacity="1.0" />
</g>
<text x="478.125" y="64.93055555555556" font-size="7.5" font-family="Arial" text-anchor="middle" fill="black">rock climb</text>
<text x="478.125" y="81.59722222222223" font-size="10.714285714285715" font-family="Courier New" text-anchor="middle" fill="black">"climb"</text>
<g id="import" transform="translate(509.375, 3.125) scale(6.483402573695573)">
<path d="M3.3582104,0.25729049 L3.2114334,0.52560049 C3.1943334,0.55674749,3.1648154,0.57527249,3.1293934,0.57690149 C3.0939714,0.57852949,3.0627224,0.56295649,3.0427724,0.53364149 L2.8315644,0.22146149 C2.8175184,0.20069749,2.7986874,0.18746449,2.7744624,0.18125549 L2.0886224,0.00333249 C2.0643974,-0.00287651,2.0414954,-0.00043350653,2.0191014,0.01086549 L1.5651324,0.24100549 C1.5391774,0.25413549,1.5219754,0.27520549,1.5143414,0.30299349 L1.3105644,1.0477675 C1.3041514,1.0708725,1.3059834,1.0926555,1.3158574,1.1145395 L1.5681874,1.6746725 C1.5817244,1.7046995,1.6066624,1.7244465,1.6389294,1.7308585 L1.9867354,1.8004805 C2.0237854,1.8079115,2.0593094,1.7950865,2.0830254,1.7657715 L2.3402404,1.4471785 L2.0517764,1.5659635 C2.0428194,1.5696285,2.0336584,1.5720705,2.0244974,1.5730885 L1.9603714,1.6635775 L1.9649524,1.5604675 C1.9541624,1.5541565,1.9441874,1.5456065,1.9360444,1.5350205 L1.7917104,1.3487505 L1.7887594,1.3448825 L1.6466654,1.3497685 L1.7708454,1.2899175 C1.7708454,1.2836065,1.7714554,1.2769905,1.7725754,1.2703745 L1.8451494,0.87432149 L1.6592864,0.70963049 L1.8808764,0.80144249 C1.8848464,0.79818549,1.8890194,0.79513149,1.8937014,0.79238349 L2.0662304,0.68672849 L2.0670444,0.68621949 L2.0936114,0.35154449 L2.1264884,0.67227449 C2.1359544,0.67319049,2.1452174,0.67553149,2.1545814,0.67929749 L2.3671124,0.76428949 C2.4030434,0.77874349,2.4261494,0.81029749,2.4291004,0.84877249 L2.4385664,0.97671849 L2.3508264,0.90556949 C2.3341334,0.89193049,2.3160154,0.88490749,2.2946404,0.88368549 L2.2450704,0.88063149 C2.2107674,0.87859649,2.1802314,0.89274449,2.1597724,0.92012549 C2.1392114,0.94770949,2.1343264,0.98079049,2.1460314,1.0131585 L2.1649644,1.0650695 C2.1742264,1.0903125,2.1911234,1.1090415,2.2154504,1.1205435 L2.3707774,1.1941355 C2.4143424,1.2147985,2.4365314,1.2627395,2.4239094,1.3093585 L2.2446624,1.9709735 C2.2428304,1.9777935,2.2404894,1.9833915,2.2372324,1.9898045 L1.8318154,2.7876095 C1.8242834,2.8025715,1.8208224,2.8168215,1.8210264,2.8334135 L1.8276424,3.5063265 C1.8277444,3.5241385,1.8319174,3.5394065,1.8407724,3.5547765 L2.0286714,3.8803925 C2.0353894,3.8920985,2.0392574,3.9032945,2.0408864,3.9166285 L2.1493914,4.7300075 C2.1503074,4.7368275,2.1505104,4.7428325,2.1501034,4.7497545 L2.0760024,5.8467145 C2.0746794,5.8668685,2.0062784,6.0727835,1.9876514,6.1627625 L0.12485145,7.0062705 L1.9319714,6.5531155 L1.4003384,7.7115555 L2.4160684,6.2342255 L7.5871484,7.1114245 L5.4980784,6.5731755 L5.7634364,6.1649085 L6.7939264,6.7001035 L5.6711164,5.7263085 L4.9546384,6.4228355 L4.9384544,6.1912705 C4.9380474,6.1826185,4.9386584,6.1752895,4.9402864,6.1668415 L5.1060974,5.3379915 C5.1109834,5.3134605,5.1073194,5.2907625,5.0946974,5.2691835 L4.9437474,5.0077945 C4.9348924,4.9925265,4.9308204,4.9774625,4.9305154,4.9597515 L4.9240014,4.5097515 C4.9238994,4.5037455,4.9243064,4.4985545,4.9253244,4.4925495 L5.0263984,3.8649315 C5.0282304,3.8533275,5.0282304,3.8430475,5.0260934,3.8315455 L4.9913834,3.6405935 C5.0546954,3.6638005,5.1308314,3.6657345,5.2079854,3.6512805 C5.3148614,3.6312285,5.2645794,3.6330605,5.2134824,3.5760605 C5.1341904,3.4874035,5.0250754,3.3833775,4.9291914,3.3143665 C4.9246104,3.3039835,4.9181984,3.2946195,4.9096484,3.2859675 L4.6417454,3.0117535 C4.6328894,3.0026945,4.6239324,2.9963835,4.6123284,2.9910915 L3.6818944,2.5625685 C3.6623514,2.5536105,3.6479994,2.5404805,3.6374134,2.5218535 L3.4068664,2.1170475 C3.3826414,2.0745005,3.3926164,2.0217745,3.4306844,1.9911375 L3.5058034,1.9303705 C3.5328784,1.9086895,3.5458054,1.8773395,3.5420394,1.8427325 L3.4635624,1.1171955 L3.4766924,1.1132255 C3.5076354,1.1039625,3.5382734,1.1094595,3.5640254,1.1286965 C3.5899814,1.1480365,3.6039254,1.1757225,3.6039254,1.2080905 V1.3374615 C3.6039254,1.3638245,3.6130864,1.3865225,3.6312044,1.4056585 L3.7118204,1.4902435 C3.7330934,1.5126365,3.7606774,1.5230195,3.7913154,1.5205765 L3.9527494,1.5075475 C3.9859324,1.5047995,4.0133124,1.4876995,4.0301074,1.4588935 L4.1725074,1.2155215 L4.0795764,1.2439195 C4.0625774,1.2490095,4.0468004,1.2557275,4.0305144,1.2582715 L3.9921414,1.3310495 L3.9883754,1.2539965 L3.9724964,1.2502305 C3.9277104,1.2396445,3.8963594,1.2004575,3.8963594,1.1540425 V0.91443649 C3.8963594,0.90110249,3.9011434,0.89041449,3.9035864,0.87748749 L3.9523424,0.61447049 C3.9555994,0.59716649,3.9608924,0.58271349,3.9588574,0.56520549 L3.9325964,0.35593149 C3.9288294,0.32570149,3.9133584,0.30127249,3.8878094,0.28478249 L3.7094784,0.17088349 C3.6861694,0.15592149,3.6605194,0.15164649,3.6333424,0.15805849 L3.4220324,0.20844349 C3.3938374,0.21516149,3.3720544,0.23175249,3.3582114,0.25730049 Z M2.2064904,5.9546105 L2.2895484,5.0082985 C2.2906684,4.9974075,2.2931114,4.9880425,2.2974874,4.9780675 L2.3842104,4.7798885 C2.3877724,4.7714405,2.3900124,4.7641115,2.3913354,4.7550525 L2.4593294,4.3085135 C2.4673704,4.2555845,2.5162274,4.2185345,2.5692584,4.2252525 L2.7472844,4.2475435 C2.7866754,4.2524295,2.8178224,4.2783845,2.8295274,4.3162495 L2.9309074,4.6427815 C2.9351824,4.6565225,2.9364044,4.6689405,2.9346734,4.6832925 L2.9051554,4.9431545 C2.9030184,4.9624945,2.9058684,4.9794925,2.9142144,4.9969995 L2.9778314,5.1298325 C2.9835314,5.1418425,2.9864834,5.1528355,2.9872974,5.1660685 L3.0385984,5.9394455 L2.3006434,5.7493075 Z M3.2445104,5.9925765 L3.2183514,5.1875455 C3.2180454,5.1788935,3.2187584,5.1714625,3.2205904,5.1629125 L3.2703644,4.9389815 C3.2729094,4.9274795,3.2733164,4.9169955,3.2718914,4.9052905 L3.2552994,4.7733745 C3.2536714,4.7598365,3.2545874,4.7480295,3.2581494,4.7348985 L3.3260414,4.4876585 C3.3400884,4.4363585,3.3922034,4.4053135,3.4440124,4.4175275 L3.5432544,4.4408365 C3.5737914,4.4479615,3.5971004,4.4669965,3.6103324,4.4953945 L3.7770594,4.8528695 C3.7835734,4.8668145,3.7919204,4.8776035,3.8038294,4.8873755 L4.0635894,5.1008225 C4.0888324,5.1215865,4.1014534,5.1505965,4.0993164,5.1832695 L4.0378374,6.1968595 L3.2445104,5.9925735 Z M4.1713814,6.2313695 L4.2918974,5.4979945 L4.3686444,5.0441265 C4.3736324,5.0147105,4.3664054,4.9875335,4.3473714,4.9646315 L4.2203414,4.8110355 C4.2116894,4.8005515,4.2059894,4.7902705,4.2019174,4.7772425 L4.1515334,4.6134675 L4.2646184,4.6642585 C4.2832454,4.6727075,4.2970884,4.6846165,4.3078774,4.7020215 L4.4960814,5.0032085 C4.5006624,5.0104355,4.5052424,5.0162375,4.5114514,5.0221415 L4.8051064,5.3033785 C4.8276014,5.3250585,4.8379834,5.3529485,4.8350314,5.3840955 L4.7299874,6.3752955 Z" fill="black" stroke="none" stroke-width="0" opacity="1.0" />
</g>
<text x="534.375" y="64.93055555555556" font-size="5.769230769230769" font-family="Arial" text-anchor="middle" fill="black">goating route</text>
<text x="534.375" y="81.59722222222223" font-size="8.333333333333332" font-family="Courier New" text-anchor="middle" fill="black">"goating"</text>
</svg>