<?xml version="1.0" encoding="UTF-8"?>
<svg xmlns="http://www.w3.org/2000/svg" xmlns:xlink="http://www.w3.org/1999/xlink"
     width="562.5" height="318.75" viewBox="0 0 562.5 318.75">
<defs>
</defs>
<rect x="0" y="0" width="562.5" height="318.75" fill="white" />
<g id="import" transform="translate(3.125, 3.125) scale(0.5672728987335395)">
<path d="M41.2134,11.192 L41.2134,27.684 L46.1001,27.684 L46.1001,11.192 Z M21.6394,14.3248 L21.6394,24.5548 L13.9324,24.5548 C12.2058,24.5548,10.8308,26.0236,10.8308,27.754 L10.8308,49.379 C10.8308,52.3673,13.1785,54.9063,16.1511,54.9063 L53.6981,54.9063 C56.6747,54.9063,59.0183,52.3711,59.0183,49.379 L59.0183,25.59 L68.6825,25.59 L68.6825,57.625 C68.6825,64.5781,63.2996,70.555,56.3935,70.555 L13.4485,70.555 C6.54225,70.555,1.15945,64.5823,1.15945,57.625 L1.16726,22.035 C1.16726,17.8905,4.36256,14.3241,8.47586,14.3241 Z M19.1003,76.9068 L50.7523,76.9068 L50.7523,72.6685 L19.1003,72.6685 Z M9.42835,88.1408 L60.4244,88.1408 L60.4244,83.5783 C60.4244,81.0705,58.3697,79.0158,55.8619,79.0158 L13.9909,79.0158 C11.4831,79.0158,9.42835,81.0705,9.42835,83.5783 Z M77.1944,2.34385 C77.1944,3.20322,77.6279,3.98835,78.3311,4.40245 L78.3311,9.08605 L80.4365,9.08605 L80.4365,4.40245 C82.4013,3.25015,81.6513,0.000149,79.3819,0.000149 C78.1358,0.000149,77.1944,1.08215,77.1944,2.34395 Z M77.1944,36.5588 C77.1944,39.6447,81.5694,39.6447,81.5694,36.5588 C81.5694,35.6995,81.1358,34.9143,80.4326,34.5002 L80.4326,29.7893 L78.3272,29.7893 L78.3272,34.5002 C77.6279,34.9143,77.1944,35.7033,77.1944,36.5588 Z M78.0889,27.6838 L81.8272,27.6838 L81.8272,11.1918 L76.9405,11.1918 L76.9405,27.6838 Z M74.8311,23.4807 L74.8311,15.3948 L48.2101,15.3948 L48.2101,23.4807 Z M83.9366,15.3987 L83.9366,23.4846 C87.5186,23.4846,86.9483,23.6682,86.9483,16.8479 C86.9483,15.0667,85.0264,15.3987,83.9366,15.3987 Z M23.7526,11.1917 L23.7526,27.6837 L28.6393,27.6837 L28.6393,11.1917 Z" fill="black" stroke="none" stroke-width="0" opacity="1.0" />
</g>
<text x="28.125" y="64.93055555555556" font-size="5.357142857142858" font-family="Arial" text-anchor="middle" fill="black">workbench vice</text>
<text x="28.125" y="81.59722222222223" font-size="12.5" font-family="Courier New" text-anchor="middle" fill="black">"vice"</text>
<g id="import" transform="translate(59.375, 3.125) scale(0.625)">
<path d="M0.0,66.4998 H80.0 V73.8982 H0.0 Z" fill="black" stroke="none" stroke-width="0" opacity="1.0" />
<path d="M4.398,26.1988 V63.1988 H75.597 V26.1988 Z M20.398,45.8008 H9.0 C8.10156,45.8008,7.3008,45.00002,7.3008,44.1016 C7.3008,43.20316,8.10158,42.4024,9.0,42.4024 H20.398 C21.29644,42.4024,22.0972,43.10162,22.0972,44.1016 C22.101106,45.1016,21.30032,45.8008,20.398,45.8008 Z M47.5,43.1992 L38.8008,60.0002 C38.50002,60.60176,38.00002,61.0002,37.3008,61.0002 C37.19924,61.0002,37.00002,61.0002,36.8008,60.89864 C36.00002,60.69942,35.5,59.89864,35.6016,59.09784 L36.6016,48.49584 L34.0,48.499746 C33.39844,48.499746,32.8984,48.198966,32.6016,47.698966 C32.30082,47.198966,32.30082,46.597366,32.50004,46.097366 L41.10164,29.199366 C41.50008,28.500146,42.30084,28.097766,43.10164,28.398586 C43.90242,28.597806,44.40244,29.398586,44.30084,30.199386 L43.30084,40.801386 H46.00004 C46.6016,40.801386,47.10164,41.102166,47.39844,41.602166 C47.69922,42.102166,47.69922,42.699866,47.5,43.199866 Z M71.0,45.8008 H67.0 V49.8008 C67.0,50.69924,66.30078,51.5,65.3008,51.5 C64.40236,51.5,63.6016,50.80078,63.6016,49.8008 V45.8008 H59.6016 C58.70316,45.8008,57.9024,45.00002,57.9024,44.1016 C57.9024,43.20316,58.70318,42.4024,59.6016,42.4024 H63.6016 V38.4024 C63.6016,37.50396,64.30082,36.7032,65.3008,36.7032 C66.19924,36.7032,67.0,37.40242,67.0,38.4024 V42.4024 H71.0 C71.89844,42.4024,72.6992,43.10162,72.6992,44.1016 C72.6992,45.10158,71.89842,45.8008,71.0,45.8008 Z" fill="black" stroke="none" stroke-width="0" opacity="1.0" />
<path d="M0.0,15.3978 H80.0 V22.7962 H0.0 Z" fill="black" stroke="none" stroke-width="0" opacity="1.0" />
<path d="M6.199,6.1018 H13.0974 V12.1018 H6.199 Z" fill="black" stroke="none" stroke-width="0" opacity="1.0" />
<path d="M66.898,6.1018 H73.7964 V12.1018 H66.898 Z" fill="black" stroke="none" stroke-width="0" opacity="1.0" />
</g>
<text x="84.375" y="64.93055555555556" font-size="6.818181818181818" font-family="Arial" text-anchor="middle" fill="black">car battery</text>
<text x="84.375" y="81.59722222222223" font-size="8.333333333333332" font-family="Courier New" text-anchor="middle" fill="black">"battery"</text>
<g id="import" transform="translate(115.625, 3.125) scale(0.5832604393878201)">
<path d="M18.8784,6.10848 C20.2729,4.71397,20.2729,2.45228,18.8784,1.05767 C17.4839,-0.336825,15.2222,-0.336825,13.8276,1.05767 C-2.1884,17.0697,-2.1884,43.1237,13.8276,59.1357 C14.5268,59.8349,15.4409,60.1826,16.351,60.1826 C17.2651,60.1826,18.1791,59.8349,18.8744,59.1357 C20.2689,57.7412,20.2689,55.4795,18.8744,54.0849 C5.6474,40.8579,5.6474,19.3389,18.8783,6.10787 Z" fill="black" stroke="none" stroke-width="0" opacity="1.0" />
<path d="M61.8034,49.0465 C61.1237,49.7262,60.1979,50.0817,59.2682,50.0817 C58.3737,50.0817,57.4479,49.7262,56.7682,49.0465 C55.3737,47.652,55.3737,45.3668,56.7682,43.9762 C64.4127,36.3317,64.4127,23.8712,56.7682,16.2262 C55.3737,14.8317,55.3737,12.5465,56.7682,11.1559 C58.1627,9.76137,60.4127,9.76137,61.8034,11.1559 C72.2294,21.6169,72.2294,38.5819,61.8034,49.0469 Z" fill="black" stroke="none" stroke-width="0" opacity="1.0" />
<path d="M83.9094,30.0815 C83.9094,41.0815,79.6594,51.4015,71.9094,59.1515 C71.1946,59.8312,70.3039,60.1867,69.3742,60.1867 C68.4797,60.1867,67.5539,59.8312,66.839,59.1515 C65.4445,57.757,65.4445,55.4718,66.839,54.0812 C73.2687,47.6867,76.7687,39.1862,76.7687,30.0812 C76.7687,21.0109,73.2687,12.5112,66.839,6.11618 C65.4445,4.72168,65.4445,2.43647,66.839,1.04587 C68.2687,-0.348625,70.5187,-0.348625,71.9093,1.04587 C79.6593,8.79588,83.9093,19.1159,83.9093,30.0809 Z" fill="black" stroke="none" stroke-width="0" opacity="1.0" />
<path d="M26.4444,50.0815 C25.5499,50.0815,24.6241,49.726,23.9092,49.0463 C13.4792,38.5813,13.4792,21.6163,23.9092,11.1513 C25.3389,9.75677,27.5889,9.75677,28.9795,11.1513 C30.374,12.5458,30.374,14.831,28.9795,16.2216 C21.335,23.8661,21.335,36.3266,28.9795,43.9716 C30.374,45.3661,30.374,47.6513,28.9795,49.0419 C28.2647,49.7255,27.374,50.081,26.4443,50.081 Z" fill="black" stroke="none" stroke-width="0" opacity="1.0" />
<path d="M50.5144,39.9015 C53.4441,37.6163,55.3699,34.0812,55.3699,30.0812 C55.3699,23.2257,49.7644,17.6162,42.8699,17.6162 C35.9754,17.6162,30.3699,23.2217,30.3699,30.0812 C30.3699,34.0812,32.2996,37.6164,35.1902,39.9015 L24.0882,81.2255 C23.5882,83.12,24.7327,85.081,26.6234,85.62 C26.9437,85.6903,27.2289,85.7254,27.5531,85.7254 C29.1234,85.7254,30.5883,84.6902,31.0179,83.0809 L35.0179,68.1859 L50.7329,68.1859 L54.6977,83.0809 C55.1274,84.6864,56.5922,85.7254,58.1625,85.7254 C58.4476,85.7254,58.768,85.6903,59.0922,85.62 C60.9867,85.0848,62.1274,83.1552,61.6274,81.2255 Z M36.9094,61.0465 L41.9094,42.5115 C42.2297,42.5115,42.5539,42.5818,42.8742,42.5818 C43.1945,42.5818,43.5188,42.5115,43.8391,42.5115 L48.8039,61.0465 Z" fill="black" stroke="none" stroke-width="0" opacity="1.0" />
</g>
<text x="140.625" y="64.93055555555556" font-size="6.818181818181818" font-family="Arial" text-anchor="middle" fill="black">transmitter</text>
<text x="140.625" y="81.59722222222223" font-size="5.769230769230769" font-family="Courier New" text-anchor="middle" fill="black">"transmitter"</text>
<g id="import" transform="translate(171.875, 3.125) scale(0.6483654958711631)">
<path d="M12.7026,38.3863 C11.8788,36.9218,11.0632,35.4395,10.2086,33.9791 C10.0353,33.6826,9.74206,33.4412,9.46666,33.2217 C8.40718,32.3785,8.38774,31.3328,9.47233,30.5228 C10.6144,29.669,11.9744,29.3604,13.3417,29.1531 C18.7209,28.3358,24.1034,28.3155,29.4672,29.2689 C30.4359,29.4406,31.3942,29.7986,32.2884,30.2174 C32.7687,30.4426,33.1997,30.9213,33.4791,31.3895 C33.8274,31.9719,33.5342,32.7122,32.8173,33.1925 C32.3313,33.5182,32.0373,33.9361,31.7959,34.4432 C31.1374,35.8234,30.4562,37.1931,29.7879,38.5572 C30.5728,40.0184,30.3509,41.0001,28.8087,41.6222 C27.4884,42.1544,26.0555,42.4986,24.6404,42.689 C21.4814,43.1142,18.3167,43.0162,15.1982,42.2799 C14.5842,42.1349,13.9727,41.9122,13.4114,41.6238 C11.8473,40.8211,11.631,39.7884,12.7026,38.3863 Z M31.1682,31.8731 C26.3414,30.3989,14.2044,30.4256,11.2252,31.899 C16.0026,33.3221,26.1259,33.3205,31.1682,31.8731 Z" fill="black" stroke="none" stroke-width="0.81" opacity="1.0" />
<path d="M77.0628,11.1939 L77.0628,14.0739 C77.0628,27.5149,77.0148,40.9589,77.1168,54.403 C77.1318,56.471,76.6068,57.4159,74.5428,58.0389 C66.9078,60.345,59.3518,62.904,51.7428,65.3039 C50.5338,65.686,49.2158,65.9149,47.9498,65.917 C35.6898,65.9389,23.4288,65.8959,11.1688,65.874 C7.49184,65.869,3.81484,65.874,-0.000157,65.874 L-0.000157,11.1939 L77.0628,11.1939 Z M69.9098,18.215 L7.02484,18.215 L7.02484,58.768 L47.0078,58.768 C47.5818,55.5349,48.1328,52.422,48.6998,49.231 C55.8638,48.716,62.8878,48.211,69.9088,47.7079 C69.9098,37.712,69.9098,27.9929,69.9098,18.215 Z M52.0308,57.8769 C57.1708,56.216,62.0388,54.6419,66.9058,53.067 C62.3568,52.962,57.8838,53.2459,53.4168,53.5929 C53.1068,53.6169,52.6558,54.086,52.5758,54.4209 C52.3298,55.4669,52.2288,56.547,52.0308,57.8769 Z" fill="black" stroke="none" stroke-width="0" opacity="1.0" />
<path d="M21.1833,27.0203 C20.8553,26.4987,20.5523,26.0168,20.2048,25.4627 C21.0821,24.9386,20.8536,24.2526,20.4997,23.53 C20.0388,22.5896,19.7399,21.6241,20.2591,20.5995 C20.3069,20.5055,20.3579,20.4116,20.4171,20.3241 C20.4511,20.2739,20.5037,20.239,20.5807,20.1669 C20.9962,20.4618,21.4134,20.7485,21.8159,21.0539 C21.9002,21.1171,21.9544,21.2467,21.9795,21.3552 C22.1091,21.9198,22.2217,22.4892,22.3481,23.0554 C22.3708,23.1575,22.4323,23.2498,22.4728,23.3478 C23.1767,25.0188,22.8325,26.0435,21.1833,27.0203 Z" fill="black" stroke="none" stroke-width="0.81" opacity="1.0" />
<path d="M24.9142,27.0171 C24.5918,26.5019,24.2897,26.0208,23.943,25.4692 C24.8397,24.9208,24.5643,24.2088,24.2095,23.4831 C23.6733,22.3855,23.4294,21.2888,24.2816,20.1499 C24.7263,20.4642,25.158,20.7582,25.5743,21.0733 C25.6521,21.1316,25.6861,21.2701,25.7072,21.3787 C25.8044,21.8639,25.8611,22.358,25.9874,22.8351 C26.079,23.1793,26.279,23.4936,26.3932,23.8338 C26.8444,25.1727,26.3932,26.1674,24.9142,27.0171 Z" fill="black" stroke="none" stroke-width="0.81" opacity="1.0" />
<path d="M17.2767,26.9847 C16.9656,26.4938,16.6514,25.9965,16.3403,25.5064 C17.062,24.7369,17.0823,24.6073,16.6481,23.6313 C16.2763,22.7946,15.8802,21.957,16.2067,21.0077 C16.3071,20.7161,16.4659,20.4448,16.6157,20.1256 C16.8919,20.3152,17.1042,20.452,17.3067,20.6027 C17.7246,20.9129,18.1466,21.1049,18.077,21.8542 C18.0227,22.4398,18.4933,23.0708,18.7185,23.6864 C19.249,25.1355,18.7485,26.3059,17.2767,26.9847 Z" fill="black" stroke="none" stroke-width="0.81" opacity="1.0" />
<path d="M36.7568,41.591 L36.7568,38.4879 L65.1468,38.4879 L65.1468,41.591 L36.7568,41.591 Z" fill="black" stroke="none" stroke-width="0" opacity="1.0" />
<path d="M65.1988,24.4439 L65.1988,27.5059 L36.8318,27.5059 L36.8318,24.4439 L65.1988,24.4439 Z" fill="black" stroke="none" stroke-width="0" opacity="1.0" />
<path d="M36.7278,34.2319 L36.7278,31.3199 L65.1988,31.3199 L65.1988,34.2319 L36.7278,34.2319 Z" fill="black" stroke="none" stroke-width="0" opacity="1.0" />
<path d="M12.0958,55.433 L12.0958,52.447 L40.5428,52.447 L40.5428,55.433 L12.0958,55.433 Z" fill="black" stroke="none" stroke-width="0" opacity="1.0" />
<path d="M12.1318,45.653 L40.5038,45.653 L40.5038,48.6359 L12.1318,48.6359 L12.1318,45.653 Z" fill="black" stroke="none" stroke-width="0" opacity="1.0" />
</g>
<text x="196.875" y="64.93055555555556" font-size="6.818181818181818" font-family="Arial" text-anchor="middle" fill="black">recipe card</text>
<text x="196.875" y="81.59722222222223" font-size="9.375" font-family="Courier New" text-anchor="middle" fill="black">"recipe"</text>
<g id="import" transform="translate(228.125, 3.125) scale(0.5257623664723947)">
<path d="M4.6994126,0.00019473706 C2.2994128,0.00019473706,0.40058465,1.900976,0.40058465,4.3009759 V90.800976 C0.40058465,93.200976,2.2994128,95.099804,4.6994126,95.099804 H90.400584 C92.800584,95.099804,94.699414,93.200976,94.699414,90.800976 V4.3009759 C94.599414,1.900976,92.700974,0.00019473706,90.300974,0.00019473706 Z M8.9005846,8.5001947 H86.099802 V68.000195 H8.9005846 Z M65.000193,17.099804 A6.5999999,6.5999999,0.0,0,0,58.400584,23.699414 A6.5999999,6.5999999,0.0,0,0,65.000193,30.300976 A6.5999999,6.5999999,0.0,0,0,71.599802,23.699414 A6.5999999,6.5999999,0.0,0,0,65.000193,17.099804 Z M39.312693,26.000195 C38.750193,26.025195,38.200584,26.300976,37.900584,26.800976 L19.099802,56.800976 C18.299802,58.000976,19.100193,59.500195,20.500193,59.500195 H74.199412 C75.599412,59.500195,76.499802,57.899414,75.599802,56.699414 L62.400584,38.099804 C61.800584,37.199804,60.499412,37.100586,59.699412,37.900586 L55.000193,42.500195 C54.200193,43.200195,53.000974,43.100976,52.300974,42.300976 L40.800974,26.699414 C40.450974,26.199414,39.875193,25.975195,39.312693,26.000195 Z" fill="black" stroke="none" stroke-width="0" opacity="1.0" />
</g>
<text x="253.125" y="64.93055555555556" font-size="5.357142857142858" font-family="Arial" text-anchor="middle" fill="black">vista polaroid</text>
<text x="253.125" y="81.59722222222223" font-size="7.5" font-family="Courier New" text-anchor="middle" fill="black">"polaroid"</text>
<g id="import" transform="translate(284.375, 3.125) scale(0.5646272267246287)">
<path d="M27.7771,10.7031 L30.906,2.7617 C31.56225,1.0976,33.1716,0.0,34.9607,0.0 H53.1947 C54.9291,0.0,56.4994,1.0312,57.1908,2.6211 L60.7025,10.6992 H27.7765 Z M34.0701,42.0581 C34.0701,36.4448,38.6365,31.8821,44.2461,31.8821 C44.89454,31.8821,45.418,31.35866,45.418,30.7102 C45.418,30.06176,44.89456,29.5383,44.2461,29.5383 C37.3399,29.5383,31.7261,35.1555,31.7261,42.0583 C31.7261,42.70674,32.24954,43.2302,32.898,43.2302 C33.54646,43.2302,34.0699,42.70676,34.0699,42.0583 Z M0.32010064,29.3741 V20.1944 C0.32010064,16.2647,3.5349006,13.046,7.4685006,13.046 H81.0855 C85.0152,13.046,88.2339,16.2608,88.2339,20.1944 V29.3741 H65.7729 C61.4174,22.0186,53.4059,17.0691,44.2529,17.0691 C35.1006,17.0691,27.0889,22.0144,22.7329,29.3741 Z M68.8941,21.7413 C68.8941,23.8272,70.5855,25.5186,72.6714,25.5186 C74.7573,25.5186,76.4487,23.8272,76.4487,21.7413 C76.4487,19.6554,74.7573,17.964,72.6714,17.964 C70.5855,17.964,68.8941,19.6554,68.8941,21.7413 Z M10.2771,22.9444 C10.2771,24.1827,11.281,25.1866,12.5193,25.1866 H17.949 C19.1873,25.1866,20.1912,24.1827,20.1912,22.9444 V21.4717 C20.1912,20.2334,19.1873,19.2295,17.949,19.2295 H12.5193 C11.281,19.2295,10.2771,20.2334,10.2771,21.4717 Z M66.8941,42.0574 C66.8941,54.5454,56.7341,64.7054,44.2491,64.7054 C31.7611,64.7054,21.6011,54.5454,21.6011,42.0574 C21.6011,29.5694,31.7611,19.4124,44.2491,19.4124 C56.7371,19.4124,66.8941,29.5724,66.8941,42.0574 Z M61.355,42.0574 C61.355,32.6121,53.6948,24.9524,44.25,24.9524 C34.8047,24.9524,27.145,32.6126,27.145,42.0574 C27.145,51.5022,34.8052,59.1624,44.25,59.1624 C53.6953,59.1624,61.355,51.5022,61.355,42.0574 Z M76.793,10.7024 V8.2454 C76.793,7.0852,75.8555,6.1477,74.6953,6.1477 H68.1641 C67.0039,6.1477,66.0664,7.0852,66.0664,8.2454 V10.7024 Z M65.738,72.3074 V80.0808 H22.812 V72.3074 H16.4175 V85.5184 C16.4175,87.1942,17.773,88.5536,19.4527,88.5536 H69.1007 C70.7765,88.5536,72.1359,87.1942,72.1359,85.5184 V72.3074 H65.7414 Z M66.9919,31.7174 C68.4333,34.8697,69.2419,38.3697,69.2419,42.0574 C69.2419,55.8384,58.0309,67.0494,44.2539,67.0494 C30.4769,67.0494,19.2619,55.8384,19.2619,42.0574 C19.2619,38.3699,20.07049,34.8699,21.5119,31.7174 H0.32090064 V70.1744 C0.32090064,74.1041,3.5357006,77.3228,7.4693006,77.3228 H14.0748 V72.3072 H12.4615 C11.81306,72.3072,11.2896,71.78376,11.2896,71.1353 C11.2896,70.48684,11.81304,69.9634,12.4615,69.9634 H76.0905 C76.73894,69.9634,77.2624,70.48684,77.2624,71.1353 C77.2624,71.78376,76.73896,72.3072,76.0905,72.3072 H74.4772 V77.3228 H81.0827 C85.0124,77.3228,88.2311,74.108,88.2311,70.1744 V31.7174 Z" fill="black" stroke="none" stroke-width="0" opacity="1.0" />
</g>
<text x="309.375" y="64.93055555555556" font-size="12.5" font-family="Arial" text-anchor="middle" fill="black">camera</text>
<text x="309.375" y="81.59722222222223" font-size="9.375" font-family="Courier New" text-anchor="middle" fill="black">"camera"</text>
<g id="import" transform="translate(340.625, 3.125) scale(0.5882352941176471)">
<path d="M33.869141,0.0 C33.189141,0.0,32.630859,0.560234,32.630859,1.240234 V21.810547 H37.699219 V1.240234 C37.689219,0.560234,37.140938,0.0,36.460938,0.0 Z M47.910156,21.769531 C47.830156,21.769531,47.759766,21.839922,47.759766,21.919922 V25.830078 H52.699219 V21.919922 C52.699219,21.829922,52.640547,21.769531,52.560547,21.769531 Z M31.810547,22.810547 V27.849609 H38.5 V22.810547 Z M47.279297,26.820312 V27.849609 H53.189453 V26.820312 Z M30.0,28.849609 C28.72,28.849609,27.679688,29.889922,27.679688,31.169922 V48.980469 C27.679688,49.830469,27.990781,50.639297,28.550781,51.279297 C29.270781,52.099297,29.669922,53.150234,29.669922,54.240234 V82.0 C29.669922,83.66,31.019922,85.0,32.669922,85.0 H52.330078 C53.990078,85.0,55.330078,83.65,55.330078,82.0 V54.240234 C55.330078,53.150234,55.729219,52.099297,56.449219,51.279297 C57.009219,50.639297,57.320312,49.830469,57.320312,48.980469 V31.169922 C57.310313,29.889922,56.27,28.849609,55.0,28.849609 Z M31.800781,32.160156 H53.199219 C53.749219,32.160156,54.199219,32.610156,54.199219,33.160156 V48.470703 C54.199219,49.020703,53.749219,49.470703,53.199219,49.470703 H31.800781 C31.250781,49.470703,30.800781,49.020703,30.800781,48.470703 V33.160156 C30.800781,32.610156,31.250781,32.160156,31.800781,32.160156 Z M31.800781,33.160156 V48.470703 H53.199219 V33.160156 Z M31.890625,53.439453 H53.119141 C53.719141,53.439453,54.210937,53.929297,54.210938,54.529297 V55.150391 H54.199219 C54.199219,55.750391,53.709375,56.240234,53.109375,56.240234 H31.890625 C31.290625,56.240234,30.800781,55.750391,30.800781,55.150391 V54.529297 C30.800781,53.929297,31.290625,53.439453,31.890625,53.439453 Z M31.890625,54.449219 C31.840625,54.449219,31.800781,54.489063,31.800781,54.539062 V55.160156 C31.800781,55.210156,31.840625,55.25,31.890625,55.25 H53.119141 C53.169141,55.25,53.210938,55.210156,53.210938,55.160156 V54.539062 C53.200937,54.489062,53.159375,54.449219,53.109375,54.449219 Z M31.890625,57.359375 H53.119141 C53.719141,57.359375,54.210937,57.849219,54.210938,58.449219 V59.070312 H54.199219 C54.199219,59.670312,53.709375,60.160156,53.109375,60.160156 H31.890625 C31.290625,60.160156,30.800781,59.670313,30.800781,59.070312 V58.449219 C30.800781,57.849219,31.290625,57.359375,31.890625,57.359375 Z M31.890625,58.369141 C31.840625,58.369141,31.800781,58.410938,31.800781,58.460938 V59.080078 C31.800781,59.130078,31.840625,59.169922,31.890625,59.169922 H53.119141 C53.169141,59.169922,53.210938,59.130078,53.210938,59.080078 V58.460938 C53.200937,58.410937,53.159375,58.369141,53.109375,58.369141 Z M31.890625,61.279297 H53.119141 C53.719141,61.279297,54.210937,61.769141,54.210938,62.369141 V62.990234 H54.199219 C54.199219,63.590234,53.709375,64.080078,53.109375,64.080078 H31.890625 C31.290625,64.080078,30.800781,63.590234,30.800781,62.990234 V62.369141 C30.800781,61.769141,31.290625,61.279297,31.890625,61.279297 Z M31.890625,62.289062 C31.840625,62.289062,31.800781,62.330859,31.800781,62.380859 V63.0 C31.800781,63.05,31.840625,63.089844,31.890625,63.089844 H53.119141 C53.169141,63.089844,53.210938,63.05,53.210938,63.0 V62.380859 C53.200937,62.320859,53.159375,62.289063,53.109375,62.289062 Z M31.890625,65.199219 H53.119141 C53.719141,65.199219,54.210937,65.689063,54.210938,66.289062 V66.910156 H54.199219 C54.199219,67.510156,53.709375,68.0,53.109375,68.0 H31.890625 C31.290625,68.0,30.800781,67.510156,30.800781,66.910156 V66.289062 C30.800781,65.689063,31.290625,65.199219,31.890625,65.199219 Z M31.871094,66.210938 C31.829941,66.219277,31.800781,66.257031,31.800781,66.300781 V66.919922 C31.800781,66.969922,31.840625,67.009766,31.890625,67.009766 H53.119141 C53.169141,67.009766,53.210938,66.969922,53.210938,66.919922 V66.300781 C53.200937,66.240781,53.159375,66.210937,53.109375,66.210938 H31.890625 C31.884375,66.210938,31.876973,66.209746,31.871094,66.210938 Z M33.169922,69.779297 H37.789062 C38.279063,69.779297,38.679688,70.179922,38.679688,70.669922 V72.580078 C38.679688,73.070078,38.279063,73.470703,37.789062,73.470703 H33.169922 C32.679922,73.470703,32.279297,73.070078,32.279297,72.580078 V70.669922 C32.279297,70.179922,32.679922,69.779297,33.169922,69.779297 Z M40.189453,69.779297 H44.810547 C45.300547,69.779297,45.699219,70.179922,45.699219,70.669922 V72.580078 C45.699219,73.070078,45.300547,73.470703,44.810547,73.470703 H40.189453 C39.699453,73.470703,39.300781,73.070078,39.300781,72.580078 V70.669922 C39.300781,70.179922,39.699453,69.779297,40.189453,69.779297 Z M47.210938,69.779297 H51.830078 C52.320078,69.779297,52.720703,70.179922,52.720703,70.669922 V72.580078 C52.720703,73.070078,52.320078,73.470703,51.830078,73.470703 H47.210938 C46.720937,73.470703,46.320312,73.070078,46.320312,72.580078 V70.669922 C46.320312,70.179922,46.720937,69.779297,47.210938,69.779297 Z M33.279297,70.779297 V72.470703 H37.679688 V70.779297 Z M40.300781,70.779297 V72.470703 H44.699219 V70.779297 Z M47.320312,70.779297 V72.470703 H51.720703 V70.779297 Z M33.169922,74.099609 H37.789062 C38.279063,74.099609,38.679688,74.500234,38.679688,74.990234 V76.900391 C38.679688,77.390391,38.279063,77.789063,37.789062,77.789062 H33.169922 C32.679922,77.789062,32.279297,77.390391,32.279297,76.900391 V74.990234 C32.279297,74.500234,32.679922,74.099609,33.169922,74.099609 Z M40.189453,74.099609 H44.810547 C45.300547,74.099609,45.699219,74.500234,45.699219,74.990234 V76.900391 C45.699219,77.390391,45.300547,77.789063,44.810547,77.789062 H40.189453 C39.699453,77.789062,39.300781,77.390391,39.300781,76.900391 V74.990234 C39.300781,74.500234,39.699453,74.099609,40.189453,74.099609 Z M47.210938,74.099609 H51.830078 C52.320078,74.099609,52.720703,74.500234,52.720703,74.990234 V76.900391 C52.720703,77.390391,52.320078,77.789063,51.830078,77.789062 H47.210938 C46.720937,77.789062,46.320312,77.390391,46.320312,76.900391 V74.990234 C46.320312,74.500234,46.720937,74.099609,47.210938,74.099609 Z M33.279297,75.099609 V76.789062 H37.679688 V75.099609 Z M40.300781,75.099609 V76.789062 H44.699219 V75.099609 Z M47.320312,75.099609 V76.789062 H51.720703 V75.099609 Z M33.169922,78.419922 H37.789062 C38.279063,78.419922,38.679688,78.820547,38.679688,79.310547 V81.220703 C38.679688,81.710703,38.279063,82.10938,37.789062,82.10938 H33.169922 C32.679922,82.10938,32.279297,81.710703,32.279297,81.220703 V79.310547 C32.279297,78.820547,32.679922,78.419922,33.169922,78.419922 Z M40.189453,78.419922 H44.810547 C45.300547,78.419922,45.699219,78.820547,45.699219,79.310547 V81.220703 C45.699219,81.710703,45.300547,82.10938,44.810547,82.10938 H40.189453 C39.699453,82.10938,39.300781,81.710703,39.300781,81.220703 V79.310547 C39.300781,78.820547,39.699453,78.419922,40.189453,78.419922 Z M47.210938,78.419922 H51.830078 C52.320078,78.419922,52.720703,78.820547,52.720703,79.310547 V81.220703 C52.720703,81.710703,52.320078,82.10938,51.830078,82.10938 H47.210938 C46.720937,82.10938,46.320312,81.710703,46.320312,81.220703 V79.310547 C46.320312,78.820547,46.720937,78.419922,47.210938,78.419922 Z M33.279297,79.419922 V81.109375 H37.679688 V79.419922 Z M40.300781,79.419922 V81.109375 H44.699219 V79.419922 Z M47.320312,79.419922 V81.109375 H51.720703 V79.419922 Z" fill="black" stroke="none" stroke-width="0" opacity="1.0" />
</g>
<text x="365.625" y="64.93055555555556" font-size="3.125" font-family="Arial" text-anchor="middle" fill="black">handheld shortwave radio</text>
<text x="365.625" y="81.59722222222223" font-size="7.5" font-family="Courier New" text-anchor="middle" fill="black">"handheld"</text>
<g id="import" transform="translate(396.875, 3.125) scale(0.6410092131100384)">
<path d="M78.000389,19.289457 C78.016019,24.406657,75.980889,29.316457,72.351989,32.926457 L72.152769,33.125677 L61.367772,42.184277 L57.457572,38.274077 L68.391569,29.090477 C68.415009,29.070945,68.434539,29.051414,68.454069,29.031883 C73.825169,23.660783,73.825169,14.918883,68.454069,9.547883 C63.082972,4.176883,54.341072,4.176783,48.970072,9.547883 C48.950541,9.567414,48.93101,9.590852,48.911478,9.610383 L39.727878,20.548383 L35.817678,16.638183 L44.876278,5.853183 L45.075498,5.653963 V5.650057 C48.692698,2.032857,53.598898,0.001657,58.712498,0.001657 C63.829698,0.001657,68.735499,2.032857,72.353499,5.650057 C75.970699,9.267257,78.001899,14.173457,78.001899,19.291057 Z" fill="black" stroke="none" stroke-width="0" opacity="1.0" />
<path d="M67.070389,27.586457 L56.043392,36.848157 C56.039485,36.848157,56.039485,36.852063,56.035579,36.85597 L52.027779,32.84817 C52.203559,32.81692,52.363719,32.73879,52.500439,32.62942 L63.258439,23.59422 H63.254533 C63.289689,23.56297,63.324846,23.53172,63.356093,23.50047 C65.621693,21.02387,65.535793,17.20747,63.164683,14.83637 C60.793583,12.46527,56.973283,12.38327,54.500583,14.64887 C54.465427,14.68012,54.434177,14.71137,54.406833,14.746526 L45.371633,25.500526 C45.262253,25.637246,45.184133,25.797406,45.152883,25.973186 L41.145083,21.965386 L41.152896,21.957573 L50.414596,10.930573 C52.621596,8.723573,55.617696,7.481373,58.742696,7.481373 C61.867696,7.481373,64.859896,8.723573,67.070799,10.930573 C71.668499,15.532173,71.668499,22.989573,67.070799,27.586573 Z" fill="black" stroke="none" stroke-width="0" opacity="1.0" />
<path d="M63.074392,50.227457 L62.074392,51.227457 C61.105642,52.188397,59.543192,52.188397,58.574392,51.227457 L26.773392,19.426457 C25.812452,18.457707,25.812452,16.895257,26.773392,15.926457 L27.773392,14.926457 C28.742142,13.961617,30.308592,13.961617,31.273392,14.926457 L63.074392,46.727457 C64.039232,47.696207,64.039232,49.258657,63.074392,50.227457 Z" fill="black" stroke="none" stroke-width="0" opacity="1.0" />
<path d="M57.879392,54.398457 C57.879392,55.058617,57.621582,55.687557,57.152832,56.152357 L56.152832,57.152357 C55.184082,58.113297,53.621632,58.113297,52.652832,57.152357 L20.851832,25.351357 C20.386992,24.886517,20.125272,24.257557,20.125272,23.597457 C20.125272,22.941207,20.386992,22.312257,20.851832,21.847457 L21.851832,20.847457 C22.820582,19.882617,24.390932,19.882617,25.359632,20.847457 L57.160632,52.648457 H57.156726 C57.621566,53.113297,57.883286,53.742257,57.879386,54.398457 Z" fill="black" stroke="none" stroke-width="0" opacity="1.0" />
<path d="M51.230392,62.070457 L50.230392,63.070457 C49.765552,63.539207,49.132692,63.800927,48.472592,63.800927 C47.816342,63.800927,47.183492,63.539207,46.722592,63.074367 L14.921592,31.273367 C13.956752,30.304617,13.956752,28.742167,14.921592,27.773367 L15.921592,26.773367 C16.890342,25.808527,18.452792,25.808527,19.421592,26.773367 L51.222592,58.574367 C52.183532,59.539207,52.187432,61.101667,51.230405,62.070467 Z" fill="black" stroke="none" stroke-width="0" opacity="1.0" />
<path d="M36.855392,56.035457 L36.847579,56.04327 L27.585879,67.07027 C22.980379,71.62887,15.554879,71.61327,10.972879,67.027302 C6.3869797,62.445302,6.3712797,55.019302,10.929911,50.414302 L21.956911,41.152602 L21.964724,41.144789 L25.972524,45.152589 C25.796744,45.183839,25.636584,45.261969,25.499864,45.371339 L14.745864,54.406539 C14.710708,54.437789,14.675551,54.469039,14.644304,54.500289 C12.378704,56.976889,12.464604,60.793289,14.835714,63.164389 C17.206814,65.535489,21.027114,65.617489,23.499814,63.351889 C23.53497,63.320639,23.56622,63.289389,23.593564,63.254233 L32.628764,52.500233 C32.738144,52.363513,32.816264,52.203353,32.847514,52.027573 Z" fill="black" stroke="none" stroke-width="0" opacity="1.0" />
<path d="M42.184392,61.367457 L33.129692,72.152457 L32.930472,72.351677 H32.926565 C28.055465,77.222777,20.953565,79.125077,14.297565,77.343877 C7.6413657,75.558677,2.4425657,70.359477,0.65656574,63.702877 C-1.1246343,57.046677,0.77765574,49.944877,5.6487657,45.073877 L5.8479857,44.874657 L16.632985,35.816057 L20.543185,39.726257 L9.6091857,48.909857 C9.5857487,48.929389,9.5662167,48.94892,9.5466857,48.968451 C4.1755857,54.339551,4.1755857,63.081451,9.5466857,68.452451 C14.929485,73.823551,23.644685,73.823551,29.030685,68.452451 C29.050216,68.43292,29.069747,68.409482,29.089279,68.389951 L38.272879,57.455951 Z" fill="black" stroke="none" stroke-width="0" opacity="1.0" />
</g>
<text x="421.875" y="64.93055555555556" font-size="5.769230769230769" font-family="Arial" text-anchor="middle" fill="black">climbing rope</text>
<text x="421.875" y="81.59722222222223" font-size="12.5" font-family="Courier New" text-anchor="middle" fill="black">"rope"</text>
<g id="import" transform="translate(453.125, 3.125) scale(0.526133044083625)">
<path d="M55.299075,0.00027569791 C54.435012,0.0153147,53.647903,0.6705882,53.472903,1.6330882 C53.472903,1.6330882,52.473684,7.0334788,51.273684,14.033479 C50.673684,14.233479,50.173684,14.43387,49.773684,14.93387 L42.472903,22.232698 C41.772903,22.932698,40.972512,23.433088,40.072512,23.633088 C37.572512,24.333088,32.772903,25.73387,28.972903,26.43387 C21.472903,27.83387,16.272121,34.533088,15.172121,40.133088 C14.272121,44.833088,13.773683,50.833479,13.773683,51.033479 C13.673683,51.733479,13.872121,52.33387,14.172121,52.93387 C9.5721215,56.83387,10.072511,65.23426,10.572511,73.33426 C10.772511,77.03426,10.972121,80.933088,10.672121,84.133088 C10.572121,85.233088,11.373293,86.132698,12.373293,86.232698 H12.572511 C13.572511,86.232698,14.372902,85.533479,14.472902,84.533479 C14.772902,81.033479,14.573683,77.033088,14.273683,73.133088 C13.773683,65.233088,13.273683,57.033088,17.773683,55.133088 C18.373683,54.933088,18.972121,54.63426,19.672121,54.33426 C21.272122,53.73426,23.173294,52.93387,25.373294,51.93387 C26.573294,54.43387,29.072512,56.133088,32.072512,56.133088 H32.472903 L35.672122,65.83426 C35.872122,66.43426,35.972512,67.13426,36.072512,67.83426 L36.773684,81.83426 C36.873684,83.93426,38.473294,85.63387,40.373294,85.93387 L43.972903,76.83426 C44.572903,76.13426,45.072122,75.43426,45.672122,74.83426 L45.273684,67.43387 C45.173684,65.93387,44.972903,64.433479,44.472903,63.033479 L42.172122,56.033479 H45.172122 L53.972903,67.33426 L57.172122,64.33426 L56.472903,56.232698 L51.572512,49.93387 C50.172512,48.13387,47.972122,47.033088,45.672122,47.133088 H39.472903 L39.072512,44.033479 C45.972512,38.733479,52.072512,31.23387,54.072512,20.43387 L54.672122,19.83426 C55.872122,18.53426,55.972903,16.632698,54.972903,15.232698 C56.272903,7.9326978,57.273684,2.2326976,57.273684,2.2326976 C57.473684,1.2326976,56.772122,0.1334788,55.672122,0.0334788 C55.547122,0.0084788,55.422512,-0.0018732,55.299075,0.00027569791 Z M72.472899,0.33426 C71.672899,0.33426,70.872512,0.8330882,70.572512,1.6330882 L64.572512,19.732698 C64.472512,19.932698,64.472903,20.13426,64.472903,20.33426 V35.732698 C64.472903,36.132698,64.573294,36.63387,64.873294,36.93387 L68.572512,41.633088 C69.072512,42.333088,69.072512,43.333479,68.572512,44.033479 L60.773684,53.93387 C60.473684,54.33387,60.273294,54.83426,60.373294,55.33426 L61.072512,64.93387 C61.072512,65.53387,60.872903,66.133479,60.472903,66.533479 L48.472903,77.533479 C48.272903,77.733479,48.072903,78.032698,47.972903,78.232698 L42.472903,92.33426 C41.972903,93.63426,42.873684,95.033479,44.273684,95.033479 H82.773689 C83.873679,95.033479,84.773689,94.133479,84.773689,93.033479 V2.2326976 C84.673689,1.2326976,83.772119,0.3342601,82.672119,0.33426 Z M29.308841,7.3420726 A8.5995347,8.5995347,0.0,0,0,24.060794,9.0803538 A8.5995347,8.5995347,0.0,0,0,22.381106,21.125276 A8.5995347,8.5995347,0.0,0,0,34.426028,22.80301 A8.5995347,8.5995347,0.0,0,0,36.105715,10.758088 A8.5995347,8.5995347,0.0,0,0,29.308841,7.3420726 Z M48.273684,26.33426 C46.073684,31.73426,42.472903,36.133479,38.472903,39.533479 L37.572512,31.633088 C39.272512,31.233088,40.872903,30.73387,41.972903,30.43387 C44.072903,29.83387,45.873294,28.732698,47.373294,27.232698 Z M23.672122,37.83426 L24.672122,48.033479 C23.472122,48.733479,22.172903,49.232698,20.972903,49.732698 C21.172903,47.632698,21.572512,44.23387,22.072512,41.43387 C22.272512,40.23387,22.872122,39.03426,23.672122,37.83426 Z" fill="black" stroke="none" stroke-width="0" opacity="1.0" />
</g>
<text x="478.125" y="64.93055555555556" font-size="7.5" font-family="Arial" text-anchor="middle" fill="black">rock climb</text>
<text x="478.125" y="81.59722222222223" font-size="10.714285714285715" font-family="Courier New" text-anchor="middle" fill="black">"climb"</text>
<g id="import" transform="translate(509.375, 3.125) scale(6.483402573695573)">
<path d="M3.3582104,0.25729049 L3.2114334,0.52560049 C3.1943334,0.55674749,3.1648154,0.57527249,3.1293934,0.57690149 C3.0939714,0.57852949,3.0627224,0.56295649,3.0427724,0.53364149 L2.8315644,0.22146149 C2.8175184,0.20069749,2.7986874,0.18746449,2.7744624,0.18125549 L2.0886224,0.00333249 C2.0643974,-0.00287651,2.0414954,-0.00043350653,2.0191014,0.01086549 L1.5651324,0.24100549 C1.5391774,0.25413549,1.5219754,0.27520549,1.5143414,0.30299349 L1.3105644,1.0477675 C1.3041514,1.0708725,1.3059834,1.0926555,1.3158574,1.1145395 L1.5681874,1.6746725 C1.5817244,1.7046995,1.6066624,1.7244465,1.6389294,1.7308585 L1.9867354,1.8004805 C2.0237854,1.8079115,2.0593094,1.7950865,2.0830254,1.7657715 L2.3402404,1.4471785 L2.0517764,1.5659635 C2.0428194,1.5696285,2.0336584,1.5720705,2.0244974,1.5730885 L1.9603714,1.6635775 L1.9649524,1.5604675 C1.9541624,1.5541565,1.9441874,1.5456065,1.9360444,1.5350205 L1.7917104,1.3487505 L1.7887594,1.3448825 L1.6466654,1.3497685 L1.7708454,1.2899175 C1.7708454,1.2836065,1.7714554,1.2769905,1.7725754,1.2703745 L1.8451494,0.87432149 L1.6592864,0.70963049 L1.8808764,0.80144249 C1.8848464,0.79818549,1.8890194,0.79513149,1.8937014,0.79238349 L2.0662304,0.68672849 L2.0670444,0.68621949 L2.0936114,0.35154449 L2.1264884,0.67227449 C2.1359544,0.67319049,2.1452174,0.67553149,2.1545814,0.67929749 L2.3671124,0.76428949 C2.4030434,0.77874349,2.4261494,0.81029749,2.4291004,0.84877249 L2.4385664,0.97671849 L2.3508264,0.90556949 C2.3341334,0.89193049,2.3160154,0.88490749,2.2946404,0.88368549 L2.2450704,0.88063149 C2.2107674,0.87859649,2.1802314,0.89274449,2.1597724,0.92012549 C2.1392114,0.94770949,2.1343264,0.98079049,2.1460314,1.0131585 L2.1649644,1.0650695 C2.1742264,1.0903125,2.1911234,1.1090415,2.2154504,1.1205435 L2.3707774,1.1941355 C2.4143424,1.2147985,2.4365314,1.2627395,2.4239094,1.3093585 L2.2446624,1.9709735 C2.2428304,1.9777935,2.2404894,1.9833915,2.2372324,1.9898045 L1.8318154,2.7876095 C1.8242834,2.8025715,1.8208224,2.8168215,1.8210264,2.8334135 L1.8276424,3.5063265 C1.8277444,3.5241385,1.8319174,3.5394065,1.8407724,3.5547765 L2.0286714,3.8803925 C2.0353894,3.8920985,2.0392574,3.9032945,2.0408864,3.9166285 L2.1493914,4.7300075 C2.1503074,4.7368275,2.1505104,4.7428325,2.1501034,4.7497545 L2.0760024,5.8467145 C2.0746794,5.8668685,2.0062784,6.0727835,1.9876514,6.1627625 L0.12485145,7.0062705 L1.9319714,6.5531155 L1.4003384,7.7115555 L2.4160684,6.2342255 L7.5871484,7.1114245 L5.4980784,6.5731755 L5.7634364,6.1649085 L6.7939264,6.7001035 L5.6711164,5.7263085 L4.9546384,6.4228355 L4.9384544,6.1912705 C4.9380474,6.1826185,4.9386584,6.1752895,4.9402864,6.1668415 L5.1060974,5.3379915 C5.1109834,5.3134605,5.1073194,5.2907625,5.0946974,5.2691835 L4.9437474,5.0077945 C4.9348924,4.9925265,4.9308204,4.9774625,4.9305154,4.9597515 L4.9240014,4.5097515 C4.9238994,4.5037455,4.9243064,4.4985545,4.9253244,4.4925495 L5.0263984,3.8649315 C5.0282304,3.8533275,5.0282304,3.8430475,5.0260934,3.8315455 L4.9913834,3.6405935 C5.0546954,3.6638005,5.1308314,3.6657345,5.2079854,3.6512805 C5.3148614,3.6312285,5.2645794,3.6330605,5.2134824,3.5760605 C5.1341904,3.4874035,5.0250754,3.3833775,4.9291914,3.3143665 C4.9246104,3.3039835,4.9181984,3.2946195,4.9096484,3.2859675 L4.6417454,3.0117535 C4.6328894,3.0026945,4.6239324,2.9963835,4.6123284,2.9910915 L3.6818944,2.5625685 C3.6623514,2.5536105,3.6479994,2.5404805,3.6374134,2.5218535 L3.4068664,2.1170475 C3.3826414,2.0745005,3.3926164,2.0217745,3.4306844,1.9911375 L3.5058034,1.9303705 C3.5328784,1.9086895,3.5458054,1.8773395,3.5420394,1.8427325 L3.4635624,1.1171955 L3.4766924,1.1132255 C3.5076354,1.1039625,3.5382734,1.1094595,3.5640254,1.1286965 C3.5899814,1.1480365,3.6039254,1.1757225,3.6039254,1.2080905 V1.3374615 C3.6039254,1.3638245,3.6130864,1.3865225,3.6312044,1.4056585 L3.7118204,1.4902435 C3.7330934,1.5126365,3.7606774,1.5230195,3.7913154,1.5205765 L3.9527494,1.5075475 C3.9859324,1.5047995,4.0133124,1.4876995,4.0301074,1.4588935 L4.1725074,1.2155215 L4.0795764,1.2439195 C4.0625774,1.2490095,4.0468004,1.2557275,4.0305144,1.2582715 L3.9921414,1.3310495 L3.9883754,1.2539965 L3.9724964,1.2502305 C3.9277104,1.2396445,3.8963594,1.2004575,3.8963594,1.1540425 V0.91443649 C3.8963594,0.90110249,3.9011434,0.89041449,3.9035864,0.87748749 L3.9523424,0.61447049 C3.9555994,0.59716649,3.9608924,0.58271349,3.9588574,0.56520549 L3.9325964,0.35593149 C3.9288294,0.32570149,3.9133584,0.30127249,3.8878094,0.28478249 L3.7094784,0.17088349 C3.6861694,0.15592149,3.6605194,0.15164649,3.6333424,0.15805849 L3.4220324,0.20844349 C3.3938374,0.21516149,3.3720544,0.23175249,3.3582114,0.25730049 Z M2.2064904,5.9546105 L2.2895484,5.0082985 C2.2906684,4.9974075,2.2931114,4.9880425,2.2974874,4.9780675 L2.3842104,4.7798885 C2.3877724,4.7714405,2.3900124,4.7641115,2.3913354,4.7550525 L2.4593294,4.3085135 C2.4673704,4.2555845,2.5162274,4.2185345,2.5692584,4.2252525 L2.7472844,4.2475435 C2.7866754,4.2524295,2.8178224,4.2783845,2.8295274,4.3162495 L2.9309074,4.6427815 C2.9351824,4.6565225,2.9364044,4.6689405,2.9346734,4.6832925 L2.9051554,4.9431545 C2.9030184,4.9624945,2.9058684,4.9794925,2.9142144,4.9969995 L2.9778314,5.1298325 C2.9835314,5.1418425,2.9864834,5.1528355,2.9872974,5.1660685 L3.0385984,5.9394455 L2.3006434,5.7493075 Z M3.2445104,5.9925765 L3.2183514,5.1875455 C3.2180454,5.1788935,3.2187584,5.1714625,3.2205904,5.1629125 L3.2703644,4.9389815 C3.2729094,4.9274795,3.2733164,4.9169955,3.2718914,4.9052905 L3.2552994,4.7733745 C3.2536714,4.7598365,3.2545874,4.7480295,3.2581494,4.7348985 L3.3260414,4.4876585 C3.3400884,4.4363585,3.3922034,4.4053135,3.4440124,4.4175275 L3.5432544,4.4408365 C3.5737914,4.4479615,3.5971004,4.4669965,3.6103324,4.4953945 L3.7770594,4.8528695 C3.7835734,4.8668145,3.7919204,4.8776035,3.8038294,4.8873755 L4.0635894,5.1008225 C4.0888324,5.1215865,4.1014534,5.1505965,4.0993164,5.1832695 L4.0378374,6.1968595 L3.2445104,5.9925735 Z M4.1713814,6.2313695 L4.2918974,5.4979945 L4.3686444,5.0441265 C4.3736324,5.0147105,4.3664054,4.9875335,4.3473714,4.9646315 L4.2203414,4.8110355 C4.2116894,4.8005515,4.2059894,4.7902705,4.2019174,4.7772425 L4.1515334,4.6134675 L4.2646184,4.6642585 C4.2832454,4.6727075,4.2970884,4.6846165,4.3078774,4.7020215 L4.4960814,5.0032085 C4.5006624,5.0104355,4.5052424,5.0162375,4.5114514,5.0221415 L4.8051064,5.3033785 C4.8276014,5.3250585,4.8379834,5.3529485,4.8350314,5.3840955 L4.7299874,6.3752955 Z" fill="black" stroke="none" stroke-width="0" opacity="1.0" />
</g>
<text x="534.375" y="64.93055555555556" font-size="5.769230769230769" font-family="Arial" text-anchor="middle" fill="black">goating route</text>
<text x="534.375" y="81.59722222222223" font-size="8.333333333333332" font-family="Courier New" text-anchor="middle" fill="black">"goating"</text>
<g id="import" transform="translate(3.125, 109.375) scale(0.5555555555555556)">
<path d="M89.9274,33.3306 C89.9006,35.5785,89.4599,37.8023,88.6274,39.8906 C87.9607,41.5706,87.254,43.2206,86.5074,44.8406 C84.8374,48.3706,83.1274,51.8406,81.3974,55.3706 C79.9856,58.2786,78.0999,60.9315,75.8174,63.2206 C73.3073,65.7106,70.8174,68.2206,68.2874,70.6906 C65.6458,73.4998,62.4524,75.7331,58.9074,77.2506 C54.831,78.7813,50.4685,79.3991,46.1274,79.0606 C40.6074,78.6906,35.2474,77.3906,29.8474,76.2906 C25.3074,75.3706,20.6874,74.8106,16.0974,74.0906 C14.8174,73.8906,13.5274,73.7006,12.2574,73.4606 C9.28745,72.9033,6.70889,71.0771,5.19736,68.4606 C2.99736,64.9206,1.99736,60.9406,0.937356,57.0006 C0.717356,56.1606,0.597356,55.3006,0.407356,54.4506 C-0.293631,51.4094,0.114179,48.2178,1.55736,45.4506 C3.3145,41.8699,5.50418,38.5182,8.07736,35.4706 C10.0774,33.1806,12.0774,30.8906,14.0774,28.5706 C17.7284,24.2248,22.565,21.0352,27.9974,19.3906 C30.3674,18.6606,32.7474,17.9706,35.0674,17.1006 C37.3874,16.2306,39.6974,15.1006,42.0674,14.1006 C43.6062,13.4748,45.1867,12.9569,46.7974,12.5506 C49.0774,11.9906,51.3774,11.5506,53.6974,11.1406 C59.1074,10.2706,64.2874,11.4706,69.3974,13.1406 C73.6018,14.4728,77.6307,16.306,81.3973,18.6006 C86.8273,21.9706,89.5573,26.9706,89.9274,33.3306 Z" fill="black" stroke="none" stroke-width="0" opacity="1.0" />
</g>
<text x="28.125" y="171.18055555555554" font-size="7.5" font-family="Arial" text-anchor="middle" fill="black">coal piece</text>
<text x="28.125" y="187.8472222222222" font-size="12.5" font-family="Courier New" text-anchor="middle" fill="black">"coal"</text>
<g id="import" transform="translate(59.375, 109.375) scale(0.5876476533777711)">
<path d="M53.585724,63.813842 C53.503754,53.929748,53.242768,43.060852,52.951752,33.052673 L52.955231,33.04895 C52.954011,33.047973,52.95279,33.047058,52.951569,33.046081 C52.940583,32.667968,52.929841,32.282348,52.918793,31.90686 C52.61319,21.229187,52.210908,10.623352,50.639313,0.0 C49.206635,9.649537,48.734711,19.598938,48.433503,29.474488 C46.434723,27.908325,44.426728,26.353332,42.397553,24.823608 C39.22342,22.457702,34.859772,18.971008,31.453461,17.013488 C33.664033,20.287719,37.43155,24.361694,40.026642,27.370727 C42.717377,30.453613,45.46402,33.482238,48.234101,36.489868 C48.180024,38.514953,48.125214,40.53479,48.063386,42.542541 C47.7211,56.721801,47.52829,70.903137,47.726716,85.085082 H53.551972 C53.654938,77.994872,53.648774,70.904296,53.585724,63.813842 Z" fill="black" stroke="none" stroke-width="0px" opacity="1.0" />
</g>
<text x="84.375" y="171.18055555555554" font-size="15.0" font-family="Arial" text-anchor="middle" fill="black">stick</text>
<text x="84.375" y="187.8472222222222" font-size="10.714285714285715" font-family="Courier New" text-anchor="middle" fill="black">"stick"</text>
<g id="import" transform="translate(115.625, 109.375) scale(0.07092198581560284)">
<path d="M152.73813,672.68007 C121.97092,667.54148,79.357121,633.20386,46.750351,587.27655 C33.058781,567.9917,24.114521,549.47846,13.976621,519.44 C4.6582607,491.82984,1.4033807,475.51766,1.4033807,456.42796 C1.4033807,439.05663,2.9632307,428.86066,6.1273507,425.54967 C11.810111,419.60312,19.395461,419.48074,30.811441,425.15143 C44.049651,431.72728,58.783701,446.42631,75.221941,469.45639 C90.250711,490.51177,106.06432,520.04606,117.42479,548.27655 C123.74871,563.99132,136.71254,602.76929,139.4262,614.08808 C142.70185,627.75099,141.53357,641.63815,136.96087,643.39286 C133.95313,644.54704,126.44365,638.61708,110.58411,622.5641 C93.083931,604.85048,88.351731,599.21145,78.873341,584.77655 C62.929511,560.49529,50.734411,531.25148,47.411761,509.33181 C45.839931,498.9624,46.691461,493.64232,50.538821,489.79496 C54.592521,485.74126,57.585141,485.92542,62.427111,490.52655 C68.649581,496.43952,92.856951,531.24611,98.418311,542.27655 C105.57476,556.47068,109.69192,576.63234,106.05107,579.65398 C101.03092,583.82033,82.816861,558.27598,77.795261,540.02655 C76.695791,536.03088,75.553431,533.77655,74.628141,533.77655 C71.451941,533.77655,77.155861,550.69383,84.500251,563.05627 C89.652281,571.72842,99.769751,582.35918,103.8221,583.35838 C116.0955,586.38467,110.15134,552.15053,94.309191,528.57082 C89.762541,521.80352,75.507341,501.63387,69.142791,492.96295 C62.070551,483.32789,55.308781,481.28668,48.952121,486.8679 C44.412661,490.8536,42.990291,496.0356,43.762051,505.77655 C45.697571,530.20627,63.472951,570.67315,84.393381,598.27655 C93.711981,610.57196,124.63277,641.751,130.47439,644.74244 C139.69362,649.46352,144.40885,644.32355,144.39637,629.56639 C144.3879,619.54284,142.50083,611.40314,134.36027,586.27655 C116.27035,530.44032,94.691101,487.75882,67.513531,454.06064 C44.507151,425.53444,21.291371,412.06056,8.5406007,419.83418 C6.6910707,420.96176,4.9882807,421.69479,4.7566307,421.46313 C4.0508507,420.75735,6.3560507,411.75734,8.5472307,406.6638 C10.285751,402.6225,11.302261,401.59868,14.965021,400.19986 C20.723101,398.00083,24.392061,398.77749,35.742981,404.59825 C88.484271,431.64401,147.88289,518.95408,168.86647,600.27655 C176.31811,629.15556,177.35849,649.08482,172.14524,663.08351 C168.00602,674.1982,166.44618,674.96952,152.73813,672.68007 Z M181.70593,663.43051 C183.59115,658.5177,184.61457,647.24958,184.186,636.12442 C183.92438,629.33309,184.0084,623.77655,184.37271,623.77655 C184.73702,623.77655,186.09874,621.86405,187.39874,619.52655 C195.72245,604.55996,212.04367,582.59973,226.19955,567.32002 C260.22501,530.59327,307.21986,500.29693,348.90338,488.21609 C363.9137,483.86575,407.58477,473.17618,406.2913,474.16898 C405.49765,474.77814,393.50969,484.38905,379.65139,495.52655 C365.79309,506.66405,353.74128,515.77655,352.86959,515.77655 C350.05028,515.77655,323.23679,526.81995,311.20033,532.93844 C269.84878,553.95867,240.67443,584.20375,206.95404,641.01069 C201.73452,649.80375,200.34096,651.35994,192.53964,657.10737 C181.61864,665.15315,180.8793,665.58466,181.70593,663.43051 Z M226.85968,626.77655 C229.22155,622.64292,241.3322,605.44257,246.22225,599.27655 C266.72343,573.42594,286.73554,556.38992,312.47236,542.87884 C325.88345,535.8384,332.68865,532.85717,330.40338,535.02359 C329.57838,535.80568,320.97151,543.02228,311.27699,551.06049 C291.39388,567.54656,270.42772,586.312,244.00543,611.27085 C234.10388,620.62398,226.3883,627.60155,226.85968,626.77655 Z M179.94883,606.23107 C179.57393,603.73106,178.68265,600.01856,177.96822,597.98107 C176.73628,594.46774,176.86317,593.88948,180.42692,586.77655 C188.49843,570.66653,202.65406,555.18808,233.90338,528.30283 C244.90338,518.83901,258.17838,507.35945,263.40338,502.79269 C284.22639,484.59293,297.34933,475.97769,316.79388,467.74171 C338.96515,458.3508,355.71716,453.3019,416.80465,437.59942 C465.27759,425.13949,461.85024,425.78638,457.26559,429.96273 C435.97687,449.35553,424.5314,458.58754,419.90338,460.0994 C417.15338,460.99777,401.85338,465.08578,385.90338,469.18389 C357.33038,476.52527,332.62503,483.76089,322.21686,487.83616 C312.47239,491.65157,288.81641,504.38869,277.07485,512.14204 C241.9263,535.35181,208.28651,569.27631,186.95306,603.02655 C184.25875,607.28905,181.73394,610.77655,181.34239,610.77655 C180.95083,610.77655,180.32373,608.73108,179.94883,606.23107 Z M166.72569,564.97664 C163.12314,555.62963,161.01759,548.83853,161.52235,548.19409 C161.98866,547.59874,163.94496,543.99874,165.86969,540.19409 C170.37928,531.27992,194.26807,501.44333,208.29639,487.20404 C229.21823,465.96755,252.34241,449.42715,281.40338,434.91162 C329.44409,410.916,378.96544,398.74015,446.40338,394.34295 C461.0031,393.39099,473.64355,391.95754,482.40338,390.26048 C505.07284,385.86866,511.45165,385.91918,535.6456,390.68215 C567.95525,397.04282,573.74094,397.84828,591.65338,398.47938 C604.98401,398.94904,608.40338,399.35261,608.40338,400.45628 C608.40338,401.21899,607.30166,404.01717,605.95512,406.67445 C604.00333,410.52611,602.86266,411.63469,600.33012,412.1412 C598.58291,412.49064,584.91458,412.77655,569.95605,412.77655 C546.02745,412.77655,540.72427,412.47354,525.83105,410.25537 C516.52083,408.86873,505.24497,407.80371,500.77359,407.88868 C496.3022,407.97365,492.19973,407.76872,491.65699,407.43329 C491.11426,407.09786,485.32266,408.6236,478.78679,410.82383 C464.565,415.61143,441.85801,421.85241,399.40338,432.64224 C350.61421,445.04199,330.98461,451.21646,308.11018,461.35844 C288.7936,469.92295,281.66366,475.04641,242.78963,508.29679 C202.70085,542.58619,184.99572,560.3146,176.19735,574.97664 L172.77685,580.67673 Z M150.74022,527.79773 L145.57706,516.87894 L151.80169,505.07775 C162.7479,484.32494,170.16089,474.0128,185.33798,458.42575 C212.33856,430.69582,245.46701,409.9531,293.48662,390.71062 C332.51476,375.07121,415.03412,350.04709,441.42111,345.84927 C462.88832,342.43411,572.36385,334.53292,574.20752,336.26565 C574.37479,336.42287,569.47991,340.08963,563.33001,344.41402 C557.1801,348.73841,549.73074,353.98254,546.77587,356.06765 C543.821,358.15275,541.40338,360.19012,541.40338,360.59514 C541.40338,362.37459,544.82715,365.93911,548.69948,368.19117 C554.65371,371.65401,566.58783,374.41862,583.40338,376.23053 C591.37838,377.08985,600.245,378.04402,603.10699,378.3509 C608.65986,378.94632,608.66546,378.95278,609.89126,386.18586 L610.55378,390.09518 L594.22858,389.45492 C576.61878,388.76428,569.91458,387.83988,538.3222,381.74628 C512.56046,376.77731,507.10086,376.72594,479.79261,381.19553 C467.38485,383.22632,453.21908,384.86275,444.90338,385.22593 C363.75996,388.76975,285.30781,414.02997,232.57501,453.59194 C219.07375,463.72105,204.86549,476.36545,196.23213,485.93468 C180.7852,503.05609,162.31123,527.01863,157.9992,535.52655 C157.09325,537.31405,156.25108,538.76304,156.1277,538.74654 C156.00432,538.73003,153.57996,533.80307,150.74022,527.79773 Z M135.40974,499.02655 C129.29899,488.24263,113.77059,465.28987,105.6748,455.07487 C93.691291,439.95449,94.628731,442.17782,98.521591,438.10952 C103.47234,432.93566,111.01998,428.04428,129.4658,418.0556 C172.06229,394.98898,219.32017,367.88662,235.90338,357.01373 C247.42929,349.45669,251.17121,346.19985,268.90338,328.29164 C292.53502,304.4254,298.37383,300.25516,342.40338,275.79591 C384.30373,252.51947,392.93706,246.42377,424.28968,217.97874 C454.67524,190.4111,463.58133,183.95812,514.90338,152.32388 C577.88997,113.49978,596.68492,101.22409,620.22167,83.53655 C628.09674,77.61855,634.91432,72.77655,635.37185,72.77655 C636.86585,72.77655,650.54964,89.08422,655.97463,97.32993 C658.88878,101.75929,662.92106,109.1315,664.93525,113.71261 C668.30946,121.38695,678.17867,139.45115,680.73661,142.63476 C681.54797,143.64459,681.43832,144.28585,680.30914,145.13476 C678.5304,146.47201,648.4904,185.74168,632.98306,207.00158 C610.37921,237.9905,596.22558,258.51433,593.20603,264.68129 C588.96023,273.35265,588.89622,280.27366,592.98671,288.3941 C596.59066,295.54866,599.71123,297.30179,613.02344,299.65068 L622.70007,301.35808 L613.30172,308.15808 C608.13263,311.89808,600.65305,317.3481,596.68041,320.26924 L589.45745,325.5804 L579.18041,326.21927 C573.52805,326.57064,558.32838,327.27545,545.40338,327.78551 C519.33397,328.81429,449.93091,334.87236,435.90338,337.34358 C419.08962,340.30564,395.72624,346.83602,345.90338,362.49977 C266.34984,387.51052,217.22081,413.30483,181.43923,448.84868 C166.50617,463.68253,152.71704,482.30669,144.28806,499.02655 C142.13921,503.28905,140.25061,506.77655,140.09118,506.77655 C139.93175,506.77655,137.8251,503.28905,135.40974,499.02655 Z M447.75268,316.81007 C455.16211,315.16174,466.77931,313.39263,473.56868,312.87872 C500.26719,310.85782,534.46358,298.39576,552.14866,284.24212 C565.4015,273.63567,574.34309,261.87124,596.20558,226.27655 C601.27725,218.01927,609.2572,206.80147,613.95795,201.32118 C623.15267,190.6017,627.47366,182.82263,629.86246,172.68835 C632.97844,159.46908,630.77539,149.86568,623.52101,145.04508 C611.26603,136.90153,586.7389,140.38259,555.54083,154.69329 C549.69023,157.37699,543.10338,160.13076,540.90338,160.81277 C525.81265,165.491,510.7748,176.16085,478.90338,204.80382 C456.25838,225.15497,450.1352,229.61359,434.84484,236.88526 C416.89138,245.42342,409.89117,250.27061,402.92331,258.98884 C387.60324,278.15741,384.22796,297.20196,394.10558,308.74174 C404.53388,320.92486,419.28432,323.14328,447.75268,316.81007 Z M409.42136,308.6996 C400.99197,304.87607,398.20338,300.60173,398.20338,291.50473 C398.20338,282.56921,404.34794,270.64227,413.81218,261.2072 C420.14751,254.8914,422.66216,253.26866,437.40338,245.98353 C456.57373,236.50952,459.59973,234.3419,484.61297,212.1658 C505.27451,193.84781,512.86822,187.57266,521.31585,181.83599 C529.00056,176.6174,540.64574,170.77655,543.36557,170.77655 C544.59156,170.77655,546.89534,169.85037,548.48507,168.71838 C556.44546,163.05009,580.52603,153.80471,594.08768,151.20994 C613.19785,147.55356,622.40338,151.11842,622.40338,162.17527 C622.40338,167.20092,617.97065,180.51258,614.54424,185.77655 C612.93322,188.25155,608.51176,193.76324,604.71877,198.02474 C600.58506,202.66905,592.9149,213.75744,585.57182,225.70458 C556.11205,273.63538,545.87416,282.99566,509.01586,295.69798 C494.80593,300.59509,479.94185,303.7755,471.2463,303.77938 C467.75769,303.78094,457.27287,305.35594,447.9467,307.27938 C427.57417,311.48104,416.45686,311.89087,409.42136,308.6996 Z M462.90338,293.83725 C487.57969,287.89863,516.50439,273.45253,530.55734,260.04829 C543.12339,248.06231,560.40338,215.37268,560.40338,203.58669 C560.40338,199.64816,557.09938,193.67019,554.02943,192.05422 C549.60298,189.72421,540.63533,190.11027,535.20953,192.86443 C523.85987,198.62555,517.13591,204.39414,500.45897,222.67749 C482.85908,241.97269,479.51641,244.60868,460.32822,254.32417 C436.76715,266.25376,431.62522,271.32632,432.61819,281.66037 C433.83534,294.32741,443.95675,298.39696,462.90338,293.83725 Z M443.47596,284.14169 C438.57441,277.91038,442.53616,273.86732,464.35966,262.82939 C483.26262,253.26862,491.35759,247.09339,504.38836,232.29361 C524.04231,209.9715,537.85697,199.27932,546.15629,199.96636 L549.90338,200.27655 L549.78561,206.05366 C549.68842,210.82124,548.78093,213.65496,544.59239,222.2699 C538.35149,235.1061,529.98164,247.91195,524.23055,253.42345 C511.41547,265.70466,480.48838,280.78629,459.0298,285.21868 C448.31431,287.43203,445.93452,287.26725,443.47596,284.14169 Z M81.460711,427.33427 L74.143891,419.96828 L79.002111,414.77445 C85.088301,408.26783,98.286151,399.48329,118.90338,388.21604 C147.80914,372.41912,153.40045,367.8128,174.37384,342.51748 C206.38488,303.91002,211.29126,293.85722,217.44075,254.27655 C221.31961,229.3106,226.07657,216.8507,237.3372,202.1618 C245.77689,191.15266,250.69209,185.77267,249.97053,188.33384 C249.65175,189.46535,247.8346,197.79035,245.93243,206.83384 C239.37443,238.01247,236.90848,245.97368,227.98497,264.77655 C223.41711,274.40155,218.8324,284.75155,217.79674,287.77655 C215.24022,295.24366,215.17502,309.92684,217.67799,314.51713 C222.74263,323.80538,233.69306,323.28062,247.12891,313.10581 C252.87077,308.75756,268.22007,292.51363,277.67765,280.77655 C292.82661,261.97632,295.96807,244.05051,287.31888,225.7618 L284.38058,219.54876 L289.03831,215.41266 C296.06051,209.17688,295.90794,209.17395,297.68866,215.57886 C302.99142,234.65183,326.30207,246.76097,347.34021,241.37125 C350.85847,240.46991,357.08983,237.88167,361.18768,235.61961 C378.15984,226.25077,392.56049,213.11812,424.17433,178.17903 C445.22044,154.91921,452.50088,147.87255,465.90338,137.78989 C478.84242,128.05589,491.16251,120.51399,514.95974,107.75941 C567.56274,79.56584,584.09757,69.45456,601.16823,55.04168 L606.43309,50.59653 L609.9647,52.68023 C615.0696,55.69219,627.40338,65.01159,627.40338,65.85688 C627.40338,67.29397,602.59778,85.29028,580.02125,100.23232 C567.30642,108.64749,542.05338,124.64054,523.90338,135.77243 C463.35974,172.90549,447.75556,183.96413,419.37667,209.85019 C386.70861,239.64866,380.61251,243.92907,333.44193,270.18968 C292.054,293.23101,287.47222,296.539,263.40338,320.75668 C237.60333,346.71627,234.85691,348.61153,172.40338,383.55443 C156.17838,392.63236,135.54632,404.05952,126.55436,408.94813 C108.13859,418.96014,99.982451,424.23767,93.340461,430.43963 L88.777541,434.70025 Z M57.403381,407.19926 C47.361331,399.60994,30.648601,390.87223,24.653381,390.07697 C22.315881,389.7669,20.419431,389.23496,20.439041,388.89488 C20.481841,388.15276,40.109101,374.57751,42.594101,373.57126 C43.552071,373.18335,52.563561,371.02881,62.619621,368.78338 C91.131561,362.41694,108.29676,356.06246,126.90338,344.98585 C149.26639,331.67304,168.84235,310.7998,178.97484,289.46365 C184.6619,277.48832,185.00242,270.72453,180.88964,251.42983 L179.21707,243.5831 L181.81022,237.80478 C183.23646,234.6267,184.40338,230.57268,184.40338,228.79585 C184.40338,222.80456,181.38269,213.84801,175.81289,203.32447 L170.27355,192.85848 L172.29717,188.28374 C173.84082,184.79406,175.20323,183.3403,178.04121,182.15451 C181.64071,180.65055,181.82123,180.67602,183.59568,182.93829 C185.51897,185.39031,191.15279,196.45585,193.95055,203.27655 L195.59129,207.27655 L199.01243,198.27655 C203.97263,185.22773,203.96046,185.24493,215.11804,175.50597 C229.73937,162.74366,234.13272,155.54318,239.35888,135.77655 L242.135,125.27655 L248.01919,125.48915 C254.55939,125.72545,263.12677,127.51998,263.93157,128.82216 C264.5873,129.88316,256.88352,161.22025,254.96977,165.27655 C254.19131,166.92655,248.5527,174.07073,242.43952,181.15251 C218.23253,209.195,214.18835,217.80642,207.93465,254.62498 C205.94031,266.36661,203.21616,279.41661,201.88099,283.62498 C197.43238,297.64663,186.94962,313.27174,163.1861,341.30175 C145.51111,362.1501,140.42062,366.12168,111.12165,381.9223 C92.861851,391.76961,82.116711,399.01206,73.936791,406.98567 C70.105171,410.72065,66.730171,413.74204,66.436791,413.69986 C66.143421,413.65768,62.078381,410.73241,57.403381,407.19926 Z M68.386481,355.9741 C69.752191,355.04045,73.580531,352.21021,76.893901,349.68469 C80.207281,347.15916,93.264881,337.98461,105.9108,329.29679 C134.05916,309.95872,140.71483,304.8637,150.71637,294.99744 C158.57187,287.24819,161.47737,282.42269,169.45828,263.87057 C170.66354,261.06886,172.01187,258.77655,172.45457,258.77655 C173.66379,258.77655,174.73778,269.30528,174.0881,274.79075 C172.96478,284.27546,162.58269,301.46904,150.1687,314.40322 C131.71063,333.63474,106.03235,348.27297,78.521511,355.24661 C66.954261,358.17875,64.951301,358.32252,68.386481,355.9741 Z M225.3668,308.16572 C222.9728,300.91183,225.51903,291.75378,236.26435,268.97035 C240.07586,260.88876,243.46379,253.36778,243.7931,252.25706 C244.1224,251.14635,246.07061,249.34635,248.12245,248.25706 C252.25762,246.06178,269.08853,233.26824,274.132,228.48664 L277.36062,225.42566 L279.49883,230.25943 C286.68717,246.50987,283.41491,259.87141,267.72763,278.32444 C249.35407,299.93734,235.76289,311.74423,229.23093,311.76717 C227.04444,311.77484,226.34179,311.11996,225.3668,308.16572 Z M629.40338,293.64485 C628.02838,293.09214,622.34258,291.81416,616.76826,290.8049 C611.19394,289.79564,605.64335,288.44016,604.4336,287.79272 C601.72168,286.34135,599.40338,281.03028,599.40338,276.26883 C599.40338,270.20766,599.7367,269.68085,633.56437,222.27655 C650.04033,199.18801,684.6254,153.53588,685.98387,153.08305 C687.39137,152.61389,696.80263,172.56087,699.28595,181.27655 C703.85212,197.30237,704.89874,215.67132,701.90693,227.27655 C697.63574,243.84451,686.87419,257.95052,667.40338,272.50308 C660.55614,277.62073,633.68223,294.79919,632.65802,294.71316 C632.24297,294.6783,630.77838,294.19756,629.40338,293.64485 Z M328.78689,232.36477 C312.49412,228.41077,301.27778,212.32655,306.69848,200.69002 C308.38265,197.07464,330.06789,176.73677,342.51984,167.09434 C348.23079,162.67195,355.73289,156.51629,359.19118,153.41509 C362.64947,150.31389,365.82862,147.77655,366.25597,147.77655 C366.68331,147.77655,367.78549,149.35463,368.70525,151.28339 C371.14761,156.40507,375.65208,158.77339,382.90338,158.74837 C399.08094,158.69253,411.29842,151.99289,437.40338,128.86249 C449.26807,118.34973,467.17814,105.83392,482.90338,97.06643 C487.85338,94.30659,508.10338,83.91653,527.90338,73.97741 C562.33488,56.69362,564.30943,55.5492,573.22303,47.71075 L582.54268,39.51523 L589.46722,42.23198 C593.27572,43.72619,596.57493,45.24749,596.79881,45.61264 C597.82566,47.28747,571.12386,66.19104,553.90338,75.98049 C549.50338,78.48179,533.63754,87.10122,518.64597,95.13477 C487.9431,111.58755,475.87063,118.86822,460.97827,129.91302 C447.60679,139.82987,439.39084,147.63234,421.10817,167.77655 C381.16632,211.78529,362.37728,227.68316,344.93882,232.2253 C338.00383,234.03164,335.73605,234.05122,328.78689,232.36477 Z M208.40338,150.46594 C208.40338,136.92714,208.73584,131.74709,209.65338,130.98994 C211.5573,129.41883,222.30454,126.10098,227.73097,125.40908 L232.55856,124.79354 L231.87119,128.03505 C228.41112,144.3522,221.25559,158.37903,212.8983,165.2272 L208.40338,168.91045 Z M378.80308,149.07832 C377.02598,147.78337,375.40338,144.10394,375.40338,141.3691 C375.40338,139.38059,378.3209,136.18561,388.861,126.63165 C405.95246,111.13929,417.44283,102.54784,436.05962,91.34087 C461.43115,76.06767,469.37951,70.55577,486.01592,56.69797 C512.78908,34.39646,519.83211,31.27655,543.40338,31.27655 C554.29402,31.27655,559.71897,31.74165,565.19723,33.14501 C569.20884,34.17267,572.35884,35.34802,572.19723,35.7569 C572.03561,36.16578,568.97838,39.05872,565.40338,42.18566 C560.01083,46.90234,552.34386,51.17688,520.40338,67.27439 C465.95465,94.71569,452.8995,102.8056,429.40338,123.66453 C416.10228,135.47272,402.82463,144.7597,395.80626,147.16385 C390.04905,149.13599,380.37676,150.22504,378.80308,149.07832 Z" fill="black" stroke="none" stroke-width="0" opacity="1.0" />
</g>
<text x="140.625" y="171.18055555555554" font-size="5.357142857142858" font-family="Arial" text-anchor="middle" fill="black">cedar firewood</text>
<text x="140.625" y="187.8472222222222" font-size="10.714285714285715" font-family="Courier New" text-anchor="middle" fill="black">"cedar"</text>
<g id="import" transform="translate(171.875, 109.375) scale(0.625)">
<path d="M60.245805,10.0 C57.245805,10.0,54.345805,10.7,51.745805,12.0 L51.646195,12.09961 C51.446195,12.19961,51.146975,12.3,50.946975,12.5 L36.046587,20.199219 V21.398438 L30.646196,24.0 L29.146196,23.798828 L11.146196,33.199219 C4.7461965,36.299219,0.34541548,42.89961,0.34541548,50.59961 C0.34541548,61.29961,9.0458055,70.0,19.745805,70.0 C22.445805,70.0,25.045415,69.5,27.345415,68.5 C28.245415,68.1,29.146977,67.59961,29.946977,67.09961 L67.646195,47.398438 C68.646195,46.998438,69.646195,46.398438,70.646195,45.898438 H70.745805 C73.845805,43.898438,76.346975,41.099219,77.946975,37.699219 L76.845415,37.398438 L78.745805,32.398438 L79.546585,31.898438 C79.646585,31.098438,79.646195,30.3,79.646195,29.5 C79.746195,26.2,78.946585,23.2,77.546585,20.5 C74.346585,14.3,67.745805,10.0,60.245805,10.0 Z M53.470415,16.361328 C53.690725,16.361328,53.896585,16.474219,54.046585,16.699219 C54.146585,16.999219,54.045805,17.3,53.745805,17.5 L25.946977,31.699219 C25.846977,31.699219,25.746196,31.798828,25.646196,31.798828 C25.446196,31.798828,25.246196,31.7,25.146196,31.5 C24.946196,31.1,25.145415,30.799219,25.345415,30.699219 L53.245805,16.398438 C53.320805,16.373438,53.396975,16.361328,53.470415,16.361328 Z M70.058305,21.521485 C70.377055,21.51211,70.695415,21.7,70.845415,22.0 C71.045415,22.4,70.846975,22.89961,70.446975,23.09961 L42.546587,37.298828 C42.446587,37.398828,42.346196,37.398438,42.146196,37.398438 C41.846196,37.398438,41.546977,37.2,41.446977,37.0 C41.246977,36.6,41.445415,36.098438,41.845415,35.898438 L69.745805,21.59961 C69.845805,21.54961,69.952055,21.52461,70.058305,21.521485 Z M71.470415,32.960938 C71.690725,32.960938,71.896585,33.073828,72.046585,33.298828 C72.146585,33.498828,72.045805,33.9,71.745805,34.0 L43.845415,48.298828 C43.745415,48.298828,43.646587,48.398438,43.546587,48.398438 C43.346587,48.398438,43.146587,48.29961,43.046587,48.09961 C42.946587,47.79961,43.045415,47.498828,43.345415,47.298828 L71.245805,33.0 C71.320805,32.975,71.396975,32.960938,71.470415,32.960938 Z M19.745805,34.199219 C24.745805,34.199219,29.146196,36.398438,32.146196,39.898438 L30.646196,42.798828 L33.845415,42.298828 C35.245415,44.698828,36.046587,47.498438,36.046587,50.398438 C36.046587,59.498438,28.745805,66.798828,19.745805,66.798828 C10.745805,66.798828,3.4469775,59.5,3.4469775,50.5 C3.4469775,41.5,10.745805,34.199219,19.745805,34.199219 Z M19.745805,37.699219 C12.645805,37.699219,6.8454155,43.49961,6.8454155,50.59961 C6.8454155,57.69961,12.645805,63.5,19.745805,63.5 C26.845805,63.5,32.646196,57.69961,32.646196,50.59961 C32.646196,43.49961,26.845805,37.699219,19.745805,37.699219 Z M19.745805,38.59961 C26.345805,38.59961,31.646196,44.0,31.646196,50.5 C31.646196,57.0,26.345805,62.5,19.745805,62.5 C13.145805,62.5,7.8454155,57.09961,7.8454155,50.59961 C7.8454155,44.09961,13.145805,38.59961,19.745805,38.59961 Z M19.745805,40.798828 C14.345805,40.798828,9.9469775,45.19961,9.9469775,50.59961 C9.9469775,55.99961,14.345805,60.398438,19.745805,60.398438 C25.145805,60.398438,29.546587,55.99961,29.546587,50.59961 C29.546587,45.19961,25.145805,40.798828,19.745805,40.798828 Z M19.745805,41.798828 C24.545805,41.798828,28.546587,45.79961,28.546587,50.59961 C28.546587,55.39961,24.645805,59.398438,19.745805,59.398438 C14.845805,59.398438,10.946977,55.39961,10.946977,50.59961 C10.946977,45.79961,14.945805,41.798828,19.745805,41.798828 Z M65.195025,42.421875 C65.772175,42.419922,66.296585,42.66211,66.546585,43.09961 C66.946585,43.79961,66.546585,44.798828,65.546585,45.298828 C64.646585,45.798828,63.546195,45.598438,63.146195,44.898438 C62.746195,44.198438,63.146195,43.199219,64.146195,42.699219 C64.483695,42.511719,64.848735,42.423047,65.195025,42.421875 Z M67.892295,43.060547 C68.032915,43.05586,68.146195,43.148828,68.146195,43.298828 C68.846195,44.698828,68.046975,46.299219,66.446975,47.199219 C65.846975,47.499219,65.246585,47.699219,64.546585,47.699219 H63.946975 C63.146975,47.599219,62.446195,47.1,62.146195,46.5 C62.046195,46.3,62.145805,46.1,62.245805,46.0 C62.445805,45.9,62.645805,45.99961,62.745805,46.09961 C63.045805,46.59961,63.446585,46.9,64.046585,47.0 C64.646585,47.1,65.446585,46.99961,66.046585,46.59961 C67.346585,45.89961,67.946585,44.6,67.546585,43.5 C67.446585,43.3,67.545805,43.09961,67.745805,43.09961 C67.795805,43.07461,67.845415,43.06211,67.892295,43.060547 Z M19.745805,43.59961 C15.945805,43.59961,12.845415,46.7,12.845415,50.5 C12.845415,54.3,15.945805,57.398438,19.745805,57.398438 C23.545805,57.398438,26.646196,54.3,26.646196,50.5 C26.646196,46.7,23.545805,43.59961,19.745805,43.59961 Z M19.745805,44.5 C23.045805,44.5,25.745805,47.2,25.745805,50.5 C25.745805,53.8,23.045805,56.5,19.745805,56.5 C16.445805,56.5,13.745805,53.8,13.745805,50.5 C13.745805,47.2,16.445805,44.5,19.745805,44.5 Z M19.745805,46.898438 A3.7,3.7,0.0,0,0,16.046587,50.59961 A3.7,3.7,0.0,0,0,19.745805,54.298828 A3.7,3.7,0.0,0,0,23.446977,50.59961 A3.7,3.7,0.0,0,0,19.745805,46.898438 Z" fill="black" stroke="none" stroke-width="0" opacity="1.0" />
</g>
<text x="196.875" y="171.18055555555554" font-size="6.25" font-family="Arial" text-anchor="middle" fill="black">fir firewood</text>
<text x="196.875" y="187.8472222222222" font-size="15.0" font-family="Courier New" text-anchor="middle" fill="black">"fir"</text>
<g id="import" transform="translate(228.125, 109.375) scale(0.5263157894736842)">
<path d="M75.69922,0.75 L75.59961,1.050781 C72.19961,11.350781,64.200391,27.550781,54.400391,44.550781 C50.600391,51.050781,46.700781,57.45039,42.800781,63.65039 C42.400781,64.25039,41.400781,64.550781,40.800781,64.050781 C40.500781,63.850781,40.299219,63.55039,40.199219,63.15039 C40.099219,62.75039,40.200391,62.350781,40.400391,62.050781 C44.300391,56.050781,48.200391,49.65039,51.900391,43.15039 C61.300391,26.85039,68.8,11.651172,72.5,1.451172 L72.69922,0.851562 H62.800781 L62.699219,1.050781 C53.899219,13.150781,45.600391,26.051562,35.900391,42.851562 C35.500391,43.551562,34.600391,43.751562,33.900391,43.351562 C33.600391,43.151562,33.299219,42.851172,33.199219,42.451172 C33.099219,42.051172,33.100781,41.651562,33.300781,41.351562 C42.600781,25.351562,50.399609,13.050781,58.599609,1.550781 L59.099609,0.851562 H51.400391 L1.199219,79.550781 H9.5 L9.599609,79.351562 C13.599609,73.851562,18.800781,64.95039,23.300781,57.15039 C23.700781,56.45039,24.600781,56.25039,25.300781,56.65039 C25.600781,56.85039,25.9,57.150781,26.0,57.550781 C26.1,57.950781,26.000781,58.35039,25.800781,58.65039 C22.100781,65.15039,17.4,73.251172,13.5,78.951172 L13.099609,79.550781 H22.599609 L22.699219,79.25 C25.999219,70.65,31.100781,60.950781,37.800781,49.050781 C38.200781,48.350781,39.100781,48.151172,39.800781,48.451172 C40.100781,48.651172,40.4,48.951562,40.5,49.351562 C40.6,49.751562,40.600391,50.151172,40.400391,50.451172 C35.000391,60.251172,29.5,70.450781,26.0,79.050781 L25.800781,79.550781 H39.900391 L40.0,79.351562 C46.8,69.651562,56.800391,51.15,64.900391,36.25 L66.5,33.351562 C66.7,33.051562,67.00039,32.75039,67.40039,32.65039 C67.80039,32.55039,68.2,32.55,68.5,32.75 C68.8,32.95,69.09922,33.25039,69.19922,33.65039 C69.29922,34.05039,69.29961,34.45,69.09961,34.75 L67.59961,37.550781 C60.099609,51.450781,50.700391,68.651172,43.900391,78.951172 L43.400391,79.550781 H53.400391 L94.09961,0.851562 H86.5 L86.40039,1.050781 C83.90039,6.550781,82.00078,10.251562,78.80078,16.351562 C78.40078,17.051562,77.60078,17.351172,76.80078,16.951172 C76.10078,16.551172,75.79922,15.751172,76.19922,14.951172 C79.19922,9.251172,80.9,5.851562,83.0,1.351562 L83.30078,0.75 Z M95.0,5.451172 L55.400391,82.050781 L55.300781,90.951172 L95.0,13.75 Z M58.634766,16.916015 C58.907227,16.920117,59.175391,17.00039,59.400391,17.15039 C60.100391,17.65039,60.200781,18.55039,59.800781,19.15039 C55.700781,25.15039,51.499219,31.75,47.199219,38.75 C46.799219,39.45,45.899219,39.65,45.199219,39.25 C44.499219,38.95,44.299219,38.051562,44.699219,37.351562 C49.099219,30.051562,53.400391,23.450781,57.400391,17.550781 C57.712891,17.113281,58.180664,16.909179,58.634766,16.916015 Z M0.0,82.550781 V94.25 H52.400391 V82.550781 Z" fill="black" stroke="none" stroke-width="0" opacity="1.0" />
</g>
<text x="253.125" y="171.18055555555554" font-size="5.357142857142858" font-family="Arial" text-anchor="middle" fill="black">reclaimed wood</text>
<text x="253.125" y="187.8472222222222" font-size="6.818181818181818" font-family="Courier New" text-anchor="middle" fill="black">"reclaimed"</text>
<g id="import" transform="translate(3.125, 215.625) scale(0.11185682326621924)">
<path d="M93.57,-0.6905 L25.857,16.2615 L0.457,41.6615 L22.894,92.9695 C23.166088,93.785262,23.304869,94.639558,23.305,95.4995 V351.4995 C23.304869,352.35944,23.166088,353.21374,22.894,354.0295 L0.458,421.3385 L25.858,446.7385 L93.571,431.6905 C94.140354,431.56408,94.721781,431.50004,95.305,431.4995 H351.305 C351.88852,431.49964,352.47028,431.56335,353.04,431.6895 L420.753,446.7375 L446.543,420.9475 L431.495,353.2345 C431.36885,352.66478,431.30514,352.08302,431.305,351.4995 V95.4995 C431.30514,94.915983,431.36885,94.334217,431.495,93.7645 L446.543,44.0515 L420.753,14.2615 L353.04,-0.6905 C335.81807,-0.14804196,351.88852,-0.50063804,351.305,-0.5005 L95.305,-0.5005 C94.721483,-0.50063804,104.23512,1.2049502,93.57,-0.6905 Z" fill="black" stroke="none" stroke-width="0" opacity="1.0" />
<path d="H1691.1994 Z" fill="black" stroke="none" stroke-width="0.0999999" opacity="1.0" />
<path d="H1736.6147 Z" fill="black" stroke="none" stroke-width="0.1" opacity="1.0" />
</g>
<text x="28.125" y="277.43055555555554" font-size="7.5" font-family="Arial" text-anchor="middle" fill="black">moose hide</text>
<text x="28.125" y="294.09722222222223" font-size="6.818181818181818" font-family="Courier New" text-anchor="middle" fill="black">"moosehide"</text>
<g id="import" transform="translate(59.375, 215.625) scale(1.7173868242082846)">
<path d="M23.220001,16.119872 C23.220001,13.328872,25.034001,10.983872,27.541001,10.134872 C27.708001,10.077872,27.811001,9.909872,27.784001,9.735872 C27.545001,8.161872,27.253001,6.582872,26.913001,5.130872 C26.889001,5.028872,26.822001,4.942872,26.730001,4.892872 C26.637001,4.843872,26.528001,4.835872,26.430001,4.871872 C25.894001,5.071872,25.317001,5.188872,24.710001,5.188872 C21.943001,5.188872,19.702001,2.947872,19.702001,0.18087192 C19.702001,0.01487192,19.703001,0.11587192,19.705001,0.08287192 C19.713001,-0.01812808,19.678001,0.09287192,19.608001,0.01887192 C19.538001,-0.05512808,19.445001,0.11387192,19.343001,0.11387192 H9.7710011 C9.6690011,0.11387192,9.5740011,-0.05312808,9.5050011,0.01887192 C9.4360011,0.09287192,9.4000011,0.08787192,9.4070011,0.18887192 C9.4100011,0.22087192,9.4120011,0.20187192,9.4120011,0.23387192 C9.4120011,3.000872,7.1700011,5.213872,4.4040011,5.213872 C3.9110011,5.213872,3.2540011,5.082872,2.6800011,4.878872 C2.5830011,4.843872,2.4740011,4.846872,2.3830011,4.895872 C2.2920011,4.945872,2.2270011,5.029872,2.2020011,5.129872 C1.8820011,6.501872,1.5890011,8.033872,1.3310011,9.737872 C1.3040011,9.912872,1.4070011,10.079872,1.5740011,10.136872 C4.0800011,10.984872,5.8940011,13.328872,5.8940011,16.119872 C5.8940011,19.018872,3.9450011,21.452872,1.2890011,22.210872 C1.1070011,22.262872,0.9960011,22.443872,1.0320011,22.630872 C1.3750011,24.378872,1.9090011,26.024872,2.6000011,27.532872 C2.6870011,27.722872,2.8610011,27.859872,3.0670011,27.898872 C3.2730011,27.937872,3.4850011,27.875872,3.6360011,27.729872 C4.8640011,26.551872,6.5290011,25.827872,8.3650011,25.827872 C10.719001,25.827872,12.793001,27.018872,14.022001,28.830872 C14.143001,29.007872,14.343001,29.113872,14.558001,29.113872 C14.772001,29.113872,14.973001,29.008872,15.094001,28.830872 C16.322001,27.018872,18.395001,25.827872,20.750001,25.827872 C22.587001,25.827872,24.251001,26.552872,25.479001,27.729872 C25.629001,27.875872,25.842001,27.937872,26.048001,27.898872 C26.253001,27.859872,26.428001,27.722872,26.515001,27.532872 C27.205001,26.023872,27.740001,24.378872,28.082001,22.629872 C28.118001,22.443872,28.007001,22.262872,27.824001,22.210872 C25.170001,21.452872,23.220001,19.018872,23.220001,16.119872 Z" fill="black" stroke="none" stroke-width="0" opacity="1.0" />
</g>
<text x="84.375" y="277.43055555555554" font-size="8.333333333333332" font-family="Arial" text-anchor="middle" fill="black">bear hide</text>
<text x="84.375" y="294.09722222222223" font-size="7.5" font-family="Courier New" text-anchor="middle" fill="black">"bearhide"</text>
<g id="import" transform="translate(115.625, 215.625) scale(0.5555555555555556)">
<path d="M40.021485,0.06836062 C32.056485,7.7827606,22.595691,14.371096,16.462891,15.214846 C16.462891,15.214846,16.00586,17.109377,16.001953,17.109377 C24.907853,22.179377,31.154297,28.363627,31.154297,40.265627 C31.154297,51.452627,25.626947,61.13284,17.560547,66.46094 L18.447266,70.144533 C36.402344,63.648437,37.073257,68.4528,42.490235,71.496096 L42.515625,87.435549 C42.517783,88.815496,43.637629,89.932719,45.017578,89.931639 C46.399051,89.930561,47.517781,88.809211,47.515625,87.427739 L47.490235,71.494143 C52.9197,68.443105,56.402344,63.648437,71.544922,70.144533 L72.431641,66.46094 C64.364941,61.13294,58.837891,51.456627,58.837891,40.265627 C58.837891,28.363627,65.084034,22.179677,73.990235,17.109377 H73.998047 L73.537109,15.214846 C67.400109,14.371846,57.939416,7.7792606,49.978516,0.06836062 C49.978516,0.06836062,46.921325,2.4986296,45.103516,2.5136736 C43.223436,2.5292326,40.021485,0.06836062,40.021485,0.06836062 Z" fill="black" stroke="none" stroke-width="0" opacity="1.0" />
</g>
<text x="140.625" y="277.43055555555554" font-size="8.333333333333332" font-family="Arial" text-anchor="middle" fill="black">wolf hide</text>
<text x="140.625" y="294.09722222222223" font-size="7.5" font-family="Courier New" text-anchor="middle" fill="black">"wolfhide"</text>
<g id="import" transform="translate(171.875, 215.625) scale(0.019527436047646944)">
<path d="M586.25,0.0 C575.25,0.0,566.25,9.0,566.25,20.0 V139.0 C566.25,150.0,575.25,159.0,586.25,159.0 C702.25,159.0,827.25,438.0,827.25,853.0 C827.25,1269.0,702.25,1548.0,586.25,1548.0 C575.25,1548.0,566.25,1557.0,566.25,1568.0 V1687.0 C566.25,1698.0,575.25,1707.0,586.25,1707.0 H675.25 C683.25,1707.0,690.25,1702.0,693.25,1694.0 C757.25,1545.0,970.25,1544.0,1034.25,1694.0 C1037.25,1702.0,1044.25,1707.0,1052.25,1707.0 H1232.2637 L1235.9648,2560.5 H1337.7481 L1334.0469,1707.0 H1508.25 C1516.25,1707.0,1524.25,1702.0,1527.25,1694.0 C1590.25,1544.0,1804.25,1545.0,1867.25,1694.0 C1870.25,1702.0,1878.25,1707.0,1886.25,1707.0 H1974.25 C1985.25,1707.0,1994.25,1698.0,1994.25,1687.0 V1568.0 C1994.25,1557.0,1985.25,1548.0,1974.25,1548.0 C1858.25,1548.0,1734.25,1269.0,1734.25,853.0 C1734.25,438.0,1858.25,159.0,1974.25,159.0 C1985.25,159.0,1994.25,150.0,1994.25,139.0 V20.0 C1994.25,9.0,1985.25,0.0,1974.25,0.0 H1886.25 C1878.25,0.0,1870.25,5.0,1867.25,12.0 C1804.25,162.0,1590.25,162.0,1527.25,12.0 C1524.25,5.0,1516.25,0.0,1508.25,0.0 H1052.25 C1044.25,0.0,1037.25,5.0,1034.25,12.0 C970.25,162.0,757.25,162.0,693.25,12.0 C690.25,5.0,683.25,0.0,675.25,0.0 Z" fill="black" stroke="none" stroke-width="0" opacity="1.0" />
</g>
<text x="196.875" y="277.43055555555554" font-size="6.818181818181818" font-family="Arial" text-anchor="middle" fill="black">cougar hide</text>
<text x="196.875" y="294.09722222222223" font-size="6.25" font-family="Courier New" text-anchor="middle" fill="black">"cougarhide"</text>
<g id="import" transform="translate(228.125, 215.625) scale(0.11235955056179775)">
<path d="M243.82386,443.58946 C239.55442,441.16152,227.43235,430.60284,219.20587,422.14646 C208.53687,411.1793,206.14266,406.55574,198.82246,382.78309 C190.20003,354.78141,186.35504,345.63384,178.08009,333.43508 C172.91887,325.82652,119.28498,272.19262,111.67642,267.03141 C99.458004,258.74311,90.300244,254.89711,62.259874,246.27785 C36.774694,238.44401,32.965154,236.27189,18.542504,221.35107 C6.6098744,209.00628,0.32386443,200.85494,0.32386443,197.7262 C0.32386443,195.31983,8.6037544,184.32509,15.250864,177.90486 C28.262494,165.33735,41.524494,157.79481,75.239654,143.78723 C88.668334,138.20804,103.29333,131.82727,107.73965,129.60774 C145.12596,110.94508,162.50067,84.295378,164.98701,41.800511 C165.34269,35.721481,166.22922,30.022381,167.08902,28.287641 C169.55071,23.320921,177.84252,12.629921,183.67279,6.9054514 L189.15446,1.5232614 L197.98916,0.70376139 C202.92579,0.24585139,210.77165,0.28640139,215.77125,0.79567139 C225.63197,1.8001014,251.10123,7.5524014,275.82386,14.358721 C299.57438,20.897411,307.4004,22.519871,328.58578,25.297091 C355.25569,28.793291,358.8698,29.444021,361.61795,31.244681 C364.71678,33.275111,368.36341,40.028761,372.43169,51.272011 C376.91852,63.671981,381.5382,68.268401,393.99112,72.722921 C406.41203,77.165996,412.68866,80.905229,414.55921,84.976122 C415.39611,86.797457,416.84301,94.362641,417.77455,101.78764 C421.97241,135.24719,423.73538,144.33412,431.25835,171.28764 C437.31322,192.98118,443.31754,219.53391,444.28197,228.88163 C444.76297,233.54369,444.81044,241.53599,444.38746,246.6423 L443.61841,255.92649 L438.22114,261.42343 C432.48523,267.26525,421.79777,275.55658,416.82386,278.02344 C415.06423,278.89615,409.27583,279.78116,402.82386,280.16395 C373.46084,281.90605,352.55372,290.56165,335.71436,307.94744 C323.49567,320.56263,315.59953,334.75199,301.30137,369.78764 C291.69554,393.32539,286.56187,403.81068,279.46096,414.39572 C272.40432,424.91477,264.23321,433.6723,255.46385,440.11503 C248.83682,444.98381,247.15732,445.48513,243.82386,443.58946 Z" fill="black" stroke="none" stroke-width="0" opacity="1.0" />
</g>
<text x="253.125" y="277.43055555555554" font-size="8.333333333333332" font-family="Arial" text-anchor="middle" fill="black">deer hide</text>
<text x="253.125" y="294.09722222222223" font-size="7.5" font-family="Courier New" text-anchor="middle" fill="black">"deerhide"</text>
<g id="import" transform="translate(284.375, 215.625) scale(0.8333333333333334)">
<path d="M17.945164,38.986939 C17.408327,39.373585,16.891997,39.803364,16.391791,40.261994 L19.73881,43.609012 C20.197439,43.108806,20.627217,42.592476,21.013865,42.05564 Z" fill="black" stroke="none" stroke-width="0.774597" opacity="1.0" />
<path d="M13.761071,43.288129 L16.712676,46.239732 C17.261956,45.866946,17.79766,45.45937,18.312715,45.011348 L14.989456,41.688088 C14.541434,42.203144,14.133857,42.738847,13.761071,43.288129 Z" fill="black" stroke="none" stroke-width="0.774597" opacity="1.0" />
<path d="M21.217369,36.60229 C20.678131,37.013404,20.129131,37.418999,19.592722,37.80607 L22.19431,40.407658 C22.581378,39.871247,22.986976,39.32225,23.398087,38.783009 Z" fill="black" stroke="none" stroke-width="0.774597" opacity="1.0" />
<path d="M12.590526,45.303808 L12.356191,45.802033 C12.013243,46.53106,12.033183,47.217096,12.408235,47.592145 C12.783283,47.967193,13.469318,47.987135,14.198345,47.644188 L14.696574,47.409853 C14.775345,47.37266,14.851994,47.324858,14.930199,47.285686 L12.714269,45.069754 C12.67552,45.148384,12.62772,45.225034,12.590526,45.303808 Z" fill="black" stroke="none" stroke-width="0.774597" opacity="1.0" />
<path d="M54.013644,5.9867326 L52.794161,6.399673 C54.066955,4.4904862,50.295549,7.1034812,50.795756,5.3763043 C50.91257,4.9726863,49.617311,5.9810453,49.746145,5.5696513 C49.119507,3.8865972,45.068542,5.9870176,46.043502,3.7121143 C46.057091,3.6803822,46.0608,3.6546272,46.058694,3.6389182 C46.05847,3.6378738,46.057613,3.6329827,46.057313,3.6320119 L46.055932,3.6306309 C46.055485,3.629812,46.053688,3.6258544,46.05317,3.625107 C46.052579,3.6244352,46.049689,3.6215651,46.049026,3.6209647 H46.046264 C46.045463,3.6205093,46.041612,3.6185888,46.04074,3.6182021 L46.039359,3.6168211 C45.83924,3.5678561,44.300466,4.8820048,44.083767,4.9095007 C44.082215,4.9095572,44.079626,4.9096138,44.078243,4.9095021 L44.076862,4.9081211 L44.074099,4.908119 L44.072718,4.906738 L44.071337,4.905357 L44.069956,4.903976 L44.068574,4.9025944 L44.067193,4.9012134 L44.065812,4.8998324 V4.8970697 V4.8943092 V4.8915472 C44.065742,4.8767411,44.075266,4.8524301,44.096195,4.8169687 L42.985818,5.0130819 C43.650911,2.3507004,40.193884,4.6601812,41.930682,2.8061352 C41.768082,2.9731899,41.600876,3.1456716,41.542602,3.2107876 C39.70461,2.7736776,36.06303,3.2059171,34.358286,2.3793856 C33.833755,2.1249679,32.96797,2.4245386,32.301876,3.0906353 L25.359247,10.033263 C24.629515,10.762996,24.352778,11.695746,24.715671,12.204304 L26.022161,14.035599 C26.930227,15.305704,26.238226,17.639565,24.414597,19.463194 L18.67626,25.201531 C17.441652,26.436139,15.886024,27.204221,14.615918,27.204082 L8.8306259,27.202699 C8.4349289,27.202982,7.9509069,27.441603,7.5669489,27.82556 C7.4085569,27.983953,7.2753749,28.156995,7.1705839,28.3407 L2.4708077,36.564958 C2.1390335,37.145351,2.2781864,37.702251,2.7539265,37.767868 L8.7574319,38.550936 C10.872953,38.826564,12.709398,39.621995,14.115975,40.851795 C14.39231,40.539817,14.677306,40.232459,14.974998,39.934767 C15.841205,39.068559,16.771909,38.287269,17.74404,37.610427 C19.283835,36.538172,22.072052,34.533662,23.438183,33.167531 L24.287538,34.01689 C23.873883,34.430547,23.358028,34.884841,22.794604,35.35238 L24.647998,37.205774 C25.115537,36.642353,25.569834,36.126498,25.98349,35.712839 L26.832848,36.562196 C25.466718,37.928326,23.462916,40.715837,22.389953,42.25634 C21.713109,43.228469,20.931112,44.159882,20.065613,45.02538 C19.768629,45.322365,19.46194,45.606687,19.149967,45.883025 C20.380472,47.288895,21.174769,49.125621,21.450826,51.241568 L22.233891,57.245071 C22.295975,57.724346,22.857538,57.85968,23.436802,57.52819 L31.661061,52.828415 C31.842929,52.724612,32.016427,52.591822,32.174815,52.43343 C32.558774,52.049471,32.798105,51.564741,32.797681,51.169753 L32.796299,45.384458 C32.796156,44.114353,33.564239,42.558727,34.798848,41.324118 L40.537185,35.585781 C42.360813,33.762154,44.695101,33.070576,45.964782,33.97822 L47.794695,35.283328 C48.303672,35.646638,49.237384,35.370865,49.967116,34.641132 L56.909745,27.698502 C57.575838,27.032408,57.874988,26.1662,57.620995,25.642092 C56.793293,23.937553,55.817303,21.70434,55.376758,19.87061 C55.444737,19.80954,55.627688,19.631806,55.800747,19.463194 C54.059033,21.091343,57.654669,16.348251,54.985916,17.015942 L55.182028,15.905563 C54.614646,16.24045,55.45292,15.123994,54.87267,15.372471 C52.575845,16.356623,56.073426,10.886853,54.421061,10.258376 C54.012634,10.38594,55.023343,9.0904609,54.622695,9.2060019 C52.896223,9.7055029,55.508513,5.9348062,53.599324,7.2075977 Z M46.945339,12.392127 L47.793317,13.240104 L30.358714,30.674706 L29.510738,29.826728 Z M34.327903,4.4592723 L35.175879,5.3072482 L33.761666,6.7214611 L32.91369,5.8734852 Z M54.69313,24.824499 L55.541107,25.672475 L54.126893,27.086689 L53.278916,26.238714 Z M38.094076,8.7088189 L38.943433,9.5581759 L35.845698,12.655911 L34.99634,11.806555 Z M50.348291,20.990655 L51.196267,21.838631 L48.098532,24.936368 L47.250556,24.088391 Z M39.265221,13.097852 L40.114578,13.947209 L37.015461,17.046325 L36.166105,16.196969 Z M46.05317,19.885801 L46.902528,20.735159 L43.803411,23.834275 L42.954054,22.984917 Z M33.903917,8.2779269 L34.75189,9.1259009 L31.923464,11.954327 L31.075489,11.106353 Z M50.874479,25.248489 L51.722454,26.096464 L48.894027,28.924891 L48.046051,28.076915 Z M31.358605,14.217898 L32.206582,15.065875 L27.963941,19.308514 L27.115965,18.460538 Z M44.934504,27.793797 L45.78248,28.641773 L41.53984,32.884414 L40.691864,32.036437 Z M40.519231,25.588231 L41.367207,26.436206 L38.29571,29.507701 L37.447736,28.659726 Z M33.664989,18.764375 L34.512965,19.612351 L31.415229,22.710085 L30.567254,21.862109 Z M29.095037,23.268037 L29.944394,24.117392 L25.701753,28.360033 L24.852395,27.510676 Z M35.882985,30.055986 L36.732344,30.905344 L32.489702,35.147985 L31.640345,34.298626 Z M25.983489,22.984918 L26.832847,23.834275 L18.347567,32.319555 L17.498208,31.470199 Z M36.166105,33.167532 L37.015461,34.016888 L28.530179,42.50217 L27.680822,41.652813 Z M21.459112,24.117395 L22.307087,24.965368 L20.892875,26.379583 L20.044899,25.531607 Z M35.035008,37.693291 L35.882985,38.541266 L34.468773,39.955481 L33.620797,39.107505 Z M14.388044,31.188461 L15.23602,32.036435 L12.407592,34.864863 L11.559616,34.01689 Z M17.781328,34.581745 L18.630684,35.431102 L17.216472,36.845316 L16.367115,35.995959 Z M24.569278,41.369693 L25.418634,42.219051 L24.004422,43.633266 L23.155063,42.783908 Z M27.963942,44.764359 L28.811918,45.612335 L25.983489,48.440762 L25.135515,47.592785 Z M10.852511,30.481354 L11.700485,31.329332 L7.4578449,35.571971 L6.6098691,34.723994 Z M28.671047,48.299893 L29.519024,49.147869 L25.276382,53.390509 L24.428406,52.542534 Z" fill="black" stroke="none" stroke-width="0.774597" opacity="1.0" />
</g>
<text x="309.375" y="277.43055555555554" font-size="6.818181818181818" font-family="Arial" text-anchor="middle" fill="black">rabbit pelt</text>
<text x="309.375" y="294.09722222222223" font-size="6.25" font-family="Courier New" text-anchor="middle" fill="black">"rabbitpelt"</text>
</svg>