<?xml version="1.0" encoding="UTF-8"?>
<svg xmlns="http://www.w3.org/2000/svg" xmlns:xlink="http://www.w3.org/1999/xlink"
     width="281.25" height="106.25" viewBox="0 0 281.25 106.25">
<defs>
</defs>
<rect x="0" y="0" width="281.25" height="106.25" fill="white" />
<g id="import" transform="translate(3.125, 3.125) scale(0.5672728987335395)">
<path d="M41.2134,11.192 L41.2134,27.684 L46.1001,27.684 L46.1001,11.192 Z M21.6394,14.3248 L21.6394,24.5548 L13.9324,24.5548 C12.2058,24.5548,10.8308,26.0236,10.8308,27.754 L10.8308,49.379 C10.8308,52.3673,13.1785,54.9063,16.1511,54.9063 L53.6981,54.9063 C56.6747,54.9063,59.0183,52.3711,59.0183,49.379 L59.0183,25.59 L68.6825,25.59 L68.6825,57.625 C68.6825,64.5781,63.2996,70.555,56.3935,70.555 L13.4485,70.555 C6.54225,70.555,1.15945,64.5823,1.15945,57.625 L1.16726,22.035 C1.16726,17.8905,4.36256,14.3241,8.47586,14.3241 Z M19.1003,76.9068 L50.7523,76.9068 L50.7523,72.6685 L19.1003,72.6685 Z M9.42835,88.1408 L60.4244,88.1408 L60.4244,83.5783 C60.4244,81.0705,58.3697,79.0158,55.8619,79.0158 L13.9909,79.0158 C11.4831,79.0158,9.42835,81.0705,9.42835,83.5783 Z M77.1944,2.34385 C77.1944,3.20322,77.6279,3.98835,78.3311,4.40245 L78.3311,9.08605 L80.4365,9.08605 L80.4365,4.40245 C82.4013,3.25015,81.6513,0.000149,79.3819,0.000149 C78.1358,0.000149,77.1944,1.08215,77.1944,2.34395 Z M77.1944,36.5588 C77.1944,39.6447,81.5694,39.6447,81.5694,36.5588 C81.5694,35.6995,81.1358,34.9143,80.4326,34.5002 L80.4326,29.7893 L78.3272,29.7893 L78.3272,34.5002 C77.6279,34.9143,77.1944,35.7033,77.1944,36.5588 Z M78.0889,27.6838 L81.8272,27.6838 L81.8272,11.1918 L76.9405,11.1918 L76.9405,27.6838 Z M74.8311,23.4807 L74.8311,15.3948 L48.2101,15.3948 L48.2101,23.4807 Z M83.9366,15.3987 L83.9366,23.4846 C87.5186,23.4846,86.9483,23.6682,86.9483,16.8479 C86.9483,15.0667,85.0264,15.3987,83.9366,15.3987 Z M23.7526,11.1917 L23.7526,27.6837 L28.6393,27.6837 L28.6393,11.1917 Z" fill="black" stroke="none" stroke-width="0" opacity="1.0" />
</g>
<text x="28.125" y="64.93055555555556" font-size="5.357142857142858" font-family="Arial" text-anchor="middle" fill="black">workbench vice</text>
<text x="28.125" y="81.59722222222223" font-size="12.5" font-family="Courier New" text-anchor="middle" fill="black">"vice"</text>
<g id="import" transform="translate(59.375, 3.125) scale(0.625)">
<path d="M0.0,66.4998 H80.0 V73.8982 H0.0 Z" fill="black" stroke="none" stroke-width="0" opacity="1.0" />
<path d="M4.398,26.1988 V63.1988 H75.597 V26.1988 Z M20.398,45.8008 H9.0 C8.10156,45.8008,7.3008,45.00002,7.3008,44.1016 C7.3008,43.20316,8.10158,42.4024,9.0,42.4024 H20.398 C21.29644,42.4024,22.0972,43.10162,22.0972,44.1016 C22.101106,45.1016,21.30032,45.8008,20.398,45.8008 Z M47.5,43.1992 L38.8008,60.0002 C38.50002,60.60176,38.00002,61.0002,37.3008,61.0002 C37.19924,61.0002,37.00002,61.0002,36.8008,60.89864 C36.00002,60.69942,35.5,59.89864,35.6016,59.09784 L36.6016,48.49584 L34.0,48.499746 C33.39844,48.499746,32.8984,48.198966,32.6016,47.698966 C32.30082,47.198966,32.30082,46.597366,32.50004,46.097366 L41.10164,29.199366 C41.50008,28.500146,42.30084,28.097766,43.10164,28.398586 C43.90242,28.597806,44.40244,29.398586,44.30084,30.199386 L43.30084,40.801386 H46.00004 C46.6016,40.801386,47.10164,41.102166,47.39844,41.602166 C47.69922,42.102166,47.69922,42.699866,47.5,43.199866 Z M71.0,45.8008 H67.0 V49.8008 C67.0,50.69924,66.30078,51.5,65.3008,51.5 C64.40236,51.5,63.6016,50.80078,63.6016,49.8008 V45.8008 H59.6016 C58.70316,45.8008,57.9024,45.00002,57.9024,44.1016 C57.9024,43.20316,58.70318,42.4024,59.6016,42.4024 H63.6016 V38.4024 C63.6016,37.50396,64.30082,36.7032,65.3008,36.7032 C66.19924,36.7032,67.0,37.40242,67.0,38.4024 V42.4024 H71.0 C71.89844,42.4024,72.6992,43.10162,72.6992,44.1016 C72.6992,45.10158,71.89842,45.8008,71.0,45.8008 Z" fill="black" stroke="none" stroke-width="0" opacity="1.0" />
<path d="M0.0,15.3978 H80.0 V22.7962 H0.0 Z" fill="black" stroke="none" stroke-width="0" opacity="1.0" />
<path d="M6.199,6.1018 H13.0974 V12.1018 H6.199 Z" fill="black" stroke="none" stroke-width="0" opacity="1.0" />
<path d="M66.898,6.1018 H73.7964 V12.1018 H66.898 Z" fill="black" stroke="none" stroke-width="0" opacity="1.0" />
</g>
<text x="84.375" y="64.93055555555556" font-size="6.818181818181818" font-family="Arial" text-anchor="middle" fill="black">car battery</text>
<text x="84.375" y="81.59722222222223" font-size="8.333333333333332" font-family="Courier New" text-anchor="middle" fill="black">"battery"</text>
<g id="import" transform="translate(115.625, 3.125) scale(0.5832604393878201)">
<path d="M18.8784,6.10848 C20.2729,4.71397,20.2729,2.45228,18.8784,1.05767 C17.4839,-0.336825,15.2222,-0.336825,13.8276,1.05767 C-2.1884,17.0697,-2.1884,43.1237,13.8276,59.1357 C14.5268,59.8349,15.4409,60.1826,16.351,60.1826 C17.2651,60.1826,18.1791,59.8349,18.8744,59.1357 C20.2689,57.7412,20.2689,55.4795,18.8744,54.0849 C5.6474,40.8579,5.6474,19.3389,18.8783,6.10787 Z" fill="black" stroke="none" stroke-width="0" opacity="1.0" />
<path d="M61.8034,49.0465 C61.1237,49.7262,60.1979,50.0817,59.2682,50.0817 C58.3737,50.0817,57.4479,49.7262,56.7682,49.0465 C55.3737,47.652,55.3737,45.3668,56.7682,43.9762 C64.4127,36.3317,64.4127,23.8712,56.7682,16.2262 C55.3737,14.8317,55.3737,12.5465,56.7682,11.1559 C58.1627,9.76137,60.4127,9.76137,61.8034,11.1559 C72.2294,21.6169,72.2294,38.5819,61.8034,49.0469 Z" fill="black" stroke="none" stroke-width="0" opacity="1.0" />
<path d="M83.9094,30.0815 C83.9094,41.0815,79.6594,51.4015,71.9094,59.1515 C71.1946,59.8312,70.3039,60.1867,69.3742,60.1867 C68.4797,60.1867,67.5539,59.8312,66.839,59.1515 C65.4445,57.757,65.4445,55.4718,66.839,54.0812 C73.2687,47.6867,76.7687,39.1862,76.7687,30.0812 C76.7687,21.0109,73.2687,12.5112,66.839,6.11618 C65.4445,4.72168,65.4445,2.43647,66.839,1.04587 C68.2687,-0.348625,70.5187,-0.348625,71.9093,1.04587 C79.6593,8.79588,83.9093,19.1159,83.9093,30.0809 Z" fill="black" stroke="none" stroke-width="0" opacity="1.0" />
<path d="M26.4444,50.0815 C25.5499,50.0815,24.6241,49.726,23.9092,49.0463 C13.4792,38.5813,13.4792,21.6163,23.9092,11.1513 C25.3389,9.75677,27.5889,9.75677,28.9795,11.1513 C30.374,12.5458,30.374,14.831,28.9795,16.2216 C21.335,23.8661,21.335,36.3266,28.9795,43.9716 C30.374,45.3661,30.374,47.6513,28.9795,49.0419 C28.2647,49.7255,27.374,50.081,26.4443,50.081 Z" fill="black" stroke="none" stroke-width="0" opacity="1.0" />
<path d="M50.5144,39.9015 C53.4441,37.6163,55.3699,34.0812,55.3699,30.0812 C55.3699,23.2257,49.7644,17.6162,42.8699,17.6162 C35.9754,17.6162,30.3699,23.2217,30.3699,30.0812 C30.3699,34.0812,32.2996,37.6164,35.1902,39.9015 L24.0882,81.2255 C23.5882,83.12,24.7327,85.081,26.6234,85.62 C26.9437,85.6903,27.2289,85.7254,27.5531,85.7254 C29.1234,85.7254,30.5883,84.6902,31.0179,83.0809 L35.0179,68.1859 L50.7329,68.1859 L54.6977,83.0809 C55.1274,84.6864,56.5922,85.7254,58.1625,85.7254 C58.4476,85.7254,58.768,85.6903,59.0922,85.62 C60.9867,85.0848,62.1274,83.1552,61.6274,81.2255 Z M36.9094,61.0465 L41.9094,42.5115 C42.2297,42.5115,42.5539,42.5818,42.8742,42.5818 C43.1945,42.5818,43.5188,42.5115,43.8391,42.5115 L48.8039,61.0465 Z" fill="black" stroke="none" stroke-width="0" opacity="1.0" />
</g>
<text x="140.625" y="64.93055555555556" font-size="6.818181818181818" font-family="Arial" text-anchor="middle" fill="black">transmitter</text>
<text x="140.625" y="81.59722222222223" font-size="5.769230769230769" font-family="Courier New" text-anchor="middle" fill="black">"transmitter"</text>
<g id="import" transform="translate(171.875, 3.125) scale(0.5257623664723947)">
<path d="M4.6994126,0.00019473706 C2.2994128,0.00019473706,0.40058465,1.900976,0.40058465,4.3009759 V90.800976 C0.40058465,93.200976,2.2994128,95.099804,4.6994126,95.099804 H90.400584 C92.800584,95.099804,94.699414,93.200976,94.699414,90.800976 V4.3009759 C94.599414,1.900976,92.700974,0.00019473706,90.300974,0.00019473706 Z M8.9005846,8.5001947 H86.099802 V68.000195 H8.9005846 Z M65.000193,17.099804 A6.5999999,6.5999999,0.0,0,0,58.400584,23.699414 A6.5999999,6.5999999,0.0,0,0,65.000193,30.300976 A6.5999999,6.5999999,0.0,0,0,71.599802,23.699414 A6.5999999,6.5999999,0.0,0,0,65.000193,17.099804 Z M39.312693,26.000195 C38.750193,26.025195,38.200584,26.300976,37.900584,26.800976 L19.099802,56.800976 C18.299802,58.000976,19.100193,59.500195,20.500193,59.500195 H74.199412 C75.599412,59.500195,76.499802,57.899414,75.599802,56.699414 L62.400584,38.099804 C61.800584,37.199804,60.499412,37.100586,59.699412,37.900586 L55.000193,42.500195 C54.200193,43.200195,53.000974,43.100976,52.300974,42.300976 L40.800974,26.699414 C40.450974,26.199414,39.875193,25.975195,39.312693,26.000195 Z" fill="black" stroke="none" stroke-width="0" opacity="1.0" />
</g>
<text x="196.875" y="64.93055555555556" font-size="9.375" font-family="Arial" text-anchor="middle" fill="black">polaroid</text>
<text x="196.875" y="81.59722222222223" font-size="7.5" font-family="Courier New" text-anchor="middle" fill="black">"polaroid"</text>
<g id="import" transform="translate(228.125, 3.125) scale(0.6483654958711631)">
<path d="M12.7026,38.3863 C11.8788,36.9218,11.0632,35.4395,10.2086,33.9791 C10.0353,33.6826,9.74206,33.4412,9.46666,33.2217 C8.40718,32.3785,8.38774,31.3328,9.47233,30.5228 C10.6144,29.669,11.9744,29.3604,13.3417,29.1531 C18.7209,28.3358,24.1034,28.3155,29.4672,29.2689 C30.4359,29.4406,31.3942,29.7986,32.2884,30.2174 C32.7687,30.4426,33.1997,30.9213,33.4791,31.3895 C33.8274,31.9719,33.5342,32.7122,32.8173,33.1925 C32.3313,33.5182,32.0373,33.9361,31.7959,34.4432 C31.1374,35.8234,30.4562,37.1931,29.7879,38.5572 C30.5728,40.0184,30.3509,41.0001,28.8087,41.6222 C27.4884,42.1544,26.0555,42.4986,24.6404,42.689 C21.4814,43.1142,18.3167,43.0162,15.1982,42.2799 C14.5842,42.1349,13.9727,41.9122,13.4114,41.6238 C11.8473,40.8211,11.631,39.7884,12.7026,38.3863 Z M31.1682,31.8731 C26.3414,30.3989,14.2044,30.4256,11.2252,31.899 C16.0026,33.3221,26.1259,33.3205,31.1682,31.8731 Z" fill="black" stroke="none" stroke-width="0.81" opacity="1.0" />
<path d="M77.0628,11.1939 L77.0628,14.0739 C77.0628,27.5149,77.0148,40.9589,77.1168,54.403 C77.1318,56.471,76.6068,57.4159,74.5428,58.0389 C66.9078,60.345,59.3518,62.904,51.7428,65.3039 C50.5338,65.686,49.2158,65.9149,47.9498,65.917 C35.6898,65.9389,23.4288,65.8959,11.1688,65.874 C7.49184,65.869,3.81484,65.874,-0.000157,65.874 L-0.000157,11.1939 L77.0628,11.1939 Z M69.9098,18.215 L7.02484,18.215 L7.02484,58.768 L47.0078,58.768 C47.5818,55.5349,48.1328,52.422,48.6998,49.231 C55.8638,48.716,62.8878,48.211,69.9088,47.7079 C69.9098,37.712,69.9098,27.9929,69.9098,18.215 Z M52.0308,57.8769 C57.1708,56.216,62.0388,54.6419,66.9058,53.067 C62.3568,52.962,57.8838,53.2459,53.4168,53.5929 C53.1068,53.6169,52.6558,54.086,52.5758,54.4209 C52.3298,55.4669,52.2288,56.547,52.0308,57.8769 Z" fill="black" stroke="none" stroke-width="0" opacity="1.0" />
<path d="M21.1833,27.0203 C20.8553,26.4987,20.5523,26.0168,20.2048,25.4627 C21.0821,24.9386,20.8536,24.2526,20.4997,23.53 C20.0388,22.5896,19.7399,21.6241,20.2591,20.5995 C20.3069,20.5055,20.3579,20.4116,20.4171,20.3241 C20.4511,20.2739,20.5037,20.239,20.5807,20.1669 C20.9962,20.4618,21.4134,20.7485,21.8159,21.0539 C21.9002,21.1171,21.9544,21.2467,21.9795,21.3552 C22.1091,21.9198,22.2217,22.4892,22.3481,23.0554 C22.3708,23.1575,22.4323,23.2498,22.4728,23.3478 C23.1767,25.0188,22.8325,26.0435,21.1833,27.0203 Z" fill="black" stroke="none" stroke-width="0.81" opacity="1.0" />
<path d="M24.9142,27.0171 C24.5918,26.5019,24.2897,26.0208,23.943,25.4692 C24.8397,24.9208,24.5643,24.2088,24.2095,23.4831 C23.6733,22.3855,23.4294,21.2888,24.2816,20.1499 C24.7263,20.4642,25.158,20.7582,25.5743,21.0733 C25.6521,21.1316,25.6861,21.2701,25.7072,21.3787 C25.8044,21.8639,25.8611,22.358,25.9874,22.8351 C26.079,23.1793,26.279,23.4936,26.3932,23.8338 C26.8444,25.1727,26.3932,26.1674,24.9142,27.0171 Z" fill="black" stroke="none" stroke-width="0.81" opacity="1.0" />
<path d="M17.2767,26.9847 C16.9656,26.4938,16.6514,25.9965,16.3403,25.5064 C17.062,24.7369,17.0823,24.6073,16.6481,23.6313 C16.2763,22.7946,15.8802,21.957,16.2067,21.0077 C16.3071,20.7161,16.4659,20.4448,16.6157,20.1256 C16.8919,20.3152,17.1042,20.452,17.3067,20.6027 C17.7246,20.9129,18.1466,21.1049,18.077,21.8542 C18.0227,22.4398,18.4933,23.0708,18.7185,23.6864 C19.249,25.1355,18.7485,26.3059,17.2767,26.9847 Z" fill="black" stroke="none" stroke-width="0.81" opacity="1.0" />
<path d="M36.7568,41.591 L36.7568,38.4879 L65.1468,38.4879 L65.1468,41.591 L36.7568,41.591 Z" fill="black" stroke="none" stroke-width="0" opacity="1.0" />
<path d="M65.1988,24.4439 L65.1988,27.5059 L36.8318,27.5059 L36.8318,24.4439 L65.1988,24.4439 Z" fill="black" stroke="none" stroke-width="0" opacity="1.0" />
<path d="M36.7278,34.2319 L36.7278,31.3199 L65.1988,31.3199 L65.1988,34.2319 L36.7278,34.2319 Z" fill="black" stroke="none" stroke-width="0" opacity="1.0" />
<path d="M12.0958,55.433 L12.0958,52.447 L40.5428,52.447 L40.5428,55.433 L12.0958,55.433 Z" fill="black" stroke="none" stroke-width="0" opacity="1.0" />
<path d="M12.1318,45.653 L40.5038,45.653 L40.5038,48.6359 L12.1318,48.6359 L12.1318,45.653 Z" fill="black" stroke="none" stroke-width="0" opacity="1.0" />
</g>
<text x="253.125" y="64.93055555555556" font-size="6.818181818181818" font-family="Arial" text-anchor="middle" fill="black">recipe card</text>
<text x="253.125" y="81.59722222222223" font-size="9.375" font-family="Courier New" text-anchor="middle" fill="black">"recipe"</text>
</svg>