<?xml version="1.0" encoding="UTF-8"?>
<svg xmlns="http://www.w3.org/2000/svg" xmlns:xlink="http://www.w3.org/1999/xlink"
     width="562.5" height="212.5" viewBox="0 0 562.5 212.5">
<defs>
</defs>
<rect x="0" y="0" width="562.5" height="212.5" fill="white" />
<g id="import" transform="translate(3.125, 3.125) scale(0.3489865430788989)">
<path d="M636.46806,687.51792 C612.13563,682.15232,597.20299,668.92574,569.83756,628.5 C565.74212,622.45,560.39256,614.2375,557.94963,610.25 C555.5067,606.2625,553.27397,603.03235,552.988,603.0719 C552.70203,603.1114,550.47334,607.20912,548.03535,612.17786 C545.59735,617.1466,539.29735,627.78812,534.03535,635.82568 C525.8066,648.39485,524.46806,651.02359,524.46806,654.61473 C524.46806,661.42942,527.20972,663.36385,543.96806,668.37338 C555.80464,671.91166,563.96806,678.43898,563.96806,684.36502 C563.96806,686.5691,553.27196,687.24408,524.96806,686.82615 C496.0591,686.39928,496.36032,686.49164,485.31858,674.66826 C476.54749,665.27626,471.07571,657.36478,469.90448,652.38149 C468.71406,647.31655,469.34328,643.11619,474.53057,621.5 C476.9063,611.6,480.45005,595.625,482.40558,586.0 C484.3611,576.375,486.19425,567.49535,486.47924,566.26745 L486.9974,564.0349 L464.23273,564.52049 C438.56248,565.06807,438.97428,564.95199,433.36007,573.22238 C430.45603,577.50036,427.74249,585.12344,419.92502,610.96513 C418.1838,616.72095,414.74619,625.94595,412.28588,631.46513 C409.82379,636.98831,407.56989,643.76309,407.27276,646.53356 C406.7959,650.98001,407.05214,651.94647,409.46961,654.81947 C412.79819,658.77526,415.09989,660.00403,427.44869,664.41767 C442.21956,669.69698,451.27637,676.29154,452.55821,682.70074 L453.18388,685.82912 L447.82597,686.49128 C444.87912,686.85546,429.15653,687.00641,412.88689,686.82672 L383.30572,686.5 L378.40517,683.46852 C373.19171,680.24348,363.94382,669.91129,356.18733,658.64569 L351.46806,651.79137 L350.84617,633.64569 C350.50413,623.66556,350.16663,615.36067,350.09617,615.19037 C350.02567,615.02008,346.19187,617.94508,341.57653,621.69037 C336.96119,625.43567,330.01178,630.93309,326.1334,633.90686 C322.25502,636.88063,317.65057,641.30668,315.90129,643.74251 C311.9673,649.22049,309.61763,656.4767,310.96347,658.99142 C312.49547,661.85398,317.78195,665.87787,324.36707,669.19377 C327.72262,670.88344,332.40674,673.59569,334.77623,675.22101 C339.06481,678.16268,343.01639,684.28472,341.56427,685.73744 C341.14504,686.15685,327.90189,686.5,312.13505,686.5 C284.4512,686.5,283.32598,686.424,279.32523,684.28435 C273.36815,681.09841,267.72029,673.9977,261.71479,662.14381 L256.46806,651.78762 L256.53556,641.64381 C256.58896,633.61689,257.07932,630.24788,258.88533,625.5 C266.24963,606.13982,265.75624,608.53018,281.41313,516.35767 C285.53716,492.07938,289.37316,470.15476,289.93756,467.63628 C294.12695,448.94236,307.62898,427.01396,326.3705,408.46619 C346.64061,388.40564,369.42958,376.73768,400.4681,370.52821 C420.56396,366.50789,434.30256,365.86412,492.9681,366.19376 L547.4681,366.5 L558.24239,361.27087 C574.1809,353.53538,578.33291,352.48592,592.4681,352.62002 C603.66189,352.72621,606.09762,353.14531,628.72254,358.85807 C655.24346,365.55456,663.54846,366.75351,687.25161,367.30757 L703.03511,367.67651 L708.75161,363.20594 C715.37423,358.0267,719.65769,356.0,723.9814,356.0 C727.99407,356.0,731.62457,359.65214,732.558,364.62772 C733.20674,368.08581,732.17257,375.90008,730.51342,380.07671 C730.06464,381.20644,731.53135,382.8068,735.6873,385.72203 C745.13517,392.34934,758.40881,404.44022,761.7131,409.4288 C763.54321,412.19176,765.06596,416.07641,765.46975,419.01227 C766.37234,425.57488,769.52669,429.78658,785.11567,445.24359 C792.18448,452.25257,797.96806,458.76226,797.96806,459.70959 C797.96806,462.29172,784.18691,475.25611,778.46806,478.05389 C773.5899,480.44039,772.71267,480.51482,742.46806,481.10828 C707.44702,481.79547,711.47781,481.13848,672.10577,492.57709 C659.80651,496.15035,648.08342,499.92083,646.05445,500.95593 C639.9921,504.04871,634.19872,510.72964,629.69852,519.81761 C625.59853,528.09736,625.4693,528.65597,625.5084,537.93042 C625.5368,544.66648,626.34278,550.90511,628.23047,559.0 C632.18933,575.9767,634.70479,592.31532,636.42328,612.21471 C637.63344,626.22783,638.58112,631.88994,640.9586,639.31192 C645.80789,654.45041,650.9069,659.59516,662.96806,661.51879 C670.4895,662.71838,681.00433,669.23568,683.63936,674.33125 C684.97732,676.91859,684.94512,677.36815,683.29076,679.19901 C676.13957,687.11315,653.15292,691.19715,636.46806,687.51792 Z" fill="black" stroke="none" stroke-width="0" transform="matrix(-0.26458333,0,0,0.26458333,211.12911,-66.144822)" opacity="1.0" />
</g>
<text x="28.125" y="64.93055555555556" font-size="16.666666666666664" font-family="Arial" text-anchor="middle" fill="black">bear</text>
<text x="28.125" y="81.59722222222223" font-size="12.5" font-family="Courier New" text-anchor="middle" fill="black">"bear"</text>
<g id="import" transform="translate(59.375, 3.125) scale(1.9427283677196256)">
<path d="M0.234274,22.3017 L0.304553,23.1544 C0.304553,23.1544,0.39757,23.5285,0.725188,23.5285 L1.92822,23.5285 C1.92822,23.5285,1.8228,22.8629,1.20371,22.278 C1.20371,22.278,1.63572,17.53,4.20515,16.0457 C4.20515,16.0457,4.37154,16.9325,3.553,17.5412 C2.7334,18.15,4.60411,19.1928,4.95447,21.6465 C4.95447,21.6465,4.82631,22.5115,5.33997,22.3007 C5.33997,22.3007,5.39888,23.1885,5.71412,23.2588 L7.45045,23.2888 C7.45045,23.2888,4.662,20.2212,4.90796,18.363 C4.90796,18.363,5.00201,17.7791,5.6676,17.4401 C6.33319,17.1011,6.92953,15.8391,6.92953,15.8391 C6.92953,15.8391,10.2596,16.1316,11.043,15.7688 C11.043,15.7688,10.5345,17.6974,10.582,18.2111 C10.5976,18.3868,10.3629,18.7899,10.3981,19.4648 C10.3981,19.4648,10.0126,21.3933,9.67874,21.8574 C9.34594,22.3225,9.98571,22.3927,9.98571,22.3927 C9.98571,22.3927,9.73043,23.2847,10.3981,23.5937 C10.4446,23.6154,11.6983,23.5958,11.6983,23.5958 C11.6983,23.5958,10.888,22.4982,10.8621,22.0517 C10.8353,21.6052,10.9676,19.7738,11.3003,19.317 C11.6331,18.8612,11.4409,18.8963,11.5463,18.6679 C11.6517,18.4405,12.7028,16.3104,12.7028,16.3104 C12.7028,16.3104,14.2097,16.8189,14.1229,17.2303 C14.0351,17.6416,12.2471,18.9129,12.2915,19.2281 C12.3349,19.5433,11.7572,19.5526,11.7572,19.5526 C11.7572,19.5526,11.2135,20.5169,11.4502,21.1298 C11.6869,21.7437,14.7017,17.8608,15.0872,17.5537 C15.4727,17.2478,15.4902,16.607,14.9735,16.2132 C14.4567,15.8184,13.9069,15.2902,13.9069,15.2902 C13.9069,15.2902,15.3786,14.9161,15.0872,12.941 C15.0872,12.941,15.9016,12.1979,16.0049,11.9168 C15.9812,12.0336,15.9326,12.3364,16.0153,12.5328 L16.1207,12.4356 C16.1207,12.4356,16.1559,12.9441,15.9285,13.1105 C15.9285,13.1105,17.2783,13.032,17.0943,11.9799 C17.0943,11.9799,17.2255,12.2951,17.2255,12.2517 C17.2255,12.2083,17.8477,11.5592,17.6369,11.0156 C17.6369,11.0156,17.8643,11.4104,18.0317,11.5065 C18.1981,11.6026,18.4348,11.953,18.5402,11.9623 C18.6456,11.9706,19.1273,11.9706,19.1448,11.7608 L20.013,11.7608 C20.013,11.7608,20.5649,11.4362,20.3199,10.998 C20.074,10.5598,20.197,10.043,20.2063,9.87559 C20.2145,9.7092,19.829,8.82345,18.6994,8.45552 C18.6994,8.45552,18.9619,8.21368,18.8275,7.9739 C18.6932,7.73412,18.6405,7.54808,18.6405,7.54808 C18.6405,7.54808,21.2759,7.81679,22.3973,7.62456 C23.5197,7.43233,24.9387,6.95898,24.7992,6.06394 C24.7992,6.06394,26.1841,4.24081,25.5878,3.94315 C25.5878,3.94315,25.4183,3.84393,25.2261,4.463 C25.0338,5.08313,24.5832,5.36319,24.5832,5.36319 C24.5832,5.36319,24.8695,3.88526,24.577,3.96069 C24.2845,4.03717,24.2266,5.13478,23.9693,5.21746 C23.7119,5.29911,24.238,4.68004,23.8638,4.65625 C23.4897,4.63247,23.4546,4.85469,23.4546,4.85469 C23.4525,4.85573,23.2189,4.38754,22.8096,4.57564 C22.4004,4.7627,22.4707,5.14822,22.3187,4.7627 C22.1668,4.37721,22.4004,3.95655,22.1781,3.93898 C21.957,3.92037,21.8991,4.47021,21.7699,4.39993 C21.6417,4.32966,21.6293,3.69921,21.5012,3.69921 C21.373,3.69921,21.1394,4.2718,20.9989,4.2718 C20.8583,4.2718,20.8232,3.54729,20.508,3.60621 C20.1927,3.66409,20.4025,4.15501,20.1927,4.14363 C19.9819,4.13226,19.9819,3.64135,19.7607,3.66408 C19.5385,3.68785,19.5974,4.09609,19.5385,4.09609 C19.4796,4.09609,19.3163,3.67545,19.1179,3.72194 C18.9195,3.76843,19.0125,3.96689,18.966,3.94415 C18.9184,3.92141,18.7675,3.41188,18.5691,3.60204 C18.4192,3.7457,18.2776,4.65212,19.0879,5.76004 C18.7727,5.83031,18.3003,6.04219,17.8415,6.66023 C17.6885,6.62612,17.519,6.61062,17.3361,6.63232 C17.1025,6.65919,16.9568,6.66126,16.8586,6.65506 C16.8131,6.5145,16.6942,6.24784,16.4452,6.20651 C16.347,6.18997,16.2333,6.16517,16.1196,6.13726 C16.7263,5.64323,17.3288,5.03551,16.9971,4.78128 C16.9971,4.78128,16.8214,4.63555,16.2839,5.25464 C15.7465,5.87371,15.2607,5.57606,14.6303,6.01429 C14.6303,6.01429,14.4608,5.97295,14.7233,5.54714 C14.9858,5.12029,15.424,4.32034,15.0974,4.29037 C14.7708,4.26143,14.2851,5.59881,14.0226,5.47065 C13.7601,5.34249,15.1036,3.67127,14.5838,3.46664 C14.0639,3.262,14.2737,5.1668,13.2051,4.90428 C12.1354,4.64176,13.912,3.61237,13.4448,3.42634 C12.9777,3.23928,12.6614,4.69449,12.1715,4.55392 C11.6806,4.41336,11.9958,2.78968,11.7685,2.70184 C11.5411,2.61399,11.354,3.76533,11.2724,3.6899 C11.1907,3.61341,11.1029,2.5034,10.9396,2.49205 C10.7763,2.48068,10.6068,3.21656,10.4662,3.2114 C10.3257,3.2052,10.3846,2.34116,10.1562,2.33496 C9.92878,2.32876,10.0807,3.14112,9.91121,3.11218 C9.74171,3.08324,9.64869,2.0776,9.35,2.13653 C9.05235,2.1944,9.44302,3.11837,9.21564,3.12975 C8.98827,3.14112,8.75469,2.17166,8.42086,2.24712 C8.08807,2.3236,8.22863,6.5302,14.1642,7.39406 C14.1642,7.39406,14.6665,7.2535,15.1925,7.4354 C15.1925,7.4354,14.4215,8.22399,13.3694,8.17126 C12.3172,8.11855,12.4402,7.17495,11.231,7.80436 C10.0218,8.43378,9.61871,9.67814,8.70714,9.76601 C7.79557,9.85386,7.16512,9.85386,6.48091,9.76601 C5.79776,9.67816,4.50066,8.87201,2.93999,10.1339 C1.37937,11.3928,1.65946,12.0067,1.7132,12.3043 C1.76591,12.602,2.11939,14.2773,2.0026,15.0206 C1.93232,15.467,1.73595,16.3497,1.0166,16.7714 C0.298313,17.192,1.50235,19.0172,0.100907,21.5421 C0.099874,21.5421,-0.197781,22.1022,0.234233,22.3017 Z M18.6083,7.00853 C18.879,6.80182,19.2491,6.47317,19.401,6.14038 C19.6222,6.38636,19.8878,6.63647,20.2154,6.88864 C20.2154,6.88864,19.6532,7.22453,18.6083,7.00853 Z M15.1274,6.8659 C15.1274,6.8659,15.3506,6.71914,15.6462,6.50107 C15.7361,6.6871,15.8746,6.86487,16.0886,6.94136 C15.8808,7.00647,15.5842,7.01784,15.1274,6.86591 Z" fill="black" stroke="none" stroke-width="0.264583" opacity="1.0" />
</g>
<text x="84.375" y="64.93055555555556" font-size="15.0" font-family="Arial" text-anchor="middle" fill="black">moose</text>
<text x="84.375" y="81.59722222222223" font-size="10.714285714285715" font-family="Courier New" text-anchor="middle" fill="black">"moose"</text>
<g id="import" transform="translate(115.625, 3.125) scale(2.3651845962717406)">
<path d="M18.9584,1.42855 C18.9584,1.45501,18.932,1.48147,18.9055,1.48147 C18.8791,1.48147,18.8526,1.48147,18.8261,1.45501 C18.6674,0.92584,18.3234,0.47605,17.7943,0.05272 C18.2705,0.55543,18.6409,1.16397,18.6938,1.93126 C18.7203,2.75147,18.4822,3.36001,17.953,3.83626 C17.7678,4.04793,17.6091,4.1273,17.4503,4.10084 C17.2386,4.04793,17.1063,3.8098,16.9741,3.36001 C16.7359,2.35459,16.4184,1.61376,15.9951,1.08459 C16.5507,2.03709,16.7624,2.77793,16.7359,3.4923 C16.7359,3.51876,16.7095,3.54522,16.683,3.54522 C16.3126,3.57168,15.8893,3.4923,15.413,3.25418 C15.8628,3.65105,16.3391,3.88918,16.8682,3.99501 C16.8947,3.99501,16.8947,4.02147,16.9211,4.04793 L17.027,4.47126 C17.027,4.49772,17.027,4.52418,17.0005,4.52418 C16.2332,5.26501,16.2068,5.26501,16.2068,5.26501 L16.1538,5.26501 C16.1274,5.26501,16.1009,5.23855,15.9157,4.70938 C15.9157,5.00043,15.8893,5.29147,15.8893,5.42376 C15.4924,5.34438,15.1484,5.37084,14.8309,5.50313 C14.778,5.31793,14.7251,5.0798,14.7251,4.81522 L14.5663,5.10626 C14.5663,5.13272,14.5399,5.15918,14.487,5.13272 C14.4605,5.13272,14.4341,5.10626,14.4341,5.0798 L14.5399,2.80438 L14.5663,2.75147 C14.9632,2.48688,15.2013,2.14293,15.3336,1.64022 C15.1484,2.06355,14.8574,2.46043,14.3547,2.61918 C14.3282,2.61918,14.3018,2.61918,14.3018,2.59272 C13.9843,2.30168,13.6932,1.77251,13.3757,0.9523 C13.4551,1.77251,13.7461,2.40751,14.2224,2.8573 C14.2224,2.8573,14.2488,2.88376,14.2488,2.91022 C14.2488,3.4923,14.2224,3.91563,14.143,4.23313 C14.1166,4.4448,14.0107,4.60355,13.8784,4.65647 C13.6668,4.7623,13.3757,4.68293,12.9788,4.4448 C12.1057,3.8098,11.6559,2.91022,11.6559,1.71959 C11.5236,2.61918,11.6824,3.43938,12.1586,4.25959 L12.1586,4.31251 C12.1586,4.33897,12.1322,4.33897,12.1057,4.33897 C11.6295,4.31251,11.1797,4.02147,10.7828,3.46584 C11.0209,4.07438,11.4707,4.47126,12.1851,4.68293 C12.8995,4.81522,13.4551,4.94751,13.9049,5.10626 C14.2224,5.21209,14.4076,5.37084,14.5399,5.60897 C14.4605,5.66188,14.4076,5.68834,14.3282,5.76772 C14.3018,5.79418,14.2753,5.79418,14.2488,5.76772 C13.9313,5.42376,13.5345,5.21209,13.0318,5.10626 C13.1641,5.66188,13.4286,6.0323,13.8784,6.32334 C13.9049,6.32334,13.9049,6.3498,13.9049,6.37626 C13.8784,6.74668,13.7461,7.03772,13.4551,7.24938 C13.4022,7.27584,13.3493,7.3023,13.3228,7.32876 C13.1111,7.43459,12.8466,7.54043,12.8201,7.64626 C12.8201,7.64626,12.8201,7.69918,12.873,7.72563 L13.1111,7.99022 C13.217,8.04313,13.2964,8.14897,13.3493,8.33418 C13.3757,8.38709,13.508,8.41355,13.7461,8.33418 C14.1959,8.2548,14.5399,8.2548,14.8045,8.30772 C14.9632,8.36063,15.0691,8.51938,15.0161,8.70459 C14.8838,9.28668,14.4076,9.60418,13.6403,9.63063 L8.26927,9.71001 C6.7876,9.81584,5.78218,10.2656,5.30593,11.0065 C5.04135,11.4033,4.96197,11.9325,5.06781,12.4088 L5.09427,12.4617 C5.25302,12.3029,5.38531,12.0383,5.54406,11.6415 C5.54406,11.615,5.57052,11.5885,5.62343,11.5885 C5.64989,11.5885,5.67635,11.615,5.67635,11.6415 C5.67635,11.906,5.67635,12.1442,5.70281,12.4088 C5.72927,13.6788,5.75573,14.8694,5.41177,15.3721 C5.22656,15.769,4.82968,16.1394,4.22114,16.5098 C4.03593,16.6156,3.87718,16.7744,3.77135,16.986 L3.6126,17.2242 L2.39552,20.3992 C2.39552,20.4256,2.36906,20.4256,2.3426,20.4256 C2.31614,20.4256,2.26322,20.4521,2.23676,20.5844 L1.99864,21.14 L3.00406,21.14 L2.87176,20.6902 C2.81885,20.5579,2.89822,20.4256,2.95114,20.2933 L3.74489,18.4148 C3.87718,18.0973,4.30052,17.7533,5.01489,17.3565 C5.43822,17.1183,5.75573,16.7744,6.04677,16.4833 C6.28489,16.2452,6.60239,15.9806,6.97281,15.8483 C7.63427,15.5838,8.08406,15.0546,8.42802,14.5519 C8.45448,14.5254,8.48093,14.5254,8.50739,14.5254 C8.53385,14.5254,8.53385,14.5519,8.53385,14.6048 C8.32218,15.5044,7.7401,16.2452,6.81406,16.8538 C6.76114,16.8802,6.73468,16.9596,6.73468,17.039 C6.99927,18.1767,7.4226,19.2615,8.03114,20.2404 C8.08406,20.3198,8.11052,20.4256,8.11052,20.5315 L8.13698,20.8754 L9.19531,20.8754 C8.79843,20.4785,8.53385,20.0817,8.3751,19.6848 C8.08406,19.0233,7.89885,18.3883,7.84593,17.7533 C7.84593,17.621,7.89885,17.4888,8.00468,17.3829 C8.90427,16.8802,9.69802,16.1923,10.4389,15.2133 C10.4918,15.134,10.5711,15.1075,10.6505,15.134 L10.677,15.134 C11.2855,15.5308,12.0793,15.6367,13.1111,15.5044 C13.1376,15.5044,13.1641,15.5044,13.1641,15.5308 C13.6403,16.1394,13.9843,16.8538,14.143,17.7269 C14.3547,18.6265,14.5928,19.5525,14.487,20.2404 C14.487,20.2404,14.487,20.2669,14.4605,20.2669 C14.4076,20.3463,14.3811,20.3992,14.3811,20.4521 L14.3811,20.4785 L14.3018,20.849 L14.9368,20.849 L14.9368,20.3992 L14.8045,20.2404 C14.778,20.2404,14.778,20.214,14.778,20.1875 C14.8574,19.3673,14.8309,18.4942,14.7516,17.5946 L14.6722,15.4779 L14.6722,15.4515 C14.778,15.3192,14.8574,15.2398,14.9632,15.2398 L14.9632,15.2398 C15.0691,15.2398,15.1484,15.3192,15.2278,15.4515 L15.2278,15.4779 L15.122,17.4888 C15.122,17.5946,15.122,17.7004,15.1484,17.8327 C15.2278,18.6,15.3072,19.3938,15.3072,20.2404 L15.3072,20.2669 C15.3866,20.3463,15.3601,20.4256,15.3601,20.4521 L15.3601,20.4785 L15.3336,20.9283 L15.9686,20.9548 L15.7834,20.505 C15.757,20.4521,15.757,20.3727,15.757,20.3198 L15.7834,18.4148 C15.7834,18.256,15.8099,18.0708,15.8363,17.9121 L16.3655,15.769 C16.4449,15.4515,16.5772,15.1604,16.7624,14.8694 C17.027,14.499,17.3445,14.1021,17.7149,13.7052 C18.0324,13.3613,18.1911,12.7792,18.1647,11.9325 L18.1647,11.6944 C18.1382,10.4773,18.0853,9.2073,17.9795,8.73105 C17.9266,8.22834,17.7678,7.80501,17.5032,7.43459 C17.2122,7.06418,16.7888,6.56147,17.0534,6.32334 C17.4503,6.0323,17.7149,5.66188,17.8736,5.21209 C17.9266,5.02688,17.953,4.89459,17.9266,4.7623 C17.3974,4.94751,16.9211,5.23855,16.5507,5.58251 L16.5243,5.58251 L16.4978,5.58251 L16.4978,5.58251 L16.4714,5.58251 L16.4714,5.58251 L16.4449,5.58251 C16.5243,5.42376,16.8153,5.13272,17.3974,4.65647 C17.5032,4.57709,17.5826,4.49772,17.6884,4.41834 C18.2705,3.91563,18.7468,3.22772,19.0378,2.38105 C19.2759,1.37563,19.0643,0.68772,18.7997,-0.0002 Z" fill="black" stroke="none" stroke-width="0.264583" opacity="1.0" />
</g>
<text x="140.625" y="64.93055555555556" font-size="16.666666666666664" font-family="Arial" text-anchor="middle" fill="black">deer</text>
<text x="140.625" y="81.59722222222223" font-size="12.5" font-family="Courier New" text-anchor="middle" fill="black">"deer"</text>
<g id="import" transform="translate(171.875, 3.125) scale(0.37794323292641446)">
<path d="M131.921,17.7126 C131.339,16.813,127.212,19.2471,127.212,19.2471 C126.974,17.448,127.37,15.6224,128.349,14.1142 L128.429,14.0084 C128.588,13.7703,128.588,13.4792,128.482,13.2411 C127.926,12.1299,125.995,8.82257,124.037,10.3042 C121.973,11.8653,117.025,18.083,117.025,18.083 C117.025,18.083,115.676,18.1624,114.644,18.7709 C113.639,19.353,110.569,22.5015,110.569,22.5015 L109.59,23.6392 C107.844,25.703,105.648,27.3169,103.188,28.4017 C102.235,28.8251,101.256,29.2749,100.436,29.6982 C99.9067,29.9892,99.9861,30.7565,100.568,30.9153 L103.505,31.6826 C103.505,31.6826,99.2188,40.1492,91.2284,44.4619 C88.5825,45.8907,82.7617,47.2665,79.6925,47.8486 C76.6498,48.4307,68.1567,49.8859,68.1567,49.8859 C61.3305,50.759,52.8109,52.1613,47.4134,55.4157 C44.9263,56.8974,42.2011,57.9822,39.423,58.8024 C35.7188,59.9136,32.729,61.5805,29.3688,63.9617 C16.3513,73.1692,12.6471,91.5578,4.6e-05,101.321 C5.7415,101.109,11.3507,98.5692,15.3194,94.4153 C15.4517,95.5001,15.6105,96.5584,15.7428,97.6432 C19.4734,95.5794,22.4896,92.2192,24.1036,88.2769 C24.1036,89.0971,24.3946,89.8909,24.8973,90.5524 C28.3369,88.3828,30.5594,84.4405,30.6388,80.3659 C31.3267,80.9744,31.9882,81.583,32.6761,82.1915 C34.5017,80.3924,34.4488,77.5084,35.1632,75.0478 C35.9305,72.349,37.7296,70.0736,39.9786,68.4067 C39.7934,69.0946,39.6346,69.809,39.5023,70.5234 C39.0525,72.693,38.8409,74.8626,38.788,77.0586 C38.735,79.1224,38.735,81.1861,38.5234,83.2234 C38.1265,87.1921,36.8565,91.108,35.6659,94.8915 C35.1103,96.6378,34.5282,98.3311,33.8403,100.024 L33.6021,102.326 C33.6021,102.326,32.5967,105.104,31.9088,110.449 C31.2209,115.794,28.5221,121.694,29.8715,121.958 C31.2209,122.223,37.3328,122.726,38.3382,121.958 C38.6557,121.72,38.5763,121.165,38.2853,120.556 C37.0153,117.725,36.5125,114.603,37.0417,111.56 C37.518,108.756,38.2588,105.607,39.37,103.676 C41.7513,99.5217,50.218,93.8597,50.218,93.8597 L50.218,98.9396 C49.9798,101.03,50.2709,103.12,51.0382,105.078 C53.1548,110.37,56.9119,118.704,57.9967,118.916 C59.3461,119.18,67.9715,120.265,68.1038,118.307 C68.2096,116.64,67.7069,115.132,65.8019,114.524 C64.6378,114.153,63.4207,115.291,61.3834,113.836 C60.4309,113.148,59.4784,110.475,58.7111,107.856 C57.7057,104.284,58.1025,100.448,59.7959,97.1405 L62.1771,92.4838 C65.2728,86.3984,71.4111,82.4296,78.2638,82.0592 C84.3757,81.7417,90.9638,81.5036,92.2338,81.7947 C92.9217,81.9534,94.0065,84.1759,95.1707,87.1392 C95.6205,84.7051,97.2609,83.7261,97.2609,83.7261 C95.9115,89.0442,96.8375,91.743,97.0757,92.4044 C97.8165,90.2613,99.6951,88.9649,99.6951,88.9649 C99.0865,90.7111,98.1076,93.7538,98.6103,97.1934 C99.1659,95.6059,100.409,94.4682,100.409,94.4682 C100.092,95.7117,99.3511,98.0136,99.3246,99.3101 C99.3246,99.4424,99.3246,99.6011,99.3511,99.7334 C99.8803,101.559,100.198,102.855,100.198,103.094 C100.145,104.946,100.277,111.904,100.409,116.402 L100.436,116.402 C99.8803,119.207,100.859,121.456,101.627,121.614 C103.161,121.932,109.564,122.144,110.728,121.191 C111.654,120.424,108.744,117.408,107.738,116.27 C106.707,113.121,106.865,105.157,107.13,102.062 C107.791,94.574,109.908,81.3184,110.569,79.6251 C111.257,77.9317,113.903,76.6617,115.305,74.889 C119.036,70.153,119.698,60.3634,120.412,59.4109 C120.491,59.3051,121.708,60.7603,124.407,60.3105 C123.243,58.4584,122.502,56.4211,122.899,54.0663 C122.925,53.934,123.349,55.8919,125.809,56.2888 C124.143,52.7963,124.804,49.0657,124.883,49.2509 C125.386,50.3886,126.868,51.6321,128.058,52.0819 C126.577,49.4361,125.73,41.6574,125.836,41.7897 C126.762,43.1126,127.291,43.4565,128.799,43.483 C126.497,41.1017,125.624,36.0482,125.704,36.2069 C126.418,37.6621,127.953,37.8474,127.926,37.7944 C126.1,34.5665,125.942,32.1588,125.942,31.0476 C125.942,28.9309,129.884,24.7769,129.884,24.7769 C129.884,24.7769,133.429,19.9615,131.921,17.7126 Z" fill="black" stroke="none" stroke-width="0.264583" opacity="1.0" />
</g>
<text x="196.875" y="64.93055555555556" font-size="16.666666666666664" font-family="Arial" text-anchor="middle" fill="black">wolf</text>
<text x="196.875" y="81.59722222222223" font-size="12.5" font-family="Courier New" text-anchor="middle" fill="black">"wolf"</text>
<g id="import" transform="translate(228.125, 3.125) scale(1.8937959245511702)">
<path d="M25.461,10.581 C25.485,10.652,25.511,10.706,25.479,10.675 L24.376,9.572 C24.337,9.533,24.274,9.533,24.235,9.572 C24.196,9.611,24.196,9.674,24.235,9.713 L25.296,10.774 C25.151,10.889,24.767,11.098,24.231,10.641 C24.231,10.641,20.51,10.47,19.809,11.856 C19.809,11.856,19.675,11.185,19.869,10.962 C19.869,10.962,16.861,12.785,17.457,14.052 C17.457,14.052,20.066,15.599,20.737,16.624 C21.408,17.649,21.338,19.667,20.992,20.478 C20.992,20.478,20.193,20.215,20.336,19.559 C20.479,18.904,20.629,17.119,17.368,15.418 C17.368,15.418,15.439,14.524,15.206,13.62 C15.206,13.62,14.993,14.045,15.813,15.052 L15.421,14.959 C15.421,14.959,15.738,15.257,15.645,16.375 C15.552,17.493,15.365,19.636,15.85,20.382 C15.85,20.382,16.744,20.699,16.838,21.183 L15.384,21.183 C15.384,21.183,15.682,20.848,15.216,20.419 C14.75,19.99,14.732,19.697,14.694,19.138 C14.657,18.579,14.359,18.579,14.359,18.579 C14.359,18.579,13.978,12.811,14.537,12.047 C14.537,12.047,12.021,12.624,11.015,11.991 C11.015,11.991,11.275,14.716,11.345,15.741 C11.415,16.766,11.697,17.743,12.413,18.428 C13.129,19.114,14.858,20.232,15.097,20.859 L13.829,20.844 C13.829,20.844,11.429,18.428,11.265,18.428 C11.101,18.428,10.743,18.294,10.713,17.668 C10.684,17.042,10.117,15.111,8.775,14.086 C7.434,13.061,5.216,11.142,5.216,11.142 C5.216,11.142,6.446,12.577,6.204,12.931 L4.862,14.328 C4.862,14.328,2.043,17.343,1.491,18.447 C0.94,19.55,0.627,20.221,0.895,20.549 C1.163,20.877,1.417,20.877,1.432,21.249 L0.478,21.279 C0.478,21.279,0.507,20.847,0.0,20.653 L0.88,17.85 C0.88,17.85,1.059,16.777,1.536,16.27 C1.536,16.27,3.617,15.82,4.363,13.118 C4.363,13.118,5.071,11.943,4.27,10.714 C4.27,10.714,3.916,7.825,5.723,6.968 C7.531,6.11,9.535,5.521,11.701,6.08 C13.868,6.639,15.903,5.493,15.903,5.493 C15.903,5.493,16.098,5.983,15.823,6.055 C15.823,6.055,17.505,6.174,18.209,5.351 C18.209,5.351,18.772,5.721,18.402,5.888 C18.402,5.888,20.008,5.937,20.402,5.555 C20.402,5.555,20.534,6.028,20.212,6.159 C20.212,6.159,21.429,6.706,21.739,6.474 L23.766,5.123 L23.894,7.185 C23.894,7.185,24.753,8.042,24.753,8.694 C24.753,8.694,25.51,9.498,25.869,9.877 C25.811,9.894,25.741,9.919,25.677,9.958 C25.64,9.98,25.604,10.007,25.572,10.038 C25.293,9.763,24.682,9.172,24.206,8.769 C23.916,8.524,23.692,8.491,23.532,8.528 C23.301,8.581,23.186,8.789,23.166,8.83 C23.163,8.835,23.162,8.839,23.162,8.839 C23.116,8.957,23.281,9.078,23.344,8.92 L23.345,8.918 C23.358,8.892,23.429,8.757,23.577,8.723 C23.697,8.695,23.859,8.738,24.077,8.922 C24.564,9.334,25.195,9.947,25.459,10.206 C25.453,10.222,25.447,10.238,25.443,10.255 C25.419,10.343,25.417,10.45,25.461,10.581 Z M5.148,7.099 C5.063,7.171,4.982,7.248,4.907,7.331 C4.479,7.804,4.249,8.426,4.136,9.046 C4.116,9.157,4.099,9.269,4.086,9.381 C4.07,9.515,4.059,9.65,4.051,9.785 C4.04,9.999,4.039,10.214,4.048,10.428 L4.072,10.743 C4.078,10.784,4.098,10.815,4.119,10.849 C4.138,10.879,4.157,10.91,4.174,10.941 C4.233,11.044,4.284,11.153,4.325,11.264 C4.395,11.453,4.436,11.651,4.448,11.851 C4.462,12.081,4.437,12.313,4.379,12.536 C4.347,12.657,4.306,12.776,4.254,12.89 C4.239,12.923,4.224,12.955,4.207,12.987 C4.196,13.008,4.182,13.028,4.174,13.051 C4.162,13.085,4.155,13.12,4.145,13.154 C4.128,13.212,4.11,13.27,4.091,13.328 C4.035,13.499,3.97,13.668,3.897,13.834 C3.617,14.462,3.203,15.031,2.662,15.46 C2.419,15.652,2.153,15.816,1.869,15.941 C1.782,15.98,1.693,16.014,1.602,16.044 C1.573,16.053,1.545,16.061,1.516,16.069 C1.486,16.077,1.458,16.083,1.431,16.1 C1.406,16.115,1.387,16.136,1.368,16.157 L1.308,16.229 C1.142,14.774,2.283,13.436,2.283,13.436 C2.078,13.602,1.445,13.611,1.33,13.654 C1.315,13.661,2.524,11.992,2.524,11.992 C2.112,12.273,1.677,12.418,1.673,12.459 C1.673,12.461,1.674,12.461,1.673,12.461 L1.673,12.459 C1.665,12.415,1.538,11.807,1.918,10.866 C2.361,9.771,3.153,9.5,3.153,9.5 L2.896,9.523 C3.4,8.24,4.351,7.505,5.154,7.094 Z M17.396,8.064 C17.396,8.064,16.335,8.907,15.623,10.12 C15.141,10.94,14.82,11.927,15.076,12.938 C15.089,12.991,15.143,13.024,15.197,13.01 C15.25,12.997,15.283,12.942,15.269,12.889 C15.028,11.931,15.339,10.998,15.795,10.222 C16.489,9.041,17.521,8.221,17.521,8.221 C17.564,8.186,17.571,8.123,17.537,8.08 C17.502,8.037,17.439,8.03,17.396,8.064 Z M6.976,9.214 C6.976,9.214,7.897,9.388,8.846,9.866 C9.473,10.182,10.113,10.631,10.503,11.254 C10.533,11.301,10.594,11.315,10.641,11.286 C10.688,11.257,10.702,11.195,10.673,11.148 C10.263,10.494,9.594,10.019,8.936,9.688 C7.96,9.195,7.013,9.018,7.013,9.018 C6.959,9.007,6.906,9.043,6.896,9.097 C6.886,9.152,6.922,9.204,6.976,9.214 Z M26.032,10.048 L26.054,10.07 C26.165,10.186,26.402,10.548,26.402,10.548 C26.402,10.548,26.227,10.843,25.884,10.869 C25.855,10.824,25.863,10.763,25.863,10.763 C25.942,10.563,25.651,10.517,25.651,10.517 C25.509,10.096,26.032,10.048,26.032,10.048 Z M23.506,7.816 C23.506,7.816,23.608,6.615,23.435,6.106 C23.262,5.597,21.929,6.91,21.929,6.91 C21.929,6.91,22.036,7.666,22.774,7.195 C23.253,6.889,23.506,7.816,23.506,7.816 Z" fill="black" stroke="none" stroke-width="0" opacity="1.0" />
</g>
<text x="253.125" y="64.93055555555556" font-size="5.769230769230769" font-family="Arial" text-anchor="middle" fill="black">poisoned wolf</text>
<text x="253.125" y="81.59722222222223" font-size="6.25" font-family="Courier New" text-anchor="middle" fill="black">"poisonwolf"</text>
<g id="import" transform="translate(284.375, 3.125) scale(0.11968364930574746)">
<path d="M320.502,3.777 C318.002,5.377,315.602,7.177,315.202,7.877 C314.802,8.477,308.102,14.377,300.302,20.877 C282.702,35.477,278.502,40.077,272.202,51.877 C266.302,62.877,257.902,72.377,249.402,77.677 L243.302,81.377 L248.302,81.877 C253.002,82.477,253.102,82.477,250.202,83.377 C235.402,87.677,214.702,97.777,198.402,108.777 C192.802,112.477,185.702,116.377,182.702,117.377 C178.302,118.877,177.602,119.377,179.202,119.977 C180.302,120.377,182.402,120.777,184.002,120.777 C187.702,120.877,187.402,121.977,182.602,126.377 C176.802,131.577,166.402,136.177,151.402,140.277 C144.402,142.177,136.602,144.677,134.002,145.877 L129.202,147.977 L132.202,144.777 C133.902,142.977,136.602,140.277,138.202,138.677 L141.202,135.677 L136.702,136.277 C132.602,136.777,132.402,136.777,134.102,135.377 C135.202,134.577,137.502,133.577,139.402,133.277 C143.902,132.377,143.502,131.377,138.302,129.977 C127.202,127.177,110.202,129.277,92.802,135.377 C87.202,137.377,84.002,138.177,85.202,137.277 C87.902,135.177,100.802,129.077,107.702,126.677 L113.202,124.877 L108.202,125.377 C99.502,126.377,84.802,130.777,75.902,134.877 C59.902,142.377,53.202,149.077,48.402,162.377 C43.602,175.877,42.602,185.577,41.702,225.377 C40.802,263.277,40.402,267.177,36.702,277.177 C34.802,282.377,27.102,293.877,24.502,295.477 L27.802,287.377 C35.802,271.877,36.602,266.877,37.702,226.377 C38.202,206.277,39.202,188.277,40.102,182.377 C40.902,176.877,41.402,172.277,41.202,172.077 C41.002,171.877,37.902,175.277,34.202,179.577 C22.802,192.977,16.802,204.777,12.602,222.577 C10.002,233.477,5.802,263.877,6.902,263.877 C7.302,263.877,10.002,261.677,12.802,258.877 L18.002,253.977 L17.402,260.777 C15.902,276.577,10.602,300.177,4.402,318.877 C2.502,324.377,1.402,328.877,1.902,328.877 C3.702,328.877,12.302,324.077,14.102,321.977 C15.202,320.777,16.302,319.877,16.702,319.877 C17.102,319.877,13.502,329.677,8.602,341.577 C3.702,353.477,-0.098,363.377,0.002,363.377 C0.102,363.477,1.602,363.177,3.302,362.777 C8.102,361.377,15.802,355.877,19.202,351.177 C20.802,348.877,22.402,346.977,22.702,346.977 C23.002,346.877,23.102,354.577,22.902,363.877 C22.602,382.877,23.902,393.577,28.302,407.677 C31.402,417.177,31.202,417.077,43.702,416.677 L52.202,416.377 L51.902,413.477 C51.302,408.477,48.802,404.777,44.602,402.977 C39.902,401.077,39.702,400.277,43.602,399.377 C49.602,398.077,53.702,403.177,53.702,411.677 L53.702,416.577 L57.002,415.977 C59.702,415.377,60.202,414.877,60.502,411.977 C61.202,405.077,56.902,399.677,49.102,397.777 C45.502,396.877,44.602,396.077,43.302,392.877 C40.402,385.577,39.402,375.977,40.002,360.477 C40.902,336.277,45.902,320.877,56.202,309.877 C76.102,288.677,85.002,273.377,87.702,255.377 C88.802,247.977,88.402,220.077,87.102,214.377 C86.702,212.777,87.002,212.777,88.402,214.877 C90.902,218.477,99.602,227.277,100.202,226.777 C100.402,226.477,99.902,223.877,99.102,220.877 C97.302,214.277,96.002,192.877,97.402,192.877 C97.902,192.877,99.002,194.777,99.702,197.077 C103.502,209.977,114.602,226.677,127.702,239.277 C133.302,244.677,138.102,248.877,138.302,248.677 C138.402,248.477,138.002,246.477,137.202,244.377 C134.902,237.977,135.402,237.377,140.002,241.577 C146.502,247.577,161.702,257.277,161.702,255.377 C161.702,255.077,159.402,251.377,156.602,247.277 C153.802,243.077,151.702,239.577,151.902,239.377 C152.102,239.177,155.802,241.777,160.202,245.077 C173.802,255.377,197.102,269.777,198.202,268.677 C198.402,268.477,196.602,264.377,194.102,259.677 C190.002,251.577,184.702,238.977,184.702,236.977 C184.702,236.477,186.702,236.677,189.202,237.477 C191.702,238.177,193.702,238.577,193.702,238.377 C193.702,238.077,192.402,235.677,190.702,233.077 C187.402,227.677,181.702,215.477,181.702,213.877 C181.702,210.577,196.502,222.977,200.202,229.277 C206.602,240.177,208.302,251.077,210.202,294.377 C212.202,341.377,214.202,362.977,217.802,379.877 C219.302,386.777,224.702,402.777,227.302,407.977 C231.402,416.177,230.502,415.877,251.802,415.877 L270.702,415.877 L270.702,413.577 C270.602,409.977,267.102,403.177,264.202,401.277 C262.802,400.377,258.602,398.777,255.002,397.777 C245.802,395.177,244.002,393.777,242.302,387.577 C239.202,376.577,238.202,361.877,238.302,326.877 C238.402,297.577,238.702,290.477,240.402,279.677 L242.402,266.977 L250.902,258.677 C256.602,253.077,260.202,248.577,261.902,244.877 C264.402,239.577,266.502,231.877,265.402,231.877 C265.102,231.877,260.602,236.677,255.502,242.577 C246.302,253.177,246.202,253.277,245.602,250.377 C244.502,245.377,244.602,228.577,245.802,222.377 C248.402,208.077,258.202,197.877,269.202,197.877 C279.502,197.877,287.202,209.477,289.202,228.177 C290.002,235.977,290.602,235.877,296.302,227.477 C298.102,224.877,301.502,221.377,303.802,219.777 C306.202,218.277,310.002,215.077,312.402,212.777 L316.702,208.577 L316.702,211.577 C316.702,213.277,316.002,216.577,315.202,218.877 C314.402,221.277,313.802,223.377,314.002,223.577 C314.802,224.277,319.802,219.577,321.102,217.077 C321.802,215.577,323.202,211.477,324.102,207.877 C325.102,204.277,328.702,196.177,332.302,189.777 C335.802,183.377,338.702,177.677,338.702,176.977 C338.702,175.177,340.302,175.677,342.002,178.077 L343.702,176.877 C343.802,167.477,348.202,155.977,355.802,144.677 C358.002,141.577,359.402,138.777,358.902,138.577 C355.702,136.677,345.302,135.377,333.702,135.377 C320.902,135.377,319.902,135.477,314.402,138.177 C308.402,141.177,304.502,145.677,303.202,151.077 C302.202,155.077,301.202,153.777,299.702,146.877 C297.702,137.377,300.302,126.177,306.002,119.977 L308.202,117.577 L304.202,118.277 C302.002,118.677,297.802,120.077,295.002,121.377 C291.502,122.977,289.702,123.377,289.702,122.577 C289.702,119.777,296.002,110.877,301.202,106.077 L306.902,100.877 L303.402,100.877 C300.602,100.877,292.402,102.677,283.002,105.477 L282.302,101.577 C284.202,96.077,290.602,88.477,295.602,85.977 C300.502,83.477,305.202,82.277,317.602,80.377 C323.702,79.577,330.302,77.877,333.502,76.377 C336.502,74.977,339.102,73.977,339.302,74.177 C339.502,74.277,337.402,76.977,334.702,80.177 C329.102,86.677,328.102,88.977,329.702,91.877 C332.002,96.177,342.402,98.777,357.302,98.877 C361.202,98.877,366.402,99.477,368.902,100.277 C374.802,101.977,390.102,112.477,399.402,121.177 L406.802,127.977 L401.502,130.377 C393.302,134.177,386.702,133.777,375.002,128.877 C363.402,123.877,360.602,123.277,356.702,124.877 C353.302,126.277,352.702,127.877,355.702,127.877 C356.802,127.877,362.302,129.577,368.002,131.777 C391.602,140.577,398.702,139.577,411.102,125.377 C420.702,114.377,419.902,109.277,408.902,111.377 C402.902,112.477,401.402,112.477,401.002,111.177 C400.702,110.477,402.302,109.177,404.602,108.277 L408.702,106.677 L400.702,101.977 C381.702,90.977,379.002,87.677,377.302,72.977 C375.602,59.577,374.802,58.477,357.002,45.177 C351.302,40.977,346.502,36.777,346.102,35.677 C345.802,34.577,346.502,32.277,347.702,30.077 C351.402,23.877,364.002,7.777,367.202,5.277 C368.802,3.977,369.702,2.877,369.002,2.877 C368.402,2.877,364.702,5.277,361.002,8.077 C357.202,10.977,350.002,16.477,344.902,20.377 L335.802,27.377 L336.402,32.077 C337.102,37.677,336.802,37.977,320.802,50.177 C309.902,58.577,306.802,60.177,303.102,59.277 C291.202,56.277,300.102,26.977,318.602,7.977 C322.102,4.377,324.402,2.877,326.202,2.877 C327.702,2.877,328.602,2.477,328.202,1.877 C327.202,0.277,325.402,0.677,320.502,3.777 Z M357.402,77.677 C358.802,78.577,361.002,83.877,360.302,84.677 C360.002,84.877,358.602,84.177,357.102,82.977 C355.602,81.777,352.602,80.577,350.502,80.277 C346.602,79.577,346.402,78.477,350.202,77.577 C353.402,76.777,356.102,76.877,357.402,77.677 Z M231.802,102.877 C219.702,114.877,213.902,130.577,215.102,147.977 C215.402,152.677,216.802,161.777,218.202,168.177 C219.602,174.577,220.702,182.477,220.702,185.677 C220.702,191.277,218.402,201.277,216.902,202.277 C216.502,202.477,216.202,198.977,216.102,194.577 C216.102,188.377,215.502,185.177,213.802,181.177 C210.002,172.577,208.702,172.377,208.702,180.477 C208.702,189.377,207.502,187.977,204.302,175.477 C201.302,163.977,200.902,152.777,203.302,143.477 C207.102,128.277,219.302,109.877,231.702,100.577 C235.102,97.977,238.102,95.877,238.302,95.877 C238.602,95.877,235.602,98.977,231.802,102.877 Z M272.102,130.077 C271.202,132.777,270.002,150.877,270.702,150.877 C270.902,150.877,273.302,148.777,275.902,146.177 L280.702,141.477 L280.702,144.977 C280.702,149.777,285.002,157.977,289.702,162.277 C292.902,165.177,308.302,173.877,310.202,173.877 C310.502,173.877,310.702,172.077,310.702,169.877 C310.702,158.777,323.302,147.977,342.502,142.477 C347.602,140.977,347.802,141.077,347.202,142.677 C346.702,143.577,344.402,149.577,342.002,155.877 C338.002,166.477,328.302,183.877,326.502,183.877 C326.002,183.877,325.702,182.877,325.602,181.577 C325.602,179.777,325.302,179.877,324.402,182.577 C323.002,186.277,321.702,187.777,321.702,185.777 C321.602,184.977,320.702,186.477,319.502,189.077 C317.402,193.977,315.702,195.277,315.702,192.077 C315.702,191.177,314.602,192.977,313.302,196.077 C310.602,202.577,306.302,208.477,301.202,212.277 L297.702,214.977 L298.402,210.677 C299.702,203.477,299.102,198.577,296.202,191.977 C293.702,186.377,293.202,185.877,292.102,187.377 C290.902,188.877,290.002,187.577,284.702,176.777 L278.702,164.377 L279.302,170.577 C279.602,174.077,279.502,176.877,279.002,176.877 C277.402,176.877,267.302,158.377,265.802,152.877 C264.102,146.177,265.302,138.977,269.202,132.277 C272.002,127.477,273.302,126.577,272.102,130.077 Z M254.502,401.477 C257.102,403.277,258.702,406.077,259.802,410.577 C260.802,415.377,259.402,415.377,256.902,410.477 C254.502,405.977,248.702,401.877,244.802,401.877 C243.602,401.877,242.902,401.377,243.202,400.877 C244.202,399.277,252.002,399.677,254.502,401.477 Z" fill="black" stroke="none" stroke-width="0" opacity="1.0" />
<path d="M322.002,7.577 C315.602,13.277,306.902,27.077,305.302,34.377 L306.402,35.277 C308.702,32.577,315.702,27.877,317.502,27.877 C318.402,27.877,317.902,28.977,316.302,30.977 C314.802,32.677,312.902,35.477,312.002,37.177 C310.602,39.877,305.702,53.477,305.702,54.677 C305.702,57.077,320.202,48.277,329.602,40.077 L334.002,36.277 L332.902,31.777 C332.302,29.277,331.502,22.777,331.102,17.277 C330.202,3.977,328.302,2.077,322.002,7.577 Z" fill="black" stroke="none" stroke-width="0" opacity="1.0" />
<path d="M366.602,9.577 C358.102,19.377,350.802,33.377,352.702,36.777 C353.402,38.277,358.302,42.577,364.402,47.177 C366.202,48.477,368.702,42.177,368.702,36.177 C368.802,33.577,369.502,27.777,370.302,23.377 C372.902,9.677,373.202,5.877,371.402,5.877 C370.602,5.877,368.402,7.577,366.602,9.577 Z" fill="black" stroke="none" stroke-width="0" opacity="1.0" />
<path d="M162.202,119.977 C160.602,120.477,152.902,121.377,145.202,121.977 C137.502,122.477,131.102,123.177,130.902,123.277 C130.802,123.477,134.702,124.377,139.602,125.277 C149.602,127.077,161.002,127.277,167.702,125.777 C175.302,124.077,175.402,124.077,172.202,121.377 C169.002,118.777,167.002,118.477,162.202,119.977 Z" fill="black" stroke="none" stroke-width="0" opacity="1.0" />
<path d="M301.102,246.177 C295.602,252.477,289.102,258.377,281.102,264.477 C268.302,274.077,264.702,278.777,264.702,285.777 C264.702,290.477,262.802,288.577,261.202,282.177 L259.902,277.377 L258.402,280.877 C254.902,289.077,253.402,297.377,253.402,308.877 C253.402,319.077,253.802,322.177,257.502,336.377 C259.702,345.177,262.502,357.277,263.702,363.377 C266.302,377.077,268.902,385.277,273.702,394.877 C275.702,398.977,278.002,404.077,278.602,406.077 C279.302,408.177,281.502,411.177,283.502,412.877 L287.202,415.877 L304.402,415.877 L321.702,415.877 L321.102,413.077 C319.002,404.177,314.302,399.977,304.002,397.577 C296.302,395.877,292.902,393.677,291.202,389.477 C287.402,380.377,285.202,335.677,287.602,316.377 C290.402,294.877,296.602,270.577,305.102,248.177 C307.502,241.977,309.402,236.877,309.302,236.877 C309.202,236.877,305.502,241.077,301.102,246.177 Z M305.502,401.477 C308.102,403.277,310.202,406.977,311.202,411.577 C312.102,416.077,310.402,415.677,308.302,410.977 C306.502,406.677,302.202,403.477,296.802,402.377 C294.402,401.877,293.802,401.377,294.802,400.777 C297.002,399.377,303.102,399.777,305.502,401.477 Z" fill="black" stroke="none" stroke-width="0" opacity="1.0" />
<path d="M104.402,253.577 C102.302,260.077,97.502,271.877,93.702,279.877 C87.302,293.277,86.702,295.077,85.702,304.377 C84.502,316.177,83.302,320.177,80.002,324.677 L77.602,327.977 L80.102,335.677 C81.502,339.877,85.802,354.377,89.702,367.877 C97.202,393.777,102.302,406.277,108.102,412.277 L111.402,415.877 L123.102,415.877 C134.602,415.877,134.702,415.877,134.702,413.477 C134.702,408.777,129.602,403.377,123.202,401.377 C121.602,400.877,121.502,400.577,122.702,399.877 C125.202,398.277,129.302,398.777,131.902,400.877 C134.702,402.977,137.202,410.777,136.202,413.977 C135.502,415.977,137.202,416.577,139.302,415.077 C143.902,412.077,142.502,403.977,136.802,400.177 C134.102,398.377,132.002,397.877,126.702,397.877 C121.502,397.877,119.402,397.377,117.502,395.977 C109.402,389.577,101.002,352.977,103.602,335.877 C105.202,325.877,106.402,323.477,114.602,314.377 C123.502,304.577,129.802,294.677,134.102,283.677 C139.402,270.577,139.402,270.677,134.102,266.877 C127.302,261.977,117.202,252.377,113.102,246.777 C111.102,244.077,109.202,241.877,108.902,241.877 C108.502,241.877,106.502,247.177,104.402,253.577 Z" fill="black" stroke="none" stroke-width="0" opacity="1.0" />
</g>
<text x="309.375" y="64.93055555555556" font-size="7.5" font-family="Arial" text-anchor="middle" fill="black">timberwolf</text>
<text x="309.375" y="81.59722222222223" font-size="6.25" font-family="Courier New" text-anchor="middle" fill="black">"timberwolf"</text>
<g id="import" transform="translate(340.625, 3.125) scale(0.5277267530507513)">
<path d="M6.6848065,30.7062 C7.0090065,30.3898,7.4660065,30.1984,7.9270065,30.2218 C7.9778065,30.6437,7.8528065,31.0812,7.5793065,31.4093 C7.7512065,30.8898,7.1653065,30.4054,6.6848065,30.7062 Z M6.4348065,31.0226 C6.3020065,31.4132,6.5832065,31.8273,7.0051065,31.8273 C6.8332065,31.9171,6.4738065,31.9718,6.2278065,31.9523 C6.1848065,31.6125,6.2707065,31.2921,6.4348065,31.0226 Z M75.395806,52.7886 C76.477806,55.3277,79.501306,58.1519,79.751306,59.5386 C80.126306,61.6519,79.513006,67.6675,78.966106,69.7376 C78.024706,73.3118,75.395806,71.7024,69.962206,72.1399 C69.606806,66.7454,72.755206,69.4446,74.247406,67.2297 C74.231806,63.8781,73.606806,61.9524,71.747406,60.1399 C68.091206,56.5852,59.306406,54.0461,56.802406,46.1869 C57.650106,53.3119,63.595406,55.6439,64.294606,57.8349 C65.704806,62.7958,59.345406,69.6899,57.107106,71.8939 C56.247706,72.7377,50.368806,72.1556,49.325906,71.7923 C48.900106,68.4485,50.654006,68.0111,53.525106,67.554 C56.032906,66.6439,58.540706,61.3821,56.974306,59.7024 C55.572006,58.1985,52.513406,52.9055,51.853206,50.9212 C47.181306,52.1946,42.657906,52.4681,38.521206,52.5189 C39.579806,56.4681,42.708706,68.6049,38.611106,71.5109 C37.435306,72.343,32.685306,72.2102,30.997806,71.9211 C30.454806,68.0227,32.853306,68.4758,35.290806,67.4914 C35.923606,64.7492,31.978306,55.4874,30.630606,53.5534 C29.923506,54.2565,21.907906,68.2684,19.282606,71.0454 C17.790406,72.6235,13.106806,72.2876,10.458406,71.9126 C10.157606,68.3931,12.321706,68.2173,15.196706,67.7095 C17.138106,66.2134,22.778706,51.5965,22.106906,49.1895 C16.794406,45.1075,17.255306,38.3535,9.9659065,38.8145 C6.4620065,39.1856,4.8526065,41.4668,2.4659065,38.6739 C3.4463065,37.8184,3.4815065,38.045,2.1924065,38.2481 C1.8995065,37.7989,1.7862065,36.9317,0.90330646,36.5997 C0.73930646,36.4161,-1.9130935,34.9044,2.7197065,31.2403 C6.4892065,28.2169,4.7041065,25.8106,12.176706,25.0176 C14.758706,20.7832,14.547806,22.1192,17.801706,26.166 C39.989706,37.65,53.434706,26.6074,66.731706,29.7637 C87.169736,34.6114,78.805706,68.0997,92.110736,56.4087 C99.599036,55.6509,89.360736,66.6077,83.349006,60.6587 C78.938806,56.2954,79.747406,45.7137,73.349006,39.6237 C73.306106,43.987,73.673206,48.7448,75.399806,52.7877 Z" fill="black" stroke="none" stroke-width="0" opacity="1.0" />
</g>
<text x="365.625" y="64.93055555555556" font-size="12.5" font-family="Arial" text-anchor="middle" fill="black">cougar</text>
<text x="365.625" y="81.59722222222223" font-size="9.375" font-family="Courier New" text-anchor="middle" fill="black">"cougar"</text>
<g id="import" transform="translate(396.875, 3.125) scale(2.5529743453139826)">
<path d="M17.636459,16.011273 C17.219876,16.926087,16.678715,17.210073,16.298339,17.287752 C15.854945,17.378796,15.401588,17.229513,15.014489,16.914666 C15.013112,17.116923,14.949527,17.291721,14.818226,17.457204 C14.792144,17.490009,14.751968,17.509449,14.709038,17.509449 H9.0056171 C8.920559,17.509449,8.8569335,17.433714,8.8683221,17.351337 C8.9828399,16.538988,9.3887066,16.131801,10.105322,15.975066 C9.7242167,15.673746,9.3960614,15.262509,8.8904189,15.160044 C8.5327958,16.080933,8.0592779,16.750641,7.4304263,17.461902 C7.4029592,17.492763,7.3634555,17.510097,7.3219268,17.508801 C7.3152281,17.508801,6.6053198,17.484663,5.5894259,17.508801 C5.5231193,17.509449,5.4668648,17.465952,5.4514586,17.402286 C5.3114906,16.807584,5.684528,16.289913,6.3013349,16.389705 C6.8223917,15.926871,6.9851288,15.449376,6.8706029,14.718027 C5.2712984,13.770408,4.2532499,12.096057,3.8421101,9.7393382 C2.9493686,9.8505107,2.2856732,9.441971,2.0137643,8.9664686 C1.7666415,8.5331672,1.8208872,8.0368964,2.1591026,7.6350554 C2.8556111,6.1784081,3.8494892,5.3633537,5.2465691,5.1195437 C4.9987739,3.7948211,5.3034959,2.7801098,6.1527161,2.1051141 C6.1788386,2.0850212,6.2096429,2.0743066,6.2438006,2.0756471 C6.6409436,2.0890413,6.928931,2.229684,7.1003837,2.4915505 C7.3883711,2.3120594,7.7533652,2.1975481,8.214806,2.1787909 C8.2583435,2.1767813,8.3012006,2.1962035,8.3286596,2.2303604 C8.8175675,2.8404791,8.9381117,3.4432244,8.7070511,4.1283062 C8.5181834,4.6895309,8.0955902,5.3110439,7.2986231,6.1951346 C7.5397115,6.7168637,7.6642895,7.1816417,7.6723328,7.5781205 C8.2168229,7.7957837,8.7030335,7.7890931,9.3640583,7.7783768 C9.6038183,7.7750315,9.8757434,7.7710058,10.178465,7.7777045 C14.43866,7.8714701,17.305655,10.623396,16.765223,14.854674 C16.995587,14.775618,17.232026,14.811096,17.424239,14.963781 C17.72159,15.199572,17.809313,15.630816,17.63654,16.011273 Z" fill="black" stroke="none" stroke-width="0.171449" opacity="1.0" />
</g>
<text x="421.875" y="64.93055555555556" font-size="12.5" font-family="Arial" text-anchor="middle" fill="black">rabbit</text>
<text x="421.875" y="81.59722222222223" font-size="9.375" font-family="Courier New" text-anchor="middle" fill="black">"rabbit"</text>
<g id="import" transform="translate(453.125, 3.125) scale(0.10360160409264461)">
<path d="M196.53,377.752 L194.454,382.392 C193.494,384.539,193.676,386.903,194.956,388.878 C196.236,390.852,198.319,391.984,200.672,391.984 L207.5,391.984 C207.691,390.675,208.044,389.38,208.562,388.127 L211.894,380.062 C209.886,379.888,207.904,379.687,205.982,379.427 C202.734,378.987,199.587,378.42,196.53,377.752 Z" fill="black" stroke="none" stroke-width="0" opacity="1.0" />
<path d="M339.258,388.229 C327.216,377.349,309.883,371.609,287.747,371.151 C265.919,377.328,244.066,380.616,224.836,380.616 C223.322,380.616,221.829,380.59,220.349,380.549 L215.956,391.182 C214.893,393.756,215.171,396.559,216.719,398.874 C218.267,401.188,220.752,402.516,223.537,402.516 L325.003,402.516 C316.045,394.239,302.507,389.454,287.264,389.454 C285.055,389.454,283.264,387.663,283.264,385.454 C283.264,383.245,285.055,381.454,287.264,381.454 C307.659,381.454,325.551,389.229,335.601,402.314 C338.66,401.647,340.582,399.389,341.405,397.249 C342.383,394.709,342.332,391.006,339.258,388.229 Z" fill="black" stroke="none" stroke-width="0" opacity="1.0" />
<path d="M425.498,143.121 C425.357,141.482,426.234,139.924,427.709,139.194 C441.154,132.54,448.232,123.156,449.357,110.546 C442.31,92.333,424.469,80.102,404.932,80.102 C378.371,80.102,360.759,111.647,357.232,128.536 C352.569,150.864,332.149,167.701,309.731,167.701 C302.652,167.701,292.594,164.428,279.861,160.285 C251.171,150.95,207.817,136.842,163.95,150.582 C113.853,166.275,68.7101,204.184,57.9771,229.743 C56.1801,234.022,54.5191,240.063,56.8101,244.547 C59.0611,248.956,68.0791,249.911,82.2051,247.234 C114.412,241.133,161.759,218.33,162.234,218.1 C164.224,217.139,166.614,217.97,167.577,219.958 C168.539,221.946,167.707,224.338,165.719,225.301 C163.876,226.193,123.026,245.867,90.5511,253.617 C96.2801,259.715,106.455,269.731,116.03,275.073 L165.772,245.974 C167.679,244.857,170.128,245.499,171.244,247.407 C172.359,249.314,171.718,251.763,169.811,252.879 L125.227,278.96 C139.779,283.561,158.587,283.907,166.228,282.52 C173.596,281.181,191.582,269.287,197.891,264.816 C199.693,263.539,202.19,263.964,203.468,265.767 C204.745,267.57,204.32,270.066,202.517,271.343 C200.253,272.948,181.611,286.024,170.484,289.648 C169.977,293.604,169.395,302.087,172.575,308.016 L206.013,283.493 C207.795,282.185,210.298,282.572,211.604,284.353 C212.911,286.135,212.525,288.638,210.744,289.944 L178.681,313.458 C190.236,318.045,215.331,312.556,232.86,300.675 C251.229,288.225,257.253,265.721,257.312,265.495 C257.868,263.357,260.057,262.078,262.19,262.63 C264.328,263.186,265.611,265.37,265.055,267.508 C264.807,268.46,259.262,289.127,242.384,303.456 C248.343,306.107,258.756,308.826,270.654,303.505 C289.82,294.934,316.761,251.927,311.329,219.076 C306.072,187.281,247.915,176.447,247.329,176.341 C245.155,175.949,243.71,173.87,244.1,171.696 C244.49,169.522,246.565,168.076,248.742,168.467 C251.365,168.937,313.045,180.417,319.221,217.771 C325.299,254.524,295.718,301.06,273.919,310.808 C267.775,313.556,261.949,314.561,256.714,314.561 C246.769,314.561,238.96,310.935,235.135,308.733 C222.34,316.767,203.968,323.217,189.027,323.218 C180.703,323.218,173.448,321.218,168.818,316.375 C161.985,309.228,161.705,297.855,162.292,291.011 C160.356,291.144,158.198,291.218,155.873,291.218 C143.421,291.218,126.296,289.148,114.353,283.234 C100.861,276.551,86.1671,260.811,81.4311,255.498 C76.6741,256.305,72.4371,256.711,68.7141,256.711 C62.8801,256.711,58.3121,255.71,54.9431,253.715 C43.5571,285.094,25.1151,311.063,0.00011,331.079 C14.4891,333.087,29.9111,329.715,46.8781,320.876 C48.2911,320.139,50.0071,320.312,51.2451,321.316 C52.4831,322.32,53.0071,323.963,52.5791,325.498 L49.7171,335.753 C62.2771,334.297,72.2921,329.946,80.2141,322.531 C81.3021,321.512,82.8671,321.182,84.2731,321.677 C85.6801,322.171,86.6951,323.406,86.9071,324.881 L87.8941,331.737 C99.2431,330.489,109.936,325.192,119.013,316.28 C119.904,315.405,121.151,314.995,122.391,315.176 C123.627,315.356,124.709,316.103,125.314,317.197 C125.572,317.661,151.986,364.05,207.054,371.499 C262.683,379.028,356.165,348.161,385.967,301.414 C403.698,273.601,404.155,248.77,404.558,226.863 C404.813,212.972,405.034,200.975,409.68,190.58 C414.575,179.626,422.832,172.54,430.818,165.687 C436.344,160.945,441.621,156.406,445.594,150.794 C436.116,148.902,428.74,146.729,428.347,146.613 C426.769,146.146,425.639,144.76,425.498,143.121 Z M403.042,129.03 C397.737,129.03,393.437,124.73,393.437,119.425 C393.437,114.12,397.737,109.82,403.042,109.82 C408.347,109.82,412.647,114.12,412.647,119.425 C412.647,124.73,408.346,129.03,403.042,129.03 Z" fill="black" stroke="none" stroke-width="0" opacity="1.0" />
<path d="M482.432,139.305 C480.573,132.504,467.172,122.676,456.585,116.382 C454.467,126.496,448.803,134.861,439.668,141.371 C459.047,146.052,478.844,147.581,482.18,142.111 C482.508,141.574,482.833,140.77,482.432,139.305 Z" fill="black" stroke="none" stroke-width="0" opacity="1.0" />
</g>
<text x="478.125" y="64.93055555555556" font-size="8.333333333333332" font-family="Arial" text-anchor="middle" fill="black">ptarmigan</text>
<text x="478.125" y="81.59722222222223" font-size="6.818181818181818" font-family="Courier New" text-anchor="middle" fill="black">"ptarmigan"</text>
<g id="import" transform="translate(509.375, 3.125) scale(2.3574897449196097)">
<path d="M12.8186,4.12258 C12.4052,4.08124,11.5494,4.49464,11.012,4.81196 C10.4735,5.12925,9.27357,6.19171,9.27357,6.19171 C9.27357,6.19171,8.83225,6.20514,8.28035,6.21858 C7.72846,6.23201,4.79024,6.3426,2.74898,7.22627 C0.707771,8.10889,0.003927,8.79826,0.045202,9.01943 C0.086543,9.24061,0.555768,9.22614,1.27303,9.55685 C1.99029,9.88757,2.3076,10.6193,2.3076,10.6193 C2.3076,10.6193,1.90763,10.578,1.56243,10.5087 C1.21723,10.4395,0.058643,9.94339,0.003874,10.3299 C-0.050903,10.7165,0.473086,11.2818,2.34896,12.1644 C4.2248,13.0471,5.50755,13.2269,5.50755,13.2269 C5.79695,13.9163,6.39017,14.3162,6.90074,14.5643 C7.4113,14.8123,7.92187,14.8681,7.99111,14.7162 C8.06036,14.5643,7.67382,13.9028,7.43922,13.2817 C7.20461,12.6605,6.55659,11.9567,6.55659,11.9567 C6.55659,11.9567,6.88732,12.0673,7.32968,12.4394 C7.771,12.8114,7.94981,13.4326,7.94981,13.4326 C7.94981,13.4326,8.37769,13.5018,9.13631,13.5431 C9.89492,13.5845,10.8055,13.4326,10.8055,13.4326 C10.8055,13.4326,11.068,13.9152,11.4814,14.3979 C11.8948,14.8805,12.4467,15.2257,12.64,15.1565 C12.8332,15.0872,12.7919,14.9084,12.9717,14.2046 C13.1516,13.5008,12.9025,13.2941,12.9025,13.2941 C12.9025,13.2941,13.1784,13.2806,13.5102,13.2393 C13.8409,13.1979,14.1717,13.1432,14.1717,13.1432 C14.1717,13.1432,14.9024,13.9565,15.1101,14.1364 C15.3168,14.3162,15.5659,14.1219,15.7726,13.8883 C15.9793,13.6537,15.3861,13.1028,15.3861,13.1028 C15.3861,13.1028,16.5726,13.0749,16.9178,13.2951 C17.263,13.5163,17.2764,14.0403,17.4697,15.1306 C17.6629,16.22,18.0764,17.1171,18.311,17.0892 C18.5456,17.0612,18.6841,16.3305,18.8773,15.7507 C19.0706,15.1709,19.3734,13.5297,19.3734,13.5297 C19.3734,13.5297,19.9946,12.7163,20.3801,12.2057 C20.7666,11.6952,21.3454,10.8818,21.18,10.702 C21.0147,10.5221,20.0494,10.674,19.5522,10.826 C19.0561,10.9779,18.3657,11.3365,18.3657,11.3365 C18.3657,11.3365,17.9792,10.6741,17.8283,10.4818 C17.6764,10.2885,17.2351,9.90199,17.2351,9.90199 C17.2351,9.90199,17.6216,9.75006,17.8004,9.61259 C17.9802,9.47513,17.787,9.18471,17.4004,9.03382 C17.0139,8.88189,16.2687,8.90979,16.2687,8.90979 C16.2687,8.90979,15.7582,8.42611,15.0688,8.0127 C14.3794,7.59928,13.317,7.1156,13.317,7.1156 L13.5102,7.03292 C13.7025,6.95023,14.1293,6.64639,14.088,6.57815 C14.0466,6.5089,13.5361,5.39165,13.2746,4.89453 C13.0121,4.39843,13.2332,4.16383,12.8188,4.12247 Z M4.96997,7.79156 C6.75281,8.97081,6.14612,11.8275,4.19689,12.1365 C5.7389,11.196,5.84537,9.14543,4.96997,7.79156 Z M3.22536,8.24633 L3.22433,8.24736 C3.35042,8.24736,3.47237,8.29697,3.56125,8.38585 C3.65013,8.47577,3.70077,8.5967,3.70077,8.72278 C3.70077,8.84886,3.65013,8.96979,3.56125,9.0597 C3.47236,9.14858,3.35041,9.19922,3.22433,9.19922 C3.09825,9.19922,2.97732,9.14858,2.88844,9.0597 C2.79852,8.96978,2.74891,8.84885,2.74891,8.72278 C2.74891,8.59669,2.79852,8.47576,2.88844,8.38585 C2.97732,8.29697,3.09825,8.24736,3.22433,8.24736 Z" fill="black" stroke="none" stroke-width="0.264583" opacity="1.0" />
</g>
<text x="534.375" y="64.93055555555556" font-size="10.714285714285715" font-family="Arial" text-anchor="middle" fill="black">fishing</text>
<text x="534.375" y="81.59722222222223" font-size="12.5" font-family="Courier New" text-anchor="middle" fill="black">"fish"</text>
<g id="import" transform="translate(3.125, 109.375) scale(0.10245817657232317)">
<path d="M409.602,121.35002 V160.82402 C397.7274,178.70252,389.6184,197.80862,385.5063,217.61942 C383.1987,228.73442,382.2609,239.53532,382.6389,250.63862 C382.7055,252.58442,384.303,254.11622,386.2344,254.11622 C386.2758,254.11622,386.3172,254.11532,386.3595,254.11442 C388.3467,254.04692,389.9028,252.38012,389.8344,250.39382 C389.4762,239.87012,390.3663,229.62812,392.5551,219.08192 C395.7456,203.71082,401.4687,188.76992,409.6011,174.52472 V431.95802 C407.7021,430.21112,405.4881,428.76842,403.005,427.74242 C396.6843,425.13062,390.3204,422.67902,383.9151,420.38852 C395.0094,393.23642,400.6614,365.97272,400.6866,339.30392 C400.7055,319.28972,397.6986,303.13292,394.7907,287.50802 C394.2201,284.44352,393.6549,281.40782,393.1212,278.37752 C392.7756,276.41822,390.9036,275.11232,388.9506,275.45702 C386.9931,275.80262,385.6854,277.67012,386.031,279.62762 C386.5692,282.68042,387.138,285.73772,387.7131,288.82562 C390.5607,304.12742,393.5055,319.95032,393.4875,339.29672 C393.4632,365.14652,387.9417,391.62002,377.1039,418.02602 C373.5831,416.83532,370.0506,415.69232,366.5064,414.59792 C359.9409,399.06032,356.5263,383.21942,356.3724,367.48562 C356.205,350.32172,359.8824,340.29482,364.1403,328.68482 C367.203,320.33282,370.371,311.69462,372.4356,299.58872 C376.7646,274.20692,371.469,260.31362,365.3373,244.22792 C360.0237,230.28782,354.0135,214.50452,352.4052,187.02392 C362.6364,170.63942,370.6959,153.05972,376.3551,134.74832 C383.6289,111.20972,386.9103,86.720717,386.1597,61.824917 C400.8432,77.560517,409.602,98.601617,409.602,121.35002 Z M231.0582,303.04112 C227.919,280.63292,225.4395,262.93352,231.3786,239.39042 C234.3234,227.71562,238.9287,216.40622,245.0982,205.64042 C247.0629,224.09672,253.0497,236.19362,259.8114,249.84752 C265.2996,260.92922,271.5204,273.49142,276.7989,291.91262 C286.1175,324.43412,287.9355,360.08762,282.2574,397.92542 C269.5908,396.76532,256.8342,396.17672,244.0029,396.17672 C240.2238,396.17672,236.451,396.23252,232.6854,396.33332 C234.5925,382.63172,235.5519,368.88962,235.5177,355.41932 C235.4637,334.49522,233.1228,317.78402,231.0582,303.04112 Z M284.0133,291.01712 C289.2513,274.94042,291.9126,258.63422,291.9162,242.54312 C291.9189,228.23492,289.8372,217.76162,287.8239,207.63302 C285.7836,197.37032,283.8558,187.67552,283.8594,174.00452 C283.863,158.33822,286.5117,142.44332,291.7326,126.76082 C292.3608,124.87442,291.3402,122.83592,289.4538,122.20772 C287.5683,121.58042,285.5289,122.60012,284.9007,124.48652 C279.4359,140.90252,276.663,157.56242,276.6594,174.00272 C276.6567,188.38382,278.7438,198.88322,280.7625,209.03702 C282.7974,219.27362,284.7198,228.94232,284.7171,242.54132 C284.7144,254.48342,283.1673,266.55962,280.1235,278.57102 C275.5794,265.48232,270.6906,255.59132,266.2635,246.65342 C258.2715,230.51462,251.958,217.76702,251.6304,194.11232 C251.4378,180.20462,253.407,170.19302,255.3105,160.51172 C258.0366,146.65082,260.6115,133.55762,255.558,112.68212 C253.7274,105.11852,251.5053,99.061517,249.5451,93.717317 C246.1206,84.380717,243.4152,77.007017,243.5736,65.197217 C243.7545,51.614417,247.773,37.956917,255.5013,24.570317 C273.0711,25.068017,290.6202,26.706917,308.0154,29.465417 C303.2805,47.964917,300.864,66.728117,300.8316,85.300517 C300.7929,108.05792,304.4145,120.92432,308.2494,134.54582 C311.5407,146.23682,314.9436,158.32562,316.9641,178.39562 C320.1915,210.44912,316.515,229.03592,312.2589,250.55762 C308.7345,268.37582,304.7403,288.57182,304.8609,319.15742 C304.968,346.46162,308.3781,374.38322,315.0012,402.23912 C306.5259,400.77392,297.9993,399.57602,289.4304,398.64092 C295.1346,360.32522,293.3229,324.14072,284.0133,291.01712 Z M322.7628,403.66472 C315.7752,375.32012,312.168,346.89182,312.0591,319.12952 C311.9421,289.26302,315.6933,270.29642,319.3203,251.95442 C323.5062,230.78732,327.4608,210.79472,324.1263,177.67382 C322.0428,156.97922,318.396,144.02462,315.1785,132.59552 C311.3229,118.89842,307.9929,107.06972,308.0307,85.313117 C308.0622,67.142117,310.4562,48.773117,315.1425,30.663317 C319.6911,31.467017,324.2271,32.348117,328.7496,33.304817 C338.502,48.737117,345.4068,65.135117,349.2633,82.074017 C354.3393,104.37152,351.8976,118.01102,349.0707,133.80422 C346.6425,147.36722,343.8903,162.74012,345.1512,186.29132 C346.719,215.59622,353.037,232.17062,358.6116,246.79382 C364.6047,262.51682,369.3387,274.93592,365.3409,298.37912 C363.387,309.83612,360.3342,318.15932,357.3831,326.20802 C353.0703,337.96922,348.996,349.07882,349.1751,367.55762 C349.32,382.40582,352.1928,397.31792,357.7116,411.98972 C346.1718,408.70472,334.5177,405.92912,322.7628,403.66472 Z M378.6195,54.649217 C380.3007,81.295517,377.2344,107.52242,369.4773,132.62342 C365.1087,146.75882,359.2587,160.44422,352.0452,173.45372 C352.1604,157.43102,354.2592,145.67882,356.1582,135.07232 C359.1237,118.50692,361.6851,104.20052,356.2842,80.475617 C352.7454,64.929017,346.7613,49.832417,338.4786,35.481917 C340.1526,35.878817,341.8266,36.280217,343.4961,36.697817 C356.7756,40.025117,368.6853,46.272917,378.6195,54.649217 Z M247.3437,24.426317 C240.4524,37.402517,236.7867,50.652317,236.4114,63.906617 C230.7315,71.514317,226.686,79.757417,224.4063,88.423517 C221.2959,100.24412,222.348,109.15592,223.3659,117.77432 C223.8438,121.82252,224.2956,125.64572,224.2875,129.64892 C224.2569,145.76792,216.4368,162.59252,201.0432,179.65562 C199.7121,181.13162,199.8282,183.40772,201.3051,184.73972 C201.9936,185.36072,202.8558,185.66672,203.7153,185.66672 C204.699,185.66672,205.6791,185.26622,206.3901,184.47782 C223.0104,166.05482,231.4542,147.61202,231.4884,129.66152 C231.4965,125.22812,230.9988,121.00982,230.5164,116.93012 C229.5345,108.61232,228.6066,100.75532,231.3696,90.255017 C232.6494,85.389617,234.5592,80.664617,237.063,76.125017 C238.1412,83.530217,240.3489,89.551217,242.7861,96.196817 C244.7724,101.61212,246.8262,107.21192,248.5605,114.37592 C253.2423,133.71782,250.9266,145.49072,248.2464,159.12302 C246.4122,168.44882,244.3467,178.99772,244.4268,193.08092 C235.0776,207.03542,228.3357,222.01682,224.3973,237.63002 C218.1144,262.53752,220.8081,281.77052,223.9275,304.04012 C225.9606,318.55532,228.2646,335.00642,228.3159,355.43732 C228.3501,368.98232,227.352,382.81262,225.372,396.59522 C216.8256,396.97322,208.3161,397.61132,199.848,398.50952 C202.2402,382.01522,202.0269,365.96372,199.1982,350.73932 C197.6709,342.52142,195.6018,335.57072,193.6011,328.85132 C190.1703,317.32682,186.9294,306.44222,187.1724,290.97842 C187.3785,277.90322,190.0074,264.75692,194.9871,251.90672 C195.7053,250.05272,194.7846,247.96742,192.9306,247.24922 C191.0757,246.52922,188.9913,247.45172,188.2731,249.30482 C182.9847,262.95242,180.192,276.93482,179.9724,290.86592 C179.7123,307.43582,183.1062,318.83612,186.6999,330.90512 C188.6475,337.44722,190.6608,344.21072,192.1188,352.05422 C194.9106,367.07792,195.0105,382.98362,192.4338,399.36002 C177.5091,401.21492,162.7194,403.87622,148.0998,407.34302 C144.4269,388.58252,144.003,369.96782,146.8434,351.95792 C149.0358,338.05652,152.4027,329.24102,155.6589,320.71622 C156.7569,317.84252,157.7946,315.12632,158.7792,312.24542 C172.2954,272.70662,162.1677,240.47492,152.373,209.30522 C143.0193,179.53682,134.1849,151.41992,146.649,118.84802 C147.1323,117.58532,147.6876,116.21012,148.2879,114.72332 C152.6466,103.92962,159.2337,87.618917,158.9718,65.108117 C158.853,54.855317,157.2951,44.536817,154.3539,34.375817 C183.792,27.760817,213.8988,24.400217,244.002,24.400217 C245.1162,24.400217,246.2304,24.417317,247.3437,24.426317 Z M144.5223,36.700517 C145.4565,36.466517,146.3952,36.246917,147.3312,36.019217 C150.1599,45.671717,151.662,55.468217,151.7745,65.190917 C151.986,83.437517,147.3186,97.504517,143.373,107.61332 C138.7587,96.253517,132.9915,85.388717,126.129,75.229517 C121.1871,67.915217,115.662,60.933917,109.6707,54.431417 C119.5509,46.170317,131.3616,39.999917,144.5223,36.700517 Z M104.3409,59.273417 C110.1009,65.521217,115.4127,72.229817,120.1611,79.258817 C128.1891,91.141517,134.6673,104.02592,139.4562,117.56012 C126.8184,151.93832,136.308,182.19362,145.5042,211.46162 C154.9506,241.52522,164.7183,272.61122,151.9653,309.91532 C151.0221,312.67562,150.0069,315.33332,148.9323,318.14672 C146.3718,324.85082,143.5422,332.27312,141.3282,342.35312 C131.7369,327.70022,126.8292,313.13462,126.7446,298.96232 C126.7068,292.69832,127.5987,287.64662,128.5428,282.29792 C129.6624,275.95472,130.9314,268.76642,130.773,258.61172 C130.5534,244.64822,127.7607,230.66402,122.4723,217.04792 C121.7532,215.19482,119.6679,214.27502,117.813,214.99592 C115.9599,215.71592,115.041,217.80212,115.761,219.65522 C120.7398,232.47302,123.3687,245.61842,123.5739,258.72512 C123.7224,268.19312,122.5686,274.72712,121.4535,281.04782 C120.4509,286.72682,119.5041,292.09082,119.5455,299.00642 C119.6499,316.57352,126.3792,334.50782,139.5147,352.33322 C136.7796,370.82372,137.3115,389.88572,141.1068,409.07462 C133.7853,410.94662,126.507,413.01662,119.2773,415.29272 C109.4331,399.46532,102.6165,382.67942,99.021,365.36072 C96.8313,354.81632,95.9421,344.57432,96.3003,334.04972 C96.3678,332.06342,94.8126,330.39662,92.8254,330.32912 C90.8319,330.28772,89.1723,331.81682,89.1048,333.80492 C88.7268,344.91002,89.6646,355.71092,91.9713,366.82412 C95.6244,384.42362,102.4356,401.47952,112.2276,417.58502 C103.0872,420.64232,94.0242,424.01822,85.0494,427.72352 C82.5456,428.75672,80.3136,430.21022,78.402,431.97062 V173.82452 C88.2444,191.06402,98.1399,215.38832,99.9597,245.35922 C101.1675,265.24922,98.6943,285.09692,92.6094,304.35332 C92.01,306.24872,93.0612,308.27192,94.9575,308.87132 C95.3184,308.98472,95.6838,309.03962,96.0429,309.03962 C97.5711,309.03962,98.9895,308.05862,99.4746,306.52322 C105.8268,286.42262,108.408,265.69742,107.1462,244.92452 C104.8548,207.18932,90.3207,178.04642,78.402,160.11122 V121.35362 C78.402,97.353317,88.1589,75.248417,104.3409,59.273417 Z M403.095,460.87502 C398.9631,463.74512,393.8853,464.38592,389.1666,462.63362 C342.4962,445.28792,293.655,436.49312,244.002,436.49312 C194.3256,436.49312,145.5069,445.27802,98.9013,462.60482 C94.1502,464.37242,89.0445,463.72892,84.8946,460.84532 C80.7681,457.97612,78.402,453.44462,78.402,448.41182 C78.402,442.24322,82.0902,436.73432,87.7971,434.37812 C137.613,413.80772,190.1685,403.37672,244.002,403.37672 C297.12,403.37672,351.1515,414.10382,400.2555,434.39702 C405.9336,436.74422,409.602,442.24772,409.602,448.41632 C409.602,453.45812,407.2305,457.99952,403.095,460.87502 Z" fill="black" stroke="none" stroke-width="0.9" opacity="1.0" />
</g>
<text x="28.125" y="171.18055555555554" font-size="4.6875" font-family="Arial" text-anchor="middle" fill="black">birch bark spawn</text>
<text x="28.125" y="187.8472222222222" font-size="10.714285714285715" font-family="Courier New" text-anchor="middle" fill="black">"birch"</text>
<g id="import" transform="translate(59.375, 109.375) scale(2.1931748398982367)">
<path d="M14.9606,10.886 C14.9657,10.8788,14.9719,10.8736,14.9771,10.8664 C15.004,10.8323,15.036,10.8023,15.0722,10.7786 C15.0774,10.7755,15.0794,10.7703,15.0846,10.7672 C15.0898,10.7641,15.0898,10.7672,15.0918,10.7651 C15.1259,10.7445,15.1621,10.729,15.2004,10.7196 L16.0799,10.5047 L16.8085,4.96482 L11.8124,7.70564 L11.8124,20.3302 L14.9067,10.9902 C14.9191,10.953,14.9377,10.9178,14.9604,10.8858 Z" fill="black" stroke="none" stroke-width="0.264583" opacity="1.0" />
<path d="M5.26703,15.6062 L8.44415,22.9132 L10.9701,22.9132 L7.38896,12.1026 Z" fill="black" stroke="none" stroke-width="0.264583" opacity="1.0" />
<path d="M15.255,22.9132 L18.0321,22.9132 L22.6015,15.6393 L18.275,15.968 Z" fill="black" stroke="none" stroke-width="0.264583" opacity="1.0" />
<path d="M18.2173,15.1432 L22.7978,14.7959 L20.9684,10.1636 L15.9445,11.3894 Z" fill="black" stroke="none" stroke-width="0.264583" opacity="1.0" />
<path d="M15.409,12.1026 L11.8279,22.9132 L14.3539,22.9132 L17.531,15.6062 Z" fill="black" stroke="none" stroke-width="0.264583" opacity="1.0" />
<path d="M6.85347,11.3893 L1.82957,10.1635 L0.00021,14.7958 L4.58068,15.1431 Z" fill="black" stroke="none" stroke-width="0.264583" opacity="1.0" />
<path d="M11.4011,-0.11589 L6.21398,4.14443 L11.3993,6.99082 L16.5864,4.14337 Z" fill="black" stroke="none" stroke-width="0.264583" opacity="1.0" />
<path d="M6.72118,10.5056 L7.59555,10.7174 C7.63379,10.7268,7.66996,10.7423,7.70407,10.7629 C7.70407,10.7629,7.70924,10.7629,7.71131,10.765 C7.71337,10.7671,7.71854,10.7733,7.72371,10.7764 C7.75988,10.8012,7.79192,10.8301,7.8188,10.8642 C7.82396,10.8714,7.83016,10.8766,7.83533,10.8838 C7.8591,10.9159,7.87667,10.9521,7.89011,10.9893 L10.9855,20.3304 L10.9855,7.70579 L5.99252,4.96682 Z" fill="black" stroke="none" stroke-width="0.264583" opacity="1.0" />
<path d="M0.19661,15.6393 L4.76596,22.9132 L7.54303,22.9132 L4.52308,15.9679 Z" fill="black" stroke="none" stroke-width="0.264583" opacity="1.0" />
</g>
<text x="84.375" y="171.18055555555554" font-size="6.25" font-family="Arial" text-anchor="middle" fill="black">salt deposit</text>
<text x="84.375" y="187.8472222222222" font-size="12.5" font-family="Courier New" text-anchor="middle" fill="black">"salt"</text>
<g id="import" transform="translate(115.625, 109.375) scale(1.8897733027945967)">
<path d="M9.75213,24.3995 C9.75213,25.5364,8.8385,26.4583,7.71402,26.4583 C6.58955,26.4583,5.67176,25.5364,5.67176,24.3995 C5.67176,23.2626,6.58955,22.3366,7.71402,22.3366 C8.8385,22.3366,9.75213,23.2626,9.75213,24.3995 Z" fill="black" stroke="none" stroke-width="0" opacity="1.0" />
<path d="M20.7945,24.3995 C20.7945,25.5364,19.8767,26.4583,18.7522,26.4583 C17.6278,26.4583,16.71,25.5364,16.71,24.3995 C16.71,24.3458,16.71,24.3003,16.7141,24.2507 C16.7182,24.2217,16.7182,24.1928,16.7224,24.1639 C16.8423,23.1386,17.7063,22.3366,18.7522,22.3366 C19.7982,22.3366,20.6622,23.1386,20.7821,24.1639 C20.7862,24.1928,20.7862,24.2217,20.7904,24.2507 C20.7945,24.3003,20.7945,24.3458,20.7945,24.3995 Z" fill="black" stroke="none" stroke-width="0" opacity="1.0" />
<path d="M24.1928,20.3728 L24.1928,23.7338 L21.5676,23.7338 C21.2741,22.4398,20.1207,21.4766,18.7522,21.4766 C17.3837,21.4766,16.2304,22.4398,15.9368,23.7338 L10.5253,23.7338 C10.2317,22.4398,9.08247,21.4766,7.71408,21.4766 C6.34155,21.4766,5.19228,22.4398,4.89865,23.7338 L2.26523,23.7338 L2.26523,20.3728 Z" fill="black" stroke="none" stroke-width="0" opacity="1.0" />
<path d="M26.4582,8.81371 L26.4582,10.4177 L24.3415,10.4177 C24.3043,10.4136,24.2588,10.4136,24.2175,10.4177 L2.24069,10.4177 C2.19935,10.4136,2.15387,10.4136,2.11666,10.4177 L-5e-10,10.4177 L-5e-10,8.81371 L3.27845,8.81371 C3.29912,8.81785,3.31979,8.81785,3.34046,8.81371 L22.8286,8.81371 C22.8534,8.81785,22.8741,8.81785,22.8989,8.81785 C22.9195,8.81785,22.9402,8.81785,22.9691,8.81371 Z" fill="black" stroke="none" stroke-width="0" opacity="1.0" />
<path d="M23.7256,11.2778 L21.5138,19.5087 L4.94429,19.5087 L2.73253,11.2778 Z" fill="black" stroke="none" stroke-width="0" opacity="1.0" />
<path d="M22.6341,7.37941 C22.6341,7.56958,22.6135,7.76388,22.5721,7.95406 L3.56767,7.95406 C3.42297,7.63158,3.34443,7.27194,3.34443,6.90814 C3.34443,5.50254,4.47716,4.36152,5.86622,4.36152 C5.96131,4.36152,6.05225,4.37393,6.14321,4.38633 L6.23003,4.3946 C6.35819,4.41113,6.48634,4.36979,6.58142,4.27884 C6.6765,4.18789,6.72198,4.06387,6.70958,3.9357 C6.70544,3.87369,6.70131,3.81582,6.70131,3.74967 C6.70131,1.68262,8.36736,-6e-11,10.4179,-6e-11 C11.9558,-6e-11,13.3532,0.979777,13.8948,2.44327 C13.9444,2.57556,14.056,2.67478,14.1924,2.71198 C14.3289,2.74505,14.4736,2.70784,14.5811,2.61276 C15.0896,2.14148,15.751,1.88515,16.4373,1.88515 C17.7933,1.88515,18.9467,2.87321,19.1781,4.2292 C19.2112,4.44417,19.4137,4.59713,19.6246,4.58475 C19.7031,4.58061,19.7775,4.57234,19.8561,4.57234 C21.3898,4.57234,22.6342,5.82911,22.6342,7.37931 Z" fill="black" stroke="none" stroke-width="0" opacity="1.0" />
<path d="M22.9688,8.81371 C22.944,8.81785,22.9234,8.81785,22.8986,8.81785 C22.8779,8.81785,22.8572,8.81785,22.8283,8.81371 Z" fill="black" stroke="none" stroke-width="0" opacity="1.0" />
</g>
<text x="140.625" y="171.18055555555554" font-size="7.5" font-family="Arial" text-anchor="middle" fill="black">coal spawn</text>
<text x="140.625" y="187.8472222222222" font-size="12.5" font-family="Courier New" text-anchor="middle" fill="black">"mine"</text>
<g id="import" transform="translate(171.875, 109.375) scale(2.1751424718319052)">
<path d="M22.4435,21.3757 C18.5245,20.1438,14.415,19.5898,10.3306,19.7138 L13.0426,10.255 L15.6636,11.0074 C17.2346,5.07068,16.3664,0.91196,14.9773,0.51509 C13.5883,0.11821,10.6448,3.17732,8.83398,9.0479 L11.455,9.80032 L8.58585,19.8048 C5.8326,20.0197,3.09575,20.5406,0.449919,21.3757 C0.011716,21.5163,-0.228076,21.9793,-0.087503,22.4092 C0.053057,22.8474,0.516065,23.0872,0.946012,22.9467 C7.74262,20.8052,15.1425,20.8052,21.9473,22.9467 C22.3855,23.0872,22.8485,22.8392,22.9808,22.4092 C23.1214,21.971,22.8733,21.508,22.4434,21.3757 Z" fill="black" stroke="none" stroke-width="0.264583" opacity="1.0" />
<path d="M2.71565,7.28667 L7.24664,8.58477 C8.32979,5.07904,10.0991,1.73048,12.0671,0.01069 C7.43687,-0.18775,3.29456,2.2679,2.14521,6.26147 C2.02119,6.69967,2.26923,7.15444,2.7157,7.28673 Z" fill="black" stroke="none" stroke-width="0.264583" opacity="1.0" />
<path d="M21.7905,12.7519 C22.2287,12.8759,22.6835,12.6279,22.8158,12.1814 C23.9568,8.18779,21.7409,3.91318,17.7143,1.62295 C18.4668,4.11996,18.1939,7.8986,17.2596,11.4456 L21.7906,12.7437 Z" fill="black" stroke="none" stroke-width="0.264583" opacity="1.0" />
</g>
<text x="196.875" y="171.18055555555554" font-size="6.25" font-family="Arial" text-anchor="middle" fill="black">beachcombing</text>
<text x="196.875" y="187.8472222222222" font-size="5.357142857142858" font-family="Courier New" text-anchor="middle" fill="black">"beachcombing"</text>
</svg>