<?xml version="1.0" encoding="UTF-8"?>
<svg xmlns="http://www.w3.org/2000/svg" xmlns:xlink="http://www.w3.org/1999/xlink"
     width="1350.0" height="2125.0" viewBox="0 0 1350.0 2125.0">
<defs>
</defs>
<rect x="0" y="0" width="1350.0" height="2125.0" fill="white" />
<g id="import" transform="translate(12.5, 12.5) scale(2.2203719862460836)">
<path d="M87.849998,77.199998 L72.849998,62.199998 C70.949998,60.299998,68.349998,59.599998,65.849998,60.199998 L57.249998,51.599998 C61.549998,46.199998,64.049998,39.399998,64.049998,31.999998 C64.049998,14.399998,49.649998,-1.5258789e-06,32.049998,-1.5258789e-06 C14.449998,-1.5258789e-06,0.04999847,14.399998,0.04999847,31.999998 C0.04999847,49.599998,14.449998,63.999998,32.049998,63.999998 C39.449998,63.999998,46.249998,61.499998,51.649998,57.299998 L60.249998,65.899998 C59.749998,68.299998,60.349998,70.999998,62.249998,72.899998 L77.249998,87.899998 C80.149998,90.799998,84.949998,90.799998,87.849998,87.899998 C90.749998,84.999998,90.749998,80.099998,87.849998,77.199998 Z M32.049998,55.999998 C18.849998,55.999998,8.0499985,45.199998,8.0499985,31.999998 C8.0499985,18.799998,18.849998,7.9999985,32.049998,7.9999985 C45.249998,7.9999985,56.049998,18.799998,56.049998,31.999998 C56.049998,45.199998,45.249998,55.999998,32.049998,55.999998 Z" fill="black" stroke="none" stroke-width="0" />
</g>
<text x="112.5" y="259.72222222222223" font-size="20.0" font-family="Arial" text-anchor="middle" fill="black">magnifying lens</text>
<text x="112.5" y="326.3888888888889" font-size="33.33333333333333" font-family="Courier New" text-anchor="middle" fill="black">"maglens"</text>
<g id="import" transform="translate(237.5, 12.5) scale(2.4390243902439024)">
<path d="M82.0,23.5636 C82.0,23.8636,81.9,23.9636,81.8,23.9636 L74.3,27.5636 C73.0,28.1636,72.1,29.4636,71.9,30.8636 C71.7,32.2636,72.2,33.7636,73.2,34.7636 L79.3,40.4636 C79.4,40.5636,79.5,40.6636,79.4,40.8636 C79.3,41.1636,79.1,41.0636,79.0,41.0636 L70.8,39.5636 C69.4,39.2636,67.9,39.7636,66.9,40.7636 C65.9,41.7636,65.4,43.2636,65.7,44.6636 L67.2,52.8636 C67.2,52.9636,67.3,53.1636,67.0,53.2636 C66.7,53.3636,66.6,53.2636,66.5,53.1636 L60.8,47.1636 C59.8,46.1636,58.3,45.6636,56.9,45.8636 C55.5,46.0636,54.3,46.9636,53.6,48.2636 L50.0,55.8636 C50.0,55.9636,49.9,56.1636,49.6,56.0636 C49.3,56.0636,49.3,55.8636,49.3,55.7636 L48.2,47.4636 C48.1,46.4636,47.6,45.6636,47.0,44.9636 L48.4,43.5636 L48.4,43.5636 L55.5,36.4636 L59.0,32.9636 C60.3,31.6636,61.0,29.8636,61.0,27.9636 C61.0,26.0636,60.3,24.3636,59.0,22.9636 C57.7,21.6636,55.9,20.9636,54.0,20.9636 C52.1,20.9636,50.4,21.6636,49.0,22.9636 L45.5,26.4636 L45.5,26.4636 L37.0,35.0636 C36.3,34.4636,35.5,33.9636,34.5,33.8636 L26.3,32.7636 C26.2,32.7636,26.0,32.7636,26.0,32.4636 C26.0,32.1636,26.1,32.0636,26.2,32.0636 L33.7,28.4636 C35.0,27.8636,35.9,26.6636,36.2,25.1636 C36.4,23.7636,35.9,22.2636,34.9,21.2636 L28.9,15.5636 C28.8,15.4636,28.7,15.3636,28.8,15.0636 C28.8,14.9636,29.0,14.9636,29.1,14.9636 L37.3,16.4636 C38.7,16.7636,40.2,16.2636,41.2,15.2636 C42.2,14.2636,42.7,12.7636,42.4,11.3636 L40.9,3.16363 C40.9,3.06363,40.9,2.86363,41.1,2.76363 C41.4,2.66363,41.5,2.76363,41.6,2.86363 L47.3,8.86363 C48.3,9.86363,49.7,10.3636,51.2,10.1636 C52.7,9.96363,53.9,8.96363,54.5,7.66363 L58.0,0.263629 C58.0,0.163629,58.1,-0.036371,58.4,0.063629 C58.7,0.063629,58.7,0.263629,58.7,0.363629 L59.8,8.56363 C60.0,9.96363,60.9,11.2636,62.2,11.8636 C63.5,12.5636,65.0,12.4636,66.3,11.7636 L73.6,7.76363 C73.7,7.76363,73.9,7.66363,74.1,7.86363 C74.3,8.06363,74.2,8.26363,74.2,8.36363 L70.2,15.6636 C69.5,16.9636,69.5,18.4636,70.1,19.7636 C70.8,21.0636,72.0,21.9636,73.4,22.1636 L81.6,23.2636 C81.7,23.2636,81.9,23.2636,82.0,23.5636 Z M56.1,30.1636 C56.7,29.5636,57.0,28.8636,57.0,28.0636 C57.0,27.2636,56.7,26.5636,56.1,25.9636 C55.5,25.3636,54.8,25.0636,54.0,25.0636 C53.2,25.0636,52.5,25.3636,51.9,25.9636 L49.8,28.0636 L54.0,32.2636 Z M46.9,30.8636 L42.7,35.0636 L46.9,39.2636 L51.1,35.0636 Z M0.9,76.8636 C0.3,77.3636,0.0,78.1636,0.0,78.9636 C0.0,79.7636,0.3,80.5636,0.9,81.0636 C1.5,81.6636,2.2,81.9636,3.0,81.9636 C3.8,81.9636,4.6,81.6636,5.1,81.0636 L44.0,42.1636 L39.8,37.9636 Z" fill="black" stroke="none" stroke-width="0" />
</g>
<text x="337.5" y="259.72222222222223" font-size="27.272727272727273" font-family="Arial" text-anchor="middle" fill="black">firestriker</text>
<text x="337.5" y="326.3888888888889" font-size="23.076923076923077" font-family="Courier New" text-anchor="middle" fill="black">"firestriker"</text>
<g id="import" transform="translate(462.5, 12.5) scale(2.2222222222222223)">
<path d="M84.4336,37.4954 L40.1191,59.6536 L40.1191,69.7786 L84.4336,47.6223 Z" fill="black" stroke="none" stroke-width="0" />
<path d="M53.6387,12.9563 C53.3612,12.9563,53.0831,13.0202,52.8281,13.1477 L1.0,39.0618 C0.387,39.3688,0.0,39.9949,0.0,40.6809 L0.0,57.9563 C0.0,58.6423,0.387,59.2684,1.0,59.5754 L35.5527,76.8528 L35.5547,76.8528 C36.0617,77.1058,36.6599,77.1088,37.1719,76.8528 L88.9981,50.9387 C89.612,50.6317,90.0,50.0046,90.0,49.3196 L90.0,32.0422 C90.0,31.3562,89.612,30.7301,88.9981,30.4231 L54.4473,13.1477 C54.1923,13.0202,53.9162,12.9563,53.6387,12.9563 Z M69.709,28.7063 C69.7611,28.7036,69.8146,28.7091,69.8652,28.72 C69.9992,28.75,70.0768,28.8218,70.0488,28.8938 C69.7288,29.7178,69.2383,30.9778,69.2383,30.9778 C67.6503,35.0678,64.3201,39.9886,59.4121,42.4426 C55.3931,44.4526,48.8677,44.4526,44.8477,42.4426 C43.3677,41.7026,42.431,40.7922,42.041,39.8372 C42.0406,39.8361,42.0413,39.8324,42.041,39.8313 C42.0407,39.8291,42.0407,39.8237,42.041,39.8215 C42.0416,39.8194,42.0438,39.8139,42.0449,39.8118 C42.0503,39.8034,42.0593,39.7943,42.0723,39.7883 C42.0993,39.7763,42.1369,39.7736,42.1719,39.7786 C42.3389,39.8036,42.6195,39.8448,42.9375,39.8938 C44.0165,40.0578,44.939,40.41,45.541,40.886 C45.839,41.125,46.1983,41.3509,46.6133,41.5579 C49.6573,43.0809,54.6025,43.0809,57.6465,41.5579 C61.4295,39.6669,64.1413,36.2047,65.8203,32.8977 C62.8763,34.0357,59.5507,34.4429,56.3457,34.6829 C54.3037,34.8369,52.3197,34.9196,50.5527,35.1125 C49.0097,35.2815,47.6393,35.5302,46.6133,36.0422 C46.2043,36.2472,45.8498,36.4684,45.5508,36.7024 C44.9098,37.2064,43.908,37.57,42.75,37.718 C42.514,37.75,42.3107,37.7743,42.1797,37.7903 C42.1457,37.7943,42.109,37.7906,42.084,37.7786 C42.0677,37.7711,42.0565,37.7578,42.0527,37.7473 C42.0525,37.7463,42.0528,37.7425,42.0527,37.7415 C42.0528,37.7393,42.0541,37.7338,42.0547,37.7317 C42.4527,36.7887,43.3847,35.8904,44.8477,35.1594 C46.9347,34.1164,50.0547,33.8356,53.5547,33.6106 C58.0497,33.3206,63.251,33.0874,66.998,30.4934 C66.998,30.4934,68.5033,29.4518,69.4863,28.7708 C69.5401,28.7339,69.6222,28.7108,69.709,28.7063 Z M86.3789,34.9739 L86.3789,48.1985 L38.1738,72.302 L38.1738,59.0754 Z M52.0781,36.6262 C54.4581,36.6262,56.3926,37.5925,56.3926,38.7825 C56.3926,39.9735,54.4581,40.9387,52.0781,40.9387 C50.5971,40.9387,48.1234,40.546,46.0254,40.136 C45.4924,40.047,45.0371,39.8841,44.7031,39.675 C44.4281,39.5061,44.0161,39.4075,43.5801,39.4075 L15.3516,39.4075 C14.6626,39.4075,14.1035,39.1275,14.1035,38.7825 C14.1035,38.4385,14.6626,38.1575,15.3516,38.1575 C15.3516,38.1575,38.9521,38.1585,43.5801,38.1575 C44.0151,38.1575,44.4272,38.0589,44.7012,37.8899 C45.0362,37.6809,45.4895,37.5199,46.0215,37.4309 C48.1235,37.0199,50.5971,36.6262,52.0781,36.6262 Z M52.0781,37.8762 C50.8071,37.8762,50.8071,39.6887,52.0781,39.6887 C53.0791,39.6887,53.8926,39.2835,53.8926,38.7825 C53.8926,38.2825,53.0791,37.8762,52.0781,37.8762 Z M3.62109,43.6106 L34.5527,59.0754 L34.5527,72.302 L3.62109,56.8372 Z" fill="black" stroke="none" stroke-width="0" />
</g>
<text x="562.5" y="259.72222222222223" font-size="42.85714285714286" font-family="Arial" text-anchor="middle" fill="black">matches</text>
<text x="562.5" y="326.3888888888889" font-size="33.33333333333333" font-family="Courier New" text-anchor="middle" fill="black">"matches"</text>
<g id="import" transform="translate(687.5, 12.5) scale(2.244014117586497)">
<path d="M48.8375,40.22 L37.7395,40.22 C36.5285,40.22,35.5374,41.211,35.5374,42.421 L35.5374,56.429 C35.5374,57.639,36.5285,58.631,37.7395,58.631 L48.8385,58.631 C50.0495,58.631,51.0404,57.639,51.0404,56.429 L51.0404,42.421 C51.0395,41.211,50.0485,40.22,48.8375,40.22 Z" fill="black" stroke="none" stroke-width="0" />
<path d="M71.0435,0.0 L68.8304,0.0 C67.8115,0.0,66.8535,0.27,66.0174,0.731 L41.1255,0.731 C38.3025,0.731,35.8795,2.41,34.8025,5.113 L32.7635,10.228 L28.6364,10.228 L26.6965,11.564 L25.2604,9.076 L25.8115,8.758 C26.1674,8.553,26.2904,8.094,26.0854,7.738 L24.5905,5.149 C24.3845,4.794,23.9264,4.67,23.5705,4.876 L12.5894,11.216 C12.2334,11.422,12.1105,11.88,12.3164,12.236 L13.8115,14.825 C14.0175,15.181,14.4764,15.304,14.8324,15.099 L15.3834,14.781 L15.3864,14.787 L21.3964,11.318 L22.0344,12.422 L16.0244,15.892 L17.2735,18.055 L14.7134,19.817 C13.2174,20.847,12.3964,22.409,12.3964,24.225 L12.3964,79.695 C12.3964,84.89,16.6324,89.126,21.8274,89.126 L67.4794,89.126 C72.6715,89.126,76.9095,84.891,76.9095,79.695 L76.9095,5.863 C76.9065,2.633,74.2725,0.0,71.0435,0.0 Z M38.3535,6.528 C38.8465,5.292,39.8825,4.554,41.1245,4.554 L62.6445,4.554 C59.8055,8.194,55.6285,10.228,50.8655,10.228 L36.8795,10.228 Z M68.2285,70.968 L63.6685,72.191 L48.4545,63.407 C47.6405,62.937,46.8345,62.721,45.8945,62.721 L35.1014,62.721 C33.2215,62.721,31.6074,63.653,30.6674,65.281 L21.9195,80.432 L21.7415,80.329 L20.5205,75.768 L31.4064,56.914 C31.8765,56.099,32.0924,55.294,32.0924,54.353 L32.0924,39.159 C32.0924,37.279,31.1605,35.665,29.5314,34.725 L22.2804,30.538 L21.0585,25.978 L21.1614,25.801 L37.8625,35.444 C38.6765,35.914,39.4825,36.129,40.4235,36.129 L51.4535,36.129 C53.3325,36.129,54.9465,35.198,55.8875,33.569 L64.2805,19.032 L64.4584,19.135 L65.6805,23.694 L55.1705,41.898 C54.7005,42.711,54.4845,43.517,54.4845,44.458 L54.4825,59.885 C54.4825,61.771,55.4205,63.39,57.0555,64.327 L68.3285,70.791 Z" fill="black" stroke="none" stroke-width="0" />
</g>
<text x="787.5" y="259.72222222222223" font-size="33.33333333333333" font-family="Arial" text-anchor="middle" fill="black">jerry can</text>
<text x="787.5" y="326.3888888888889" font-size="30.0" font-family="Courier New" text-anchor="middle" fill="black">"jerrycan"</text>
<g id="import" transform="translate(912.5, 12.5) scale(8.670018698195825)">
<path d="M11.5491,13.7254 C12.5412,13.7254,13.2854,12.9813,13.2854,11.9891 C13.2854,11.1623,11.9625,9.01254,11.7971,8.76436 C11.7144,8.59899,11.3837,8.59899,11.301,8.76436 C11.1356,9.0124,9.81273,11.1621,9.81273,11.9891 C9.81273,12.8986,10.5569,13.7254,11.5491,13.7254 Z M11.5491,9.42595 C12.0452,10.3355,12.7066,11.493,12.7066,11.9891 C12.7066,12.6506,12.2105,13.1466,11.5491,13.1466 C10.8876,13.1466,10.3915,12.6506,10.3915,11.9891 C10.3915,11.493,11.053,10.3355,11.5491,9.42595 Z" fill="black" stroke="none" stroke-width="0.264583" />
<path d="M11.5491,12.816 C12.0452,12.816,12.3759,12.4026,12.3759,11.9892 C12.3759,11.5758,11.5491,10.0875,11.5491,10.0875 C11.5491,10.0875,10.7222,11.5758,10.7222,11.9892 C10.7222,12.4026,11.053,12.816,11.5491,12.816 Z" fill="black" stroke="none" stroke-width="0.264583" />
<path d="M5.34775,19.6786 C5.67848,20.1746,6.17457,20.4227,6.75335,20.5054 L6.75335,21.4976 L6.50531,21.4976 C6.33994,21.4976,6.25726,21.6629,6.25726,21.7456 L6.25726,22.8205 C6.25726,22.9858,6.42262,23.0685,6.50531,23.0685 L16.5925,23.0685 C16.7579,23.0685,16.8406,22.9032,16.8406,22.8205 L16.8406,21.7456 C16.8406,21.5802,16.6752,21.4976,16.5925,21.4976 L16.3445,21.4976 L16.3445,20.4227 C16.9233,20.34,17.4194,20.092,17.7501,19.5959 L18.0808,19.1825 C18.9903,17.9422,19.3211,16.2884,19.1557,14.7176 L17.9155,5.62256 C17.7501,4.38233,16.6752,3.39014,15.435,3.39014 L14.5255,3.39014 L14.5255,2.39795 L15.1869,2.39795 C15.3523,2.39795,15.435,2.31527,15.435,2.14991 C15.435,1.98454,15.435,1.90186,15.2696,1.81918 L11.7142,0.00017 L11.3834,0.00017 L7.82796,1.81918 C7.74528,1.90186,7.66259,1.98454,7.66259,2.14991 C7.66259,2.31527,7.82796,2.39795,7.91064,2.39795 L8.5721,2.39795 L8.5721,3.47282 L7.66259,3.47282 C6.42236,3.47282,5.34749,4.46501,5.18212,5.70524 L3.94189,14.8003 C3.69384,16.3713,4.10725,17.9422,5.01676,19.2651 Z M16.3444,18.4383 C16.2617,18.1076,15.9309,17.8595,15.5175,17.8595 L15.3522,17.8595 C16.3444,16.7847,16.8405,15.2137,16.5924,13.5601 L16.0963,10.0046 C15.9309,8.92972,15.5175,7.93753,14.7734,7.19339 L14.4427,6.11852 L14.4427,5.2917 L15.3522,5.2917 C15.6829,5.2917,15.9309,5.53975,16.0136,5.95316 L17.2539,15.0482 C17.4192,16.1231,17.1712,17.2806,16.5097,18.1901 L16.427,18.3555 C16.3444,18.3555,16.3444,18.4382,16.3444,18.4382 Z M9.15087,6.3667 L13.9464,6.3667 L14.1118,7.02816 L8.98551,7.02816 Z M8.73746,7.60694 L14.4424,7.60694 C15.0212,8.26839,15.4346,9.1779,15.6,10.0874 L16.0961,13.6429 C16.3441,15.1312,15.848,16.6194,14.8558,17.6116 L14.6078,17.8597 L13.2022,17.8597 L13.2022,16.5368 C13.4502,16.4541,13.6983,16.206,13.6983,15.958 L13.6983,15.2965 C13.6983,14.9658,13.4502,14.6351,13.0368,14.6351 L11.7966,14.6351 L11.7966,14.2217 C11.7966,14.0563,11.6312,13.9736,11.5485,13.9736 C11.3832,13.9736,11.3005,14.139,11.3005,14.2217 L11.3005,14.6351 L10.0602,14.6351 C9.72952,14.6351,9.39879,14.8831,9.39879,15.2965 L9.39879,15.958 C9.39879,16.206,9.56415,16.4541,9.89488,16.5368 L9.89488,17.8597 L8.57197,17.8597 L8.32392,17.6116 C7.33173,16.6194,6.91832,15.1312,7.08368,13.6429 L7.57978,10.0874 C7.74514,9.1779,8.07587,8.26839,8.73733,7.60694 Z M10.0604,15.9577 L10.0604,15.9577 L9.9777,15.2136 C9.9777,15.2136,9.9777,15.1309,10.0604,15.1309 L13.1195,15.1309 C13.1195,15.1309,13.2022,15.1309,13.2022,15.2136 L13.2022,15.875 C13.2022,15.875,13.2022,15.9577,13.1195,15.9577 Z M10.4738,16.5365 L12.7062,16.5365 L12.7062,17.8594 L10.4738,17.8594 Z M8.65478,6.03571 L8.32405,7.11058 C7.66259,7.85472,7.1665,8.92959,7.00113,10.0046 L6.50504,13.5601 C6.25699,15.131,6.75309,16.702,7.74528,17.777 L7.57991,17.777 C7.1665,17.777,6.83577,18.025,6.75309,18.3558 L6.58772,18.1904 C6.00894,17.2809,5.67821,16.1233,5.84358,15.0485 L7.08382,5.95342 C7.1665,5.62269,7.41455,5.29196,7.74528,5.29196 L8.65478,5.29196 Z" fill="black" stroke="none" stroke-width="0.264583" />
</g>
<text x="1012.5" y="259.72222222222223" font-size="42.85714285714286" font-family="Arial" text-anchor="middle" fill="black">lantern</text>
<text x="1012.5" y="326.3888888888889" font-size="33.33333333333333" font-family="Courier New" text-anchor="middle" fill="black">"lantern"</text>
<g id="import" transform="translate(1137.5, 12.5) scale(2.4085937758829745)">
<path d="M57.051402,56.8017 C56.926402,59.0048,56.418592,60.8017,55.215502,62.0829 C54.106102,63.2626,52.426402,63.9774,50.039702,64.2587 C50.016264,63.1571,49.567042,62.1025,48.785802,61.3251 C47.985022,60.52041,46.895202,60.0712,45.758502,60.0712 H37.274102 C36.141302,60.0712,35.051402,60.52042,34.246802,61.3251 C33.465552,62.10635,33.016302,63.1649,32.996802,64.2743 C30.348402,63.98524,28.559302,63.1766,27.438202,61.8095 C26.227302,60.3329,25.817102,58.2626,25.813202,55.7236 C25.801484,50.2744,27.711602,42.8256,29.239002,34.1106 H53.657002 C54.028092,36.2317,57.239002,53.5286,57.051502,56.8016 Z M44.660402,55.6845 C44.785402,55.33684,44.851812,54.96184,44.851812,54.5712 C44.851812,54.12198,44.644782,53.3329,44.301032,52.4618 C43.640872,50.7782,42.539332,48.6766,42.539332,48.6766 C42.340112,48.29769,41.945582,48.05941,41.515932,48.05941 C41.086242,48.05941,40.695622,48.29769,40.496432,48.6766 C40.496432,48.6766,39.394832,50.7782,38.730832,52.4618 C38.390992,53.33289,38.180052,54.122,38.180052,54.5712 C38.180052,55.20011,38.355832,55.79,38.660522,56.29 C36.930022,55.38766,35.730822,53.6064,35.805022,51.5478 C35.828459,50.91108,35.332362,50.3759,34.695622,50.3525 C34.058902,50.329062,33.523722,50.82906,33.500322,51.4658 C33.344072,55.7353,36.949522,59.2275,41.223022,59.2275 C45.484722,59.2275,48.945722,55.7666,48.945722,51.5048 C48.945722,50.2939,48.348062,48.5517,47.457422,46.7314 C45.555122,42.8369,42.387122,38.4619,42.387122,38.4619 C42.105872,38.07518,41.617592,37.90331,41.156622,38.0244 C40.695682,38.14549,40.355842,38.54002,40.305062,39.01268 C39.996472,41.81738,37.711262,44.17288,35.984762,46.37988 C35.590232,46.87988,35.680072,47.60648,36.180072,47.99708 C36.683982,48.39161,37.410572,48.30177,37.801172,47.80177 C39.238672,45.96197,40.933972,43.98537,41.890972,41.80567 C42.930072,43.36817,44.351872,45.62987,45.383172,47.74317 C46.090202,49.18847,46.637072,50.54397,46.637072,51.50487 C46.637072,53.18847,45.867542,54.69237,44.660472,55.68457 Z M41.515902,51.829 C41.742462,52.31338,41.965122,52.82509,42.152622,53.3056 C42.363562,53.83294,42.547152,54.29779,42.547152,54.5712 C42.547152,55.13761,42.086212,55.5985,41.515952,55.5985 C40.949542,55.5985,40.488652,55.13756,40.488652,54.5712 C40.488652,54.29776,40.672242,53.83292,40.883182,53.3056 C41.066772,52.82513,41.293342,52.31341,41.515992,51.829 Z M35.301102,65.368 V64.3524 C35.301102,63.82896,35.508132,63.3251,35.879222,62.954 C36.250312,62.58681,36.750312,62.37588,37.273722,62.37588 H45.758122 C46.281562,62.37588,46.785422,62.58682,47.156522,62.954 C47.523712,63.32509,47.730742,63.829,47.730742,64.3524 V65.368 Z M28.082302,28.809 V13.461 C28.082302,6.0274,34.105702,0.0,41.543302,0.0 C48.976902,0.0,55.004302,6.0273,55.004302,13.461 V28.809 H55.578522 C56.230862,28.809,56.851922,29.06681,57.312922,29.52775 C57.773862,29.98869,58.031672,30.60975,58.031672,31.26215 V31.80121 H25.004672 V31.26215 C25.004672,30.60981,25.262482,29.98875,25.723422,29.52775 C26.180452,29.06681,26.805422,28.809,27.457822,28.809 Z M52.695302,28.809 V13.461 C52.695302,7.3008,47.703102,2.309,41.543302,2.309 C35.379202,2.309,30.387302,7.3012,30.387302,13.461 V28.809 Z M38.254302,21.7426 V20.0551 C38.254302,19.53166,38.461332,19.0278,38.832432,18.6606 C39.203522,18.28951,39.703522,18.08248,40.226932,18.08248 H42.805032 C43.332372,18.08248,43.832332,18.28951,44.203432,18.6606 C44.574522,19.02779,44.777652,19.53169,44.777652,20.0551 V21.7426 H47.359652 C49.351852,21.7426,50.965152,23.3559,50.965152,25.3442 V26.5004 H32.070152 V25.3442 C32.070152,23.3559,33.683452,21.7426,35.671752,21.7426 Z M55.836302,75.9696 H27.195302 V73.5048 C27.195302,70.286,29.804702,67.6767,33.023402,67.6767 H50.011402 C53.230202,67.6767,55.835602,70.2861,55.835602,73.5048 Z M58.117502,78.2782 C58.586252,78.2782,59.035472,78.4657,59.367502,78.79773 C59.699532,79.12976,59.887032,79.57898,59.887032,80.04773 V81.26653 C59.887032,81.73528,59.699532,82.18841,59.367502,82.52043 C59.035472,82.85246,58.586252,83.03605,58.117502,83.03605 H24.918502 C24.449752,83.03605,23.996622,82.85246,23.668502,82.52043 C23.332562,82.1884,23.148972,81.73527,23.148972,81.26653 V80.04773 C23.148972,79.57898,23.332562,79.12976,23.668502,78.79773 C23.996622,78.4657,24.449752,78.2782,24.918502,78.2782 Z" fill="black" stroke="none" stroke-width="0" />
</g>
<text x="1237.5" y="259.72222222222223" font-size="15.789473684210527" font-family="Arial" text-anchor="middle" fill="black">spelunker’s lantern</text>
<text x="1237.5" y="326.3888888888889" font-size="27.272727272727273" font-family="Courier New" text-anchor="middle" fill="black">"spelunker"</text>
<g id="import" transform="translate(12.5, 437.5) scale(10.876067214095384)">
<path d="M16.0075,8.53262 L2.38144,8.53262 C-0.793555,8.53262,-0.793555,13.1628,2.38144,13.1628 L2.57988,13.1628 L2.57988,16.4437 C2.57988,17.2242,3.14874,17.793,3.92926,17.793 L14.4597,17.793 C15.2402,17.793,15.8091,17.2242,15.8091,16.4437 L15.8091,13.1628 L16.0075,13.1628 C19.1825,13.1628,19.1825,8.53262,16.0075,8.53262 Z M2.38144,11.8399 C0.860091,11.8399,0.860091,9.85554,2.38144,9.85554 L2.57988,9.85554 L2.57988,11.8399 Z M16.0075,11.8399 L15.8091,11.8399 L15.8091,9.85554 L16.0075,9.85554 C17.5288,9.85554,17.5288,11.8399,16.0075,11.8399 Z M11.6683,0.59512 C10.2263,3.26741,13.1103,4.53741,11.6683,7.2097 L13.1103,7.2097 C14.5523,4.53741,11.6683,3.26741,13.1103,0.59512 Z M5.30509,0.59512 C3.84988,3.26741,6.74707,4.53741,5.30509,7.2097 L6.74707,7.2097 C8.18905,4.53741,5.30509,3.26741,6.74707,0.59512 Z M8.49332,0.59512 C7.05134,3.26741,9.9353,4.53741,8.49332,7.2097 L9.9353,7.2097 C11.3773,4.53741,8.49332,3.26741,9.9353,0.59512 Z" fill="black" stroke="none" stroke-width="0" />
</g>
<text x="112.5" y="684.7222222222222" font-size="42.85714285714286" font-family="Arial" text-anchor="middle" fill="black">cookpot</text>
<text x="112.5" y="751.3888888888888" font-size="33.33333333333333" font-family="Courier New" text-anchor="middle" fill="black">"cookpot"</text>
<g id="import" transform="translate(237.5, 437.5) scale(2.285740382338765)">
<path d="M60.608757,53.933818 C60.819655,54.617421,60.93682,55.344035,60.93682,56.097938 V56.101717 C60.93682,65.461113,53.35093,73.046738,43.991837,73.046738 H16.944823 C7.5854235,73.046738,-0.00017534612,65.46081,-0.00017534612,56.101717 V56.097938 C-0.00017534612,52.082341,3.253722,48.828432,7.2693227,48.828432 H53.667314 C54.554029,48.828432,55.409525,48.988684,56.194609,49.277667 C56.205947,49.273887,56.213507,49.266328,56.224845,49.258769 L82.786836,33.633748 C84.275138,32.75875,86.19306,33.258819,87.068058,34.743153 C87.943056,36.231456,87.442987,38.149377,85.958653,39.024375 Z M46.116725,40.367846 C47.335547,41.58663,47.335547,43.57092,46.116725,44.789742 C44.897941,46.008527,42.913651,46.008527,41.694829,44.789742 C37.874558,40.965541,38.050344,36.684243,39.483957,32.148734 C40.265185,29.691739,41.456643,27.148722,42.023043,24.617534 C42.425374,22.836318,42.49178,21.047241,41.327724,19.344148 C40.351169,17.922252,40.714458,15.976929,42.140247,15.000337 C43.562143,14.023783,45.507428,14.387071,46.48402,15.812822 C49.964549,20.894851,48.25745,26.351846,46.296555,31.617824 C45.726262,33.149024,45.163755,34.653049,44.91767,36.117843 C44.663686,37.621717,44.816001,39.070939,46.116876,40.367846 Z M30.694741,40.367846 C31.913525,41.58663,31.913525,43.57092,30.694741,44.789742 C29.472026,46.008527,27.491629,46.008527,26.272845,44.789742 C22.45254,40.965541,22.62444,36.684243,24.061942,32.148734 C24.839281,29.691739,26.034659,27.148722,26.601059,24.617534 C26.999497,22.836318,27.069796,21.047241,25.905739,19.344148 C24.92917,17.922252,25.292435,15.976929,26.714331,15.000337 C28.14012,14.023783,30.085405,14.387071,31.058105,15.812822 C34.542527,20.894851,32.835428,26.351846,30.87442,31.617824 C30.304127,33.149024,29.74162,34.653049,29.491604,36.117843 C29.241777,37.621717,29.394092,39.070939,30.694703,40.367846 Z M15.370741,40.367846 C16.58954,41.58663,16.58954,43.57092,15.370741,44.789742 C14.151941,46.008527,12.171541,46.008527,10.952741,44.789742 C7.1324396,40.965541,7.30434,36.684243,8.7418418,32.148734 C9.523089,29.691739,10.71064,27.148722,11.28094,24.617534 C11.679382,22.836318,11.749692,21.047241,10.585632,19.344148 C9.6090695,17.922252,9.9723502,15.976929,11.398132,15.000337 C12.820032,14.023783,14.765332,14.387071,15.741932,15.812822 C19.222431,20.894851,17.511431,26.351846,15.55443,31.617824 C14.98021,33.149024,14.417733,34.653049,14.171633,36.117843 C13.921617,37.621717,14.070077,39.070939,15.370831,40.367846 Z" fill="black" stroke="none" stroke-width="0.999999" />
</g>
<text x="337.5" y="684.7222222222222" font-size="42.85714285714286" font-family="Arial" text-anchor="middle" fill="black">skillet</text>
<text x="337.5" y="751.3888888888888" font-size="33.33333333333333" font-family="Courier New" text-anchor="middle" fill="black">"skillet"</text>
<g id="import" transform="translate(462.5, 437.5) scale(2.0835070240282634)">
<path d="M55.996,18.0 L27.996,18.0 L27.996,4.0 C27.996,1.7891,29.7851,-2e-06,31.996,-2e-06 L51.996,-2e-06 C54.2069,-2e-06,55.996,1.7891,55.996,4.0 Z M23.996,91.992 C23.996,94.2029,25.7851,95.992,27.996,95.992 L55.996,95.992 C58.2069,95.992,59.996,94.2029,59.996,91.992 L59.996,85.992 L23.996,85.992 Z M63.996,26.199 L63.996,30.3631 C66.3202,31.1912,67.996,33.3904,67.996,35.9959 L67.996,81.9919 C67.996,84.5974,66.3202,86.7966,63.996,87.6247 L63.996,91.7888 C68.5546,90.8591,71.996,86.82,71.996,81.9919 L71.996,35.9959 C71.996,31.1678,68.5546,27.1287,63.996,26.199 Z M23.996,81.992 L59.996,81.992 L59.996,35.996 L23.996,35.996 Z M55.996,21.996 L27.996,21.996 C25.7851,21.996,23.996,23.7851,23.996,25.996 L23.996,31.996 L59.996,31.996 L59.996,25.996 C59.996,23.789,58.2069,21.996,55.996,21.996 Z" fill="black" stroke="none" stroke-width="0" />
</g>
<text x="562.5" y="684.7222222222222" font-size="20.0" font-family="Arial" text-anchor="middle" fill="black">insulated flask</text>
<text x="562.5" y="751.3888888888888" font-size="33.33333333333333" font-family="Courier New" text-anchor="middle" fill="black">"thermos"</text>
<g id="import" transform="translate(12.5, 862.5) scale(2.4049444792713808)">
<path d="M51.187698,22.125665 C51.187698,27.777965,46.605698,32.359665,40.953698,32.359665 H0.76569758 C0.34381758,32.359665,7.7577412e-05,32.015915,7.7577412e-05,31.594045 V12.656045 C7.7577412e-05,12.234165,0.34382758,11.890425,0.76569758,11.890425 H40.953698 C43.668498,11.890425,46.273998,12.968525,48.191998,14.886525 C50.109998,16.808425,51.188098,19.409925,51.188098,22.124825 Z" fill="black" stroke="none" stroke-width="0" />
<path d="M64.109698,21.219665 C63.937818,21.657165,63.844078,21.922785,63.687818,22.344665 C63.211258,23.610265,61.844018,24.297765,60.547218,23.922765 C59.672218,23.672765,58.812818,23.422765,57.953418,23.172765 C57.719038,23.829015,57.500298,24.469665,57.265918,25.125865 C56.187818,24.907115,55.148718,24.539925,54.172118,24.032065 C54.265868,23.403155,54.312738,22.766465,54.312738,22.125865 C54.312738,21.782115,54.297113,21.453985,54.281488,21.125865 V21.11024 C54.390868,20.82899,54.500238,20.53212,54.609608,20.23524 C55.008048,19.11804,55.336168,17.97354,55.593988,16.81334 C55.715078,16.32506,56.054928,15.9149,56.511958,15.70004 C56.968988,15.4852,57.496338,15.4852,57.953358,15.703946 C59.562758,16.453946,61.172158,17.219546,62.781458,17.969546 C64.000258,18.543766,64.578358,19.957846,64.109558,21.219546 Z" fill="black" stroke="none" stroke-width="0" />
<path d="M78.562698,42.422665 C75.339998,36.746865,70.586098,32.090665,64.843698,28.984665 C63.984318,28.515915,63.003898,28.316695,62.031198,28.422165 C60.089798,28.664355,58.120998,28.558885,56.218698,28.109665 C55.230418,27.871385,54.265598,27.539355,53.343698,27.109665 C53.187448,27.512005,53.003858,27.902635,52.796818,28.281565 C50.507718,32.711265,45.937418,35.488565,40.952818,35.484665 H13.608818 V38.500265 C13.604912,38.707295,13.686943,38.910425,13.835378,39.054955 C13.983818,39.203395,14.183038,39.285425,14.390068,39.281515 C20.749468,39.26589,27.437068,39.094015,28.328068,40.765915 C29.343668,42.719015,27.343688,44.781515,28.484318,48.203415 C29.539018,50.789315,31.554618,52.859615,34.109318,53.984615 C39.906218,56.656515,48.562318,54.797115,50.734318,53.672115 C56.203118,50.875215,54.312418,46.687715,57.578118,46.547115 C62.171918,46.359615,67.687118,51.422115,68.156118,56.469015 C68.562368,60.828415,65.031118,63.187815,66.499918,67.219015 C69.187418,74.578415,77.515918,70.797115,81.218918,64.734615 C86.312718,56.390815,79.937718,44.875615,78.562718,42.422615 Z M50.078698,45.055465 C50.078698,47.496865,48.102098,49.477365,45.656798,49.477365 H38.094298 C35.652898,49.477365,33.672398,47.496865,33.672398,45.055465 V45.043747 C33.672398,42.602347,35.652898,40.621847,38.094298,40.621847 H43.609898 C43.609898,40.739037,43.629429,40.856227,43.656773,40.969507 C44.219273,42.184307,43.859893,43.625707,42.789583,44.434307 C42.508333,44.738997,42.355993,45.141337,42.371613,45.559307 C42.387238,45.973367,42.566923,46.363997,42.871613,46.645207 C43.176303,46.926457,43.582553,47.078797,43.996613,47.059267 C44.410673,47.043643,44.801303,46.863957,45.082513,46.559267 C46.684113,45.113967,47.367713,42.906967,46.859813,40.809267 C48.762113,41.340517,50.074613,43.070967,50.078613,45.043667 Z M68.273698,43.746865 H68.277608 C67.644798,43.746865,67.074508,43.367955,66.832308,42.785925 C66.590118,42.199985,66.722928,41.528125,67.172148,41.082825 C67.617458,40.633605,68.289348,40.500795,68.875248,40.742985 C69.457278,40.985175,69.840088,41.555485,69.840088,42.184385 C69.840088,43.047665,69.140868,43.746885,68.277588,43.746885 Z M74.035398,64.223865 H74.039308 C73.406498,64.223865,72.836208,63.844955,72.594008,63.259025 C72.351818,62.676995,72.484628,62.005125,72.933848,61.555925 C73.379158,61.110615,74.051048,60.977805,74.636948,61.219985 C75.218978,61.462175,75.601788,62.028575,75.601788,62.661385 C75.601788,63.524665,74.902568,64.223885,74.039288,64.223885 Z" fill="black" stroke="none" stroke-width="0" />
</g>
<text x="112.5" y="1109.7222222222222" font-size="20.0" font-family="Arial" text-anchor="middle" fill="black">distress pistol</text>
<text x="112.5" y="1176.388888888889" font-size="30.0" font-family="Courier New" text-anchor="middle" fill="black">"distress"</text>
<g id="import" transform="translate(237.5, 862.5) scale(2.1366151057641036)">
<path d="M70.142169,10.936018 C71.321869,11.635238,73.220269,12.775818,73.763269,14.033718 L73.755456,14.037624 C73.935146,14.451684,74.024986,14.900904,74.024986,15.369624 H74.032799 C74.032799,15.830564,73.939049,16.275874,73.755459,16.701624 L73.763272,16.70553 C72.931242,18.63913,68.173472,20.95163,66.591372,21.61573 C54.501372,26.70553,34.974372,26.61963,23.474372,19.80323 C22.294672,19.10401,20.396272,17.96343,19.853272,16.70553 L19.861085,16.701624 C19.489995,15.842244,19.489995,14.896924,19.861085,14.037524 L19.853272,14.033618 C20.685302,12.100018,25.447072,9.787518,27.025172,9.123418 C39.111172,4.029618,58.646172,4.119518,70.142172,10.935918 Z M69.907789,15.369618 C59.384789,7.385218,34.231789,7.381318,23.708789,15.369618 C34.231789,23.354018,59.384789,23.354018,69.907789,15.369618 Z M80.579789,15.38915 C80.634476,11.43995,76.970389,7.65865,71.212589,4.86915 C57.806589,-1.62305,35.806589,-1.62305,22.400589,4.86915 C1.1815895,15.14215,18.849789,30.73215,46.806589,30.73215 C56.376889,30.73215,65.001589,28.87275,71.212589,25.86495 C76.989889,23.06805,80.568089,19.35325,80.579789,15.38795 Z M80.579789,23.95945 C67.036789,38.07645,26.579789,38.07645,13.032789,23.95945 V78.24045 C13.032789,82.21315,16.610889,85.93575,22.399989,88.73645 C35.805989,95.22865,57.805989,95.22865,71.211989,88.73645 C76.997189,85.93565,80.579189,82.21305,80.579189,78.24045 Z" fill="black" stroke="none" stroke-width="0" />
</g>
<text x="337.5" y="1109.7222222222222" font-size="15.0" font-family="Arial" text-anchor="middle" fill="black">distress pistol ammo</text>
<text x="337.5" y="1176.388888888889" font-size="37.5" font-family="Courier New" text-anchor="middle" fill="black">"dpammo"</text>
<g id="import" transform="translate(462.5, 862.5) scale(1.6666666666666667)">
<path d="M43.234375,2.9355469 A5.0,5.0,0.0,0,0,39.496094,3.7558594 A5.0,5.0,0.0,0,0,38.251953,10.714844 L110.89648,115.0 A5.0,5.0,0.0,0,0,117.85742,116.24414 A5.0,5.0,0.0,0,0,119.10352,109.28516 L46.457031,5.0 A5.0,5.0,0.0,0,0,43.234375,2.9355469 Z" fill="black" stroke="none" stroke-width="0" />
<path d="M42.354729,7.8577655 L115.0,112.14224" fill="black" stroke="none" stroke-width="0" />
<path d="M60.0,41.023437 A2.5,2.5,0.0,0,0,57.5,43.523437 V63.402344 A2.5,2.5,0.0,0,0,60.0,65.902344 A2.5,2.5,0.0,0,0,62.5,63.402344 V43.523437 A2.5,2.5,0.0,0,0,60.0,41.023437 Z" fill="black" stroke="none" stroke-width="0" />
<path d="M60.0,43.5238 V63.4024" fill="black" stroke="none" stroke-width="0" />
<path d="M60.0,61.005859 C51.723254,61.005859,45.011719,67.889925,45.011719,76.255859 C45.011719,84.621794,51.723254,91.505859,60.0,91.505859 C68.276746,91.505859,74.988281,84.621794,74.988281,76.255859 C74.988281,67.889925,68.276746,61.005859,60.0,61.005859 Z M60.0,65.916016 C65.568638,65.916016,70.080078,70.48901,70.080078,76.255859 C70.080078,82.022708,65.568638,86.595703,60.0,86.595703 C54.431362,86.595703,49.919922,82.022708,49.919922,76.255859 C49.919922,70.48901,54.431362,65.916016,60.0,65.916016 Z" fill="black" stroke="none" stroke-width="0" />
<path d="M76.765625,2.9355469 A5.0,5.0,0.0,0,0,73.542969,5.0 L0.89648438,109.28516 A5.0,5.0,0.0,0,0,2.1425781,116.24414 A5.0,5.0,0.0,0,0,9.1035156,115.0 L81.748047,10.714844 A5.0,5.0,0.0,0,0,80.503906,3.7558594 A5.0,5.0,0.0,0,0,76.765625,2.9355469 Z" fill="black" stroke="none" stroke-width="0" />
<path d="M77.645271,7.8577645 L5.0,112.14224" fill="black" stroke="none" stroke-width="0" />
</g>
<text x="562.5" y="1109.7222222222222" font-size="60.0" font-family="Arial" text-anchor="middle" fill="black">snare</text>
<text x="562.5" y="1176.388888888889" font-size="42.85714285714286" font-family="Courier New" text-anchor="middle" fill="black">"snare"</text>
<g id="import" transform="translate(687.5, 862.5) scale(1.6666666666666667)">
<path d="M108.70313,72.234375 L11.265625,72.527344 A5.0,5.0,0.0,0,0,6.28125,77.542969 A5.0,5.0,0.0,0,0,11.296875,82.527344 L108.73438,82.234375 A5.0,5.0,0.0,0,0,113.71875,77.21875 A5.0,5.0,0.0,0,0,108.70313,72.234375 Z" fill="black" stroke="none" stroke-width="0" />
<path d="M11.281383,77.528138 L108.71862,77.233768" fill="black" stroke="none" stroke-width="0" />
<path d="M58.283203,16.580078 A5.0005,5.0005,0.0,0,0,53.171875,16.894531 L32.148437,31.257812 A5.0005,5.0005,0.0,0,0,33.443359,40.148437 L54.884766,47.015625 A5.0005,5.0005,0.0,0,0,61.408203,42.15625 L60.992187,20.925781 A5.0005,5.0005,0.0,0,0,58.283203,16.580078 Z M51.175781,30.371094 L51.273437,35.359375 L46.234375,33.746094 Z" fill="black" stroke="none" stroke-width="0" />
<path d="M55.993061,21.023417 L34.969644,35.38595 L56.409367,42.254987 Z" fill="black" stroke="none" stroke-width="0" />
<path d="M59.837891,6.28125 A5.0,5.0,0.0,0,0,54.853516,11.296875 L55.146484,108.73438 A5.0,5.0,0.0,0,0,60.162109,113.71875 A5.0,5.0,0.0,0,0,65.146484,108.70313 L64.853516,11.265625 A5.0,5.0,0.0,0,0,59.837891,6.28125 Z" fill="black" stroke="none" stroke-width="0" />
<path d="M60.147187,108.71862 L59.852814,11.281385" fill="black" stroke="none" stroke-width="0" />
</g>
<text x="787.5" y="1109.7222222222222" font-size="21.42857142857143" font-family="Arial" text-anchor="middle" fill="black">fishing tip-up</text>
<text x="787.5" y="1176.388888888889" font-size="42.85714285714286" font-family="Courier New" text-anchor="middle" fill="black">"tipup"</text>
<g id="import" transform="translate(12.5, 1287.5) scale(8.340978883102057)">
<path d="M23.56351,3.1000135 L21.11199,1.2469035 C19.81077,0.26193353,18.17061,-0.16592647,16.55322,0.05833353 C14.93574,0.28261353,13.4732,1.1394035,12.48842,2.4416535 L0.26599537,18.595784 C-0.58252263,19.717174,0.75589837,21.276814,2.0746614,20.380694 L3.6073924,22.341304 C5.3240884,24.538594,8.6561704,24.511714,10.33866,22.289604 L10.76344,21.728394 H10.76244 C11.28645,21.035924,11.51487,20.163624,11.39599,19.302694 C11.27713,18.442804,10.82031,17.664554,10.12784,17.139514 L6.1643824,14.142314 L14.03256,3.7410135 C14.71159,2.8428835,15.71928,2.2506735,16.83556,2.0956235 C17.95072,1.9405935,19.08142,2.2351535,19.9796,2.9141935 L22.36498,4.7197635 H22.36598 C22.58405,4.8851235,22.86001,4.9543735,23.13078,4.9119935 C23.40053,4.8685935,23.64238,4.7187235,23.79947,4.4944535 C24.11366,4.0500335,23.9979,3.4309635,23.56382,3.1002335 Z M6.3097674,16.779764 L8.4140204,18.371394 C10.53275,19.975434,7.5872004,23.154534,5.6978124,21.286044 L4.0772394,19.357474 C2.7780824,17.714174,4.6312244,15.508574,6.3096614,16.779844 Z" fill="black" stroke="none" stroke-width="0.264583" />
<path d="M13.27995,18.401394 L12.25159,19.760484 C12.25259,18.884054,11.9746,18.030344,11.45784,17.323434 L11.60254,17.131194 C12.4459,16.017064,14.1233,17.285194,13.27994,18.401404 Z" fill="black" stroke="none" stroke-width="0.264583" />
<path d="M22.65599,5.7262635 C22.57229,5.8905935,22.45342,6.0342735,22.30872,6.1479635 L21.62454,6.6822835 L21.29587,7.4863835 C21.21217,7.6910235,21.07573,7.8708535,20.90106,8.0072935 L20.21688,8.5416235 L19.88821,9.3457135 V9.3447135 C19.80451,9.5503835,19.6691,9.7302135,19.4934,9.8676935 L18.80921,10.400984 L18.48055,11.205074 C18.39685,11.410754,18.26041,11.590574,18.08574,11.728054 L17.40155,12.262384 L17.07288,13.065444 C16.98918,13.271114,16.85378,13.450944,16.67807,13.587384 L15.99595,14.120684 L15.66729,14.924774 C15.58359,15.129414,15.44714,15.309244,15.27247,15.446724 L14.58829,15.981044 C14.23483,16.847134,14.23896,16.855414,14.15731,16.983574 L14.15831,16.982574 C13.85343,16.357284,13.24365,15.937684,12.55015,15.877734 L20.99194,4.7197235 L21.86631,5.3811835 V5.3821835 C22.09886,5.5578835,22.36963,5.6757135,22.65593,5.7263535 Z" fill="black" stroke="none" stroke-width="0.264583" />
</g>
<text x="112.5" y="1534.7222222222222" font-size="42.85714285714286" font-family="Arial" text-anchor="middle" fill="black">hacksaw</text>
<text x="112.5" y="1601.388888888889" font-size="33.33333333333333" font-family="Courier New" text-anchor="middle" fill="black">"hacksaw"</text>
<g id="import" transform="translate(237.5, 1287.5) scale(8.340978883102057)">
<path d="M13.8086,14.8829 L10.1684,14.8829 L9.96793,21.9005 C9.95243,22.4462,10.1581,22.9743,10.5384,23.366 C10.9188,23.7567,11.4407,23.9779,11.9864,23.9779 L11.9894,23.9779 C12.5351,23.9779,13.0571,23.7567,13.4374,23.366 C13.8177,22.9753,14.0234,22.4462,14.0079,21.9005 L13.8074,14.8829 Z M13.7859,14.0561 L10.1923,14.0561 L10.2398,12.4025 L13.7394,12.4025 L13.787,14.0561 Z M10.3122,9.84976 L10.2636,11.5757 L13.7145,11.5757 L13.6659,9.85182 C12.5476,9.94072,11.4304,9.93972,10.312,9.84982 Z M18.1896,2.48059 C18.1896,2.29662,18.0687,2.13538,17.894,2.08371 C13.9573,0.921,10.0205,0.91997,6.0838,2.08471 C5.9081,2.13641,5.7882,2.29762,5.7882,2.48056 L5.7882,8.26832 C5.7882,8.45332,5.91119,8.61558,6.08896,8.66622 C10.0225,9.77932,13.9561,9.78657,17.8899,8.66622 C18.0677,8.61562,18.1896,8.45332,18.1896,8.26832 Z M10.3905,0.86104 C11.455,0.77734,12.5216,0.77734,13.5872,0.86104 C13.5293,0.67294,13.4259,0.50034,13.2833,0.35876 C13.0539,0.12932,12.7428,0.00012,12.4183,0.00012 L11.5584,0.00012 C11.2338,0.00012,10.9228,0.12931,10.6933,0.35876 C10.5507,0.50035,10.4473,0.67295,10.3895,0.86104 Z" fill="black" stroke="none" stroke-width="0.264583" />
</g>
<text x="337.5" y="1534.7222222222222" font-size="25.0" font-family="Arial" text-anchor="middle" fill="black">heavy hammer</text>
<text x="337.5" y="1601.388888888889" font-size="37.5" font-family="Courier New" text-anchor="middle" fill="black">"hammer"</text>
<g id="import" transform="translate(462.5, 1287.5) scale(2.000019980199602)">
<path d="M99.999,42.2817 C99.999,42.2817,99.988,27.9457,99.999,25.3247 C100.052,12.6067,89.03,10.0627,82.246,16.8457 L22.045,74.5037 C18.403,78.0897,11.023,84.6787,0.0,85.5257 C0.0,85.5257,15.82,90.9317,27.133,79.5897 L86.487,22.7797 C89.878,19.3887,93.342,21.4847,93.27,25.3237 L93.27,42.2817 L96.661,38.8897 Z" fill="black" stroke="none" stroke-width="0" />
</g>
<text x="562.5" y="1534.7222222222222" font-size="50.0" font-family="Arial" text-anchor="middle" fill="black">prybar</text>
<text x="562.5" y="1601.388888888889" font-size="37.5" font-family="Courier New" text-anchor="middle" fill="black">"prybar"</text>
<g id="import" transform="translate(687.5, 1287.5) scale(3.530450007751103)">
<path d="M56.312501,11.968751 L44.692501,0.34875076 C44.242501,-0.10124924,43.492501,-0.10124924,43.032501,0.34875076 L41.252501,2.1287508 L45.982501,6.8587508 L42.742501,11.718751 C42.692501,11.788751,42.702501,11.878751,42.762501,11.938751 L44.722501,13.898751 C44.782501,13.958751,44.872501,13.968751,44.942501,13.918751 L49.802501,10.678751 L54.532501,15.408751 L56.312501,13.628751 C56.762501,13.168751,56.762501,12.418751,56.312501,11.968751 Z" fill="black" stroke="none" stroke-width="0" />
<path d="M5.9325008,43.618751 L2.2125008,49.308751 C1.8325008,49.778751,1.8625008,50.458751,2.2925008,50.878751 L3.3225008,51.908751 C3.3225008,51.908751,3.3225008,51.908751,3.3225008,51.908751 L0.29250076,54.938751 C-0.09749924,55.328751,-0.09749924,55.958751,0.29250076,56.348751 C0.49250076,56.548751,0.74250076,56.638751,1.0025008,56.638751 C1.2625008,56.638751,1.5125008,56.538751,1.7125008,56.348751 L4.7425008,53.318751 C4.7425008,53.318751,4.7425008,53.318751,4.7425008,53.318751 L5.7725008,54.348751 C6.2025008,54.778751,6.8825008,54.808751,7.3425008,54.428751 L13.042501,50.708751 C11.702501,49.668751,10.442501,48.568751,9.2625008,47.388751 C8.0825008,46.208751,6.9725008,44.938751,5.9425008,43.608751 Z" fill="black" stroke="none" stroke-width="0" />
<path d="M46.052501,15.588751 C45.502501,15.948751,44.832501,16.038751,44.232501,15.858751 C43.892501,15.758751,43.572501,15.568751,43.302501,15.308751 L41.352501,13.358751 C41.092501,13.098751,40.902501,12.778751,40.802501,12.438751 C40.622501,11.828751,40.712501,11.158751,41.072501,10.608751 L43.402501,7.1187508 L39.832501,3.5487508 L5.5225008,37.868751 C5.1425008,38.248751,5.0625008,38.848751,5.3425008,39.318751 C7.1625008,42.198751,9.0825008,44.398751,10.672501,45.988751 C13.032501,48.348751,15.372501,50.068751,17.332501,51.308751 C17.802501,51.588751,18.402501,51.528751,18.792501,51.138751 L53.112501,16.828751 L49.542501,13.258751 Z M21.342501,43.378751 C21.142501,43.578751,20.892501,43.668751,20.632501,43.668751 C20.372501,43.668751,20.122501,43.568751,19.922501,43.378751 L13.282501,36.738751 C12.892501,36.348751,12.892501,35.718751,13.282501,35.328751 C13.672501,34.938751,14.302501,34.938751,14.692501,35.328751 L21.332501,41.968751 C21.722501,42.358751,21.722501,42.988751,21.332501,43.378751 Z M27.982501,36.738751 C27.782501,36.938751,27.532501,37.028751,27.272501,37.028751 C27.012501,37.028751,26.762501,36.928751,26.562501,36.738751 L19.922501,30.098751 C19.532501,29.708751,19.532501,29.078751,19.922501,28.688751 C20.312501,28.298751,20.942501,28.298751,21.332501,28.688751 L27.972501,35.328751 C28.362501,35.718751,28.362501,36.348751,27.972501,36.738751 Z M34.622501,30.098751 C34.422501,30.298751,34.172501,30.388751,33.912501,30.388751 C33.652501,30.388751,33.402501,30.288751,33.202501,30.098751 L26.562501,23.458751 C26.172501,23.068751,26.172501,22.438751,26.562501,22.048751 C26.952501,21.658751,27.582501,21.658751,27.972501,22.048751 L34.612501,28.688751 C35.002501,29.078751,35.002501,29.708751,34.612501,30.098751 Z M41.262501,23.458751 C41.062501,23.658751,40.812501,23.748751,40.552501,23.748751 C40.292501,23.748751,40.042501,23.648751,39.842501,23.458751 L33.202501,16.818751 C32.812501,16.428751,32.812501,15.798751,33.202501,15.408751 C33.592501,15.018751,34.222501,15.018751,34.612501,15.408751 L41.252501,22.048751 C41.642501,22.438751,41.642501,23.068751,41.252501,23.458751 Z" fill="black" stroke="none" stroke-width="0" />
</g>
<text x="787.5" y="1534.7222222222222" font-size="21.42857142857143" font-family="Arial" text-anchor="middle" fill="black">emergency stim</text>
<text x="787.5" y="1601.388888888889" font-size="50.0" font-family="Courier New" text-anchor="middle" fill="black">"stim"</text>
<g id="import" transform="translate(912.5, 1287.5) scale(3.7173340662924823)">
<path d="M15.9712,19.2825 C10.8712,19.2825,6.5712,24.1825,6.5712,29.8825 C6.5712,35.5825,10.8712,40.4825,15.9712,40.4825 C20.9712,40.4825,24.9712,35.6825,24.9712,29.8825 C24.9712,24.0825,20.9712,19.2825,15.9712,19.2825 Z M15.9712,37.5825 C12.1712,37.5825,8.9712,33.9825,8.9712,29.8825 C8.9712,25.7825,12.2712,22.1825,15.9712,22.1825 C19.5712,22.1825,22.5712,25.5825,22.5712,29.8825 C22.5712,34.1825,19.5712,37.5825,15.9712,37.5825 Z" fill="black" stroke="none" stroke-width="0" />
<path d="M15.9712,22.9825 C12.6712,22.9825,9.6712,26.1825,9.6712,29.8825 C9.6712,33.5825,12.5712,36.7825,15.9712,36.7825 C19.1712,36.7825,21.7712,33.6825,21.7712,29.8825 C21.7712,26.0825,19.1712,22.9825,15.9712,22.9825 Z M15.6712,34.3825 C13.5712,34.3825,11.7712,32.3825,11.7712,29.8825 C11.7712,27.3825,13.4712,25.3825,15.6712,25.3825 C17.7712,25.3825,19.5712,27.3825,19.5712,29.8825 C19.5712,32.3825,17.7712,34.3825,15.6712,34.3825 Z" fill="black" stroke="none" stroke-width="0" />
<path d="M15.9712,15.8825 C9.2712,15.8825,3.6712,22.2825,3.6712,29.8825 C3.6712,37.4825,9.2712,43.8825,15.9712,43.8825 C22.4712,43.8825,28.0712,37.5825,28.0712,29.8825 C28.0712,22.1825,22.4712,15.8825,15.9712,15.8825 Z M15.9712,41.3825 C10.4712,41.3825,5.7712,36.1825,5.7712,29.9825 C5.7712,23.7825,10.4712,18.5825,15.9712,18.5825 C21.3712,18.5825,25.7712,23.6825,25.7712,29.9825 C25.7712,36.2825,21.3712,41.3825,15.9712,41.3825 Z" fill="black" stroke="none" stroke-width="0" />
<path d="M41.6712,6.3825 C36.2712,6.1825,32.8712,9.1825,32.8712,9.1825 C28.5712,8.1825,25.2712,10.5825,25.2712,10.5825 C8.0712,10.1825,4.6712,17.2825,3.6712,18.5825 C-5.0288,31.3825,2.8712,46.6825,15.4712,47.3825 C26.9712,48.0825,35.1712,40.6825,36.1712,39.7825 C36.2712,39.6825,36.3712,39.6825,36.4712,39.6825 C42.7712,39.5825,45.0712,35.2825,45.5712,34.1825 C45.6712,34.0825,45.7712,33.9825,45.9712,33.9825 C50.6712,34.2825,52.7712,28.7825,52.7712,28.7825 C55.9712,20.5825,51.5712,7.8825,41.6712,6.3825 Z M15.9712,44.6825 C8.8712,44.6825,2.8712,37.8825,2.8712,29.8825 C2.8712,21.8825,8.8712,15.0825,15.9712,15.0825 C22.9712,15.0825,28.8712,21.6825,28.8712,29.8825 C28.8712,38.0825,22.9712,44.6825,15.9712,44.6825 Z M36.0712,36.4825 L36.0712,36.4825 C35.8712,36.3825,35.7712,36.1825,35.8712,35.9825 C38.0712,30.7825,38.3712,26.1825,36.6712,22.0825 C34.2712,16.3825,28.7712,13.5825,27.2712,12.9825 C27.0712,12.8825,26.9712,12.6825,27.0712,12.4825 L27.0712,12.4825 C27.1712,12.2825,27.3712,12.1825,27.5712,12.2825 C29.0712,12.9825,34.8712,15.7825,37.3712,21.7825 C39.1712,26.0825,38.8712,30.8825,36.5712,36.2825 C36.4712,36.4825,36.2712,36.5825,36.0712,36.4825 Z M44.3712,31.7825 L44.3712,31.7825 C44.1712,31.6825,44.0712,31.4825,44.1712,31.2825 C46.2712,25.0825,45.3712,19.7825,41.4712,15.4825 C38.9712,12.7825,36.0712,11.3825,35.0712,10.9825 C34.8712,10.8825,34.7712,10.6825,34.8712,10.4825 L34.8712,10.4825 C34.9712,10.2825,35.1712,10.1825,35.3712,10.2825 C36.4712,10.6825,39.4712,12.1825,42.0712,14.9825 C44.9712,18.0825,47.7712,23.4825,44.9712,31.5825 C44.7712,31.7825,44.5712,31.8825,44.3712,31.7825 Z" fill="black" stroke="none" stroke-width="0" />
</g>
<text x="1012.5" y="1534.7222222222222" font-size="23.076923076923077" font-family="Arial" text-anchor="middle" fill="black">cloth bedroll</text>
<text x="1012.5" y="1601.388888888889" font-size="33.33333333333333" font-family="Courier New" text-anchor="middle" fill="black">"bedroll"</text>
<g id="import" transform="translate(1137.5, 1287.5) scale(2.1739130434782608)">
<path d="M44.9106,20.8 C46.3106,21.6,47.6106,22.6,48.7106,23.5 L49.4106,24.1 C53.8106,27.5,59.3106,33.9,62.5106,37.8 C62.8106,37.3,63.3106,36.9,63.9106,36.8 L67.4106,36.5 C68.1106,36.4,68.7106,36.8,69.0106,37.3 C70.0106,34.5,71.2106,31.3,72.3106,29.2 C72.0106,26.5,71.8106,24.0,71.6106,21.8 C70.2106,6.2,64.0106,0.0,54.5106,0.0 L44.5106,0.0 C36.3106,0.0,29.5106,5.7,27.9106,13.3 C31.5106,14.7,39.2106,17.7,44.9106,20.8 Z" fill="black" stroke="none" stroke-width="0" />
<path d="M78.4106,68.8 C78.3106,67.8,77.4106,67.1,76.5106,67.2 L75.9106,67.3 C75.3106,60.8,74.4106,51.0,73.5106,41.6 L74.3106,41.5 C75.3106,41.4,76.0106,40.5,75.9106,39.6 L75.3106,32.5 C75.2106,31.5,74.3106,30.8,73.4106,30.9 L72.5106,30.9 C71.5106,33.0,70.4106,35.9,69.3106,38.9 L69.9106,45.2 C70.0106,46.2,69.3106,47.1,68.3106,47.1 L64.8106,47.4 C63.8106,47.5,62.9106,46.8,62.9106,45.8 L62.3106,39.1 C59.2106,35.3,53.4106,28.4,48.8106,24.8 C48.6106,24.6,48.3106,24.4,48.1106,24.2 C47.0106,23.3,45.8106,22.4,44.4106,21.6 C43.6106,21.2,42.9106,20.8,42.0106,20.4 C43.0106,25.9,47.4106,50.9,45.9106,76.9 C45.7106,79.9,43.9106,82.5,41.1106,83.7 C39.9106,84.2,38.6106,84.5,37.2106,84.5 C34.3106,84.5,31.1106,83.4,28.2106,81.2 C28.2106,81.2,24.1106,79.9,23.2106,74.0 C21.7106,64.4,17.0106,26.1,19.2106,21.7 C20.6106,19.3,24.5106,19.6,27.5106,20.1 L27.5106,75.0 C27.5106,77.0,27.9106,79.3,27.9106,79.3 C32.9106,83.5,37.7106,83.8,40.6106,82.5 C43.0106,81.5,44.4106,79.4,44.5106,76.9 C46.1106,48.6,40.8106,21.5,40.4106,19.7 C35.6106,17.4,30.5106,15.4,27.6106,14.3 C22.5106,14.3,17.7106,13.1,14.3106,19.0 C10.2106,26.0,16.8106,71.1,17.7106,75.2 C19.9106,85.0,25.9106,87.1,31.5106,87.8 C33.7106,90.2,36.8106,91.6,41.0106,91.6 L62.3106,92.0 C70.5106,92.0,75.2106,86.2,76.3106,77.9 L77.4106,77.8 C78.4106,77.7,79.1106,76.8,79.0106,75.9 Z" fill="black" stroke="none" stroke-width="0" />
</g>
<text x="1237.5" y="1534.7222222222222" font-size="16.666666666666664" font-family="Arial" text-anchor="middle" fill="black">technical backpack</text>
<text x="1237.5" y="1601.388888888889" font-size="30.0" font-family="Courier New" text-anchor="middle" fill="black">"rucksack"</text>
<g id="import" transform="translate(12.5, 1712.5) scale(2.285479129501681)">
<path d="M65.626701,52.525701 V54.799101 C65.626701,55.916301,65.181391,56.986601,64.396201,57.775701 C63.607141,58.564761,62.536801,59.006201,61.419601,59.006201 H60.114901 C58.997701,59.006201,57.927401,58.564791,57.138301,57.775701 C56.349241,56.986641,55.907801,55.916301,55.907801,54.799101 V52.525701 H31.602801 V54.799101 C31.602801,55.916301,31.157491,56.986601,30.372301,57.775701 C29.583241,58.564761,28.512901,59.006201,27.395701,59.006201 H26.091001 C24.973801,59.006201,23.903501,58.564791,23.114401,57.775701 C22.325341,56.986641,21.883901,55.916301,21.883901,54.799101 V52.525701 H0.008901 V75.213701 H87.5089 V52.525701 Z" fill="black" stroke="none" stroke-width="0" />
<path d="M19.445701,28.502401 V13.916401 C19.445701,13.017961,20.172261,12.295301,21.066801,12.295301 H66.433801 C67.332241,12.295301,68.054901,13.021861,68.054901,13.916401 V28.502401 H64.812701 V15.537401 H22.679701 V28.502401 H19.437501 Z" fill="black" stroke="none" stroke-width="0" />
<path d="M87.5007,48.533061 V41.901781 C87.5007,40.586181,86.97726,39.308021,86.0124,38.245541 L75.3324,26.498341 H12.168401 L1.488401,38.245541 C0.523561,39.308021,0.000101,40.589301,0.000101,41.901781 V48.533061 H21.875101 V46.714341 C21.875101,45.820581,22.320411,44.964341,23.105601,44.333061 C23.894661,43.701813,24.965001,43.345541,26.082201,43.345541 H27.386901 C28.504101,43.345541,29.574401,43.701789,30.363501,44.333061 C31.152561,44.964309,31.594001,45.820581,31.594001,46.714341 V48.533061 H55.899001 V46.714341 C55.899001,45.820581,56.344311,44.964341,57.129501,44.333061 C57.918561,43.701813,58.988901,43.345541,60.106101,43.345541 H61.410801 C62.528001,43.345541,63.598301,43.701789,64.387401,44.333061 C65.176461,44.964309,65.617901,45.820581,65.617901,46.714341 V48.533061 Z" fill="black" stroke="none" stroke-width="0.894427" />
<path d="M62.383701,47.014001 V54.803101 C62.383701,55.060911,62.282141,55.307011,62.098541,55.486691 C61.918851,55.666381,61.668851,55.767941,61.414951,55.767941 H60.110251 C59.852441,55.767941,59.606341,55.666381,59.426661,55.486691 C59.246971,55.307001,59.141501,55.057001,59.141501,54.803101 V47.014001 C59.141501,46.756191,59.243061,46.510091,59.426661,46.330411 C59.606351,46.150721,59.852441,46.045251,60.110251,46.045251 H61.414951 C61.672761,46.045251,61.918861,46.146811,62.098541,46.330411 C62.278231,46.510101,62.383701,46.760101,62.383701,47.014001 Z" fill="black" stroke="none" stroke-width="0" />
<path d="M28.356701,47.014001 V54.803101 C28.356701,55.060911,28.255141,55.307011,28.071541,55.486691 C27.891851,55.666381,27.645761,55.767941,27.387951,55.767941 H26.083251 C25.825441,55.767941,25.579341,55.666381,25.399661,55.486691 C25.219971,55.307001,25.114501,55.057001,25.114501,54.803101 V47.014001 C25.114501,46.756191,25.216061,46.510091,25.399661,46.330411 C25.579351,46.150721,25.829351,46.045251,26.083251,46.045251 H27.387951 C27.645761,46.045251,27.891861,46.146811,28.071541,46.330411 C28.251231,46.510101,28.356701,46.760101,28.356701,47.014001 Z" fill="black" stroke="none" stroke-width="0" />
</g>
<text x="112.5" y="1959.7222222222222" font-size="23.076923076923077" font-family="Arial" text-anchor="middle" fill="black">quality tools</text>
<text x="112.5" y="2026.388888888889" font-size="33.33333333333333" font-family="Courier New" text-anchor="middle" fill="black">"quality"</text>
<g id="import" transform="translate(237.5, 1712.5) scale(8.398421449501194)">
<path d="M0.000134,12.7525 L0.000134,10.1387 C0.000134,8.29798,1.49254,6.80547,3.33335,6.80547 L6.75336,6.80547 L6.75336,6.17192 C6.75336,5.98899,6.90115,5.84119,7.08409,5.84119 L7.71763,5.84119 L7.71763,5.27689 C7.71763,4.7591,7.9233,4.26301,8.29022,3.89714 C8.65608,3.53127,9.15218,3.32559,9.66893,3.32559 L14.1452,3.32559 C14.6619,3.32559,15.159,3.53126,15.5239,3.89714 C15.8897,4.26301,16.0965,4.7591,16.0965,5.27689 L16.0965,5.84119 L16.73,5.84119 C16.9129,5.84119,17.0607,5.98899,17.0607,6.17192 L17.0607,6.80547 L20.4807,6.80547 C22.3214,6.80547,23.814,8.29788,23.814,10.1387 L23.814,12.7525 L13.6844,12.7525 L13.6844,13.4139 L23.814,13.4139 L23.814,19.0548 C23.814,19.4362,23.6631,19.8011,23.3944,20.0698 C23.1246,20.3395,22.7598,20.4894,22.3794,20.4894 L1.43608,20.4894 C1.05574,20.4894,0.690908,20.3385,0.421165,20.0698 C0.152454,19.8011,0.001562,19.4362,0.001562,19.0548 L0.001562,13.4139 L10.1322,13.4139 L10.1322,12.7525 Z M8.3779,5.84236 L9.01248,5.84236 C9.19541,5.84236,9.34321,5.99015,9.34321,6.17309 L9.34321,6.80663 L14.4695,6.80663 L14.4695,6.17309 C14.4695,5.99015,14.6173,5.84236,14.8002,5.84236 L15.4348,5.84236 L15.4348,5.27805 C15.4348,4.93595,15.2984,4.60834,15.0565,4.36648 C14.8147,4.12464,14.486,3.98821,14.145,3.98821 L9.66875,3.98821 C9.32767,3.98821,8.99904,4.1236,8.75718,4.36648 C8.51534,4.60833,8.37891,4.93595,8.37891,5.27805 L8.37891,5.84236 Z M13.0227,13.9555 L13.0227,11.3262 L10.7902,11.3262 L10.7902,13.9555 Z" fill="black" stroke="none" stroke-width="0.264583" />
</g>
<text x="337.5" y="1959.7222222222222" font-size="25.0" font-family="Arial" text-anchor="middle" fill="black">simple tools</text>
<text x="337.5" y="2026.388888888889" font-size="37.5" font-family="Courier New" text-anchor="middle" fill="black">"simple"</text>
<g id="import" transform="translate(462.5, 1712.5) scale(7.554581568535863)">
<path d="M26.0524,8.27386 L8.87296,8.27386 C9.2618,9.07419,9.04627,9.99166,9.1024,10.8526 C9.08244,12.3806,9.14511,13.9123,9.06565,15.4377 C9.23132,16.0281,8.14444,16.8844,8.90873,17.1122 C9.32114,17.4409,9.87659,17.393,10.0866,16.8697 C10.3414,16.5077,10.5963,16.1456,10.8511,15.7835 C11.3735,15.8769,11.8844,16.0864,12.4155,16.0923 C12.8665,15.7859,13.1903,15.3215,13.5858,14.9463 C14.1218,15.0421,14.6457,15.2576,15.1905,15.2658 C15.6409,14.9637,15.965,14.4928,16.3619,14.1195 C16.8982,14.2152,17.4225,14.4311,17.9676,14.4386 C18.4184,14.1324,18.7417,13.6679,19.1369,13.2927 C19.6729,13.3885,20.1968,13.604,20.7416,13.6122 C21.1916,13.3104,21.5147,12.8391,21.9109,12.4659 C22.4464,12.5616,22.9699,12.7772,23.5142,12.7854 C23.9632,12.4853,24.2848,12.0151,24.6798,11.6432 C25.1663,11.7419,25.6399,11.9368,26.1356,11.9674 C26.6601,11.7517,26.4012,11.1017,26.4637,10.6584 C26.4444,9.94819,26.5037,9.23016,26.4312,8.52531 C26.3712,8.37484,26.2073,8.26846,26.0524,8.27386 Z" fill="black" stroke="none" stroke-width="0.264583" />
<path d="M7.44871,8.27386 C5.18856,8.28503,2.92617,8.25151,0.667435,8.29065 C-0.103475,8.4431,0.00311,9.29927,0.0073,9.89185 C0.018441,12.4395,-0.015017,14.9894,0.02409,17.5356 C0.17654,18.3065,1.03271,18.1999,1.62529,18.1957 C2.90685,18.1757,4.19259,18.2391,5.47111,18.1575 C7.17594,17.936,8.44781,16.2437,8.27553,14.5494 C8.26446,12.6779,8.29775,10.8041,8.25874,8.934 C8.18797,8.55825,7.83133,8.26689,7.44871,8.27386 Z M4.96824,14.8884 C5.03087,16.1614,3.41048,17.0226,2.38987,16.2598 C1.50941,15.7208,1.66919,14.6359,1.66095,13.7582 C1.69321,12.8694,1.58649,11.9666,1.73526,11.0893 C2.05318,9.86587,3.83433,9.51621,4.59074,10.5291 C5.18385,11.2824,4.90173,12.2807,4.96824,13.1635 L4.96824,14.8884 Z" fill="black" stroke="none" stroke-width="0.264583" />
</g>
<text x="562.5" y="1959.7222222222222" font-size="17.647058823529413" font-family="Arial" text-anchor="middle" fill="black">woodworking tools</text>
<text x="562.5" y="2026.388888888889" font-size="23.076923076923077" font-family="Courier New" text-anchor="middle" fill="black">"woodworking"</text>
</svg>